G04 #@! TF.GenerationSoftware,KiCad,Pcbnew,(5.1.2-1)-1*
G04 #@! TF.CreationDate,2019-06-04T19:14:02+03:00*
G04 #@! TF.ProjectId,mag,6d61672e-6b69-4636-9164-5f7063625858,rev?*
G04 #@! TF.SameCoordinates,Original*
G04 #@! TF.FileFunction,Copper,L2,Bot*
G04 #@! TF.FilePolarity,Positive*
%FSLAX46Y46*%
G04 Gerber Fmt 4.6, Leading zero omitted, Abs format (unit mm)*
G04 Created by KiCad (PCBNEW (5.1.2-1)-1) date 2019-06-04 19:14:02*
%MOMM*%
%LPD*%
G04 APERTURE LIST*
%ADD10C,1.700000*%
%ADD11R,1.700000X1.700000*%
%ADD12R,1.500000X0.750000*%
%ADD13R,1.500000X0.550000*%
%ADD14R,0.550000X1.500000*%
%ADD15R,1.500000X0.400000*%
%ADD16R,0.750000X1.500000*%
%ADD17C,0.800000*%
%ADD18C,0.250000*%
%ADD19C,0.200000*%
G04 APERTURE END LIST*
D10*
X117750000Y-75000000D03*
D11*
X120290000Y-75000000D03*
X122830000Y-75000000D03*
X125370000Y-75000000D03*
X127910000Y-75000000D03*
X130450000Y-75000000D03*
X132990000Y-75000000D03*
X135530000Y-75000000D03*
X138070000Y-75000000D03*
X140610000Y-75000000D03*
X143150000Y-75000000D03*
X145690000Y-75000000D03*
X148230000Y-75000000D03*
X150770000Y-75000000D03*
X153310000Y-75000000D03*
X155850000Y-75000000D03*
X158390000Y-75000000D03*
X160930000Y-75000000D03*
X163470000Y-75000000D03*
X166010000Y-75000000D03*
X117750000Y-41980000D03*
X120290000Y-41980000D03*
X122830000Y-41980000D03*
X125370000Y-41980000D03*
X127910000Y-41980000D03*
X130450000Y-41980000D03*
X132990000Y-41980000D03*
X135530000Y-41980000D03*
X138070000Y-41980000D03*
X140610000Y-41980000D03*
X143150000Y-41980000D03*
X145690000Y-41980000D03*
X148230000Y-41980000D03*
X150770000Y-41980000D03*
X153310000Y-41980000D03*
X155850000Y-41980000D03*
X158390000Y-41980000D03*
X160930000Y-41980000D03*
X163470000Y-41980000D03*
X166010000Y-41980000D03*
X112620000Y-79000000D03*
X110080000Y-79000000D03*
X107540000Y-79000000D03*
D10*
X105000000Y-79000000D03*
D12*
X103750000Y-61250000D03*
X103750000Y-62750000D03*
X118500000Y-58000000D03*
X118500000Y-59500000D03*
X121250000Y-59500000D03*
X121250000Y-58000000D03*
X121250000Y-64750000D03*
X121250000Y-63250000D03*
X118500000Y-63250000D03*
X118500000Y-64750000D03*
D13*
X106000000Y-65550000D03*
X106000000Y-64750000D03*
X106000000Y-63950000D03*
X106000000Y-63150000D03*
X106000000Y-62350000D03*
X106000000Y-61550000D03*
X106000000Y-60750000D03*
X106000000Y-59950000D03*
D14*
X107700000Y-58250000D03*
X108500000Y-58250000D03*
X109300000Y-58250000D03*
X110100000Y-58250000D03*
X110900000Y-58250000D03*
X111700000Y-58250000D03*
X112500000Y-58250000D03*
X113300000Y-58250000D03*
D13*
X115000000Y-59950000D03*
X115000000Y-60750000D03*
X115000000Y-61550000D03*
X115000000Y-62350000D03*
X115000000Y-63150000D03*
X115000000Y-63950000D03*
X115000000Y-64750000D03*
X115000000Y-65550000D03*
D14*
X113300000Y-67300000D03*
X112500000Y-67300000D03*
X111700000Y-67300000D03*
X110900000Y-67300000D03*
X110100000Y-67300000D03*
X109300000Y-67300000D03*
X108500000Y-67300000D03*
X107700000Y-67300000D03*
D15*
X117250000Y-53750000D03*
X123250000Y-53750000D03*
X117250000Y-53100000D03*
X123250000Y-53100000D03*
X117250000Y-52450000D03*
X123250000Y-52450000D03*
X117250000Y-51800000D03*
X123250000Y-51800000D03*
X117250000Y-51150000D03*
X123250000Y-51150000D03*
X117250000Y-50500000D03*
X123250000Y-50500000D03*
X117250000Y-49850000D03*
X123250000Y-49850000D03*
X117250000Y-49200000D03*
X123250000Y-49200000D03*
X117250000Y-48550000D03*
X123250000Y-48550000D03*
X117250000Y-47900000D03*
X123250000Y-47900000D03*
X136750000Y-47900000D03*
X130750000Y-47900000D03*
X136750000Y-48550000D03*
X130750000Y-48550000D03*
X136750000Y-49200000D03*
X130750000Y-49200000D03*
X136750000Y-49850000D03*
X130750000Y-49850000D03*
X136750000Y-50500000D03*
X130750000Y-50500000D03*
X136750000Y-51150000D03*
X130750000Y-51150000D03*
X136750000Y-51800000D03*
X130750000Y-51800000D03*
X136750000Y-52450000D03*
X130750000Y-52450000D03*
X136750000Y-53100000D03*
X130750000Y-53100000D03*
X136750000Y-53750000D03*
X130750000Y-53750000D03*
D12*
X105000000Y-76500000D03*
X105000000Y-75000000D03*
X107500000Y-75000000D03*
X107500000Y-76500000D03*
D16*
X105500000Y-54500000D03*
X104000000Y-54500000D03*
D12*
X124250000Y-60250000D03*
X124250000Y-61750000D03*
X124250000Y-67000000D03*
X124250000Y-65500000D03*
D10*
X100000000Y-44250000D03*
D11*
X100000000Y-46790000D03*
X100000000Y-49330000D03*
D10*
X99750000Y-66500000D03*
D11*
X99750000Y-69040000D03*
X99750000Y-71580000D03*
X99750000Y-74120000D03*
X99750000Y-76660000D03*
X99750000Y-79200000D03*
D10*
X106250000Y-44250000D03*
D11*
X106250000Y-46790000D03*
X106250000Y-49330000D03*
X103710000Y-44250000D03*
X103710000Y-46790000D03*
X103710000Y-49330000D03*
X119130000Y-79000000D03*
X121670000Y-79000000D03*
X124210000Y-79000000D03*
D10*
X126750000Y-79000000D03*
X181750000Y-62500000D03*
D11*
X181750000Y-43000000D03*
D15*
X144500000Y-53750000D03*
X150500000Y-53750000D03*
X144500000Y-53100000D03*
X150500000Y-53100000D03*
X144500000Y-52450000D03*
X150500000Y-52450000D03*
X144500000Y-51800000D03*
X150500000Y-51800000D03*
X144500000Y-51150000D03*
X150500000Y-51150000D03*
X144500000Y-50500000D03*
X150500000Y-50500000D03*
X144500000Y-49850000D03*
X150500000Y-49850000D03*
X144500000Y-49200000D03*
X150500000Y-49200000D03*
X144500000Y-48550000D03*
X150500000Y-48550000D03*
X144500000Y-47900000D03*
X150500000Y-47900000D03*
X164000000Y-47900000D03*
X158000000Y-47900000D03*
X164000000Y-48550000D03*
X158000000Y-48550000D03*
X164000000Y-49200000D03*
X158000000Y-49200000D03*
X164000000Y-49850000D03*
X158000000Y-49850000D03*
X164000000Y-50500000D03*
X158000000Y-50500000D03*
X164000000Y-51150000D03*
X158000000Y-51150000D03*
X164000000Y-51800000D03*
X158000000Y-51800000D03*
X164000000Y-52450000D03*
X158000000Y-52450000D03*
X164000000Y-53100000D03*
X158000000Y-53100000D03*
X164000000Y-53750000D03*
X158000000Y-53750000D03*
D17*
X142000000Y-56500000D03*
X128500000Y-56500000D03*
X115000000Y-56500000D03*
X155500000Y-56500000D03*
X117000000Y-59500000D03*
X122737347Y-64012653D03*
X104250000Y-58250000D03*
X102500000Y-54500000D03*
X109250000Y-73500000D03*
X120000000Y-64000000D03*
X120000000Y-58750000D03*
X117750000Y-55000000D03*
X121000000Y-55000000D03*
X142000000Y-46500000D03*
X128500000Y-46500000D03*
X115000000Y-46500000D03*
X155500000Y-46500000D03*
X146000000Y-77500000D03*
X159250000Y-77500000D03*
X103750000Y-64000000D03*
X119000000Y-69250000D03*
X121500000Y-69250000D03*
X106000000Y-66750000D03*
X115000000Y-42500000D03*
X115000000Y-43500000D03*
X115000000Y-44500000D03*
X115000000Y-45500000D03*
X142000000Y-47500000D03*
X128500000Y-47500000D03*
X115000000Y-47500000D03*
X155500000Y-47500000D03*
X142000000Y-48500000D03*
X128500000Y-48500000D03*
X115000000Y-48500000D03*
X155500000Y-48500000D03*
X142000000Y-49500000D03*
X128500000Y-49500000D03*
X115000000Y-49500000D03*
X155500000Y-49500000D03*
X142000000Y-50500000D03*
X128500000Y-50500000D03*
X115000000Y-50500000D03*
X155500000Y-50500000D03*
X142000000Y-51500000D03*
X128500000Y-51500000D03*
X115000000Y-51500000D03*
X155500000Y-51500000D03*
X142000000Y-52500000D03*
X128500000Y-52500000D03*
X115000000Y-52500000D03*
X155500000Y-52500000D03*
X142000000Y-53500000D03*
X128500000Y-53500000D03*
X115000000Y-53500000D03*
X155500000Y-53500000D03*
X155500000Y-54500000D03*
X115000000Y-54500000D03*
X128500000Y-54500000D03*
X142000000Y-54500000D03*
X142000000Y-55500000D03*
X128500000Y-55500000D03*
X115000000Y-55500000D03*
X155500000Y-55500000D03*
X147500000Y-77500000D03*
X134250000Y-77500000D03*
X111750000Y-70000000D03*
X109250000Y-70000000D03*
X124500000Y-57250000D03*
X125500000Y-57250000D03*
X126500000Y-57250000D03*
X127500000Y-57250000D03*
X127500000Y-45500000D03*
X126500000Y-45500000D03*
X125500000Y-45500000D03*
X124500000Y-45500000D03*
X138000000Y-45500000D03*
X139000000Y-45500000D03*
X140000000Y-45500000D03*
X141000000Y-45500000D03*
X141000000Y-57250000D03*
X140000000Y-57250000D03*
X139000000Y-57250000D03*
X138000000Y-57250000D03*
X151500000Y-57250000D03*
X152500000Y-57250000D03*
X153500000Y-57250000D03*
X154500000Y-57250000D03*
X154500000Y-45500000D03*
X153500000Y-45500000D03*
X152500000Y-45500000D03*
X151500000Y-45500000D03*
X165000000Y-45500000D03*
X166000000Y-45500000D03*
X167000000Y-45500000D03*
X168000000Y-45500000D03*
X168000000Y-57250000D03*
X167000000Y-57250000D03*
X166000000Y-57250000D03*
X165000000Y-57250000D03*
X123500000Y-57250000D03*
X109000000Y-42250000D03*
X109000000Y-48500000D03*
D18*
X145000000Y-56500000D02*
X142000000Y-56500000D01*
X147750000Y-53750000D02*
X145000000Y-56500000D01*
X150250000Y-53750000D02*
X147750000Y-53750000D01*
X131500000Y-56500000D02*
X128500000Y-56500000D01*
X134250000Y-53750000D02*
X131500000Y-56500000D01*
X136750000Y-53750000D02*
X134250000Y-53750000D01*
X158500000Y-56500000D02*
X155500000Y-56500000D01*
X161250000Y-53750000D02*
X158500000Y-56500000D01*
X163750000Y-53750000D02*
X161250000Y-53750000D01*
X105000000Y-75000000D02*
X105000000Y-73750000D01*
X105000000Y-73750000D02*
X105250000Y-73500000D01*
X105250000Y-73500000D02*
X107250000Y-73500000D01*
X107250000Y-73500000D02*
X107500000Y-73750000D01*
X107500000Y-73750000D02*
X107500000Y-75000000D01*
X110080000Y-80100000D02*
X110480000Y-80500000D01*
X110080000Y-79000000D02*
X110080000Y-80100000D01*
X110480000Y-80500000D02*
X113500000Y-80500000D01*
X113500000Y-80500000D02*
X114750000Y-80500000D01*
X114750000Y-80500000D02*
X126500000Y-80500000D01*
X126500000Y-80500000D02*
X126750000Y-80250000D01*
X126750000Y-80250000D02*
X126750000Y-79000000D01*
X105000000Y-61550000D02*
X104700000Y-61250000D01*
X106000000Y-61550000D02*
X105000000Y-61550000D01*
X104700000Y-61250000D02*
X103750000Y-61250000D01*
X107000000Y-63150000D02*
X107250000Y-62900000D01*
X106000000Y-63150000D02*
X107000000Y-63150000D01*
X107250000Y-62900000D02*
X107250000Y-61750000D01*
X107250000Y-61750000D02*
X107000000Y-61500000D01*
X107000000Y-61500000D02*
X106000000Y-61500000D01*
X118250000Y-60750000D02*
X118500000Y-60500000D01*
X118500000Y-60500000D02*
X118500000Y-59500000D01*
X115000000Y-60750000D02*
X116000000Y-60750000D01*
X116000000Y-60750000D02*
X116750000Y-60750000D01*
X117000000Y-60500000D02*
X117000000Y-59500000D01*
X116750000Y-60750000D02*
X117000000Y-60500000D01*
X117250000Y-60750000D02*
X117000000Y-60500000D01*
X117500000Y-60750000D02*
X117250000Y-60750000D01*
X117500000Y-60750000D02*
X118250000Y-60750000D01*
X118500000Y-60500000D02*
X118750000Y-60750000D01*
X118750000Y-60750000D02*
X119750000Y-60750000D01*
X119750000Y-60750000D02*
X121000000Y-60750000D01*
X121000000Y-60750000D02*
X121250000Y-60500000D01*
X121250000Y-60500000D02*
X121250000Y-59500000D01*
X121250000Y-63250000D02*
X122250000Y-63250000D01*
X122250000Y-63250000D02*
X122750000Y-63750000D01*
X122737347Y-63762653D02*
X122737347Y-64012653D01*
X122750000Y-63750000D02*
X122737347Y-63762653D01*
X103750000Y-58750000D02*
X104250000Y-58250000D01*
X103750000Y-61250000D02*
X103750000Y-58750000D01*
X104000000Y-54500000D02*
X102500000Y-54500000D01*
X120250000Y-53750000D02*
X121000000Y-53750000D01*
X117500000Y-56500000D02*
X120250000Y-53750000D01*
X123250000Y-53750000D02*
X121000000Y-53750000D01*
X117000000Y-57000000D02*
X117500000Y-56500000D01*
X117000000Y-57000000D02*
X116500000Y-56500000D01*
X117000000Y-57250000D02*
X117000000Y-57000000D01*
X115000000Y-56500000D02*
X116500000Y-56500000D01*
X117000000Y-59500000D02*
X117000000Y-57250000D01*
X107500000Y-73750000D02*
X107750000Y-73500000D01*
X107750000Y-73500000D02*
X109000000Y-73500000D01*
X143700000Y-47900000D02*
X142199997Y-46399997D01*
X144250000Y-47900000D02*
X143700000Y-47900000D01*
X142199997Y-46399997D02*
X142000000Y-46399997D01*
X130200000Y-47900000D02*
X128699997Y-46399997D01*
X130750000Y-47900000D02*
X130200000Y-47900000D01*
X128699997Y-46399997D02*
X128500000Y-46399997D01*
X115199997Y-46399997D02*
X115000000Y-46399997D01*
X117250000Y-47900000D02*
X116700000Y-47900000D01*
X157200000Y-47900000D02*
X155699997Y-46399997D01*
X157750000Y-47900000D02*
X157200000Y-47900000D01*
X155699997Y-46399997D02*
X155500000Y-46399997D01*
X99750000Y-66500000D02*
X102250000Y-66500000D01*
X119130000Y-77900000D02*
X119530000Y-77500000D01*
X119130000Y-79000000D02*
X119130000Y-77900000D01*
X119530000Y-77500000D02*
X122750000Y-77500000D01*
X122750000Y-77500000D02*
X126000000Y-77500000D01*
X127500000Y-77500000D02*
X128000000Y-78000000D01*
X126000000Y-77500000D02*
X126500000Y-77500000D01*
X126500000Y-77500000D02*
X127250000Y-77500000D01*
X126500000Y-77500000D02*
X127500000Y-77500000D01*
X127250000Y-77500000D02*
X128250000Y-78500000D01*
X181750000Y-62500000D02*
X176500000Y-62500000D01*
X176500000Y-62500000D02*
X167000000Y-72000000D01*
X105000000Y-62350000D02*
X104600000Y-62750000D01*
X106000000Y-62350000D02*
X105000000Y-62350000D01*
X104600000Y-62750000D02*
X103750000Y-62750000D01*
X103750000Y-62750000D02*
X103750000Y-64000000D01*
X103800000Y-63950000D02*
X103750000Y-64000000D01*
X106000000Y-63950000D02*
X103800000Y-63950000D01*
X117700000Y-64750000D02*
X116100000Y-63150000D01*
X118500000Y-64750000D02*
X117700000Y-64750000D01*
X115000000Y-63150000D02*
X116100000Y-63150000D01*
X116900001Y-74150001D02*
X116900001Y-73349999D01*
X117750000Y-75000000D02*
X116900001Y-74150001D01*
X116900001Y-73349999D02*
X117000000Y-73250000D01*
X106000000Y-63950000D02*
X107450000Y-63950000D01*
X115000000Y-63150000D02*
X113650000Y-63150000D01*
X120000000Y-58750000D02*
X120000000Y-58500000D01*
X120000000Y-58500000D02*
X119750000Y-58250000D01*
X119750000Y-58250000D02*
X119750000Y-58000000D01*
X120000000Y-64000000D02*
X119750000Y-64250000D01*
X119750000Y-64250000D02*
X119750000Y-64750000D01*
X115000000Y-62350000D02*
X118350000Y-62350000D01*
X118350000Y-62350000D02*
X118500000Y-62500000D01*
X118500000Y-62500000D02*
X118500000Y-63250000D01*
X161100012Y-47900000D02*
X163750000Y-47900000D01*
X159850006Y-46649994D02*
X161100012Y-47900000D01*
X159850006Y-46600006D02*
X159850006Y-46649994D01*
X115565685Y-42500000D02*
X116565685Y-43500000D01*
X156750000Y-43500000D02*
X159850006Y-46600006D01*
X116565685Y-43500000D02*
X156750000Y-43500000D01*
X115000000Y-42500000D02*
X115565685Y-42500000D01*
X112000000Y-47704360D02*
X112000000Y-44934315D01*
X107750000Y-51954360D02*
X112000000Y-47704360D01*
X114434315Y-42500000D02*
X115000000Y-42500000D01*
X107750000Y-54363590D02*
X107750000Y-51954360D01*
X105113590Y-57000000D02*
X107750000Y-54363590D01*
X112000000Y-44934315D02*
X114434315Y-42500000D01*
X103250000Y-57000000D02*
X105113590Y-57000000D01*
X102000000Y-58250000D02*
X103250000Y-57000000D01*
X103413590Y-65550000D02*
X102000000Y-64136410D01*
X102000000Y-64136410D02*
X102000000Y-58250000D01*
X106000000Y-65550000D02*
X103413590Y-65550000D01*
X146475006Y-46774994D02*
X146350006Y-46649994D01*
X147600012Y-47900000D02*
X147475006Y-47774994D01*
X150250000Y-47900000D02*
X147600012Y-47900000D01*
X147475006Y-47774994D02*
X146475006Y-46774994D01*
X115565685Y-43500000D02*
X116065685Y-44000000D01*
X115000000Y-43500000D02*
X115565685Y-43500000D01*
X143700012Y-44000000D02*
X143850006Y-44149994D01*
X116065685Y-44000000D02*
X143700012Y-44000000D01*
X143850006Y-44149994D02*
X146475006Y-46774994D01*
X114434315Y-43500000D02*
X115000000Y-43500000D01*
X108250000Y-54500000D02*
X108250000Y-52090770D01*
X105250000Y-57500000D02*
X108250000Y-54500000D01*
X112500000Y-45434315D02*
X114434315Y-43500000D01*
X102500000Y-64000000D02*
X102500000Y-58500000D01*
X108250000Y-52090770D02*
X112500000Y-47840770D01*
X103250000Y-64750000D02*
X102500000Y-64000000D01*
X103500000Y-57500000D02*
X105250000Y-57500000D01*
X112500000Y-47840770D02*
X112500000Y-45434315D01*
X102500000Y-58500000D02*
X103500000Y-57500000D01*
X106000000Y-64750000D02*
X103250000Y-64750000D01*
X134100012Y-47900000D02*
X136750000Y-47900000D01*
X130700012Y-44500000D02*
X134100012Y-47900000D01*
X115000000Y-44500000D02*
X130700012Y-44500000D01*
X108849981Y-52150019D02*
X108849982Y-52127198D01*
X108750000Y-52250000D02*
X108849981Y-52150019D01*
X114250000Y-44500000D02*
X115000000Y-44500000D01*
X108750000Y-54863590D02*
X108750000Y-52250000D01*
X104299991Y-60049991D02*
X104299991Y-59313599D01*
X108849982Y-52127198D02*
X113000000Y-47977180D01*
X104299991Y-59313599D02*
X108750000Y-54863590D01*
X105000000Y-60750000D02*
X104299991Y-60049991D01*
X113000000Y-45750000D02*
X114250000Y-44500000D01*
X113000000Y-47977180D02*
X113000000Y-45750000D01*
X106000000Y-60750000D02*
X105000000Y-60750000D01*
X123250000Y-47900000D02*
X120600012Y-47900000D01*
X115000000Y-45500000D02*
X118200012Y-45500000D01*
X118200012Y-45500000D02*
X119350006Y-46649994D01*
X120600012Y-47900000D02*
X119350006Y-46649994D01*
X114250000Y-45500000D02*
X115000000Y-45500000D01*
X109299991Y-52313599D02*
X113450010Y-48163580D01*
X109299991Y-54950009D02*
X109299991Y-52313599D01*
X104750000Y-59500000D02*
X109299991Y-54950009D01*
X104750000Y-59700000D02*
X104750000Y-59500000D01*
X113450010Y-48163580D02*
X113450010Y-46299990D01*
X105000000Y-59950000D02*
X104750000Y-59700000D01*
X113450010Y-46299990D02*
X114250000Y-45500000D01*
X106000000Y-59950000D02*
X105000000Y-59950000D01*
X143223002Y-48550000D02*
X142073002Y-47400001D01*
X144250000Y-48549999D02*
X143223002Y-48550000D01*
X142073002Y-47400001D02*
X142000000Y-47400000D01*
X129723002Y-48550000D02*
X128573002Y-47400001D01*
X130750000Y-48549999D02*
X129723002Y-48550000D01*
X128573002Y-47400001D02*
X128500000Y-47400000D01*
X115073002Y-47400001D02*
X115000000Y-47400000D01*
X117250000Y-48549999D02*
X116223002Y-48550000D01*
X116223002Y-48550000D02*
X115073002Y-47400001D01*
X156723002Y-48550000D02*
X155573002Y-47400001D01*
X157750000Y-48549999D02*
X156723002Y-48550000D01*
X155573002Y-47400001D02*
X155500000Y-47400000D01*
X114750000Y-47500000D02*
X115000000Y-47500000D01*
X109750000Y-52500000D02*
X114750000Y-47500000D01*
X109750000Y-55200000D02*
X109750000Y-52500000D01*
X107700000Y-57250000D02*
X109750000Y-55200000D01*
X107700000Y-58250000D02*
X107700000Y-57250000D01*
X142873002Y-49200000D02*
X142725001Y-49051999D01*
X144250000Y-49200000D02*
X142873002Y-49200000D01*
X142073002Y-48399999D02*
X142000000Y-48400000D01*
X142725001Y-49051999D02*
X142073002Y-48399999D01*
X129373002Y-49200000D02*
X129225001Y-49051999D01*
X130750000Y-49200000D02*
X129373002Y-49200000D01*
X129225001Y-49051999D02*
X128573002Y-48399999D01*
X128573002Y-48399999D02*
X128500000Y-48400000D01*
X115725001Y-49051999D02*
X115073002Y-48399999D01*
X115073002Y-48399999D02*
X115000000Y-48400000D01*
X115873002Y-49200000D02*
X115725001Y-49051999D01*
X117250000Y-49200000D02*
X115873002Y-49200000D01*
X156373002Y-49200000D02*
X156225001Y-49051999D01*
X157750000Y-49200000D02*
X156373002Y-49200000D01*
X155573002Y-48399999D02*
X155500000Y-48400000D01*
X156225001Y-49051999D02*
X155573002Y-48399999D01*
X110250000Y-53000000D02*
X114750000Y-48500000D01*
X110250000Y-55500000D02*
X110250000Y-53000000D01*
X114750000Y-48500000D02*
X115000000Y-48500000D01*
X108500000Y-57250000D02*
X110250000Y-55500000D01*
X108500000Y-58250000D02*
X108500000Y-57250000D01*
X142523002Y-49850000D02*
X142073002Y-49400000D01*
X144250000Y-49850000D02*
X142523002Y-49850000D01*
X142073002Y-49400000D02*
X142000000Y-49400000D01*
X130750000Y-49850000D02*
X129023002Y-49850000D01*
X129023002Y-49850000D02*
X128573002Y-49400000D01*
X128573002Y-49400000D02*
X128500000Y-49400000D01*
X115073002Y-49400000D02*
X115000000Y-49400000D01*
X117250000Y-49850000D02*
X115523002Y-49850000D01*
X115523002Y-49850000D02*
X115073002Y-49400000D01*
X156023002Y-49850000D02*
X155573002Y-49400000D01*
X157750000Y-49850000D02*
X156023002Y-49850000D01*
X155573002Y-49400000D02*
X155500000Y-49400000D01*
X114750000Y-49500000D02*
X115000000Y-49500000D01*
X110750000Y-53500000D02*
X114750000Y-49500000D01*
X110750000Y-55750000D02*
X110750000Y-53500000D01*
X109300000Y-57200000D02*
X110750000Y-55750000D01*
X109300000Y-58250000D02*
X109300000Y-57200000D01*
X142100000Y-50500000D02*
X142000000Y-50400000D01*
X144250000Y-50500001D02*
X142100000Y-50500000D01*
X130750000Y-50500001D02*
X128600000Y-50500000D01*
X128600000Y-50500000D02*
X128500000Y-50400000D01*
X117250000Y-50500001D02*
X115100000Y-50500000D01*
X115100000Y-50500000D02*
X115000000Y-50400000D01*
X155600000Y-50500000D02*
X155500000Y-50400000D01*
X157750000Y-50500001D02*
X155600000Y-50500000D01*
X111250000Y-54000000D02*
X114750000Y-50500000D01*
X111250000Y-56100000D02*
X111250000Y-54000000D01*
X114750000Y-50500000D02*
X115000000Y-50500000D01*
X110100000Y-57250000D02*
X111250000Y-56100000D01*
X110100000Y-58250000D02*
X110100000Y-57250000D01*
X116000000Y-51500000D02*
X115000000Y-51500000D01*
X116350000Y-51150000D02*
X116000000Y-51500000D01*
X117500000Y-51150000D02*
X116350000Y-51150000D01*
X129500000Y-51500000D02*
X128500000Y-51500000D01*
X129850000Y-51150000D02*
X129500000Y-51500000D01*
X131000000Y-51150000D02*
X129850000Y-51150000D01*
X143000000Y-51500000D02*
X142000000Y-51500000D01*
X143350000Y-51150000D02*
X143000000Y-51500000D01*
X144500000Y-51150000D02*
X143350000Y-51150000D01*
X158000000Y-51150000D02*
X156850000Y-51150000D01*
X156500000Y-51500000D02*
X155500000Y-51500000D01*
X156850000Y-51150000D02*
X156500000Y-51500000D01*
X110900000Y-57250000D02*
X111750000Y-56400000D01*
X110900000Y-58250000D02*
X110900000Y-57250000D01*
X111750000Y-56400000D02*
X111750000Y-55250000D01*
X111750000Y-55250000D02*
X111750000Y-54750000D01*
X114926998Y-51500000D02*
X111750000Y-54676998D01*
X111750000Y-54676998D02*
X111750000Y-55250000D01*
X115000000Y-51500000D02*
X114926998Y-51500000D01*
X117500000Y-51800000D02*
X116450000Y-51800000D01*
X131000000Y-51800000D02*
X129950000Y-51800000D01*
X143450000Y-51800000D02*
X142750000Y-52500000D01*
X144500000Y-51800000D02*
X143450000Y-51800000D01*
X142750000Y-52500000D02*
X142000000Y-52500000D01*
X142073001Y-52400000D02*
X142000000Y-52400000D01*
X128573001Y-52400000D02*
X128500000Y-52400000D01*
X115073001Y-52400000D02*
X115000000Y-52400000D01*
X158000000Y-51800000D02*
X156950000Y-51800000D01*
X156250000Y-52500000D02*
X155500000Y-52500000D01*
X156950000Y-51800000D02*
X156250000Y-52500000D01*
X115636410Y-52500000D02*
X115565685Y-52500000D01*
X116336410Y-51800000D02*
X115636410Y-52500000D01*
X115565685Y-52500000D02*
X115000000Y-52500000D01*
X117250000Y-51800000D02*
X116336410Y-51800000D01*
X129065685Y-52500000D02*
X128500000Y-52500000D01*
X129136410Y-52500000D02*
X129065685Y-52500000D01*
X129836410Y-51800000D02*
X129136410Y-52500000D01*
X130750000Y-51800000D02*
X129836410Y-51800000D01*
X111700000Y-57250000D02*
X111700000Y-58250000D01*
X112250000Y-56700000D02*
X111700000Y-57250000D01*
X112250000Y-55176998D02*
X112250000Y-56700000D01*
X114926998Y-52500000D02*
X112250000Y-55176998D01*
X115000000Y-52500000D02*
X114926998Y-52500000D01*
X142073002Y-53400000D02*
X142000000Y-53400000D01*
X128573002Y-53400000D02*
X128500000Y-53400000D01*
X115073002Y-53400000D02*
X115000000Y-53400000D01*
X156000000Y-53450000D02*
X156000000Y-53463590D01*
X157000000Y-52450000D02*
X156000000Y-53450000D01*
X158000000Y-52450000D02*
X157000000Y-52450000D01*
X155963590Y-53500000D02*
X155500000Y-53500000D01*
X156000000Y-53463590D02*
X155963590Y-53500000D01*
X130000000Y-52450000D02*
X131000000Y-52450000D01*
X143500000Y-52450000D02*
X144500000Y-52450000D01*
X142450000Y-53500000D02*
X143500000Y-52450000D01*
X142000000Y-53500000D02*
X142450000Y-53500000D01*
X116500000Y-52450000D02*
X117500000Y-52450000D01*
X115314998Y-53500000D02*
X115000000Y-53500000D01*
X116364998Y-52450000D02*
X115314998Y-53500000D01*
X117250000Y-52450000D02*
X116364998Y-52450000D01*
X128814998Y-53500000D02*
X128500000Y-53500000D01*
X129864998Y-52450000D02*
X128814998Y-53500000D01*
X130750000Y-52450000D02*
X129864998Y-52450000D01*
X112500000Y-57250000D02*
X112500000Y-58250000D01*
X112750000Y-57000000D02*
X112500000Y-57250000D01*
X112750000Y-55500000D02*
X112750000Y-57000000D01*
X114750000Y-53500000D02*
X112750000Y-55500000D01*
X115000000Y-53500000D02*
X114750000Y-53500000D01*
X117500000Y-53100000D02*
X116500000Y-53100000D01*
X131000000Y-53100000D02*
X130000000Y-53100000D01*
X143500000Y-53100000D02*
X142100000Y-54500000D01*
X144500000Y-53100000D02*
X143500000Y-53100000D01*
X142073002Y-54400000D02*
X142000000Y-54400000D01*
X128573002Y-54400000D02*
X128500000Y-54400000D01*
X115073002Y-54400000D02*
X115000000Y-54400000D01*
X113300000Y-58250000D02*
X113300000Y-55634315D01*
X114434315Y-54500000D02*
X115000000Y-54500000D01*
X113300000Y-55634315D02*
X114434315Y-54500000D01*
X155600000Y-54500000D02*
X155500000Y-54500000D01*
X157000000Y-53100000D02*
X155600000Y-54500000D01*
X158000000Y-53100000D02*
X157000000Y-53100000D01*
X116473002Y-53100000D02*
X115073002Y-54500000D01*
X115073002Y-54500000D02*
X115000000Y-54500000D01*
X117250000Y-53100000D02*
X116473002Y-53100000D01*
X128573002Y-54500000D02*
X128500000Y-54500000D01*
X129973002Y-53100000D02*
X128573002Y-54500000D01*
X130750000Y-53100000D02*
X129973002Y-53100000D01*
X142000000Y-55450000D02*
X142000000Y-55500000D01*
X130750000Y-53750000D02*
X130200000Y-53750000D01*
X128500000Y-55450000D02*
X128500000Y-55500000D01*
X115000000Y-55450000D02*
X115000000Y-55500000D01*
X117250000Y-53750000D02*
X116700000Y-53750000D01*
X157200000Y-53750000D02*
X157750000Y-53750000D01*
X155750000Y-55500000D02*
X156350000Y-54900000D01*
X156350000Y-54600000D02*
X157200000Y-53750000D01*
X156350000Y-54900000D02*
X156350000Y-54600000D01*
X155500000Y-55500000D02*
X155750000Y-55500000D01*
X143700000Y-53750000D02*
X144250000Y-53750000D01*
X142850000Y-54600000D02*
X143700000Y-53750000D01*
X142850000Y-54900000D02*
X142850000Y-54600000D01*
X142250000Y-55500000D02*
X142850000Y-54900000D01*
X142000000Y-55500000D02*
X142250000Y-55500000D01*
X130200000Y-53750000D02*
X130750000Y-53750000D01*
X129350000Y-54600000D02*
X130200000Y-53750000D01*
X129350000Y-54900000D02*
X129350000Y-54600000D01*
X128750000Y-55500000D02*
X129350000Y-54900000D01*
X128500000Y-55500000D02*
X128750000Y-55500000D01*
X115850000Y-54600000D02*
X116700000Y-53750000D01*
X116700000Y-53750000D02*
X117250000Y-53750000D01*
X115850000Y-54900000D02*
X115850000Y-54600000D01*
X115250000Y-55500000D02*
X115850000Y-54900000D01*
X115000000Y-55500000D02*
X115250000Y-55500000D01*
X116250000Y-59000000D02*
X116250000Y-59700000D01*
X114250000Y-55500000D02*
X114000000Y-55750000D01*
X114000000Y-55750000D02*
X114000000Y-56750000D01*
X116000000Y-59950000D02*
X115000000Y-59950000D01*
X116250000Y-59700000D02*
X116000000Y-59950000D01*
X114000000Y-56750000D02*
X116250000Y-59000000D01*
X115000000Y-55500000D02*
X114250000Y-55500000D01*
X115000000Y-59950000D02*
X115800000Y-59950000D01*
X123950000Y-63800000D02*
X124250000Y-63500000D01*
X124250000Y-63500000D02*
X124250000Y-61750000D01*
X124250000Y-64100000D02*
X123950000Y-63800000D01*
X124250000Y-65500000D02*
X124250000Y-64100000D01*
X123950000Y-63800000D02*
X123550000Y-63800000D01*
X123550000Y-63800000D02*
X122750000Y-63000000D01*
X122750000Y-63000000D02*
X122750000Y-62000000D01*
X122300000Y-61550000D02*
X122750000Y-62000000D01*
X115000000Y-61550000D02*
X122300000Y-61550000D01*
X120290000Y-75000000D02*
X120290000Y-68540000D01*
X120290000Y-68540000D02*
X116500000Y-64750000D01*
X116500000Y-64750000D02*
X115000000Y-64750000D01*
X116500000Y-76500000D02*
X146500000Y-76500000D01*
X116250000Y-76250000D02*
X116500000Y-76500000D01*
X146500000Y-76500000D02*
X147500000Y-77500000D01*
X116050000Y-65550000D02*
X116250000Y-65750000D01*
X116250000Y-65750000D02*
X116250000Y-76250000D01*
X115000000Y-65550000D02*
X116050000Y-65550000D01*
X113300000Y-67300000D02*
X113300000Y-74300000D01*
X113300000Y-74300000D02*
X116000000Y-77000000D01*
X133750000Y-77000000D02*
X134250000Y-77500000D01*
X116000000Y-77000000D02*
X133750000Y-77000000D01*
X105000000Y-79000000D02*
X105000000Y-76500000D01*
X111700000Y-69950000D02*
X111750000Y-70000000D01*
X111700000Y-67300000D02*
X111700000Y-69950000D01*
X107540000Y-77900000D02*
X107940000Y-77500000D01*
X107540000Y-79000000D02*
X107540000Y-77900000D01*
X107875000Y-77500000D02*
X107940000Y-77500000D01*
X107500000Y-77125000D02*
X107875000Y-77500000D01*
X107500000Y-76500000D02*
X107500000Y-77125000D01*
X110900000Y-75350000D02*
X110900000Y-73350000D01*
X108750000Y-77500000D02*
X110900000Y-75350000D01*
X107940000Y-77500000D02*
X108750000Y-77500000D01*
X110900000Y-67300000D02*
X110900000Y-73350000D01*
X106250000Y-49250000D02*
X106250000Y-49500000D01*
X106125000Y-54500000D02*
X106250000Y-54375000D01*
X105500000Y-54500000D02*
X106125000Y-54500000D01*
X110100000Y-69150000D02*
X109250000Y-70000000D01*
X110100000Y-67300000D02*
X110100000Y-69150000D01*
X106250000Y-54375000D02*
X106250000Y-53250000D01*
X106250000Y-53250000D02*
X106250000Y-49250000D01*
X106250000Y-53375000D02*
X106250000Y-53250000D01*
X106306410Y-71580000D02*
X105420000Y-71580000D01*
X109300000Y-68586410D02*
X106306410Y-71580000D01*
X109300000Y-67300000D02*
X109300000Y-68586410D01*
X99750000Y-71580000D02*
X105420000Y-71580000D01*
X108500000Y-67300000D02*
X108500000Y-68750000D01*
X108210000Y-69040000D02*
X107290000Y-69040000D01*
X108500000Y-68750000D02*
X108210000Y-69040000D01*
X99750000Y-69040000D02*
X107290000Y-69040000D01*
X124250000Y-53100000D02*
X123250000Y-53100000D01*
X124500000Y-53350000D02*
X124250000Y-53100000D01*
X124500000Y-57250000D02*
X124500000Y-53350000D01*
X123250000Y-52450000D02*
X124450000Y-52450000D01*
X125500000Y-53500000D02*
X125500000Y-57250000D01*
X124450000Y-52450000D02*
X125500000Y-53500000D01*
X123250000Y-51800000D02*
X124800000Y-51800000D01*
X126500000Y-53500000D02*
X126500000Y-57250000D01*
X124800000Y-51800000D02*
X126500000Y-53500000D01*
X123250000Y-51150000D02*
X125400000Y-51150000D01*
X127500000Y-53250000D02*
X127500000Y-57250000D01*
X125400000Y-51150000D02*
X127500000Y-53250000D01*
X125750000Y-50500000D02*
X127500000Y-48750000D01*
X127500000Y-48750000D02*
X127500000Y-45500000D01*
X123250000Y-50500000D02*
X125750000Y-50500000D01*
X125150000Y-49850000D02*
X126500000Y-48500000D01*
X126500000Y-48500000D02*
X126500000Y-45500000D01*
X123250000Y-49850000D02*
X125150000Y-49850000D01*
X124800000Y-49200000D02*
X125500000Y-48500000D01*
X125500000Y-48500000D02*
X125500000Y-45500000D01*
X123250000Y-49200000D02*
X124800000Y-49200000D01*
X124500000Y-48300000D02*
X124500000Y-45500000D01*
X123250000Y-48550000D02*
X124250000Y-48550000D01*
X124250000Y-48550000D02*
X124500000Y-48300000D01*
X138000000Y-48300000D02*
X138000000Y-45500000D01*
X137750000Y-48550000D02*
X138000000Y-48300000D01*
X136750000Y-48550000D02*
X137750000Y-48550000D01*
X136750000Y-49200000D02*
X138300000Y-49200000D01*
X138300000Y-49200000D02*
X139000000Y-48500000D01*
X139000000Y-48500000D02*
X139000000Y-45500000D01*
X140000000Y-48500000D02*
X140000000Y-45500000D01*
X138650000Y-49850000D02*
X140000000Y-48500000D01*
X136750000Y-49850000D02*
X138650000Y-49850000D01*
X139250000Y-50500000D02*
X141000000Y-48750000D01*
X141000000Y-48750000D02*
X141000000Y-45500000D01*
X136750000Y-50500000D02*
X139250000Y-50500000D01*
X136750000Y-51150000D02*
X138900000Y-51150000D01*
X141000000Y-53250000D02*
X141000000Y-57250000D01*
X138900000Y-51150000D02*
X141000000Y-53250000D01*
X140000000Y-53500000D02*
X140000000Y-57250000D01*
X138300000Y-51800000D02*
X140000000Y-53500000D01*
X136750000Y-51800000D02*
X138300000Y-51800000D01*
X137950000Y-52450000D02*
X139000000Y-53500000D01*
X139000000Y-53500000D02*
X139000000Y-57250000D01*
X136750000Y-52450000D02*
X137950000Y-52450000D01*
X138000000Y-57250000D02*
X138000000Y-53350000D01*
X138000000Y-53350000D02*
X137750000Y-53100000D01*
X137750000Y-53100000D02*
X136750000Y-53100000D01*
X151385002Y-53100000D02*
X151750000Y-53464998D01*
X150500000Y-53100000D02*
X151385002Y-53100000D01*
X151750000Y-56434315D02*
X151500000Y-56684315D01*
X151500000Y-56684315D02*
X151500000Y-57250000D01*
X151750000Y-53464998D02*
X151750000Y-56434315D01*
X151450000Y-52450000D02*
X152500000Y-53500000D01*
X152500000Y-53500000D02*
X152500000Y-57250000D01*
X150250000Y-52450000D02*
X151450000Y-52450000D01*
X153500000Y-53500000D02*
X153500000Y-57250000D01*
X151800000Y-51800000D02*
X153500000Y-53500000D01*
X150250000Y-51800000D02*
X151800000Y-51800000D01*
X150250000Y-51150000D02*
X152400000Y-51150000D01*
X154500000Y-53250000D02*
X154500000Y-57250000D01*
X152400000Y-51150000D02*
X154500000Y-53250000D01*
X152750000Y-50500000D02*
X154500000Y-48750000D01*
X154500000Y-48750000D02*
X154500000Y-45500000D01*
X150250000Y-50500000D02*
X152750000Y-50500000D01*
X153500000Y-48500000D02*
X153500000Y-45500000D01*
X152150000Y-49850000D02*
X153500000Y-48500000D01*
X150250000Y-49850000D02*
X152150000Y-49850000D01*
X150250000Y-49200000D02*
X151800000Y-49200000D01*
X151800000Y-49200000D02*
X152500000Y-48500000D01*
X152500000Y-48500000D02*
X152500000Y-45500000D01*
X151500000Y-48550000D02*
X150500000Y-48550000D01*
X151717158Y-48332842D02*
X151500000Y-48550000D01*
X151717158Y-46282842D02*
X151717158Y-48332842D01*
X151500000Y-46065685D02*
X151717158Y-46282842D01*
X151500000Y-45500000D02*
X151500000Y-46065685D01*
X165250000Y-48300000D02*
X165000000Y-48550000D01*
X165250000Y-45750000D02*
X165250000Y-48300000D01*
X165000000Y-48550000D02*
X164000000Y-48550000D01*
X165000000Y-45500000D02*
X165250000Y-45750000D01*
X163750000Y-49200000D02*
X165300000Y-49200000D01*
X165300000Y-49200000D02*
X166000000Y-48500000D01*
X166000000Y-48500000D02*
X166000000Y-45500000D01*
X167000000Y-48500000D02*
X167000000Y-45500000D01*
X165650000Y-49850000D02*
X167000000Y-48500000D01*
X163750000Y-49850000D02*
X165650000Y-49850000D01*
X166250000Y-50500000D02*
X168000000Y-48750000D01*
X168000000Y-48750000D02*
X168000000Y-45500000D01*
X163750000Y-50500000D02*
X166250000Y-50500000D01*
X164000000Y-50500000D02*
X166250000Y-50500000D01*
X166250000Y-50500000D02*
X168750000Y-53000000D01*
X168750000Y-53000000D02*
X168750000Y-69250000D01*
X168750000Y-69250000D02*
X166750000Y-71250000D01*
X125480000Y-71250000D02*
X126500000Y-71250000D01*
X122830000Y-73900000D02*
X125480000Y-71250000D01*
X122830000Y-75000000D02*
X122830000Y-73900000D01*
X166750000Y-71250000D02*
X126500000Y-71250000D01*
X163750000Y-51150000D02*
X165900000Y-51150000D01*
X168000000Y-53250000D02*
X168000000Y-57250000D01*
X165900000Y-51150000D02*
X168000000Y-53250000D01*
X167000000Y-53500000D02*
X167000000Y-57250000D01*
X165300000Y-51800000D02*
X167000000Y-53500000D01*
X163750000Y-51800000D02*
X165300000Y-51800000D01*
X164950000Y-52450000D02*
X166000000Y-53500000D01*
X166000000Y-53500000D02*
X166000000Y-57250000D01*
X163750000Y-52450000D02*
X164950000Y-52450000D01*
X164000000Y-53100000D02*
X164885002Y-53100000D01*
X165250000Y-53464998D02*
X165250000Y-56434315D01*
X165274999Y-56975001D02*
X165274999Y-53489997D01*
X164892501Y-53107499D02*
X165250000Y-53464998D01*
X165274999Y-53489997D02*
X164892501Y-53107499D01*
X165000000Y-57250000D02*
X165274999Y-56975001D01*
X164885002Y-53100000D02*
X164892501Y-53107499D01*
X124250000Y-60250000D02*
X124250000Y-59000000D01*
X123500000Y-58250000D02*
X123500000Y-57250000D01*
X124250000Y-59000000D02*
X123500000Y-58250000D01*
X109000000Y-48500000D02*
X109000000Y-42250000D01*
D19*
G36*
X168900000Y-80550000D02*
G01*
X127411715Y-80550000D01*
X127423053Y-80528788D01*
X127464509Y-80392125D01*
X127475000Y-80285607D01*
X127475000Y-80285598D01*
X127477755Y-80257630D01*
X127674321Y-80126289D01*
X127876289Y-79924321D01*
X128034973Y-79686833D01*
X128144277Y-79422949D01*
X128200000Y-79142813D01*
X128200000Y-78857187D01*
X128144277Y-78577051D01*
X128034973Y-78313167D01*
X127876289Y-78075679D01*
X127674321Y-77873711D01*
X127451759Y-77725000D01*
X133275164Y-77725000D01*
X133288429Y-77791689D01*
X133363811Y-77973678D01*
X133473249Y-78137463D01*
X133612537Y-78276751D01*
X133776322Y-78386189D01*
X133958311Y-78461571D01*
X134151509Y-78500000D01*
X134348491Y-78500000D01*
X134541689Y-78461571D01*
X134723678Y-78386189D01*
X134887463Y-78276751D01*
X135026751Y-78137463D01*
X135136189Y-77973678D01*
X135211571Y-77791689D01*
X135250000Y-77598491D01*
X135250000Y-77401509D01*
X135214891Y-77225000D01*
X146199696Y-77225000D01*
X146500000Y-77525305D01*
X146500000Y-77598491D01*
X146538429Y-77791689D01*
X146613811Y-77973678D01*
X146723249Y-78137463D01*
X146862537Y-78276751D01*
X147026322Y-78386189D01*
X147208311Y-78461571D01*
X147401509Y-78500000D01*
X147598491Y-78500000D01*
X147791689Y-78461571D01*
X147973678Y-78386189D01*
X148137463Y-78276751D01*
X148276751Y-78137463D01*
X148386189Y-77973678D01*
X148461571Y-77791689D01*
X148500000Y-77598491D01*
X148500000Y-77401509D01*
X148461571Y-77208311D01*
X148386189Y-77026322D01*
X148276751Y-76862537D01*
X148137463Y-76723249D01*
X147973678Y-76613811D01*
X147791689Y-76538429D01*
X147598491Y-76500000D01*
X147525305Y-76500000D01*
X147478207Y-76452903D01*
X149080000Y-76452903D01*
X149197621Y-76441318D01*
X149310721Y-76407010D01*
X149414955Y-76351296D01*
X149500000Y-76281501D01*
X149585045Y-76351296D01*
X149689279Y-76407010D01*
X149802379Y-76441318D01*
X149920000Y-76452903D01*
X151620000Y-76452903D01*
X151737621Y-76441318D01*
X151850721Y-76407010D01*
X151954955Y-76351296D01*
X152040000Y-76281501D01*
X152125045Y-76351296D01*
X152229279Y-76407010D01*
X152342379Y-76441318D01*
X152460000Y-76452903D01*
X154160000Y-76452903D01*
X154277621Y-76441318D01*
X154390721Y-76407010D01*
X154494955Y-76351296D01*
X154580000Y-76281501D01*
X154665045Y-76351296D01*
X154769279Y-76407010D01*
X154882379Y-76441318D01*
X155000000Y-76452903D01*
X156700000Y-76452903D01*
X156817621Y-76441318D01*
X156930721Y-76407010D01*
X157034955Y-76351296D01*
X157120000Y-76281501D01*
X157205045Y-76351296D01*
X157309279Y-76407010D01*
X157422379Y-76441318D01*
X157540000Y-76452903D01*
X159240000Y-76452903D01*
X159357621Y-76441318D01*
X159470721Y-76407010D01*
X159574955Y-76351296D01*
X159660000Y-76281501D01*
X159745045Y-76351296D01*
X159849279Y-76407010D01*
X159962379Y-76441318D01*
X160080000Y-76452903D01*
X161780000Y-76452903D01*
X161897621Y-76441318D01*
X162010721Y-76407010D01*
X162114955Y-76351296D01*
X162200000Y-76281501D01*
X162285045Y-76351296D01*
X162389279Y-76407010D01*
X162502379Y-76441318D01*
X162620000Y-76452903D01*
X164320000Y-76452903D01*
X164437621Y-76441318D01*
X164550721Y-76407010D01*
X164654955Y-76351296D01*
X164740000Y-76281501D01*
X164825045Y-76351296D01*
X164929279Y-76407010D01*
X165042379Y-76441318D01*
X165160000Y-76452903D01*
X166860000Y-76452903D01*
X166977621Y-76441318D01*
X167090721Y-76407010D01*
X167194955Y-76351296D01*
X167286317Y-76276317D01*
X167361296Y-76184955D01*
X167417010Y-76080721D01*
X167451318Y-75967621D01*
X167462903Y-75850000D01*
X167462903Y-74150000D01*
X167451318Y-74032379D01*
X167417010Y-73919279D01*
X167361296Y-73815045D01*
X167286317Y-73723683D01*
X167194955Y-73648704D01*
X167090721Y-73592990D01*
X166977621Y-73558682D01*
X166860000Y-73547097D01*
X165160000Y-73547097D01*
X165042379Y-73558682D01*
X164929279Y-73592990D01*
X164825045Y-73648704D01*
X164740000Y-73718499D01*
X164654955Y-73648704D01*
X164550721Y-73592990D01*
X164437621Y-73558682D01*
X164320000Y-73547097D01*
X162620000Y-73547097D01*
X162502379Y-73558682D01*
X162389279Y-73592990D01*
X162285045Y-73648704D01*
X162200000Y-73718499D01*
X162114955Y-73648704D01*
X162010721Y-73592990D01*
X161897621Y-73558682D01*
X161780000Y-73547097D01*
X160080000Y-73547097D01*
X159962379Y-73558682D01*
X159849279Y-73592990D01*
X159745045Y-73648704D01*
X159660000Y-73718499D01*
X159574955Y-73648704D01*
X159470721Y-73592990D01*
X159357621Y-73558682D01*
X159240000Y-73547097D01*
X157540000Y-73547097D01*
X157422379Y-73558682D01*
X157309279Y-73592990D01*
X157205045Y-73648704D01*
X157120000Y-73718499D01*
X157034955Y-73648704D01*
X156930721Y-73592990D01*
X156817621Y-73558682D01*
X156700000Y-73547097D01*
X155000000Y-73547097D01*
X154882379Y-73558682D01*
X154769279Y-73592990D01*
X154665045Y-73648704D01*
X154580000Y-73718499D01*
X154494955Y-73648704D01*
X154390721Y-73592990D01*
X154277621Y-73558682D01*
X154160000Y-73547097D01*
X152460000Y-73547097D01*
X152342379Y-73558682D01*
X152229279Y-73592990D01*
X152125045Y-73648704D01*
X152040000Y-73718499D01*
X151954955Y-73648704D01*
X151850721Y-73592990D01*
X151737621Y-73558682D01*
X151620000Y-73547097D01*
X149920000Y-73547097D01*
X149802379Y-73558682D01*
X149689279Y-73592990D01*
X149585045Y-73648704D01*
X149500000Y-73718499D01*
X149414955Y-73648704D01*
X149310721Y-73592990D01*
X149197621Y-73558682D01*
X149080000Y-73547097D01*
X147380000Y-73547097D01*
X147262379Y-73558682D01*
X147149279Y-73592990D01*
X147045045Y-73648704D01*
X146960000Y-73718499D01*
X146874955Y-73648704D01*
X146770721Y-73592990D01*
X146657621Y-73558682D01*
X146540000Y-73547097D01*
X144840000Y-73547097D01*
X144722379Y-73558682D01*
X144609279Y-73592990D01*
X144505045Y-73648704D01*
X144420000Y-73718499D01*
X144334955Y-73648704D01*
X144230721Y-73592990D01*
X144117621Y-73558682D01*
X144000000Y-73547097D01*
X142300000Y-73547097D01*
X142182379Y-73558682D01*
X142069279Y-73592990D01*
X141965045Y-73648704D01*
X141880000Y-73718499D01*
X141794955Y-73648704D01*
X141690721Y-73592990D01*
X141577621Y-73558682D01*
X141460000Y-73547097D01*
X139760000Y-73547097D01*
X139642379Y-73558682D01*
X139529279Y-73592990D01*
X139425045Y-73648704D01*
X139340000Y-73718499D01*
X139254955Y-73648704D01*
X139150721Y-73592990D01*
X139037621Y-73558682D01*
X138920000Y-73547097D01*
X137220000Y-73547097D01*
X137102379Y-73558682D01*
X136989279Y-73592990D01*
X136885045Y-73648704D01*
X136800000Y-73718499D01*
X136714955Y-73648704D01*
X136610721Y-73592990D01*
X136497621Y-73558682D01*
X136380000Y-73547097D01*
X134680000Y-73547097D01*
X134562379Y-73558682D01*
X134449279Y-73592990D01*
X134345045Y-73648704D01*
X134260000Y-73718499D01*
X134174955Y-73648704D01*
X134070721Y-73592990D01*
X133957621Y-73558682D01*
X133840000Y-73547097D01*
X132140000Y-73547097D01*
X132022379Y-73558682D01*
X131909279Y-73592990D01*
X131805045Y-73648704D01*
X131720000Y-73718499D01*
X131634955Y-73648704D01*
X131530721Y-73592990D01*
X131417621Y-73558682D01*
X131300000Y-73547097D01*
X129600000Y-73547097D01*
X129482379Y-73558682D01*
X129369279Y-73592990D01*
X129265045Y-73648704D01*
X129180000Y-73718499D01*
X129094955Y-73648704D01*
X128990721Y-73592990D01*
X128877621Y-73558682D01*
X128760000Y-73547097D01*
X127060000Y-73547097D01*
X126942379Y-73558682D01*
X126829279Y-73592990D01*
X126725045Y-73648704D01*
X126640000Y-73718499D01*
X126554955Y-73648704D01*
X126450721Y-73592990D01*
X126337621Y-73558682D01*
X126220000Y-73547097D01*
X124520000Y-73547097D01*
X124402379Y-73558682D01*
X124289279Y-73592990D01*
X124185045Y-73648704D01*
X124100000Y-73718499D01*
X124065291Y-73690014D01*
X125780305Y-71975000D01*
X166714403Y-71975000D01*
X166750000Y-71978506D01*
X166785597Y-71975000D01*
X166785607Y-71975000D01*
X166892125Y-71964509D01*
X167028788Y-71923053D01*
X167154737Y-71855731D01*
X167265132Y-71765132D01*
X167287832Y-71737472D01*
X168900000Y-70125305D01*
X168900000Y-80550000D01*
X168900000Y-80550000D01*
G37*
X168900000Y-80550000D02*
X127411715Y-80550000D01*
X127423053Y-80528788D01*
X127464509Y-80392125D01*
X127475000Y-80285607D01*
X127475000Y-80285598D01*
X127477755Y-80257630D01*
X127674321Y-80126289D01*
X127876289Y-79924321D01*
X128034973Y-79686833D01*
X128144277Y-79422949D01*
X128200000Y-79142813D01*
X128200000Y-78857187D01*
X128144277Y-78577051D01*
X128034973Y-78313167D01*
X127876289Y-78075679D01*
X127674321Y-77873711D01*
X127451759Y-77725000D01*
X133275164Y-77725000D01*
X133288429Y-77791689D01*
X133363811Y-77973678D01*
X133473249Y-78137463D01*
X133612537Y-78276751D01*
X133776322Y-78386189D01*
X133958311Y-78461571D01*
X134151509Y-78500000D01*
X134348491Y-78500000D01*
X134541689Y-78461571D01*
X134723678Y-78386189D01*
X134887463Y-78276751D01*
X135026751Y-78137463D01*
X135136189Y-77973678D01*
X135211571Y-77791689D01*
X135250000Y-77598491D01*
X135250000Y-77401509D01*
X135214891Y-77225000D01*
X146199696Y-77225000D01*
X146500000Y-77525305D01*
X146500000Y-77598491D01*
X146538429Y-77791689D01*
X146613811Y-77973678D01*
X146723249Y-78137463D01*
X146862537Y-78276751D01*
X147026322Y-78386189D01*
X147208311Y-78461571D01*
X147401509Y-78500000D01*
X147598491Y-78500000D01*
X147791689Y-78461571D01*
X147973678Y-78386189D01*
X148137463Y-78276751D01*
X148276751Y-78137463D01*
X148386189Y-77973678D01*
X148461571Y-77791689D01*
X148500000Y-77598491D01*
X148500000Y-77401509D01*
X148461571Y-77208311D01*
X148386189Y-77026322D01*
X148276751Y-76862537D01*
X148137463Y-76723249D01*
X147973678Y-76613811D01*
X147791689Y-76538429D01*
X147598491Y-76500000D01*
X147525305Y-76500000D01*
X147478207Y-76452903D01*
X149080000Y-76452903D01*
X149197621Y-76441318D01*
X149310721Y-76407010D01*
X149414955Y-76351296D01*
X149500000Y-76281501D01*
X149585045Y-76351296D01*
X149689279Y-76407010D01*
X149802379Y-76441318D01*
X149920000Y-76452903D01*
X151620000Y-76452903D01*
X151737621Y-76441318D01*
X151850721Y-76407010D01*
X151954955Y-76351296D01*
X152040000Y-76281501D01*
X152125045Y-76351296D01*
X152229279Y-76407010D01*
X152342379Y-76441318D01*
X152460000Y-76452903D01*
X154160000Y-76452903D01*
X154277621Y-76441318D01*
X154390721Y-76407010D01*
X154494955Y-76351296D01*
X154580000Y-76281501D01*
X154665045Y-76351296D01*
X154769279Y-76407010D01*
X154882379Y-76441318D01*
X155000000Y-76452903D01*
X156700000Y-76452903D01*
X156817621Y-76441318D01*
X156930721Y-76407010D01*
X157034955Y-76351296D01*
X157120000Y-76281501D01*
X157205045Y-76351296D01*
X157309279Y-76407010D01*
X157422379Y-76441318D01*
X157540000Y-76452903D01*
X159240000Y-76452903D01*
X159357621Y-76441318D01*
X159470721Y-76407010D01*
X159574955Y-76351296D01*
X159660000Y-76281501D01*
X159745045Y-76351296D01*
X159849279Y-76407010D01*
X159962379Y-76441318D01*
X160080000Y-76452903D01*
X161780000Y-76452903D01*
X161897621Y-76441318D01*
X162010721Y-76407010D01*
X162114955Y-76351296D01*
X162200000Y-76281501D01*
X162285045Y-76351296D01*
X162389279Y-76407010D01*
X162502379Y-76441318D01*
X162620000Y-76452903D01*
X164320000Y-76452903D01*
X164437621Y-76441318D01*
X164550721Y-76407010D01*
X164654955Y-76351296D01*
X164740000Y-76281501D01*
X164825045Y-76351296D01*
X164929279Y-76407010D01*
X165042379Y-76441318D01*
X165160000Y-76452903D01*
X166860000Y-76452903D01*
X166977621Y-76441318D01*
X167090721Y-76407010D01*
X167194955Y-76351296D01*
X167286317Y-76276317D01*
X167361296Y-76184955D01*
X167417010Y-76080721D01*
X167451318Y-75967621D01*
X167462903Y-75850000D01*
X167462903Y-74150000D01*
X167451318Y-74032379D01*
X167417010Y-73919279D01*
X167361296Y-73815045D01*
X167286317Y-73723683D01*
X167194955Y-73648704D01*
X167090721Y-73592990D01*
X166977621Y-73558682D01*
X166860000Y-73547097D01*
X165160000Y-73547097D01*
X165042379Y-73558682D01*
X164929279Y-73592990D01*
X164825045Y-73648704D01*
X164740000Y-73718499D01*
X164654955Y-73648704D01*
X164550721Y-73592990D01*
X164437621Y-73558682D01*
X164320000Y-73547097D01*
X162620000Y-73547097D01*
X162502379Y-73558682D01*
X162389279Y-73592990D01*
X162285045Y-73648704D01*
X162200000Y-73718499D01*
X162114955Y-73648704D01*
X162010721Y-73592990D01*
X161897621Y-73558682D01*
X161780000Y-73547097D01*
X160080000Y-73547097D01*
X159962379Y-73558682D01*
X159849279Y-73592990D01*
X159745045Y-73648704D01*
X159660000Y-73718499D01*
X159574955Y-73648704D01*
X159470721Y-73592990D01*
X159357621Y-73558682D01*
X159240000Y-73547097D01*
X157540000Y-73547097D01*
X157422379Y-73558682D01*
X157309279Y-73592990D01*
X157205045Y-73648704D01*
X157120000Y-73718499D01*
X157034955Y-73648704D01*
X156930721Y-73592990D01*
X156817621Y-73558682D01*
X156700000Y-73547097D01*
X155000000Y-73547097D01*
X154882379Y-73558682D01*
X154769279Y-73592990D01*
X154665045Y-73648704D01*
X154580000Y-73718499D01*
X154494955Y-73648704D01*
X154390721Y-73592990D01*
X154277621Y-73558682D01*
X154160000Y-73547097D01*
X152460000Y-73547097D01*
X152342379Y-73558682D01*
X152229279Y-73592990D01*
X152125045Y-73648704D01*
X152040000Y-73718499D01*
X151954955Y-73648704D01*
X151850721Y-73592990D01*
X151737621Y-73558682D01*
X151620000Y-73547097D01*
X149920000Y-73547097D01*
X149802379Y-73558682D01*
X149689279Y-73592990D01*
X149585045Y-73648704D01*
X149500000Y-73718499D01*
X149414955Y-73648704D01*
X149310721Y-73592990D01*
X149197621Y-73558682D01*
X149080000Y-73547097D01*
X147380000Y-73547097D01*
X147262379Y-73558682D01*
X147149279Y-73592990D01*
X147045045Y-73648704D01*
X146960000Y-73718499D01*
X146874955Y-73648704D01*
X146770721Y-73592990D01*
X146657621Y-73558682D01*
X146540000Y-73547097D01*
X144840000Y-73547097D01*
X144722379Y-73558682D01*
X144609279Y-73592990D01*
X144505045Y-73648704D01*
X144420000Y-73718499D01*
X144334955Y-73648704D01*
X144230721Y-73592990D01*
X144117621Y-73558682D01*
X144000000Y-73547097D01*
X142300000Y-73547097D01*
X142182379Y-73558682D01*
X142069279Y-73592990D01*
X141965045Y-73648704D01*
X141880000Y-73718499D01*
X141794955Y-73648704D01*
X141690721Y-73592990D01*
X141577621Y-73558682D01*
X141460000Y-73547097D01*
X139760000Y-73547097D01*
X139642379Y-73558682D01*
X139529279Y-73592990D01*
X139425045Y-73648704D01*
X139340000Y-73718499D01*
X139254955Y-73648704D01*
X139150721Y-73592990D01*
X139037621Y-73558682D01*
X138920000Y-73547097D01*
X137220000Y-73547097D01*
X137102379Y-73558682D01*
X136989279Y-73592990D01*
X136885045Y-73648704D01*
X136800000Y-73718499D01*
X136714955Y-73648704D01*
X136610721Y-73592990D01*
X136497621Y-73558682D01*
X136380000Y-73547097D01*
X134680000Y-73547097D01*
X134562379Y-73558682D01*
X134449279Y-73592990D01*
X134345045Y-73648704D01*
X134260000Y-73718499D01*
X134174955Y-73648704D01*
X134070721Y-73592990D01*
X133957621Y-73558682D01*
X133840000Y-73547097D01*
X132140000Y-73547097D01*
X132022379Y-73558682D01*
X131909279Y-73592990D01*
X131805045Y-73648704D01*
X131720000Y-73718499D01*
X131634955Y-73648704D01*
X131530721Y-73592990D01*
X131417621Y-73558682D01*
X131300000Y-73547097D01*
X129600000Y-73547097D01*
X129482379Y-73558682D01*
X129369279Y-73592990D01*
X129265045Y-73648704D01*
X129180000Y-73718499D01*
X129094955Y-73648704D01*
X128990721Y-73592990D01*
X128877621Y-73558682D01*
X128760000Y-73547097D01*
X127060000Y-73547097D01*
X126942379Y-73558682D01*
X126829279Y-73592990D01*
X126725045Y-73648704D01*
X126640000Y-73718499D01*
X126554955Y-73648704D01*
X126450721Y-73592990D01*
X126337621Y-73558682D01*
X126220000Y-73547097D01*
X124520000Y-73547097D01*
X124402379Y-73558682D01*
X124289279Y-73592990D01*
X124185045Y-73648704D01*
X124100000Y-73718499D01*
X124065291Y-73690014D01*
X125780305Y-71975000D01*
X166714403Y-71975000D01*
X166750000Y-71978506D01*
X166785597Y-71975000D01*
X166785607Y-71975000D01*
X166892125Y-71964509D01*
X167028788Y-71923053D01*
X167154737Y-71855731D01*
X167265132Y-71765132D01*
X167287832Y-71737472D01*
X168900000Y-70125305D01*
X168900000Y-80550000D01*
G36*
X112575001Y-74264393D02*
G01*
X112571494Y-74300000D01*
X112575001Y-74335607D01*
X112583614Y-74423052D01*
X112585492Y-74442124D01*
X112626947Y-74578787D01*
X112694269Y-74704736D01*
X112762170Y-74787474D01*
X112762173Y-74787477D01*
X112784869Y-74815132D01*
X112812523Y-74837827D01*
X115462172Y-77487477D01*
X115484868Y-77515132D01*
X115512523Y-77537828D01*
X115512525Y-77537830D01*
X115579738Y-77592990D01*
X115595263Y-77605731D01*
X115721212Y-77673053D01*
X115857875Y-77714509D01*
X115964393Y-77725000D01*
X115964400Y-77725000D01*
X116000000Y-77728506D01*
X116035600Y-77725000D01*
X117852602Y-77725000D01*
X117778704Y-77815045D01*
X117722990Y-77919279D01*
X117688682Y-78032379D01*
X117677097Y-78150000D01*
X117680000Y-78825000D01*
X117830000Y-78975000D01*
X119105000Y-78975000D01*
X119105000Y-78955000D01*
X119155000Y-78955000D01*
X119155000Y-78975000D01*
X119175000Y-78975000D01*
X119175000Y-79025000D01*
X119155000Y-79025000D01*
X119155000Y-79045000D01*
X119105000Y-79045000D01*
X119105000Y-79025000D01*
X117830000Y-79025000D01*
X117680000Y-79175000D01*
X117677420Y-79775000D01*
X114072580Y-79775000D01*
X114070000Y-79175000D01*
X113920000Y-79025000D01*
X112645000Y-79025000D01*
X112645000Y-79045000D01*
X112595000Y-79045000D01*
X112595000Y-79025000D01*
X112575000Y-79025000D01*
X112575000Y-78975000D01*
X112595000Y-78975000D01*
X112595000Y-77700000D01*
X112645000Y-77700000D01*
X112645000Y-78975000D01*
X113920000Y-78975000D01*
X114070000Y-78825000D01*
X114072903Y-78150000D01*
X114061318Y-78032379D01*
X114027010Y-77919279D01*
X113971296Y-77815045D01*
X113896317Y-77723683D01*
X113804955Y-77648704D01*
X113700721Y-77592990D01*
X113587621Y-77558682D01*
X113470000Y-77547097D01*
X112795000Y-77550000D01*
X112645000Y-77700000D01*
X112595000Y-77700000D01*
X112445000Y-77550000D01*
X111770000Y-77547097D01*
X111652379Y-77558682D01*
X111539279Y-77592990D01*
X111435045Y-77648704D01*
X111350000Y-77718499D01*
X111264955Y-77648704D01*
X111160721Y-77592990D01*
X111047621Y-77558682D01*
X110930000Y-77547097D01*
X109728207Y-77547097D01*
X111387482Y-75887823D01*
X111415131Y-75865132D01*
X111437823Y-75837482D01*
X111437830Y-75837475D01*
X111505731Y-75754737D01*
X111573053Y-75628788D01*
X111585668Y-75587201D01*
X111614509Y-75492125D01*
X111625000Y-75385607D01*
X111625000Y-75385598D01*
X111628506Y-75350001D01*
X111625000Y-75314404D01*
X111625000Y-70994727D01*
X111651509Y-71000000D01*
X111848491Y-71000000D01*
X112041689Y-70961571D01*
X112223678Y-70886189D01*
X112387463Y-70776751D01*
X112526751Y-70637463D01*
X112575000Y-70565253D01*
X112575001Y-74264393D01*
X112575001Y-74264393D01*
G37*
X112575001Y-74264393D02*
X112571494Y-74300000D01*
X112575001Y-74335607D01*
X112583614Y-74423052D01*
X112585492Y-74442124D01*
X112626947Y-74578787D01*
X112694269Y-74704736D01*
X112762170Y-74787474D01*
X112762173Y-74787477D01*
X112784869Y-74815132D01*
X112812523Y-74837827D01*
X115462172Y-77487477D01*
X115484868Y-77515132D01*
X115512523Y-77537828D01*
X115512525Y-77537830D01*
X115579738Y-77592990D01*
X115595263Y-77605731D01*
X115721212Y-77673053D01*
X115857875Y-77714509D01*
X115964393Y-77725000D01*
X115964400Y-77725000D01*
X116000000Y-77728506D01*
X116035600Y-77725000D01*
X117852602Y-77725000D01*
X117778704Y-77815045D01*
X117722990Y-77919279D01*
X117688682Y-78032379D01*
X117677097Y-78150000D01*
X117680000Y-78825000D01*
X117830000Y-78975000D01*
X119105000Y-78975000D01*
X119105000Y-78955000D01*
X119155000Y-78955000D01*
X119155000Y-78975000D01*
X119175000Y-78975000D01*
X119175000Y-79025000D01*
X119155000Y-79025000D01*
X119155000Y-79045000D01*
X119105000Y-79045000D01*
X119105000Y-79025000D01*
X117830000Y-79025000D01*
X117680000Y-79175000D01*
X117677420Y-79775000D01*
X114072580Y-79775000D01*
X114070000Y-79175000D01*
X113920000Y-79025000D01*
X112645000Y-79025000D01*
X112645000Y-79045000D01*
X112595000Y-79045000D01*
X112595000Y-79025000D01*
X112575000Y-79025000D01*
X112575000Y-78975000D01*
X112595000Y-78975000D01*
X112595000Y-77700000D01*
X112645000Y-77700000D01*
X112645000Y-78975000D01*
X113920000Y-78975000D01*
X114070000Y-78825000D01*
X114072903Y-78150000D01*
X114061318Y-78032379D01*
X114027010Y-77919279D01*
X113971296Y-77815045D01*
X113896317Y-77723683D01*
X113804955Y-77648704D01*
X113700721Y-77592990D01*
X113587621Y-77558682D01*
X113470000Y-77547097D01*
X112795000Y-77550000D01*
X112645000Y-77700000D01*
X112595000Y-77700000D01*
X112445000Y-77550000D01*
X111770000Y-77547097D01*
X111652379Y-77558682D01*
X111539279Y-77592990D01*
X111435045Y-77648704D01*
X111350000Y-77718499D01*
X111264955Y-77648704D01*
X111160721Y-77592990D01*
X111047621Y-77558682D01*
X110930000Y-77547097D01*
X109728207Y-77547097D01*
X111387482Y-75887823D01*
X111415131Y-75865132D01*
X111437823Y-75837482D01*
X111437830Y-75837475D01*
X111505731Y-75754737D01*
X111573053Y-75628788D01*
X111585668Y-75587201D01*
X111614509Y-75492125D01*
X111625000Y-75385607D01*
X111625000Y-75385598D01*
X111628506Y-75350001D01*
X111625000Y-75314404D01*
X111625000Y-70994727D01*
X111651509Y-71000000D01*
X111848491Y-71000000D01*
X112041689Y-70961571D01*
X112223678Y-70886189D01*
X112387463Y-70776751D01*
X112526751Y-70637463D01*
X112575000Y-70565253D01*
X112575001Y-74264393D01*
G36*
X119565001Y-68840306D02*
G01*
X119565000Y-73547097D01*
X119440000Y-73547097D01*
X119322379Y-73558682D01*
X119209279Y-73592990D01*
X119105045Y-73648704D01*
X119013683Y-73723683D01*
X118938704Y-73815045D01*
X118882990Y-73919279D01*
X118848682Y-74032379D01*
X118838605Y-74134693D01*
X118691709Y-74093647D01*
X117785355Y-75000000D01*
X117799498Y-75014142D01*
X117764142Y-75049498D01*
X117750000Y-75035355D01*
X117735858Y-75049498D01*
X117700502Y-75014142D01*
X117714645Y-75000000D01*
X117700502Y-74985858D01*
X117735858Y-74950502D01*
X117750000Y-74964645D01*
X118656353Y-74058291D01*
X118586061Y-73806728D01*
X118337201Y-73666549D01*
X118065776Y-73577614D01*
X117782214Y-73543340D01*
X117497414Y-73565044D01*
X117222322Y-73641894D01*
X116975000Y-73767141D01*
X116975000Y-66250304D01*
X119565001Y-68840306D01*
X119565001Y-68840306D01*
G37*
X119565001Y-68840306D02*
X119565000Y-73547097D01*
X119440000Y-73547097D01*
X119322379Y-73558682D01*
X119209279Y-73592990D01*
X119105045Y-73648704D01*
X119013683Y-73723683D01*
X118938704Y-73815045D01*
X118882990Y-73919279D01*
X118848682Y-74032379D01*
X118838605Y-74134693D01*
X118691709Y-74093647D01*
X117785355Y-75000000D01*
X117799498Y-75014142D01*
X117764142Y-75049498D01*
X117750000Y-75035355D01*
X117735858Y-75049498D01*
X117700502Y-75014142D01*
X117714645Y-75000000D01*
X117700502Y-74985858D01*
X117735858Y-74950502D01*
X117750000Y-74964645D01*
X118656353Y-74058291D01*
X118586061Y-73806728D01*
X118337201Y-73666549D01*
X118065776Y-73577614D01*
X117782214Y-73543340D01*
X117497414Y-73565044D01*
X117222322Y-73641894D01*
X116975000Y-73767141D01*
X116975000Y-66250304D01*
X119565001Y-68840306D01*
G36*
X135769279Y-54507010D02*
G01*
X135882379Y-54541318D01*
X136000000Y-54552903D01*
X137275001Y-54552903D01*
X137275000Y-56560786D01*
X137223249Y-56612537D01*
X137113811Y-56776322D01*
X137038429Y-56958311D01*
X137000000Y-57151509D01*
X137000000Y-57348491D01*
X137038429Y-57541689D01*
X137113811Y-57723678D01*
X137223249Y-57887463D01*
X137362537Y-58026751D01*
X137526322Y-58136189D01*
X137708311Y-58211571D01*
X137901509Y-58250000D01*
X138098491Y-58250000D01*
X138291689Y-58211571D01*
X138473678Y-58136189D01*
X138500000Y-58118601D01*
X138526322Y-58136189D01*
X138708311Y-58211571D01*
X138901509Y-58250000D01*
X139098491Y-58250000D01*
X139291689Y-58211571D01*
X139473678Y-58136189D01*
X139500000Y-58118601D01*
X139526322Y-58136189D01*
X139708311Y-58211571D01*
X139901509Y-58250000D01*
X140098491Y-58250000D01*
X140291689Y-58211571D01*
X140473678Y-58136189D01*
X140500000Y-58118601D01*
X140526322Y-58136189D01*
X140708311Y-58211571D01*
X140901509Y-58250000D01*
X141098491Y-58250000D01*
X141291689Y-58211571D01*
X141473678Y-58136189D01*
X141637463Y-58026751D01*
X141776751Y-57887463D01*
X141886189Y-57723678D01*
X141961571Y-57541689D01*
X141969863Y-57500000D01*
X142098491Y-57500000D01*
X142291689Y-57461571D01*
X142473678Y-57386189D01*
X142637463Y-57276751D01*
X142689214Y-57225000D01*
X144964403Y-57225000D01*
X145000000Y-57228506D01*
X145035597Y-57225000D01*
X145035607Y-57225000D01*
X145142125Y-57214509D01*
X145278788Y-57173053D01*
X145404737Y-57105731D01*
X145515132Y-57015132D01*
X145537832Y-56987472D01*
X148050305Y-54475000D01*
X149459392Y-54475000D01*
X149519279Y-54507010D01*
X149632379Y-54541318D01*
X149750000Y-54552903D01*
X151025000Y-54552903D01*
X151025001Y-56134010D01*
X151012524Y-56146487D01*
X150984868Y-56169184D01*
X150962172Y-56196839D01*
X150962170Y-56196841D01*
X150906126Y-56265131D01*
X150894269Y-56279579D01*
X150826947Y-56405528D01*
X150785491Y-56542191D01*
X150784606Y-56551180D01*
X150723249Y-56612537D01*
X150613811Y-56776322D01*
X150538429Y-56958311D01*
X150500000Y-57151509D01*
X150500000Y-57348491D01*
X150538429Y-57541689D01*
X150613811Y-57723678D01*
X150723249Y-57887463D01*
X150862537Y-58026751D01*
X151026322Y-58136189D01*
X151208311Y-58211571D01*
X151401509Y-58250000D01*
X151598491Y-58250000D01*
X151791689Y-58211571D01*
X151973678Y-58136189D01*
X152000000Y-58118601D01*
X152026322Y-58136189D01*
X152208311Y-58211571D01*
X152401509Y-58250000D01*
X152598491Y-58250000D01*
X152791689Y-58211571D01*
X152973678Y-58136189D01*
X153000000Y-58118601D01*
X153026322Y-58136189D01*
X153208311Y-58211571D01*
X153401509Y-58250000D01*
X153598491Y-58250000D01*
X153791689Y-58211571D01*
X153973678Y-58136189D01*
X154000000Y-58118601D01*
X154026322Y-58136189D01*
X154208311Y-58211571D01*
X154401509Y-58250000D01*
X154598491Y-58250000D01*
X154791689Y-58211571D01*
X154973678Y-58136189D01*
X155137463Y-58026751D01*
X155276751Y-57887463D01*
X155386189Y-57723678D01*
X155461571Y-57541689D01*
X155469863Y-57500000D01*
X155598491Y-57500000D01*
X155791689Y-57461571D01*
X155973678Y-57386189D01*
X156137463Y-57276751D01*
X156189214Y-57225000D01*
X158464403Y-57225000D01*
X158500000Y-57228506D01*
X158535597Y-57225000D01*
X158535607Y-57225000D01*
X158642125Y-57214509D01*
X158778788Y-57173053D01*
X158904737Y-57105731D01*
X159015132Y-57015132D01*
X159037832Y-56987472D01*
X161550305Y-54475000D01*
X162959392Y-54475000D01*
X163019279Y-54507010D01*
X163132379Y-54541318D01*
X163250000Y-54552903D01*
X164525000Y-54552903D01*
X164525001Y-56364694D01*
X164362537Y-56473249D01*
X164223249Y-56612537D01*
X164113811Y-56776322D01*
X164038429Y-56958311D01*
X164000000Y-57151509D01*
X164000000Y-57348491D01*
X164038429Y-57541689D01*
X164113811Y-57723678D01*
X164223249Y-57887463D01*
X164362537Y-58026751D01*
X164526322Y-58136189D01*
X164708311Y-58211571D01*
X164901509Y-58250000D01*
X165098491Y-58250000D01*
X165291689Y-58211571D01*
X165473678Y-58136189D01*
X165500000Y-58118601D01*
X165526322Y-58136189D01*
X165708311Y-58211571D01*
X165901509Y-58250000D01*
X166098491Y-58250000D01*
X166291689Y-58211571D01*
X166473678Y-58136189D01*
X166500000Y-58118601D01*
X166526322Y-58136189D01*
X166708311Y-58211571D01*
X166901509Y-58250000D01*
X167098491Y-58250000D01*
X167291689Y-58211571D01*
X167473678Y-58136189D01*
X167500000Y-58118601D01*
X167526322Y-58136189D01*
X167708311Y-58211571D01*
X167901509Y-58250000D01*
X168025000Y-58250000D01*
X168025001Y-68949694D01*
X166449696Y-70525000D01*
X125515597Y-70525000D01*
X125480000Y-70521494D01*
X125444403Y-70525000D01*
X125444393Y-70525000D01*
X125337875Y-70535491D01*
X125201212Y-70576947D01*
X125075263Y-70644269D01*
X124992525Y-70712170D01*
X124992523Y-70712172D01*
X124964868Y-70734868D01*
X124942172Y-70762523D01*
X122342523Y-73362173D01*
X122314869Y-73384868D01*
X122292173Y-73412523D01*
X122292170Y-73412526D01*
X122224269Y-73495264D01*
X122196563Y-73547097D01*
X121980000Y-73547097D01*
X121862379Y-73558682D01*
X121749279Y-73592990D01*
X121645045Y-73648704D01*
X121560000Y-73718499D01*
X121474955Y-73648704D01*
X121370721Y-73592990D01*
X121257621Y-73558682D01*
X121140000Y-73547097D01*
X121015000Y-73547097D01*
X121015000Y-68575596D01*
X121018506Y-68539999D01*
X121015000Y-68504402D01*
X121015000Y-68504393D01*
X121004509Y-68397875D01*
X120963053Y-68261212D01*
X120895731Y-68135263D01*
X120827830Y-68052525D01*
X120827828Y-68052523D01*
X120805132Y-68024868D01*
X120777477Y-68002172D01*
X120150305Y-67375000D01*
X122897097Y-67375000D01*
X122908682Y-67492621D01*
X122942990Y-67605721D01*
X122998704Y-67709955D01*
X123073683Y-67801317D01*
X123165045Y-67876296D01*
X123269279Y-67932010D01*
X123382379Y-67966318D01*
X123500000Y-67977903D01*
X124075000Y-67975000D01*
X124225000Y-67825000D01*
X124225000Y-67025000D01*
X124275000Y-67025000D01*
X124275000Y-67825000D01*
X124425000Y-67975000D01*
X125000000Y-67977903D01*
X125117621Y-67966318D01*
X125230721Y-67932010D01*
X125334955Y-67876296D01*
X125426317Y-67801317D01*
X125501296Y-67709955D01*
X125557010Y-67605721D01*
X125591318Y-67492621D01*
X125602903Y-67375000D01*
X125600000Y-67175000D01*
X125450000Y-67025000D01*
X124275000Y-67025000D01*
X124225000Y-67025000D01*
X123050000Y-67025000D01*
X122900000Y-67175000D01*
X122897097Y-67375000D01*
X120150305Y-67375000D01*
X118500304Y-65725000D01*
X118525002Y-65725000D01*
X118525002Y-65575002D01*
X118675000Y-65725000D01*
X119250000Y-65727903D01*
X119367621Y-65716318D01*
X119480721Y-65682010D01*
X119584955Y-65626296D01*
X119676317Y-65551317D01*
X119751296Y-65459955D01*
X119807010Y-65355721D01*
X119841318Y-65242621D01*
X119852903Y-65125000D01*
X119897097Y-65125000D01*
X119908682Y-65242621D01*
X119942990Y-65355721D01*
X119998704Y-65459955D01*
X120073683Y-65551317D01*
X120165045Y-65626296D01*
X120269279Y-65682010D01*
X120382379Y-65716318D01*
X120500000Y-65727903D01*
X121075000Y-65725000D01*
X121225000Y-65575000D01*
X121225000Y-64775000D01*
X120050000Y-64775000D01*
X119900000Y-64925000D01*
X119897097Y-65125000D01*
X119852903Y-65125000D01*
X119850000Y-64925000D01*
X119700000Y-64775000D01*
X118525000Y-64775000D01*
X118525000Y-64795000D01*
X118475000Y-64795000D01*
X118475000Y-64775000D01*
X118455000Y-64775000D01*
X118455000Y-64725000D01*
X118475000Y-64725000D01*
X118475000Y-64705000D01*
X118525000Y-64705000D01*
X118525000Y-64725000D01*
X119700000Y-64725000D01*
X119850000Y-64575000D01*
X119852903Y-64375000D01*
X119841318Y-64257379D01*
X119807010Y-64144279D01*
X119751296Y-64040045D01*
X119718432Y-64000000D01*
X119751296Y-63959955D01*
X119807010Y-63855721D01*
X119841318Y-63742621D01*
X119852903Y-63625000D01*
X119852903Y-62875000D01*
X119841318Y-62757379D01*
X119807010Y-62644279D01*
X119751296Y-62540045D01*
X119676317Y-62448683D01*
X119584955Y-62373704D01*
X119480721Y-62317990D01*
X119367621Y-62283682D01*
X119279474Y-62275000D01*
X120470526Y-62275000D01*
X120382379Y-62283682D01*
X120269279Y-62317990D01*
X120165045Y-62373704D01*
X120073683Y-62448683D01*
X119998704Y-62540045D01*
X119942990Y-62644279D01*
X119908682Y-62757379D01*
X119897097Y-62875000D01*
X119897097Y-63625000D01*
X119908682Y-63742621D01*
X119942990Y-63855721D01*
X119998704Y-63959955D01*
X120031568Y-64000000D01*
X119998704Y-64040045D01*
X119942990Y-64144279D01*
X119908682Y-64257379D01*
X119897097Y-64375000D01*
X119900000Y-64575000D01*
X120050000Y-64725000D01*
X121225000Y-64725000D01*
X121225000Y-64705000D01*
X121275000Y-64705000D01*
X121275000Y-64725000D01*
X121295000Y-64725000D01*
X121295000Y-64775000D01*
X121275000Y-64775000D01*
X121275000Y-65575000D01*
X121425000Y-65725000D01*
X122000000Y-65727903D01*
X122117621Y-65716318D01*
X122230721Y-65682010D01*
X122334955Y-65626296D01*
X122426317Y-65551317D01*
X122501296Y-65459955D01*
X122557010Y-65355721D01*
X122591318Y-65242621D01*
X122602903Y-65125000D01*
X122601163Y-65005156D01*
X122638856Y-65012653D01*
X122835838Y-65012653D01*
X122911657Y-64997572D01*
X122908682Y-65007379D01*
X122897097Y-65125000D01*
X122897097Y-65875000D01*
X122908682Y-65992621D01*
X122942990Y-66105721D01*
X122998704Y-66209955D01*
X123031568Y-66250000D01*
X122998704Y-66290045D01*
X122942990Y-66394279D01*
X122908682Y-66507379D01*
X122897097Y-66625000D01*
X122900000Y-66825000D01*
X123050000Y-66975000D01*
X124225000Y-66975000D01*
X124225000Y-66955000D01*
X124275000Y-66955000D01*
X124275000Y-66975000D01*
X125450000Y-66975000D01*
X125600000Y-66825000D01*
X125602903Y-66625000D01*
X125591318Y-66507379D01*
X125557010Y-66394279D01*
X125501296Y-66290045D01*
X125468432Y-66250000D01*
X125501296Y-66209955D01*
X125557010Y-66105721D01*
X125591318Y-65992621D01*
X125602903Y-65875000D01*
X125602903Y-65125000D01*
X125591318Y-65007379D01*
X125557010Y-64894279D01*
X125501296Y-64790045D01*
X125426317Y-64698683D01*
X125334955Y-64623704D01*
X125230721Y-64567990D01*
X125117621Y-64533682D01*
X125000000Y-64522097D01*
X124975000Y-64522097D01*
X124975000Y-64135596D01*
X124978506Y-64099999D01*
X124975000Y-64064402D01*
X124975000Y-64064393D01*
X124964509Y-63957875D01*
X124923053Y-63821212D01*
X124911715Y-63800000D01*
X124923053Y-63778788D01*
X124964509Y-63642125D01*
X124975000Y-63535607D01*
X124975000Y-63535598D01*
X124978506Y-63500001D01*
X124975000Y-63464404D01*
X124975000Y-62727903D01*
X125000000Y-62727903D01*
X125117621Y-62716318D01*
X125230721Y-62682010D01*
X125334955Y-62626296D01*
X125426317Y-62551317D01*
X125501296Y-62459955D01*
X125557010Y-62355721D01*
X125591318Y-62242621D01*
X125602903Y-62125000D01*
X125602903Y-61375000D01*
X125591318Y-61257379D01*
X125557010Y-61144279D01*
X125501296Y-61040045D01*
X125468432Y-61000000D01*
X125501296Y-60959955D01*
X125557010Y-60855721D01*
X125591318Y-60742621D01*
X125602903Y-60625000D01*
X125602903Y-59875000D01*
X125591318Y-59757379D01*
X125557010Y-59644279D01*
X125501296Y-59540045D01*
X125426317Y-59448683D01*
X125334955Y-59373704D01*
X125230721Y-59317990D01*
X125117621Y-59283682D01*
X125000000Y-59272097D01*
X124975000Y-59272097D01*
X124975000Y-59035596D01*
X124978506Y-58999999D01*
X124975000Y-58964402D01*
X124975000Y-58964393D01*
X124964509Y-58857875D01*
X124923053Y-58721212D01*
X124855731Y-58595263D01*
X124811764Y-58541689D01*
X124787830Y-58512525D01*
X124787828Y-58512523D01*
X124765132Y-58484868D01*
X124737477Y-58462172D01*
X124525305Y-58250000D01*
X124598491Y-58250000D01*
X124791689Y-58211571D01*
X124973678Y-58136189D01*
X125000000Y-58118601D01*
X125026322Y-58136189D01*
X125208311Y-58211571D01*
X125401509Y-58250000D01*
X125598491Y-58250000D01*
X125791689Y-58211571D01*
X125973678Y-58136189D01*
X126000000Y-58118601D01*
X126026322Y-58136189D01*
X126208311Y-58211571D01*
X126401509Y-58250000D01*
X126598491Y-58250000D01*
X126791689Y-58211571D01*
X126973678Y-58136189D01*
X127000000Y-58118601D01*
X127026322Y-58136189D01*
X127208311Y-58211571D01*
X127401509Y-58250000D01*
X127598491Y-58250000D01*
X127791689Y-58211571D01*
X127973678Y-58136189D01*
X128137463Y-58026751D01*
X128276751Y-57887463D01*
X128386189Y-57723678D01*
X128461571Y-57541689D01*
X128469863Y-57500000D01*
X128598491Y-57500000D01*
X128791689Y-57461571D01*
X128973678Y-57386189D01*
X129137463Y-57276751D01*
X129189214Y-57225000D01*
X131464403Y-57225000D01*
X131500000Y-57228506D01*
X131535597Y-57225000D01*
X131535607Y-57225000D01*
X131642125Y-57214509D01*
X131778788Y-57173053D01*
X131904737Y-57105731D01*
X132015132Y-57015132D01*
X132037832Y-56987472D01*
X134550305Y-54475000D01*
X135709392Y-54475000D01*
X135769279Y-54507010D01*
X135769279Y-54507010D01*
G37*
X135769279Y-54507010D02*
X135882379Y-54541318D01*
X136000000Y-54552903D01*
X137275001Y-54552903D01*
X137275000Y-56560786D01*
X137223249Y-56612537D01*
X137113811Y-56776322D01*
X137038429Y-56958311D01*
X137000000Y-57151509D01*
X137000000Y-57348491D01*
X137038429Y-57541689D01*
X137113811Y-57723678D01*
X137223249Y-57887463D01*
X137362537Y-58026751D01*
X137526322Y-58136189D01*
X137708311Y-58211571D01*
X137901509Y-58250000D01*
X138098491Y-58250000D01*
X138291689Y-58211571D01*
X138473678Y-58136189D01*
X138500000Y-58118601D01*
X138526322Y-58136189D01*
X138708311Y-58211571D01*
X138901509Y-58250000D01*
X139098491Y-58250000D01*
X139291689Y-58211571D01*
X139473678Y-58136189D01*
X139500000Y-58118601D01*
X139526322Y-58136189D01*
X139708311Y-58211571D01*
X139901509Y-58250000D01*
X140098491Y-58250000D01*
X140291689Y-58211571D01*
X140473678Y-58136189D01*
X140500000Y-58118601D01*
X140526322Y-58136189D01*
X140708311Y-58211571D01*
X140901509Y-58250000D01*
X141098491Y-58250000D01*
X141291689Y-58211571D01*
X141473678Y-58136189D01*
X141637463Y-58026751D01*
X141776751Y-57887463D01*
X141886189Y-57723678D01*
X141961571Y-57541689D01*
X141969863Y-57500000D01*
X142098491Y-57500000D01*
X142291689Y-57461571D01*
X142473678Y-57386189D01*
X142637463Y-57276751D01*
X142689214Y-57225000D01*
X144964403Y-57225000D01*
X145000000Y-57228506D01*
X145035597Y-57225000D01*
X145035607Y-57225000D01*
X145142125Y-57214509D01*
X145278788Y-57173053D01*
X145404737Y-57105731D01*
X145515132Y-57015132D01*
X145537832Y-56987472D01*
X148050305Y-54475000D01*
X149459392Y-54475000D01*
X149519279Y-54507010D01*
X149632379Y-54541318D01*
X149750000Y-54552903D01*
X151025000Y-54552903D01*
X151025001Y-56134010D01*
X151012524Y-56146487D01*
X150984868Y-56169184D01*
X150962172Y-56196839D01*
X150962170Y-56196841D01*
X150906126Y-56265131D01*
X150894269Y-56279579D01*
X150826947Y-56405528D01*
X150785491Y-56542191D01*
X150784606Y-56551180D01*
X150723249Y-56612537D01*
X150613811Y-56776322D01*
X150538429Y-56958311D01*
X150500000Y-57151509D01*
X150500000Y-57348491D01*
X150538429Y-57541689D01*
X150613811Y-57723678D01*
X150723249Y-57887463D01*
X150862537Y-58026751D01*
X151026322Y-58136189D01*
X151208311Y-58211571D01*
X151401509Y-58250000D01*
X151598491Y-58250000D01*
X151791689Y-58211571D01*
X151973678Y-58136189D01*
X152000000Y-58118601D01*
X152026322Y-58136189D01*
X152208311Y-58211571D01*
X152401509Y-58250000D01*
X152598491Y-58250000D01*
X152791689Y-58211571D01*
X152973678Y-58136189D01*
X153000000Y-58118601D01*
X153026322Y-58136189D01*
X153208311Y-58211571D01*
X153401509Y-58250000D01*
X153598491Y-58250000D01*
X153791689Y-58211571D01*
X153973678Y-58136189D01*
X154000000Y-58118601D01*
X154026322Y-58136189D01*
X154208311Y-58211571D01*
X154401509Y-58250000D01*
X154598491Y-58250000D01*
X154791689Y-58211571D01*
X154973678Y-58136189D01*
X155137463Y-58026751D01*
X155276751Y-57887463D01*
X155386189Y-57723678D01*
X155461571Y-57541689D01*
X155469863Y-57500000D01*
X155598491Y-57500000D01*
X155791689Y-57461571D01*
X155973678Y-57386189D01*
X156137463Y-57276751D01*
X156189214Y-57225000D01*
X158464403Y-57225000D01*
X158500000Y-57228506D01*
X158535597Y-57225000D01*
X158535607Y-57225000D01*
X158642125Y-57214509D01*
X158778788Y-57173053D01*
X158904737Y-57105731D01*
X159015132Y-57015132D01*
X159037832Y-56987472D01*
X161550305Y-54475000D01*
X162959392Y-54475000D01*
X163019279Y-54507010D01*
X163132379Y-54541318D01*
X163250000Y-54552903D01*
X164525000Y-54552903D01*
X164525001Y-56364694D01*
X164362537Y-56473249D01*
X164223249Y-56612537D01*
X164113811Y-56776322D01*
X164038429Y-56958311D01*
X164000000Y-57151509D01*
X164000000Y-57348491D01*
X164038429Y-57541689D01*
X164113811Y-57723678D01*
X164223249Y-57887463D01*
X164362537Y-58026751D01*
X164526322Y-58136189D01*
X164708311Y-58211571D01*
X164901509Y-58250000D01*
X165098491Y-58250000D01*
X165291689Y-58211571D01*
X165473678Y-58136189D01*
X165500000Y-58118601D01*
X165526322Y-58136189D01*
X165708311Y-58211571D01*
X165901509Y-58250000D01*
X166098491Y-58250000D01*
X166291689Y-58211571D01*
X166473678Y-58136189D01*
X166500000Y-58118601D01*
X166526322Y-58136189D01*
X166708311Y-58211571D01*
X166901509Y-58250000D01*
X167098491Y-58250000D01*
X167291689Y-58211571D01*
X167473678Y-58136189D01*
X167500000Y-58118601D01*
X167526322Y-58136189D01*
X167708311Y-58211571D01*
X167901509Y-58250000D01*
X168025000Y-58250000D01*
X168025001Y-68949694D01*
X166449696Y-70525000D01*
X125515597Y-70525000D01*
X125480000Y-70521494D01*
X125444403Y-70525000D01*
X125444393Y-70525000D01*
X125337875Y-70535491D01*
X125201212Y-70576947D01*
X125075263Y-70644269D01*
X124992525Y-70712170D01*
X124992523Y-70712172D01*
X124964868Y-70734868D01*
X124942172Y-70762523D01*
X122342523Y-73362173D01*
X122314869Y-73384868D01*
X122292173Y-73412523D01*
X122292170Y-73412526D01*
X122224269Y-73495264D01*
X122196563Y-73547097D01*
X121980000Y-73547097D01*
X121862379Y-73558682D01*
X121749279Y-73592990D01*
X121645045Y-73648704D01*
X121560000Y-73718499D01*
X121474955Y-73648704D01*
X121370721Y-73592990D01*
X121257621Y-73558682D01*
X121140000Y-73547097D01*
X121015000Y-73547097D01*
X121015000Y-68575596D01*
X121018506Y-68539999D01*
X121015000Y-68504402D01*
X121015000Y-68504393D01*
X121004509Y-68397875D01*
X120963053Y-68261212D01*
X120895731Y-68135263D01*
X120827830Y-68052525D01*
X120827828Y-68052523D01*
X120805132Y-68024868D01*
X120777477Y-68002172D01*
X120150305Y-67375000D01*
X122897097Y-67375000D01*
X122908682Y-67492621D01*
X122942990Y-67605721D01*
X122998704Y-67709955D01*
X123073683Y-67801317D01*
X123165045Y-67876296D01*
X123269279Y-67932010D01*
X123382379Y-67966318D01*
X123500000Y-67977903D01*
X124075000Y-67975000D01*
X124225000Y-67825000D01*
X124225000Y-67025000D01*
X124275000Y-67025000D01*
X124275000Y-67825000D01*
X124425000Y-67975000D01*
X125000000Y-67977903D01*
X125117621Y-67966318D01*
X125230721Y-67932010D01*
X125334955Y-67876296D01*
X125426317Y-67801317D01*
X125501296Y-67709955D01*
X125557010Y-67605721D01*
X125591318Y-67492621D01*
X125602903Y-67375000D01*
X125600000Y-67175000D01*
X125450000Y-67025000D01*
X124275000Y-67025000D01*
X124225000Y-67025000D01*
X123050000Y-67025000D01*
X122900000Y-67175000D01*
X122897097Y-67375000D01*
X120150305Y-67375000D01*
X118500304Y-65725000D01*
X118525002Y-65725000D01*
X118525002Y-65575002D01*
X118675000Y-65725000D01*
X119250000Y-65727903D01*
X119367621Y-65716318D01*
X119480721Y-65682010D01*
X119584955Y-65626296D01*
X119676317Y-65551317D01*
X119751296Y-65459955D01*
X119807010Y-65355721D01*
X119841318Y-65242621D01*
X119852903Y-65125000D01*
X119897097Y-65125000D01*
X119908682Y-65242621D01*
X119942990Y-65355721D01*
X119998704Y-65459955D01*
X120073683Y-65551317D01*
X120165045Y-65626296D01*
X120269279Y-65682010D01*
X120382379Y-65716318D01*
X120500000Y-65727903D01*
X121075000Y-65725000D01*
X121225000Y-65575000D01*
X121225000Y-64775000D01*
X120050000Y-64775000D01*
X119900000Y-64925000D01*
X119897097Y-65125000D01*
X119852903Y-65125000D01*
X119850000Y-64925000D01*
X119700000Y-64775000D01*
X118525000Y-64775000D01*
X118525000Y-64795000D01*
X118475000Y-64795000D01*
X118475000Y-64775000D01*
X118455000Y-64775000D01*
X118455000Y-64725000D01*
X118475000Y-64725000D01*
X118475000Y-64705000D01*
X118525000Y-64705000D01*
X118525000Y-64725000D01*
X119700000Y-64725000D01*
X119850000Y-64575000D01*
X119852903Y-64375000D01*
X119841318Y-64257379D01*
X119807010Y-64144279D01*
X119751296Y-64040045D01*
X119718432Y-64000000D01*
X119751296Y-63959955D01*
X119807010Y-63855721D01*
X119841318Y-63742621D01*
X119852903Y-63625000D01*
X119852903Y-62875000D01*
X119841318Y-62757379D01*
X119807010Y-62644279D01*
X119751296Y-62540045D01*
X119676317Y-62448683D01*
X119584955Y-62373704D01*
X119480721Y-62317990D01*
X119367621Y-62283682D01*
X119279474Y-62275000D01*
X120470526Y-62275000D01*
X120382379Y-62283682D01*
X120269279Y-62317990D01*
X120165045Y-62373704D01*
X120073683Y-62448683D01*
X119998704Y-62540045D01*
X119942990Y-62644279D01*
X119908682Y-62757379D01*
X119897097Y-62875000D01*
X119897097Y-63625000D01*
X119908682Y-63742621D01*
X119942990Y-63855721D01*
X119998704Y-63959955D01*
X120031568Y-64000000D01*
X119998704Y-64040045D01*
X119942990Y-64144279D01*
X119908682Y-64257379D01*
X119897097Y-64375000D01*
X119900000Y-64575000D01*
X120050000Y-64725000D01*
X121225000Y-64725000D01*
X121225000Y-64705000D01*
X121275000Y-64705000D01*
X121275000Y-64725000D01*
X121295000Y-64725000D01*
X121295000Y-64775000D01*
X121275000Y-64775000D01*
X121275000Y-65575000D01*
X121425000Y-65725000D01*
X122000000Y-65727903D01*
X122117621Y-65716318D01*
X122230721Y-65682010D01*
X122334955Y-65626296D01*
X122426317Y-65551317D01*
X122501296Y-65459955D01*
X122557010Y-65355721D01*
X122591318Y-65242621D01*
X122602903Y-65125000D01*
X122601163Y-65005156D01*
X122638856Y-65012653D01*
X122835838Y-65012653D01*
X122911657Y-64997572D01*
X122908682Y-65007379D01*
X122897097Y-65125000D01*
X122897097Y-65875000D01*
X122908682Y-65992621D01*
X122942990Y-66105721D01*
X122998704Y-66209955D01*
X123031568Y-66250000D01*
X122998704Y-66290045D01*
X122942990Y-66394279D01*
X122908682Y-66507379D01*
X122897097Y-66625000D01*
X122900000Y-66825000D01*
X123050000Y-66975000D01*
X124225000Y-66975000D01*
X124225000Y-66955000D01*
X124275000Y-66955000D01*
X124275000Y-66975000D01*
X125450000Y-66975000D01*
X125600000Y-66825000D01*
X125602903Y-66625000D01*
X125591318Y-66507379D01*
X125557010Y-66394279D01*
X125501296Y-66290045D01*
X125468432Y-66250000D01*
X125501296Y-66209955D01*
X125557010Y-66105721D01*
X125591318Y-65992621D01*
X125602903Y-65875000D01*
X125602903Y-65125000D01*
X125591318Y-65007379D01*
X125557010Y-64894279D01*
X125501296Y-64790045D01*
X125426317Y-64698683D01*
X125334955Y-64623704D01*
X125230721Y-64567990D01*
X125117621Y-64533682D01*
X125000000Y-64522097D01*
X124975000Y-64522097D01*
X124975000Y-64135596D01*
X124978506Y-64099999D01*
X124975000Y-64064402D01*
X124975000Y-64064393D01*
X124964509Y-63957875D01*
X124923053Y-63821212D01*
X124911715Y-63800000D01*
X124923053Y-63778788D01*
X124964509Y-63642125D01*
X124975000Y-63535607D01*
X124975000Y-63535598D01*
X124978506Y-63500001D01*
X124975000Y-63464404D01*
X124975000Y-62727903D01*
X125000000Y-62727903D01*
X125117621Y-62716318D01*
X125230721Y-62682010D01*
X125334955Y-62626296D01*
X125426317Y-62551317D01*
X125501296Y-62459955D01*
X125557010Y-62355721D01*
X125591318Y-62242621D01*
X125602903Y-62125000D01*
X125602903Y-61375000D01*
X125591318Y-61257379D01*
X125557010Y-61144279D01*
X125501296Y-61040045D01*
X125468432Y-61000000D01*
X125501296Y-60959955D01*
X125557010Y-60855721D01*
X125591318Y-60742621D01*
X125602903Y-60625000D01*
X125602903Y-59875000D01*
X125591318Y-59757379D01*
X125557010Y-59644279D01*
X125501296Y-59540045D01*
X125426317Y-59448683D01*
X125334955Y-59373704D01*
X125230721Y-59317990D01*
X125117621Y-59283682D01*
X125000000Y-59272097D01*
X124975000Y-59272097D01*
X124975000Y-59035596D01*
X124978506Y-58999999D01*
X124975000Y-58964402D01*
X124975000Y-58964393D01*
X124964509Y-58857875D01*
X124923053Y-58721212D01*
X124855731Y-58595263D01*
X124811764Y-58541689D01*
X124787830Y-58512525D01*
X124787828Y-58512523D01*
X124765132Y-58484868D01*
X124737477Y-58462172D01*
X124525305Y-58250000D01*
X124598491Y-58250000D01*
X124791689Y-58211571D01*
X124973678Y-58136189D01*
X125000000Y-58118601D01*
X125026322Y-58136189D01*
X125208311Y-58211571D01*
X125401509Y-58250000D01*
X125598491Y-58250000D01*
X125791689Y-58211571D01*
X125973678Y-58136189D01*
X126000000Y-58118601D01*
X126026322Y-58136189D01*
X126208311Y-58211571D01*
X126401509Y-58250000D01*
X126598491Y-58250000D01*
X126791689Y-58211571D01*
X126973678Y-58136189D01*
X127000000Y-58118601D01*
X127026322Y-58136189D01*
X127208311Y-58211571D01*
X127401509Y-58250000D01*
X127598491Y-58250000D01*
X127791689Y-58211571D01*
X127973678Y-58136189D01*
X128137463Y-58026751D01*
X128276751Y-57887463D01*
X128386189Y-57723678D01*
X128461571Y-57541689D01*
X128469863Y-57500000D01*
X128598491Y-57500000D01*
X128791689Y-57461571D01*
X128973678Y-57386189D01*
X129137463Y-57276751D01*
X129189214Y-57225000D01*
X131464403Y-57225000D01*
X131500000Y-57228506D01*
X131535597Y-57225000D01*
X131535607Y-57225000D01*
X131642125Y-57214509D01*
X131778788Y-57173053D01*
X131904737Y-57105731D01*
X132015132Y-57015132D01*
X132037832Y-56987472D01*
X134550305Y-54475000D01*
X135709392Y-54475000D01*
X135769279Y-54507010D01*
G36*
X102875762Y-66037477D02*
G01*
X102898458Y-66065132D01*
X102926113Y-66087828D01*
X102926115Y-66087830D01*
X102947928Y-66105731D01*
X103008853Y-66155731D01*
X103134802Y-66223053D01*
X103271465Y-66264509D01*
X103377983Y-66275000D01*
X103377992Y-66275000D01*
X103413589Y-66278506D01*
X103449186Y-66275000D01*
X104852541Y-66275000D01*
X104915045Y-66326296D01*
X105019279Y-66382010D01*
X105132379Y-66416318D01*
X105250000Y-66427903D01*
X106750000Y-66427903D01*
X106837659Y-66419269D01*
X106833682Y-66432379D01*
X106822097Y-66550000D01*
X106822097Y-68050000D01*
X106833682Y-68167621D01*
X106867990Y-68280721D01*
X106886312Y-68315000D01*
X102022283Y-68315000D01*
X102002591Y-65164306D01*
X102875762Y-66037477D01*
X102875762Y-66037477D01*
G37*
X102875762Y-66037477D02*
X102898458Y-66065132D01*
X102926113Y-66087828D01*
X102926115Y-66087830D01*
X102947928Y-66105731D01*
X103008853Y-66155731D01*
X103134802Y-66223053D01*
X103271465Y-66264509D01*
X103377983Y-66275000D01*
X103377992Y-66275000D01*
X103413589Y-66278506D01*
X103449186Y-66275000D01*
X104852541Y-66275000D01*
X104915045Y-66326296D01*
X105019279Y-66382010D01*
X105132379Y-66416318D01*
X105250000Y-66427903D01*
X106750000Y-66427903D01*
X106837659Y-66419269D01*
X106833682Y-66432379D01*
X106822097Y-66550000D01*
X106822097Y-68050000D01*
X106833682Y-68167621D01*
X106867990Y-68280721D01*
X106886312Y-68315000D01*
X102022283Y-68315000D01*
X102002591Y-65164306D01*
X102875762Y-66037477D01*
G36*
X112907379Y-59591318D02*
G01*
X113025000Y-59602903D01*
X113575000Y-59602903D01*
X113654974Y-59595026D01*
X113647097Y-59675000D01*
X113647097Y-60225000D01*
X113658682Y-60342621D01*
X113660920Y-60350000D01*
X113658682Y-60357379D01*
X113647097Y-60475000D01*
X113647097Y-61025000D01*
X113658682Y-61142621D01*
X113660920Y-61150000D01*
X113658682Y-61157379D01*
X113647097Y-61275000D01*
X113647097Y-61825000D01*
X113658682Y-61942621D01*
X113660920Y-61950000D01*
X113658682Y-61957379D01*
X113647097Y-62075000D01*
X113647097Y-62625000D01*
X113658682Y-62742621D01*
X113660920Y-62750000D01*
X113658682Y-62757379D01*
X113647097Y-62875000D01*
X113650000Y-62975000D01*
X113800000Y-63125000D01*
X113913466Y-63125000D01*
X113915045Y-63126296D01*
X113959392Y-63150000D01*
X113915045Y-63173704D01*
X113913466Y-63175000D01*
X113800000Y-63175000D01*
X113650000Y-63325000D01*
X113647097Y-63425000D01*
X113658682Y-63542621D01*
X113660920Y-63550000D01*
X113658682Y-63557379D01*
X113647097Y-63675000D01*
X113647097Y-64225000D01*
X113658682Y-64342621D01*
X113660920Y-64350000D01*
X113658682Y-64357379D01*
X113647097Y-64475000D01*
X113647097Y-65025000D01*
X113658682Y-65142621D01*
X113660920Y-65150000D01*
X113658682Y-65157379D01*
X113647097Y-65275000D01*
X113647097Y-65825000D01*
X113658682Y-65942621D01*
X113662659Y-65955731D01*
X113575000Y-65947097D01*
X113025000Y-65947097D01*
X112907379Y-65958682D01*
X112900000Y-65960920D01*
X112892621Y-65958682D01*
X112775000Y-65947097D01*
X112225000Y-65947097D01*
X112107379Y-65958682D01*
X112100000Y-65960920D01*
X112092621Y-65958682D01*
X111975000Y-65947097D01*
X111425000Y-65947097D01*
X111307379Y-65958682D01*
X111300000Y-65960920D01*
X111292621Y-65958682D01*
X111175000Y-65947097D01*
X110625000Y-65947097D01*
X110507379Y-65958682D01*
X110500000Y-65960920D01*
X110492621Y-65958682D01*
X110375000Y-65947097D01*
X109825000Y-65947097D01*
X109707379Y-65958682D01*
X109700000Y-65960920D01*
X109692621Y-65958682D01*
X109575000Y-65947097D01*
X109025000Y-65947097D01*
X108907379Y-65958682D01*
X108900000Y-65960920D01*
X108892621Y-65958682D01*
X108775000Y-65947097D01*
X108225000Y-65947097D01*
X108107379Y-65958682D01*
X108100000Y-65960920D01*
X108092621Y-65958682D01*
X107975000Y-65947097D01*
X107425000Y-65947097D01*
X107337341Y-65955731D01*
X107341318Y-65942621D01*
X107352903Y-65825000D01*
X107352903Y-65275000D01*
X107341318Y-65157379D01*
X107339080Y-65150000D01*
X107341318Y-65142621D01*
X107352903Y-65025000D01*
X107352903Y-64475000D01*
X107341318Y-64357379D01*
X107339080Y-64350000D01*
X107341318Y-64342621D01*
X107352903Y-64225000D01*
X107350000Y-64125000D01*
X107200000Y-63975000D01*
X107086534Y-63975000D01*
X107084955Y-63973704D01*
X107040608Y-63950000D01*
X107084955Y-63926296D01*
X107086534Y-63925000D01*
X107200000Y-63925000D01*
X107328541Y-63796459D01*
X107404737Y-63755731D01*
X107515132Y-63665132D01*
X107537832Y-63637472D01*
X107737476Y-63437828D01*
X107765131Y-63415132D01*
X107855731Y-63304737D01*
X107923053Y-63178788D01*
X107964509Y-63042125D01*
X107975000Y-62935607D01*
X107975000Y-62935598D01*
X107978506Y-62900001D01*
X107975000Y-62864404D01*
X107975000Y-61785596D01*
X107978506Y-61749999D01*
X107975000Y-61714402D01*
X107975000Y-61714393D01*
X107964509Y-61607875D01*
X107923053Y-61471212D01*
X107855731Y-61345263D01*
X107765132Y-61234868D01*
X107737472Y-61212168D01*
X107537832Y-61012528D01*
X107515132Y-60984868D01*
X107404737Y-60894269D01*
X107352903Y-60866563D01*
X107352903Y-60475000D01*
X107341318Y-60357379D01*
X107339080Y-60350000D01*
X107341318Y-60342621D01*
X107352903Y-60225000D01*
X107352903Y-59675000D01*
X107345026Y-59595026D01*
X107425000Y-59602903D01*
X107975000Y-59602903D01*
X108092621Y-59591318D01*
X108100000Y-59589080D01*
X108107379Y-59591318D01*
X108225000Y-59602903D01*
X108775000Y-59602903D01*
X108892621Y-59591318D01*
X108900000Y-59589080D01*
X108907379Y-59591318D01*
X109025000Y-59602903D01*
X109575000Y-59602903D01*
X109692621Y-59591318D01*
X109700000Y-59589080D01*
X109707379Y-59591318D01*
X109825000Y-59602903D01*
X110375000Y-59602903D01*
X110492621Y-59591318D01*
X110500000Y-59589080D01*
X110507379Y-59591318D01*
X110625000Y-59602903D01*
X111175000Y-59602903D01*
X111292621Y-59591318D01*
X111300000Y-59589080D01*
X111307379Y-59591318D01*
X111425000Y-59602903D01*
X111975000Y-59602903D01*
X112092621Y-59591318D01*
X112100000Y-59589080D01*
X112107379Y-59591318D01*
X112225000Y-59602903D01*
X112775000Y-59602903D01*
X112892621Y-59591318D01*
X112900000Y-59589080D01*
X112907379Y-59591318D01*
X112907379Y-59591318D01*
G37*
X112907379Y-59591318D02*
X113025000Y-59602903D01*
X113575000Y-59602903D01*
X113654974Y-59595026D01*
X113647097Y-59675000D01*
X113647097Y-60225000D01*
X113658682Y-60342621D01*
X113660920Y-60350000D01*
X113658682Y-60357379D01*
X113647097Y-60475000D01*
X113647097Y-61025000D01*
X113658682Y-61142621D01*
X113660920Y-61150000D01*
X113658682Y-61157379D01*
X113647097Y-61275000D01*
X113647097Y-61825000D01*
X113658682Y-61942621D01*
X113660920Y-61950000D01*
X113658682Y-61957379D01*
X113647097Y-62075000D01*
X113647097Y-62625000D01*
X113658682Y-62742621D01*
X113660920Y-62750000D01*
X113658682Y-62757379D01*
X113647097Y-62875000D01*
X113650000Y-62975000D01*
X113800000Y-63125000D01*
X113913466Y-63125000D01*
X113915045Y-63126296D01*
X113959392Y-63150000D01*
X113915045Y-63173704D01*
X113913466Y-63175000D01*
X113800000Y-63175000D01*
X113650000Y-63325000D01*
X113647097Y-63425000D01*
X113658682Y-63542621D01*
X113660920Y-63550000D01*
X113658682Y-63557379D01*
X113647097Y-63675000D01*
X113647097Y-64225000D01*
X113658682Y-64342621D01*
X113660920Y-64350000D01*
X113658682Y-64357379D01*
X113647097Y-64475000D01*
X113647097Y-65025000D01*
X113658682Y-65142621D01*
X113660920Y-65150000D01*
X113658682Y-65157379D01*
X113647097Y-65275000D01*
X113647097Y-65825000D01*
X113658682Y-65942621D01*
X113662659Y-65955731D01*
X113575000Y-65947097D01*
X113025000Y-65947097D01*
X112907379Y-65958682D01*
X112900000Y-65960920D01*
X112892621Y-65958682D01*
X112775000Y-65947097D01*
X112225000Y-65947097D01*
X112107379Y-65958682D01*
X112100000Y-65960920D01*
X112092621Y-65958682D01*
X111975000Y-65947097D01*
X111425000Y-65947097D01*
X111307379Y-65958682D01*
X111300000Y-65960920D01*
X111292621Y-65958682D01*
X111175000Y-65947097D01*
X110625000Y-65947097D01*
X110507379Y-65958682D01*
X110500000Y-65960920D01*
X110492621Y-65958682D01*
X110375000Y-65947097D01*
X109825000Y-65947097D01*
X109707379Y-65958682D01*
X109700000Y-65960920D01*
X109692621Y-65958682D01*
X109575000Y-65947097D01*
X109025000Y-65947097D01*
X108907379Y-65958682D01*
X108900000Y-65960920D01*
X108892621Y-65958682D01*
X108775000Y-65947097D01*
X108225000Y-65947097D01*
X108107379Y-65958682D01*
X108100000Y-65960920D01*
X108092621Y-65958682D01*
X107975000Y-65947097D01*
X107425000Y-65947097D01*
X107337341Y-65955731D01*
X107341318Y-65942621D01*
X107352903Y-65825000D01*
X107352903Y-65275000D01*
X107341318Y-65157379D01*
X107339080Y-65150000D01*
X107341318Y-65142621D01*
X107352903Y-65025000D01*
X107352903Y-64475000D01*
X107341318Y-64357379D01*
X107339080Y-64350000D01*
X107341318Y-64342621D01*
X107352903Y-64225000D01*
X107350000Y-64125000D01*
X107200000Y-63975000D01*
X107086534Y-63975000D01*
X107084955Y-63973704D01*
X107040608Y-63950000D01*
X107084955Y-63926296D01*
X107086534Y-63925000D01*
X107200000Y-63925000D01*
X107328541Y-63796459D01*
X107404737Y-63755731D01*
X107515132Y-63665132D01*
X107537832Y-63637472D01*
X107737476Y-63437828D01*
X107765131Y-63415132D01*
X107855731Y-63304737D01*
X107923053Y-63178788D01*
X107964509Y-63042125D01*
X107975000Y-62935607D01*
X107975000Y-62935598D01*
X107978506Y-62900001D01*
X107975000Y-62864404D01*
X107975000Y-61785596D01*
X107978506Y-61749999D01*
X107975000Y-61714402D01*
X107975000Y-61714393D01*
X107964509Y-61607875D01*
X107923053Y-61471212D01*
X107855731Y-61345263D01*
X107765132Y-61234868D01*
X107737472Y-61212168D01*
X107537832Y-61012528D01*
X107515132Y-60984868D01*
X107404737Y-60894269D01*
X107352903Y-60866563D01*
X107352903Y-60475000D01*
X107341318Y-60357379D01*
X107339080Y-60350000D01*
X107341318Y-60342621D01*
X107352903Y-60225000D01*
X107352903Y-59675000D01*
X107345026Y-59595026D01*
X107425000Y-59602903D01*
X107975000Y-59602903D01*
X108092621Y-59591318D01*
X108100000Y-59589080D01*
X108107379Y-59591318D01*
X108225000Y-59602903D01*
X108775000Y-59602903D01*
X108892621Y-59591318D01*
X108900000Y-59589080D01*
X108907379Y-59591318D01*
X109025000Y-59602903D01*
X109575000Y-59602903D01*
X109692621Y-59591318D01*
X109700000Y-59589080D01*
X109707379Y-59591318D01*
X109825000Y-59602903D01*
X110375000Y-59602903D01*
X110492621Y-59591318D01*
X110500000Y-59589080D01*
X110507379Y-59591318D01*
X110625000Y-59602903D01*
X111175000Y-59602903D01*
X111292621Y-59591318D01*
X111300000Y-59589080D01*
X111307379Y-59591318D01*
X111425000Y-59602903D01*
X111975000Y-59602903D01*
X112092621Y-59591318D01*
X112100000Y-59589080D01*
X112107379Y-59591318D01*
X112225000Y-59602903D01*
X112775000Y-59602903D01*
X112892621Y-59591318D01*
X112900000Y-59589080D01*
X112907379Y-59591318D01*
G36*
X117147097Y-63625000D02*
G01*
X117158682Y-63742621D01*
X117192990Y-63855721D01*
X117248704Y-63959955D01*
X117281568Y-64000000D01*
X117248704Y-64040045D01*
X117192990Y-64144279D01*
X117158682Y-64257379D01*
X117147385Y-64372081D01*
X117037832Y-64262528D01*
X117015132Y-64234868D01*
X116904737Y-64144269D01*
X116778788Y-64076947D01*
X116642125Y-64035491D01*
X116535607Y-64025000D01*
X116535597Y-64025000D01*
X116500000Y-64021494D01*
X116464403Y-64025000D01*
X116352903Y-64025000D01*
X116352903Y-63675000D01*
X116341318Y-63557379D01*
X116339080Y-63550000D01*
X116341318Y-63542621D01*
X116352903Y-63425000D01*
X116350000Y-63325000D01*
X116200000Y-63175000D01*
X116086534Y-63175000D01*
X116084955Y-63173704D01*
X116040608Y-63150000D01*
X116084955Y-63126296D01*
X116086534Y-63125000D01*
X116200000Y-63125000D01*
X116250000Y-63075000D01*
X117147097Y-63075000D01*
X117147097Y-63625000D01*
X117147097Y-63625000D01*
G37*
X117147097Y-63625000D02*
X117158682Y-63742621D01*
X117192990Y-63855721D01*
X117248704Y-63959955D01*
X117281568Y-64000000D01*
X117248704Y-64040045D01*
X117192990Y-64144279D01*
X117158682Y-64257379D01*
X117147385Y-64372081D01*
X117037832Y-64262528D01*
X117015132Y-64234868D01*
X116904737Y-64144269D01*
X116778788Y-64076947D01*
X116642125Y-64035491D01*
X116535607Y-64025000D01*
X116535597Y-64025000D01*
X116500000Y-64021494D01*
X116464403Y-64025000D01*
X116352903Y-64025000D01*
X116352903Y-63675000D01*
X116341318Y-63557379D01*
X116339080Y-63550000D01*
X116341318Y-63542621D01*
X116352903Y-63425000D01*
X116350000Y-63325000D01*
X116200000Y-63175000D01*
X116086534Y-63175000D01*
X116084955Y-63173704D01*
X116040608Y-63150000D01*
X116084955Y-63126296D01*
X116086534Y-63125000D01*
X116200000Y-63125000D01*
X116250000Y-63075000D01*
X117147097Y-63075000D01*
X117147097Y-63625000D01*
G36*
X103775000Y-62725000D02*
G01*
X103795000Y-62725000D01*
X103795000Y-62775000D01*
X103775000Y-62775000D01*
X103775000Y-63575000D01*
X103925000Y-63725000D01*
X104500000Y-63727903D01*
X104617621Y-63716318D01*
X104648029Y-63707094D01*
X104650000Y-63775000D01*
X104800000Y-63925000D01*
X104913466Y-63925000D01*
X104915045Y-63926296D01*
X104959392Y-63950000D01*
X104915045Y-63973704D01*
X104913466Y-63975000D01*
X104800000Y-63975000D01*
X104750000Y-64025000D01*
X103550305Y-64025000D01*
X103251935Y-63726631D01*
X103575000Y-63725000D01*
X103725000Y-63575000D01*
X103725000Y-62775000D01*
X103705000Y-62775000D01*
X103705000Y-62725000D01*
X103725000Y-62725000D01*
X103725000Y-62705000D01*
X103775000Y-62705000D01*
X103775000Y-62725000D01*
X103775000Y-62725000D01*
G37*
X103775000Y-62725000D02*
X103795000Y-62725000D01*
X103795000Y-62775000D01*
X103775000Y-62775000D01*
X103775000Y-63575000D01*
X103925000Y-63725000D01*
X104500000Y-63727903D01*
X104617621Y-63716318D01*
X104648029Y-63707094D01*
X104650000Y-63775000D01*
X104800000Y-63925000D01*
X104913466Y-63925000D01*
X104915045Y-63926296D01*
X104959392Y-63950000D01*
X104915045Y-63973704D01*
X104913466Y-63975000D01*
X104800000Y-63975000D01*
X104750000Y-64025000D01*
X103550305Y-64025000D01*
X103251935Y-63726631D01*
X103575000Y-63725000D01*
X103725000Y-63575000D01*
X103725000Y-62775000D01*
X103705000Y-62775000D01*
X103705000Y-62725000D01*
X103725000Y-62725000D01*
X103725000Y-62705000D01*
X103775000Y-62705000D01*
X103775000Y-62725000D01*
G36*
X122269279Y-54507010D02*
G01*
X122382379Y-54541318D01*
X122500000Y-54552903D01*
X123775001Y-54552903D01*
X123775000Y-56285109D01*
X123598491Y-56250000D01*
X123401509Y-56250000D01*
X123208311Y-56288429D01*
X123026322Y-56363811D01*
X122862537Y-56473249D01*
X122723249Y-56612537D01*
X122613811Y-56776322D01*
X122538429Y-56958311D01*
X122500000Y-57151509D01*
X122500000Y-57288466D01*
X122426317Y-57198683D01*
X122334955Y-57123704D01*
X122230721Y-57067990D01*
X122117621Y-57033682D01*
X122000000Y-57022097D01*
X121425000Y-57025000D01*
X121275000Y-57175000D01*
X121275000Y-57975000D01*
X122450000Y-57975000D01*
X122600000Y-57825000D01*
X122601888Y-57694894D01*
X122613811Y-57723678D01*
X122723249Y-57887463D01*
X122775000Y-57939214D01*
X122775000Y-58214402D01*
X122771494Y-58250000D01*
X122775000Y-58285597D01*
X122775000Y-58285606D01*
X122785491Y-58392124D01*
X122813625Y-58484869D01*
X122826947Y-58528787D01*
X122894269Y-58654736D01*
X122948825Y-58721212D01*
X122984868Y-58765131D01*
X123012524Y-58787828D01*
X123497080Y-59272385D01*
X123382379Y-59283682D01*
X123269279Y-59317990D01*
X123165045Y-59373704D01*
X123073683Y-59448683D01*
X122998704Y-59540045D01*
X122942990Y-59644279D01*
X122908682Y-59757379D01*
X122897097Y-59875000D01*
X122897097Y-60625000D01*
X122908682Y-60742621D01*
X122942990Y-60855721D01*
X122998704Y-60959955D01*
X123031568Y-61000000D01*
X122998704Y-61040045D01*
X122942990Y-61144279D01*
X122937542Y-61162238D01*
X122837830Y-61062526D01*
X122815132Y-61034868D01*
X122704737Y-60944269D01*
X122578788Y-60876947D01*
X122442125Y-60835491D01*
X122335607Y-60825000D01*
X122335597Y-60825000D01*
X122300000Y-60821494D01*
X122264403Y-60825000D01*
X121898352Y-60825000D01*
X121923053Y-60778788D01*
X121964509Y-60642125D01*
X121975000Y-60535607D01*
X121975000Y-60535598D01*
X121978506Y-60500001D01*
X121976330Y-60477903D01*
X122000000Y-60477903D01*
X122117621Y-60466318D01*
X122230721Y-60432010D01*
X122334955Y-60376296D01*
X122426317Y-60301317D01*
X122501296Y-60209955D01*
X122557010Y-60105721D01*
X122591318Y-59992621D01*
X122602903Y-59875000D01*
X122602903Y-59125000D01*
X122591318Y-59007379D01*
X122557010Y-58894279D01*
X122501296Y-58790045D01*
X122468432Y-58750000D01*
X122501296Y-58709955D01*
X122557010Y-58605721D01*
X122591318Y-58492621D01*
X122602903Y-58375000D01*
X122600000Y-58175000D01*
X122450000Y-58025000D01*
X121275000Y-58025000D01*
X121275000Y-58045000D01*
X121225000Y-58045000D01*
X121225000Y-58025000D01*
X120050000Y-58025000D01*
X119900000Y-58175000D01*
X119897097Y-58375000D01*
X119908682Y-58492621D01*
X119942990Y-58605721D01*
X119998704Y-58709955D01*
X120031568Y-58750000D01*
X119998704Y-58790045D01*
X119942990Y-58894279D01*
X119908682Y-59007379D01*
X119897097Y-59125000D01*
X119897097Y-59875000D01*
X119908682Y-59992621D01*
X119918504Y-60025000D01*
X119831496Y-60025000D01*
X119841318Y-59992621D01*
X119852903Y-59875000D01*
X119852903Y-59125000D01*
X119841318Y-59007379D01*
X119807010Y-58894279D01*
X119751296Y-58790045D01*
X119718432Y-58750000D01*
X119751296Y-58709955D01*
X119807010Y-58605721D01*
X119841318Y-58492621D01*
X119852903Y-58375000D01*
X119850000Y-58175000D01*
X119700000Y-58025000D01*
X118525000Y-58025000D01*
X118525000Y-58045000D01*
X118475000Y-58045000D01*
X118475000Y-58025000D01*
X118455000Y-58025000D01*
X118455000Y-57975000D01*
X118475000Y-57975000D01*
X118475000Y-57175000D01*
X118525000Y-57175000D01*
X118525000Y-57975000D01*
X119700000Y-57975000D01*
X119850000Y-57825000D01*
X119852903Y-57625000D01*
X119897097Y-57625000D01*
X119900000Y-57825000D01*
X120050000Y-57975000D01*
X121225000Y-57975000D01*
X121225000Y-57175000D01*
X121075000Y-57025000D01*
X120500000Y-57022097D01*
X120382379Y-57033682D01*
X120269279Y-57067990D01*
X120165045Y-57123704D01*
X120073683Y-57198683D01*
X119998704Y-57290045D01*
X119942990Y-57394279D01*
X119908682Y-57507379D01*
X119897097Y-57625000D01*
X119852903Y-57625000D01*
X119841318Y-57507379D01*
X119807010Y-57394279D01*
X119751296Y-57290045D01*
X119676317Y-57198683D01*
X119584955Y-57123704D01*
X119480721Y-57067990D01*
X119367621Y-57033682D01*
X119250000Y-57022097D01*
X118675000Y-57025000D01*
X118525000Y-57175000D01*
X118475000Y-57175000D01*
X118325000Y-57025000D01*
X118001936Y-57023369D01*
X118037830Y-56987475D01*
X118037834Y-56987470D01*
X120550305Y-54475000D01*
X122209392Y-54475000D01*
X122269279Y-54507010D01*
X122269279Y-54507010D01*
G37*
X122269279Y-54507010D02*
X122382379Y-54541318D01*
X122500000Y-54552903D01*
X123775001Y-54552903D01*
X123775000Y-56285109D01*
X123598491Y-56250000D01*
X123401509Y-56250000D01*
X123208311Y-56288429D01*
X123026322Y-56363811D01*
X122862537Y-56473249D01*
X122723249Y-56612537D01*
X122613811Y-56776322D01*
X122538429Y-56958311D01*
X122500000Y-57151509D01*
X122500000Y-57288466D01*
X122426317Y-57198683D01*
X122334955Y-57123704D01*
X122230721Y-57067990D01*
X122117621Y-57033682D01*
X122000000Y-57022097D01*
X121425000Y-57025000D01*
X121275000Y-57175000D01*
X121275000Y-57975000D01*
X122450000Y-57975000D01*
X122600000Y-57825000D01*
X122601888Y-57694894D01*
X122613811Y-57723678D01*
X122723249Y-57887463D01*
X122775000Y-57939214D01*
X122775000Y-58214402D01*
X122771494Y-58250000D01*
X122775000Y-58285597D01*
X122775000Y-58285606D01*
X122785491Y-58392124D01*
X122813625Y-58484869D01*
X122826947Y-58528787D01*
X122894269Y-58654736D01*
X122948825Y-58721212D01*
X122984868Y-58765131D01*
X123012524Y-58787828D01*
X123497080Y-59272385D01*
X123382379Y-59283682D01*
X123269279Y-59317990D01*
X123165045Y-59373704D01*
X123073683Y-59448683D01*
X122998704Y-59540045D01*
X122942990Y-59644279D01*
X122908682Y-59757379D01*
X122897097Y-59875000D01*
X122897097Y-60625000D01*
X122908682Y-60742621D01*
X122942990Y-60855721D01*
X122998704Y-60959955D01*
X123031568Y-61000000D01*
X122998704Y-61040045D01*
X122942990Y-61144279D01*
X122937542Y-61162238D01*
X122837830Y-61062526D01*
X122815132Y-61034868D01*
X122704737Y-60944269D01*
X122578788Y-60876947D01*
X122442125Y-60835491D01*
X122335607Y-60825000D01*
X122335597Y-60825000D01*
X122300000Y-60821494D01*
X122264403Y-60825000D01*
X121898352Y-60825000D01*
X121923053Y-60778788D01*
X121964509Y-60642125D01*
X121975000Y-60535607D01*
X121975000Y-60535598D01*
X121978506Y-60500001D01*
X121976330Y-60477903D01*
X122000000Y-60477903D01*
X122117621Y-60466318D01*
X122230721Y-60432010D01*
X122334955Y-60376296D01*
X122426317Y-60301317D01*
X122501296Y-60209955D01*
X122557010Y-60105721D01*
X122591318Y-59992621D01*
X122602903Y-59875000D01*
X122602903Y-59125000D01*
X122591318Y-59007379D01*
X122557010Y-58894279D01*
X122501296Y-58790045D01*
X122468432Y-58750000D01*
X122501296Y-58709955D01*
X122557010Y-58605721D01*
X122591318Y-58492621D01*
X122602903Y-58375000D01*
X122600000Y-58175000D01*
X122450000Y-58025000D01*
X121275000Y-58025000D01*
X121275000Y-58045000D01*
X121225000Y-58045000D01*
X121225000Y-58025000D01*
X120050000Y-58025000D01*
X119900000Y-58175000D01*
X119897097Y-58375000D01*
X119908682Y-58492621D01*
X119942990Y-58605721D01*
X119998704Y-58709955D01*
X120031568Y-58750000D01*
X119998704Y-58790045D01*
X119942990Y-58894279D01*
X119908682Y-59007379D01*
X119897097Y-59125000D01*
X119897097Y-59875000D01*
X119908682Y-59992621D01*
X119918504Y-60025000D01*
X119831496Y-60025000D01*
X119841318Y-59992621D01*
X119852903Y-59875000D01*
X119852903Y-59125000D01*
X119841318Y-59007379D01*
X119807010Y-58894279D01*
X119751296Y-58790045D01*
X119718432Y-58750000D01*
X119751296Y-58709955D01*
X119807010Y-58605721D01*
X119841318Y-58492621D01*
X119852903Y-58375000D01*
X119850000Y-58175000D01*
X119700000Y-58025000D01*
X118525000Y-58025000D01*
X118525000Y-58045000D01*
X118475000Y-58045000D01*
X118475000Y-58025000D01*
X118455000Y-58025000D01*
X118455000Y-57975000D01*
X118475000Y-57975000D01*
X118475000Y-57175000D01*
X118525000Y-57175000D01*
X118525000Y-57975000D01*
X119700000Y-57975000D01*
X119850000Y-57825000D01*
X119852903Y-57625000D01*
X119897097Y-57625000D01*
X119900000Y-57825000D01*
X120050000Y-57975000D01*
X121225000Y-57975000D01*
X121225000Y-57175000D01*
X121075000Y-57025000D01*
X120500000Y-57022097D01*
X120382379Y-57033682D01*
X120269279Y-57067990D01*
X120165045Y-57123704D01*
X120073683Y-57198683D01*
X119998704Y-57290045D01*
X119942990Y-57394279D01*
X119908682Y-57507379D01*
X119897097Y-57625000D01*
X119852903Y-57625000D01*
X119841318Y-57507379D01*
X119807010Y-57394279D01*
X119751296Y-57290045D01*
X119676317Y-57198683D01*
X119584955Y-57123704D01*
X119480721Y-57067990D01*
X119367621Y-57033682D01*
X119250000Y-57022097D01*
X118675000Y-57025000D01*
X118525000Y-57175000D01*
X118475000Y-57175000D01*
X118325000Y-57025000D01*
X118001936Y-57023369D01*
X118037830Y-56987475D01*
X118037834Y-56987470D01*
X120550305Y-54475000D01*
X122209392Y-54475000D01*
X122269279Y-54507010D01*
G36*
X118862531Y-47187824D02*
G01*
X118862536Y-47187828D01*
X120062184Y-48387477D01*
X120084880Y-48415132D01*
X120112535Y-48437828D01*
X120112537Y-48437830D01*
X120175501Y-48489503D01*
X120195275Y-48505731D01*
X120321224Y-48573053D01*
X120457887Y-48614509D01*
X120564405Y-48625000D01*
X120564414Y-48625000D01*
X120600011Y-48628506D01*
X120635608Y-48625000D01*
X121897097Y-48625000D01*
X121897097Y-48750000D01*
X121908682Y-48867621D01*
X121910920Y-48875000D01*
X121908682Y-48882379D01*
X121897097Y-49000000D01*
X121897097Y-49400000D01*
X121908682Y-49517621D01*
X121910920Y-49525000D01*
X121908682Y-49532379D01*
X121897097Y-49650000D01*
X121897097Y-50050000D01*
X121908682Y-50167621D01*
X121910920Y-50175000D01*
X121908682Y-50182379D01*
X121897097Y-50300000D01*
X121897097Y-50700000D01*
X121908682Y-50817621D01*
X121910920Y-50825000D01*
X121908682Y-50832379D01*
X121897097Y-50950000D01*
X121897097Y-51350000D01*
X121908682Y-51467621D01*
X121910920Y-51475000D01*
X121908682Y-51482379D01*
X121897097Y-51600000D01*
X121897097Y-52000000D01*
X121908682Y-52117621D01*
X121910920Y-52125000D01*
X121908682Y-52132379D01*
X121897097Y-52250000D01*
X121897097Y-52650000D01*
X121908682Y-52767621D01*
X121910920Y-52775000D01*
X121908682Y-52782379D01*
X121897097Y-52900000D01*
X121897097Y-53025000D01*
X120285596Y-53025000D01*
X120249999Y-53021494D01*
X120214402Y-53025000D01*
X120214393Y-53025000D01*
X120107875Y-53035491D01*
X119990118Y-53071212D01*
X119971212Y-53076947D01*
X119845263Y-53144269D01*
X119762525Y-53212170D01*
X119762523Y-53212172D01*
X119734868Y-53234868D01*
X119712172Y-53262523D01*
X117012530Y-55962166D01*
X117012525Y-55962170D01*
X117001233Y-55973462D01*
X116904737Y-55894269D01*
X116778788Y-55826947D01*
X116642125Y-55785491D01*
X116535607Y-55775000D01*
X116535597Y-55775000D01*
X116500000Y-55771494D01*
X116464403Y-55775000D01*
X116000304Y-55775000D01*
X116337482Y-55437823D01*
X116365131Y-55415132D01*
X116387823Y-55387482D01*
X116387830Y-55387475D01*
X116455731Y-55304737D01*
X116523053Y-55178788D01*
X116535477Y-55137830D01*
X116564509Y-55042125D01*
X116575000Y-54935607D01*
X116575000Y-54935598D01*
X116578506Y-54900001D01*
X116578219Y-54897085D01*
X116922402Y-54552903D01*
X118000000Y-54552903D01*
X118117621Y-54541318D01*
X118230721Y-54507010D01*
X118334955Y-54451296D01*
X118426317Y-54376317D01*
X118501296Y-54284955D01*
X118557010Y-54180721D01*
X118591318Y-54067621D01*
X118602903Y-53950000D01*
X118602903Y-53550000D01*
X118591318Y-53432379D01*
X118589080Y-53425000D01*
X118591318Y-53417621D01*
X118602903Y-53300000D01*
X118602903Y-52900000D01*
X118591318Y-52782379D01*
X118589080Y-52775000D01*
X118591318Y-52767621D01*
X118602903Y-52650000D01*
X118602903Y-52250000D01*
X118591318Y-52132379D01*
X118589080Y-52125000D01*
X118591318Y-52117621D01*
X118602903Y-52000000D01*
X118602903Y-51600000D01*
X118591318Y-51482379D01*
X118589080Y-51475000D01*
X118591318Y-51467621D01*
X118602903Y-51350000D01*
X118602903Y-50950000D01*
X118591318Y-50832379D01*
X118589080Y-50825000D01*
X118591318Y-50817621D01*
X118602903Y-50700000D01*
X118602903Y-50300000D01*
X118591318Y-50182379D01*
X118589080Y-50175000D01*
X118591318Y-50167621D01*
X118602903Y-50050000D01*
X118602903Y-49650000D01*
X118591318Y-49532379D01*
X118589080Y-49525000D01*
X118591318Y-49517621D01*
X118602903Y-49400000D01*
X118602903Y-49000000D01*
X118591318Y-48882379D01*
X118589080Y-48875000D01*
X118591318Y-48867621D01*
X118602903Y-48750000D01*
X118602903Y-48350000D01*
X118591318Y-48232379D01*
X118589080Y-48225000D01*
X118591318Y-48217621D01*
X118602903Y-48100000D01*
X118600000Y-48075000D01*
X118450000Y-47925000D01*
X118427398Y-47925000D01*
X118426317Y-47923683D01*
X118366997Y-47875000D01*
X118450000Y-47875000D01*
X118600000Y-47725000D01*
X118602903Y-47700000D01*
X118591318Y-47582379D01*
X118557010Y-47469279D01*
X118501296Y-47365045D01*
X118426317Y-47273683D01*
X118334955Y-47198704D01*
X118230721Y-47142990D01*
X118117621Y-47108682D01*
X118000000Y-47097097D01*
X117425000Y-47100000D01*
X117275000Y-47250000D01*
X117275000Y-47747097D01*
X117225000Y-47747097D01*
X117225000Y-47250000D01*
X117075000Y-47100000D01*
X116500000Y-47097097D01*
X116382379Y-47108682D01*
X116269279Y-47142990D01*
X116165045Y-47198704D01*
X116073683Y-47273683D01*
X116027844Y-47329538D01*
X115975216Y-47276910D01*
X115961571Y-47208311D01*
X115886189Y-47026322D01*
X115776751Y-46862537D01*
X115637463Y-46723249D01*
X115473678Y-46613811D01*
X115291689Y-46538429D01*
X115098491Y-46500000D01*
X115291689Y-46461571D01*
X115473678Y-46386189D01*
X115637463Y-46276751D01*
X115689214Y-46225000D01*
X117899708Y-46225000D01*
X118862531Y-47187824D01*
X118862531Y-47187824D01*
G37*
X118862531Y-47187824D02*
X118862536Y-47187828D01*
X120062184Y-48387477D01*
X120084880Y-48415132D01*
X120112535Y-48437828D01*
X120112537Y-48437830D01*
X120175501Y-48489503D01*
X120195275Y-48505731D01*
X120321224Y-48573053D01*
X120457887Y-48614509D01*
X120564405Y-48625000D01*
X120564414Y-48625000D01*
X120600011Y-48628506D01*
X120635608Y-48625000D01*
X121897097Y-48625000D01*
X121897097Y-48750000D01*
X121908682Y-48867621D01*
X121910920Y-48875000D01*
X121908682Y-48882379D01*
X121897097Y-49000000D01*
X121897097Y-49400000D01*
X121908682Y-49517621D01*
X121910920Y-49525000D01*
X121908682Y-49532379D01*
X121897097Y-49650000D01*
X121897097Y-50050000D01*
X121908682Y-50167621D01*
X121910920Y-50175000D01*
X121908682Y-50182379D01*
X121897097Y-50300000D01*
X121897097Y-50700000D01*
X121908682Y-50817621D01*
X121910920Y-50825000D01*
X121908682Y-50832379D01*
X121897097Y-50950000D01*
X121897097Y-51350000D01*
X121908682Y-51467621D01*
X121910920Y-51475000D01*
X121908682Y-51482379D01*
X121897097Y-51600000D01*
X121897097Y-52000000D01*
X121908682Y-52117621D01*
X121910920Y-52125000D01*
X121908682Y-52132379D01*
X121897097Y-52250000D01*
X121897097Y-52650000D01*
X121908682Y-52767621D01*
X121910920Y-52775000D01*
X121908682Y-52782379D01*
X121897097Y-52900000D01*
X121897097Y-53025000D01*
X120285596Y-53025000D01*
X120249999Y-53021494D01*
X120214402Y-53025000D01*
X120214393Y-53025000D01*
X120107875Y-53035491D01*
X119990118Y-53071212D01*
X119971212Y-53076947D01*
X119845263Y-53144269D01*
X119762525Y-53212170D01*
X119762523Y-53212172D01*
X119734868Y-53234868D01*
X119712172Y-53262523D01*
X117012530Y-55962166D01*
X117012525Y-55962170D01*
X117001233Y-55973462D01*
X116904737Y-55894269D01*
X116778788Y-55826947D01*
X116642125Y-55785491D01*
X116535607Y-55775000D01*
X116535597Y-55775000D01*
X116500000Y-55771494D01*
X116464403Y-55775000D01*
X116000304Y-55775000D01*
X116337482Y-55437823D01*
X116365131Y-55415132D01*
X116387823Y-55387482D01*
X116387830Y-55387475D01*
X116455731Y-55304737D01*
X116523053Y-55178788D01*
X116535477Y-55137830D01*
X116564509Y-55042125D01*
X116575000Y-54935607D01*
X116575000Y-54935598D01*
X116578506Y-54900001D01*
X116578219Y-54897085D01*
X116922402Y-54552903D01*
X118000000Y-54552903D01*
X118117621Y-54541318D01*
X118230721Y-54507010D01*
X118334955Y-54451296D01*
X118426317Y-54376317D01*
X118501296Y-54284955D01*
X118557010Y-54180721D01*
X118591318Y-54067621D01*
X118602903Y-53950000D01*
X118602903Y-53550000D01*
X118591318Y-53432379D01*
X118589080Y-53425000D01*
X118591318Y-53417621D01*
X118602903Y-53300000D01*
X118602903Y-52900000D01*
X118591318Y-52782379D01*
X118589080Y-52775000D01*
X118591318Y-52767621D01*
X118602903Y-52650000D01*
X118602903Y-52250000D01*
X118591318Y-52132379D01*
X118589080Y-52125000D01*
X118591318Y-52117621D01*
X118602903Y-52000000D01*
X118602903Y-51600000D01*
X118591318Y-51482379D01*
X118589080Y-51475000D01*
X118591318Y-51467621D01*
X118602903Y-51350000D01*
X118602903Y-50950000D01*
X118591318Y-50832379D01*
X118589080Y-50825000D01*
X118591318Y-50817621D01*
X118602903Y-50700000D01*
X118602903Y-50300000D01*
X118591318Y-50182379D01*
X118589080Y-50175000D01*
X118591318Y-50167621D01*
X118602903Y-50050000D01*
X118602903Y-49650000D01*
X118591318Y-49532379D01*
X118589080Y-49525000D01*
X118591318Y-49517621D01*
X118602903Y-49400000D01*
X118602903Y-49000000D01*
X118591318Y-48882379D01*
X118589080Y-48875000D01*
X118591318Y-48867621D01*
X118602903Y-48750000D01*
X118602903Y-48350000D01*
X118591318Y-48232379D01*
X118589080Y-48225000D01*
X118591318Y-48217621D01*
X118602903Y-48100000D01*
X118600000Y-48075000D01*
X118450000Y-47925000D01*
X118427398Y-47925000D01*
X118426317Y-47923683D01*
X118366997Y-47875000D01*
X118450000Y-47875000D01*
X118600000Y-47725000D01*
X118602903Y-47700000D01*
X118591318Y-47582379D01*
X118557010Y-47469279D01*
X118501296Y-47365045D01*
X118426317Y-47273683D01*
X118334955Y-47198704D01*
X118230721Y-47142990D01*
X118117621Y-47108682D01*
X118000000Y-47097097D01*
X117425000Y-47100000D01*
X117275000Y-47250000D01*
X117275000Y-47747097D01*
X117225000Y-47747097D01*
X117225000Y-47250000D01*
X117075000Y-47100000D01*
X116500000Y-47097097D01*
X116382379Y-47108682D01*
X116269279Y-47142990D01*
X116165045Y-47198704D01*
X116073683Y-47273683D01*
X116027844Y-47329538D01*
X115975216Y-47276910D01*
X115961571Y-47208311D01*
X115886189Y-47026322D01*
X115776751Y-46862537D01*
X115637463Y-46723249D01*
X115473678Y-46613811D01*
X115291689Y-46538429D01*
X115098491Y-46500000D01*
X115291689Y-46461571D01*
X115473678Y-46386189D01*
X115637463Y-46276751D01*
X115689214Y-46225000D01*
X117899708Y-46225000D01*
X118862531Y-47187824D01*
G36*
X133562184Y-48387477D02*
G01*
X133584880Y-48415132D01*
X133612535Y-48437828D01*
X133612537Y-48437830D01*
X133675501Y-48489503D01*
X133695275Y-48505731D01*
X133821224Y-48573053D01*
X133957887Y-48614509D01*
X134064405Y-48625000D01*
X134064414Y-48625000D01*
X134100011Y-48628506D01*
X134135608Y-48625000D01*
X135397097Y-48625000D01*
X135397097Y-48750000D01*
X135408682Y-48867621D01*
X135410920Y-48875000D01*
X135408682Y-48882379D01*
X135397097Y-49000000D01*
X135397097Y-49400000D01*
X135408682Y-49517621D01*
X135410920Y-49525000D01*
X135408682Y-49532379D01*
X135397097Y-49650000D01*
X135397097Y-50050000D01*
X135408682Y-50167621D01*
X135410920Y-50175000D01*
X135408682Y-50182379D01*
X135397097Y-50300000D01*
X135397097Y-50700000D01*
X135408682Y-50817621D01*
X135410920Y-50825000D01*
X135408682Y-50832379D01*
X135397097Y-50950000D01*
X135397097Y-51350000D01*
X135408682Y-51467621D01*
X135410920Y-51475000D01*
X135408682Y-51482379D01*
X135397097Y-51600000D01*
X135397097Y-52000000D01*
X135408682Y-52117621D01*
X135410920Y-52125000D01*
X135408682Y-52132379D01*
X135397097Y-52250000D01*
X135397097Y-52650000D01*
X135408682Y-52767621D01*
X135410920Y-52775000D01*
X135408682Y-52782379D01*
X135397097Y-52900000D01*
X135397097Y-53025000D01*
X134285596Y-53025000D01*
X134249999Y-53021494D01*
X134214402Y-53025000D01*
X134214393Y-53025000D01*
X134107875Y-53035491D01*
X133990118Y-53071212D01*
X133971212Y-53076947D01*
X133845263Y-53144269D01*
X133762525Y-53212170D01*
X133762523Y-53212172D01*
X133734868Y-53234868D01*
X133712172Y-53262523D01*
X131199696Y-55775000D01*
X129500304Y-55775000D01*
X129837482Y-55437823D01*
X129865131Y-55415132D01*
X129887823Y-55387482D01*
X129887830Y-55387475D01*
X129955731Y-55304737D01*
X130023053Y-55178788D01*
X130035477Y-55137830D01*
X130064509Y-55042125D01*
X130075000Y-54935607D01*
X130075000Y-54935598D01*
X130078506Y-54900001D01*
X130078219Y-54897085D01*
X130422402Y-54552903D01*
X131500000Y-54552903D01*
X131617621Y-54541318D01*
X131730721Y-54507010D01*
X131834955Y-54451296D01*
X131926317Y-54376317D01*
X132001296Y-54284955D01*
X132057010Y-54180721D01*
X132091318Y-54067621D01*
X132102903Y-53950000D01*
X132102903Y-53550000D01*
X132091318Y-53432379D01*
X132089080Y-53425000D01*
X132091318Y-53417621D01*
X132102903Y-53300000D01*
X132102903Y-52900000D01*
X132091318Y-52782379D01*
X132089080Y-52775000D01*
X132091318Y-52767621D01*
X132102903Y-52650000D01*
X132102903Y-52250000D01*
X132091318Y-52132379D01*
X132089080Y-52125000D01*
X132091318Y-52117621D01*
X132102903Y-52000000D01*
X132102903Y-51600000D01*
X132091318Y-51482379D01*
X132089080Y-51475000D01*
X132091318Y-51467621D01*
X132102903Y-51350000D01*
X132102903Y-50950000D01*
X132091318Y-50832379D01*
X132089080Y-50825000D01*
X132091318Y-50817621D01*
X132102903Y-50700000D01*
X132102903Y-50300000D01*
X132091318Y-50182379D01*
X132089080Y-50175000D01*
X132091318Y-50167621D01*
X132102903Y-50050000D01*
X132102903Y-49650000D01*
X132091318Y-49532379D01*
X132089080Y-49525000D01*
X132091318Y-49517621D01*
X132102903Y-49400000D01*
X132102903Y-49000000D01*
X132091318Y-48882379D01*
X132089080Y-48875000D01*
X132091318Y-48867621D01*
X132102903Y-48750000D01*
X132102903Y-48350000D01*
X132091318Y-48232379D01*
X132089080Y-48225000D01*
X132091318Y-48217621D01*
X132102903Y-48100000D01*
X132100000Y-48075000D01*
X131950000Y-47925000D01*
X131927398Y-47925000D01*
X131926317Y-47923683D01*
X131866997Y-47875000D01*
X131950000Y-47875000D01*
X132100000Y-47725000D01*
X132102903Y-47700000D01*
X132091318Y-47582379D01*
X132057010Y-47469279D01*
X132001296Y-47365045D01*
X131926317Y-47273683D01*
X131834955Y-47198704D01*
X131730721Y-47142990D01*
X131617621Y-47108682D01*
X131500000Y-47097097D01*
X130925000Y-47100000D01*
X130775000Y-47250000D01*
X130775000Y-47747097D01*
X130725000Y-47747097D01*
X130725000Y-47250000D01*
X130575000Y-47100000D01*
X130000000Y-47097097D01*
X129882379Y-47108682D01*
X129769279Y-47142990D01*
X129665045Y-47198704D01*
X129573683Y-47273683D01*
X129527844Y-47329538D01*
X129475216Y-47276910D01*
X129461571Y-47208311D01*
X129386189Y-47026322D01*
X129276751Y-46862537D01*
X129137463Y-46723249D01*
X128973678Y-46613811D01*
X128791689Y-46538429D01*
X128598491Y-46500000D01*
X128401509Y-46500000D01*
X128225000Y-46535109D01*
X128225000Y-46189214D01*
X128276751Y-46137463D01*
X128386189Y-45973678D01*
X128461571Y-45791689D01*
X128500000Y-45598491D01*
X128500000Y-45401509D01*
X128464891Y-45225000D01*
X130399708Y-45225000D01*
X133562184Y-48387477D01*
X133562184Y-48387477D01*
G37*
X133562184Y-48387477D02*
X133584880Y-48415132D01*
X133612535Y-48437828D01*
X133612537Y-48437830D01*
X133675501Y-48489503D01*
X133695275Y-48505731D01*
X133821224Y-48573053D01*
X133957887Y-48614509D01*
X134064405Y-48625000D01*
X134064414Y-48625000D01*
X134100011Y-48628506D01*
X134135608Y-48625000D01*
X135397097Y-48625000D01*
X135397097Y-48750000D01*
X135408682Y-48867621D01*
X135410920Y-48875000D01*
X135408682Y-48882379D01*
X135397097Y-49000000D01*
X135397097Y-49400000D01*
X135408682Y-49517621D01*
X135410920Y-49525000D01*
X135408682Y-49532379D01*
X135397097Y-49650000D01*
X135397097Y-50050000D01*
X135408682Y-50167621D01*
X135410920Y-50175000D01*
X135408682Y-50182379D01*
X135397097Y-50300000D01*
X135397097Y-50700000D01*
X135408682Y-50817621D01*
X135410920Y-50825000D01*
X135408682Y-50832379D01*
X135397097Y-50950000D01*
X135397097Y-51350000D01*
X135408682Y-51467621D01*
X135410920Y-51475000D01*
X135408682Y-51482379D01*
X135397097Y-51600000D01*
X135397097Y-52000000D01*
X135408682Y-52117621D01*
X135410920Y-52125000D01*
X135408682Y-52132379D01*
X135397097Y-52250000D01*
X135397097Y-52650000D01*
X135408682Y-52767621D01*
X135410920Y-52775000D01*
X135408682Y-52782379D01*
X135397097Y-52900000D01*
X135397097Y-53025000D01*
X134285596Y-53025000D01*
X134249999Y-53021494D01*
X134214402Y-53025000D01*
X134214393Y-53025000D01*
X134107875Y-53035491D01*
X133990118Y-53071212D01*
X133971212Y-53076947D01*
X133845263Y-53144269D01*
X133762525Y-53212170D01*
X133762523Y-53212172D01*
X133734868Y-53234868D01*
X133712172Y-53262523D01*
X131199696Y-55775000D01*
X129500304Y-55775000D01*
X129837482Y-55437823D01*
X129865131Y-55415132D01*
X129887823Y-55387482D01*
X129887830Y-55387475D01*
X129955731Y-55304737D01*
X130023053Y-55178788D01*
X130035477Y-55137830D01*
X130064509Y-55042125D01*
X130075000Y-54935607D01*
X130075000Y-54935598D01*
X130078506Y-54900001D01*
X130078219Y-54897085D01*
X130422402Y-54552903D01*
X131500000Y-54552903D01*
X131617621Y-54541318D01*
X131730721Y-54507010D01*
X131834955Y-54451296D01*
X131926317Y-54376317D01*
X132001296Y-54284955D01*
X132057010Y-54180721D01*
X132091318Y-54067621D01*
X132102903Y-53950000D01*
X132102903Y-53550000D01*
X132091318Y-53432379D01*
X132089080Y-53425000D01*
X132091318Y-53417621D01*
X132102903Y-53300000D01*
X132102903Y-52900000D01*
X132091318Y-52782379D01*
X132089080Y-52775000D01*
X132091318Y-52767621D01*
X132102903Y-52650000D01*
X132102903Y-52250000D01*
X132091318Y-52132379D01*
X132089080Y-52125000D01*
X132091318Y-52117621D01*
X132102903Y-52000000D01*
X132102903Y-51600000D01*
X132091318Y-51482379D01*
X132089080Y-51475000D01*
X132091318Y-51467621D01*
X132102903Y-51350000D01*
X132102903Y-50950000D01*
X132091318Y-50832379D01*
X132089080Y-50825000D01*
X132091318Y-50817621D01*
X132102903Y-50700000D01*
X132102903Y-50300000D01*
X132091318Y-50182379D01*
X132089080Y-50175000D01*
X132091318Y-50167621D01*
X132102903Y-50050000D01*
X132102903Y-49650000D01*
X132091318Y-49532379D01*
X132089080Y-49525000D01*
X132091318Y-49517621D01*
X132102903Y-49400000D01*
X132102903Y-49000000D01*
X132091318Y-48882379D01*
X132089080Y-48875000D01*
X132091318Y-48867621D01*
X132102903Y-48750000D01*
X132102903Y-48350000D01*
X132091318Y-48232379D01*
X132089080Y-48225000D01*
X132091318Y-48217621D01*
X132102903Y-48100000D01*
X132100000Y-48075000D01*
X131950000Y-47925000D01*
X131927398Y-47925000D01*
X131926317Y-47923683D01*
X131866997Y-47875000D01*
X131950000Y-47875000D01*
X132100000Y-47725000D01*
X132102903Y-47700000D01*
X132091318Y-47582379D01*
X132057010Y-47469279D01*
X132001296Y-47365045D01*
X131926317Y-47273683D01*
X131834955Y-47198704D01*
X131730721Y-47142990D01*
X131617621Y-47108682D01*
X131500000Y-47097097D01*
X130925000Y-47100000D01*
X130775000Y-47250000D01*
X130775000Y-47747097D01*
X130725000Y-47747097D01*
X130725000Y-47250000D01*
X130575000Y-47100000D01*
X130000000Y-47097097D01*
X129882379Y-47108682D01*
X129769279Y-47142990D01*
X129665045Y-47198704D01*
X129573683Y-47273683D01*
X129527844Y-47329538D01*
X129475216Y-47276910D01*
X129461571Y-47208311D01*
X129386189Y-47026322D01*
X129276751Y-46862537D01*
X129137463Y-46723249D01*
X128973678Y-46613811D01*
X128791689Y-46538429D01*
X128598491Y-46500000D01*
X128401509Y-46500000D01*
X128225000Y-46535109D01*
X128225000Y-46189214D01*
X128276751Y-46137463D01*
X128386189Y-45973678D01*
X128461571Y-45791689D01*
X128500000Y-45598491D01*
X128500000Y-45401509D01*
X128464891Y-45225000D01*
X130399708Y-45225000D01*
X133562184Y-48387477D01*
G36*
X145987531Y-47312824D02*
G01*
X145987536Y-47312828D01*
X146987531Y-48312824D01*
X146987537Y-48312829D01*
X147062180Y-48387472D01*
X147084880Y-48415132D01*
X147195275Y-48505731D01*
X147321224Y-48573053D01*
X147457887Y-48614509D01*
X147564405Y-48625000D01*
X147564414Y-48625000D01*
X147600011Y-48628506D01*
X147635608Y-48625000D01*
X149147097Y-48625000D01*
X149147097Y-48750000D01*
X149158682Y-48867621D01*
X149160920Y-48875000D01*
X149158682Y-48882379D01*
X149147097Y-49000000D01*
X149147097Y-49400000D01*
X149158682Y-49517621D01*
X149160920Y-49525000D01*
X149158682Y-49532379D01*
X149147097Y-49650000D01*
X149147097Y-50050000D01*
X149158682Y-50167621D01*
X149160920Y-50175000D01*
X149158682Y-50182379D01*
X149147097Y-50300000D01*
X149147097Y-50700000D01*
X149158682Y-50817621D01*
X149160920Y-50825000D01*
X149158682Y-50832379D01*
X149147097Y-50950000D01*
X149147097Y-51350000D01*
X149158682Y-51467621D01*
X149160920Y-51475000D01*
X149158682Y-51482379D01*
X149147097Y-51600000D01*
X149147097Y-52000000D01*
X149158682Y-52117621D01*
X149160920Y-52125000D01*
X149158682Y-52132379D01*
X149147097Y-52250000D01*
X149147097Y-52650000D01*
X149158682Y-52767621D01*
X149160920Y-52775000D01*
X149158682Y-52782379D01*
X149147097Y-52900000D01*
X149147097Y-53025000D01*
X147785596Y-53025000D01*
X147749999Y-53021494D01*
X147714402Y-53025000D01*
X147714393Y-53025000D01*
X147607875Y-53035491D01*
X147490118Y-53071212D01*
X147471212Y-53076947D01*
X147345263Y-53144269D01*
X147262525Y-53212170D01*
X147262523Y-53212172D01*
X147234868Y-53234868D01*
X147212172Y-53262523D01*
X144699696Y-55775000D01*
X143000304Y-55775000D01*
X143337482Y-55437823D01*
X143365131Y-55415132D01*
X143387823Y-55387482D01*
X143387830Y-55387475D01*
X143455731Y-55304737D01*
X143523053Y-55178788D01*
X143535477Y-55137830D01*
X143564509Y-55042125D01*
X143575000Y-54935607D01*
X143575000Y-54935598D01*
X143578506Y-54900001D01*
X143578219Y-54897085D01*
X143922402Y-54552903D01*
X145250000Y-54552903D01*
X145367621Y-54541318D01*
X145480721Y-54507010D01*
X145584955Y-54451296D01*
X145676317Y-54376317D01*
X145751296Y-54284955D01*
X145807010Y-54180721D01*
X145841318Y-54067621D01*
X145852903Y-53950000D01*
X145852903Y-53550000D01*
X145841318Y-53432379D01*
X145839080Y-53425000D01*
X145841318Y-53417621D01*
X145852903Y-53300000D01*
X145852903Y-52900000D01*
X145841318Y-52782379D01*
X145839080Y-52775000D01*
X145841318Y-52767621D01*
X145852903Y-52650000D01*
X145852903Y-52250000D01*
X145841318Y-52132379D01*
X145839080Y-52125000D01*
X145841318Y-52117621D01*
X145852903Y-52000000D01*
X145852903Y-51600000D01*
X145841318Y-51482379D01*
X145839080Y-51475000D01*
X145841318Y-51467621D01*
X145852903Y-51350000D01*
X145852903Y-50950000D01*
X145841318Y-50832379D01*
X145839080Y-50825000D01*
X145841318Y-50817621D01*
X145852903Y-50700000D01*
X145852903Y-50300000D01*
X145841318Y-50182379D01*
X145839080Y-50175000D01*
X145841318Y-50167621D01*
X145852903Y-50050000D01*
X145852903Y-49650000D01*
X145841318Y-49532379D01*
X145839080Y-49525000D01*
X145841318Y-49517621D01*
X145852903Y-49400000D01*
X145852903Y-49000000D01*
X145841318Y-48882379D01*
X145839080Y-48875000D01*
X145841318Y-48867621D01*
X145852903Y-48750000D01*
X145852903Y-48350000D01*
X145841318Y-48232379D01*
X145839080Y-48225000D01*
X145841318Y-48217621D01*
X145852903Y-48100000D01*
X145850000Y-48075000D01*
X145700000Y-47925000D01*
X145677398Y-47925000D01*
X145676317Y-47923683D01*
X145616997Y-47875000D01*
X145700000Y-47875000D01*
X145850000Y-47725000D01*
X145852903Y-47700000D01*
X145841318Y-47582379D01*
X145807010Y-47469279D01*
X145751296Y-47365045D01*
X145676317Y-47273683D01*
X145584955Y-47198704D01*
X145480721Y-47142990D01*
X145367621Y-47108682D01*
X145250000Y-47097097D01*
X144675000Y-47100000D01*
X144525000Y-47250000D01*
X144525000Y-47747097D01*
X144475000Y-47747097D01*
X144475000Y-47250000D01*
X144325000Y-47100000D01*
X143750000Y-47097097D01*
X143632379Y-47108682D01*
X143519279Y-47142990D01*
X143415045Y-47198704D01*
X143323683Y-47273683D01*
X143248704Y-47365045D01*
X143192990Y-47469279D01*
X143187077Y-47488771D01*
X142975216Y-47276910D01*
X142961571Y-47208311D01*
X142886189Y-47026322D01*
X142776751Y-46862537D01*
X142637463Y-46723249D01*
X142473678Y-46613811D01*
X142291689Y-46538429D01*
X142098491Y-46500000D01*
X141901509Y-46500000D01*
X141725000Y-46535109D01*
X141725000Y-46189214D01*
X141776751Y-46137463D01*
X141886189Y-45973678D01*
X141961571Y-45791689D01*
X142000000Y-45598491D01*
X142000000Y-45401509D01*
X141961571Y-45208311D01*
X141886189Y-45026322D01*
X141776751Y-44862537D01*
X141639214Y-44725000D01*
X143399708Y-44725000D01*
X145987531Y-47312824D01*
X145987531Y-47312824D01*
G37*
X145987531Y-47312824D02*
X145987536Y-47312828D01*
X146987531Y-48312824D01*
X146987537Y-48312829D01*
X147062180Y-48387472D01*
X147084880Y-48415132D01*
X147195275Y-48505731D01*
X147321224Y-48573053D01*
X147457887Y-48614509D01*
X147564405Y-48625000D01*
X147564414Y-48625000D01*
X147600011Y-48628506D01*
X147635608Y-48625000D01*
X149147097Y-48625000D01*
X149147097Y-48750000D01*
X149158682Y-48867621D01*
X149160920Y-48875000D01*
X149158682Y-48882379D01*
X149147097Y-49000000D01*
X149147097Y-49400000D01*
X149158682Y-49517621D01*
X149160920Y-49525000D01*
X149158682Y-49532379D01*
X149147097Y-49650000D01*
X149147097Y-50050000D01*
X149158682Y-50167621D01*
X149160920Y-50175000D01*
X149158682Y-50182379D01*
X149147097Y-50300000D01*
X149147097Y-50700000D01*
X149158682Y-50817621D01*
X149160920Y-50825000D01*
X149158682Y-50832379D01*
X149147097Y-50950000D01*
X149147097Y-51350000D01*
X149158682Y-51467621D01*
X149160920Y-51475000D01*
X149158682Y-51482379D01*
X149147097Y-51600000D01*
X149147097Y-52000000D01*
X149158682Y-52117621D01*
X149160920Y-52125000D01*
X149158682Y-52132379D01*
X149147097Y-52250000D01*
X149147097Y-52650000D01*
X149158682Y-52767621D01*
X149160920Y-52775000D01*
X149158682Y-52782379D01*
X149147097Y-52900000D01*
X149147097Y-53025000D01*
X147785596Y-53025000D01*
X147749999Y-53021494D01*
X147714402Y-53025000D01*
X147714393Y-53025000D01*
X147607875Y-53035491D01*
X147490118Y-53071212D01*
X147471212Y-53076947D01*
X147345263Y-53144269D01*
X147262525Y-53212170D01*
X147262523Y-53212172D01*
X147234868Y-53234868D01*
X147212172Y-53262523D01*
X144699696Y-55775000D01*
X143000304Y-55775000D01*
X143337482Y-55437823D01*
X143365131Y-55415132D01*
X143387823Y-55387482D01*
X143387830Y-55387475D01*
X143455731Y-55304737D01*
X143523053Y-55178788D01*
X143535477Y-55137830D01*
X143564509Y-55042125D01*
X143575000Y-54935607D01*
X143575000Y-54935598D01*
X143578506Y-54900001D01*
X143578219Y-54897085D01*
X143922402Y-54552903D01*
X145250000Y-54552903D01*
X145367621Y-54541318D01*
X145480721Y-54507010D01*
X145584955Y-54451296D01*
X145676317Y-54376317D01*
X145751296Y-54284955D01*
X145807010Y-54180721D01*
X145841318Y-54067621D01*
X145852903Y-53950000D01*
X145852903Y-53550000D01*
X145841318Y-53432379D01*
X145839080Y-53425000D01*
X145841318Y-53417621D01*
X145852903Y-53300000D01*
X145852903Y-52900000D01*
X145841318Y-52782379D01*
X145839080Y-52775000D01*
X145841318Y-52767621D01*
X145852903Y-52650000D01*
X145852903Y-52250000D01*
X145841318Y-52132379D01*
X145839080Y-52125000D01*
X145841318Y-52117621D01*
X145852903Y-52000000D01*
X145852903Y-51600000D01*
X145841318Y-51482379D01*
X145839080Y-51475000D01*
X145841318Y-51467621D01*
X145852903Y-51350000D01*
X145852903Y-50950000D01*
X145841318Y-50832379D01*
X145839080Y-50825000D01*
X145841318Y-50817621D01*
X145852903Y-50700000D01*
X145852903Y-50300000D01*
X145841318Y-50182379D01*
X145839080Y-50175000D01*
X145841318Y-50167621D01*
X145852903Y-50050000D01*
X145852903Y-49650000D01*
X145841318Y-49532379D01*
X145839080Y-49525000D01*
X145841318Y-49517621D01*
X145852903Y-49400000D01*
X145852903Y-49000000D01*
X145841318Y-48882379D01*
X145839080Y-48875000D01*
X145841318Y-48867621D01*
X145852903Y-48750000D01*
X145852903Y-48350000D01*
X145841318Y-48232379D01*
X145839080Y-48225000D01*
X145841318Y-48217621D01*
X145852903Y-48100000D01*
X145850000Y-48075000D01*
X145700000Y-47925000D01*
X145677398Y-47925000D01*
X145676317Y-47923683D01*
X145616997Y-47875000D01*
X145700000Y-47875000D01*
X145850000Y-47725000D01*
X145852903Y-47700000D01*
X145841318Y-47582379D01*
X145807010Y-47469279D01*
X145751296Y-47365045D01*
X145676317Y-47273683D01*
X145584955Y-47198704D01*
X145480721Y-47142990D01*
X145367621Y-47108682D01*
X145250000Y-47097097D01*
X144675000Y-47100000D01*
X144525000Y-47250000D01*
X144525000Y-47747097D01*
X144475000Y-47747097D01*
X144475000Y-47250000D01*
X144325000Y-47100000D01*
X143750000Y-47097097D01*
X143632379Y-47108682D01*
X143519279Y-47142990D01*
X143415045Y-47198704D01*
X143323683Y-47273683D01*
X143248704Y-47365045D01*
X143192990Y-47469279D01*
X143187077Y-47488771D01*
X142975216Y-47276910D01*
X142961571Y-47208311D01*
X142886189Y-47026322D01*
X142776751Y-46862537D01*
X142637463Y-46723249D01*
X142473678Y-46613811D01*
X142291689Y-46538429D01*
X142098491Y-46500000D01*
X141901509Y-46500000D01*
X141725000Y-46535109D01*
X141725000Y-46189214D01*
X141776751Y-46137463D01*
X141886189Y-45973678D01*
X141961571Y-45791689D01*
X142000000Y-45598491D01*
X142000000Y-45401509D01*
X141961571Y-45208311D01*
X141886189Y-45026322D01*
X141776751Y-44862537D01*
X141639214Y-44725000D01*
X143399708Y-44725000D01*
X145987531Y-47312824D01*
G36*
X159203911Y-46979216D02*
G01*
X159244275Y-47054731D01*
X159334875Y-47165126D01*
X159362529Y-47187821D01*
X160562184Y-48387477D01*
X160584880Y-48415132D01*
X160612535Y-48437828D01*
X160612537Y-48437830D01*
X160675501Y-48489503D01*
X160695275Y-48505731D01*
X160821224Y-48573053D01*
X160957887Y-48614509D01*
X161064405Y-48625000D01*
X161064414Y-48625000D01*
X161100011Y-48628506D01*
X161135608Y-48625000D01*
X162647097Y-48625000D01*
X162647097Y-48750000D01*
X162658682Y-48867621D01*
X162660920Y-48875000D01*
X162658682Y-48882379D01*
X162647097Y-49000000D01*
X162647097Y-49400000D01*
X162658682Y-49517621D01*
X162660920Y-49525000D01*
X162658682Y-49532379D01*
X162647097Y-49650000D01*
X162647097Y-50050000D01*
X162658682Y-50167621D01*
X162660920Y-50175000D01*
X162658682Y-50182379D01*
X162647097Y-50300000D01*
X162647097Y-50700000D01*
X162658682Y-50817621D01*
X162660920Y-50825000D01*
X162658682Y-50832379D01*
X162647097Y-50950000D01*
X162647097Y-51350000D01*
X162658682Y-51467621D01*
X162660920Y-51475000D01*
X162658682Y-51482379D01*
X162647097Y-51600000D01*
X162647097Y-52000000D01*
X162658682Y-52117621D01*
X162660920Y-52125000D01*
X162658682Y-52132379D01*
X162647097Y-52250000D01*
X162647097Y-52650000D01*
X162658682Y-52767621D01*
X162660920Y-52775000D01*
X162658682Y-52782379D01*
X162647097Y-52900000D01*
X162647097Y-53025000D01*
X161285596Y-53025000D01*
X161249999Y-53021494D01*
X161214402Y-53025000D01*
X161214393Y-53025000D01*
X161107875Y-53035491D01*
X160990118Y-53071212D01*
X160971212Y-53076947D01*
X160845263Y-53144269D01*
X160762525Y-53212170D01*
X160762523Y-53212172D01*
X160734868Y-53234868D01*
X160712172Y-53262523D01*
X158199696Y-55775000D01*
X156500304Y-55775000D01*
X156837482Y-55437823D01*
X156865131Y-55415132D01*
X156887823Y-55387482D01*
X156887830Y-55387475D01*
X156955731Y-55304737D01*
X157023053Y-55178788D01*
X157035477Y-55137830D01*
X157064509Y-55042125D01*
X157075000Y-54935607D01*
X157075000Y-54935598D01*
X157078506Y-54900001D01*
X157078219Y-54897085D01*
X157422402Y-54552903D01*
X158750000Y-54552903D01*
X158867621Y-54541318D01*
X158980721Y-54507010D01*
X159084955Y-54451296D01*
X159176317Y-54376317D01*
X159251296Y-54284955D01*
X159307010Y-54180721D01*
X159341318Y-54067621D01*
X159352903Y-53950000D01*
X159352903Y-53550000D01*
X159341318Y-53432379D01*
X159339080Y-53425000D01*
X159341318Y-53417621D01*
X159352903Y-53300000D01*
X159352903Y-52900000D01*
X159341318Y-52782379D01*
X159339080Y-52775000D01*
X159341318Y-52767621D01*
X159352903Y-52650000D01*
X159352903Y-52250000D01*
X159341318Y-52132379D01*
X159339080Y-52125000D01*
X159341318Y-52117621D01*
X159352903Y-52000000D01*
X159352903Y-51600000D01*
X159341318Y-51482379D01*
X159339080Y-51475000D01*
X159341318Y-51467621D01*
X159352903Y-51350000D01*
X159352903Y-50950000D01*
X159341318Y-50832379D01*
X159339080Y-50825000D01*
X159341318Y-50817621D01*
X159352903Y-50700000D01*
X159352903Y-50300000D01*
X159341318Y-50182379D01*
X159339080Y-50175000D01*
X159341318Y-50167621D01*
X159352903Y-50050000D01*
X159352903Y-49650000D01*
X159341318Y-49532379D01*
X159339080Y-49525000D01*
X159341318Y-49517621D01*
X159352903Y-49400000D01*
X159352903Y-49000000D01*
X159341318Y-48882379D01*
X159339080Y-48875000D01*
X159341318Y-48867621D01*
X159352903Y-48750000D01*
X159352903Y-48350000D01*
X159341318Y-48232379D01*
X159339080Y-48225000D01*
X159341318Y-48217621D01*
X159352903Y-48100000D01*
X159350000Y-48075000D01*
X159200000Y-47925000D01*
X159177398Y-47925000D01*
X159176317Y-47923683D01*
X159116997Y-47875000D01*
X159200000Y-47875000D01*
X159350000Y-47725000D01*
X159352903Y-47700000D01*
X159341318Y-47582379D01*
X159307010Y-47469279D01*
X159251296Y-47365045D01*
X159176317Y-47273683D01*
X159084955Y-47198704D01*
X158980721Y-47142990D01*
X158867621Y-47108682D01*
X158750000Y-47097097D01*
X158175000Y-47100000D01*
X158025000Y-47250000D01*
X158025000Y-47747097D01*
X157975000Y-47747097D01*
X157975000Y-47250000D01*
X157825000Y-47100000D01*
X157250000Y-47097097D01*
X157132379Y-47108682D01*
X157019279Y-47142990D01*
X156915045Y-47198704D01*
X156823683Y-47273683D01*
X156748704Y-47365045D01*
X156692990Y-47469279D01*
X156687077Y-47488771D01*
X156475216Y-47276910D01*
X156461571Y-47208311D01*
X156386189Y-47026322D01*
X156276751Y-46862537D01*
X156137463Y-46723249D01*
X155973678Y-46613811D01*
X155791689Y-46538429D01*
X155598491Y-46500000D01*
X155401509Y-46500000D01*
X155225000Y-46535109D01*
X155225000Y-46189214D01*
X155276751Y-46137463D01*
X155386189Y-45973678D01*
X155461571Y-45791689D01*
X155500000Y-45598491D01*
X155500000Y-45401509D01*
X155461571Y-45208311D01*
X155386189Y-45026322D01*
X155276751Y-44862537D01*
X155137463Y-44723249D01*
X154973678Y-44613811D01*
X154791689Y-44538429D01*
X154598491Y-44500000D01*
X154401509Y-44500000D01*
X154208311Y-44538429D01*
X154026322Y-44613811D01*
X154000000Y-44631399D01*
X153973678Y-44613811D01*
X153791689Y-44538429D01*
X153598491Y-44500000D01*
X153401509Y-44500000D01*
X153208311Y-44538429D01*
X153026322Y-44613811D01*
X153000000Y-44631399D01*
X152973678Y-44613811D01*
X152791689Y-44538429D01*
X152598491Y-44500000D01*
X152401509Y-44500000D01*
X152208311Y-44538429D01*
X152026322Y-44613811D01*
X152000000Y-44631399D01*
X151973678Y-44613811D01*
X151791689Y-44538429D01*
X151598491Y-44500000D01*
X151401509Y-44500000D01*
X151208311Y-44538429D01*
X151026322Y-44613811D01*
X150862537Y-44723249D01*
X150723249Y-44862537D01*
X150613811Y-45026322D01*
X150538429Y-45208311D01*
X150500000Y-45401509D01*
X150500000Y-45598491D01*
X150538429Y-45791689D01*
X150613811Y-45973678D01*
X150723249Y-46137463D01*
X150784606Y-46198820D01*
X150785491Y-46207810D01*
X150826947Y-46344473D01*
X150841237Y-46371207D01*
X150894270Y-46470423D01*
X150962171Y-46553160D01*
X150984869Y-46580817D01*
X150992158Y-46586799D01*
X150992158Y-47097097D01*
X149750000Y-47097097D01*
X149632379Y-47108682D01*
X149519279Y-47142990D01*
X149459392Y-47175000D01*
X147900317Y-47175000D01*
X147012840Y-46287524D01*
X147012836Y-46287519D01*
X144950316Y-44225000D01*
X156449696Y-44225000D01*
X159203911Y-46979216D01*
X159203911Y-46979216D01*
G37*
X159203911Y-46979216D02*
X159244275Y-47054731D01*
X159334875Y-47165126D01*
X159362529Y-47187821D01*
X160562184Y-48387477D01*
X160584880Y-48415132D01*
X160612535Y-48437828D01*
X160612537Y-48437830D01*
X160675501Y-48489503D01*
X160695275Y-48505731D01*
X160821224Y-48573053D01*
X160957887Y-48614509D01*
X161064405Y-48625000D01*
X161064414Y-48625000D01*
X161100011Y-48628506D01*
X161135608Y-48625000D01*
X162647097Y-48625000D01*
X162647097Y-48750000D01*
X162658682Y-48867621D01*
X162660920Y-48875000D01*
X162658682Y-48882379D01*
X162647097Y-49000000D01*
X162647097Y-49400000D01*
X162658682Y-49517621D01*
X162660920Y-49525000D01*
X162658682Y-49532379D01*
X162647097Y-49650000D01*
X162647097Y-50050000D01*
X162658682Y-50167621D01*
X162660920Y-50175000D01*
X162658682Y-50182379D01*
X162647097Y-50300000D01*
X162647097Y-50700000D01*
X162658682Y-50817621D01*
X162660920Y-50825000D01*
X162658682Y-50832379D01*
X162647097Y-50950000D01*
X162647097Y-51350000D01*
X162658682Y-51467621D01*
X162660920Y-51475000D01*
X162658682Y-51482379D01*
X162647097Y-51600000D01*
X162647097Y-52000000D01*
X162658682Y-52117621D01*
X162660920Y-52125000D01*
X162658682Y-52132379D01*
X162647097Y-52250000D01*
X162647097Y-52650000D01*
X162658682Y-52767621D01*
X162660920Y-52775000D01*
X162658682Y-52782379D01*
X162647097Y-52900000D01*
X162647097Y-53025000D01*
X161285596Y-53025000D01*
X161249999Y-53021494D01*
X161214402Y-53025000D01*
X161214393Y-53025000D01*
X161107875Y-53035491D01*
X160990118Y-53071212D01*
X160971212Y-53076947D01*
X160845263Y-53144269D01*
X160762525Y-53212170D01*
X160762523Y-53212172D01*
X160734868Y-53234868D01*
X160712172Y-53262523D01*
X158199696Y-55775000D01*
X156500304Y-55775000D01*
X156837482Y-55437823D01*
X156865131Y-55415132D01*
X156887823Y-55387482D01*
X156887830Y-55387475D01*
X156955731Y-55304737D01*
X157023053Y-55178788D01*
X157035477Y-55137830D01*
X157064509Y-55042125D01*
X157075000Y-54935607D01*
X157075000Y-54935598D01*
X157078506Y-54900001D01*
X157078219Y-54897085D01*
X157422402Y-54552903D01*
X158750000Y-54552903D01*
X158867621Y-54541318D01*
X158980721Y-54507010D01*
X159084955Y-54451296D01*
X159176317Y-54376317D01*
X159251296Y-54284955D01*
X159307010Y-54180721D01*
X159341318Y-54067621D01*
X159352903Y-53950000D01*
X159352903Y-53550000D01*
X159341318Y-53432379D01*
X159339080Y-53425000D01*
X159341318Y-53417621D01*
X159352903Y-53300000D01*
X159352903Y-52900000D01*
X159341318Y-52782379D01*
X159339080Y-52775000D01*
X159341318Y-52767621D01*
X159352903Y-52650000D01*
X159352903Y-52250000D01*
X159341318Y-52132379D01*
X159339080Y-52125000D01*
X159341318Y-52117621D01*
X159352903Y-52000000D01*
X159352903Y-51600000D01*
X159341318Y-51482379D01*
X159339080Y-51475000D01*
X159341318Y-51467621D01*
X159352903Y-51350000D01*
X159352903Y-50950000D01*
X159341318Y-50832379D01*
X159339080Y-50825000D01*
X159341318Y-50817621D01*
X159352903Y-50700000D01*
X159352903Y-50300000D01*
X159341318Y-50182379D01*
X159339080Y-50175000D01*
X159341318Y-50167621D01*
X159352903Y-50050000D01*
X159352903Y-49650000D01*
X159341318Y-49532379D01*
X159339080Y-49525000D01*
X159341318Y-49517621D01*
X159352903Y-49400000D01*
X159352903Y-49000000D01*
X159341318Y-48882379D01*
X159339080Y-48875000D01*
X159341318Y-48867621D01*
X159352903Y-48750000D01*
X159352903Y-48350000D01*
X159341318Y-48232379D01*
X159339080Y-48225000D01*
X159341318Y-48217621D01*
X159352903Y-48100000D01*
X159350000Y-48075000D01*
X159200000Y-47925000D01*
X159177398Y-47925000D01*
X159176317Y-47923683D01*
X159116997Y-47875000D01*
X159200000Y-47875000D01*
X159350000Y-47725000D01*
X159352903Y-47700000D01*
X159341318Y-47582379D01*
X159307010Y-47469279D01*
X159251296Y-47365045D01*
X159176317Y-47273683D01*
X159084955Y-47198704D01*
X158980721Y-47142990D01*
X158867621Y-47108682D01*
X158750000Y-47097097D01*
X158175000Y-47100000D01*
X158025000Y-47250000D01*
X158025000Y-47747097D01*
X157975000Y-47747097D01*
X157975000Y-47250000D01*
X157825000Y-47100000D01*
X157250000Y-47097097D01*
X157132379Y-47108682D01*
X157019279Y-47142990D01*
X156915045Y-47198704D01*
X156823683Y-47273683D01*
X156748704Y-47365045D01*
X156692990Y-47469279D01*
X156687077Y-47488771D01*
X156475216Y-47276910D01*
X156461571Y-47208311D01*
X156386189Y-47026322D01*
X156276751Y-46862537D01*
X156137463Y-46723249D01*
X155973678Y-46613811D01*
X155791689Y-46538429D01*
X155598491Y-46500000D01*
X155401509Y-46500000D01*
X155225000Y-46535109D01*
X155225000Y-46189214D01*
X155276751Y-46137463D01*
X155386189Y-45973678D01*
X155461571Y-45791689D01*
X155500000Y-45598491D01*
X155500000Y-45401509D01*
X155461571Y-45208311D01*
X155386189Y-45026322D01*
X155276751Y-44862537D01*
X155137463Y-44723249D01*
X154973678Y-44613811D01*
X154791689Y-44538429D01*
X154598491Y-44500000D01*
X154401509Y-44500000D01*
X154208311Y-44538429D01*
X154026322Y-44613811D01*
X154000000Y-44631399D01*
X153973678Y-44613811D01*
X153791689Y-44538429D01*
X153598491Y-44500000D01*
X153401509Y-44500000D01*
X153208311Y-44538429D01*
X153026322Y-44613811D01*
X153000000Y-44631399D01*
X152973678Y-44613811D01*
X152791689Y-44538429D01*
X152598491Y-44500000D01*
X152401509Y-44500000D01*
X152208311Y-44538429D01*
X152026322Y-44613811D01*
X152000000Y-44631399D01*
X151973678Y-44613811D01*
X151791689Y-44538429D01*
X151598491Y-44500000D01*
X151401509Y-44500000D01*
X151208311Y-44538429D01*
X151026322Y-44613811D01*
X150862537Y-44723249D01*
X150723249Y-44862537D01*
X150613811Y-45026322D01*
X150538429Y-45208311D01*
X150500000Y-45401509D01*
X150500000Y-45598491D01*
X150538429Y-45791689D01*
X150613811Y-45973678D01*
X150723249Y-46137463D01*
X150784606Y-46198820D01*
X150785491Y-46207810D01*
X150826947Y-46344473D01*
X150841237Y-46371207D01*
X150894270Y-46470423D01*
X150962171Y-46553160D01*
X150984869Y-46580817D01*
X150992158Y-46586799D01*
X150992158Y-47097097D01*
X149750000Y-47097097D01*
X149632379Y-47108682D01*
X149519279Y-47142990D01*
X149459392Y-47175000D01*
X147900317Y-47175000D01*
X147012840Y-46287524D01*
X147012836Y-46287519D01*
X144950316Y-44225000D01*
X156449696Y-44225000D01*
X159203911Y-46979216D01*
G36*
X116308682Y-41012379D02*
G01*
X116297097Y-41130000D01*
X116300000Y-41805000D01*
X116450000Y-41955000D01*
X117725000Y-41955000D01*
X117725000Y-41935000D01*
X117775000Y-41935000D01*
X117775000Y-41955000D01*
X117795000Y-41955000D01*
X117795000Y-42005000D01*
X117775000Y-42005000D01*
X117775000Y-42025000D01*
X117725000Y-42025000D01*
X117725000Y-42005000D01*
X116450000Y-42005000D01*
X116300000Y-42155000D01*
X116299769Y-42208779D01*
X116103517Y-42012528D01*
X116080817Y-41984868D01*
X115970422Y-41894269D01*
X115844473Y-41826947D01*
X115707810Y-41785491D01*
X115698820Y-41784606D01*
X115637463Y-41723249D01*
X115473678Y-41613811D01*
X115291689Y-41538429D01*
X115098491Y-41500000D01*
X114901509Y-41500000D01*
X114708311Y-41538429D01*
X114526322Y-41613811D01*
X114362537Y-41723249D01*
X114301180Y-41784606D01*
X114292190Y-41785491D01*
X114155527Y-41826947D01*
X114029578Y-41894269D01*
X113946840Y-41962170D01*
X113946838Y-41962172D01*
X113919183Y-41984868D01*
X113896487Y-42012523D01*
X111512523Y-44396488D01*
X111484869Y-44419183D01*
X111462173Y-44446838D01*
X111462170Y-44446841D01*
X111394269Y-44529579D01*
X111326947Y-44655528D01*
X111309056Y-44714508D01*
X111285492Y-44792190D01*
X111278370Y-44864503D01*
X111271494Y-44934315D01*
X111275001Y-44969922D01*
X111275000Y-47404055D01*
X109979996Y-48699059D01*
X110000000Y-48598491D01*
X110000000Y-48401509D01*
X109961571Y-48208311D01*
X109886189Y-48026322D01*
X109776751Y-47862537D01*
X109725000Y-47810786D01*
X109725000Y-42939214D01*
X109776751Y-42887463D01*
X109886189Y-42723678D01*
X109961571Y-42541689D01*
X110000000Y-42348491D01*
X110000000Y-42151509D01*
X109961571Y-41958311D01*
X109886189Y-41776322D01*
X109776751Y-41612537D01*
X109637463Y-41473249D01*
X109473678Y-41363811D01*
X109291689Y-41288429D01*
X109098491Y-41250000D01*
X108901509Y-41250000D01*
X108708311Y-41288429D01*
X108526322Y-41363811D01*
X108362537Y-41473249D01*
X108223249Y-41612537D01*
X108113811Y-41776322D01*
X108038429Y-41958311D01*
X108000000Y-42151509D01*
X108000000Y-42348491D01*
X108038429Y-42541689D01*
X108113811Y-42723678D01*
X108223249Y-42887463D01*
X108275001Y-42939215D01*
X108275000Y-47810786D01*
X108223249Y-47862537D01*
X108113811Y-48026322D01*
X108038429Y-48208311D01*
X108000000Y-48401509D01*
X108000000Y-48598491D01*
X108038429Y-48791689D01*
X108113811Y-48973678D01*
X108223249Y-49137463D01*
X108362537Y-49276751D01*
X108526322Y-49386189D01*
X108708311Y-49461571D01*
X108901509Y-49500000D01*
X109098491Y-49500000D01*
X109199060Y-49479996D01*
X107262523Y-51416533D01*
X107234869Y-51439228D01*
X107212173Y-51466883D01*
X107212170Y-51466886D01*
X107144269Y-51549624D01*
X107076947Y-51675573D01*
X107054764Y-51748704D01*
X107035492Y-51812235D01*
X107034124Y-51826125D01*
X107021494Y-51954360D01*
X107025001Y-51989967D01*
X107025000Y-54063285D01*
X106975000Y-54113285D01*
X106975000Y-50782903D01*
X107100000Y-50782903D01*
X107217621Y-50771318D01*
X107330721Y-50737010D01*
X107434955Y-50681296D01*
X107526317Y-50606317D01*
X107601296Y-50514955D01*
X107657010Y-50410721D01*
X107691318Y-50297621D01*
X107702903Y-50180000D01*
X107702903Y-48480000D01*
X107691318Y-48362379D01*
X107657010Y-48249279D01*
X107601296Y-48145045D01*
X107531501Y-48060000D01*
X107601296Y-47974955D01*
X107657010Y-47870721D01*
X107691318Y-47757621D01*
X107702903Y-47640000D01*
X107702903Y-45940000D01*
X107691318Y-45822379D01*
X107657010Y-45709279D01*
X107601296Y-45605045D01*
X107526317Y-45513683D01*
X107434955Y-45438704D01*
X107330721Y-45382990D01*
X107217621Y-45348682D01*
X107203335Y-45347275D01*
X107376289Y-45174321D01*
X107534973Y-44936833D01*
X107644277Y-44672949D01*
X107700000Y-44392813D01*
X107700000Y-44107187D01*
X107644277Y-43827051D01*
X107534973Y-43563167D01*
X107376289Y-43325679D01*
X107174321Y-43123711D01*
X106936833Y-42965027D01*
X106672949Y-42855723D01*
X106392813Y-42800000D01*
X106107187Y-42800000D01*
X105827051Y-42855723D01*
X105563167Y-42965027D01*
X105325679Y-43123711D01*
X105152725Y-43296665D01*
X105151318Y-43282379D01*
X105117010Y-43169279D01*
X105061296Y-43065045D01*
X104986317Y-42973683D01*
X104894955Y-42898704D01*
X104790721Y-42842990D01*
X104677621Y-42808682D01*
X104560000Y-42797097D01*
X102860000Y-42797097D01*
X102742379Y-42808682D01*
X102629279Y-42842990D01*
X102525045Y-42898704D01*
X102433683Y-42973683D01*
X102358704Y-43065045D01*
X102302990Y-43169279D01*
X102268682Y-43282379D01*
X102257097Y-43400000D01*
X102257097Y-45100000D01*
X102268682Y-45217621D01*
X102302990Y-45330721D01*
X102358704Y-45434955D01*
X102428499Y-45520000D01*
X102358704Y-45605045D01*
X102302990Y-45709279D01*
X102268682Y-45822379D01*
X102257097Y-45940000D01*
X102257097Y-47640000D01*
X102268682Y-47757621D01*
X102302990Y-47870721D01*
X102358704Y-47974955D01*
X102428499Y-48060000D01*
X102358704Y-48145045D01*
X102302990Y-48249279D01*
X102268682Y-48362379D01*
X102257097Y-48480000D01*
X102260000Y-49155000D01*
X102410000Y-49305000D01*
X103685000Y-49305000D01*
X103685000Y-49285000D01*
X103735000Y-49285000D01*
X103735000Y-49305000D01*
X103755000Y-49305000D01*
X103755000Y-49355000D01*
X103735000Y-49355000D01*
X103735000Y-50630000D01*
X103885000Y-50780000D01*
X104560000Y-50782903D01*
X104677621Y-50771318D01*
X104790721Y-50737010D01*
X104894955Y-50681296D01*
X104980000Y-50611501D01*
X105065045Y-50681296D01*
X105169279Y-50737010D01*
X105282379Y-50771318D01*
X105400000Y-50782903D01*
X105525001Y-50782903D01*
X105525000Y-53147097D01*
X105125000Y-53147097D01*
X105007379Y-53158682D01*
X104894279Y-53192990D01*
X104790045Y-53248704D01*
X104750000Y-53281568D01*
X104709955Y-53248704D01*
X104605721Y-53192990D01*
X104492621Y-53158682D01*
X104375000Y-53147097D01*
X103625000Y-53147097D01*
X103507379Y-53158682D01*
X103394279Y-53192990D01*
X103290045Y-53248704D01*
X103198683Y-53323683D01*
X103123704Y-53415045D01*
X103067990Y-53519279D01*
X103033682Y-53632379D01*
X103031693Y-53652575D01*
X102973678Y-53613811D01*
X102791689Y-53538429D01*
X102598491Y-53500000D01*
X102401509Y-53500000D01*
X102208311Y-53538429D01*
X102026322Y-53613811D01*
X101930800Y-53677637D01*
X101908940Y-50180000D01*
X102257097Y-50180000D01*
X102268682Y-50297621D01*
X102302990Y-50410721D01*
X102358704Y-50514955D01*
X102433683Y-50606317D01*
X102525045Y-50681296D01*
X102629279Y-50737010D01*
X102742379Y-50771318D01*
X102860000Y-50782903D01*
X103535000Y-50780000D01*
X103685000Y-50630000D01*
X103685000Y-49355000D01*
X102410000Y-49355000D01*
X102260000Y-49505000D01*
X102257097Y-50180000D01*
X101908940Y-50180000D01*
X101851252Y-40950000D01*
X116327604Y-40950000D01*
X116308682Y-41012379D01*
X116308682Y-41012379D01*
G37*
X116308682Y-41012379D02*
X116297097Y-41130000D01*
X116300000Y-41805000D01*
X116450000Y-41955000D01*
X117725000Y-41955000D01*
X117725000Y-41935000D01*
X117775000Y-41935000D01*
X117775000Y-41955000D01*
X117795000Y-41955000D01*
X117795000Y-42005000D01*
X117775000Y-42005000D01*
X117775000Y-42025000D01*
X117725000Y-42025000D01*
X117725000Y-42005000D01*
X116450000Y-42005000D01*
X116300000Y-42155000D01*
X116299769Y-42208779D01*
X116103517Y-42012528D01*
X116080817Y-41984868D01*
X115970422Y-41894269D01*
X115844473Y-41826947D01*
X115707810Y-41785491D01*
X115698820Y-41784606D01*
X115637463Y-41723249D01*
X115473678Y-41613811D01*
X115291689Y-41538429D01*
X115098491Y-41500000D01*
X114901509Y-41500000D01*
X114708311Y-41538429D01*
X114526322Y-41613811D01*
X114362537Y-41723249D01*
X114301180Y-41784606D01*
X114292190Y-41785491D01*
X114155527Y-41826947D01*
X114029578Y-41894269D01*
X113946840Y-41962170D01*
X113946838Y-41962172D01*
X113919183Y-41984868D01*
X113896487Y-42012523D01*
X111512523Y-44396488D01*
X111484869Y-44419183D01*
X111462173Y-44446838D01*
X111462170Y-44446841D01*
X111394269Y-44529579D01*
X111326947Y-44655528D01*
X111309056Y-44714508D01*
X111285492Y-44792190D01*
X111278370Y-44864503D01*
X111271494Y-44934315D01*
X111275001Y-44969922D01*
X111275000Y-47404055D01*
X109979996Y-48699059D01*
X110000000Y-48598491D01*
X110000000Y-48401509D01*
X109961571Y-48208311D01*
X109886189Y-48026322D01*
X109776751Y-47862537D01*
X109725000Y-47810786D01*
X109725000Y-42939214D01*
X109776751Y-42887463D01*
X109886189Y-42723678D01*
X109961571Y-42541689D01*
X110000000Y-42348491D01*
X110000000Y-42151509D01*
X109961571Y-41958311D01*
X109886189Y-41776322D01*
X109776751Y-41612537D01*
X109637463Y-41473249D01*
X109473678Y-41363811D01*
X109291689Y-41288429D01*
X109098491Y-41250000D01*
X108901509Y-41250000D01*
X108708311Y-41288429D01*
X108526322Y-41363811D01*
X108362537Y-41473249D01*
X108223249Y-41612537D01*
X108113811Y-41776322D01*
X108038429Y-41958311D01*
X108000000Y-42151509D01*
X108000000Y-42348491D01*
X108038429Y-42541689D01*
X108113811Y-42723678D01*
X108223249Y-42887463D01*
X108275001Y-42939215D01*
X108275000Y-47810786D01*
X108223249Y-47862537D01*
X108113811Y-48026322D01*
X108038429Y-48208311D01*
X108000000Y-48401509D01*
X108000000Y-48598491D01*
X108038429Y-48791689D01*
X108113811Y-48973678D01*
X108223249Y-49137463D01*
X108362537Y-49276751D01*
X108526322Y-49386189D01*
X108708311Y-49461571D01*
X108901509Y-49500000D01*
X109098491Y-49500000D01*
X109199060Y-49479996D01*
X107262523Y-51416533D01*
X107234869Y-51439228D01*
X107212173Y-51466883D01*
X107212170Y-51466886D01*
X107144269Y-51549624D01*
X107076947Y-51675573D01*
X107054764Y-51748704D01*
X107035492Y-51812235D01*
X107034124Y-51826125D01*
X107021494Y-51954360D01*
X107025001Y-51989967D01*
X107025000Y-54063285D01*
X106975000Y-54113285D01*
X106975000Y-50782903D01*
X107100000Y-50782903D01*
X107217621Y-50771318D01*
X107330721Y-50737010D01*
X107434955Y-50681296D01*
X107526317Y-50606317D01*
X107601296Y-50514955D01*
X107657010Y-50410721D01*
X107691318Y-50297621D01*
X107702903Y-50180000D01*
X107702903Y-48480000D01*
X107691318Y-48362379D01*
X107657010Y-48249279D01*
X107601296Y-48145045D01*
X107531501Y-48060000D01*
X107601296Y-47974955D01*
X107657010Y-47870721D01*
X107691318Y-47757621D01*
X107702903Y-47640000D01*
X107702903Y-45940000D01*
X107691318Y-45822379D01*
X107657010Y-45709279D01*
X107601296Y-45605045D01*
X107526317Y-45513683D01*
X107434955Y-45438704D01*
X107330721Y-45382990D01*
X107217621Y-45348682D01*
X107203335Y-45347275D01*
X107376289Y-45174321D01*
X107534973Y-44936833D01*
X107644277Y-44672949D01*
X107700000Y-44392813D01*
X107700000Y-44107187D01*
X107644277Y-43827051D01*
X107534973Y-43563167D01*
X107376289Y-43325679D01*
X107174321Y-43123711D01*
X106936833Y-42965027D01*
X106672949Y-42855723D01*
X106392813Y-42800000D01*
X106107187Y-42800000D01*
X105827051Y-42855723D01*
X105563167Y-42965027D01*
X105325679Y-43123711D01*
X105152725Y-43296665D01*
X105151318Y-43282379D01*
X105117010Y-43169279D01*
X105061296Y-43065045D01*
X104986317Y-42973683D01*
X104894955Y-42898704D01*
X104790721Y-42842990D01*
X104677621Y-42808682D01*
X104560000Y-42797097D01*
X102860000Y-42797097D01*
X102742379Y-42808682D01*
X102629279Y-42842990D01*
X102525045Y-42898704D01*
X102433683Y-42973683D01*
X102358704Y-43065045D01*
X102302990Y-43169279D01*
X102268682Y-43282379D01*
X102257097Y-43400000D01*
X102257097Y-45100000D01*
X102268682Y-45217621D01*
X102302990Y-45330721D01*
X102358704Y-45434955D01*
X102428499Y-45520000D01*
X102358704Y-45605045D01*
X102302990Y-45709279D01*
X102268682Y-45822379D01*
X102257097Y-45940000D01*
X102257097Y-47640000D01*
X102268682Y-47757621D01*
X102302990Y-47870721D01*
X102358704Y-47974955D01*
X102428499Y-48060000D01*
X102358704Y-48145045D01*
X102302990Y-48249279D01*
X102268682Y-48362379D01*
X102257097Y-48480000D01*
X102260000Y-49155000D01*
X102410000Y-49305000D01*
X103685000Y-49305000D01*
X103685000Y-49285000D01*
X103735000Y-49285000D01*
X103735000Y-49305000D01*
X103755000Y-49305000D01*
X103755000Y-49355000D01*
X103735000Y-49355000D01*
X103735000Y-50630000D01*
X103885000Y-50780000D01*
X104560000Y-50782903D01*
X104677621Y-50771318D01*
X104790721Y-50737010D01*
X104894955Y-50681296D01*
X104980000Y-50611501D01*
X105065045Y-50681296D01*
X105169279Y-50737010D01*
X105282379Y-50771318D01*
X105400000Y-50782903D01*
X105525001Y-50782903D01*
X105525000Y-53147097D01*
X105125000Y-53147097D01*
X105007379Y-53158682D01*
X104894279Y-53192990D01*
X104790045Y-53248704D01*
X104750000Y-53281568D01*
X104709955Y-53248704D01*
X104605721Y-53192990D01*
X104492621Y-53158682D01*
X104375000Y-53147097D01*
X103625000Y-53147097D01*
X103507379Y-53158682D01*
X103394279Y-53192990D01*
X103290045Y-53248704D01*
X103198683Y-53323683D01*
X103123704Y-53415045D01*
X103067990Y-53519279D01*
X103033682Y-53632379D01*
X103031693Y-53652575D01*
X102973678Y-53613811D01*
X102791689Y-53538429D01*
X102598491Y-53500000D01*
X102401509Y-53500000D01*
X102208311Y-53538429D01*
X102026322Y-53613811D01*
X101930800Y-53677637D01*
X101908940Y-50180000D01*
X102257097Y-50180000D01*
X102268682Y-50297621D01*
X102302990Y-50410721D01*
X102358704Y-50514955D01*
X102433683Y-50606317D01*
X102525045Y-50681296D01*
X102629279Y-50737010D01*
X102742379Y-50771318D01*
X102860000Y-50782903D01*
X103535000Y-50780000D01*
X103685000Y-50630000D01*
X103685000Y-49355000D01*
X102410000Y-49355000D01*
X102260000Y-49505000D01*
X102257097Y-50180000D01*
X101908940Y-50180000D01*
X101851252Y-40950000D01*
X116327604Y-40950000D01*
X116308682Y-41012379D01*
G36*
X114526322Y-46386189D02*
G01*
X114708311Y-46461571D01*
X114901509Y-46500000D01*
X114708311Y-46538429D01*
X114526322Y-46613811D01*
X114362537Y-46723249D01*
X114223249Y-46862537D01*
X114175010Y-46934732D01*
X114175010Y-46600294D01*
X114444073Y-46331232D01*
X114526322Y-46386189D01*
X114526322Y-46386189D01*
G37*
X114526322Y-46386189D02*
X114708311Y-46461571D01*
X114901509Y-46500000D01*
X114708311Y-46538429D01*
X114526322Y-46613811D01*
X114362537Y-46723249D01*
X114223249Y-46862537D01*
X114175010Y-46934732D01*
X114175010Y-46600294D01*
X114444073Y-46331232D01*
X114526322Y-46386189D01*
M02*
