G04 #@! TF.GenerationSoftware,KiCad,Pcbnew,(5.1.2-1)-1*
G04 #@! TF.CreationDate,2019-06-04T19:14:02+03:00*
G04 #@! TF.ProjectId,mag,6d61672e-6b69-4636-9164-5f7063625858,rev?*
G04 #@! TF.SameCoordinates,Original*
G04 #@! TF.FileFunction,Copper,L1,Top*
G04 #@! TF.FilePolarity,Positive*
%FSLAX46Y46*%
G04 Gerber Fmt 4.6, Leading zero omitted, Abs format (unit mm)*
G04 Created by KiCad (PCBNEW (5.1.2-1)-1) date 2019-06-04 19:14:02*
%MOMM*%
%LPD*%
G04 APERTURE LIST*
%ADD10C,0.200000*%
%ADD11C,1.700000*%
%ADD12R,1.700000X1.700000*%
%ADD13R,2.000000X2.000000*%
%ADD14C,0.800000*%
%ADD15C,0.250000*%
G04 APERTURE END LIST*
D10*
X164202380Y-80202380D02*
X164202380Y-79535714D01*
X164202380Y-79630952D02*
X164250000Y-79583333D01*
X164345238Y-79535714D01*
X164488095Y-79535714D01*
X164583333Y-79583333D01*
X164630952Y-79678571D01*
X164630952Y-80202380D01*
X164630952Y-79678571D02*
X164678571Y-79583333D01*
X164773809Y-79535714D01*
X164916666Y-79535714D01*
X165011904Y-79583333D01*
X165059523Y-79678571D01*
X165059523Y-80202380D01*
X165964285Y-80202380D02*
X165964285Y-79678571D01*
X165916666Y-79583333D01*
X165821428Y-79535714D01*
X165630952Y-79535714D01*
X165535714Y-79583333D01*
X165964285Y-80154761D02*
X165869047Y-80202380D01*
X165630952Y-80202380D01*
X165535714Y-80154761D01*
X165488095Y-80059523D01*
X165488095Y-79964285D01*
X165535714Y-79869047D01*
X165630952Y-79821428D01*
X165869047Y-79821428D01*
X165964285Y-79773809D01*
X166869047Y-79535714D02*
X166869047Y-80345238D01*
X166821428Y-80440476D01*
X166773809Y-80488095D01*
X166678571Y-80535714D01*
X166535714Y-80535714D01*
X166440476Y-80488095D01*
X166869047Y-80154761D02*
X166773809Y-80202380D01*
X166583333Y-80202380D01*
X166488095Y-80154761D01*
X166440476Y-80107142D01*
X166392857Y-80011904D01*
X166392857Y-79726190D01*
X166440476Y-79630952D01*
X166488095Y-79583333D01*
X166583333Y-79535714D01*
X166773809Y-79535714D01*
X166869047Y-79583333D01*
X167345238Y-80107142D02*
X167392857Y-80154761D01*
X167345238Y-80202380D01*
X167297619Y-80154761D01*
X167345238Y-80107142D01*
X167345238Y-80202380D01*
X168011904Y-79202380D02*
X168107142Y-79202380D01*
X168202380Y-79250000D01*
X168250000Y-79297619D01*
X168297619Y-79392857D01*
X168345238Y-79583333D01*
X168345238Y-79821428D01*
X168297619Y-80011904D01*
X168250000Y-80107142D01*
X168202380Y-80154761D01*
X168107142Y-80202380D01*
X168011904Y-80202380D01*
X167916666Y-80154761D01*
X167869047Y-80107142D01*
X167821428Y-80011904D01*
X167773809Y-79821428D01*
X167773809Y-79583333D01*
X167821428Y-79392857D01*
X167869047Y-79297619D01*
X167916666Y-79250000D01*
X168011904Y-79202380D01*
D11*
X117750000Y-75000000D03*
D12*
X120290000Y-75000000D03*
X122830000Y-75000000D03*
X125370000Y-75000000D03*
X127910000Y-75000000D03*
X130450000Y-75000000D03*
X132990000Y-75000000D03*
X135530000Y-75000000D03*
X138070000Y-75000000D03*
X140610000Y-75000000D03*
X143150000Y-75000000D03*
X145690000Y-75000000D03*
X148230000Y-75000000D03*
X150770000Y-75000000D03*
X153310000Y-75000000D03*
X155850000Y-75000000D03*
X158390000Y-75000000D03*
X160930000Y-75000000D03*
X163470000Y-75000000D03*
X166010000Y-75000000D03*
X117750000Y-41980000D03*
X120290000Y-41980000D03*
X122830000Y-41980000D03*
X125370000Y-41980000D03*
X127910000Y-41980000D03*
X130450000Y-41980000D03*
X132990000Y-41980000D03*
X135530000Y-41980000D03*
X138070000Y-41980000D03*
X140610000Y-41980000D03*
X143150000Y-41980000D03*
X145690000Y-41980000D03*
X148230000Y-41980000D03*
X150770000Y-41980000D03*
X153310000Y-41980000D03*
X155850000Y-41980000D03*
X158390000Y-41980000D03*
X160930000Y-41980000D03*
X163470000Y-41980000D03*
X166010000Y-41980000D03*
X112620000Y-79000000D03*
X110080000Y-79000000D03*
X107540000Y-79000000D03*
D11*
X105000000Y-79000000D03*
D13*
X149250000Y-79000000D03*
X159250000Y-79000000D03*
X146000000Y-79000000D03*
X136000000Y-79000000D03*
D11*
X100000000Y-44250000D03*
D12*
X100000000Y-46790000D03*
X100000000Y-49330000D03*
D11*
X99750000Y-66500000D03*
D12*
X99750000Y-69040000D03*
X99750000Y-71580000D03*
X99750000Y-74120000D03*
X99750000Y-76660000D03*
X99750000Y-79200000D03*
D11*
X106250000Y-44250000D03*
D12*
X106250000Y-46790000D03*
X106250000Y-49330000D03*
X103710000Y-44250000D03*
X103710000Y-46790000D03*
X103710000Y-49330000D03*
X119130000Y-79000000D03*
X121670000Y-79000000D03*
X124210000Y-79000000D03*
D11*
X126750000Y-79000000D03*
X181750000Y-62500000D03*
D12*
X181750000Y-43000000D03*
D14*
X142000000Y-56500000D03*
X128500000Y-56500000D03*
X115000000Y-56500000D03*
X155500000Y-56500000D03*
X117000000Y-59500000D03*
X122737347Y-64012653D03*
X104250000Y-58250000D03*
X102500000Y-54500000D03*
X109250000Y-73500000D03*
X120000000Y-64000000D03*
X120000000Y-58750000D03*
X117750000Y-55000000D03*
X121000000Y-55000000D03*
X142000000Y-46500000D03*
X128500000Y-46500000D03*
X115000000Y-46500000D03*
X155500000Y-46500000D03*
X146000000Y-77500000D03*
X159250000Y-77500000D03*
X103750000Y-64000000D03*
X119000000Y-69250000D03*
X121500000Y-69250000D03*
X106000000Y-66750000D03*
X115000000Y-42500000D03*
X115000000Y-43500000D03*
X115000000Y-44500000D03*
X115000000Y-45500000D03*
X142000000Y-47500000D03*
X128500000Y-47500000D03*
X115000000Y-47500000D03*
X155500000Y-47500000D03*
X142000000Y-48500000D03*
X128500000Y-48500000D03*
X115000000Y-48500000D03*
X155500000Y-48500000D03*
X142000000Y-49500000D03*
X128500000Y-49500000D03*
X115000000Y-49500000D03*
X155500000Y-49500000D03*
X142000000Y-50500000D03*
X128500000Y-50500000D03*
X115000000Y-50500000D03*
X155500000Y-50500000D03*
X142000000Y-51500000D03*
X128500000Y-51500000D03*
X115000000Y-51500000D03*
X155500000Y-51500000D03*
X142000000Y-52500000D03*
X128500000Y-52500000D03*
X115000000Y-52500000D03*
X155500000Y-52500000D03*
X142000000Y-53500000D03*
X128500000Y-53500000D03*
X115000000Y-53500000D03*
X155500000Y-53500000D03*
X155500000Y-54500000D03*
X115000000Y-54500000D03*
X128500000Y-54500000D03*
X142000000Y-54500000D03*
X142000000Y-55500000D03*
X128500000Y-55500000D03*
X115000000Y-55500000D03*
X155500000Y-55500000D03*
X147500000Y-77500000D03*
X134250000Y-77500000D03*
X111750000Y-70000000D03*
X109250000Y-70000000D03*
X124500000Y-57250000D03*
X125500000Y-57250000D03*
X126500000Y-57250000D03*
X127500000Y-57250000D03*
X127500000Y-45500000D03*
X126500000Y-45500000D03*
X125500000Y-45500000D03*
X124500000Y-45500000D03*
X138000000Y-45500000D03*
X139000000Y-45500000D03*
X140000000Y-45500000D03*
X141000000Y-45500000D03*
X141000000Y-57250000D03*
X140000000Y-57250000D03*
X139000000Y-57250000D03*
X138000000Y-57250000D03*
X151500000Y-57250000D03*
X152500000Y-57250000D03*
X153500000Y-57250000D03*
X154500000Y-57250000D03*
X154500000Y-45500000D03*
X153500000Y-45500000D03*
X152500000Y-45500000D03*
X151500000Y-45500000D03*
X165000000Y-45500000D03*
X166000000Y-45500000D03*
X167000000Y-45500000D03*
X168000000Y-45500000D03*
X168000000Y-57250000D03*
X167000000Y-57250000D03*
X166000000Y-57250000D03*
X165000000Y-57250000D03*
X123500000Y-57250000D03*
X109000000Y-42250000D03*
X109000000Y-48500000D03*
D15*
X128500000Y-56500000D02*
X142000000Y-56500000D01*
X142000000Y-56500000D02*
X155500000Y-56500000D01*
X100000000Y-46790000D02*
X101960000Y-46790000D01*
X122250000Y-56500000D02*
X128500000Y-56500000D01*
X122250000Y-56500000D02*
X122500000Y-56500000D01*
X115000000Y-56500000D02*
X122250000Y-56500000D01*
X122500000Y-56500000D02*
X122750000Y-56250000D01*
X115000000Y-46500000D02*
X115565685Y-46500000D01*
X128500000Y-46500000D02*
X142000000Y-46500000D01*
X142565685Y-46500000D02*
X155500000Y-46500000D01*
X142000000Y-46500000D02*
X142565685Y-46500000D01*
X117750000Y-78720000D02*
X117750000Y-76202081D01*
X118030000Y-79000000D02*
X117750000Y-78720000D01*
X119130000Y-79000000D02*
X118030000Y-79000000D01*
X117750000Y-76202081D02*
X117750000Y-75000000D01*
X146000000Y-79000000D02*
X146000000Y-77500000D01*
X159250000Y-79000000D02*
X159250000Y-77500000D01*
X119000000Y-69250000D02*
X121500000Y-69250000D01*
X117750000Y-46250000D02*
X117500000Y-46500000D01*
X115565685Y-46500000D02*
X117500000Y-46500000D01*
X117750000Y-46250000D02*
X118000000Y-46500000D01*
X117750000Y-46000000D02*
X117750000Y-46250000D01*
X118000000Y-46500000D02*
X128500000Y-46500000D01*
X117750000Y-41980000D02*
X117750000Y-46000000D01*
X121000000Y-55000000D02*
X117750000Y-55000000D01*
X120000000Y-64000000D02*
X120000000Y-58750000D01*
X106000000Y-66250000D02*
X106000000Y-66750000D01*
X103750000Y-64000000D02*
X106000000Y-66250000D01*
X115000000Y-47500000D02*
X128500000Y-47500000D01*
X128500000Y-47500000D02*
X142000000Y-47500000D01*
X142000000Y-47500000D02*
X155500000Y-47500000D01*
X155500000Y-48500000D02*
X142000000Y-48500000D01*
X142000000Y-48500000D02*
X128500000Y-48500000D01*
X128500000Y-48500000D02*
X115000000Y-48500000D01*
X115000000Y-49500000D02*
X128500000Y-49500000D01*
X128500000Y-49500000D02*
X142000000Y-49500000D01*
X142000000Y-49500000D02*
X155500000Y-49500000D01*
X155500000Y-50500000D02*
X142000000Y-50500000D01*
X142000000Y-50500000D02*
X128500000Y-50500000D01*
X128500000Y-50500000D02*
X115000000Y-50500000D01*
X115000000Y-51500000D02*
X128500000Y-51500000D01*
X129065685Y-51500000D02*
X142000000Y-51500000D01*
X128500000Y-51500000D02*
X129065685Y-51500000D01*
X142000000Y-51500000D02*
X155500000Y-51500000D01*
X155500000Y-52500000D02*
X142000000Y-52500000D01*
X142000000Y-52500000D02*
X128500000Y-52500000D01*
X115500000Y-52500000D02*
X115000000Y-52500000D01*
X128500000Y-52500000D02*
X115500000Y-52500000D01*
X115565685Y-53500000D02*
X128500000Y-53500000D01*
X115000000Y-53500000D02*
X115565685Y-53500000D01*
X128500000Y-53500000D02*
X142000000Y-53500000D01*
X142565685Y-53500000D02*
X155500000Y-53500000D01*
X142000000Y-53500000D02*
X142565685Y-53500000D01*
X107452081Y-44250000D02*
X113500000Y-50297919D01*
X106250000Y-44250000D02*
X107452081Y-44250000D01*
X113500000Y-50297919D02*
X113500000Y-52750000D01*
X114250000Y-53500000D02*
X115000000Y-53500000D01*
X113500000Y-52750000D02*
X114250000Y-53500000D01*
X142000000Y-54500000D02*
X155500000Y-54500000D01*
X128500000Y-54500000D02*
X142073002Y-54500000D01*
X142073002Y-54500000D02*
X142000000Y-54500000D01*
X121573002Y-54500000D02*
X122000000Y-54500000D01*
X122000000Y-54500000D02*
X128500000Y-54500000D01*
X121323002Y-54250000D02*
X121573002Y-54500000D01*
X117250000Y-54250000D02*
X121323002Y-54250000D01*
X117000000Y-54500000D02*
X117250000Y-54250000D01*
X115000000Y-54500000D02*
X117000000Y-54500000D01*
X114250000Y-54500000D02*
X115000000Y-54500000D01*
X103710000Y-46790000D02*
X103710000Y-45690000D01*
X113000000Y-50500000D02*
X113000000Y-53250000D01*
X103900000Y-45500000D02*
X108000000Y-45500000D01*
X103710000Y-45690000D02*
X103900000Y-45500000D01*
X113000000Y-53250000D02*
X114250000Y-54500000D01*
X108000000Y-45500000D02*
X113000000Y-50500000D01*
X128500000Y-55500000D02*
X142000000Y-55500000D01*
X142000000Y-55500000D02*
X155500000Y-55500000D01*
X121750000Y-55500000D02*
X128500000Y-55500000D01*
X121573002Y-55500000D02*
X121750000Y-55500000D01*
X121323002Y-55750000D02*
X121573002Y-55500000D01*
X117250000Y-55750000D02*
X121323002Y-55750000D01*
X117000000Y-55500000D02*
X117250000Y-55750000D01*
X115000000Y-55500000D02*
X117000000Y-55500000D01*
X112500000Y-53750000D02*
X114250000Y-55500000D01*
X114250000Y-55500000D02*
X115000000Y-55500000D01*
X108540000Y-46790000D02*
X112500000Y-50750000D01*
X112500000Y-50750000D02*
X112500000Y-53750000D01*
X106250000Y-46790000D02*
X108540000Y-46790000D01*
X147500000Y-77500000D02*
X147500000Y-78065685D01*
X147500000Y-78500000D02*
X147500000Y-78065685D01*
X148000000Y-79000000D02*
X147500000Y-78500000D01*
X149250000Y-79000000D02*
X148000000Y-79000000D01*
X134250000Y-77500000D02*
X134250000Y-78750000D01*
X134250000Y-78750000D02*
X134500000Y-79000000D01*
X134500000Y-79000000D02*
X136000000Y-79000000D01*
X105000000Y-80202081D02*
X105000000Y-79000000D01*
X105622909Y-80824990D02*
X107628580Y-80824990D01*
X105000000Y-80202081D02*
X105622909Y-80824990D01*
X105000000Y-80202081D02*
X105547919Y-80750000D01*
X105547919Y-80750000D02*
X123500000Y-80750000D01*
X123500000Y-80750000D02*
X124250000Y-80000000D01*
X124250000Y-80000000D02*
X124250000Y-79000000D01*
X111750000Y-72250000D02*
X111750000Y-70000000D01*
X105000000Y-79000000D02*
X111750000Y-72250000D01*
X107540000Y-79000000D02*
X107540000Y-80100000D01*
X107540000Y-80100000D02*
X107690000Y-80250000D01*
X121500000Y-80250000D02*
X121670000Y-80080000D01*
X114250000Y-80250000D02*
X121500000Y-80250000D01*
X107690000Y-80250000D02*
X114250000Y-80250000D01*
X121670000Y-79250000D02*
X121670000Y-80080000D01*
X106250000Y-61750000D02*
X106250000Y-49330000D01*
X109250000Y-64750000D02*
X106250000Y-61750000D01*
X109250000Y-70000000D02*
X109250000Y-64750000D01*
X124500000Y-57250000D02*
X124500000Y-64636410D01*
X126306795Y-66443205D02*
X127181795Y-67318205D01*
X124500000Y-64636410D02*
X126306795Y-66443205D01*
X126306795Y-66443205D02*
X126500000Y-66636410D01*
X127181795Y-67318205D02*
X128000000Y-68136410D01*
X128000000Y-68136410D02*
X128000000Y-75000000D01*
X130450000Y-75000000D02*
X130450000Y-69950000D01*
X125500000Y-57250000D02*
X125500000Y-65000000D01*
X125500000Y-65000000D02*
X126250000Y-65750000D01*
X126250000Y-65750000D02*
X126000000Y-65500000D01*
X130450000Y-69950000D02*
X126250000Y-65750000D01*
X133000000Y-73890000D02*
X132990000Y-73900000D01*
X133000000Y-71750000D02*
X133000000Y-73890000D01*
X126500000Y-65250000D02*
X133000000Y-71750000D01*
X132990000Y-73900000D02*
X132990000Y-75000000D01*
X126500000Y-57250000D02*
X126500000Y-65250000D01*
X135530000Y-75000000D02*
X135530000Y-73530000D01*
X127500000Y-65500000D02*
X127500000Y-57250000D01*
X135530000Y-73530000D02*
X127500000Y-65500000D01*
X127500000Y-45500000D02*
X127500000Y-44750000D01*
X127500000Y-44750000D02*
X127750000Y-44500000D01*
X127750000Y-44500000D02*
X127849980Y-44400020D01*
X127849980Y-44400020D02*
X131849980Y-44400020D01*
X131849980Y-44400020D02*
X133000000Y-43250000D01*
X133000000Y-43250000D02*
X133000000Y-42000000D01*
X129579990Y-43950010D02*
X130450000Y-43080000D01*
X130450000Y-43080000D02*
X130450000Y-41980000D01*
X127484305Y-43950010D02*
X129579990Y-43950010D01*
X126500000Y-44934315D02*
X127484305Y-43950010D01*
X126500000Y-45500000D02*
X126500000Y-44934315D01*
X127910000Y-43340000D02*
X127750000Y-43500000D01*
X127910000Y-41980000D02*
X127910000Y-43340000D01*
X126934315Y-43500000D02*
X127250000Y-43500000D01*
X125500000Y-44934315D02*
X126934315Y-43500000D01*
X125500000Y-45500000D02*
X125500000Y-44934315D01*
X127250000Y-43500000D02*
X127750000Y-43500000D01*
X124500000Y-45500000D02*
X124500000Y-44250000D01*
X124500000Y-43950000D02*
X124500000Y-44250000D01*
X125370000Y-43080000D02*
X124500000Y-43950000D01*
X125370000Y-41980000D02*
X125370000Y-43080000D01*
X138070000Y-45430000D02*
X138000000Y-45500000D01*
X138000000Y-45500000D02*
X138000000Y-44934315D01*
X138000000Y-44934315D02*
X138000000Y-42000000D01*
X139000000Y-45500000D02*
X139000000Y-44934315D01*
X140610000Y-41980000D02*
X140610000Y-43324316D01*
X140467158Y-43467158D02*
X140500000Y-43434315D01*
X140610000Y-43324316D02*
X140467158Y-43467158D01*
X139000000Y-44934315D02*
X140467158Y-43467158D01*
X140000000Y-45000000D02*
X140000000Y-45500000D01*
X141500000Y-43500000D02*
X140000000Y-45000000D01*
X142750000Y-43500000D02*
X141500000Y-43500000D01*
X143150000Y-43100000D02*
X142750000Y-43500000D01*
X143150000Y-41980000D02*
X143150000Y-43100000D01*
X141000000Y-45500000D02*
X141750000Y-45500000D01*
X141750000Y-45500000D02*
X143750000Y-43500000D01*
X143750000Y-43500000D02*
X145500000Y-43500000D01*
X145500000Y-43500000D02*
X145750000Y-43250000D01*
X145750000Y-43250000D02*
X145750000Y-42000000D01*
X145690000Y-75000000D02*
X145690000Y-73900000D01*
X141000000Y-69210000D02*
X142770000Y-70980000D01*
X142770000Y-70980000D02*
X142290000Y-70500000D01*
X141000000Y-57250000D02*
X141000000Y-69210000D01*
X145690000Y-73900000D02*
X142770000Y-70980000D01*
X143150000Y-71996410D02*
X143150000Y-72350000D01*
X140000000Y-57250000D02*
X140000000Y-68846410D01*
X140000000Y-68846410D02*
X143150000Y-71996410D01*
X143150000Y-72350000D02*
X143150000Y-72150000D01*
X143150000Y-75000000D02*
X143150000Y-72350000D01*
X140610000Y-75000000D02*
X140610000Y-70110000D01*
X139000000Y-68500000D02*
X140610000Y-70110000D01*
X139000000Y-57250000D02*
X139000000Y-68500000D01*
X138000000Y-57250000D02*
X138000000Y-75000000D01*
X148230000Y-73900000D02*
X151500000Y-70630000D01*
X148230000Y-75000000D02*
X148230000Y-73900000D01*
X151500000Y-70630000D02*
X151500000Y-57250000D01*
X152500000Y-70266410D02*
X152500000Y-57250000D01*
X150770000Y-71996410D02*
X151258205Y-71508205D01*
X150770000Y-75000000D02*
X150770000Y-71996410D01*
X151258205Y-71508205D02*
X152500000Y-70266410D01*
X153310000Y-75000000D02*
X153310000Y-73810000D01*
X153500000Y-72750000D02*
X153500000Y-73250000D01*
X153500000Y-57250000D02*
X153500000Y-72750000D01*
X153310000Y-73440000D02*
X153500000Y-73250000D01*
X153310000Y-75000000D02*
X153310000Y-73440000D01*
X155850000Y-75000000D02*
X155850000Y-73600000D01*
X154500000Y-72250000D02*
X154500000Y-57250000D01*
X155850000Y-73600000D02*
X154500000Y-72250000D01*
X158390000Y-43110000D02*
X158390000Y-41980000D01*
X158000000Y-43500000D02*
X158390000Y-43110000D01*
X156500000Y-43500000D02*
X158000000Y-43500000D01*
X154500000Y-45500000D02*
X156500000Y-43500000D01*
X153500000Y-44934315D02*
X154934315Y-43500000D01*
X153500000Y-45500000D02*
X153500000Y-44934315D01*
X154934315Y-43500000D02*
X155500000Y-43500000D01*
X155500000Y-43500000D02*
X155750000Y-43250000D01*
X155850000Y-43150000D02*
X155500000Y-43500000D01*
X155850000Y-41980000D02*
X155850000Y-43150000D01*
X153250000Y-43500000D02*
X153250000Y-42000000D01*
X152500000Y-44250000D02*
X153250000Y-43500000D01*
X152500000Y-45500000D02*
X152500000Y-44250000D01*
X151500000Y-45500000D02*
X151500000Y-44250000D01*
X151500000Y-44250000D02*
X150750000Y-43500000D01*
X150750000Y-43500000D02*
X150750000Y-42250000D01*
X163000000Y-43500000D02*
X165000000Y-45500000D01*
X161250000Y-43500000D02*
X163000000Y-43500000D01*
X160930000Y-43180000D02*
X161250000Y-43500000D01*
X160930000Y-41980000D02*
X160930000Y-43180000D01*
X166000000Y-45500000D02*
X166000000Y-45000000D01*
X163470000Y-41980000D02*
X163470000Y-43080000D01*
X163890000Y-43500000D02*
X164500000Y-43500000D01*
X163470000Y-43080000D02*
X163890000Y-43500000D01*
X166000000Y-45000000D02*
X164500000Y-43500000D01*
X167000000Y-45500000D02*
X167000000Y-44934315D01*
X167000000Y-44934315D02*
X167000000Y-44500000D01*
X167000000Y-44500000D02*
X166000000Y-43500000D01*
X166000000Y-43500000D02*
X166000000Y-42000000D01*
X168000000Y-57250000D02*
X168000000Y-66250000D01*
X168000000Y-66250000D02*
X166000000Y-68250000D01*
X166000000Y-68250000D02*
X166000000Y-75000000D01*
X167000000Y-57250000D02*
X167000000Y-66562820D01*
X163470000Y-75000000D02*
X163470000Y-70092820D01*
X164656410Y-68906410D02*
X164250000Y-69312820D01*
X163470000Y-70092820D02*
X164656410Y-68906410D01*
X167000000Y-66562820D02*
X164656410Y-68906410D01*
X166000000Y-66926410D02*
X165450009Y-67476401D01*
X166000000Y-57250000D02*
X166000000Y-66926410D01*
X165450009Y-67476401D02*
X161000000Y-71926410D01*
X161000000Y-71926410D02*
X161000000Y-75000000D01*
X158390000Y-73900000D02*
X165000000Y-67290000D01*
X158390000Y-75000000D02*
X158390000Y-73900000D01*
X165000000Y-67290000D02*
X165000000Y-57250000D01*
X181750000Y-41750000D02*
X181750000Y-43000000D01*
X180750000Y-40750000D02*
X181750000Y-41750000D01*
X109000000Y-42250000D02*
X110500000Y-40750000D01*
X110500000Y-40750000D02*
X180750000Y-40750000D01*
X100000000Y-43047919D02*
X100000000Y-44250000D01*
X102297919Y-40750000D02*
X100000000Y-43047919D01*
X107500000Y-40750000D02*
X102297919Y-40750000D01*
X109000000Y-42250000D02*
X107500000Y-40750000D01*
X116500000Y-57250000D02*
X123500000Y-57250000D01*
X116000000Y-57750000D02*
X116500000Y-57250000D01*
X114500000Y-57750000D02*
X116000000Y-57750000D01*
X109000000Y-52250000D02*
X114500000Y-57750000D01*
X109000000Y-48500000D02*
X109000000Y-52250000D01*
X98900000Y-49330000D02*
X98500000Y-48930000D01*
X100000000Y-49330000D02*
X98900000Y-49330000D01*
X98500000Y-46004998D02*
X99004998Y-45500000D01*
X98500000Y-48930000D02*
X98500000Y-46004998D01*
X99004998Y-45500000D02*
X100250000Y-45500000D01*
X100250000Y-45500000D02*
X101250000Y-45500000D01*
X101250000Y-45500000D02*
X102500000Y-44250000D01*
X102500000Y-44250000D02*
X103750000Y-44250000D01*
X98500000Y-49730000D02*
X98900000Y-49330000D01*
X98650000Y-74120000D02*
X98500000Y-73970000D01*
X98500000Y-73970000D02*
X98500000Y-49730000D01*
X99750000Y-74120000D02*
X98650000Y-74120000D01*
D10*
G36*
X168900000Y-78380000D02*
G01*
X163264286Y-78380000D01*
X163264286Y-80550000D01*
X160493836Y-80550000D01*
X160584955Y-80501296D01*
X160676317Y-80426317D01*
X160751296Y-80334955D01*
X160807010Y-80230721D01*
X160841318Y-80117621D01*
X160852903Y-80000000D01*
X160852903Y-78000000D01*
X160841318Y-77882379D01*
X160807010Y-77769279D01*
X160751296Y-77665045D01*
X160676317Y-77573683D01*
X160584955Y-77498704D01*
X160480721Y-77442990D01*
X160367621Y-77408682D01*
X160250000Y-77397097D01*
X160249122Y-77397097D01*
X160211571Y-77208311D01*
X160136189Y-77026322D01*
X160026751Y-76862537D01*
X159887463Y-76723249D01*
X159723678Y-76613811D01*
X159541689Y-76538429D01*
X159348491Y-76500000D01*
X159151509Y-76500000D01*
X158958311Y-76538429D01*
X158776322Y-76613811D01*
X158612537Y-76723249D01*
X158473249Y-76862537D01*
X158363811Y-77026322D01*
X158288429Y-77208311D01*
X158250878Y-77397097D01*
X158250000Y-77397097D01*
X158132379Y-77408682D01*
X158019279Y-77442990D01*
X157915045Y-77498704D01*
X157823683Y-77573683D01*
X157748704Y-77665045D01*
X157692990Y-77769279D01*
X157658682Y-77882379D01*
X157647097Y-78000000D01*
X157647097Y-80000000D01*
X157658682Y-80117621D01*
X157692990Y-80230721D01*
X157748704Y-80334955D01*
X157823683Y-80426317D01*
X157915045Y-80501296D01*
X158006164Y-80550000D01*
X150493836Y-80550000D01*
X150584955Y-80501296D01*
X150676317Y-80426317D01*
X150751296Y-80334955D01*
X150807010Y-80230721D01*
X150841318Y-80117621D01*
X150852903Y-80000000D01*
X150852903Y-78000000D01*
X150841318Y-77882379D01*
X150807010Y-77769279D01*
X150751296Y-77665045D01*
X150676317Y-77573683D01*
X150584955Y-77498704D01*
X150480721Y-77442990D01*
X150367621Y-77408682D01*
X150250000Y-77397097D01*
X148499122Y-77397097D01*
X148461571Y-77208311D01*
X148386189Y-77026322D01*
X148276751Y-76862537D01*
X148137463Y-76723249D01*
X147973678Y-76613811D01*
X147791689Y-76538429D01*
X147598491Y-76500000D01*
X147401509Y-76500000D01*
X147208311Y-76538429D01*
X147026322Y-76613811D01*
X146862537Y-76723249D01*
X146750000Y-76835786D01*
X146637463Y-76723249D01*
X146473678Y-76613811D01*
X146291689Y-76538429D01*
X146098491Y-76500000D01*
X145901509Y-76500000D01*
X145708311Y-76538429D01*
X145526322Y-76613811D01*
X145362537Y-76723249D01*
X145223249Y-76862537D01*
X145113811Y-77026322D01*
X145038429Y-77208311D01*
X145000878Y-77397097D01*
X145000000Y-77397097D01*
X144882379Y-77408682D01*
X144769279Y-77442990D01*
X144665045Y-77498704D01*
X144573683Y-77573683D01*
X144498704Y-77665045D01*
X144442990Y-77769279D01*
X144408682Y-77882379D01*
X144397097Y-78000000D01*
X144397097Y-80000000D01*
X144408682Y-80117621D01*
X144442990Y-80230721D01*
X144498704Y-80334955D01*
X144573683Y-80426317D01*
X144665045Y-80501296D01*
X144756164Y-80550000D01*
X137243836Y-80550000D01*
X137334955Y-80501296D01*
X137426317Y-80426317D01*
X137501296Y-80334955D01*
X137557010Y-80230721D01*
X137591318Y-80117621D01*
X137602903Y-80000000D01*
X137602903Y-78000000D01*
X137591318Y-77882379D01*
X137557010Y-77769279D01*
X137501296Y-77665045D01*
X137426317Y-77573683D01*
X137334955Y-77498704D01*
X137230721Y-77442990D01*
X137117621Y-77408682D01*
X137000000Y-77397097D01*
X135249122Y-77397097D01*
X135211571Y-77208311D01*
X135136189Y-77026322D01*
X135026751Y-76862537D01*
X134887463Y-76723249D01*
X134723678Y-76613811D01*
X134541689Y-76538429D01*
X134348491Y-76500000D01*
X134151509Y-76500000D01*
X133958311Y-76538429D01*
X133776322Y-76613811D01*
X133612537Y-76723249D01*
X133473249Y-76862537D01*
X133363811Y-77026322D01*
X133288429Y-77208311D01*
X133250000Y-77401509D01*
X133250000Y-77598491D01*
X133288429Y-77791689D01*
X133363811Y-77973678D01*
X133473249Y-78137463D01*
X133525001Y-78189215D01*
X133525001Y-78714393D01*
X133521494Y-78750000D01*
X133525001Y-78785607D01*
X133535492Y-78892125D01*
X133539318Y-78904737D01*
X133576947Y-79028787D01*
X133644269Y-79154736D01*
X133712170Y-79237474D01*
X133712173Y-79237477D01*
X133734869Y-79265132D01*
X133762524Y-79287828D01*
X133962168Y-79487472D01*
X133984868Y-79515132D01*
X134095263Y-79605731D01*
X134221212Y-79673053D01*
X134357875Y-79714509D01*
X134397097Y-79718372D01*
X134397097Y-80000000D01*
X134408682Y-80117621D01*
X134442990Y-80230721D01*
X134498704Y-80334955D01*
X134573683Y-80426317D01*
X134665045Y-80501296D01*
X134756164Y-80550000D01*
X124725305Y-80550000D01*
X124737482Y-80537823D01*
X124765131Y-80515132D01*
X124787823Y-80487482D01*
X124787830Y-80487475D01*
X124816202Y-80452903D01*
X125060000Y-80452903D01*
X125177621Y-80441318D01*
X125290721Y-80407010D01*
X125394955Y-80351296D01*
X125486317Y-80276317D01*
X125561296Y-80184955D01*
X125617010Y-80080721D01*
X125651318Y-79967621D01*
X125653870Y-79941709D01*
X125843647Y-79941709D01*
X125913939Y-80193272D01*
X126162799Y-80333451D01*
X126434224Y-80422386D01*
X126717786Y-80456660D01*
X127002586Y-80434956D01*
X127277678Y-80358106D01*
X127532492Y-80229065D01*
X127586061Y-80193272D01*
X127656353Y-79941709D01*
X126750000Y-79035355D01*
X125843647Y-79941709D01*
X125653870Y-79941709D01*
X125661395Y-79865307D01*
X125808291Y-79906353D01*
X126714645Y-79000000D01*
X126785355Y-79000000D01*
X127691709Y-79906353D01*
X127943272Y-79836061D01*
X128083451Y-79587201D01*
X128172386Y-79315776D01*
X128206660Y-79032214D01*
X128184956Y-78747414D01*
X128108106Y-78472322D01*
X127979065Y-78217508D01*
X127943272Y-78163939D01*
X127691709Y-78093647D01*
X126785355Y-79000000D01*
X126714645Y-79000000D01*
X125808291Y-78093647D01*
X125661395Y-78134693D01*
X125653871Y-78058291D01*
X125843647Y-78058291D01*
X126750000Y-78964645D01*
X127656353Y-78058291D01*
X127586061Y-77806728D01*
X127337201Y-77666549D01*
X127065776Y-77577614D01*
X126782214Y-77543340D01*
X126497414Y-77565044D01*
X126222322Y-77641894D01*
X125967508Y-77770935D01*
X125913939Y-77806728D01*
X125843647Y-78058291D01*
X125653871Y-78058291D01*
X125651318Y-78032379D01*
X125617010Y-77919279D01*
X125561296Y-77815045D01*
X125486317Y-77723683D01*
X125394955Y-77648704D01*
X125290721Y-77592990D01*
X125177621Y-77558682D01*
X125060000Y-77547097D01*
X123360000Y-77547097D01*
X123242379Y-77558682D01*
X123129279Y-77592990D01*
X123025045Y-77648704D01*
X122940000Y-77718499D01*
X122854955Y-77648704D01*
X122750721Y-77592990D01*
X122637621Y-77558682D01*
X122520000Y-77547097D01*
X120820000Y-77547097D01*
X120702379Y-77558682D01*
X120589279Y-77592990D01*
X120485045Y-77648704D01*
X120400000Y-77718499D01*
X120314955Y-77648704D01*
X120210721Y-77592990D01*
X120097621Y-77558682D01*
X119980000Y-77547097D01*
X118475000Y-77547097D01*
X118475000Y-76259471D01*
X118674321Y-76126289D01*
X118847275Y-75953335D01*
X118848682Y-75967621D01*
X118882990Y-76080721D01*
X118938704Y-76184955D01*
X119013683Y-76276317D01*
X119105045Y-76351296D01*
X119209279Y-76407010D01*
X119322379Y-76441318D01*
X119440000Y-76452903D01*
X121140000Y-76452903D01*
X121257621Y-76441318D01*
X121370721Y-76407010D01*
X121474955Y-76351296D01*
X121560000Y-76281501D01*
X121645045Y-76351296D01*
X121749279Y-76407010D01*
X121862379Y-76441318D01*
X121980000Y-76452903D01*
X123680000Y-76452903D01*
X123797621Y-76441318D01*
X123910721Y-76407010D01*
X124014955Y-76351296D01*
X124100000Y-76281501D01*
X124185045Y-76351296D01*
X124289279Y-76407010D01*
X124402379Y-76441318D01*
X124520000Y-76452903D01*
X126220000Y-76452903D01*
X126337621Y-76441318D01*
X126450721Y-76407010D01*
X126554955Y-76351296D01*
X126640000Y-76281501D01*
X126725045Y-76351296D01*
X126829279Y-76407010D01*
X126942379Y-76441318D01*
X127060000Y-76452903D01*
X128760000Y-76452903D01*
X128877621Y-76441318D01*
X128990721Y-76407010D01*
X129094955Y-76351296D01*
X129180000Y-76281501D01*
X129265045Y-76351296D01*
X129369279Y-76407010D01*
X129482379Y-76441318D01*
X129600000Y-76452903D01*
X131300000Y-76452903D01*
X131417621Y-76441318D01*
X131530721Y-76407010D01*
X131634955Y-76351296D01*
X131720000Y-76281501D01*
X131805045Y-76351296D01*
X131909279Y-76407010D01*
X132022379Y-76441318D01*
X132140000Y-76452903D01*
X133840000Y-76452903D01*
X133957621Y-76441318D01*
X134070721Y-76407010D01*
X134174955Y-76351296D01*
X134260000Y-76281501D01*
X134345045Y-76351296D01*
X134449279Y-76407010D01*
X134562379Y-76441318D01*
X134680000Y-76452903D01*
X136380000Y-76452903D01*
X136497621Y-76441318D01*
X136610721Y-76407010D01*
X136714955Y-76351296D01*
X136800000Y-76281501D01*
X136885045Y-76351296D01*
X136989279Y-76407010D01*
X137102379Y-76441318D01*
X137220000Y-76452903D01*
X138920000Y-76452903D01*
X139037621Y-76441318D01*
X139150721Y-76407010D01*
X139254955Y-76351296D01*
X139340000Y-76281501D01*
X139425045Y-76351296D01*
X139529279Y-76407010D01*
X139642379Y-76441318D01*
X139760000Y-76452903D01*
X141460000Y-76452903D01*
X141577621Y-76441318D01*
X141690721Y-76407010D01*
X141794955Y-76351296D01*
X141880000Y-76281501D01*
X141965045Y-76351296D01*
X142069279Y-76407010D01*
X142182379Y-76441318D01*
X142300000Y-76452903D01*
X144000000Y-76452903D01*
X144117621Y-76441318D01*
X144230721Y-76407010D01*
X144334955Y-76351296D01*
X144420000Y-76281501D01*
X144505045Y-76351296D01*
X144609279Y-76407010D01*
X144722379Y-76441318D01*
X144840000Y-76452903D01*
X146540000Y-76452903D01*
X146657621Y-76441318D01*
X146770721Y-76407010D01*
X146874955Y-76351296D01*
X146960000Y-76281501D01*
X147045045Y-76351296D01*
X147149279Y-76407010D01*
X147262379Y-76441318D01*
X147380000Y-76452903D01*
X149080000Y-76452903D01*
X149197621Y-76441318D01*
X149310721Y-76407010D01*
X149414955Y-76351296D01*
X149500000Y-76281501D01*
X149585045Y-76351296D01*
X149689279Y-76407010D01*
X149802379Y-76441318D01*
X149920000Y-76452903D01*
X151620000Y-76452903D01*
X151737621Y-76441318D01*
X151850721Y-76407010D01*
X151954955Y-76351296D01*
X152040000Y-76281501D01*
X152125045Y-76351296D01*
X152229279Y-76407010D01*
X152342379Y-76441318D01*
X152460000Y-76452903D01*
X154160000Y-76452903D01*
X154277621Y-76441318D01*
X154390721Y-76407010D01*
X154494955Y-76351296D01*
X154580000Y-76281501D01*
X154665045Y-76351296D01*
X154769279Y-76407010D01*
X154882379Y-76441318D01*
X155000000Y-76452903D01*
X156700000Y-76452903D01*
X156817621Y-76441318D01*
X156930721Y-76407010D01*
X157034955Y-76351296D01*
X157120000Y-76281501D01*
X157205045Y-76351296D01*
X157309279Y-76407010D01*
X157422379Y-76441318D01*
X157540000Y-76452903D01*
X159240000Y-76452903D01*
X159357621Y-76441318D01*
X159470721Y-76407010D01*
X159574955Y-76351296D01*
X159660000Y-76281501D01*
X159745045Y-76351296D01*
X159849279Y-76407010D01*
X159962379Y-76441318D01*
X160080000Y-76452903D01*
X161780000Y-76452903D01*
X161897621Y-76441318D01*
X162010721Y-76407010D01*
X162114955Y-76351296D01*
X162200000Y-76281501D01*
X162285045Y-76351296D01*
X162389279Y-76407010D01*
X162502379Y-76441318D01*
X162620000Y-76452903D01*
X164320000Y-76452903D01*
X164437621Y-76441318D01*
X164550721Y-76407010D01*
X164654955Y-76351296D01*
X164740000Y-76281501D01*
X164825045Y-76351296D01*
X164929279Y-76407010D01*
X165042379Y-76441318D01*
X165160000Y-76452903D01*
X166860000Y-76452903D01*
X166977621Y-76441318D01*
X167090721Y-76407010D01*
X167194955Y-76351296D01*
X167286317Y-76276317D01*
X167361296Y-76184955D01*
X167417010Y-76080721D01*
X167451318Y-75967621D01*
X167462903Y-75850000D01*
X167462903Y-74150000D01*
X167451318Y-74032379D01*
X167417010Y-73919279D01*
X167361296Y-73815045D01*
X167286317Y-73723683D01*
X167194955Y-73648704D01*
X167090721Y-73592990D01*
X166977621Y-73558682D01*
X166860000Y-73547097D01*
X166725000Y-73547097D01*
X166725000Y-68550304D01*
X168487477Y-66787828D01*
X168515132Y-66765132D01*
X168550537Y-66721992D01*
X168605731Y-66654737D01*
X168673053Y-66528788D01*
X168683519Y-66494285D01*
X168714509Y-66392125D01*
X168725000Y-66285607D01*
X168725000Y-66285598D01*
X168728506Y-66250001D01*
X168725000Y-66214404D01*
X168725000Y-57939214D01*
X168776751Y-57887463D01*
X168886189Y-57723678D01*
X168900000Y-57690335D01*
X168900000Y-78380000D01*
X168900000Y-78380000D01*
G37*
X168900000Y-78380000D02*
X163264286Y-78380000D01*
X163264286Y-80550000D01*
X160493836Y-80550000D01*
X160584955Y-80501296D01*
X160676317Y-80426317D01*
X160751296Y-80334955D01*
X160807010Y-80230721D01*
X160841318Y-80117621D01*
X160852903Y-80000000D01*
X160852903Y-78000000D01*
X160841318Y-77882379D01*
X160807010Y-77769279D01*
X160751296Y-77665045D01*
X160676317Y-77573683D01*
X160584955Y-77498704D01*
X160480721Y-77442990D01*
X160367621Y-77408682D01*
X160250000Y-77397097D01*
X160249122Y-77397097D01*
X160211571Y-77208311D01*
X160136189Y-77026322D01*
X160026751Y-76862537D01*
X159887463Y-76723249D01*
X159723678Y-76613811D01*
X159541689Y-76538429D01*
X159348491Y-76500000D01*
X159151509Y-76500000D01*
X158958311Y-76538429D01*
X158776322Y-76613811D01*
X158612537Y-76723249D01*
X158473249Y-76862537D01*
X158363811Y-77026322D01*
X158288429Y-77208311D01*
X158250878Y-77397097D01*
X158250000Y-77397097D01*
X158132379Y-77408682D01*
X158019279Y-77442990D01*
X157915045Y-77498704D01*
X157823683Y-77573683D01*
X157748704Y-77665045D01*
X157692990Y-77769279D01*
X157658682Y-77882379D01*
X157647097Y-78000000D01*
X157647097Y-80000000D01*
X157658682Y-80117621D01*
X157692990Y-80230721D01*
X157748704Y-80334955D01*
X157823683Y-80426317D01*
X157915045Y-80501296D01*
X158006164Y-80550000D01*
X150493836Y-80550000D01*
X150584955Y-80501296D01*
X150676317Y-80426317D01*
X150751296Y-80334955D01*
X150807010Y-80230721D01*
X150841318Y-80117621D01*
X150852903Y-80000000D01*
X150852903Y-78000000D01*
X150841318Y-77882379D01*
X150807010Y-77769279D01*
X150751296Y-77665045D01*
X150676317Y-77573683D01*
X150584955Y-77498704D01*
X150480721Y-77442990D01*
X150367621Y-77408682D01*
X150250000Y-77397097D01*
X148499122Y-77397097D01*
X148461571Y-77208311D01*
X148386189Y-77026322D01*
X148276751Y-76862537D01*
X148137463Y-76723249D01*
X147973678Y-76613811D01*
X147791689Y-76538429D01*
X147598491Y-76500000D01*
X147401509Y-76500000D01*
X147208311Y-76538429D01*
X147026322Y-76613811D01*
X146862537Y-76723249D01*
X146750000Y-76835786D01*
X146637463Y-76723249D01*
X146473678Y-76613811D01*
X146291689Y-76538429D01*
X146098491Y-76500000D01*
X145901509Y-76500000D01*
X145708311Y-76538429D01*
X145526322Y-76613811D01*
X145362537Y-76723249D01*
X145223249Y-76862537D01*
X145113811Y-77026322D01*
X145038429Y-77208311D01*
X145000878Y-77397097D01*
X145000000Y-77397097D01*
X144882379Y-77408682D01*
X144769279Y-77442990D01*
X144665045Y-77498704D01*
X144573683Y-77573683D01*
X144498704Y-77665045D01*
X144442990Y-77769279D01*
X144408682Y-77882379D01*
X144397097Y-78000000D01*
X144397097Y-80000000D01*
X144408682Y-80117621D01*
X144442990Y-80230721D01*
X144498704Y-80334955D01*
X144573683Y-80426317D01*
X144665045Y-80501296D01*
X144756164Y-80550000D01*
X137243836Y-80550000D01*
X137334955Y-80501296D01*
X137426317Y-80426317D01*
X137501296Y-80334955D01*
X137557010Y-80230721D01*
X137591318Y-80117621D01*
X137602903Y-80000000D01*
X137602903Y-78000000D01*
X137591318Y-77882379D01*
X137557010Y-77769279D01*
X137501296Y-77665045D01*
X137426317Y-77573683D01*
X137334955Y-77498704D01*
X137230721Y-77442990D01*
X137117621Y-77408682D01*
X137000000Y-77397097D01*
X135249122Y-77397097D01*
X135211571Y-77208311D01*
X135136189Y-77026322D01*
X135026751Y-76862537D01*
X134887463Y-76723249D01*
X134723678Y-76613811D01*
X134541689Y-76538429D01*
X134348491Y-76500000D01*
X134151509Y-76500000D01*
X133958311Y-76538429D01*
X133776322Y-76613811D01*
X133612537Y-76723249D01*
X133473249Y-76862537D01*
X133363811Y-77026322D01*
X133288429Y-77208311D01*
X133250000Y-77401509D01*
X133250000Y-77598491D01*
X133288429Y-77791689D01*
X133363811Y-77973678D01*
X133473249Y-78137463D01*
X133525001Y-78189215D01*
X133525001Y-78714393D01*
X133521494Y-78750000D01*
X133525001Y-78785607D01*
X133535492Y-78892125D01*
X133539318Y-78904737D01*
X133576947Y-79028787D01*
X133644269Y-79154736D01*
X133712170Y-79237474D01*
X133712173Y-79237477D01*
X133734869Y-79265132D01*
X133762524Y-79287828D01*
X133962168Y-79487472D01*
X133984868Y-79515132D01*
X134095263Y-79605731D01*
X134221212Y-79673053D01*
X134357875Y-79714509D01*
X134397097Y-79718372D01*
X134397097Y-80000000D01*
X134408682Y-80117621D01*
X134442990Y-80230721D01*
X134498704Y-80334955D01*
X134573683Y-80426317D01*
X134665045Y-80501296D01*
X134756164Y-80550000D01*
X124725305Y-80550000D01*
X124737482Y-80537823D01*
X124765131Y-80515132D01*
X124787823Y-80487482D01*
X124787830Y-80487475D01*
X124816202Y-80452903D01*
X125060000Y-80452903D01*
X125177621Y-80441318D01*
X125290721Y-80407010D01*
X125394955Y-80351296D01*
X125486317Y-80276317D01*
X125561296Y-80184955D01*
X125617010Y-80080721D01*
X125651318Y-79967621D01*
X125653870Y-79941709D01*
X125843647Y-79941709D01*
X125913939Y-80193272D01*
X126162799Y-80333451D01*
X126434224Y-80422386D01*
X126717786Y-80456660D01*
X127002586Y-80434956D01*
X127277678Y-80358106D01*
X127532492Y-80229065D01*
X127586061Y-80193272D01*
X127656353Y-79941709D01*
X126750000Y-79035355D01*
X125843647Y-79941709D01*
X125653870Y-79941709D01*
X125661395Y-79865307D01*
X125808291Y-79906353D01*
X126714645Y-79000000D01*
X126785355Y-79000000D01*
X127691709Y-79906353D01*
X127943272Y-79836061D01*
X128083451Y-79587201D01*
X128172386Y-79315776D01*
X128206660Y-79032214D01*
X128184956Y-78747414D01*
X128108106Y-78472322D01*
X127979065Y-78217508D01*
X127943272Y-78163939D01*
X127691709Y-78093647D01*
X126785355Y-79000000D01*
X126714645Y-79000000D01*
X125808291Y-78093647D01*
X125661395Y-78134693D01*
X125653871Y-78058291D01*
X125843647Y-78058291D01*
X126750000Y-78964645D01*
X127656353Y-78058291D01*
X127586061Y-77806728D01*
X127337201Y-77666549D01*
X127065776Y-77577614D01*
X126782214Y-77543340D01*
X126497414Y-77565044D01*
X126222322Y-77641894D01*
X125967508Y-77770935D01*
X125913939Y-77806728D01*
X125843647Y-78058291D01*
X125653871Y-78058291D01*
X125651318Y-78032379D01*
X125617010Y-77919279D01*
X125561296Y-77815045D01*
X125486317Y-77723683D01*
X125394955Y-77648704D01*
X125290721Y-77592990D01*
X125177621Y-77558682D01*
X125060000Y-77547097D01*
X123360000Y-77547097D01*
X123242379Y-77558682D01*
X123129279Y-77592990D01*
X123025045Y-77648704D01*
X122940000Y-77718499D01*
X122854955Y-77648704D01*
X122750721Y-77592990D01*
X122637621Y-77558682D01*
X122520000Y-77547097D01*
X120820000Y-77547097D01*
X120702379Y-77558682D01*
X120589279Y-77592990D01*
X120485045Y-77648704D01*
X120400000Y-77718499D01*
X120314955Y-77648704D01*
X120210721Y-77592990D01*
X120097621Y-77558682D01*
X119980000Y-77547097D01*
X118475000Y-77547097D01*
X118475000Y-76259471D01*
X118674321Y-76126289D01*
X118847275Y-75953335D01*
X118848682Y-75967621D01*
X118882990Y-76080721D01*
X118938704Y-76184955D01*
X119013683Y-76276317D01*
X119105045Y-76351296D01*
X119209279Y-76407010D01*
X119322379Y-76441318D01*
X119440000Y-76452903D01*
X121140000Y-76452903D01*
X121257621Y-76441318D01*
X121370721Y-76407010D01*
X121474955Y-76351296D01*
X121560000Y-76281501D01*
X121645045Y-76351296D01*
X121749279Y-76407010D01*
X121862379Y-76441318D01*
X121980000Y-76452903D01*
X123680000Y-76452903D01*
X123797621Y-76441318D01*
X123910721Y-76407010D01*
X124014955Y-76351296D01*
X124100000Y-76281501D01*
X124185045Y-76351296D01*
X124289279Y-76407010D01*
X124402379Y-76441318D01*
X124520000Y-76452903D01*
X126220000Y-76452903D01*
X126337621Y-76441318D01*
X126450721Y-76407010D01*
X126554955Y-76351296D01*
X126640000Y-76281501D01*
X126725045Y-76351296D01*
X126829279Y-76407010D01*
X126942379Y-76441318D01*
X127060000Y-76452903D01*
X128760000Y-76452903D01*
X128877621Y-76441318D01*
X128990721Y-76407010D01*
X129094955Y-76351296D01*
X129180000Y-76281501D01*
X129265045Y-76351296D01*
X129369279Y-76407010D01*
X129482379Y-76441318D01*
X129600000Y-76452903D01*
X131300000Y-76452903D01*
X131417621Y-76441318D01*
X131530721Y-76407010D01*
X131634955Y-76351296D01*
X131720000Y-76281501D01*
X131805045Y-76351296D01*
X131909279Y-76407010D01*
X132022379Y-76441318D01*
X132140000Y-76452903D01*
X133840000Y-76452903D01*
X133957621Y-76441318D01*
X134070721Y-76407010D01*
X134174955Y-76351296D01*
X134260000Y-76281501D01*
X134345045Y-76351296D01*
X134449279Y-76407010D01*
X134562379Y-76441318D01*
X134680000Y-76452903D01*
X136380000Y-76452903D01*
X136497621Y-76441318D01*
X136610721Y-76407010D01*
X136714955Y-76351296D01*
X136800000Y-76281501D01*
X136885045Y-76351296D01*
X136989279Y-76407010D01*
X137102379Y-76441318D01*
X137220000Y-76452903D01*
X138920000Y-76452903D01*
X139037621Y-76441318D01*
X139150721Y-76407010D01*
X139254955Y-76351296D01*
X139340000Y-76281501D01*
X139425045Y-76351296D01*
X139529279Y-76407010D01*
X139642379Y-76441318D01*
X139760000Y-76452903D01*
X141460000Y-76452903D01*
X141577621Y-76441318D01*
X141690721Y-76407010D01*
X141794955Y-76351296D01*
X141880000Y-76281501D01*
X141965045Y-76351296D01*
X142069279Y-76407010D01*
X142182379Y-76441318D01*
X142300000Y-76452903D01*
X144000000Y-76452903D01*
X144117621Y-76441318D01*
X144230721Y-76407010D01*
X144334955Y-76351296D01*
X144420000Y-76281501D01*
X144505045Y-76351296D01*
X144609279Y-76407010D01*
X144722379Y-76441318D01*
X144840000Y-76452903D01*
X146540000Y-76452903D01*
X146657621Y-76441318D01*
X146770721Y-76407010D01*
X146874955Y-76351296D01*
X146960000Y-76281501D01*
X147045045Y-76351296D01*
X147149279Y-76407010D01*
X147262379Y-76441318D01*
X147380000Y-76452903D01*
X149080000Y-76452903D01*
X149197621Y-76441318D01*
X149310721Y-76407010D01*
X149414955Y-76351296D01*
X149500000Y-76281501D01*
X149585045Y-76351296D01*
X149689279Y-76407010D01*
X149802379Y-76441318D01*
X149920000Y-76452903D01*
X151620000Y-76452903D01*
X151737621Y-76441318D01*
X151850721Y-76407010D01*
X151954955Y-76351296D01*
X152040000Y-76281501D01*
X152125045Y-76351296D01*
X152229279Y-76407010D01*
X152342379Y-76441318D01*
X152460000Y-76452903D01*
X154160000Y-76452903D01*
X154277621Y-76441318D01*
X154390721Y-76407010D01*
X154494955Y-76351296D01*
X154580000Y-76281501D01*
X154665045Y-76351296D01*
X154769279Y-76407010D01*
X154882379Y-76441318D01*
X155000000Y-76452903D01*
X156700000Y-76452903D01*
X156817621Y-76441318D01*
X156930721Y-76407010D01*
X157034955Y-76351296D01*
X157120000Y-76281501D01*
X157205045Y-76351296D01*
X157309279Y-76407010D01*
X157422379Y-76441318D01*
X157540000Y-76452903D01*
X159240000Y-76452903D01*
X159357621Y-76441318D01*
X159470721Y-76407010D01*
X159574955Y-76351296D01*
X159660000Y-76281501D01*
X159745045Y-76351296D01*
X159849279Y-76407010D01*
X159962379Y-76441318D01*
X160080000Y-76452903D01*
X161780000Y-76452903D01*
X161897621Y-76441318D01*
X162010721Y-76407010D01*
X162114955Y-76351296D01*
X162200000Y-76281501D01*
X162285045Y-76351296D01*
X162389279Y-76407010D01*
X162502379Y-76441318D01*
X162620000Y-76452903D01*
X164320000Y-76452903D01*
X164437621Y-76441318D01*
X164550721Y-76407010D01*
X164654955Y-76351296D01*
X164740000Y-76281501D01*
X164825045Y-76351296D01*
X164929279Y-76407010D01*
X165042379Y-76441318D01*
X165160000Y-76452903D01*
X166860000Y-76452903D01*
X166977621Y-76441318D01*
X167090721Y-76407010D01*
X167194955Y-76351296D01*
X167286317Y-76276317D01*
X167361296Y-76184955D01*
X167417010Y-76080721D01*
X167451318Y-75967621D01*
X167462903Y-75850000D01*
X167462903Y-74150000D01*
X167451318Y-74032379D01*
X167417010Y-73919279D01*
X167361296Y-73815045D01*
X167286317Y-73723683D01*
X167194955Y-73648704D01*
X167090721Y-73592990D01*
X166977621Y-73558682D01*
X166860000Y-73547097D01*
X166725000Y-73547097D01*
X166725000Y-68550304D01*
X168487477Y-66787828D01*
X168515132Y-66765132D01*
X168550537Y-66721992D01*
X168605731Y-66654737D01*
X168673053Y-66528788D01*
X168683519Y-66494285D01*
X168714509Y-66392125D01*
X168725000Y-66285607D01*
X168725000Y-66285598D01*
X168728506Y-66250001D01*
X168725000Y-66214404D01*
X168725000Y-57939214D01*
X168776751Y-57887463D01*
X168886189Y-57723678D01*
X168900000Y-57690335D01*
X168900000Y-78380000D01*
G36*
X102358704Y-45434955D02*
G01*
X102428499Y-45520000D01*
X102358704Y-45605045D01*
X102302990Y-45709279D01*
X102268682Y-45822379D01*
X102257097Y-45940000D01*
X102257097Y-47640000D01*
X102268682Y-47757621D01*
X102302990Y-47870721D01*
X102358704Y-47974955D01*
X102428499Y-48060000D01*
X102358704Y-48145045D01*
X102302990Y-48249279D01*
X102268682Y-48362379D01*
X102257097Y-48480000D01*
X102257097Y-50180000D01*
X102268682Y-50297621D01*
X102302990Y-50410721D01*
X102358704Y-50514955D01*
X102433683Y-50606317D01*
X102525045Y-50681296D01*
X102629279Y-50737010D01*
X102742379Y-50771318D01*
X102860000Y-50782903D01*
X104560000Y-50782903D01*
X104677621Y-50771318D01*
X104790721Y-50737010D01*
X104894955Y-50681296D01*
X104980000Y-50611501D01*
X105065045Y-50681296D01*
X105169279Y-50737010D01*
X105282379Y-50771318D01*
X105400000Y-50782903D01*
X105525001Y-50782903D01*
X105525000Y-61714403D01*
X105521494Y-61750000D01*
X105525000Y-61785597D01*
X105525000Y-61785606D01*
X105535491Y-61892124D01*
X105576947Y-62028787D01*
X105644269Y-62154736D01*
X105734868Y-62265131D01*
X105762524Y-62287828D01*
X108525001Y-65050306D01*
X108525000Y-69310786D01*
X108473249Y-69362537D01*
X108363811Y-69526322D01*
X108288429Y-69708311D01*
X108250000Y-69901509D01*
X108250000Y-70098491D01*
X108288429Y-70291689D01*
X108363811Y-70473678D01*
X108473249Y-70637463D01*
X108612537Y-70776751D01*
X108776322Y-70886189D01*
X108958311Y-70961571D01*
X109151509Y-71000000D01*
X109348491Y-71000000D01*
X109541689Y-70961571D01*
X109723678Y-70886189D01*
X109887463Y-70776751D01*
X110026751Y-70637463D01*
X110136189Y-70473678D01*
X110211571Y-70291689D01*
X110250000Y-70098491D01*
X110250000Y-69901509D01*
X110211571Y-69708311D01*
X110136189Y-69526322D01*
X110026751Y-69362537D01*
X109975000Y-69310786D01*
X109975000Y-64785597D01*
X109978506Y-64750000D01*
X109975000Y-64714403D01*
X109975000Y-64714393D01*
X109964509Y-64607875D01*
X109923053Y-64471212D01*
X109855731Y-64345263D01*
X109787830Y-64262525D01*
X109787828Y-64262523D01*
X109765132Y-64234868D01*
X109737477Y-64212172D01*
X106975000Y-61449696D01*
X106975000Y-50782903D01*
X107100000Y-50782903D01*
X107217621Y-50771318D01*
X107330721Y-50737010D01*
X107434955Y-50681296D01*
X107526317Y-50606317D01*
X107601296Y-50514955D01*
X107657010Y-50410721D01*
X107691318Y-50297621D01*
X107702903Y-50180000D01*
X107702903Y-48480000D01*
X107691318Y-48362379D01*
X107657010Y-48249279D01*
X107601296Y-48145045D01*
X107531501Y-48060000D01*
X107601296Y-47974955D01*
X107657010Y-47870721D01*
X107691318Y-47757621D01*
X107702903Y-47640000D01*
X107702903Y-47515000D01*
X108239696Y-47515000D01*
X108413735Y-47689039D01*
X108362537Y-47723249D01*
X108223249Y-47862537D01*
X108113811Y-48026322D01*
X108038429Y-48208311D01*
X108000000Y-48401509D01*
X108000000Y-48598491D01*
X108038429Y-48791689D01*
X108113811Y-48973678D01*
X108223249Y-49137463D01*
X108275000Y-49189214D01*
X108275001Y-52214393D01*
X108271494Y-52250000D01*
X108285492Y-52392124D01*
X108326947Y-52528787D01*
X108394269Y-52654736D01*
X108462170Y-52737474D01*
X108462173Y-52737477D01*
X108484869Y-52765132D01*
X108512523Y-52787827D01*
X113962172Y-58237477D01*
X113984868Y-58265132D01*
X114012523Y-58287828D01*
X114012525Y-58287830D01*
X114082508Y-58345263D01*
X114095263Y-58355731D01*
X114221212Y-58423053D01*
X114357875Y-58464509D01*
X114464393Y-58475000D01*
X114464400Y-58475000D01*
X114500000Y-58478506D01*
X114535600Y-58475000D01*
X115964403Y-58475000D01*
X116000000Y-58478506D01*
X116035597Y-58475000D01*
X116035607Y-58475000D01*
X116142125Y-58464509D01*
X116278788Y-58423053D01*
X116404737Y-58355731D01*
X116515132Y-58265132D01*
X116537832Y-58237472D01*
X116800305Y-57975000D01*
X119360786Y-57975000D01*
X119223249Y-58112537D01*
X119113811Y-58276322D01*
X119038429Y-58458311D01*
X119000000Y-58651509D01*
X119000000Y-58848491D01*
X119038429Y-59041689D01*
X119113811Y-59223678D01*
X119223249Y-59387463D01*
X119275001Y-59439215D01*
X119275000Y-63310786D01*
X119223249Y-63362537D01*
X119113811Y-63526322D01*
X119038429Y-63708311D01*
X119000000Y-63901509D01*
X119000000Y-64098491D01*
X119038429Y-64291689D01*
X119113811Y-64473678D01*
X119223249Y-64637463D01*
X119362537Y-64776751D01*
X119526322Y-64886189D01*
X119708311Y-64961571D01*
X119901509Y-65000000D01*
X120098491Y-65000000D01*
X120291689Y-64961571D01*
X120473678Y-64886189D01*
X120637463Y-64776751D01*
X120776751Y-64637463D01*
X120886189Y-64473678D01*
X120961571Y-64291689D01*
X121000000Y-64098491D01*
X121000000Y-63901509D01*
X120961571Y-63708311D01*
X120886189Y-63526322D01*
X120776751Y-63362537D01*
X120725000Y-63310786D01*
X120725000Y-59439214D01*
X120776751Y-59387463D01*
X120886189Y-59223678D01*
X120961571Y-59041689D01*
X121000000Y-58848491D01*
X121000000Y-58651509D01*
X120961571Y-58458311D01*
X120886189Y-58276322D01*
X120776751Y-58112537D01*
X120639214Y-57975000D01*
X122810786Y-57975000D01*
X122862537Y-58026751D01*
X123026322Y-58136189D01*
X123208311Y-58211571D01*
X123401509Y-58250000D01*
X123598491Y-58250000D01*
X123775000Y-58214891D01*
X123775001Y-64600803D01*
X123771494Y-64636410D01*
X123775001Y-64672017D01*
X123785492Y-64778535D01*
X123798067Y-64819990D01*
X123826947Y-64915197D01*
X123894269Y-65041146D01*
X123962170Y-65123884D01*
X123962173Y-65123887D01*
X123984869Y-65151542D01*
X124012523Y-65174237D01*
X125819320Y-66981035D01*
X125819325Y-66981039D01*
X126694320Y-67856035D01*
X126694325Y-67856039D01*
X127275000Y-68436715D01*
X127275001Y-73547097D01*
X127060000Y-73547097D01*
X126942379Y-73558682D01*
X126829279Y-73592990D01*
X126725045Y-73648704D01*
X126640000Y-73718499D01*
X126554955Y-73648704D01*
X126450721Y-73592990D01*
X126337621Y-73558682D01*
X126220000Y-73547097D01*
X124520000Y-73547097D01*
X124402379Y-73558682D01*
X124289279Y-73592990D01*
X124185045Y-73648704D01*
X124100000Y-73718499D01*
X124014955Y-73648704D01*
X123910721Y-73592990D01*
X123797621Y-73558682D01*
X123680000Y-73547097D01*
X121980000Y-73547097D01*
X121862379Y-73558682D01*
X121749279Y-73592990D01*
X121645045Y-73648704D01*
X121560000Y-73718499D01*
X121474955Y-73648704D01*
X121370721Y-73592990D01*
X121257621Y-73558682D01*
X121140000Y-73547097D01*
X119440000Y-73547097D01*
X119322379Y-73558682D01*
X119209279Y-73592990D01*
X119105045Y-73648704D01*
X119013683Y-73723683D01*
X118938704Y-73815045D01*
X118882990Y-73919279D01*
X118848682Y-74032379D01*
X118847275Y-74046665D01*
X118674321Y-73873711D01*
X118436833Y-73715027D01*
X118172949Y-73605723D01*
X117892813Y-73550000D01*
X117607187Y-73550000D01*
X117327051Y-73605723D01*
X117063167Y-73715027D01*
X116825679Y-73873711D01*
X116623711Y-74075679D01*
X116465027Y-74313167D01*
X116355723Y-74577051D01*
X116300000Y-74857187D01*
X116300000Y-75142813D01*
X116355723Y-75422949D01*
X116465027Y-75686833D01*
X116623711Y-75924321D01*
X116825679Y-76126289D01*
X117025001Y-76259471D01*
X117025000Y-78684403D01*
X117021494Y-78720000D01*
X117025000Y-78755597D01*
X117025000Y-78755606D01*
X117035491Y-78862124D01*
X117073515Y-78987474D01*
X117076947Y-78998787D01*
X117144269Y-79124736D01*
X117185520Y-79175000D01*
X117234868Y-79235131D01*
X117262524Y-79257828D01*
X117492168Y-79487472D01*
X117514868Y-79515132D01*
X117526892Y-79525000D01*
X114072903Y-79525000D01*
X114072903Y-78150000D01*
X114061318Y-78032379D01*
X114027010Y-77919279D01*
X113971296Y-77815045D01*
X113896317Y-77723683D01*
X113804955Y-77648704D01*
X113700721Y-77592990D01*
X113587621Y-77558682D01*
X113470000Y-77547097D01*
X111770000Y-77547097D01*
X111652379Y-77558682D01*
X111539279Y-77592990D01*
X111435045Y-77648704D01*
X111350000Y-77718499D01*
X111264955Y-77648704D01*
X111160721Y-77592990D01*
X111047621Y-77558682D01*
X110930000Y-77547097D01*
X110255000Y-77550000D01*
X110105000Y-77700000D01*
X110105000Y-78975000D01*
X110125000Y-78975000D01*
X110125000Y-79025000D01*
X110105000Y-79025000D01*
X110105000Y-79045000D01*
X110055000Y-79045000D01*
X110055000Y-79025000D01*
X110035000Y-79025000D01*
X110035000Y-78975000D01*
X110055000Y-78975000D01*
X110055000Y-77700000D01*
X109905000Y-77550000D01*
X109230000Y-77547097D01*
X109112379Y-77558682D01*
X108999279Y-77592990D01*
X108895045Y-77648704D01*
X108810000Y-77718499D01*
X108724955Y-77648704D01*
X108620721Y-77592990D01*
X108507621Y-77558682D01*
X108390000Y-77547097D01*
X107478207Y-77547097D01*
X112237482Y-72787823D01*
X112265131Y-72765132D01*
X112287823Y-72737482D01*
X112287830Y-72737475D01*
X112355732Y-72654737D01*
X112423053Y-72528788D01*
X112428284Y-72511542D01*
X112464509Y-72392125D01*
X112475000Y-72285607D01*
X112475000Y-72285600D01*
X112478506Y-72250000D01*
X112475000Y-72214400D01*
X112475000Y-70689214D01*
X112526751Y-70637463D01*
X112636189Y-70473678D01*
X112711571Y-70291689D01*
X112750000Y-70098491D01*
X112750000Y-69901509D01*
X112711571Y-69708311D01*
X112636189Y-69526322D01*
X112526751Y-69362537D01*
X112387463Y-69223249D01*
X112280097Y-69151509D01*
X118000000Y-69151509D01*
X118000000Y-69348491D01*
X118038429Y-69541689D01*
X118113811Y-69723678D01*
X118223249Y-69887463D01*
X118362537Y-70026751D01*
X118526322Y-70136189D01*
X118708311Y-70211571D01*
X118901509Y-70250000D01*
X119098491Y-70250000D01*
X119291689Y-70211571D01*
X119473678Y-70136189D01*
X119637463Y-70026751D01*
X119689214Y-69975000D01*
X120810786Y-69975000D01*
X120862537Y-70026751D01*
X121026322Y-70136189D01*
X121208311Y-70211571D01*
X121401509Y-70250000D01*
X121598491Y-70250000D01*
X121791689Y-70211571D01*
X121973678Y-70136189D01*
X122137463Y-70026751D01*
X122276751Y-69887463D01*
X122386189Y-69723678D01*
X122461571Y-69541689D01*
X122500000Y-69348491D01*
X122500000Y-69151509D01*
X122461571Y-68958311D01*
X122386189Y-68776322D01*
X122276751Y-68612537D01*
X122137463Y-68473249D01*
X121973678Y-68363811D01*
X121791689Y-68288429D01*
X121598491Y-68250000D01*
X121401509Y-68250000D01*
X121208311Y-68288429D01*
X121026322Y-68363811D01*
X120862537Y-68473249D01*
X120810786Y-68525000D01*
X119689214Y-68525000D01*
X119637463Y-68473249D01*
X119473678Y-68363811D01*
X119291689Y-68288429D01*
X119098491Y-68250000D01*
X118901509Y-68250000D01*
X118708311Y-68288429D01*
X118526322Y-68363811D01*
X118362537Y-68473249D01*
X118223249Y-68612537D01*
X118113811Y-68776322D01*
X118038429Y-68958311D01*
X118000000Y-69151509D01*
X112280097Y-69151509D01*
X112223678Y-69113811D01*
X112041689Y-69038429D01*
X111848491Y-69000000D01*
X111651509Y-69000000D01*
X111458311Y-69038429D01*
X111276322Y-69113811D01*
X111112537Y-69223249D01*
X110973249Y-69362537D01*
X110863811Y-69526322D01*
X110788429Y-69708311D01*
X110750000Y-69901509D01*
X110750000Y-70098491D01*
X110788429Y-70291689D01*
X110863811Y-70473678D01*
X110973249Y-70637463D01*
X111025001Y-70689215D01*
X111025000Y-71949695D01*
X105377928Y-77596768D01*
X105142813Y-77550000D01*
X104857187Y-77550000D01*
X104577051Y-77605723D01*
X104313167Y-77715027D01*
X104075679Y-77873711D01*
X103873711Y-78075679D01*
X103715027Y-78313167D01*
X103605723Y-78577051D01*
X103550000Y-78857187D01*
X103550000Y-79142813D01*
X103605723Y-79422949D01*
X103715027Y-79686833D01*
X103873711Y-79924321D01*
X104075679Y-80126289D01*
X104277297Y-80261005D01*
X104285491Y-80344205D01*
X104318464Y-80452903D01*
X104326947Y-80480868D01*
X104363899Y-80550000D01*
X102098752Y-80550000D01*
X101994700Y-63901509D01*
X102750000Y-63901509D01*
X102750000Y-64098491D01*
X102788429Y-64291689D01*
X102863811Y-64473678D01*
X102973249Y-64637463D01*
X103112537Y-64776751D01*
X103276322Y-64886189D01*
X103458311Y-64961571D01*
X103651509Y-65000000D01*
X103724696Y-65000000D01*
X105080775Y-66356079D01*
X105038429Y-66458311D01*
X105000000Y-66651509D01*
X105000000Y-66848491D01*
X105038429Y-67041689D01*
X105113811Y-67223678D01*
X105223249Y-67387463D01*
X105362537Y-67526751D01*
X105526322Y-67636189D01*
X105708311Y-67711571D01*
X105901509Y-67750000D01*
X106098491Y-67750000D01*
X106291689Y-67711571D01*
X106473678Y-67636189D01*
X106637463Y-67526751D01*
X106776751Y-67387463D01*
X106886189Y-67223678D01*
X106961571Y-67041689D01*
X107000000Y-66848491D01*
X107000000Y-66651509D01*
X106961571Y-66458311D01*
X106886189Y-66276322D01*
X106776751Y-66112537D01*
X106689437Y-66025223D01*
X106673053Y-65971212D01*
X106664778Y-65955730D01*
X106605732Y-65845263D01*
X106537830Y-65762525D01*
X106537823Y-65762518D01*
X106515131Y-65734868D01*
X106487482Y-65712177D01*
X104750000Y-63974696D01*
X104750000Y-63901509D01*
X104711571Y-63708311D01*
X104636189Y-63526322D01*
X104526751Y-63362537D01*
X104387463Y-63223249D01*
X104223678Y-63113811D01*
X104041689Y-63038429D01*
X103848491Y-63000000D01*
X103651509Y-63000000D01*
X103458311Y-63038429D01*
X103276322Y-63113811D01*
X103112537Y-63223249D01*
X102973249Y-63362537D01*
X102863811Y-63526322D01*
X102788429Y-63708311D01*
X102750000Y-63901509D01*
X101994700Y-63901509D01*
X101882147Y-45893157D01*
X102352311Y-45422994D01*
X102358704Y-45434955D01*
X102358704Y-45434955D01*
G37*
X102358704Y-45434955D02*
X102428499Y-45520000D01*
X102358704Y-45605045D01*
X102302990Y-45709279D01*
X102268682Y-45822379D01*
X102257097Y-45940000D01*
X102257097Y-47640000D01*
X102268682Y-47757621D01*
X102302990Y-47870721D01*
X102358704Y-47974955D01*
X102428499Y-48060000D01*
X102358704Y-48145045D01*
X102302990Y-48249279D01*
X102268682Y-48362379D01*
X102257097Y-48480000D01*
X102257097Y-50180000D01*
X102268682Y-50297621D01*
X102302990Y-50410721D01*
X102358704Y-50514955D01*
X102433683Y-50606317D01*
X102525045Y-50681296D01*
X102629279Y-50737010D01*
X102742379Y-50771318D01*
X102860000Y-50782903D01*
X104560000Y-50782903D01*
X104677621Y-50771318D01*
X104790721Y-50737010D01*
X104894955Y-50681296D01*
X104980000Y-50611501D01*
X105065045Y-50681296D01*
X105169279Y-50737010D01*
X105282379Y-50771318D01*
X105400000Y-50782903D01*
X105525001Y-50782903D01*
X105525000Y-61714403D01*
X105521494Y-61750000D01*
X105525000Y-61785597D01*
X105525000Y-61785606D01*
X105535491Y-61892124D01*
X105576947Y-62028787D01*
X105644269Y-62154736D01*
X105734868Y-62265131D01*
X105762524Y-62287828D01*
X108525001Y-65050306D01*
X108525000Y-69310786D01*
X108473249Y-69362537D01*
X108363811Y-69526322D01*
X108288429Y-69708311D01*
X108250000Y-69901509D01*
X108250000Y-70098491D01*
X108288429Y-70291689D01*
X108363811Y-70473678D01*
X108473249Y-70637463D01*
X108612537Y-70776751D01*
X108776322Y-70886189D01*
X108958311Y-70961571D01*
X109151509Y-71000000D01*
X109348491Y-71000000D01*
X109541689Y-70961571D01*
X109723678Y-70886189D01*
X109887463Y-70776751D01*
X110026751Y-70637463D01*
X110136189Y-70473678D01*
X110211571Y-70291689D01*
X110250000Y-70098491D01*
X110250000Y-69901509D01*
X110211571Y-69708311D01*
X110136189Y-69526322D01*
X110026751Y-69362537D01*
X109975000Y-69310786D01*
X109975000Y-64785597D01*
X109978506Y-64750000D01*
X109975000Y-64714403D01*
X109975000Y-64714393D01*
X109964509Y-64607875D01*
X109923053Y-64471212D01*
X109855731Y-64345263D01*
X109787830Y-64262525D01*
X109787828Y-64262523D01*
X109765132Y-64234868D01*
X109737477Y-64212172D01*
X106975000Y-61449696D01*
X106975000Y-50782903D01*
X107100000Y-50782903D01*
X107217621Y-50771318D01*
X107330721Y-50737010D01*
X107434955Y-50681296D01*
X107526317Y-50606317D01*
X107601296Y-50514955D01*
X107657010Y-50410721D01*
X107691318Y-50297621D01*
X107702903Y-50180000D01*
X107702903Y-48480000D01*
X107691318Y-48362379D01*
X107657010Y-48249279D01*
X107601296Y-48145045D01*
X107531501Y-48060000D01*
X107601296Y-47974955D01*
X107657010Y-47870721D01*
X107691318Y-47757621D01*
X107702903Y-47640000D01*
X107702903Y-47515000D01*
X108239696Y-47515000D01*
X108413735Y-47689039D01*
X108362537Y-47723249D01*
X108223249Y-47862537D01*
X108113811Y-48026322D01*
X108038429Y-48208311D01*
X108000000Y-48401509D01*
X108000000Y-48598491D01*
X108038429Y-48791689D01*
X108113811Y-48973678D01*
X108223249Y-49137463D01*
X108275000Y-49189214D01*
X108275001Y-52214393D01*
X108271494Y-52250000D01*
X108285492Y-52392124D01*
X108326947Y-52528787D01*
X108394269Y-52654736D01*
X108462170Y-52737474D01*
X108462173Y-52737477D01*
X108484869Y-52765132D01*
X108512523Y-52787827D01*
X113962172Y-58237477D01*
X113984868Y-58265132D01*
X114012523Y-58287828D01*
X114012525Y-58287830D01*
X114082508Y-58345263D01*
X114095263Y-58355731D01*
X114221212Y-58423053D01*
X114357875Y-58464509D01*
X114464393Y-58475000D01*
X114464400Y-58475000D01*
X114500000Y-58478506D01*
X114535600Y-58475000D01*
X115964403Y-58475000D01*
X116000000Y-58478506D01*
X116035597Y-58475000D01*
X116035607Y-58475000D01*
X116142125Y-58464509D01*
X116278788Y-58423053D01*
X116404737Y-58355731D01*
X116515132Y-58265132D01*
X116537832Y-58237472D01*
X116800305Y-57975000D01*
X119360786Y-57975000D01*
X119223249Y-58112537D01*
X119113811Y-58276322D01*
X119038429Y-58458311D01*
X119000000Y-58651509D01*
X119000000Y-58848491D01*
X119038429Y-59041689D01*
X119113811Y-59223678D01*
X119223249Y-59387463D01*
X119275001Y-59439215D01*
X119275000Y-63310786D01*
X119223249Y-63362537D01*
X119113811Y-63526322D01*
X119038429Y-63708311D01*
X119000000Y-63901509D01*
X119000000Y-64098491D01*
X119038429Y-64291689D01*
X119113811Y-64473678D01*
X119223249Y-64637463D01*
X119362537Y-64776751D01*
X119526322Y-64886189D01*
X119708311Y-64961571D01*
X119901509Y-65000000D01*
X120098491Y-65000000D01*
X120291689Y-64961571D01*
X120473678Y-64886189D01*
X120637463Y-64776751D01*
X120776751Y-64637463D01*
X120886189Y-64473678D01*
X120961571Y-64291689D01*
X121000000Y-64098491D01*
X121000000Y-63901509D01*
X120961571Y-63708311D01*
X120886189Y-63526322D01*
X120776751Y-63362537D01*
X120725000Y-63310786D01*
X120725000Y-59439214D01*
X120776751Y-59387463D01*
X120886189Y-59223678D01*
X120961571Y-59041689D01*
X121000000Y-58848491D01*
X121000000Y-58651509D01*
X120961571Y-58458311D01*
X120886189Y-58276322D01*
X120776751Y-58112537D01*
X120639214Y-57975000D01*
X122810786Y-57975000D01*
X122862537Y-58026751D01*
X123026322Y-58136189D01*
X123208311Y-58211571D01*
X123401509Y-58250000D01*
X123598491Y-58250000D01*
X123775000Y-58214891D01*
X123775001Y-64600803D01*
X123771494Y-64636410D01*
X123775001Y-64672017D01*
X123785492Y-64778535D01*
X123798067Y-64819990D01*
X123826947Y-64915197D01*
X123894269Y-65041146D01*
X123962170Y-65123884D01*
X123962173Y-65123887D01*
X123984869Y-65151542D01*
X124012523Y-65174237D01*
X125819320Y-66981035D01*
X125819325Y-66981039D01*
X126694320Y-67856035D01*
X126694325Y-67856039D01*
X127275000Y-68436715D01*
X127275001Y-73547097D01*
X127060000Y-73547097D01*
X126942379Y-73558682D01*
X126829279Y-73592990D01*
X126725045Y-73648704D01*
X126640000Y-73718499D01*
X126554955Y-73648704D01*
X126450721Y-73592990D01*
X126337621Y-73558682D01*
X126220000Y-73547097D01*
X124520000Y-73547097D01*
X124402379Y-73558682D01*
X124289279Y-73592990D01*
X124185045Y-73648704D01*
X124100000Y-73718499D01*
X124014955Y-73648704D01*
X123910721Y-73592990D01*
X123797621Y-73558682D01*
X123680000Y-73547097D01*
X121980000Y-73547097D01*
X121862379Y-73558682D01*
X121749279Y-73592990D01*
X121645045Y-73648704D01*
X121560000Y-73718499D01*
X121474955Y-73648704D01*
X121370721Y-73592990D01*
X121257621Y-73558682D01*
X121140000Y-73547097D01*
X119440000Y-73547097D01*
X119322379Y-73558682D01*
X119209279Y-73592990D01*
X119105045Y-73648704D01*
X119013683Y-73723683D01*
X118938704Y-73815045D01*
X118882990Y-73919279D01*
X118848682Y-74032379D01*
X118847275Y-74046665D01*
X118674321Y-73873711D01*
X118436833Y-73715027D01*
X118172949Y-73605723D01*
X117892813Y-73550000D01*
X117607187Y-73550000D01*
X117327051Y-73605723D01*
X117063167Y-73715027D01*
X116825679Y-73873711D01*
X116623711Y-74075679D01*
X116465027Y-74313167D01*
X116355723Y-74577051D01*
X116300000Y-74857187D01*
X116300000Y-75142813D01*
X116355723Y-75422949D01*
X116465027Y-75686833D01*
X116623711Y-75924321D01*
X116825679Y-76126289D01*
X117025001Y-76259471D01*
X117025000Y-78684403D01*
X117021494Y-78720000D01*
X117025000Y-78755597D01*
X117025000Y-78755606D01*
X117035491Y-78862124D01*
X117073515Y-78987474D01*
X117076947Y-78998787D01*
X117144269Y-79124736D01*
X117185520Y-79175000D01*
X117234868Y-79235131D01*
X117262524Y-79257828D01*
X117492168Y-79487472D01*
X117514868Y-79515132D01*
X117526892Y-79525000D01*
X114072903Y-79525000D01*
X114072903Y-78150000D01*
X114061318Y-78032379D01*
X114027010Y-77919279D01*
X113971296Y-77815045D01*
X113896317Y-77723683D01*
X113804955Y-77648704D01*
X113700721Y-77592990D01*
X113587621Y-77558682D01*
X113470000Y-77547097D01*
X111770000Y-77547097D01*
X111652379Y-77558682D01*
X111539279Y-77592990D01*
X111435045Y-77648704D01*
X111350000Y-77718499D01*
X111264955Y-77648704D01*
X111160721Y-77592990D01*
X111047621Y-77558682D01*
X110930000Y-77547097D01*
X110255000Y-77550000D01*
X110105000Y-77700000D01*
X110105000Y-78975000D01*
X110125000Y-78975000D01*
X110125000Y-79025000D01*
X110105000Y-79025000D01*
X110105000Y-79045000D01*
X110055000Y-79045000D01*
X110055000Y-79025000D01*
X110035000Y-79025000D01*
X110035000Y-78975000D01*
X110055000Y-78975000D01*
X110055000Y-77700000D01*
X109905000Y-77550000D01*
X109230000Y-77547097D01*
X109112379Y-77558682D01*
X108999279Y-77592990D01*
X108895045Y-77648704D01*
X108810000Y-77718499D01*
X108724955Y-77648704D01*
X108620721Y-77592990D01*
X108507621Y-77558682D01*
X108390000Y-77547097D01*
X107478207Y-77547097D01*
X112237482Y-72787823D01*
X112265131Y-72765132D01*
X112287823Y-72737482D01*
X112287830Y-72737475D01*
X112355732Y-72654737D01*
X112423053Y-72528788D01*
X112428284Y-72511542D01*
X112464509Y-72392125D01*
X112475000Y-72285607D01*
X112475000Y-72285600D01*
X112478506Y-72250000D01*
X112475000Y-72214400D01*
X112475000Y-70689214D01*
X112526751Y-70637463D01*
X112636189Y-70473678D01*
X112711571Y-70291689D01*
X112750000Y-70098491D01*
X112750000Y-69901509D01*
X112711571Y-69708311D01*
X112636189Y-69526322D01*
X112526751Y-69362537D01*
X112387463Y-69223249D01*
X112280097Y-69151509D01*
X118000000Y-69151509D01*
X118000000Y-69348491D01*
X118038429Y-69541689D01*
X118113811Y-69723678D01*
X118223249Y-69887463D01*
X118362537Y-70026751D01*
X118526322Y-70136189D01*
X118708311Y-70211571D01*
X118901509Y-70250000D01*
X119098491Y-70250000D01*
X119291689Y-70211571D01*
X119473678Y-70136189D01*
X119637463Y-70026751D01*
X119689214Y-69975000D01*
X120810786Y-69975000D01*
X120862537Y-70026751D01*
X121026322Y-70136189D01*
X121208311Y-70211571D01*
X121401509Y-70250000D01*
X121598491Y-70250000D01*
X121791689Y-70211571D01*
X121973678Y-70136189D01*
X122137463Y-70026751D01*
X122276751Y-69887463D01*
X122386189Y-69723678D01*
X122461571Y-69541689D01*
X122500000Y-69348491D01*
X122500000Y-69151509D01*
X122461571Y-68958311D01*
X122386189Y-68776322D01*
X122276751Y-68612537D01*
X122137463Y-68473249D01*
X121973678Y-68363811D01*
X121791689Y-68288429D01*
X121598491Y-68250000D01*
X121401509Y-68250000D01*
X121208311Y-68288429D01*
X121026322Y-68363811D01*
X120862537Y-68473249D01*
X120810786Y-68525000D01*
X119689214Y-68525000D01*
X119637463Y-68473249D01*
X119473678Y-68363811D01*
X119291689Y-68288429D01*
X119098491Y-68250000D01*
X118901509Y-68250000D01*
X118708311Y-68288429D01*
X118526322Y-68363811D01*
X118362537Y-68473249D01*
X118223249Y-68612537D01*
X118113811Y-68776322D01*
X118038429Y-68958311D01*
X118000000Y-69151509D01*
X112280097Y-69151509D01*
X112223678Y-69113811D01*
X112041689Y-69038429D01*
X111848491Y-69000000D01*
X111651509Y-69000000D01*
X111458311Y-69038429D01*
X111276322Y-69113811D01*
X111112537Y-69223249D01*
X110973249Y-69362537D01*
X110863811Y-69526322D01*
X110788429Y-69708311D01*
X110750000Y-69901509D01*
X110750000Y-70098491D01*
X110788429Y-70291689D01*
X110863811Y-70473678D01*
X110973249Y-70637463D01*
X111025001Y-70689215D01*
X111025000Y-71949695D01*
X105377928Y-77596768D01*
X105142813Y-77550000D01*
X104857187Y-77550000D01*
X104577051Y-77605723D01*
X104313167Y-77715027D01*
X104075679Y-77873711D01*
X103873711Y-78075679D01*
X103715027Y-78313167D01*
X103605723Y-78577051D01*
X103550000Y-78857187D01*
X103550000Y-79142813D01*
X103605723Y-79422949D01*
X103715027Y-79686833D01*
X103873711Y-79924321D01*
X104075679Y-80126289D01*
X104277297Y-80261005D01*
X104285491Y-80344205D01*
X104318464Y-80452903D01*
X104326947Y-80480868D01*
X104363899Y-80550000D01*
X102098752Y-80550000D01*
X101994700Y-63901509D01*
X102750000Y-63901509D01*
X102750000Y-64098491D01*
X102788429Y-64291689D01*
X102863811Y-64473678D01*
X102973249Y-64637463D01*
X103112537Y-64776751D01*
X103276322Y-64886189D01*
X103458311Y-64961571D01*
X103651509Y-65000000D01*
X103724696Y-65000000D01*
X105080775Y-66356079D01*
X105038429Y-66458311D01*
X105000000Y-66651509D01*
X105000000Y-66848491D01*
X105038429Y-67041689D01*
X105113811Y-67223678D01*
X105223249Y-67387463D01*
X105362537Y-67526751D01*
X105526322Y-67636189D01*
X105708311Y-67711571D01*
X105901509Y-67750000D01*
X106098491Y-67750000D01*
X106291689Y-67711571D01*
X106473678Y-67636189D01*
X106637463Y-67526751D01*
X106776751Y-67387463D01*
X106886189Y-67223678D01*
X106961571Y-67041689D01*
X107000000Y-66848491D01*
X107000000Y-66651509D01*
X106961571Y-66458311D01*
X106886189Y-66276322D01*
X106776751Y-66112537D01*
X106689437Y-66025223D01*
X106673053Y-65971212D01*
X106664778Y-65955730D01*
X106605732Y-65845263D01*
X106537830Y-65762525D01*
X106537823Y-65762518D01*
X106515131Y-65734868D01*
X106487482Y-65712177D01*
X104750000Y-63974696D01*
X104750000Y-63901509D01*
X104711571Y-63708311D01*
X104636189Y-63526322D01*
X104526751Y-63362537D01*
X104387463Y-63223249D01*
X104223678Y-63113811D01*
X104041689Y-63038429D01*
X103848491Y-63000000D01*
X103651509Y-63000000D01*
X103458311Y-63038429D01*
X103276322Y-63113811D01*
X103112537Y-63223249D01*
X102973249Y-63362537D01*
X102863811Y-63526322D01*
X102788429Y-63708311D01*
X102750000Y-63901509D01*
X101994700Y-63901509D01*
X101882147Y-45893157D01*
X102352311Y-45422994D01*
X102358704Y-45434955D01*
G36*
X159745045Y-43331296D02*
G01*
X159849279Y-43387010D01*
X159962379Y-43421318D01*
X160080000Y-43432903D01*
X160249095Y-43432903D01*
X160256947Y-43458787D01*
X160324269Y-43584736D01*
X160392170Y-43667474D01*
X160392173Y-43667477D01*
X160414869Y-43695132D01*
X160442524Y-43717828D01*
X160712168Y-43987472D01*
X160734868Y-44015132D01*
X160845263Y-44105731D01*
X160971212Y-44173053D01*
X161107875Y-44214509D01*
X161214393Y-44225000D01*
X161214402Y-44225000D01*
X161249999Y-44228506D01*
X161285596Y-44225000D01*
X162699696Y-44225000D01*
X164000000Y-45525305D01*
X164000000Y-45598491D01*
X164038429Y-45791689D01*
X164113811Y-45973678D01*
X164223249Y-46137463D01*
X164362537Y-46276751D01*
X164526322Y-46386189D01*
X164708311Y-46461571D01*
X164901509Y-46500000D01*
X165098491Y-46500000D01*
X165291689Y-46461571D01*
X165473678Y-46386189D01*
X165500000Y-46368601D01*
X165526322Y-46386189D01*
X165708311Y-46461571D01*
X165901509Y-46500000D01*
X166098491Y-46500000D01*
X166291689Y-46461571D01*
X166473678Y-46386189D01*
X166500000Y-46368601D01*
X166526322Y-46386189D01*
X166708311Y-46461571D01*
X166901509Y-46500000D01*
X167098491Y-46500000D01*
X167291689Y-46461571D01*
X167473678Y-46386189D01*
X167500000Y-46368601D01*
X167526322Y-46386189D01*
X167708311Y-46461571D01*
X167901509Y-46500000D01*
X168098491Y-46500000D01*
X168291689Y-46461571D01*
X168473678Y-46386189D01*
X168637463Y-46276751D01*
X168776751Y-46137463D01*
X168886189Y-45973678D01*
X168900000Y-45940335D01*
X168900000Y-56809665D01*
X168886189Y-56776322D01*
X168776751Y-56612537D01*
X168637463Y-56473249D01*
X168473678Y-56363811D01*
X168291689Y-56288429D01*
X168098491Y-56250000D01*
X167901509Y-56250000D01*
X167708311Y-56288429D01*
X167526322Y-56363811D01*
X167500000Y-56381399D01*
X167473678Y-56363811D01*
X167291689Y-56288429D01*
X167098491Y-56250000D01*
X166901509Y-56250000D01*
X166708311Y-56288429D01*
X166526322Y-56363811D01*
X166500000Y-56381399D01*
X166473678Y-56363811D01*
X166291689Y-56288429D01*
X166098491Y-56250000D01*
X165901509Y-56250000D01*
X165708311Y-56288429D01*
X165526322Y-56363811D01*
X165500000Y-56381399D01*
X165473678Y-56363811D01*
X165291689Y-56288429D01*
X165098491Y-56250000D01*
X164901509Y-56250000D01*
X164708311Y-56288429D01*
X164526322Y-56363811D01*
X164362537Y-56473249D01*
X164223249Y-56612537D01*
X164113811Y-56776322D01*
X164038429Y-56958311D01*
X164000000Y-57151509D01*
X164000000Y-57348491D01*
X164038429Y-57541689D01*
X164113811Y-57723678D01*
X164223249Y-57887463D01*
X164275001Y-57939215D01*
X164275000Y-66989695D01*
X157902523Y-73362173D01*
X157874869Y-73384868D01*
X157852173Y-73412523D01*
X157852170Y-73412526D01*
X157784269Y-73495264D01*
X157756563Y-73547097D01*
X157540000Y-73547097D01*
X157422379Y-73558682D01*
X157309279Y-73592990D01*
X157205045Y-73648704D01*
X157120000Y-73718499D01*
X157034955Y-73648704D01*
X156930721Y-73592990D01*
X156817621Y-73558682D01*
X156700000Y-73547097D01*
X156573297Y-73547097D01*
X156564509Y-73457875D01*
X156523053Y-73321212D01*
X156455731Y-73195263D01*
X156439505Y-73175492D01*
X156387830Y-73112525D01*
X156387828Y-73112523D01*
X156365132Y-73084868D01*
X156337477Y-73062172D01*
X155225000Y-71949696D01*
X155225000Y-57939214D01*
X155276751Y-57887463D01*
X155386189Y-57723678D01*
X155461571Y-57541689D01*
X155500000Y-57348491D01*
X155500000Y-57151509D01*
X155461571Y-56958311D01*
X155386189Y-56776322D01*
X155276751Y-56612537D01*
X155137463Y-56473249D01*
X154973678Y-56363811D01*
X154791689Y-56288429D01*
X154598491Y-56250000D01*
X154401509Y-56250000D01*
X154208311Y-56288429D01*
X154026322Y-56363811D01*
X154000000Y-56381399D01*
X153973678Y-56363811D01*
X153791689Y-56288429D01*
X153598491Y-56250000D01*
X153401509Y-56250000D01*
X153208311Y-56288429D01*
X153026322Y-56363811D01*
X153000000Y-56381399D01*
X152973678Y-56363811D01*
X152791689Y-56288429D01*
X152598491Y-56250000D01*
X152401509Y-56250000D01*
X152208311Y-56288429D01*
X152026322Y-56363811D01*
X152000000Y-56381399D01*
X151973678Y-56363811D01*
X151791689Y-56288429D01*
X151598491Y-56250000D01*
X151401509Y-56250000D01*
X151208311Y-56288429D01*
X151026322Y-56363811D01*
X150862537Y-56473249D01*
X150723249Y-56612537D01*
X150613811Y-56776322D01*
X150538429Y-56958311D01*
X150500000Y-57151509D01*
X150500000Y-57348491D01*
X150538429Y-57541689D01*
X150613811Y-57723678D01*
X150723249Y-57887463D01*
X150775001Y-57939215D01*
X150775000Y-70329695D01*
X147742523Y-73362173D01*
X147714869Y-73384868D01*
X147692173Y-73412523D01*
X147692170Y-73412526D01*
X147624269Y-73495264D01*
X147596563Y-73547097D01*
X147380000Y-73547097D01*
X147262379Y-73558682D01*
X147149279Y-73592990D01*
X147045045Y-73648704D01*
X146960000Y-73718499D01*
X146874955Y-73648704D01*
X146770721Y-73592990D01*
X146657621Y-73558682D01*
X146540000Y-73547097D01*
X146323437Y-73547097D01*
X146295731Y-73495263D01*
X146270492Y-73464509D01*
X146227830Y-73412525D01*
X146227828Y-73412523D01*
X146205132Y-73384868D01*
X146177477Y-73362172D01*
X143307834Y-70492530D01*
X143307830Y-70492525D01*
X141725000Y-68909696D01*
X141725000Y-57939214D01*
X141776751Y-57887463D01*
X141886189Y-57723678D01*
X141961571Y-57541689D01*
X142000000Y-57348491D01*
X142000000Y-57151509D01*
X141961571Y-56958311D01*
X141886189Y-56776322D01*
X141776751Y-56612537D01*
X141637463Y-56473249D01*
X141473678Y-56363811D01*
X141291689Y-56288429D01*
X141098491Y-56250000D01*
X140901509Y-56250000D01*
X140708311Y-56288429D01*
X140526322Y-56363811D01*
X140500000Y-56381399D01*
X140473678Y-56363811D01*
X140291689Y-56288429D01*
X140098491Y-56250000D01*
X139901509Y-56250000D01*
X139708311Y-56288429D01*
X139526322Y-56363811D01*
X139500000Y-56381399D01*
X139473678Y-56363811D01*
X139291689Y-56288429D01*
X139098491Y-56250000D01*
X138901509Y-56250000D01*
X138708311Y-56288429D01*
X138526322Y-56363811D01*
X138500000Y-56381399D01*
X138473678Y-56363811D01*
X138291689Y-56288429D01*
X138098491Y-56250000D01*
X137901509Y-56250000D01*
X137708311Y-56288429D01*
X137526322Y-56363811D01*
X137362537Y-56473249D01*
X137223249Y-56612537D01*
X137113811Y-56776322D01*
X137038429Y-56958311D01*
X137000000Y-57151509D01*
X137000000Y-57348491D01*
X137038429Y-57541689D01*
X137113811Y-57723678D01*
X137223249Y-57887463D01*
X137275000Y-57939214D01*
X137275001Y-73547097D01*
X137220000Y-73547097D01*
X137102379Y-73558682D01*
X136989279Y-73592990D01*
X136885045Y-73648704D01*
X136800000Y-73718499D01*
X136714955Y-73648704D01*
X136610721Y-73592990D01*
X136497621Y-73558682D01*
X136380000Y-73547097D01*
X136256822Y-73547097D01*
X136258506Y-73530000D01*
X136255000Y-73494403D01*
X136255000Y-73494393D01*
X136244509Y-73387875D01*
X136203053Y-73251212D01*
X136135731Y-73125263D01*
X136099810Y-73081493D01*
X136067830Y-73042525D01*
X136067828Y-73042523D01*
X136045132Y-73014868D01*
X136017477Y-72992172D01*
X128225000Y-65199696D01*
X128225000Y-57939214D01*
X128276751Y-57887463D01*
X128386189Y-57723678D01*
X128461571Y-57541689D01*
X128500000Y-57348491D01*
X128500000Y-57151509D01*
X128461571Y-56958311D01*
X128386189Y-56776322D01*
X128276751Y-56612537D01*
X128137463Y-56473249D01*
X127973678Y-56363811D01*
X127791689Y-56288429D01*
X127598491Y-56250000D01*
X127401509Y-56250000D01*
X127208311Y-56288429D01*
X127026322Y-56363811D01*
X127000000Y-56381399D01*
X126973678Y-56363811D01*
X126791689Y-56288429D01*
X126598491Y-56250000D01*
X126401509Y-56250000D01*
X126208311Y-56288429D01*
X126026322Y-56363811D01*
X126000000Y-56381399D01*
X125973678Y-56363811D01*
X125791689Y-56288429D01*
X125598491Y-56250000D01*
X125401509Y-56250000D01*
X125208311Y-56288429D01*
X125026322Y-56363811D01*
X125000000Y-56381399D01*
X124973678Y-56363811D01*
X124791689Y-56288429D01*
X124598491Y-56250000D01*
X124401509Y-56250000D01*
X124208311Y-56288429D01*
X124026322Y-56363811D01*
X124000000Y-56381399D01*
X123973678Y-56363811D01*
X123791689Y-56288429D01*
X123598491Y-56250000D01*
X123401509Y-56250000D01*
X123208311Y-56288429D01*
X123026322Y-56363811D01*
X122862537Y-56473249D01*
X122810786Y-56525000D01*
X116535597Y-56525000D01*
X116500000Y-56521494D01*
X116464403Y-56525000D01*
X116464393Y-56525000D01*
X116357875Y-56535491D01*
X116221212Y-56576947D01*
X116095263Y-56644269D01*
X116012525Y-56712170D01*
X116012523Y-56712172D01*
X115984868Y-56734868D01*
X115962172Y-56762523D01*
X115699696Y-57025000D01*
X114800305Y-57025000D01*
X113922114Y-56146809D01*
X113971212Y-56173053D01*
X114107875Y-56214509D01*
X114214393Y-56225000D01*
X114214403Y-56225000D01*
X114250000Y-56228506D01*
X114285597Y-56225000D01*
X114310786Y-56225000D01*
X114362537Y-56276751D01*
X114526322Y-56386189D01*
X114708311Y-56461571D01*
X114901509Y-56500000D01*
X115098491Y-56500000D01*
X115291689Y-56461571D01*
X115473678Y-56386189D01*
X115637463Y-56276751D01*
X115689214Y-56225000D01*
X116699696Y-56225000D01*
X116712168Y-56237472D01*
X116734868Y-56265132D01*
X116845263Y-56355731D01*
X116971212Y-56423053D01*
X117107875Y-56464509D01*
X117214393Y-56475000D01*
X117214402Y-56475000D01*
X117249999Y-56478506D01*
X117285596Y-56475000D01*
X121287405Y-56475000D01*
X121323002Y-56478506D01*
X121358599Y-56475000D01*
X121358609Y-56475000D01*
X121465127Y-56464509D01*
X121601790Y-56423053D01*
X121727739Y-56355731D01*
X121838134Y-56265132D01*
X121860834Y-56237472D01*
X121873306Y-56225000D01*
X127810786Y-56225000D01*
X127862537Y-56276751D01*
X128026322Y-56386189D01*
X128208311Y-56461571D01*
X128401509Y-56500000D01*
X128598491Y-56500000D01*
X128791689Y-56461571D01*
X128973678Y-56386189D01*
X129137463Y-56276751D01*
X129189214Y-56225000D01*
X141310786Y-56225000D01*
X141362537Y-56276751D01*
X141526322Y-56386189D01*
X141708311Y-56461571D01*
X141901509Y-56500000D01*
X142098491Y-56500000D01*
X142291689Y-56461571D01*
X142473678Y-56386189D01*
X142637463Y-56276751D01*
X142689214Y-56225000D01*
X154810786Y-56225000D01*
X154862537Y-56276751D01*
X155026322Y-56386189D01*
X155208311Y-56461571D01*
X155401509Y-56500000D01*
X155598491Y-56500000D01*
X155791689Y-56461571D01*
X155973678Y-56386189D01*
X156137463Y-56276751D01*
X156276751Y-56137463D01*
X156386189Y-55973678D01*
X156461571Y-55791689D01*
X156500000Y-55598491D01*
X156500000Y-55401509D01*
X156461571Y-55208311D01*
X156386189Y-55026322D01*
X156368601Y-55000000D01*
X156386189Y-54973678D01*
X156461571Y-54791689D01*
X156500000Y-54598491D01*
X156500000Y-54401509D01*
X156461571Y-54208311D01*
X156386189Y-54026322D01*
X156368601Y-54000000D01*
X156386189Y-53973678D01*
X156461571Y-53791689D01*
X156500000Y-53598491D01*
X156500000Y-53401509D01*
X156461571Y-53208311D01*
X156386189Y-53026322D01*
X156368601Y-53000000D01*
X156386189Y-52973678D01*
X156461571Y-52791689D01*
X156500000Y-52598491D01*
X156500000Y-52401509D01*
X156461571Y-52208311D01*
X156386189Y-52026322D01*
X156368601Y-52000000D01*
X156386189Y-51973678D01*
X156461571Y-51791689D01*
X156500000Y-51598491D01*
X156500000Y-51401509D01*
X156461571Y-51208311D01*
X156386189Y-51026322D01*
X156368601Y-51000000D01*
X156386189Y-50973678D01*
X156461571Y-50791689D01*
X156500000Y-50598491D01*
X156500000Y-50401509D01*
X156461571Y-50208311D01*
X156386189Y-50026322D01*
X156368601Y-50000000D01*
X156386189Y-49973678D01*
X156461571Y-49791689D01*
X156500000Y-49598491D01*
X156500000Y-49401509D01*
X156461571Y-49208311D01*
X156386189Y-49026322D01*
X156368601Y-49000000D01*
X156386189Y-48973678D01*
X156461571Y-48791689D01*
X156500000Y-48598491D01*
X156500000Y-48401509D01*
X156461571Y-48208311D01*
X156386189Y-48026322D01*
X156368601Y-48000000D01*
X156386189Y-47973678D01*
X156461571Y-47791689D01*
X156500000Y-47598491D01*
X156500000Y-47401509D01*
X156461571Y-47208311D01*
X156386189Y-47026322D01*
X156368601Y-47000000D01*
X156386189Y-46973678D01*
X156461571Y-46791689D01*
X156500000Y-46598491D01*
X156500000Y-46401509D01*
X156461571Y-46208311D01*
X156386189Y-46026322D01*
X156276751Y-45862537D01*
X156137463Y-45723249D01*
X155973678Y-45613811D01*
X155791689Y-45538429D01*
X155598491Y-45500000D01*
X155525304Y-45500000D01*
X156800305Y-44225000D01*
X157964403Y-44225000D01*
X158000000Y-44228506D01*
X158035597Y-44225000D01*
X158035607Y-44225000D01*
X158142125Y-44214509D01*
X158278788Y-44173053D01*
X158404737Y-44105731D01*
X158515132Y-44015132D01*
X158537832Y-43987472D01*
X158877476Y-43647828D01*
X158905131Y-43625132D01*
X158995731Y-43514737D01*
X159039473Y-43432903D01*
X159240000Y-43432903D01*
X159357621Y-43421318D01*
X159470721Y-43387010D01*
X159574955Y-43331296D01*
X159660000Y-43261501D01*
X159745045Y-43331296D01*
X159745045Y-43331296D01*
G37*
X159745045Y-43331296D02*
X159849279Y-43387010D01*
X159962379Y-43421318D01*
X160080000Y-43432903D01*
X160249095Y-43432903D01*
X160256947Y-43458787D01*
X160324269Y-43584736D01*
X160392170Y-43667474D01*
X160392173Y-43667477D01*
X160414869Y-43695132D01*
X160442524Y-43717828D01*
X160712168Y-43987472D01*
X160734868Y-44015132D01*
X160845263Y-44105731D01*
X160971212Y-44173053D01*
X161107875Y-44214509D01*
X161214393Y-44225000D01*
X161214402Y-44225000D01*
X161249999Y-44228506D01*
X161285596Y-44225000D01*
X162699696Y-44225000D01*
X164000000Y-45525305D01*
X164000000Y-45598491D01*
X164038429Y-45791689D01*
X164113811Y-45973678D01*
X164223249Y-46137463D01*
X164362537Y-46276751D01*
X164526322Y-46386189D01*
X164708311Y-46461571D01*
X164901509Y-46500000D01*
X165098491Y-46500000D01*
X165291689Y-46461571D01*
X165473678Y-46386189D01*
X165500000Y-46368601D01*
X165526322Y-46386189D01*
X165708311Y-46461571D01*
X165901509Y-46500000D01*
X166098491Y-46500000D01*
X166291689Y-46461571D01*
X166473678Y-46386189D01*
X166500000Y-46368601D01*
X166526322Y-46386189D01*
X166708311Y-46461571D01*
X166901509Y-46500000D01*
X167098491Y-46500000D01*
X167291689Y-46461571D01*
X167473678Y-46386189D01*
X167500000Y-46368601D01*
X167526322Y-46386189D01*
X167708311Y-46461571D01*
X167901509Y-46500000D01*
X168098491Y-46500000D01*
X168291689Y-46461571D01*
X168473678Y-46386189D01*
X168637463Y-46276751D01*
X168776751Y-46137463D01*
X168886189Y-45973678D01*
X168900000Y-45940335D01*
X168900000Y-56809665D01*
X168886189Y-56776322D01*
X168776751Y-56612537D01*
X168637463Y-56473249D01*
X168473678Y-56363811D01*
X168291689Y-56288429D01*
X168098491Y-56250000D01*
X167901509Y-56250000D01*
X167708311Y-56288429D01*
X167526322Y-56363811D01*
X167500000Y-56381399D01*
X167473678Y-56363811D01*
X167291689Y-56288429D01*
X167098491Y-56250000D01*
X166901509Y-56250000D01*
X166708311Y-56288429D01*
X166526322Y-56363811D01*
X166500000Y-56381399D01*
X166473678Y-56363811D01*
X166291689Y-56288429D01*
X166098491Y-56250000D01*
X165901509Y-56250000D01*
X165708311Y-56288429D01*
X165526322Y-56363811D01*
X165500000Y-56381399D01*
X165473678Y-56363811D01*
X165291689Y-56288429D01*
X165098491Y-56250000D01*
X164901509Y-56250000D01*
X164708311Y-56288429D01*
X164526322Y-56363811D01*
X164362537Y-56473249D01*
X164223249Y-56612537D01*
X164113811Y-56776322D01*
X164038429Y-56958311D01*
X164000000Y-57151509D01*
X164000000Y-57348491D01*
X164038429Y-57541689D01*
X164113811Y-57723678D01*
X164223249Y-57887463D01*
X164275001Y-57939215D01*
X164275000Y-66989695D01*
X157902523Y-73362173D01*
X157874869Y-73384868D01*
X157852173Y-73412523D01*
X157852170Y-73412526D01*
X157784269Y-73495264D01*
X157756563Y-73547097D01*
X157540000Y-73547097D01*
X157422379Y-73558682D01*
X157309279Y-73592990D01*
X157205045Y-73648704D01*
X157120000Y-73718499D01*
X157034955Y-73648704D01*
X156930721Y-73592990D01*
X156817621Y-73558682D01*
X156700000Y-73547097D01*
X156573297Y-73547097D01*
X156564509Y-73457875D01*
X156523053Y-73321212D01*
X156455731Y-73195263D01*
X156439505Y-73175492D01*
X156387830Y-73112525D01*
X156387828Y-73112523D01*
X156365132Y-73084868D01*
X156337477Y-73062172D01*
X155225000Y-71949696D01*
X155225000Y-57939214D01*
X155276751Y-57887463D01*
X155386189Y-57723678D01*
X155461571Y-57541689D01*
X155500000Y-57348491D01*
X155500000Y-57151509D01*
X155461571Y-56958311D01*
X155386189Y-56776322D01*
X155276751Y-56612537D01*
X155137463Y-56473249D01*
X154973678Y-56363811D01*
X154791689Y-56288429D01*
X154598491Y-56250000D01*
X154401509Y-56250000D01*
X154208311Y-56288429D01*
X154026322Y-56363811D01*
X154000000Y-56381399D01*
X153973678Y-56363811D01*
X153791689Y-56288429D01*
X153598491Y-56250000D01*
X153401509Y-56250000D01*
X153208311Y-56288429D01*
X153026322Y-56363811D01*
X153000000Y-56381399D01*
X152973678Y-56363811D01*
X152791689Y-56288429D01*
X152598491Y-56250000D01*
X152401509Y-56250000D01*
X152208311Y-56288429D01*
X152026322Y-56363811D01*
X152000000Y-56381399D01*
X151973678Y-56363811D01*
X151791689Y-56288429D01*
X151598491Y-56250000D01*
X151401509Y-56250000D01*
X151208311Y-56288429D01*
X151026322Y-56363811D01*
X150862537Y-56473249D01*
X150723249Y-56612537D01*
X150613811Y-56776322D01*
X150538429Y-56958311D01*
X150500000Y-57151509D01*
X150500000Y-57348491D01*
X150538429Y-57541689D01*
X150613811Y-57723678D01*
X150723249Y-57887463D01*
X150775001Y-57939215D01*
X150775000Y-70329695D01*
X147742523Y-73362173D01*
X147714869Y-73384868D01*
X147692173Y-73412523D01*
X147692170Y-73412526D01*
X147624269Y-73495264D01*
X147596563Y-73547097D01*
X147380000Y-73547097D01*
X147262379Y-73558682D01*
X147149279Y-73592990D01*
X147045045Y-73648704D01*
X146960000Y-73718499D01*
X146874955Y-73648704D01*
X146770721Y-73592990D01*
X146657621Y-73558682D01*
X146540000Y-73547097D01*
X146323437Y-73547097D01*
X146295731Y-73495263D01*
X146270492Y-73464509D01*
X146227830Y-73412525D01*
X146227828Y-73412523D01*
X146205132Y-73384868D01*
X146177477Y-73362172D01*
X143307834Y-70492530D01*
X143307830Y-70492525D01*
X141725000Y-68909696D01*
X141725000Y-57939214D01*
X141776751Y-57887463D01*
X141886189Y-57723678D01*
X141961571Y-57541689D01*
X142000000Y-57348491D01*
X142000000Y-57151509D01*
X141961571Y-56958311D01*
X141886189Y-56776322D01*
X141776751Y-56612537D01*
X141637463Y-56473249D01*
X141473678Y-56363811D01*
X141291689Y-56288429D01*
X141098491Y-56250000D01*
X140901509Y-56250000D01*
X140708311Y-56288429D01*
X140526322Y-56363811D01*
X140500000Y-56381399D01*
X140473678Y-56363811D01*
X140291689Y-56288429D01*
X140098491Y-56250000D01*
X139901509Y-56250000D01*
X139708311Y-56288429D01*
X139526322Y-56363811D01*
X139500000Y-56381399D01*
X139473678Y-56363811D01*
X139291689Y-56288429D01*
X139098491Y-56250000D01*
X138901509Y-56250000D01*
X138708311Y-56288429D01*
X138526322Y-56363811D01*
X138500000Y-56381399D01*
X138473678Y-56363811D01*
X138291689Y-56288429D01*
X138098491Y-56250000D01*
X137901509Y-56250000D01*
X137708311Y-56288429D01*
X137526322Y-56363811D01*
X137362537Y-56473249D01*
X137223249Y-56612537D01*
X137113811Y-56776322D01*
X137038429Y-56958311D01*
X137000000Y-57151509D01*
X137000000Y-57348491D01*
X137038429Y-57541689D01*
X137113811Y-57723678D01*
X137223249Y-57887463D01*
X137275000Y-57939214D01*
X137275001Y-73547097D01*
X137220000Y-73547097D01*
X137102379Y-73558682D01*
X136989279Y-73592990D01*
X136885045Y-73648704D01*
X136800000Y-73718499D01*
X136714955Y-73648704D01*
X136610721Y-73592990D01*
X136497621Y-73558682D01*
X136380000Y-73547097D01*
X136256822Y-73547097D01*
X136258506Y-73530000D01*
X136255000Y-73494403D01*
X136255000Y-73494393D01*
X136244509Y-73387875D01*
X136203053Y-73251212D01*
X136135731Y-73125263D01*
X136099810Y-73081493D01*
X136067830Y-73042525D01*
X136067828Y-73042523D01*
X136045132Y-73014868D01*
X136017477Y-72992172D01*
X128225000Y-65199696D01*
X128225000Y-57939214D01*
X128276751Y-57887463D01*
X128386189Y-57723678D01*
X128461571Y-57541689D01*
X128500000Y-57348491D01*
X128500000Y-57151509D01*
X128461571Y-56958311D01*
X128386189Y-56776322D01*
X128276751Y-56612537D01*
X128137463Y-56473249D01*
X127973678Y-56363811D01*
X127791689Y-56288429D01*
X127598491Y-56250000D01*
X127401509Y-56250000D01*
X127208311Y-56288429D01*
X127026322Y-56363811D01*
X127000000Y-56381399D01*
X126973678Y-56363811D01*
X126791689Y-56288429D01*
X126598491Y-56250000D01*
X126401509Y-56250000D01*
X126208311Y-56288429D01*
X126026322Y-56363811D01*
X126000000Y-56381399D01*
X125973678Y-56363811D01*
X125791689Y-56288429D01*
X125598491Y-56250000D01*
X125401509Y-56250000D01*
X125208311Y-56288429D01*
X125026322Y-56363811D01*
X125000000Y-56381399D01*
X124973678Y-56363811D01*
X124791689Y-56288429D01*
X124598491Y-56250000D01*
X124401509Y-56250000D01*
X124208311Y-56288429D01*
X124026322Y-56363811D01*
X124000000Y-56381399D01*
X123973678Y-56363811D01*
X123791689Y-56288429D01*
X123598491Y-56250000D01*
X123401509Y-56250000D01*
X123208311Y-56288429D01*
X123026322Y-56363811D01*
X122862537Y-56473249D01*
X122810786Y-56525000D01*
X116535597Y-56525000D01*
X116500000Y-56521494D01*
X116464403Y-56525000D01*
X116464393Y-56525000D01*
X116357875Y-56535491D01*
X116221212Y-56576947D01*
X116095263Y-56644269D01*
X116012525Y-56712170D01*
X116012523Y-56712172D01*
X115984868Y-56734868D01*
X115962172Y-56762523D01*
X115699696Y-57025000D01*
X114800305Y-57025000D01*
X113922114Y-56146809D01*
X113971212Y-56173053D01*
X114107875Y-56214509D01*
X114214393Y-56225000D01*
X114214403Y-56225000D01*
X114250000Y-56228506D01*
X114285597Y-56225000D01*
X114310786Y-56225000D01*
X114362537Y-56276751D01*
X114526322Y-56386189D01*
X114708311Y-56461571D01*
X114901509Y-56500000D01*
X115098491Y-56500000D01*
X115291689Y-56461571D01*
X115473678Y-56386189D01*
X115637463Y-56276751D01*
X115689214Y-56225000D01*
X116699696Y-56225000D01*
X116712168Y-56237472D01*
X116734868Y-56265132D01*
X116845263Y-56355731D01*
X116971212Y-56423053D01*
X117107875Y-56464509D01*
X117214393Y-56475000D01*
X117214402Y-56475000D01*
X117249999Y-56478506D01*
X117285596Y-56475000D01*
X121287405Y-56475000D01*
X121323002Y-56478506D01*
X121358599Y-56475000D01*
X121358609Y-56475000D01*
X121465127Y-56464509D01*
X121601790Y-56423053D01*
X121727739Y-56355731D01*
X121838134Y-56265132D01*
X121860834Y-56237472D01*
X121873306Y-56225000D01*
X127810786Y-56225000D01*
X127862537Y-56276751D01*
X128026322Y-56386189D01*
X128208311Y-56461571D01*
X128401509Y-56500000D01*
X128598491Y-56500000D01*
X128791689Y-56461571D01*
X128973678Y-56386189D01*
X129137463Y-56276751D01*
X129189214Y-56225000D01*
X141310786Y-56225000D01*
X141362537Y-56276751D01*
X141526322Y-56386189D01*
X141708311Y-56461571D01*
X141901509Y-56500000D01*
X142098491Y-56500000D01*
X142291689Y-56461571D01*
X142473678Y-56386189D01*
X142637463Y-56276751D01*
X142689214Y-56225000D01*
X154810786Y-56225000D01*
X154862537Y-56276751D01*
X155026322Y-56386189D01*
X155208311Y-56461571D01*
X155401509Y-56500000D01*
X155598491Y-56500000D01*
X155791689Y-56461571D01*
X155973678Y-56386189D01*
X156137463Y-56276751D01*
X156276751Y-56137463D01*
X156386189Y-55973678D01*
X156461571Y-55791689D01*
X156500000Y-55598491D01*
X156500000Y-55401509D01*
X156461571Y-55208311D01*
X156386189Y-55026322D01*
X156368601Y-55000000D01*
X156386189Y-54973678D01*
X156461571Y-54791689D01*
X156500000Y-54598491D01*
X156500000Y-54401509D01*
X156461571Y-54208311D01*
X156386189Y-54026322D01*
X156368601Y-54000000D01*
X156386189Y-53973678D01*
X156461571Y-53791689D01*
X156500000Y-53598491D01*
X156500000Y-53401509D01*
X156461571Y-53208311D01*
X156386189Y-53026322D01*
X156368601Y-53000000D01*
X156386189Y-52973678D01*
X156461571Y-52791689D01*
X156500000Y-52598491D01*
X156500000Y-52401509D01*
X156461571Y-52208311D01*
X156386189Y-52026322D01*
X156368601Y-52000000D01*
X156386189Y-51973678D01*
X156461571Y-51791689D01*
X156500000Y-51598491D01*
X156500000Y-51401509D01*
X156461571Y-51208311D01*
X156386189Y-51026322D01*
X156368601Y-51000000D01*
X156386189Y-50973678D01*
X156461571Y-50791689D01*
X156500000Y-50598491D01*
X156500000Y-50401509D01*
X156461571Y-50208311D01*
X156386189Y-50026322D01*
X156368601Y-50000000D01*
X156386189Y-49973678D01*
X156461571Y-49791689D01*
X156500000Y-49598491D01*
X156500000Y-49401509D01*
X156461571Y-49208311D01*
X156386189Y-49026322D01*
X156368601Y-49000000D01*
X156386189Y-48973678D01*
X156461571Y-48791689D01*
X156500000Y-48598491D01*
X156500000Y-48401509D01*
X156461571Y-48208311D01*
X156386189Y-48026322D01*
X156368601Y-48000000D01*
X156386189Y-47973678D01*
X156461571Y-47791689D01*
X156500000Y-47598491D01*
X156500000Y-47401509D01*
X156461571Y-47208311D01*
X156386189Y-47026322D01*
X156368601Y-47000000D01*
X156386189Y-46973678D01*
X156461571Y-46791689D01*
X156500000Y-46598491D01*
X156500000Y-46401509D01*
X156461571Y-46208311D01*
X156386189Y-46026322D01*
X156276751Y-45862537D01*
X156137463Y-45723249D01*
X155973678Y-45613811D01*
X155791689Y-45538429D01*
X155598491Y-45500000D01*
X155525304Y-45500000D01*
X156800305Y-44225000D01*
X157964403Y-44225000D01*
X158000000Y-44228506D01*
X158035597Y-44225000D01*
X158035607Y-44225000D01*
X158142125Y-44214509D01*
X158278788Y-44173053D01*
X158404737Y-44105731D01*
X158515132Y-44015132D01*
X158537832Y-43987472D01*
X158877476Y-43647828D01*
X158905131Y-43625132D01*
X158995731Y-43514737D01*
X159039473Y-43432903D01*
X159240000Y-43432903D01*
X159357621Y-43421318D01*
X159470721Y-43387010D01*
X159574955Y-43331296D01*
X159660000Y-43261501D01*
X159745045Y-43331296D01*
M02*
