G04 #@! TF.GenerationSoftware,KiCad,Pcbnew,(5.1.2-1)-1*
G04 #@! TF.CreationDate,2019-06-04T19:14:02+03:00*
G04 #@! TF.ProjectId,mag,6d61672e-6b69-4636-9164-5f7063625858,rev?*
G04 #@! TF.SameCoordinates,Original*
G04 #@! TF.FileFunction,Soldermask,Bot*
G04 #@! TF.FilePolarity,Negative*
%FSLAX46Y46*%
G04 Gerber Fmt 4.6, Leading zero omitted, Abs format (unit mm)*
G04 Created by KiCad (PCBNEW (5.1.2-1)-1) date 2019-06-04 19:14:02*
%MOMM*%
%LPD*%
G04 APERTURE LIST*
%ADD10C,0.100000*%
G04 APERTURE END LIST*
D10*
G36*
X100620000Y-80070000D02*
G01*
X98880000Y-80070000D01*
X98880000Y-78330000D01*
X100620000Y-78330000D01*
X100620000Y-80070000D01*
X100620000Y-80070000D01*
G37*
G36*
X127003770Y-78163433D02*
G01*
X127162100Y-78229016D01*
X127256882Y-78292347D01*
X127304595Y-78324228D01*
X127425772Y-78445405D01*
X127425773Y-78445407D01*
X127520984Y-78587900D01*
X127586567Y-78746230D01*
X127620000Y-78914312D01*
X127620000Y-79085688D01*
X127586567Y-79253770D01*
X127520984Y-79412100D01*
X127457653Y-79506882D01*
X127425772Y-79554595D01*
X127304595Y-79675772D01*
X127256882Y-79707653D01*
X127162100Y-79770984D01*
X127003770Y-79836567D01*
X126835688Y-79870000D01*
X126664312Y-79870000D01*
X126496230Y-79836567D01*
X126337900Y-79770984D01*
X126243118Y-79707653D01*
X126195405Y-79675772D01*
X126074228Y-79554595D01*
X126042347Y-79506882D01*
X125979016Y-79412100D01*
X125913433Y-79253770D01*
X125880000Y-79085688D01*
X125880000Y-78914312D01*
X125913433Y-78746230D01*
X125979016Y-78587900D01*
X126074227Y-78445407D01*
X126074228Y-78445405D01*
X126195405Y-78324228D01*
X126243118Y-78292347D01*
X126337900Y-78229016D01*
X126496230Y-78163433D01*
X126664312Y-78130000D01*
X126835688Y-78130000D01*
X127003770Y-78163433D01*
X127003770Y-78163433D01*
G37*
G36*
X125080000Y-79870000D02*
G01*
X123340000Y-79870000D01*
X123340000Y-78130000D01*
X125080000Y-78130000D01*
X125080000Y-79870000D01*
X125080000Y-79870000D01*
G37*
G36*
X122540000Y-79870000D02*
G01*
X120800000Y-79870000D01*
X120800000Y-78130000D01*
X122540000Y-78130000D01*
X122540000Y-79870000D01*
X122540000Y-79870000D01*
G37*
G36*
X120000000Y-79870000D02*
G01*
X118260000Y-79870000D01*
X118260000Y-78130000D01*
X120000000Y-78130000D01*
X120000000Y-79870000D01*
X120000000Y-79870000D01*
G37*
G36*
X113490000Y-79870000D02*
G01*
X111750000Y-79870000D01*
X111750000Y-78130000D01*
X113490000Y-78130000D01*
X113490000Y-79870000D01*
X113490000Y-79870000D01*
G37*
G36*
X110950000Y-79870000D02*
G01*
X109210000Y-79870000D01*
X109210000Y-78130000D01*
X110950000Y-78130000D01*
X110950000Y-79870000D01*
X110950000Y-79870000D01*
G37*
G36*
X108410000Y-79870000D02*
G01*
X106670000Y-79870000D01*
X106670000Y-78130000D01*
X108410000Y-78130000D01*
X108410000Y-79870000D01*
X108410000Y-79870000D01*
G37*
G36*
X105253770Y-78163433D02*
G01*
X105412100Y-78229016D01*
X105506882Y-78292347D01*
X105554595Y-78324228D01*
X105675772Y-78445405D01*
X105675773Y-78445407D01*
X105770984Y-78587900D01*
X105836567Y-78746230D01*
X105870000Y-78914312D01*
X105870000Y-79085688D01*
X105836567Y-79253770D01*
X105770984Y-79412100D01*
X105707653Y-79506882D01*
X105675772Y-79554595D01*
X105554595Y-79675772D01*
X105506882Y-79707653D01*
X105412100Y-79770984D01*
X105253770Y-79836567D01*
X105085688Y-79870000D01*
X104914312Y-79870000D01*
X104746230Y-79836567D01*
X104587900Y-79770984D01*
X104493118Y-79707653D01*
X104445405Y-79675772D01*
X104324228Y-79554595D01*
X104292347Y-79506882D01*
X104229016Y-79412100D01*
X104163433Y-79253770D01*
X104130000Y-79085688D01*
X104130000Y-78914312D01*
X104163433Y-78746230D01*
X104229016Y-78587900D01*
X104324227Y-78445407D01*
X104324228Y-78445405D01*
X104445405Y-78324228D01*
X104493118Y-78292347D01*
X104587900Y-78229016D01*
X104746230Y-78163433D01*
X104914312Y-78130000D01*
X105085688Y-78130000D01*
X105253770Y-78163433D01*
X105253770Y-78163433D01*
G37*
G36*
X100620000Y-77530000D02*
G01*
X98880000Y-77530000D01*
X98880000Y-75790000D01*
X100620000Y-75790000D01*
X100620000Y-77530000D01*
X100620000Y-77530000D01*
G37*
G36*
X108270000Y-76895000D02*
G01*
X106730000Y-76895000D01*
X106730000Y-76105000D01*
X108270000Y-76105000D01*
X108270000Y-76895000D01*
X108270000Y-76895000D01*
G37*
G36*
X105770000Y-76895000D02*
G01*
X104230000Y-76895000D01*
X104230000Y-76105000D01*
X105770000Y-76105000D01*
X105770000Y-76895000D01*
X105770000Y-76895000D01*
G37*
G36*
X136400000Y-75870000D02*
G01*
X134660000Y-75870000D01*
X134660000Y-74130000D01*
X136400000Y-74130000D01*
X136400000Y-75870000D01*
X136400000Y-75870000D01*
G37*
G36*
X133860000Y-75870000D02*
G01*
X132120000Y-75870000D01*
X132120000Y-74130000D01*
X133860000Y-74130000D01*
X133860000Y-75870000D01*
X133860000Y-75870000D01*
G37*
G36*
X131320000Y-75870000D02*
G01*
X129580000Y-75870000D01*
X129580000Y-74130000D01*
X131320000Y-74130000D01*
X131320000Y-75870000D01*
X131320000Y-75870000D01*
G37*
G36*
X128780000Y-75870000D02*
G01*
X127040000Y-75870000D01*
X127040000Y-74130000D01*
X128780000Y-74130000D01*
X128780000Y-75870000D01*
X128780000Y-75870000D01*
G37*
G36*
X126240000Y-75870000D02*
G01*
X124500000Y-75870000D01*
X124500000Y-74130000D01*
X126240000Y-74130000D01*
X126240000Y-75870000D01*
X126240000Y-75870000D01*
G37*
G36*
X123700000Y-75870000D02*
G01*
X121960000Y-75870000D01*
X121960000Y-74130000D01*
X123700000Y-74130000D01*
X123700000Y-75870000D01*
X123700000Y-75870000D01*
G37*
G36*
X121160000Y-75870000D02*
G01*
X119420000Y-75870000D01*
X119420000Y-74130000D01*
X121160000Y-74130000D01*
X121160000Y-75870000D01*
X121160000Y-75870000D01*
G37*
G36*
X118003770Y-74163433D02*
G01*
X118162100Y-74229016D01*
X118256882Y-74292347D01*
X118304595Y-74324228D01*
X118425772Y-74445405D01*
X118425773Y-74445407D01*
X118520984Y-74587900D01*
X118586567Y-74746230D01*
X118620000Y-74914312D01*
X118620000Y-75085688D01*
X118586567Y-75253770D01*
X118520984Y-75412100D01*
X118457653Y-75506882D01*
X118425772Y-75554595D01*
X118304595Y-75675772D01*
X118256882Y-75707653D01*
X118162100Y-75770984D01*
X118003770Y-75836567D01*
X117835688Y-75870000D01*
X117664312Y-75870000D01*
X117496230Y-75836567D01*
X117337900Y-75770984D01*
X117243118Y-75707653D01*
X117195405Y-75675772D01*
X117074228Y-75554595D01*
X117042347Y-75506882D01*
X116979016Y-75412100D01*
X116913433Y-75253770D01*
X116880000Y-75085688D01*
X116880000Y-74914312D01*
X116913433Y-74746230D01*
X116979016Y-74587900D01*
X117074227Y-74445407D01*
X117074228Y-74445405D01*
X117195405Y-74324228D01*
X117243118Y-74292347D01*
X117337900Y-74229016D01*
X117496230Y-74163433D01*
X117664312Y-74130000D01*
X117835688Y-74130000D01*
X118003770Y-74163433D01*
X118003770Y-74163433D01*
G37*
G36*
X166880000Y-75870000D02*
G01*
X165140000Y-75870000D01*
X165140000Y-74130000D01*
X166880000Y-74130000D01*
X166880000Y-75870000D01*
X166880000Y-75870000D01*
G37*
G36*
X164340000Y-75870000D02*
G01*
X162600000Y-75870000D01*
X162600000Y-74130000D01*
X164340000Y-74130000D01*
X164340000Y-75870000D01*
X164340000Y-75870000D01*
G37*
G36*
X161800000Y-75870000D02*
G01*
X160060000Y-75870000D01*
X160060000Y-74130000D01*
X161800000Y-74130000D01*
X161800000Y-75870000D01*
X161800000Y-75870000D01*
G37*
G36*
X159260000Y-75870000D02*
G01*
X157520000Y-75870000D01*
X157520000Y-74130000D01*
X159260000Y-74130000D01*
X159260000Y-75870000D01*
X159260000Y-75870000D01*
G37*
G36*
X156720000Y-75870000D02*
G01*
X154980000Y-75870000D01*
X154980000Y-74130000D01*
X156720000Y-74130000D01*
X156720000Y-75870000D01*
X156720000Y-75870000D01*
G37*
G36*
X154180000Y-75870000D02*
G01*
X152440000Y-75870000D01*
X152440000Y-74130000D01*
X154180000Y-74130000D01*
X154180000Y-75870000D01*
X154180000Y-75870000D01*
G37*
G36*
X151640000Y-75870000D02*
G01*
X149900000Y-75870000D01*
X149900000Y-74130000D01*
X151640000Y-74130000D01*
X151640000Y-75870000D01*
X151640000Y-75870000D01*
G37*
G36*
X149100000Y-75870000D02*
G01*
X147360000Y-75870000D01*
X147360000Y-74130000D01*
X149100000Y-74130000D01*
X149100000Y-75870000D01*
X149100000Y-75870000D01*
G37*
G36*
X146560000Y-75870000D02*
G01*
X144820000Y-75870000D01*
X144820000Y-74130000D01*
X146560000Y-74130000D01*
X146560000Y-75870000D01*
X146560000Y-75870000D01*
G37*
G36*
X144020000Y-75870000D02*
G01*
X142280000Y-75870000D01*
X142280000Y-74130000D01*
X144020000Y-74130000D01*
X144020000Y-75870000D01*
X144020000Y-75870000D01*
G37*
G36*
X141480000Y-75870000D02*
G01*
X139740000Y-75870000D01*
X139740000Y-74130000D01*
X141480000Y-74130000D01*
X141480000Y-75870000D01*
X141480000Y-75870000D01*
G37*
G36*
X138940000Y-75870000D02*
G01*
X137200000Y-75870000D01*
X137200000Y-74130000D01*
X138940000Y-74130000D01*
X138940000Y-75870000D01*
X138940000Y-75870000D01*
G37*
G36*
X105770000Y-75395000D02*
G01*
X104230000Y-75395000D01*
X104230000Y-74605000D01*
X105770000Y-74605000D01*
X105770000Y-75395000D01*
X105770000Y-75395000D01*
G37*
G36*
X108270000Y-75395000D02*
G01*
X106730000Y-75395000D01*
X106730000Y-74605000D01*
X108270000Y-74605000D01*
X108270000Y-75395000D01*
X108270000Y-75395000D01*
G37*
G36*
X100620000Y-74990000D02*
G01*
X98880000Y-74990000D01*
X98880000Y-73250000D01*
X100620000Y-73250000D01*
X100620000Y-74990000D01*
X100620000Y-74990000D01*
G37*
G36*
X100620000Y-72450000D02*
G01*
X98880000Y-72450000D01*
X98880000Y-70710000D01*
X100620000Y-70710000D01*
X100620000Y-72450000D01*
X100620000Y-72450000D01*
G37*
G36*
X100620000Y-69910000D02*
G01*
X98880000Y-69910000D01*
X98880000Y-68170000D01*
X100620000Y-68170000D01*
X100620000Y-69910000D01*
X100620000Y-69910000D01*
G37*
G36*
X113595000Y-68070000D02*
G01*
X113005000Y-68070000D01*
X113005000Y-66530000D01*
X113595000Y-66530000D01*
X113595000Y-68070000D01*
X113595000Y-68070000D01*
G37*
G36*
X111995000Y-68070000D02*
G01*
X111405000Y-68070000D01*
X111405000Y-66530000D01*
X111995000Y-66530000D01*
X111995000Y-68070000D01*
X111995000Y-68070000D01*
G37*
G36*
X107995000Y-68070000D02*
G01*
X107405000Y-68070000D01*
X107405000Y-66530000D01*
X107995000Y-66530000D01*
X107995000Y-68070000D01*
X107995000Y-68070000D01*
G37*
G36*
X108795000Y-68070000D02*
G01*
X108205000Y-68070000D01*
X108205000Y-66530000D01*
X108795000Y-66530000D01*
X108795000Y-68070000D01*
X108795000Y-68070000D01*
G37*
G36*
X109595000Y-68070000D02*
G01*
X109005000Y-68070000D01*
X109005000Y-66530000D01*
X109595000Y-66530000D01*
X109595000Y-68070000D01*
X109595000Y-68070000D01*
G37*
G36*
X110395000Y-68070000D02*
G01*
X109805000Y-68070000D01*
X109805000Y-66530000D01*
X110395000Y-66530000D01*
X110395000Y-68070000D01*
X110395000Y-68070000D01*
G37*
G36*
X111195000Y-68070000D02*
G01*
X110605000Y-68070000D01*
X110605000Y-66530000D01*
X111195000Y-66530000D01*
X111195000Y-68070000D01*
X111195000Y-68070000D01*
G37*
G36*
X112795000Y-68070000D02*
G01*
X112205000Y-68070000D01*
X112205000Y-66530000D01*
X112795000Y-66530000D01*
X112795000Y-68070000D01*
X112795000Y-68070000D01*
G37*
G36*
X125020000Y-67395000D02*
G01*
X123480000Y-67395000D01*
X123480000Y-66605000D01*
X125020000Y-66605000D01*
X125020000Y-67395000D01*
X125020000Y-67395000D01*
G37*
G36*
X100003770Y-65663433D02*
G01*
X100162100Y-65729016D01*
X100256882Y-65792347D01*
X100304595Y-65824228D01*
X100425772Y-65945405D01*
X100425773Y-65945407D01*
X100520984Y-66087900D01*
X100586567Y-66246230D01*
X100620000Y-66414312D01*
X100620000Y-66585688D01*
X100586567Y-66753770D01*
X100520984Y-66912100D01*
X100457653Y-67006882D01*
X100425772Y-67054595D01*
X100304595Y-67175772D01*
X100256882Y-67207653D01*
X100162100Y-67270984D01*
X100003770Y-67336567D01*
X99835688Y-67370000D01*
X99664312Y-67370000D01*
X99496230Y-67336567D01*
X99337900Y-67270984D01*
X99243118Y-67207653D01*
X99195405Y-67175772D01*
X99074228Y-67054595D01*
X99042347Y-67006882D01*
X98979016Y-66912100D01*
X98913433Y-66753770D01*
X98880000Y-66585688D01*
X98880000Y-66414312D01*
X98913433Y-66246230D01*
X98979016Y-66087900D01*
X99074227Y-65945407D01*
X99074228Y-65945405D01*
X99195405Y-65824228D01*
X99243118Y-65792347D01*
X99337900Y-65729016D01*
X99496230Y-65663433D01*
X99664312Y-65630000D01*
X99835688Y-65630000D01*
X100003770Y-65663433D01*
X100003770Y-65663433D01*
G37*
G36*
X125020000Y-65895000D02*
G01*
X123480000Y-65895000D01*
X123480000Y-65105000D01*
X125020000Y-65105000D01*
X125020000Y-65895000D01*
X125020000Y-65895000D01*
G37*
G36*
X106770000Y-65845000D02*
G01*
X105230000Y-65845000D01*
X105230000Y-65255000D01*
X106770000Y-65255000D01*
X106770000Y-65845000D01*
X106770000Y-65845000D01*
G37*
G36*
X115770000Y-65845000D02*
G01*
X114230000Y-65845000D01*
X114230000Y-65255000D01*
X115770000Y-65255000D01*
X115770000Y-65845000D01*
X115770000Y-65845000D01*
G37*
G36*
X119270000Y-65145000D02*
G01*
X117730000Y-65145000D01*
X117730000Y-64355000D01*
X119270000Y-64355000D01*
X119270000Y-65145000D01*
X119270000Y-65145000D01*
G37*
G36*
X122020000Y-65145000D02*
G01*
X120480000Y-65145000D01*
X120480000Y-64355000D01*
X122020000Y-64355000D01*
X122020000Y-65145000D01*
X122020000Y-65145000D01*
G37*
G36*
X115770000Y-65045000D02*
G01*
X114230000Y-65045000D01*
X114230000Y-64455000D01*
X115770000Y-64455000D01*
X115770000Y-65045000D01*
X115770000Y-65045000D01*
G37*
G36*
X106770000Y-65045000D02*
G01*
X105230000Y-65045000D01*
X105230000Y-64455000D01*
X106770000Y-64455000D01*
X106770000Y-65045000D01*
X106770000Y-65045000D01*
G37*
G36*
X115770000Y-64245000D02*
G01*
X114230000Y-64245000D01*
X114230000Y-63655000D01*
X115770000Y-63655000D01*
X115770000Y-64245000D01*
X115770000Y-64245000D01*
G37*
G36*
X106770000Y-64245000D02*
G01*
X105230000Y-64245000D01*
X105230000Y-63655000D01*
X106770000Y-63655000D01*
X106770000Y-64245000D01*
X106770000Y-64245000D01*
G37*
G36*
X119270000Y-63645000D02*
G01*
X117730000Y-63645000D01*
X117730000Y-62855000D01*
X119270000Y-62855000D01*
X119270000Y-63645000D01*
X119270000Y-63645000D01*
G37*
G36*
X122020000Y-63645000D02*
G01*
X120480000Y-63645000D01*
X120480000Y-62855000D01*
X122020000Y-62855000D01*
X122020000Y-63645000D01*
X122020000Y-63645000D01*
G37*
G36*
X115770000Y-63445000D02*
G01*
X114230000Y-63445000D01*
X114230000Y-62855000D01*
X115770000Y-62855000D01*
X115770000Y-63445000D01*
X115770000Y-63445000D01*
G37*
G36*
X106770000Y-63445000D02*
G01*
X105230000Y-63445000D01*
X105230000Y-62855000D01*
X106770000Y-62855000D01*
X106770000Y-63445000D01*
X106770000Y-63445000D01*
G37*
G36*
X182003770Y-61663433D02*
G01*
X182162100Y-61729016D01*
X182256882Y-61792347D01*
X182304595Y-61824228D01*
X182425772Y-61945405D01*
X182425773Y-61945407D01*
X182520984Y-62087900D01*
X182586567Y-62246230D01*
X182620000Y-62414312D01*
X182620000Y-62585688D01*
X182586567Y-62753770D01*
X182520984Y-62912100D01*
X182457653Y-63006882D01*
X182425772Y-63054595D01*
X182304595Y-63175772D01*
X182256882Y-63207653D01*
X182162100Y-63270984D01*
X182003770Y-63336567D01*
X181835688Y-63370000D01*
X181664312Y-63370000D01*
X181496230Y-63336567D01*
X181337900Y-63270984D01*
X181243118Y-63207653D01*
X181195405Y-63175772D01*
X181074228Y-63054595D01*
X181042347Y-63006882D01*
X180979016Y-62912100D01*
X180913433Y-62753770D01*
X180880000Y-62585688D01*
X180880000Y-62414312D01*
X180913433Y-62246230D01*
X180979016Y-62087900D01*
X181074227Y-61945407D01*
X181074228Y-61945405D01*
X181195405Y-61824228D01*
X181243118Y-61792347D01*
X181337900Y-61729016D01*
X181496230Y-61663433D01*
X181664312Y-61630000D01*
X181835688Y-61630000D01*
X182003770Y-61663433D01*
X182003770Y-61663433D01*
G37*
G36*
X104520000Y-63145000D02*
G01*
X102980000Y-63145000D01*
X102980000Y-62355000D01*
X104520000Y-62355000D01*
X104520000Y-63145000D01*
X104520000Y-63145000D01*
G37*
G36*
X106770000Y-62645000D02*
G01*
X105230000Y-62645000D01*
X105230000Y-62055000D01*
X106770000Y-62055000D01*
X106770000Y-62645000D01*
X106770000Y-62645000D01*
G37*
G36*
X115770000Y-62645000D02*
G01*
X114230000Y-62645000D01*
X114230000Y-62055000D01*
X115770000Y-62055000D01*
X115770000Y-62645000D01*
X115770000Y-62645000D01*
G37*
G36*
X125020000Y-62145000D02*
G01*
X123480000Y-62145000D01*
X123480000Y-61355000D01*
X125020000Y-61355000D01*
X125020000Y-62145000D01*
X125020000Y-62145000D01*
G37*
G36*
X115770000Y-61845000D02*
G01*
X114230000Y-61845000D01*
X114230000Y-61255000D01*
X115770000Y-61255000D01*
X115770000Y-61845000D01*
X115770000Y-61845000D01*
G37*
G36*
X106770000Y-61845000D02*
G01*
X105230000Y-61845000D01*
X105230000Y-61255000D01*
X106770000Y-61255000D01*
X106770000Y-61845000D01*
X106770000Y-61845000D01*
G37*
G36*
X104520000Y-61645000D02*
G01*
X102980000Y-61645000D01*
X102980000Y-60855000D01*
X104520000Y-60855000D01*
X104520000Y-61645000D01*
X104520000Y-61645000D01*
G37*
G36*
X115770000Y-61045000D02*
G01*
X114230000Y-61045000D01*
X114230000Y-60455000D01*
X115770000Y-60455000D01*
X115770000Y-61045000D01*
X115770000Y-61045000D01*
G37*
G36*
X106770000Y-61045000D02*
G01*
X105230000Y-61045000D01*
X105230000Y-60455000D01*
X106770000Y-60455000D01*
X106770000Y-61045000D01*
X106770000Y-61045000D01*
G37*
G36*
X125020000Y-60645000D02*
G01*
X123480000Y-60645000D01*
X123480000Y-59855000D01*
X125020000Y-59855000D01*
X125020000Y-60645000D01*
X125020000Y-60645000D01*
G37*
G36*
X106770000Y-60245000D02*
G01*
X105230000Y-60245000D01*
X105230000Y-59655000D01*
X106770000Y-59655000D01*
X106770000Y-60245000D01*
X106770000Y-60245000D01*
G37*
G36*
X115770000Y-60245000D02*
G01*
X114230000Y-60245000D01*
X114230000Y-59655000D01*
X115770000Y-59655000D01*
X115770000Y-60245000D01*
X115770000Y-60245000D01*
G37*
G36*
X122020000Y-59895000D02*
G01*
X120480000Y-59895000D01*
X120480000Y-59105000D01*
X122020000Y-59105000D01*
X122020000Y-59895000D01*
X122020000Y-59895000D01*
G37*
G36*
X119270000Y-59895000D02*
G01*
X117730000Y-59895000D01*
X117730000Y-59105000D01*
X119270000Y-59105000D01*
X119270000Y-59895000D01*
X119270000Y-59895000D01*
G37*
G36*
X107995000Y-59020000D02*
G01*
X107405000Y-59020000D01*
X107405000Y-57480000D01*
X107995000Y-57480000D01*
X107995000Y-59020000D01*
X107995000Y-59020000D01*
G37*
G36*
X108795000Y-59020000D02*
G01*
X108205000Y-59020000D01*
X108205000Y-57480000D01*
X108795000Y-57480000D01*
X108795000Y-59020000D01*
X108795000Y-59020000D01*
G37*
G36*
X109595000Y-59020000D02*
G01*
X109005000Y-59020000D01*
X109005000Y-57480000D01*
X109595000Y-57480000D01*
X109595000Y-59020000D01*
X109595000Y-59020000D01*
G37*
G36*
X110395000Y-59020000D02*
G01*
X109805000Y-59020000D01*
X109805000Y-57480000D01*
X110395000Y-57480000D01*
X110395000Y-59020000D01*
X110395000Y-59020000D01*
G37*
G36*
X111195000Y-59020000D02*
G01*
X110605000Y-59020000D01*
X110605000Y-57480000D01*
X111195000Y-57480000D01*
X111195000Y-59020000D01*
X111195000Y-59020000D01*
G37*
G36*
X111995000Y-59020000D02*
G01*
X111405000Y-59020000D01*
X111405000Y-57480000D01*
X111995000Y-57480000D01*
X111995000Y-59020000D01*
X111995000Y-59020000D01*
G37*
G36*
X112795000Y-59020000D02*
G01*
X112205000Y-59020000D01*
X112205000Y-57480000D01*
X112795000Y-57480000D01*
X112795000Y-59020000D01*
X112795000Y-59020000D01*
G37*
G36*
X113595000Y-59020000D02*
G01*
X113005000Y-59020000D01*
X113005000Y-57480000D01*
X113595000Y-57480000D01*
X113595000Y-59020000D01*
X113595000Y-59020000D01*
G37*
G36*
X119270000Y-58395000D02*
G01*
X117730000Y-58395000D01*
X117730000Y-57605000D01*
X119270000Y-57605000D01*
X119270000Y-58395000D01*
X119270000Y-58395000D01*
G37*
G36*
X122020000Y-58395000D02*
G01*
X120480000Y-58395000D01*
X120480000Y-57605000D01*
X122020000Y-57605000D01*
X122020000Y-58395000D01*
X122020000Y-58395000D01*
G37*
G36*
X105895000Y-55270000D02*
G01*
X105105000Y-55270000D01*
X105105000Y-53730000D01*
X105895000Y-53730000D01*
X105895000Y-55270000D01*
X105895000Y-55270000D01*
G37*
G36*
X104395000Y-55270000D02*
G01*
X103605000Y-55270000D01*
X103605000Y-53730000D01*
X104395000Y-53730000D01*
X104395000Y-55270000D01*
X104395000Y-55270000D01*
G37*
G36*
X158770000Y-53970000D02*
G01*
X157230000Y-53970000D01*
X157230000Y-53530000D01*
X158770000Y-53530000D01*
X158770000Y-53970000D01*
X158770000Y-53970000D01*
G37*
G36*
X124020000Y-53970000D02*
G01*
X122480000Y-53970000D01*
X122480000Y-53530000D01*
X124020000Y-53530000D01*
X124020000Y-53970000D01*
X124020000Y-53970000D01*
G37*
G36*
X164770000Y-53970000D02*
G01*
X163230000Y-53970000D01*
X163230000Y-53530000D01*
X164770000Y-53530000D01*
X164770000Y-53970000D01*
X164770000Y-53970000D01*
G37*
G36*
X145270000Y-53970000D02*
G01*
X143730000Y-53970000D01*
X143730000Y-53530000D01*
X145270000Y-53530000D01*
X145270000Y-53970000D01*
X145270000Y-53970000D01*
G37*
G36*
X151270000Y-53970000D02*
G01*
X149730000Y-53970000D01*
X149730000Y-53530000D01*
X151270000Y-53530000D01*
X151270000Y-53970000D01*
X151270000Y-53970000D01*
G37*
G36*
X137520000Y-53970000D02*
G01*
X135980000Y-53970000D01*
X135980000Y-53530000D01*
X137520000Y-53530000D01*
X137520000Y-53970000D01*
X137520000Y-53970000D01*
G37*
G36*
X131520000Y-53970000D02*
G01*
X129980000Y-53970000D01*
X129980000Y-53530000D01*
X131520000Y-53530000D01*
X131520000Y-53970000D01*
X131520000Y-53970000D01*
G37*
G36*
X118020000Y-53970000D02*
G01*
X116480000Y-53970000D01*
X116480000Y-53530000D01*
X118020000Y-53530000D01*
X118020000Y-53970000D01*
X118020000Y-53970000D01*
G37*
G36*
X151270000Y-53320000D02*
G01*
X149730000Y-53320000D01*
X149730000Y-52880000D01*
X151270000Y-52880000D01*
X151270000Y-53320000D01*
X151270000Y-53320000D01*
G37*
G36*
X158770000Y-53320000D02*
G01*
X157230000Y-53320000D01*
X157230000Y-52880000D01*
X158770000Y-52880000D01*
X158770000Y-53320000D01*
X158770000Y-53320000D01*
G37*
G36*
X145270000Y-53320000D02*
G01*
X143730000Y-53320000D01*
X143730000Y-52880000D01*
X145270000Y-52880000D01*
X145270000Y-53320000D01*
X145270000Y-53320000D01*
G37*
G36*
X137520000Y-53320000D02*
G01*
X135980000Y-53320000D01*
X135980000Y-52880000D01*
X137520000Y-52880000D01*
X137520000Y-53320000D01*
X137520000Y-53320000D01*
G37*
G36*
X131520000Y-53320000D02*
G01*
X129980000Y-53320000D01*
X129980000Y-52880000D01*
X131520000Y-52880000D01*
X131520000Y-53320000D01*
X131520000Y-53320000D01*
G37*
G36*
X124020000Y-53320000D02*
G01*
X122480000Y-53320000D01*
X122480000Y-52880000D01*
X124020000Y-52880000D01*
X124020000Y-53320000D01*
X124020000Y-53320000D01*
G37*
G36*
X118020000Y-53320000D02*
G01*
X116480000Y-53320000D01*
X116480000Y-52880000D01*
X118020000Y-52880000D01*
X118020000Y-53320000D01*
X118020000Y-53320000D01*
G37*
G36*
X164770000Y-53320000D02*
G01*
X163230000Y-53320000D01*
X163230000Y-52880000D01*
X164770000Y-52880000D01*
X164770000Y-53320000D01*
X164770000Y-53320000D01*
G37*
G36*
X131520000Y-52670000D02*
G01*
X129980000Y-52670000D01*
X129980000Y-52230000D01*
X131520000Y-52230000D01*
X131520000Y-52670000D01*
X131520000Y-52670000D01*
G37*
G36*
X137520000Y-52670000D02*
G01*
X135980000Y-52670000D01*
X135980000Y-52230000D01*
X137520000Y-52230000D01*
X137520000Y-52670000D01*
X137520000Y-52670000D01*
G37*
G36*
X158770000Y-52670000D02*
G01*
X157230000Y-52670000D01*
X157230000Y-52230000D01*
X158770000Y-52230000D01*
X158770000Y-52670000D01*
X158770000Y-52670000D01*
G37*
G36*
X164770000Y-52670000D02*
G01*
X163230000Y-52670000D01*
X163230000Y-52230000D01*
X164770000Y-52230000D01*
X164770000Y-52670000D01*
X164770000Y-52670000D01*
G37*
G36*
X118020000Y-52670000D02*
G01*
X116480000Y-52670000D01*
X116480000Y-52230000D01*
X118020000Y-52230000D01*
X118020000Y-52670000D01*
X118020000Y-52670000D01*
G37*
G36*
X145270000Y-52670000D02*
G01*
X143730000Y-52670000D01*
X143730000Y-52230000D01*
X145270000Y-52230000D01*
X145270000Y-52670000D01*
X145270000Y-52670000D01*
G37*
G36*
X151270000Y-52670000D02*
G01*
X149730000Y-52670000D01*
X149730000Y-52230000D01*
X151270000Y-52230000D01*
X151270000Y-52670000D01*
X151270000Y-52670000D01*
G37*
G36*
X124020000Y-52670000D02*
G01*
X122480000Y-52670000D01*
X122480000Y-52230000D01*
X124020000Y-52230000D01*
X124020000Y-52670000D01*
X124020000Y-52670000D01*
G37*
G36*
X118020000Y-52020000D02*
G01*
X116480000Y-52020000D01*
X116480000Y-51580000D01*
X118020000Y-51580000D01*
X118020000Y-52020000D01*
X118020000Y-52020000D01*
G37*
G36*
X124020000Y-52020000D02*
G01*
X122480000Y-52020000D01*
X122480000Y-51580000D01*
X124020000Y-51580000D01*
X124020000Y-52020000D01*
X124020000Y-52020000D01*
G37*
G36*
X151270000Y-52020000D02*
G01*
X149730000Y-52020000D01*
X149730000Y-51580000D01*
X151270000Y-51580000D01*
X151270000Y-52020000D01*
X151270000Y-52020000D01*
G37*
G36*
X145270000Y-52020000D02*
G01*
X143730000Y-52020000D01*
X143730000Y-51580000D01*
X145270000Y-51580000D01*
X145270000Y-52020000D01*
X145270000Y-52020000D01*
G37*
G36*
X131520000Y-52020000D02*
G01*
X129980000Y-52020000D01*
X129980000Y-51580000D01*
X131520000Y-51580000D01*
X131520000Y-52020000D01*
X131520000Y-52020000D01*
G37*
G36*
X137520000Y-52020000D02*
G01*
X135980000Y-52020000D01*
X135980000Y-51580000D01*
X137520000Y-51580000D01*
X137520000Y-52020000D01*
X137520000Y-52020000D01*
G37*
G36*
X158770000Y-52020000D02*
G01*
X157230000Y-52020000D01*
X157230000Y-51580000D01*
X158770000Y-51580000D01*
X158770000Y-52020000D01*
X158770000Y-52020000D01*
G37*
G36*
X164770000Y-52020000D02*
G01*
X163230000Y-52020000D01*
X163230000Y-51580000D01*
X164770000Y-51580000D01*
X164770000Y-52020000D01*
X164770000Y-52020000D01*
G37*
G36*
X158770000Y-51370000D02*
G01*
X157230000Y-51370000D01*
X157230000Y-50930000D01*
X158770000Y-50930000D01*
X158770000Y-51370000D01*
X158770000Y-51370000D01*
G37*
G36*
X164770000Y-51370000D02*
G01*
X163230000Y-51370000D01*
X163230000Y-50930000D01*
X164770000Y-50930000D01*
X164770000Y-51370000D01*
X164770000Y-51370000D01*
G37*
G36*
X131520000Y-51370000D02*
G01*
X129980000Y-51370000D01*
X129980000Y-50930000D01*
X131520000Y-50930000D01*
X131520000Y-51370000D01*
X131520000Y-51370000D01*
G37*
G36*
X137520000Y-51370000D02*
G01*
X135980000Y-51370000D01*
X135980000Y-50930000D01*
X137520000Y-50930000D01*
X137520000Y-51370000D01*
X137520000Y-51370000D01*
G37*
G36*
X124020000Y-51370000D02*
G01*
X122480000Y-51370000D01*
X122480000Y-50930000D01*
X124020000Y-50930000D01*
X124020000Y-51370000D01*
X124020000Y-51370000D01*
G37*
G36*
X118020000Y-51370000D02*
G01*
X116480000Y-51370000D01*
X116480000Y-50930000D01*
X118020000Y-50930000D01*
X118020000Y-51370000D01*
X118020000Y-51370000D01*
G37*
G36*
X145270000Y-51370000D02*
G01*
X143730000Y-51370000D01*
X143730000Y-50930000D01*
X145270000Y-50930000D01*
X145270000Y-51370000D01*
X145270000Y-51370000D01*
G37*
G36*
X151270000Y-51370000D02*
G01*
X149730000Y-51370000D01*
X149730000Y-50930000D01*
X151270000Y-50930000D01*
X151270000Y-51370000D01*
X151270000Y-51370000D01*
G37*
G36*
X145270000Y-50720000D02*
G01*
X143730000Y-50720000D01*
X143730000Y-50280000D01*
X145270000Y-50280000D01*
X145270000Y-50720000D01*
X145270000Y-50720000D01*
G37*
G36*
X118020000Y-50720000D02*
G01*
X116480000Y-50720000D01*
X116480000Y-50280000D01*
X118020000Y-50280000D01*
X118020000Y-50720000D01*
X118020000Y-50720000D01*
G37*
G36*
X124020000Y-50720000D02*
G01*
X122480000Y-50720000D01*
X122480000Y-50280000D01*
X124020000Y-50280000D01*
X124020000Y-50720000D01*
X124020000Y-50720000D01*
G37*
G36*
X131520000Y-50720000D02*
G01*
X129980000Y-50720000D01*
X129980000Y-50280000D01*
X131520000Y-50280000D01*
X131520000Y-50720000D01*
X131520000Y-50720000D01*
G37*
G36*
X137520000Y-50720000D02*
G01*
X135980000Y-50720000D01*
X135980000Y-50280000D01*
X137520000Y-50280000D01*
X137520000Y-50720000D01*
X137520000Y-50720000D01*
G37*
G36*
X151270000Y-50720000D02*
G01*
X149730000Y-50720000D01*
X149730000Y-50280000D01*
X151270000Y-50280000D01*
X151270000Y-50720000D01*
X151270000Y-50720000D01*
G37*
G36*
X158770000Y-50720000D02*
G01*
X157230000Y-50720000D01*
X157230000Y-50280000D01*
X158770000Y-50280000D01*
X158770000Y-50720000D01*
X158770000Y-50720000D01*
G37*
G36*
X164770000Y-50720000D02*
G01*
X163230000Y-50720000D01*
X163230000Y-50280000D01*
X164770000Y-50280000D01*
X164770000Y-50720000D01*
X164770000Y-50720000D01*
G37*
G36*
X107120000Y-50200000D02*
G01*
X105380000Y-50200000D01*
X105380000Y-48460000D01*
X107120000Y-48460000D01*
X107120000Y-50200000D01*
X107120000Y-50200000D01*
G37*
G36*
X104580000Y-50200000D02*
G01*
X102840000Y-50200000D01*
X102840000Y-48460000D01*
X104580000Y-48460000D01*
X104580000Y-50200000D01*
X104580000Y-50200000D01*
G37*
G36*
X100870000Y-50200000D02*
G01*
X99130000Y-50200000D01*
X99130000Y-48460000D01*
X100870000Y-48460000D01*
X100870000Y-50200000D01*
X100870000Y-50200000D01*
G37*
G36*
X145270000Y-50070000D02*
G01*
X143730000Y-50070000D01*
X143730000Y-49630000D01*
X145270000Y-49630000D01*
X145270000Y-50070000D01*
X145270000Y-50070000D01*
G37*
G36*
X164770000Y-50070000D02*
G01*
X163230000Y-50070000D01*
X163230000Y-49630000D01*
X164770000Y-49630000D01*
X164770000Y-50070000D01*
X164770000Y-50070000D01*
G37*
G36*
X137520000Y-50070000D02*
G01*
X135980000Y-50070000D01*
X135980000Y-49630000D01*
X137520000Y-49630000D01*
X137520000Y-50070000D01*
X137520000Y-50070000D01*
G37*
G36*
X131520000Y-50070000D02*
G01*
X129980000Y-50070000D01*
X129980000Y-49630000D01*
X131520000Y-49630000D01*
X131520000Y-50070000D01*
X131520000Y-50070000D01*
G37*
G36*
X124020000Y-50070000D02*
G01*
X122480000Y-50070000D01*
X122480000Y-49630000D01*
X124020000Y-49630000D01*
X124020000Y-50070000D01*
X124020000Y-50070000D01*
G37*
G36*
X151270000Y-50070000D02*
G01*
X149730000Y-50070000D01*
X149730000Y-49630000D01*
X151270000Y-49630000D01*
X151270000Y-50070000D01*
X151270000Y-50070000D01*
G37*
G36*
X118020000Y-50070000D02*
G01*
X116480000Y-50070000D01*
X116480000Y-49630000D01*
X118020000Y-49630000D01*
X118020000Y-50070000D01*
X118020000Y-50070000D01*
G37*
G36*
X158770000Y-50070000D02*
G01*
X157230000Y-50070000D01*
X157230000Y-49630000D01*
X158770000Y-49630000D01*
X158770000Y-50070000D01*
X158770000Y-50070000D01*
G37*
G36*
X137520000Y-49420000D02*
G01*
X135980000Y-49420000D01*
X135980000Y-48980000D01*
X137520000Y-48980000D01*
X137520000Y-49420000D01*
X137520000Y-49420000D01*
G37*
G36*
X145270000Y-49420000D02*
G01*
X143730000Y-49420000D01*
X143730000Y-48980000D01*
X145270000Y-48980000D01*
X145270000Y-49420000D01*
X145270000Y-49420000D01*
G37*
G36*
X158770000Y-49420000D02*
G01*
X157230000Y-49420000D01*
X157230000Y-48980000D01*
X158770000Y-48980000D01*
X158770000Y-49420000D01*
X158770000Y-49420000D01*
G37*
G36*
X151270000Y-49420000D02*
G01*
X149730000Y-49420000D01*
X149730000Y-48980000D01*
X151270000Y-48980000D01*
X151270000Y-49420000D01*
X151270000Y-49420000D01*
G37*
G36*
X118020000Y-49420000D02*
G01*
X116480000Y-49420000D01*
X116480000Y-48980000D01*
X118020000Y-48980000D01*
X118020000Y-49420000D01*
X118020000Y-49420000D01*
G37*
G36*
X124020000Y-49420000D02*
G01*
X122480000Y-49420000D01*
X122480000Y-48980000D01*
X124020000Y-48980000D01*
X124020000Y-49420000D01*
X124020000Y-49420000D01*
G37*
G36*
X164770000Y-49420000D02*
G01*
X163230000Y-49420000D01*
X163230000Y-48980000D01*
X164770000Y-48980000D01*
X164770000Y-49420000D01*
X164770000Y-49420000D01*
G37*
G36*
X131520000Y-49420000D02*
G01*
X129980000Y-49420000D01*
X129980000Y-48980000D01*
X131520000Y-48980000D01*
X131520000Y-49420000D01*
X131520000Y-49420000D01*
G37*
G36*
X131520000Y-48770000D02*
G01*
X129980000Y-48770000D01*
X129980000Y-48330000D01*
X131520000Y-48330000D01*
X131520000Y-48770000D01*
X131520000Y-48770000D01*
G37*
G36*
X137520000Y-48770000D02*
G01*
X135980000Y-48770000D01*
X135980000Y-48330000D01*
X137520000Y-48330000D01*
X137520000Y-48770000D01*
X137520000Y-48770000D01*
G37*
G36*
X145270000Y-48770000D02*
G01*
X143730000Y-48770000D01*
X143730000Y-48330000D01*
X145270000Y-48330000D01*
X145270000Y-48770000D01*
X145270000Y-48770000D01*
G37*
G36*
X164770000Y-48770000D02*
G01*
X163230000Y-48770000D01*
X163230000Y-48330000D01*
X164770000Y-48330000D01*
X164770000Y-48770000D01*
X164770000Y-48770000D01*
G37*
G36*
X158770000Y-48770000D02*
G01*
X157230000Y-48770000D01*
X157230000Y-48330000D01*
X158770000Y-48330000D01*
X158770000Y-48770000D01*
X158770000Y-48770000D01*
G37*
G36*
X124020000Y-48770000D02*
G01*
X122480000Y-48770000D01*
X122480000Y-48330000D01*
X124020000Y-48330000D01*
X124020000Y-48770000D01*
X124020000Y-48770000D01*
G37*
G36*
X118020000Y-48770000D02*
G01*
X116480000Y-48770000D01*
X116480000Y-48330000D01*
X118020000Y-48330000D01*
X118020000Y-48770000D01*
X118020000Y-48770000D01*
G37*
G36*
X151270000Y-48770000D02*
G01*
X149730000Y-48770000D01*
X149730000Y-48330000D01*
X151270000Y-48330000D01*
X151270000Y-48770000D01*
X151270000Y-48770000D01*
G37*
G36*
X118020000Y-48120000D02*
G01*
X116480000Y-48120000D01*
X116480000Y-47680000D01*
X118020000Y-47680000D01*
X118020000Y-48120000D01*
X118020000Y-48120000D01*
G37*
G36*
X145270000Y-48120000D02*
G01*
X143730000Y-48120000D01*
X143730000Y-47680000D01*
X145270000Y-47680000D01*
X145270000Y-48120000D01*
X145270000Y-48120000D01*
G37*
G36*
X151270000Y-48120000D02*
G01*
X149730000Y-48120000D01*
X149730000Y-47680000D01*
X151270000Y-47680000D01*
X151270000Y-48120000D01*
X151270000Y-48120000D01*
G37*
G36*
X164770000Y-48120000D02*
G01*
X163230000Y-48120000D01*
X163230000Y-47680000D01*
X164770000Y-47680000D01*
X164770000Y-48120000D01*
X164770000Y-48120000D01*
G37*
G36*
X158770000Y-48120000D02*
G01*
X157230000Y-48120000D01*
X157230000Y-47680000D01*
X158770000Y-47680000D01*
X158770000Y-48120000D01*
X158770000Y-48120000D01*
G37*
G36*
X124020000Y-48120000D02*
G01*
X122480000Y-48120000D01*
X122480000Y-47680000D01*
X124020000Y-47680000D01*
X124020000Y-48120000D01*
X124020000Y-48120000D01*
G37*
G36*
X131520000Y-48120000D02*
G01*
X129980000Y-48120000D01*
X129980000Y-47680000D01*
X131520000Y-47680000D01*
X131520000Y-48120000D01*
X131520000Y-48120000D01*
G37*
G36*
X137520000Y-48120000D02*
G01*
X135980000Y-48120000D01*
X135980000Y-47680000D01*
X137520000Y-47680000D01*
X137520000Y-48120000D01*
X137520000Y-48120000D01*
G37*
G36*
X107120000Y-47660000D02*
G01*
X105380000Y-47660000D01*
X105380000Y-45920000D01*
X107120000Y-45920000D01*
X107120000Y-47660000D01*
X107120000Y-47660000D01*
G37*
G36*
X104580000Y-47660000D02*
G01*
X102840000Y-47660000D01*
X102840000Y-45920000D01*
X104580000Y-45920000D01*
X104580000Y-47660000D01*
X104580000Y-47660000D01*
G37*
G36*
X100870000Y-47660000D02*
G01*
X99130000Y-47660000D01*
X99130000Y-45920000D01*
X100870000Y-45920000D01*
X100870000Y-47660000D01*
X100870000Y-47660000D01*
G37*
G36*
X104580000Y-45120000D02*
G01*
X102840000Y-45120000D01*
X102840000Y-43380000D01*
X104580000Y-43380000D01*
X104580000Y-45120000D01*
X104580000Y-45120000D01*
G37*
G36*
X106503770Y-43413433D02*
G01*
X106662100Y-43479016D01*
X106756882Y-43542347D01*
X106804595Y-43574228D01*
X106925772Y-43695405D01*
X106925773Y-43695407D01*
X107020984Y-43837900D01*
X107086567Y-43996230D01*
X107120000Y-44164312D01*
X107120000Y-44335688D01*
X107086567Y-44503770D01*
X107020984Y-44662100D01*
X106957653Y-44756882D01*
X106925772Y-44804595D01*
X106804595Y-44925772D01*
X106756882Y-44957653D01*
X106662100Y-45020984D01*
X106503770Y-45086567D01*
X106335688Y-45120000D01*
X106164312Y-45120000D01*
X105996230Y-45086567D01*
X105837900Y-45020984D01*
X105743118Y-44957653D01*
X105695405Y-44925772D01*
X105574228Y-44804595D01*
X105542347Y-44756882D01*
X105479016Y-44662100D01*
X105413433Y-44503770D01*
X105380000Y-44335688D01*
X105380000Y-44164312D01*
X105413433Y-43996230D01*
X105479016Y-43837900D01*
X105574227Y-43695407D01*
X105574228Y-43695405D01*
X105695405Y-43574228D01*
X105743118Y-43542347D01*
X105837900Y-43479016D01*
X105996230Y-43413433D01*
X106164312Y-43380000D01*
X106335688Y-43380000D01*
X106503770Y-43413433D01*
X106503770Y-43413433D01*
G37*
G36*
X100253770Y-43413433D02*
G01*
X100412100Y-43479016D01*
X100506882Y-43542347D01*
X100554595Y-43574228D01*
X100675772Y-43695405D01*
X100675773Y-43695407D01*
X100770984Y-43837900D01*
X100836567Y-43996230D01*
X100870000Y-44164312D01*
X100870000Y-44335688D01*
X100836567Y-44503770D01*
X100770984Y-44662100D01*
X100707653Y-44756882D01*
X100675772Y-44804595D01*
X100554595Y-44925772D01*
X100506882Y-44957653D01*
X100412100Y-45020984D01*
X100253770Y-45086567D01*
X100085688Y-45120000D01*
X99914312Y-45120000D01*
X99746230Y-45086567D01*
X99587900Y-45020984D01*
X99493118Y-44957653D01*
X99445405Y-44925772D01*
X99324228Y-44804595D01*
X99292347Y-44756882D01*
X99229016Y-44662100D01*
X99163433Y-44503770D01*
X99130000Y-44335688D01*
X99130000Y-44164312D01*
X99163433Y-43996230D01*
X99229016Y-43837900D01*
X99324227Y-43695407D01*
X99324228Y-43695405D01*
X99445405Y-43574228D01*
X99493118Y-43542347D01*
X99587900Y-43479016D01*
X99746230Y-43413433D01*
X99914312Y-43380000D01*
X100085688Y-43380000D01*
X100253770Y-43413433D01*
X100253770Y-43413433D01*
G37*
G36*
X182620000Y-43870000D02*
G01*
X180880000Y-43870000D01*
X180880000Y-42130000D01*
X182620000Y-42130000D01*
X182620000Y-43870000D01*
X182620000Y-43870000D01*
G37*
G36*
X159260000Y-42850000D02*
G01*
X157520000Y-42850000D01*
X157520000Y-41110000D01*
X159260000Y-41110000D01*
X159260000Y-42850000D01*
X159260000Y-42850000D01*
G37*
G36*
X156720000Y-42850000D02*
G01*
X154980000Y-42850000D01*
X154980000Y-41110000D01*
X156720000Y-41110000D01*
X156720000Y-42850000D01*
X156720000Y-42850000D01*
G37*
G36*
X154180000Y-42850000D02*
G01*
X152440000Y-42850000D01*
X152440000Y-41110000D01*
X154180000Y-41110000D01*
X154180000Y-42850000D01*
X154180000Y-42850000D01*
G37*
G36*
X151640000Y-42850000D02*
G01*
X149900000Y-42850000D01*
X149900000Y-41110000D01*
X151640000Y-41110000D01*
X151640000Y-42850000D01*
X151640000Y-42850000D01*
G37*
G36*
X161800000Y-42850000D02*
G01*
X160060000Y-42850000D01*
X160060000Y-41110000D01*
X161800000Y-41110000D01*
X161800000Y-42850000D01*
X161800000Y-42850000D01*
G37*
G36*
X146560000Y-42850000D02*
G01*
X144820000Y-42850000D01*
X144820000Y-41110000D01*
X146560000Y-41110000D01*
X146560000Y-42850000D01*
X146560000Y-42850000D01*
G37*
G36*
X144020000Y-42850000D02*
G01*
X142280000Y-42850000D01*
X142280000Y-41110000D01*
X144020000Y-41110000D01*
X144020000Y-42850000D01*
X144020000Y-42850000D01*
G37*
G36*
X141480000Y-42850000D02*
G01*
X139740000Y-42850000D01*
X139740000Y-41110000D01*
X141480000Y-41110000D01*
X141480000Y-42850000D01*
X141480000Y-42850000D01*
G37*
G36*
X138940000Y-42850000D02*
G01*
X137200000Y-42850000D01*
X137200000Y-41110000D01*
X138940000Y-41110000D01*
X138940000Y-42850000D01*
X138940000Y-42850000D01*
G37*
G36*
X136400000Y-42850000D02*
G01*
X134660000Y-42850000D01*
X134660000Y-41110000D01*
X136400000Y-41110000D01*
X136400000Y-42850000D01*
X136400000Y-42850000D01*
G37*
G36*
X133860000Y-42850000D02*
G01*
X132120000Y-42850000D01*
X132120000Y-41110000D01*
X133860000Y-41110000D01*
X133860000Y-42850000D01*
X133860000Y-42850000D01*
G37*
G36*
X131320000Y-42850000D02*
G01*
X129580000Y-42850000D01*
X129580000Y-41110000D01*
X131320000Y-41110000D01*
X131320000Y-42850000D01*
X131320000Y-42850000D01*
G37*
G36*
X128780000Y-42850000D02*
G01*
X127040000Y-42850000D01*
X127040000Y-41110000D01*
X128780000Y-41110000D01*
X128780000Y-42850000D01*
X128780000Y-42850000D01*
G37*
G36*
X126240000Y-42850000D02*
G01*
X124500000Y-42850000D01*
X124500000Y-41110000D01*
X126240000Y-41110000D01*
X126240000Y-42850000D01*
X126240000Y-42850000D01*
G37*
G36*
X123700000Y-42850000D02*
G01*
X121960000Y-42850000D01*
X121960000Y-41110000D01*
X123700000Y-41110000D01*
X123700000Y-42850000D01*
X123700000Y-42850000D01*
G37*
G36*
X121160000Y-42850000D02*
G01*
X119420000Y-42850000D01*
X119420000Y-41110000D01*
X121160000Y-41110000D01*
X121160000Y-42850000D01*
X121160000Y-42850000D01*
G37*
G36*
X118620000Y-42850000D02*
G01*
X116880000Y-42850000D01*
X116880000Y-41110000D01*
X118620000Y-41110000D01*
X118620000Y-42850000D01*
X118620000Y-42850000D01*
G37*
G36*
X164340000Y-42850000D02*
G01*
X162600000Y-42850000D01*
X162600000Y-41110000D01*
X164340000Y-41110000D01*
X164340000Y-42850000D01*
X164340000Y-42850000D01*
G37*
G36*
X149100000Y-42850000D02*
G01*
X147360000Y-42850000D01*
X147360000Y-41110000D01*
X149100000Y-41110000D01*
X149100000Y-42850000D01*
X149100000Y-42850000D01*
G37*
G36*
X166880000Y-42850000D02*
G01*
X165140000Y-42850000D01*
X165140000Y-41110000D01*
X166880000Y-41110000D01*
X166880000Y-42850000D01*
X166880000Y-42850000D01*
G37*
M02*
