G04 #@! TF.GenerationSoftware,KiCad,Pcbnew,(5.1.2-1)-1*
G04 #@! TF.CreationDate,2019-10-19T13:23:49+03:00*
G04 #@! TF.ProjectId,mag,6d61672e-6b69-4636-9164-5f7063625858,rev?*
G04 #@! TF.SameCoordinates,Original*
G04 #@! TF.FileFunction,Legend,Bot*
G04 #@! TF.FilePolarity,Positive*
%FSLAX46Y46*%
G04 Gerber Fmt 4.6, Leading zero omitted, Abs format (unit mm)*
G04 Created by KiCad (PCBNEW (5.1.2-1)-1) date 2019-10-19 13:23:49*
%MOMM*%
%LPD*%
G04 APERTURE LIST*
%ADD10C,0.200000*%
%ADD11C,0.250000*%
%ADD12C,0.300000*%
%ADD13C,0.010000*%
G04 APERTURE END LIST*
D10*
X163226190Y-80654761D02*
X163321428Y-80702380D01*
X163511904Y-80702380D01*
X163607142Y-80654761D01*
X163654761Y-80559523D01*
X163654761Y-80178571D01*
X163607142Y-80083333D01*
X163511904Y-80035714D01*
X163321428Y-80035714D01*
X163226190Y-80083333D01*
X163178571Y-80178571D01*
X163178571Y-80273809D01*
X163654761Y-80369047D01*
X162607142Y-80702380D02*
X162702380Y-80654761D01*
X162750000Y-80559523D01*
X162750000Y-79702380D01*
X162226190Y-80607142D02*
X162178571Y-80654761D01*
X162226190Y-80702380D01*
X162273809Y-80654761D01*
X162226190Y-80607142D01*
X162226190Y-80702380D01*
X161321428Y-80702380D02*
X161321428Y-80178571D01*
X161369047Y-80083333D01*
X161464285Y-80035714D01*
X161654761Y-80035714D01*
X161750000Y-80083333D01*
X161321428Y-80654761D02*
X161416666Y-80702380D01*
X161654761Y-80702380D01*
X161750000Y-80654761D01*
X161797619Y-80559523D01*
X161797619Y-80464285D01*
X161750000Y-80369047D01*
X161654761Y-80321428D01*
X161416666Y-80321428D01*
X161321428Y-80273809D01*
X160845238Y-80607142D02*
X160797619Y-80654761D01*
X160845238Y-80702380D01*
X160892857Y-80654761D01*
X160845238Y-80607142D01*
X160845238Y-80702380D01*
X160369047Y-80035714D02*
X160369047Y-80702380D01*
X160369047Y-80130952D02*
X160321428Y-80083333D01*
X160226190Y-80035714D01*
X160083333Y-80035714D01*
X159988095Y-80083333D01*
X159940476Y-80178571D01*
X159940476Y-80702380D01*
X159464285Y-80702380D02*
X159464285Y-80035714D01*
X159464285Y-79702380D02*
X159511904Y-79750000D01*
X159464285Y-79797619D01*
X159416666Y-79750000D01*
X159464285Y-79702380D01*
X159464285Y-79797619D01*
X158988095Y-80702380D02*
X158988095Y-79702380D01*
X158892857Y-80321428D02*
X158607142Y-80702380D01*
X158607142Y-80035714D02*
X158988095Y-80416666D01*
X158178571Y-80702380D02*
X158178571Y-80035714D01*
X158178571Y-79702380D02*
X158226190Y-79750000D01*
X158178571Y-79797619D01*
X158130952Y-79750000D01*
X158178571Y-79702380D01*
X158178571Y-79797619D01*
X157845238Y-80035714D02*
X157464285Y-80035714D01*
X157702380Y-79702380D02*
X157702380Y-80559523D01*
X157654761Y-80654761D01*
X157559523Y-80702380D01*
X157464285Y-80702380D01*
X156988095Y-80702380D02*
X157083333Y-80654761D01*
X157130952Y-80607142D01*
X157178571Y-80511904D01*
X157178571Y-80226190D01*
X157130952Y-80130952D01*
X157083333Y-80083333D01*
X156988095Y-80035714D01*
X156845238Y-80035714D01*
X156750000Y-80083333D01*
X156702380Y-80130952D01*
X156654761Y-80226190D01*
X156654761Y-80511904D01*
X156702380Y-80607142D01*
X156750000Y-80654761D01*
X156845238Y-80702380D01*
X156988095Y-80702380D01*
X156273809Y-80654761D02*
X156178571Y-80702380D01*
X155988095Y-80702380D01*
X155892857Y-80654761D01*
X155845238Y-80559523D01*
X155845238Y-80511904D01*
X155892857Y-80416666D01*
X155988095Y-80369047D01*
X156130952Y-80369047D01*
X156226190Y-80321428D01*
X156273809Y-80226190D01*
X156273809Y-80178571D01*
X156226190Y-80083333D01*
X156130952Y-80035714D01*
X155988095Y-80035714D01*
X155892857Y-80083333D01*
X102000000Y-47250000D02*
X102000000Y-46250000D01*
X102500000Y-46750000D02*
X102000000Y-47250000D01*
X102000000Y-46250000D02*
X102500000Y-46750000D01*
X107690476Y-49452380D02*
X108023809Y-48976190D01*
X108261904Y-49452380D02*
X108261904Y-48452380D01*
X107880952Y-48452380D01*
X107785714Y-48500000D01*
X107738095Y-48547619D01*
X107690476Y-48642857D01*
X107690476Y-48785714D01*
X107738095Y-48880952D01*
X107785714Y-48928571D01*
X107880952Y-48976190D01*
X108261904Y-48976190D01*
X104250000Y-51750000D02*
X103250000Y-51750000D01*
X103750000Y-51000000D02*
X103750000Y-51750000D01*
D11*
X119400000Y-65550000D02*
X119400000Y-65050000D01*
X117600000Y-65550000D02*
X117600000Y-65050000D01*
X117600000Y-65550000D02*
X119400000Y-65550000D01*
X119400000Y-62750000D02*
X119400000Y-63250000D01*
X117600000Y-62750000D02*
X119400000Y-62750000D01*
X117600000Y-62750000D02*
X117600000Y-63250000D01*
X122150000Y-65550000D02*
X122150000Y-65050000D01*
X120350000Y-65550000D02*
X120350000Y-65050000D01*
X120350000Y-65550000D02*
X122150000Y-65550000D01*
X122150000Y-62750000D02*
X122150000Y-63250000D01*
X120350000Y-62750000D02*
X122150000Y-62750000D01*
X120350000Y-62750000D02*
X120350000Y-63250000D01*
X120350000Y-57200000D02*
X120350000Y-57700000D01*
X122150000Y-57200000D02*
X122150000Y-57700000D01*
X122150000Y-57200000D02*
X120350000Y-57200000D01*
X120350000Y-60000000D02*
X120350000Y-59500000D01*
X122150000Y-60000000D02*
X120350000Y-60000000D01*
X122150000Y-60000000D02*
X122150000Y-59500000D01*
X117600000Y-57200000D02*
X117600000Y-57700000D01*
X119400000Y-57200000D02*
X119400000Y-57700000D01*
X119400000Y-57200000D02*
X117600000Y-57200000D01*
X117600000Y-60000000D02*
X117600000Y-59500000D01*
X119400000Y-60000000D02*
X117600000Y-60000000D01*
X119400000Y-60000000D02*
X119400000Y-59500000D01*
X130100000Y-64700000D02*
X130100000Y-65200000D01*
X131900000Y-64700000D02*
X131900000Y-65200000D01*
X131900000Y-64700000D02*
X130100000Y-64700000D01*
X130100000Y-67500000D02*
X130100000Y-67000000D01*
X131900000Y-67500000D02*
X130100000Y-67500000D01*
X131900000Y-67500000D02*
X131900000Y-67000000D01*
X140550000Y-69500000D02*
X140550000Y-68700000D01*
X140050000Y-69100000D02*
X140550000Y-69500000D01*
X140050000Y-69100000D02*
X140550000Y-68700000D01*
X138100000Y-68300000D02*
X137100000Y-68300000D01*
X138100000Y-68500000D02*
X138100000Y-68300000D01*
X133900000Y-68300000D02*
X134900000Y-68300000D01*
X133900000Y-68500000D02*
X133900000Y-68300000D01*
X133900000Y-73700000D02*
X134900000Y-73700000D01*
X133900000Y-73500000D02*
X133900000Y-73700000D01*
X138100000Y-73700000D02*
X137100000Y-73700000D01*
X138100000Y-73500000D02*
X138100000Y-73700000D01*
X157500000Y-65250000D02*
X157500000Y-63250000D01*
X159000000Y-63250000D02*
X159500000Y-63750000D01*
X159500000Y-65250000D02*
X159500000Y-63750000D01*
X156500000Y-63250000D02*
X156500000Y-65250000D01*
X155000000Y-65250000D02*
X154500000Y-64750000D01*
X154500000Y-63250000D02*
X154500000Y-64750000D01*
X136250000Y-57000000D02*
X138250000Y-57000000D01*
X138250000Y-58500000D02*
X137750000Y-59000000D01*
X136250000Y-59000000D02*
X137750000Y-59000000D01*
X158250000Y-69000000D02*
X158250000Y-71000000D01*
X156750000Y-71000000D02*
X156250000Y-70500000D01*
X156250000Y-69000000D02*
X156250000Y-70500000D01*
X160500000Y-65250000D02*
X160500000Y-63250000D01*
X162000000Y-63250000D02*
X162500000Y-63750000D01*
X162500000Y-65250000D02*
X162500000Y-63750000D01*
X163500000Y-65250000D02*
X163500000Y-63250000D01*
X165000000Y-63250000D02*
X165500000Y-63750000D01*
X165500000Y-65250000D02*
X165500000Y-63750000D01*
X104650000Y-63300000D02*
X104650000Y-62800000D01*
X102850000Y-63300000D02*
X102850000Y-62800000D01*
X102850000Y-63300000D02*
X104650000Y-63300000D01*
X104650000Y-60500000D02*
X104650000Y-61000000D01*
X102850000Y-60500000D02*
X104650000Y-60500000D01*
X102850000Y-60500000D02*
X102850000Y-61000000D01*
X107950000Y-44900000D02*
X108450000Y-44900000D01*
X107950000Y-43100000D02*
X108450000Y-43100000D01*
X107950000Y-43100000D02*
X107950000Y-44900000D01*
X110750000Y-44900000D02*
X110250000Y-44900000D01*
X110750000Y-43100000D02*
X110750000Y-44900000D01*
X110750000Y-43100000D02*
X110250000Y-43100000D01*
X107950000Y-42650000D02*
X108450000Y-42650000D01*
X107950000Y-40850000D02*
X108450000Y-40850000D01*
X107950000Y-40850000D02*
X107950000Y-42650000D01*
X110750000Y-42650000D02*
X110250000Y-42650000D01*
X110750000Y-40850000D02*
X110750000Y-42650000D01*
X110750000Y-40850000D02*
X110250000Y-40850000D01*
X107950000Y-47150000D02*
X108450000Y-47150000D01*
X107950000Y-45350000D02*
X108450000Y-45350000D01*
X107950000Y-45350000D02*
X107950000Y-47150000D01*
X110750000Y-47150000D02*
X110250000Y-47150000D01*
X110750000Y-45350000D02*
X110750000Y-47150000D01*
X110750000Y-45350000D02*
X110250000Y-45350000D01*
X125600000Y-64950000D02*
X125600000Y-65450000D01*
X127400000Y-64950000D02*
X127400000Y-65450000D01*
X127400000Y-64950000D02*
X125600000Y-64950000D01*
X125600000Y-67750000D02*
X125600000Y-67250000D01*
X127400000Y-67750000D02*
X125600000Y-67750000D01*
X127400000Y-67750000D02*
X127400000Y-67250000D01*
X124900000Y-72550000D02*
X124900000Y-72050000D01*
X123100000Y-72550000D02*
X123100000Y-72050000D01*
X123100000Y-72550000D02*
X124900000Y-72550000D01*
X124900000Y-69750000D02*
X124900000Y-70250000D01*
X123100000Y-69750000D02*
X124900000Y-69750000D01*
X123100000Y-69750000D02*
X123100000Y-70250000D01*
X127650000Y-72550000D02*
X127650000Y-72050000D01*
X125850000Y-72550000D02*
X125850000Y-72050000D01*
X125850000Y-72550000D02*
X127650000Y-72550000D01*
X127650000Y-69750000D02*
X127650000Y-70250000D01*
X125850000Y-69750000D02*
X127650000Y-69750000D01*
X125850000Y-69750000D02*
X125850000Y-70250000D01*
X144990000Y-69670000D02*
X146450000Y-69670000D01*
X144990000Y-72830000D02*
X146450000Y-72830000D01*
X144990000Y-69670000D02*
X144990000Y-70600000D01*
X144990000Y-72830000D02*
X144990000Y-71900000D01*
X152700000Y-79900000D02*
X153200000Y-79900000D01*
X152700000Y-78100000D02*
X153200000Y-78100000D01*
X152700000Y-78100000D02*
X152700000Y-79900000D01*
X155500000Y-79900000D02*
X155000000Y-79900000D01*
X155500000Y-78100000D02*
X155500000Y-79900000D01*
X155500000Y-78100000D02*
X155000000Y-78100000D01*
X148100000Y-69950000D02*
X148100000Y-70450000D01*
X149900000Y-69950000D02*
X149900000Y-70450000D01*
X149900000Y-69950000D02*
X148100000Y-69950000D01*
X148100000Y-72750000D02*
X148100000Y-72250000D01*
X149900000Y-72750000D02*
X148100000Y-72750000D01*
X149900000Y-72750000D02*
X149900000Y-72250000D01*
X126350000Y-77700000D02*
X126350000Y-78200000D01*
X128150000Y-77700000D02*
X128150000Y-78200000D01*
X128150000Y-77700000D02*
X126350000Y-77700000D01*
X126350000Y-80500000D02*
X126350000Y-80000000D01*
X128150000Y-80500000D02*
X126350000Y-80500000D01*
X128150000Y-80500000D02*
X128150000Y-80000000D01*
X116800000Y-70850000D02*
X116300000Y-70850000D01*
X116800000Y-72650000D02*
X116300000Y-72650000D01*
X116800000Y-72650000D02*
X116800000Y-70850000D01*
X114000000Y-70850000D02*
X114500000Y-70850000D01*
X114000000Y-72650000D02*
X114000000Y-70850000D01*
X114000000Y-72650000D02*
X114500000Y-72650000D01*
X111250000Y-76500000D02*
X111500000Y-76750000D01*
X111250000Y-73250000D02*
X112000000Y-73250000D01*
X111250000Y-73500000D02*
X111250000Y-73250000D01*
X111250000Y-76750000D02*
X112000000Y-76750000D01*
X111250000Y-76500000D02*
X111250000Y-76750000D01*
X114750000Y-76750000D02*
X114000000Y-76750000D01*
X114750000Y-76500000D02*
X114750000Y-76750000D01*
X114750000Y-73250000D02*
X114750000Y-73500000D01*
X114000000Y-73250000D02*
X114750000Y-73250000D01*
X116800000Y-68850000D02*
X116300000Y-68850000D01*
X116800000Y-70650000D02*
X116300000Y-70650000D01*
X116800000Y-70650000D02*
X116800000Y-68850000D01*
X114000000Y-68850000D02*
X114500000Y-68850000D01*
X114000000Y-70650000D02*
X114000000Y-68850000D01*
X114000000Y-70650000D02*
X114500000Y-70650000D01*
X147750000Y-57750000D02*
X147750000Y-57500000D01*
X148000000Y-57500000D02*
X147750000Y-57750000D01*
X147750000Y-57500000D02*
X148000000Y-57500000D01*
X147750000Y-57250000D02*
X147750000Y-57500000D01*
X148000000Y-57500000D02*
X147750000Y-57250000D01*
X152750000Y-57500000D02*
X152250000Y-57500000D01*
X152750000Y-58000000D02*
X152750000Y-57500000D01*
X152750000Y-63000000D02*
X152250000Y-63000000D01*
X152750000Y-62500000D02*
X152750000Y-63000000D01*
X147250000Y-63000000D02*
X147750000Y-63000000D01*
X147250000Y-62500000D02*
X147250000Y-63000000D01*
X147250000Y-57500000D02*
X147750000Y-57500000D01*
X147250000Y-57500000D02*
X147250000Y-58000000D01*
X151500000Y-70500000D02*
X151000000Y-70000000D01*
X151500000Y-70500000D02*
X152000000Y-71000000D01*
X152750000Y-73000000D02*
X150250000Y-73000000D01*
X152750000Y-68000000D02*
X150250000Y-68000000D01*
X150250000Y-68000000D02*
X150250000Y-68750000D01*
X152750000Y-68750000D02*
X152750000Y-68000000D01*
X150250000Y-73000000D02*
X150250000Y-72250000D01*
X152750000Y-72250000D02*
X152750000Y-73000000D01*
X154500000Y-70500000D02*
X154000000Y-70000000D01*
X154500000Y-70500000D02*
X155000000Y-71000000D01*
X155750000Y-73000000D02*
X153250000Y-73000000D01*
X155750000Y-68000000D02*
X153250000Y-68000000D01*
X153250000Y-68000000D02*
X153250000Y-68750000D01*
X155750000Y-68750000D02*
X155750000Y-68000000D01*
X153250000Y-73000000D02*
X153250000Y-72250000D01*
X155750000Y-72250000D02*
X155750000Y-73000000D01*
X157900000Y-60550000D02*
X157900000Y-60050000D01*
X156100000Y-60550000D02*
X156100000Y-60050000D01*
X156100000Y-60550000D02*
X157900000Y-60550000D01*
X157900000Y-57750000D02*
X157900000Y-58250000D01*
X156100000Y-57750000D02*
X157900000Y-57750000D01*
X156100000Y-57750000D02*
X156100000Y-58250000D01*
X155400000Y-60550000D02*
X155400000Y-60050000D01*
X153600000Y-60550000D02*
X153600000Y-60050000D01*
X153600000Y-60550000D02*
X155400000Y-60550000D01*
X155400000Y-57750000D02*
X155400000Y-58250000D01*
X153600000Y-57750000D02*
X155400000Y-57750000D01*
X153600000Y-57750000D02*
X153600000Y-58250000D01*
X135400000Y-66800000D02*
X135400000Y-66300000D01*
X133600000Y-66800000D02*
X133600000Y-66300000D01*
X133600000Y-66800000D02*
X135400000Y-66800000D01*
X135400000Y-64000000D02*
X135400000Y-64500000D01*
X133600000Y-64000000D02*
X135400000Y-64000000D01*
X133600000Y-64000000D02*
X133600000Y-64500000D01*
X135400000Y-63550000D02*
X135400000Y-63050000D01*
X133600000Y-63550000D02*
X133600000Y-63050000D01*
X133600000Y-63550000D02*
X135400000Y-63550000D01*
X135400000Y-60750000D02*
X135400000Y-61250000D01*
X133600000Y-60750000D02*
X135400000Y-60750000D01*
X133600000Y-60750000D02*
X133600000Y-61250000D01*
X130599999Y-59100000D02*
X131599999Y-59100000D01*
X134399999Y-59100000D02*
X133399999Y-59100000D01*
X134399999Y-56900000D02*
X133399999Y-56900000D01*
X130599999Y-56900000D02*
X131599999Y-56900000D01*
X134399999Y-59100000D02*
X134399999Y-56900000D01*
X130599999Y-56900000D02*
X130599999Y-59100000D01*
X132399999Y-57400000D02*
G75*
G02X132599999Y-57600000I0J-200000D01*
G01*
X132599999Y-57600000D02*
G75*
G02X132399999Y-57800000I-200000J0D01*
G01*
X132399999Y-57800000D02*
G75*
G02X132599999Y-58000000I0J-200000D01*
G01*
X132599999Y-58000000D02*
G75*
G02X132399999Y-58200000I-200000J0D01*
G01*
X132599999Y-58400000D02*
G75*
G02X132399999Y-58600000I-200000J0D01*
G01*
X132399999Y-58200000D02*
G75*
G02X132599999Y-58400000I0J-200000D01*
G01*
X140740000Y-64920000D02*
X142200000Y-64920000D01*
X140740000Y-68080000D02*
X142200000Y-68080000D01*
X140740000Y-64920000D02*
X140740000Y-65850000D01*
X140740000Y-68080000D02*
X140740000Y-67150000D01*
D12*
X165650000Y-56600000D02*
X165650000Y-59400000D01*
X158850000Y-56600000D02*
X158850000Y-59400000D01*
X163000000Y-58500000D02*
X163000000Y-57500000D01*
X161500000Y-58500000D02*
X163000000Y-58500000D01*
X161500000Y-57500000D02*
X161500000Y-58500000D01*
X163000000Y-57500000D02*
X161500000Y-57500000D01*
X163500000Y-58000000D02*
X161000000Y-58000000D01*
X165650000Y-55600000D02*
X164650000Y-55600000D01*
X165650000Y-55600000D02*
X165650000Y-56600000D01*
X165650000Y-60400000D02*
X165650000Y-59400000D01*
X165650000Y-60400000D02*
X164650000Y-60400000D01*
X158850000Y-60400000D02*
X158850000Y-59400000D01*
X158850000Y-60400000D02*
X159850000Y-60400000D01*
X158850000Y-55600000D02*
X158850000Y-56600000D01*
X158850000Y-55600000D02*
X159850000Y-55600000D01*
X165650000Y-69850000D02*
X165650000Y-72650000D01*
X158850000Y-69850000D02*
X158850000Y-72650000D01*
X163000000Y-71750000D02*
X163000000Y-70750000D01*
X161500000Y-71750000D02*
X163000000Y-71750000D01*
X161500000Y-70750000D02*
X161500000Y-71750000D01*
X163000000Y-70750000D02*
X161500000Y-70750000D01*
X163500000Y-71250000D02*
X161000000Y-71250000D01*
X165650000Y-68850000D02*
X164650000Y-68850000D01*
X165650000Y-68850000D02*
X165650000Y-69850000D01*
X165650000Y-73650000D02*
X165650000Y-72650000D01*
X165650000Y-73650000D02*
X164650000Y-73650000D01*
X158850000Y-73650000D02*
X158850000Y-72650000D01*
X158850000Y-73650000D02*
X159850000Y-73650000D01*
X158850000Y-68850000D02*
X158850000Y-69850000D01*
X158850000Y-68850000D02*
X159850000Y-68850000D01*
D11*
X133150000Y-64100000D02*
X133150000Y-63700000D01*
X133150000Y-64100000D02*
X132750000Y-64100000D01*
X133150000Y-60800000D02*
X133150000Y-61200000D01*
X133150000Y-60800000D02*
X132750000Y-60800000D01*
X128750000Y-64100000D02*
X128750000Y-63700000D01*
X128750000Y-64100000D02*
X129150000Y-64100000D01*
X128750000Y-60800000D02*
X128750000Y-61200000D01*
X128750000Y-60800000D02*
X129150000Y-60800000D01*
X130150000Y-64100000D02*
X131850000Y-64100000D01*
X131750000Y-60800000D02*
X130150000Y-60800000D01*
X145900000Y-61550000D02*
X145900000Y-61050000D01*
X144100000Y-61550000D02*
X144100000Y-61050000D01*
X144100000Y-61550000D02*
X145900000Y-61550000D01*
X145900000Y-58750000D02*
X145900000Y-59250000D01*
X144100000Y-58750000D02*
X145900000Y-58750000D01*
X144100000Y-58750000D02*
X144100000Y-59250000D01*
X143400000Y-61550000D02*
X143400000Y-61050000D01*
X141600000Y-61550000D02*
X141600000Y-61050000D01*
X141600000Y-61550000D02*
X143400000Y-61550000D01*
X143400000Y-58750000D02*
X143400000Y-59250000D01*
X141600000Y-58750000D02*
X143400000Y-58750000D01*
X141600000Y-58750000D02*
X141600000Y-59250000D01*
X139900000Y-63550000D02*
X139900000Y-63050000D01*
X138100000Y-63550000D02*
X138100000Y-63050000D01*
X138100000Y-63550000D02*
X139900000Y-63550000D01*
X139900000Y-60750000D02*
X139900000Y-61250000D01*
X138100000Y-60750000D02*
X139900000Y-60750000D01*
X138100000Y-60750000D02*
X138100000Y-61250000D01*
X143850000Y-64950000D02*
X143850000Y-65450000D01*
X145650000Y-64950000D02*
X145650000Y-65450000D01*
X145650000Y-64950000D02*
X143850000Y-64950000D01*
X143850000Y-67750000D02*
X143850000Y-67250000D01*
X145650000Y-67750000D02*
X143850000Y-67750000D01*
X145650000Y-67750000D02*
X145650000Y-67250000D01*
X137650000Y-63550000D02*
X137650000Y-63050000D01*
X135850000Y-63550000D02*
X135850000Y-63050000D01*
X135850000Y-63550000D02*
X137650000Y-63550000D01*
X137650000Y-60750000D02*
X137650000Y-61250000D01*
X135850000Y-60750000D02*
X137650000Y-60750000D01*
X135850000Y-60750000D02*
X135850000Y-61250000D01*
X146100000Y-64950000D02*
X146100000Y-65450000D01*
X147900000Y-64950000D02*
X147900000Y-65450000D01*
X147900000Y-64950000D02*
X146100000Y-64950000D01*
X146100000Y-67750000D02*
X146100000Y-67250000D01*
X147900000Y-67750000D02*
X146100000Y-67750000D01*
X147900000Y-67750000D02*
X147900000Y-67250000D01*
X128350000Y-57700000D02*
X128350000Y-58200000D01*
X130150000Y-57700000D02*
X130150000Y-58200000D01*
X130150000Y-57700000D02*
X128350000Y-57700000D01*
X128350000Y-60500000D02*
X128350000Y-60000000D01*
X130150000Y-60500000D02*
X128350000Y-60500000D01*
X130150000Y-60500000D02*
X130150000Y-60000000D01*
X105900000Y-77300000D02*
X105900000Y-76800000D01*
X104100000Y-77300000D02*
X104100000Y-76800000D01*
X104100000Y-77300000D02*
X105900000Y-77300000D01*
X105900000Y-74500000D02*
X105900000Y-75000000D01*
X104100000Y-74500000D02*
X105900000Y-74500000D01*
X104100000Y-74500000D02*
X104100000Y-75000000D01*
X108400000Y-77300000D02*
X108400000Y-76800000D01*
X106600000Y-77300000D02*
X106600000Y-76800000D01*
X106600000Y-77300000D02*
X108400000Y-77300000D01*
X108400000Y-74500000D02*
X108400000Y-75000000D01*
X106600000Y-74500000D02*
X108400000Y-74500000D01*
X106600000Y-74500000D02*
X106600000Y-75000000D01*
X106300000Y-53600000D02*
X105800000Y-53600000D01*
X106300000Y-55400000D02*
X105800000Y-55400000D01*
X106300000Y-55400000D02*
X106300000Y-53600000D01*
X103500000Y-53600000D02*
X104000000Y-53600000D01*
X103500000Y-55400000D02*
X103500000Y-53600000D01*
X103500000Y-55400000D02*
X104000000Y-55400000D01*
X125150000Y-62550000D02*
X125150000Y-62050000D01*
X123350000Y-62550000D02*
X123350000Y-62050000D01*
X123350000Y-62550000D02*
X125150000Y-62550000D01*
X125150000Y-59750000D02*
X125150000Y-60250000D01*
X123350000Y-59750000D02*
X125150000Y-59750000D01*
X123350000Y-59750000D02*
X123350000Y-60250000D01*
X125150000Y-67800000D02*
X125150000Y-67300000D01*
X123350000Y-67800000D02*
X123350000Y-67300000D01*
X123350000Y-67800000D02*
X125150000Y-67800000D01*
X125150000Y-65000000D02*
X125150000Y-65500000D01*
X123350000Y-65000000D02*
X125150000Y-65000000D01*
X123350000Y-65000000D02*
X123350000Y-65500000D01*
D13*
G36*
X160546978Y-77646473D02*
G01*
X160543973Y-77627059D01*
X160531546Y-77572306D01*
X160513762Y-77519729D01*
X160490939Y-77469632D01*
X160463394Y-77422317D01*
X160431447Y-77378089D01*
X160395415Y-77337251D01*
X160355617Y-77300106D01*
X160312370Y-77266958D01*
X160265992Y-77238110D01*
X160216803Y-77213865D01*
X160165119Y-77194527D01*
X160111259Y-77180399D01*
X160068083Y-77173209D01*
X160047193Y-77171400D01*
X160022279Y-77170537D01*
X159994958Y-77170565D01*
X159966848Y-77171430D01*
X159939568Y-77173080D01*
X159914734Y-77175460D01*
X159893965Y-77178517D01*
X159891093Y-77179072D01*
X159834862Y-77193337D01*
X159781382Y-77212907D01*
X159730672Y-77237772D01*
X159682748Y-77267923D01*
X159637630Y-77303348D01*
X159597696Y-77341549D01*
X159569936Y-77372640D01*
X159546033Y-77404020D01*
X159524617Y-77437637D01*
X159505983Y-77472123D01*
X159485617Y-77516507D01*
X159469887Y-77560108D01*
X159458332Y-77604575D01*
X159450494Y-77651554D01*
X159447293Y-77682743D01*
X159445922Y-77700289D01*
X159445078Y-77713928D01*
X159444766Y-77725541D01*
X159444988Y-77737008D01*
X159445748Y-77750212D01*
X159447048Y-77767032D01*
X159447442Y-77771841D01*
X159454792Y-77825491D01*
X159467758Y-77878550D01*
X159486017Y-77930374D01*
X159509243Y-77980321D01*
X159537114Y-78027748D01*
X159569303Y-78072013D01*
X159605489Y-78112474D01*
X159631776Y-78137107D01*
X159677338Y-78172930D01*
X159725532Y-78203524D01*
X159775987Y-78228814D01*
X159828330Y-78248726D01*
X159882190Y-78263186D01*
X159937194Y-78272119D01*
X159992970Y-78275451D01*
X160049146Y-78273108D01*
X160105349Y-78265014D01*
X160161209Y-78251095D01*
X160176693Y-78246159D01*
X160228813Y-78225681D01*
X160277835Y-78200329D01*
X160323547Y-78170459D01*
X160365735Y-78136433D01*
X160404187Y-78098608D01*
X160438689Y-78057344D01*
X160469029Y-78012998D01*
X160494994Y-77965932D01*
X160516370Y-77916502D01*
X160532946Y-77865068D01*
X160544507Y-77811990D01*
X160550841Y-77757625D01*
X160551736Y-77702333D01*
X160546978Y-77646473D01*
X160546978Y-77646473D01*
G37*
X160546978Y-77646473D02*
X160543973Y-77627059D01*
X160531546Y-77572306D01*
X160513762Y-77519729D01*
X160490939Y-77469632D01*
X160463394Y-77422317D01*
X160431447Y-77378089D01*
X160395415Y-77337251D01*
X160355617Y-77300106D01*
X160312370Y-77266958D01*
X160265992Y-77238110D01*
X160216803Y-77213865D01*
X160165119Y-77194527D01*
X160111259Y-77180399D01*
X160068083Y-77173209D01*
X160047193Y-77171400D01*
X160022279Y-77170537D01*
X159994958Y-77170565D01*
X159966848Y-77171430D01*
X159939568Y-77173080D01*
X159914734Y-77175460D01*
X159893965Y-77178517D01*
X159891093Y-77179072D01*
X159834862Y-77193337D01*
X159781382Y-77212907D01*
X159730672Y-77237772D01*
X159682748Y-77267923D01*
X159637630Y-77303348D01*
X159597696Y-77341549D01*
X159569936Y-77372640D01*
X159546033Y-77404020D01*
X159524617Y-77437637D01*
X159505983Y-77472123D01*
X159485617Y-77516507D01*
X159469887Y-77560108D01*
X159458332Y-77604575D01*
X159450494Y-77651554D01*
X159447293Y-77682743D01*
X159445922Y-77700289D01*
X159445078Y-77713928D01*
X159444766Y-77725541D01*
X159444988Y-77737008D01*
X159445748Y-77750212D01*
X159447048Y-77767032D01*
X159447442Y-77771841D01*
X159454792Y-77825491D01*
X159467758Y-77878550D01*
X159486017Y-77930374D01*
X159509243Y-77980321D01*
X159537114Y-78027748D01*
X159569303Y-78072013D01*
X159605489Y-78112474D01*
X159631776Y-78137107D01*
X159677338Y-78172930D01*
X159725532Y-78203524D01*
X159775987Y-78228814D01*
X159828330Y-78248726D01*
X159882190Y-78263186D01*
X159937194Y-78272119D01*
X159992970Y-78275451D01*
X160049146Y-78273108D01*
X160105349Y-78265014D01*
X160161209Y-78251095D01*
X160176693Y-78246159D01*
X160228813Y-78225681D01*
X160277835Y-78200329D01*
X160323547Y-78170459D01*
X160365735Y-78136433D01*
X160404187Y-78098608D01*
X160438689Y-78057344D01*
X160469029Y-78012998D01*
X160494994Y-77965932D01*
X160516370Y-77916502D01*
X160532946Y-77865068D01*
X160544507Y-77811990D01*
X160550841Y-77757625D01*
X160551736Y-77702333D01*
X160546978Y-77646473D01*
G36*
X161365116Y-77693931D02*
G01*
X161364937Y-77681934D01*
X161364626Y-77666833D01*
X161364180Y-77648275D01*
X161363595Y-77625909D01*
X161362865Y-77599385D01*
X161361989Y-77568350D01*
X161360960Y-77532454D01*
X161359776Y-77491346D01*
X161358431Y-77444674D01*
X161358189Y-77436235D01*
X161355956Y-77359565D01*
X161353835Y-77288853D01*
X161351825Y-77224085D01*
X161349927Y-77165243D01*
X161348139Y-77112311D01*
X161346461Y-77065273D01*
X161344891Y-77024113D01*
X161343430Y-76988814D01*
X161342078Y-76959359D01*
X161340832Y-76935733D01*
X161339693Y-76917920D01*
X161338660Y-76905902D01*
X161338483Y-76904329D01*
X161328712Y-76846982D01*
X161313435Y-76791456D01*
X161292930Y-76738068D01*
X161267474Y-76687136D01*
X161237346Y-76638977D01*
X161202822Y-76593907D01*
X161164180Y-76552242D01*
X161121699Y-76514301D01*
X161075656Y-76480400D01*
X161026329Y-76450855D01*
X160973995Y-76425984D01*
X160918932Y-76406104D01*
X160896096Y-76399591D01*
X160871165Y-76393373D01*
X160848203Y-76388530D01*
X160825551Y-76384821D01*
X160801551Y-76382006D01*
X160774544Y-76379845D01*
X160750047Y-76378445D01*
X160715893Y-76376896D01*
X160676746Y-76375401D01*
X160633080Y-76373964D01*
X160585371Y-76372590D01*
X160534093Y-76371285D01*
X160479719Y-76370053D01*
X160422726Y-76368898D01*
X160363587Y-76367826D01*
X160302776Y-76366841D01*
X160240770Y-76365948D01*
X160178041Y-76365152D01*
X160115064Y-76364458D01*
X160052315Y-76363870D01*
X159990267Y-76363394D01*
X159929396Y-76363033D01*
X159870175Y-76362794D01*
X159813079Y-76362680D01*
X159758583Y-76362696D01*
X159707162Y-76362848D01*
X159659289Y-76363140D01*
X159615440Y-76363577D01*
X159576089Y-76364163D01*
X159541710Y-76364904D01*
X159512779Y-76365804D01*
X159509929Y-76365914D01*
X159455334Y-76368095D01*
X159406443Y-76370118D01*
X159362987Y-76371996D01*
X159324696Y-76373744D01*
X159291300Y-76375376D01*
X159262529Y-76376906D01*
X159238113Y-76378348D01*
X159217783Y-76379717D01*
X159201270Y-76381026D01*
X159188302Y-76382289D01*
X159181372Y-76383130D01*
X159122117Y-76394023D01*
X159064936Y-76410345D01*
X159010143Y-76431876D01*
X158958050Y-76458394D01*
X158908968Y-76489676D01*
X158863212Y-76525501D01*
X158821092Y-76565648D01*
X158782921Y-76609894D01*
X158749011Y-76658018D01*
X158719675Y-76709798D01*
X158718778Y-76711588D01*
X158695457Y-76764091D01*
X158677206Y-76818226D01*
X158663856Y-76874646D01*
X158655240Y-76934001D01*
X158652344Y-76970062D01*
X158650504Y-77005349D01*
X158648759Y-77046082D01*
X158647116Y-77091729D01*
X158645581Y-77141762D01*
X158644162Y-77195649D01*
X158642865Y-77252861D01*
X158641696Y-77312866D01*
X158640661Y-77375135D01*
X158639768Y-77439138D01*
X158639023Y-77504343D01*
X158638432Y-77570221D01*
X158638002Y-77636242D01*
X158637739Y-77701874D01*
X158637651Y-77766589D01*
X158637743Y-77829855D01*
X158638022Y-77891142D01*
X158638495Y-77949920D01*
X158639168Y-78005658D01*
X158639389Y-78020435D01*
X158640242Y-78070254D01*
X158641226Y-78119861D01*
X158642326Y-78168799D01*
X158643526Y-78216615D01*
X158644810Y-78262854D01*
X158646162Y-78307061D01*
X158647567Y-78348782D01*
X158649009Y-78387563D01*
X158650472Y-78422947D01*
X158651940Y-78454482D01*
X158653397Y-78481712D01*
X158654827Y-78504183D01*
X158656216Y-78521440D01*
X158657123Y-78529929D01*
X158667529Y-78589876D01*
X158683465Y-78648087D01*
X158704740Y-78704172D01*
X158731165Y-78757740D01*
X158762553Y-78808401D01*
X158798712Y-78855765D01*
X158833010Y-78893090D01*
X158877054Y-78932999D01*
X158924347Y-78967957D01*
X158974612Y-78997820D01*
X159027575Y-79022442D01*
X159082960Y-79041680D01*
X159140491Y-79055390D01*
X159143798Y-79055996D01*
X159151420Y-79057341D01*
X159158990Y-79058590D01*
X159166742Y-79059747D01*
X159174908Y-79060815D01*
X159183722Y-79061797D01*
X159193416Y-79062699D01*
X159204224Y-79063522D01*
X159216378Y-79064270D01*
X159230113Y-79064948D01*
X159245660Y-79065558D01*
X159263254Y-79066104D01*
X159283127Y-79066589D01*
X159305512Y-79067018D01*
X159330642Y-79067394D01*
X159358751Y-79067720D01*
X159390072Y-79067999D01*
X159424837Y-79068236D01*
X159463281Y-79068434D01*
X159505635Y-79068596D01*
X159552133Y-79068726D01*
X159603008Y-79068828D01*
X159658493Y-79068905D01*
X159718822Y-79068960D01*
X159784227Y-79068998D01*
X159854942Y-79069021D01*
X159931199Y-79069033D01*
X159981632Y-79069036D01*
X159981632Y-78579766D01*
X159911732Y-78576434D01*
X159842491Y-78567228D01*
X159774130Y-78552181D01*
X159706871Y-78531326D01*
X159640936Y-78504698D01*
X159611778Y-78490852D01*
X159548964Y-78456509D01*
X159490338Y-78418008D01*
X159435633Y-78375126D01*
X159384577Y-78327637D01*
X159336901Y-78275316D01*
X159305313Y-78235588D01*
X159264964Y-78177030D01*
X159229674Y-78115408D01*
X159199565Y-78051028D01*
X159174760Y-77984194D01*
X159155382Y-77915214D01*
X159141553Y-77844392D01*
X159137984Y-77818729D01*
X159136352Y-77800850D01*
X159135231Y-77778476D01*
X159134603Y-77752884D01*
X159134454Y-77725352D01*
X159134767Y-77697159D01*
X159135526Y-77669583D01*
X159136714Y-77643901D01*
X159138317Y-77621391D01*
X159140317Y-77603333D01*
X159140728Y-77600588D01*
X159154862Y-77528719D01*
X159174136Y-77459816D01*
X159198669Y-77393604D01*
X159228578Y-77329808D01*
X159263982Y-77268152D01*
X159305000Y-77208362D01*
X159315748Y-77194188D01*
X159328768Y-77178365D01*
X159345351Y-77159787D01*
X159364450Y-77139502D01*
X159385018Y-77118560D01*
X159406010Y-77098009D01*
X159426378Y-77078899D01*
X159445075Y-77062278D01*
X159458254Y-77051379D01*
X159516681Y-77009003D01*
X159577948Y-76971871D01*
X159641934Y-76940034D01*
X159708515Y-76913545D01*
X159777571Y-76892456D01*
X159848980Y-76876819D01*
X159875988Y-76872423D01*
X159895886Y-76870172D01*
X159920392Y-76868493D01*
X159948164Y-76867387D01*
X159977861Y-76866852D01*
X160008142Y-76866889D01*
X160037664Y-76867498D01*
X160065088Y-76868679D01*
X160089070Y-76870432D01*
X160106082Y-76872421D01*
X160177057Y-76885870D01*
X160246294Y-76904902D01*
X160313457Y-76929372D01*
X160378208Y-76959132D01*
X160440208Y-76994036D01*
X160499121Y-77033938D01*
X160525929Y-77054602D01*
X160575797Y-77098247D01*
X160622633Y-77146462D01*
X160665997Y-77198594D01*
X160705448Y-77253989D01*
X160740543Y-77311995D01*
X160770843Y-77371957D01*
X160795905Y-77433222D01*
X160809477Y-77474440D01*
X160822535Y-77522125D01*
X160832391Y-77567142D01*
X160839320Y-77611388D01*
X160843596Y-77656758D01*
X160845492Y-77705148D01*
X160845646Y-77724618D01*
X160843419Y-77792028D01*
X160836543Y-77856324D01*
X160824810Y-77918393D01*
X160808013Y-77979119D01*
X160785946Y-78039388D01*
X160758399Y-78100085D01*
X160757064Y-78102768D01*
X160725638Y-78160497D01*
X160690958Y-78214039D01*
X160652193Y-78264548D01*
X160608511Y-78313174D01*
X160596407Y-78325489D01*
X160542980Y-78374802D01*
X160486456Y-78419030D01*
X160426988Y-78458095D01*
X160364727Y-78491922D01*
X160299824Y-78520430D01*
X160232432Y-78543543D01*
X160162702Y-78561182D01*
X160122517Y-78568668D01*
X160051968Y-78577188D01*
X159981632Y-78579766D01*
X159981632Y-79069036D01*
X160001494Y-79069038D01*
X160082280Y-79069039D01*
X160157323Y-79069033D01*
X160226860Y-79069016D01*
X160291124Y-79068985D01*
X160350349Y-79068936D01*
X160404771Y-79068865D01*
X160454624Y-79068769D01*
X160500142Y-79068644D01*
X160541560Y-79068487D01*
X160579112Y-79068293D01*
X160613034Y-79068060D01*
X160643559Y-79067783D01*
X160670923Y-79067459D01*
X160695359Y-79067085D01*
X160717102Y-79066656D01*
X160736388Y-79066169D01*
X160753449Y-79065621D01*
X160768522Y-79065008D01*
X160781840Y-79064326D01*
X160793639Y-79063571D01*
X160804151Y-79062740D01*
X160813614Y-79061830D01*
X160822259Y-79060836D01*
X160830323Y-79059755D01*
X160838040Y-79058584D01*
X160845645Y-79057319D01*
X160853371Y-79055955D01*
X160853987Y-79055844D01*
X160875684Y-79050817D01*
X160875684Y-77037992D01*
X160843282Y-77034081D01*
X160826247Y-77029713D01*
X160796606Y-77017778D01*
X160768828Y-77000977D01*
X160743878Y-76980121D01*
X160722719Y-76956023D01*
X160706315Y-76929492D01*
X160705695Y-76928235D01*
X160699527Y-76914740D01*
X160693931Y-76900995D01*
X160689854Y-76889377D01*
X160689000Y-76886400D01*
X160686374Y-76871477D01*
X160684960Y-76852807D01*
X160684759Y-76832496D01*
X160685772Y-76812650D01*
X160687999Y-76795373D01*
X160688958Y-76790776D01*
X160697577Y-76763581D01*
X160710386Y-76738647D01*
X160728059Y-76714812D01*
X160741005Y-76700829D01*
X160766756Y-76678202D01*
X160793795Y-76661214D01*
X160822699Y-76649643D01*
X160854045Y-76643264D01*
X160888408Y-76641856D01*
X160893053Y-76642024D01*
X160925820Y-76645720D01*
X160955394Y-76654011D01*
X160982628Y-76667278D01*
X161008376Y-76685901D01*
X161024106Y-76700442D01*
X161036643Y-76713826D01*
X161046146Y-76726345D01*
X161054452Y-76740593D01*
X161059003Y-76749748D01*
X161068188Y-76770402D01*
X161074349Y-76788424D01*
X161077981Y-76806007D01*
X161079581Y-76825350D01*
X161079753Y-76841576D01*
X161079212Y-76859056D01*
X161077720Y-76873080D01*
X161074915Y-76886140D01*
X161071713Y-76896858D01*
X161058592Y-76928428D01*
X161041096Y-76956625D01*
X161019787Y-76981147D01*
X160995225Y-77001690D01*
X160967973Y-77017950D01*
X160938591Y-77029623D01*
X160907641Y-77036405D01*
X160875684Y-77037992D01*
X160875684Y-79050817D01*
X160911294Y-79042565D01*
X160966291Y-79023914D01*
X161018690Y-79000145D01*
X161068203Y-78971509D01*
X161114544Y-78938261D01*
X161157422Y-78900653D01*
X161196552Y-78858937D01*
X161231645Y-78813366D01*
X161262413Y-78764193D01*
X161288568Y-78711670D01*
X161309823Y-78656051D01*
X161310024Y-78655435D01*
X161317892Y-78630281D01*
X161324418Y-78606750D01*
X161329758Y-78583806D01*
X161334073Y-78560415D01*
X161337520Y-78535542D01*
X161340259Y-78508152D01*
X161342446Y-78477211D01*
X161344241Y-78441684D01*
X161344791Y-78428329D01*
X161345843Y-78402185D01*
X161347051Y-78373069D01*
X161348326Y-78343086D01*
X161349578Y-78314343D01*
X161350717Y-78288943D01*
X161350972Y-78283400D01*
X161351494Y-78269438D01*
X161352031Y-78250117D01*
X161352572Y-78226058D01*
X161353108Y-78197877D01*
X161353630Y-78166194D01*
X161354129Y-78131626D01*
X161354594Y-78094792D01*
X161355017Y-78056311D01*
X161355389Y-78016801D01*
X161355699Y-77976881D01*
X161355763Y-77967394D01*
X161356070Y-77922350D01*
X161356369Y-77882932D01*
X161356669Y-77848787D01*
X161356979Y-77819566D01*
X161357305Y-77794915D01*
X161357657Y-77774484D01*
X161358043Y-77757922D01*
X161358471Y-77744877D01*
X161358948Y-77734998D01*
X161359483Y-77727934D01*
X161360085Y-77723334D01*
X161360761Y-77720845D01*
X161361499Y-77720117D01*
X161362317Y-77720262D01*
X161363040Y-77720463D01*
X161363665Y-77720369D01*
X161364188Y-77719628D01*
X161364603Y-77717889D01*
X161364908Y-77714801D01*
X161365098Y-77710013D01*
X161365169Y-77703173D01*
X161365116Y-77693931D01*
X161365116Y-77693931D01*
G37*
X161365116Y-77693931D02*
X161364937Y-77681934D01*
X161364626Y-77666833D01*
X161364180Y-77648275D01*
X161363595Y-77625909D01*
X161362865Y-77599385D01*
X161361989Y-77568350D01*
X161360960Y-77532454D01*
X161359776Y-77491346D01*
X161358431Y-77444674D01*
X161358189Y-77436235D01*
X161355956Y-77359565D01*
X161353835Y-77288853D01*
X161351825Y-77224085D01*
X161349927Y-77165243D01*
X161348139Y-77112311D01*
X161346461Y-77065273D01*
X161344891Y-77024113D01*
X161343430Y-76988814D01*
X161342078Y-76959359D01*
X161340832Y-76935733D01*
X161339693Y-76917920D01*
X161338660Y-76905902D01*
X161338483Y-76904329D01*
X161328712Y-76846982D01*
X161313435Y-76791456D01*
X161292930Y-76738068D01*
X161267474Y-76687136D01*
X161237346Y-76638977D01*
X161202822Y-76593907D01*
X161164180Y-76552242D01*
X161121699Y-76514301D01*
X161075656Y-76480400D01*
X161026329Y-76450855D01*
X160973995Y-76425984D01*
X160918932Y-76406104D01*
X160896096Y-76399591D01*
X160871165Y-76393373D01*
X160848203Y-76388530D01*
X160825551Y-76384821D01*
X160801551Y-76382006D01*
X160774544Y-76379845D01*
X160750047Y-76378445D01*
X160715893Y-76376896D01*
X160676746Y-76375401D01*
X160633080Y-76373964D01*
X160585371Y-76372590D01*
X160534093Y-76371285D01*
X160479719Y-76370053D01*
X160422726Y-76368898D01*
X160363587Y-76367826D01*
X160302776Y-76366841D01*
X160240770Y-76365948D01*
X160178041Y-76365152D01*
X160115064Y-76364458D01*
X160052315Y-76363870D01*
X159990267Y-76363394D01*
X159929396Y-76363033D01*
X159870175Y-76362794D01*
X159813079Y-76362680D01*
X159758583Y-76362696D01*
X159707162Y-76362848D01*
X159659289Y-76363140D01*
X159615440Y-76363577D01*
X159576089Y-76364163D01*
X159541710Y-76364904D01*
X159512779Y-76365804D01*
X159509929Y-76365914D01*
X159455334Y-76368095D01*
X159406443Y-76370118D01*
X159362987Y-76371996D01*
X159324696Y-76373744D01*
X159291300Y-76375376D01*
X159262529Y-76376906D01*
X159238113Y-76378348D01*
X159217783Y-76379717D01*
X159201270Y-76381026D01*
X159188302Y-76382289D01*
X159181372Y-76383130D01*
X159122117Y-76394023D01*
X159064936Y-76410345D01*
X159010143Y-76431876D01*
X158958050Y-76458394D01*
X158908968Y-76489676D01*
X158863212Y-76525501D01*
X158821092Y-76565648D01*
X158782921Y-76609894D01*
X158749011Y-76658018D01*
X158719675Y-76709798D01*
X158718778Y-76711588D01*
X158695457Y-76764091D01*
X158677206Y-76818226D01*
X158663856Y-76874646D01*
X158655240Y-76934001D01*
X158652344Y-76970062D01*
X158650504Y-77005349D01*
X158648759Y-77046082D01*
X158647116Y-77091729D01*
X158645581Y-77141762D01*
X158644162Y-77195649D01*
X158642865Y-77252861D01*
X158641696Y-77312866D01*
X158640661Y-77375135D01*
X158639768Y-77439138D01*
X158639023Y-77504343D01*
X158638432Y-77570221D01*
X158638002Y-77636242D01*
X158637739Y-77701874D01*
X158637651Y-77766589D01*
X158637743Y-77829855D01*
X158638022Y-77891142D01*
X158638495Y-77949920D01*
X158639168Y-78005658D01*
X158639389Y-78020435D01*
X158640242Y-78070254D01*
X158641226Y-78119861D01*
X158642326Y-78168799D01*
X158643526Y-78216615D01*
X158644810Y-78262854D01*
X158646162Y-78307061D01*
X158647567Y-78348782D01*
X158649009Y-78387563D01*
X158650472Y-78422947D01*
X158651940Y-78454482D01*
X158653397Y-78481712D01*
X158654827Y-78504183D01*
X158656216Y-78521440D01*
X158657123Y-78529929D01*
X158667529Y-78589876D01*
X158683465Y-78648087D01*
X158704740Y-78704172D01*
X158731165Y-78757740D01*
X158762553Y-78808401D01*
X158798712Y-78855765D01*
X158833010Y-78893090D01*
X158877054Y-78932999D01*
X158924347Y-78967957D01*
X158974612Y-78997820D01*
X159027575Y-79022442D01*
X159082960Y-79041680D01*
X159140491Y-79055390D01*
X159143798Y-79055996D01*
X159151420Y-79057341D01*
X159158990Y-79058590D01*
X159166742Y-79059747D01*
X159174908Y-79060815D01*
X159183722Y-79061797D01*
X159193416Y-79062699D01*
X159204224Y-79063522D01*
X159216378Y-79064270D01*
X159230113Y-79064948D01*
X159245660Y-79065558D01*
X159263254Y-79066104D01*
X159283127Y-79066589D01*
X159305512Y-79067018D01*
X159330642Y-79067394D01*
X159358751Y-79067720D01*
X159390072Y-79067999D01*
X159424837Y-79068236D01*
X159463281Y-79068434D01*
X159505635Y-79068596D01*
X159552133Y-79068726D01*
X159603008Y-79068828D01*
X159658493Y-79068905D01*
X159718822Y-79068960D01*
X159784227Y-79068998D01*
X159854942Y-79069021D01*
X159931199Y-79069033D01*
X159981632Y-79069036D01*
X159981632Y-78579766D01*
X159911732Y-78576434D01*
X159842491Y-78567228D01*
X159774130Y-78552181D01*
X159706871Y-78531326D01*
X159640936Y-78504698D01*
X159611778Y-78490852D01*
X159548964Y-78456509D01*
X159490338Y-78418008D01*
X159435633Y-78375126D01*
X159384577Y-78327637D01*
X159336901Y-78275316D01*
X159305313Y-78235588D01*
X159264964Y-78177030D01*
X159229674Y-78115408D01*
X159199565Y-78051028D01*
X159174760Y-77984194D01*
X159155382Y-77915214D01*
X159141553Y-77844392D01*
X159137984Y-77818729D01*
X159136352Y-77800850D01*
X159135231Y-77778476D01*
X159134603Y-77752884D01*
X159134454Y-77725352D01*
X159134767Y-77697159D01*
X159135526Y-77669583D01*
X159136714Y-77643901D01*
X159138317Y-77621391D01*
X159140317Y-77603333D01*
X159140728Y-77600588D01*
X159154862Y-77528719D01*
X159174136Y-77459816D01*
X159198669Y-77393604D01*
X159228578Y-77329808D01*
X159263982Y-77268152D01*
X159305000Y-77208362D01*
X159315748Y-77194188D01*
X159328768Y-77178365D01*
X159345351Y-77159787D01*
X159364450Y-77139502D01*
X159385018Y-77118560D01*
X159406010Y-77098009D01*
X159426378Y-77078899D01*
X159445075Y-77062278D01*
X159458254Y-77051379D01*
X159516681Y-77009003D01*
X159577948Y-76971871D01*
X159641934Y-76940034D01*
X159708515Y-76913545D01*
X159777571Y-76892456D01*
X159848980Y-76876819D01*
X159875988Y-76872423D01*
X159895886Y-76870172D01*
X159920392Y-76868493D01*
X159948164Y-76867387D01*
X159977861Y-76866852D01*
X160008142Y-76866889D01*
X160037664Y-76867498D01*
X160065088Y-76868679D01*
X160089070Y-76870432D01*
X160106082Y-76872421D01*
X160177057Y-76885870D01*
X160246294Y-76904902D01*
X160313457Y-76929372D01*
X160378208Y-76959132D01*
X160440208Y-76994036D01*
X160499121Y-77033938D01*
X160525929Y-77054602D01*
X160575797Y-77098247D01*
X160622633Y-77146462D01*
X160665997Y-77198594D01*
X160705448Y-77253989D01*
X160740543Y-77311995D01*
X160770843Y-77371957D01*
X160795905Y-77433222D01*
X160809477Y-77474440D01*
X160822535Y-77522125D01*
X160832391Y-77567142D01*
X160839320Y-77611388D01*
X160843596Y-77656758D01*
X160845492Y-77705148D01*
X160845646Y-77724618D01*
X160843419Y-77792028D01*
X160836543Y-77856324D01*
X160824810Y-77918393D01*
X160808013Y-77979119D01*
X160785946Y-78039388D01*
X160758399Y-78100085D01*
X160757064Y-78102768D01*
X160725638Y-78160497D01*
X160690958Y-78214039D01*
X160652193Y-78264548D01*
X160608511Y-78313174D01*
X160596407Y-78325489D01*
X160542980Y-78374802D01*
X160486456Y-78419030D01*
X160426988Y-78458095D01*
X160364727Y-78491922D01*
X160299824Y-78520430D01*
X160232432Y-78543543D01*
X160162702Y-78561182D01*
X160122517Y-78568668D01*
X160051968Y-78577188D01*
X159981632Y-78579766D01*
X159981632Y-79069036D01*
X160001494Y-79069038D01*
X160082280Y-79069039D01*
X160157323Y-79069033D01*
X160226860Y-79069016D01*
X160291124Y-79068985D01*
X160350349Y-79068936D01*
X160404771Y-79068865D01*
X160454624Y-79068769D01*
X160500142Y-79068644D01*
X160541560Y-79068487D01*
X160579112Y-79068293D01*
X160613034Y-79068060D01*
X160643559Y-79067783D01*
X160670923Y-79067459D01*
X160695359Y-79067085D01*
X160717102Y-79066656D01*
X160736388Y-79066169D01*
X160753449Y-79065621D01*
X160768522Y-79065008D01*
X160781840Y-79064326D01*
X160793639Y-79063571D01*
X160804151Y-79062740D01*
X160813614Y-79061830D01*
X160822259Y-79060836D01*
X160830323Y-79059755D01*
X160838040Y-79058584D01*
X160845645Y-79057319D01*
X160853371Y-79055955D01*
X160853987Y-79055844D01*
X160875684Y-79050817D01*
X160875684Y-77037992D01*
X160843282Y-77034081D01*
X160826247Y-77029713D01*
X160796606Y-77017778D01*
X160768828Y-77000977D01*
X160743878Y-76980121D01*
X160722719Y-76956023D01*
X160706315Y-76929492D01*
X160705695Y-76928235D01*
X160699527Y-76914740D01*
X160693931Y-76900995D01*
X160689854Y-76889377D01*
X160689000Y-76886400D01*
X160686374Y-76871477D01*
X160684960Y-76852807D01*
X160684759Y-76832496D01*
X160685772Y-76812650D01*
X160687999Y-76795373D01*
X160688958Y-76790776D01*
X160697577Y-76763581D01*
X160710386Y-76738647D01*
X160728059Y-76714812D01*
X160741005Y-76700829D01*
X160766756Y-76678202D01*
X160793795Y-76661214D01*
X160822699Y-76649643D01*
X160854045Y-76643264D01*
X160888408Y-76641856D01*
X160893053Y-76642024D01*
X160925820Y-76645720D01*
X160955394Y-76654011D01*
X160982628Y-76667278D01*
X161008376Y-76685901D01*
X161024106Y-76700442D01*
X161036643Y-76713826D01*
X161046146Y-76726345D01*
X161054452Y-76740593D01*
X161059003Y-76749748D01*
X161068188Y-76770402D01*
X161074349Y-76788424D01*
X161077981Y-76806007D01*
X161079581Y-76825350D01*
X161079753Y-76841576D01*
X161079212Y-76859056D01*
X161077720Y-76873080D01*
X161074915Y-76886140D01*
X161071713Y-76896858D01*
X161058592Y-76928428D01*
X161041096Y-76956625D01*
X161019787Y-76981147D01*
X160995225Y-77001690D01*
X160967973Y-77017950D01*
X160938591Y-77029623D01*
X160907641Y-77036405D01*
X160875684Y-77037992D01*
X160875684Y-79050817D01*
X160911294Y-79042565D01*
X160966291Y-79023914D01*
X161018690Y-79000145D01*
X161068203Y-78971509D01*
X161114544Y-78938261D01*
X161157422Y-78900653D01*
X161196552Y-78858937D01*
X161231645Y-78813366D01*
X161262413Y-78764193D01*
X161288568Y-78711670D01*
X161309823Y-78656051D01*
X161310024Y-78655435D01*
X161317892Y-78630281D01*
X161324418Y-78606750D01*
X161329758Y-78583806D01*
X161334073Y-78560415D01*
X161337520Y-78535542D01*
X161340259Y-78508152D01*
X161342446Y-78477211D01*
X161344241Y-78441684D01*
X161344791Y-78428329D01*
X161345843Y-78402185D01*
X161347051Y-78373069D01*
X161348326Y-78343086D01*
X161349578Y-78314343D01*
X161350717Y-78288943D01*
X161350972Y-78283400D01*
X161351494Y-78269438D01*
X161352031Y-78250117D01*
X161352572Y-78226058D01*
X161353108Y-78197877D01*
X161353630Y-78166194D01*
X161354129Y-78131626D01*
X161354594Y-78094792D01*
X161355017Y-78056311D01*
X161355389Y-78016801D01*
X161355699Y-77976881D01*
X161355763Y-77967394D01*
X161356070Y-77922350D01*
X161356369Y-77882932D01*
X161356669Y-77848787D01*
X161356979Y-77819566D01*
X161357305Y-77794915D01*
X161357657Y-77774484D01*
X161358043Y-77757922D01*
X161358471Y-77744877D01*
X161358948Y-77734998D01*
X161359483Y-77727934D01*
X161360085Y-77723334D01*
X161360761Y-77720845D01*
X161361499Y-77720117D01*
X161362317Y-77720262D01*
X161363040Y-77720463D01*
X161363665Y-77720369D01*
X161364188Y-77719628D01*
X161364603Y-77717889D01*
X161364908Y-77714801D01*
X161365098Y-77710013D01*
X161365169Y-77703173D01*
X161365116Y-77693931D01*
G36*
X133475369Y-77339134D02*
G01*
X133318022Y-77339477D01*
X133189667Y-77340193D01*
X133087422Y-77341374D01*
X133008408Y-77343110D01*
X132949747Y-77345492D01*
X132908557Y-77348610D01*
X132881960Y-77352554D01*
X132867075Y-77357417D01*
X132861024Y-77363288D01*
X132860926Y-77370257D01*
X132861292Y-77371549D01*
X132871544Y-77402764D01*
X132890931Y-77460232D01*
X132916297Y-77534640D01*
X132934638Y-77588086D01*
X132997720Y-77771432D01*
X134088453Y-77770767D01*
X134326356Y-77770734D01*
X134530076Y-77771045D01*
X134703057Y-77771850D01*
X134848745Y-77773299D01*
X134970585Y-77775540D01*
X135072021Y-77778723D01*
X135156500Y-77782998D01*
X135227466Y-77788513D01*
X135288365Y-77795418D01*
X135342642Y-77803862D01*
X135393743Y-77813995D01*
X135445111Y-77825965D01*
X135462634Y-77830326D01*
X135605147Y-77882716D01*
X135747034Y-77965298D01*
X135878984Y-78071652D01*
X135991384Y-78194963D01*
X136025245Y-78243773D01*
X136062056Y-78304203D01*
X136097660Y-78368262D01*
X136127899Y-78427963D01*
X136148616Y-78475316D01*
X136155652Y-78502332D01*
X136153123Y-78505731D01*
X136132459Y-78505779D01*
X136077080Y-78505817D01*
X135989900Y-78505847D01*
X135873833Y-78505867D01*
X135731793Y-78505877D01*
X135566695Y-78505878D01*
X135381452Y-78505869D01*
X135178979Y-78505850D01*
X134962190Y-78505821D01*
X134733999Y-78505783D01*
X134695311Y-78505775D01*
X134427880Y-78505759D01*
X134195631Y-78505857D01*
X133996116Y-78506126D01*
X133826887Y-78506621D01*
X133685498Y-78507398D01*
X133569501Y-78508513D01*
X133476448Y-78510021D01*
X133403891Y-78511978D01*
X133349382Y-78514439D01*
X133310475Y-78517461D01*
X133284722Y-78521099D01*
X133269674Y-78525408D01*
X133262885Y-78530445D01*
X133261907Y-78536265D01*
X133262445Y-78538378D01*
X133276466Y-78582287D01*
X133287897Y-78618296D01*
X133300954Y-78659186D01*
X133321367Y-78722719D01*
X133344907Y-78795737D01*
X133346845Y-78801740D01*
X133390906Y-78938148D01*
X136312916Y-78938148D01*
X136332995Y-78989888D01*
X136346452Y-79026613D01*
X136369102Y-79090578D01*
X136398005Y-79173406D01*
X136430223Y-79266716D01*
X136436917Y-79286222D01*
X136469511Y-79380782D01*
X136499454Y-79466701D01*
X136523786Y-79535548D01*
X136539547Y-79578895D01*
X136541417Y-79583780D01*
X136549919Y-79603422D01*
X136557482Y-79620512D01*
X136561732Y-79635227D01*
X136560298Y-79647743D01*
X136550806Y-79658236D01*
X136530885Y-79666885D01*
X136498161Y-79673865D01*
X136450263Y-79679353D01*
X136384818Y-79683526D01*
X136299453Y-79686560D01*
X136191795Y-79688633D01*
X136059473Y-79689921D01*
X135900114Y-79690600D01*
X135711345Y-79690848D01*
X135490794Y-79690842D01*
X135236089Y-79690757D01*
X135105497Y-79690740D01*
X133648921Y-79690740D01*
X133786889Y-80104434D01*
X135456704Y-80104550D01*
X135703787Y-80104457D01*
X135939835Y-80104154D01*
X136162173Y-80103657D01*
X136368127Y-80102981D01*
X136555024Y-80102143D01*
X136720189Y-80101158D01*
X136860949Y-80100041D01*
X136974631Y-80098810D01*
X137058560Y-80097479D01*
X137110062Y-80096065D01*
X137126518Y-80094665D01*
X137120681Y-80075126D01*
X137104093Y-80024112D01*
X137078138Y-79945766D01*
X137044199Y-79844233D01*
X137003662Y-79723657D01*
X136957911Y-79588180D01*
X136917541Y-79469072D01*
X136865668Y-79316102D01*
X136815313Y-79167298D01*
X136768358Y-79028247D01*
X136726688Y-78904538D01*
X136692184Y-78801757D01*
X136666730Y-78725491D01*
X136656183Y-78693555D01*
X136602584Y-78545221D01*
X136542700Y-78413672D01*
X136468673Y-78282959D01*
X136406673Y-78187047D01*
X136339684Y-78093794D01*
X136263912Y-77998639D01*
X136188655Y-77912700D01*
X136123210Y-77847093D01*
X136119926Y-77844159D01*
X136094094Y-77821249D01*
X136054759Y-77786339D01*
X136047129Y-77779565D01*
X135970627Y-77718800D01*
X135872640Y-77651121D01*
X135766111Y-77584806D01*
X135663983Y-77528132D01*
X135621333Y-77507249D01*
X135516794Y-77465853D01*
X135389113Y-77425808D01*
X135252692Y-77391032D01*
X135121931Y-77365445D01*
X135076007Y-77358856D01*
X135028531Y-77355254D01*
X134947470Y-77351852D01*
X134836866Y-77348715D01*
X134700764Y-77345911D01*
X134543205Y-77343506D01*
X134368234Y-77341568D01*
X134179894Y-77340162D01*
X133982228Y-77339357D01*
X133888552Y-77339206D01*
X133664585Y-77339074D01*
X133475369Y-77339134D01*
X133475369Y-77339134D01*
G37*
X133475369Y-77339134D02*
X133318022Y-77339477D01*
X133189667Y-77340193D01*
X133087422Y-77341374D01*
X133008408Y-77343110D01*
X132949747Y-77345492D01*
X132908557Y-77348610D01*
X132881960Y-77352554D01*
X132867075Y-77357417D01*
X132861024Y-77363288D01*
X132860926Y-77370257D01*
X132861292Y-77371549D01*
X132871544Y-77402764D01*
X132890931Y-77460232D01*
X132916297Y-77534640D01*
X132934638Y-77588086D01*
X132997720Y-77771432D01*
X134088453Y-77770767D01*
X134326356Y-77770734D01*
X134530076Y-77771045D01*
X134703057Y-77771850D01*
X134848745Y-77773299D01*
X134970585Y-77775540D01*
X135072021Y-77778723D01*
X135156500Y-77782998D01*
X135227466Y-77788513D01*
X135288365Y-77795418D01*
X135342642Y-77803862D01*
X135393743Y-77813995D01*
X135445111Y-77825965D01*
X135462634Y-77830326D01*
X135605147Y-77882716D01*
X135747034Y-77965298D01*
X135878984Y-78071652D01*
X135991384Y-78194963D01*
X136025245Y-78243773D01*
X136062056Y-78304203D01*
X136097660Y-78368262D01*
X136127899Y-78427963D01*
X136148616Y-78475316D01*
X136155652Y-78502332D01*
X136153123Y-78505731D01*
X136132459Y-78505779D01*
X136077080Y-78505817D01*
X135989900Y-78505847D01*
X135873833Y-78505867D01*
X135731793Y-78505877D01*
X135566695Y-78505878D01*
X135381452Y-78505869D01*
X135178979Y-78505850D01*
X134962190Y-78505821D01*
X134733999Y-78505783D01*
X134695311Y-78505775D01*
X134427880Y-78505759D01*
X134195631Y-78505857D01*
X133996116Y-78506126D01*
X133826887Y-78506621D01*
X133685498Y-78507398D01*
X133569501Y-78508513D01*
X133476448Y-78510021D01*
X133403891Y-78511978D01*
X133349382Y-78514439D01*
X133310475Y-78517461D01*
X133284722Y-78521099D01*
X133269674Y-78525408D01*
X133262885Y-78530445D01*
X133261907Y-78536265D01*
X133262445Y-78538378D01*
X133276466Y-78582287D01*
X133287897Y-78618296D01*
X133300954Y-78659186D01*
X133321367Y-78722719D01*
X133344907Y-78795737D01*
X133346845Y-78801740D01*
X133390906Y-78938148D01*
X136312916Y-78938148D01*
X136332995Y-78989888D01*
X136346452Y-79026613D01*
X136369102Y-79090578D01*
X136398005Y-79173406D01*
X136430223Y-79266716D01*
X136436917Y-79286222D01*
X136469511Y-79380782D01*
X136499454Y-79466701D01*
X136523786Y-79535548D01*
X136539547Y-79578895D01*
X136541417Y-79583780D01*
X136549919Y-79603422D01*
X136557482Y-79620512D01*
X136561732Y-79635227D01*
X136560298Y-79647743D01*
X136550806Y-79658236D01*
X136530885Y-79666885D01*
X136498161Y-79673865D01*
X136450263Y-79679353D01*
X136384818Y-79683526D01*
X136299453Y-79686560D01*
X136191795Y-79688633D01*
X136059473Y-79689921D01*
X135900114Y-79690600D01*
X135711345Y-79690848D01*
X135490794Y-79690842D01*
X135236089Y-79690757D01*
X135105497Y-79690740D01*
X133648921Y-79690740D01*
X133786889Y-80104434D01*
X135456704Y-80104550D01*
X135703787Y-80104457D01*
X135939835Y-80104154D01*
X136162173Y-80103657D01*
X136368127Y-80102981D01*
X136555024Y-80102143D01*
X136720189Y-80101158D01*
X136860949Y-80100041D01*
X136974631Y-80098810D01*
X137058560Y-80097479D01*
X137110062Y-80096065D01*
X137126518Y-80094665D01*
X137120681Y-80075126D01*
X137104093Y-80024112D01*
X137078138Y-79945766D01*
X137044199Y-79844233D01*
X137003662Y-79723657D01*
X136957911Y-79588180D01*
X136917541Y-79469072D01*
X136865668Y-79316102D01*
X136815313Y-79167298D01*
X136768358Y-79028247D01*
X136726688Y-78904538D01*
X136692184Y-78801757D01*
X136666730Y-78725491D01*
X136656183Y-78693555D01*
X136602584Y-78545221D01*
X136542700Y-78413672D01*
X136468673Y-78282959D01*
X136406673Y-78187047D01*
X136339684Y-78093794D01*
X136263912Y-77998639D01*
X136188655Y-77912700D01*
X136123210Y-77847093D01*
X136119926Y-77844159D01*
X136094094Y-77821249D01*
X136054759Y-77786339D01*
X136047129Y-77779565D01*
X135970627Y-77718800D01*
X135872640Y-77651121D01*
X135766111Y-77584806D01*
X135663983Y-77528132D01*
X135621333Y-77507249D01*
X135516794Y-77465853D01*
X135389113Y-77425808D01*
X135252692Y-77391032D01*
X135121931Y-77365445D01*
X135076007Y-77358856D01*
X135028531Y-77355254D01*
X134947470Y-77351852D01*
X134836866Y-77348715D01*
X134700764Y-77345911D01*
X134543205Y-77343506D01*
X134368234Y-77341568D01*
X134179894Y-77340162D01*
X133982228Y-77339357D01*
X133888552Y-77339206D01*
X133664585Y-77339074D01*
X133475369Y-77339134D01*
G36*
X139356337Y-77427650D02*
G01*
X139373517Y-77481870D01*
X139399690Y-77560394D01*
X139431105Y-77652122D01*
X139459775Y-77734000D01*
X139493733Y-77830556D01*
X139531097Y-77937902D01*
X139569903Y-78050267D01*
X139608184Y-78161882D01*
X139643977Y-78266976D01*
X139675316Y-78359779D01*
X139700236Y-78434521D01*
X139716772Y-78485432D01*
X139722960Y-78506742D01*
X139722966Y-78506860D01*
X139704666Y-78508143D01*
X139651826Y-78509215D01*
X139567533Y-78510071D01*
X139454875Y-78510701D01*
X139316941Y-78511100D01*
X139156818Y-78511259D01*
X138977595Y-78511172D01*
X138782361Y-78510831D01*
X138574202Y-78510228D01*
X138471214Y-78509846D01*
X137219460Y-78504878D01*
X137199363Y-78453402D01*
X137185923Y-78416716D01*
X137160519Y-78344897D01*
X137123321Y-78238434D01*
X137074497Y-78097813D01*
X137014217Y-77923521D01*
X136942651Y-77716048D01*
X136864621Y-77489407D01*
X136816074Y-77348296D01*
X136602907Y-77342962D01*
X136500423Y-77341952D01*
X136433512Y-77344893D01*
X136402917Y-77351737D01*
X136401503Y-77356660D01*
X136410011Y-77378196D01*
X136429192Y-77431375D01*
X136457655Y-77512196D01*
X136494009Y-77616660D01*
X136536863Y-77740766D01*
X136584825Y-77880513D01*
X136636505Y-78031901D01*
X136645436Y-78058142D01*
X136712257Y-78254290D01*
X136768478Y-78418486D01*
X136815497Y-78554442D01*
X136854714Y-78665872D01*
X136887525Y-78756488D01*
X136915329Y-78830003D01*
X136939524Y-78890131D01*
X136961508Y-78940585D01*
X136982680Y-78985077D01*
X137004437Y-79027322D01*
X137023921Y-79063300D01*
X137173129Y-79304854D01*
X137337346Y-79512567D01*
X137518239Y-79687782D01*
X137717480Y-79831844D01*
X137936735Y-79946096D01*
X138177675Y-80031883D01*
X138250818Y-80051375D01*
X138286342Y-80059872D01*
X138321298Y-80067134D01*
X138358915Y-80073280D01*
X138402422Y-80078432D01*
X138455049Y-80082708D01*
X138520025Y-80086229D01*
X138600580Y-80089114D01*
X138699943Y-80091483D01*
X138821343Y-80093456D01*
X138968010Y-80095154D01*
X139143174Y-80096694D01*
X139350062Y-80098199D01*
X139547702Y-80099503D01*
X140680071Y-80106801D01*
X140609390Y-79903474D01*
X140538709Y-79700148D01*
X139429984Y-79688038D01*
X139222195Y-79685462D01*
X139024196Y-79682418D01*
X138839578Y-79678998D01*
X138671933Y-79675295D01*
X138524854Y-79671401D01*
X138401932Y-79667410D01*
X138306760Y-79663415D01*
X138242929Y-79659508D01*
X138217778Y-79656690D01*
X138018052Y-79602415D01*
X137840959Y-79518125D01*
X137686697Y-79403962D01*
X137555469Y-79260068D01*
X137467501Y-79124180D01*
X137432078Y-79057708D01*
X137405176Y-79002292D01*
X137391199Y-78967190D01*
X137390175Y-78961666D01*
X137397206Y-78957152D01*
X137419793Y-78953215D01*
X137460016Y-78949822D01*
X137519959Y-78946938D01*
X137601705Y-78944531D01*
X137707337Y-78942566D01*
X137838938Y-78941009D01*
X137998591Y-78939827D01*
X138188378Y-78938985D01*
X138410383Y-78938450D01*
X138666688Y-78938188D01*
X138837219Y-78938148D01*
X140284513Y-78938148D01*
X140061169Y-78274925D01*
X140008343Y-78118230D01*
X139957398Y-77967440D01*
X139910039Y-77827575D01*
X139867970Y-77703657D01*
X139832897Y-77600710D01*
X139806524Y-77523754D01*
X139791329Y-77480000D01*
X139744834Y-77348296D01*
X139537177Y-77342984D01*
X139329519Y-77337672D01*
X139356337Y-77427650D01*
X139356337Y-77427650D01*
G37*
X139356337Y-77427650D02*
X139373517Y-77481870D01*
X139399690Y-77560394D01*
X139431105Y-77652122D01*
X139459775Y-77734000D01*
X139493733Y-77830556D01*
X139531097Y-77937902D01*
X139569903Y-78050267D01*
X139608184Y-78161882D01*
X139643977Y-78266976D01*
X139675316Y-78359779D01*
X139700236Y-78434521D01*
X139716772Y-78485432D01*
X139722960Y-78506742D01*
X139722966Y-78506860D01*
X139704666Y-78508143D01*
X139651826Y-78509215D01*
X139567533Y-78510071D01*
X139454875Y-78510701D01*
X139316941Y-78511100D01*
X139156818Y-78511259D01*
X138977595Y-78511172D01*
X138782361Y-78510831D01*
X138574202Y-78510228D01*
X138471214Y-78509846D01*
X137219460Y-78504878D01*
X137199363Y-78453402D01*
X137185923Y-78416716D01*
X137160519Y-78344897D01*
X137123321Y-78238434D01*
X137074497Y-78097813D01*
X137014217Y-77923521D01*
X136942651Y-77716048D01*
X136864621Y-77489407D01*
X136816074Y-77348296D01*
X136602907Y-77342962D01*
X136500423Y-77341952D01*
X136433512Y-77344893D01*
X136402917Y-77351737D01*
X136401503Y-77356660D01*
X136410011Y-77378196D01*
X136429192Y-77431375D01*
X136457655Y-77512196D01*
X136494009Y-77616660D01*
X136536863Y-77740766D01*
X136584825Y-77880513D01*
X136636505Y-78031901D01*
X136645436Y-78058142D01*
X136712257Y-78254290D01*
X136768478Y-78418486D01*
X136815497Y-78554442D01*
X136854714Y-78665872D01*
X136887525Y-78756488D01*
X136915329Y-78830003D01*
X136939524Y-78890131D01*
X136961508Y-78940585D01*
X136982680Y-78985077D01*
X137004437Y-79027322D01*
X137023921Y-79063300D01*
X137173129Y-79304854D01*
X137337346Y-79512567D01*
X137518239Y-79687782D01*
X137717480Y-79831844D01*
X137936735Y-79946096D01*
X138177675Y-80031883D01*
X138250818Y-80051375D01*
X138286342Y-80059872D01*
X138321298Y-80067134D01*
X138358915Y-80073280D01*
X138402422Y-80078432D01*
X138455049Y-80082708D01*
X138520025Y-80086229D01*
X138600580Y-80089114D01*
X138699943Y-80091483D01*
X138821343Y-80093456D01*
X138968010Y-80095154D01*
X139143174Y-80096694D01*
X139350062Y-80098199D01*
X139547702Y-80099503D01*
X140680071Y-80106801D01*
X140609390Y-79903474D01*
X140538709Y-79700148D01*
X139429984Y-79688038D01*
X139222195Y-79685462D01*
X139024196Y-79682418D01*
X138839578Y-79678998D01*
X138671933Y-79675295D01*
X138524854Y-79671401D01*
X138401932Y-79667410D01*
X138306760Y-79663415D01*
X138242929Y-79659508D01*
X138217778Y-79656690D01*
X138018052Y-79602415D01*
X137840959Y-79518125D01*
X137686697Y-79403962D01*
X137555469Y-79260068D01*
X137467501Y-79124180D01*
X137432078Y-79057708D01*
X137405176Y-79002292D01*
X137391199Y-78967190D01*
X137390175Y-78961666D01*
X137397206Y-78957152D01*
X137419793Y-78953215D01*
X137460016Y-78949822D01*
X137519959Y-78946938D01*
X137601705Y-78944531D01*
X137707337Y-78942566D01*
X137838938Y-78941009D01*
X137998591Y-78939827D01*
X138188378Y-78938985D01*
X138410383Y-78938450D01*
X138666688Y-78938188D01*
X138837219Y-78938148D01*
X140284513Y-78938148D01*
X140061169Y-78274925D01*
X140008343Y-78118230D01*
X139957398Y-77967440D01*
X139910039Y-77827575D01*
X139867970Y-77703657D01*
X139832897Y-77600710D01*
X139806524Y-77523754D01*
X139791329Y-77480000D01*
X139744834Y-77348296D01*
X139537177Y-77342984D01*
X139329519Y-77337672D01*
X139356337Y-77427650D01*
G36*
X143859821Y-77342461D02*
G01*
X143722117Y-77343223D01*
X143608938Y-77344484D01*
X143523515Y-77346226D01*
X143469076Y-77348431D01*
X143448851Y-77351081D01*
X143448796Y-77351245D01*
X143454967Y-77374434D01*
X143471313Y-77425145D01*
X143495228Y-77495508D01*
X143519481Y-77564666D01*
X143589666Y-77762222D01*
X144680796Y-77766409D01*
X144920759Y-77767477D01*
X145126206Y-77768756D01*
X145300249Y-77770331D01*
X145446001Y-77772286D01*
X145566574Y-77774706D01*
X145665081Y-77777675D01*
X145744635Y-77781280D01*
X145808349Y-77785603D01*
X145859335Y-77790730D01*
X145900706Y-77796746D01*
X145918719Y-77800106D01*
X146080999Y-77843582D01*
X146223149Y-77906709D01*
X146350995Y-77993646D01*
X146470365Y-78108552D01*
X146587085Y-78255586D01*
X146616938Y-78298444D01*
X146658570Y-78362635D01*
X146692106Y-78419923D01*
X146711160Y-78459296D01*
X146712403Y-78463074D01*
X146724610Y-78505407D01*
X143825930Y-78505407D01*
X143864083Y-78594777D01*
X143891362Y-78655744D01*
X143928309Y-78734269D01*
X143971539Y-78823608D01*
X144017670Y-78917012D01*
X144063318Y-79007737D01*
X144105102Y-79089035D01*
X144139637Y-79154160D01*
X144163541Y-79196365D01*
X144171689Y-79208222D01*
X144191976Y-79234143D01*
X144225448Y-79281511D01*
X144264910Y-79340138D01*
X144265447Y-79340954D01*
X144306763Y-79401555D01*
X144344205Y-79452687D01*
X144369178Y-79482733D01*
X144399428Y-79516529D01*
X144438800Y-79564797D01*
X144453112Y-79583257D01*
X144527152Y-79661616D01*
X144629644Y-79743896D01*
X144752405Y-79825429D01*
X144887250Y-79901547D01*
X145025996Y-79967583D01*
X145160458Y-80018870D01*
X145267805Y-80047903D01*
X145335103Y-80062075D01*
X145396959Y-80075746D01*
X145414444Y-80079813D01*
X145443100Y-80082348D01*
X145505908Y-80084943D01*
X145599390Y-80087541D01*
X145720068Y-80090082D01*
X145864464Y-80092507D01*
X146029101Y-80094758D01*
X146210501Y-80096776D01*
X146405186Y-80098502D01*
X146596606Y-80099802D01*
X147722324Y-80106333D01*
X147709923Y-80063166D01*
X147698300Y-80026486D01*
X147677761Y-79965095D01*
X147651931Y-79889759D01*
X147639964Y-79855370D01*
X147582406Y-79690740D01*
X146577647Y-79690740D01*
X146309730Y-79690323D01*
X146076729Y-79688994D01*
X145875938Y-79686643D01*
X145704649Y-79683157D01*
X145560157Y-79678424D01*
X145439757Y-79672330D01*
X145340742Y-79664764D01*
X145260405Y-79655614D01*
X145196042Y-79644766D01*
X145144946Y-79632109D01*
X145141630Y-79631101D01*
X144972283Y-79559698D01*
X144815976Y-79453726D01*
X144672329Y-79312846D01*
X144540964Y-79136715D01*
X144480350Y-79036353D01*
X144457497Y-78991409D01*
X144445858Y-78959730D01*
X144445481Y-78956390D01*
X144464127Y-78952753D01*
X144519391Y-78949488D01*
X144610264Y-78946609D01*
X144735736Y-78944128D01*
X144894797Y-78942059D01*
X145086438Y-78940414D01*
X145309650Y-78939206D01*
X145563423Y-78938448D01*
X145846746Y-78938152D01*
X145884815Y-78938148D01*
X146121157Y-78937938D01*
X146344134Y-78937329D01*
X146551055Y-78936351D01*
X146739234Y-78935035D01*
X146905981Y-78933412D01*
X147048607Y-78931513D01*
X147164424Y-78929368D01*
X147250744Y-78927008D01*
X147304878Y-78924463D01*
X147324137Y-78921766D01*
X147324148Y-78921697D01*
X147316803Y-78893467D01*
X147296936Y-78838860D01*
X147267802Y-78765664D01*
X147232656Y-78681666D01*
X147194751Y-78594653D01*
X147157342Y-78512411D01*
X147125401Y-78446138D01*
X147051919Y-78313587D01*
X146962156Y-78173343D01*
X146863271Y-78035239D01*
X146762422Y-77909108D01*
X146666769Y-77804785D01*
X146639265Y-77778386D01*
X146504346Y-77663833D01*
X146372849Y-77575101D01*
X146231776Y-77504154D01*
X146132521Y-77465112D01*
X146071369Y-77443204D01*
X146016245Y-77424389D01*
X145963806Y-77408406D01*
X145910713Y-77394995D01*
X145853622Y-77383895D01*
X145789195Y-77374844D01*
X145714089Y-77367581D01*
X145624964Y-77361847D01*
X145518478Y-77357380D01*
X145391291Y-77353919D01*
X145240061Y-77351203D01*
X145061447Y-77348972D01*
X144852108Y-77346964D01*
X144608703Y-77344919D01*
X144591296Y-77344776D01*
X144387787Y-77343357D01*
X144195885Y-77342510D01*
X144018820Y-77342217D01*
X143859821Y-77342461D01*
X143859821Y-77342461D01*
G37*
X143859821Y-77342461D02*
X143722117Y-77343223D01*
X143608938Y-77344484D01*
X143523515Y-77346226D01*
X143469076Y-77348431D01*
X143448851Y-77351081D01*
X143448796Y-77351245D01*
X143454967Y-77374434D01*
X143471313Y-77425145D01*
X143495228Y-77495508D01*
X143519481Y-77564666D01*
X143589666Y-77762222D01*
X144680796Y-77766409D01*
X144920759Y-77767477D01*
X145126206Y-77768756D01*
X145300249Y-77770331D01*
X145446001Y-77772286D01*
X145566574Y-77774706D01*
X145665081Y-77777675D01*
X145744635Y-77781280D01*
X145808349Y-77785603D01*
X145859335Y-77790730D01*
X145900706Y-77796746D01*
X145918719Y-77800106D01*
X146080999Y-77843582D01*
X146223149Y-77906709D01*
X146350995Y-77993646D01*
X146470365Y-78108552D01*
X146587085Y-78255586D01*
X146616938Y-78298444D01*
X146658570Y-78362635D01*
X146692106Y-78419923D01*
X146711160Y-78459296D01*
X146712403Y-78463074D01*
X146724610Y-78505407D01*
X143825930Y-78505407D01*
X143864083Y-78594777D01*
X143891362Y-78655744D01*
X143928309Y-78734269D01*
X143971539Y-78823608D01*
X144017670Y-78917012D01*
X144063318Y-79007737D01*
X144105102Y-79089035D01*
X144139637Y-79154160D01*
X144163541Y-79196365D01*
X144171689Y-79208222D01*
X144191976Y-79234143D01*
X144225448Y-79281511D01*
X144264910Y-79340138D01*
X144265447Y-79340954D01*
X144306763Y-79401555D01*
X144344205Y-79452687D01*
X144369178Y-79482733D01*
X144399428Y-79516529D01*
X144438800Y-79564797D01*
X144453112Y-79583257D01*
X144527152Y-79661616D01*
X144629644Y-79743896D01*
X144752405Y-79825429D01*
X144887250Y-79901547D01*
X145025996Y-79967583D01*
X145160458Y-80018870D01*
X145267805Y-80047903D01*
X145335103Y-80062075D01*
X145396959Y-80075746D01*
X145414444Y-80079813D01*
X145443100Y-80082348D01*
X145505908Y-80084943D01*
X145599390Y-80087541D01*
X145720068Y-80090082D01*
X145864464Y-80092507D01*
X146029101Y-80094758D01*
X146210501Y-80096776D01*
X146405186Y-80098502D01*
X146596606Y-80099802D01*
X147722324Y-80106333D01*
X147709923Y-80063166D01*
X147698300Y-80026486D01*
X147677761Y-79965095D01*
X147651931Y-79889759D01*
X147639964Y-79855370D01*
X147582406Y-79690740D01*
X146577647Y-79690740D01*
X146309730Y-79690323D01*
X146076729Y-79688994D01*
X145875938Y-79686643D01*
X145704649Y-79683157D01*
X145560157Y-79678424D01*
X145439757Y-79672330D01*
X145340742Y-79664764D01*
X145260405Y-79655614D01*
X145196042Y-79644766D01*
X145144946Y-79632109D01*
X145141630Y-79631101D01*
X144972283Y-79559698D01*
X144815976Y-79453726D01*
X144672329Y-79312846D01*
X144540964Y-79136715D01*
X144480350Y-79036353D01*
X144457497Y-78991409D01*
X144445858Y-78959730D01*
X144445481Y-78956390D01*
X144464127Y-78952753D01*
X144519391Y-78949488D01*
X144610264Y-78946609D01*
X144735736Y-78944128D01*
X144894797Y-78942059D01*
X145086438Y-78940414D01*
X145309650Y-78939206D01*
X145563423Y-78938448D01*
X145846746Y-78938152D01*
X145884815Y-78938148D01*
X146121157Y-78937938D01*
X146344134Y-78937329D01*
X146551055Y-78936351D01*
X146739234Y-78935035D01*
X146905981Y-78933412D01*
X147048607Y-78931513D01*
X147164424Y-78929368D01*
X147250744Y-78927008D01*
X147304878Y-78924463D01*
X147324137Y-78921766D01*
X147324148Y-78921697D01*
X147316803Y-78893467D01*
X147296936Y-78838860D01*
X147267802Y-78765664D01*
X147232656Y-78681666D01*
X147194751Y-78594653D01*
X147157342Y-78512411D01*
X147125401Y-78446138D01*
X147051919Y-78313587D01*
X146962156Y-78173343D01*
X146863271Y-78035239D01*
X146762422Y-77909108D01*
X146666769Y-77804785D01*
X146639265Y-77778386D01*
X146504346Y-77663833D01*
X146372849Y-77575101D01*
X146231776Y-77504154D01*
X146132521Y-77465112D01*
X146071369Y-77443204D01*
X146016245Y-77424389D01*
X145963806Y-77408406D01*
X145910713Y-77394995D01*
X145853622Y-77383895D01*
X145789195Y-77374844D01*
X145714089Y-77367581D01*
X145624964Y-77361847D01*
X145518478Y-77357380D01*
X145391291Y-77353919D01*
X145240061Y-77351203D01*
X145061447Y-77348972D01*
X144852108Y-77346964D01*
X144608703Y-77344919D01*
X144591296Y-77344776D01*
X144387787Y-77343357D01*
X144195885Y-77342510D01*
X144018820Y-77342217D01*
X143859821Y-77342461D01*
G36*
X129400911Y-77417549D02*
G01*
X129413906Y-77457735D01*
X129437129Y-77527577D01*
X129468580Y-77621142D01*
X129506259Y-77732498D01*
X129548166Y-77855712D01*
X129580496Y-77950370D01*
X129629151Y-78093043D01*
X129679539Y-78241628D01*
X129728520Y-78386810D01*
X129772955Y-78519272D01*
X129809705Y-78629698D01*
X129823002Y-78670037D01*
X129911004Y-78938148D01*
X130442539Y-78938148D01*
X130606521Y-78938527D01*
X130735919Y-78939866D01*
X130833774Y-78942470D01*
X130903127Y-78946643D01*
X130947018Y-78952689D01*
X130968488Y-78960912D01*
X130970577Y-78971616D01*
X130956325Y-78985104D01*
X130950555Y-78988954D01*
X130926013Y-79010697D01*
X130886963Y-79051303D01*
X130853530Y-79088666D01*
X130801401Y-79147672D01*
X130729434Y-79227686D01*
X130643522Y-79322263D01*
X130549563Y-79424959D01*
X130453451Y-79529328D01*
X130361082Y-79628925D01*
X130282630Y-79712764D01*
X130226651Y-79772961D01*
X130181802Y-79822564D01*
X130153445Y-79855555D01*
X130146222Y-79865840D01*
X130159728Y-79880598D01*
X130195945Y-79913392D01*
X130248419Y-79958480D01*
X130279683Y-79984624D01*
X130345121Y-80039305D01*
X130404723Y-80089874D01*
X130448733Y-80128028D01*
X130459393Y-80137592D01*
X130491700Y-80166222D01*
X130508886Y-80179655D01*
X130509377Y-80179800D01*
X130523092Y-80167143D01*
X130555827Y-80133866D01*
X130600869Y-80086805D01*
X130607185Y-80080130D01*
X130655451Y-80028698D01*
X130721241Y-79958095D01*
X130796623Y-79876860D01*
X130873660Y-79793530D01*
X130889407Y-79776453D01*
X130962451Y-79697281D01*
X131032258Y-79621754D01*
X131092061Y-79557186D01*
X131135093Y-79510888D01*
X131143407Y-79501989D01*
X131189586Y-79452518D01*
X131248954Y-79388711D01*
X131309151Y-79323856D01*
X131312741Y-79319983D01*
X131375134Y-79252835D01*
X131449832Y-79172715D01*
X131523364Y-79094066D01*
X131543142Y-79072960D01*
X131670063Y-78937611D01*
X132255862Y-78942583D01*
X132841662Y-78947555D01*
X132933473Y-79210963D01*
X132972943Y-79325202D01*
X133019302Y-79460954D01*
X133067716Y-79603974D01*
X133113351Y-79740018D01*
X133129819Y-79789518D01*
X133234354Y-80104666D01*
X133440066Y-80104666D01*
X133522952Y-80103463D01*
X133589852Y-80100201D01*
X133633154Y-80095404D01*
X133645721Y-80090555D01*
X133639830Y-80069468D01*
X133623337Y-80017985D01*
X133597956Y-79941265D01*
X133565405Y-79844466D01*
X133527400Y-79732749D01*
X133503317Y-79662518D01*
X133452323Y-79513706D01*
X133395885Y-79348120D01*
X133338422Y-79178782D01*
X133284352Y-79018713D01*
X133238095Y-78880937D01*
X133237330Y-78878648D01*
X133113691Y-78508704D01*
X131654072Y-78506786D01*
X131372776Y-78506293D01*
X131127084Y-78505577D01*
X130914971Y-78504604D01*
X130734411Y-78503340D01*
X130583381Y-78501749D01*
X130459854Y-78499798D01*
X130361807Y-78497451D01*
X130287213Y-78494674D01*
X130234047Y-78491433D01*
X130200285Y-78487692D01*
X130183902Y-78483418D01*
X130181796Y-78481619D01*
X130170899Y-78455095D01*
X130151160Y-78401213D01*
X130125580Y-78328335D01*
X130102537Y-78260814D01*
X130068964Y-78161955D01*
X130033597Y-78058995D01*
X130001797Y-77967494D01*
X129987597Y-77927205D01*
X129964508Y-77860447D01*
X129947424Y-77807672D01*
X129939485Y-77778665D01*
X129939270Y-77776686D01*
X129957583Y-77774297D01*
X130010503Y-77772076D01*
X130095011Y-77770054D01*
X130208082Y-77768259D01*
X130346697Y-77766723D01*
X130507834Y-77765473D01*
X130688471Y-77764541D01*
X130885586Y-77763956D01*
X131096159Y-77763748D01*
X131246899Y-77763838D01*
X131464959Y-77764057D01*
X131671636Y-77764167D01*
X131863907Y-77764172D01*
X132038751Y-77764078D01*
X132193148Y-77763888D01*
X132324074Y-77763607D01*
X132428509Y-77763240D01*
X132503431Y-77762792D01*
X132545819Y-77762266D01*
X132554518Y-77761863D01*
X132539813Y-77750116D01*
X132500834Y-77723476D01*
X132445291Y-77686880D01*
X132380893Y-77645263D01*
X132315348Y-77603562D01*
X132256363Y-77566713D01*
X132211649Y-77539652D01*
X132188914Y-77527315D01*
X132187806Y-77527037D01*
X132165330Y-77519842D01*
X132120793Y-77501473D01*
X132089484Y-77487552D01*
X132032069Y-77464887D01*
X131951774Y-77437646D01*
X131862237Y-77410341D01*
X131822405Y-77399192D01*
X131642000Y-77350315D01*
X130508915Y-77343299D01*
X129375831Y-77336283D01*
X129400911Y-77417549D01*
X129400911Y-77417549D01*
G37*
X129400911Y-77417549D02*
X129413906Y-77457735D01*
X129437129Y-77527577D01*
X129468580Y-77621142D01*
X129506259Y-77732498D01*
X129548166Y-77855712D01*
X129580496Y-77950370D01*
X129629151Y-78093043D01*
X129679539Y-78241628D01*
X129728520Y-78386810D01*
X129772955Y-78519272D01*
X129809705Y-78629698D01*
X129823002Y-78670037D01*
X129911004Y-78938148D01*
X130442539Y-78938148D01*
X130606521Y-78938527D01*
X130735919Y-78939866D01*
X130833774Y-78942470D01*
X130903127Y-78946643D01*
X130947018Y-78952689D01*
X130968488Y-78960912D01*
X130970577Y-78971616D01*
X130956325Y-78985104D01*
X130950555Y-78988954D01*
X130926013Y-79010697D01*
X130886963Y-79051303D01*
X130853530Y-79088666D01*
X130801401Y-79147672D01*
X130729434Y-79227686D01*
X130643522Y-79322263D01*
X130549563Y-79424959D01*
X130453451Y-79529328D01*
X130361082Y-79628925D01*
X130282630Y-79712764D01*
X130226651Y-79772961D01*
X130181802Y-79822564D01*
X130153445Y-79855555D01*
X130146222Y-79865840D01*
X130159728Y-79880598D01*
X130195945Y-79913392D01*
X130248419Y-79958480D01*
X130279683Y-79984624D01*
X130345121Y-80039305D01*
X130404723Y-80089874D01*
X130448733Y-80128028D01*
X130459393Y-80137592D01*
X130491700Y-80166222D01*
X130508886Y-80179655D01*
X130509377Y-80179800D01*
X130523092Y-80167143D01*
X130555827Y-80133866D01*
X130600869Y-80086805D01*
X130607185Y-80080130D01*
X130655451Y-80028698D01*
X130721241Y-79958095D01*
X130796623Y-79876860D01*
X130873660Y-79793530D01*
X130889407Y-79776453D01*
X130962451Y-79697281D01*
X131032258Y-79621754D01*
X131092061Y-79557186D01*
X131135093Y-79510888D01*
X131143407Y-79501989D01*
X131189586Y-79452518D01*
X131248954Y-79388711D01*
X131309151Y-79323856D01*
X131312741Y-79319983D01*
X131375134Y-79252835D01*
X131449832Y-79172715D01*
X131523364Y-79094066D01*
X131543142Y-79072960D01*
X131670063Y-78937611D01*
X132255862Y-78942583D01*
X132841662Y-78947555D01*
X132933473Y-79210963D01*
X132972943Y-79325202D01*
X133019302Y-79460954D01*
X133067716Y-79603974D01*
X133113351Y-79740018D01*
X133129819Y-79789518D01*
X133234354Y-80104666D01*
X133440066Y-80104666D01*
X133522952Y-80103463D01*
X133589852Y-80100201D01*
X133633154Y-80095404D01*
X133645721Y-80090555D01*
X133639830Y-80069468D01*
X133623337Y-80017985D01*
X133597956Y-79941265D01*
X133565405Y-79844466D01*
X133527400Y-79732749D01*
X133503317Y-79662518D01*
X133452323Y-79513706D01*
X133395885Y-79348120D01*
X133338422Y-79178782D01*
X133284352Y-79018713D01*
X133238095Y-78880937D01*
X133237330Y-78878648D01*
X133113691Y-78508704D01*
X131654072Y-78506786D01*
X131372776Y-78506293D01*
X131127084Y-78505577D01*
X130914971Y-78504604D01*
X130734411Y-78503340D01*
X130583381Y-78501749D01*
X130459854Y-78499798D01*
X130361807Y-78497451D01*
X130287213Y-78494674D01*
X130234047Y-78491433D01*
X130200285Y-78487692D01*
X130183902Y-78483418D01*
X130181796Y-78481619D01*
X130170899Y-78455095D01*
X130151160Y-78401213D01*
X130125580Y-78328335D01*
X130102537Y-78260814D01*
X130068964Y-78161955D01*
X130033597Y-78058995D01*
X130001797Y-77967494D01*
X129987597Y-77927205D01*
X129964508Y-77860447D01*
X129947424Y-77807672D01*
X129939485Y-77778665D01*
X129939270Y-77776686D01*
X129957583Y-77774297D01*
X130010503Y-77772076D01*
X130095011Y-77770054D01*
X130208082Y-77768259D01*
X130346697Y-77766723D01*
X130507834Y-77765473D01*
X130688471Y-77764541D01*
X130885586Y-77763956D01*
X131096159Y-77763748D01*
X131246899Y-77763838D01*
X131464959Y-77764057D01*
X131671636Y-77764167D01*
X131863907Y-77764172D01*
X132038751Y-77764078D01*
X132193148Y-77763888D01*
X132324074Y-77763607D01*
X132428509Y-77763240D01*
X132503431Y-77762792D01*
X132545819Y-77762266D01*
X132554518Y-77761863D01*
X132539813Y-77750116D01*
X132500834Y-77723476D01*
X132445291Y-77686880D01*
X132380893Y-77645263D01*
X132315348Y-77603562D01*
X132256363Y-77566713D01*
X132211649Y-77539652D01*
X132188914Y-77527315D01*
X132187806Y-77527037D01*
X132165330Y-77519842D01*
X132120793Y-77501473D01*
X132089484Y-77487552D01*
X132032069Y-77464887D01*
X131951774Y-77437646D01*
X131862237Y-77410341D01*
X131822405Y-77399192D01*
X131642000Y-77350315D01*
X130508915Y-77343299D01*
X129375831Y-77336283D01*
X129400911Y-77417549D01*
G36*
X140062110Y-77312291D02*
G01*
X140054118Y-77337741D01*
X140047111Y-77391250D01*
X140042178Y-77463246D01*
X140040932Y-77498814D01*
X140036720Y-77668148D01*
X140439582Y-77810181D01*
X140719109Y-77908777D01*
X140965195Y-77995693D01*
X141179915Y-78071692D01*
X141365343Y-78137535D01*
X141523550Y-78193983D01*
X141656613Y-78241798D01*
X141766603Y-78281742D01*
X141855594Y-78314576D01*
X141925661Y-78341062D01*
X141978876Y-78361961D01*
X142017313Y-78378035D01*
X142043047Y-78390045D01*
X142058149Y-78398752D01*
X142064695Y-78404919D01*
X142065407Y-78407269D01*
X142053376Y-78427471D01*
X142020643Y-78469009D01*
X141972246Y-78525772D01*
X141914889Y-78589829D01*
X141849083Y-78662166D01*
X141786812Y-78731351D01*
X141735857Y-78788697D01*
X141707926Y-78820854D01*
X141657647Y-78878619D01*
X141604958Y-78937034D01*
X141595037Y-78947723D01*
X141407074Y-79149385D01*
X141243713Y-79326161D01*
X141103170Y-79479991D01*
X140983662Y-79612818D01*
X140964558Y-79634296D01*
X140899610Y-79706858D01*
X140842500Y-79769550D01*
X140798367Y-79816813D01*
X140772349Y-79843090D01*
X140768771Y-79846101D01*
X140764649Y-79867136D01*
X140788444Y-79893138D01*
X140824715Y-79922810D01*
X140877088Y-79965652D01*
X140920147Y-80000872D01*
X140980019Y-80050983D01*
X141037153Y-80100652D01*
X141067090Y-80127872D01*
X141104300Y-80160603D01*
X141129389Y-80178510D01*
X141132942Y-80179671D01*
X141149758Y-80166365D01*
X141182925Y-80132007D01*
X141218741Y-80091554D01*
X141270825Y-80032006D01*
X141323302Y-79973971D01*
X141350444Y-79945037D01*
X141386572Y-79906467D01*
X141439666Y-79848522D01*
X141501722Y-79779977D01*
X141548000Y-79728384D01*
X141610234Y-79659001D01*
X141668015Y-79595111D01*
X141713893Y-79544924D01*
X141736148Y-79521068D01*
X141771922Y-79482809D01*
X141822565Y-79427730D01*
X141877806Y-79367010D01*
X141883988Y-79360172D01*
X141996410Y-79235988D01*
X142108956Y-79112136D01*
X142215559Y-78995264D01*
X142310152Y-78892024D01*
X142386666Y-78809066D01*
X142396950Y-78797984D01*
X142453982Y-78736445D01*
X142507684Y-78678232D01*
X142547716Y-78634559D01*
X142552127Y-78629708D01*
X142601539Y-78575269D01*
X142999321Y-78714375D01*
X143115719Y-78755541D01*
X143220773Y-78793571D01*
X143309046Y-78826424D01*
X143375099Y-78852061D01*
X143413494Y-78868443D01*
X143420355Y-78872296D01*
X143431650Y-78894062D01*
X143453129Y-78947302D01*
X143483245Y-79027738D01*
X143520451Y-79131089D01*
X143563199Y-79253075D01*
X143609944Y-79389416D01*
X143646483Y-79497888D01*
X143849358Y-80104666D01*
X144274479Y-80104666D01*
X144244943Y-80024703D01*
X144230846Y-79985077D01*
X144206716Y-79915641D01*
X144174559Y-79822237D01*
X144136381Y-79710706D01*
X144094189Y-79586891D01*
X144059183Y-79483777D01*
X144012121Y-79345169D01*
X143956021Y-79180358D01*
X143894085Y-78998728D01*
X143829516Y-78809660D01*
X143765515Y-78622535D01*
X143705285Y-78446736D01*
X143693140Y-78411333D01*
X143639497Y-78254664D01*
X143586192Y-78098366D01*
X143535385Y-77948815D01*
X143489235Y-77812388D01*
X143449902Y-77695462D01*
X143419545Y-77604415D01*
X143408010Y-77569370D01*
X143332698Y-77338888D01*
X143127090Y-77338888D01*
X143044220Y-77340128D01*
X142977329Y-77343488D01*
X142934037Y-77348429D01*
X142921481Y-77353416D01*
X142927402Y-77375852D01*
X142943536Y-77426308D01*
X142967435Y-77497365D01*
X142996657Y-77581606D01*
X142997462Y-77583897D01*
X143043715Y-77716584D01*
X143089453Y-77850035D01*
X143133015Y-77979183D01*
X143172739Y-78098957D01*
X143206961Y-78204289D01*
X143234019Y-78290109D01*
X143252251Y-78351347D01*
X143259994Y-78382934D01*
X143260148Y-78384881D01*
X143260108Y-78391653D01*
X143257663Y-78396249D01*
X143249324Y-78397587D01*
X143231601Y-78394585D01*
X143201007Y-78386162D01*
X143154051Y-78371235D01*
X143087245Y-78348722D01*
X142997101Y-78317542D01*
X142880129Y-78276612D01*
X142732840Y-78224850D01*
X142648667Y-78195248D01*
X142434711Y-78120057D01*
X142217303Y-78043741D01*
X142002917Y-77968567D01*
X141798029Y-77896802D01*
X141609113Y-77830716D01*
X141442644Y-77772575D01*
X141305097Y-77724648D01*
X141303407Y-77724060D01*
X141187787Y-77683637D01*
X141058686Y-77638172D01*
X140933821Y-77593919D01*
X140851852Y-77564657D01*
X140711036Y-77514405D01*
X140565863Y-77463041D01*
X140425521Y-77413787D01*
X140299199Y-77369862D01*
X140196085Y-77334486D01*
X140169131Y-77325376D01*
X140108706Y-77309514D01*
X140069629Y-77308446D01*
X140062110Y-77312291D01*
X140062110Y-77312291D01*
G37*
X140062110Y-77312291D02*
X140054118Y-77337741D01*
X140047111Y-77391250D01*
X140042178Y-77463246D01*
X140040932Y-77498814D01*
X140036720Y-77668148D01*
X140439582Y-77810181D01*
X140719109Y-77908777D01*
X140965195Y-77995693D01*
X141179915Y-78071692D01*
X141365343Y-78137535D01*
X141523550Y-78193983D01*
X141656613Y-78241798D01*
X141766603Y-78281742D01*
X141855594Y-78314576D01*
X141925661Y-78341062D01*
X141978876Y-78361961D01*
X142017313Y-78378035D01*
X142043047Y-78390045D01*
X142058149Y-78398752D01*
X142064695Y-78404919D01*
X142065407Y-78407269D01*
X142053376Y-78427471D01*
X142020643Y-78469009D01*
X141972246Y-78525772D01*
X141914889Y-78589829D01*
X141849083Y-78662166D01*
X141786812Y-78731351D01*
X141735857Y-78788697D01*
X141707926Y-78820854D01*
X141657647Y-78878619D01*
X141604958Y-78937034D01*
X141595037Y-78947723D01*
X141407074Y-79149385D01*
X141243713Y-79326161D01*
X141103170Y-79479991D01*
X140983662Y-79612818D01*
X140964558Y-79634296D01*
X140899610Y-79706858D01*
X140842500Y-79769550D01*
X140798367Y-79816813D01*
X140772349Y-79843090D01*
X140768771Y-79846101D01*
X140764649Y-79867136D01*
X140788444Y-79893138D01*
X140824715Y-79922810D01*
X140877088Y-79965652D01*
X140920147Y-80000872D01*
X140980019Y-80050983D01*
X141037153Y-80100652D01*
X141067090Y-80127872D01*
X141104300Y-80160603D01*
X141129389Y-80178510D01*
X141132942Y-80179671D01*
X141149758Y-80166365D01*
X141182925Y-80132007D01*
X141218741Y-80091554D01*
X141270825Y-80032006D01*
X141323302Y-79973971D01*
X141350444Y-79945037D01*
X141386572Y-79906467D01*
X141439666Y-79848522D01*
X141501722Y-79779977D01*
X141548000Y-79728384D01*
X141610234Y-79659001D01*
X141668015Y-79595111D01*
X141713893Y-79544924D01*
X141736148Y-79521068D01*
X141771922Y-79482809D01*
X141822565Y-79427730D01*
X141877806Y-79367010D01*
X141883988Y-79360172D01*
X141996410Y-79235988D01*
X142108956Y-79112136D01*
X142215559Y-78995264D01*
X142310152Y-78892024D01*
X142386666Y-78809066D01*
X142396950Y-78797984D01*
X142453982Y-78736445D01*
X142507684Y-78678232D01*
X142547716Y-78634559D01*
X142552127Y-78629708D01*
X142601539Y-78575269D01*
X142999321Y-78714375D01*
X143115719Y-78755541D01*
X143220773Y-78793571D01*
X143309046Y-78826424D01*
X143375099Y-78852061D01*
X143413494Y-78868443D01*
X143420355Y-78872296D01*
X143431650Y-78894062D01*
X143453129Y-78947302D01*
X143483245Y-79027738D01*
X143520451Y-79131089D01*
X143563199Y-79253075D01*
X143609944Y-79389416D01*
X143646483Y-79497888D01*
X143849358Y-80104666D01*
X144274479Y-80104666D01*
X144244943Y-80024703D01*
X144230846Y-79985077D01*
X144206716Y-79915641D01*
X144174559Y-79822237D01*
X144136381Y-79710706D01*
X144094189Y-79586891D01*
X144059183Y-79483777D01*
X144012121Y-79345169D01*
X143956021Y-79180358D01*
X143894085Y-78998728D01*
X143829516Y-78809660D01*
X143765515Y-78622535D01*
X143705285Y-78446736D01*
X143693140Y-78411333D01*
X143639497Y-78254664D01*
X143586192Y-78098366D01*
X143535385Y-77948815D01*
X143489235Y-77812388D01*
X143449902Y-77695462D01*
X143419545Y-77604415D01*
X143408010Y-77569370D01*
X143332698Y-77338888D01*
X143127090Y-77338888D01*
X143044220Y-77340128D01*
X142977329Y-77343488D01*
X142934037Y-77348429D01*
X142921481Y-77353416D01*
X142927402Y-77375852D01*
X142943536Y-77426308D01*
X142967435Y-77497365D01*
X142996657Y-77581606D01*
X142997462Y-77583897D01*
X143043715Y-77716584D01*
X143089453Y-77850035D01*
X143133015Y-77979183D01*
X143172739Y-78098957D01*
X143206961Y-78204289D01*
X143234019Y-78290109D01*
X143252251Y-78351347D01*
X143259994Y-78382934D01*
X143260148Y-78384881D01*
X143260108Y-78391653D01*
X143257663Y-78396249D01*
X143249324Y-78397587D01*
X143231601Y-78394585D01*
X143201007Y-78386162D01*
X143154051Y-78371235D01*
X143087245Y-78348722D01*
X142997101Y-78317542D01*
X142880129Y-78276612D01*
X142732840Y-78224850D01*
X142648667Y-78195248D01*
X142434711Y-78120057D01*
X142217303Y-78043741D01*
X142002917Y-77968567D01*
X141798029Y-77896802D01*
X141609113Y-77830716D01*
X141442644Y-77772575D01*
X141305097Y-77724648D01*
X141303407Y-77724060D01*
X141187787Y-77683637D01*
X141058686Y-77638172D01*
X140933821Y-77593919D01*
X140851852Y-77564657D01*
X140711036Y-77514405D01*
X140565863Y-77463041D01*
X140425521Y-77413787D01*
X140299199Y-77369862D01*
X140196085Y-77334486D01*
X140169131Y-77325376D01*
X140108706Y-77309514D01*
X140069629Y-77308446D01*
X140062110Y-77312291D01*
D11*
X106650000Y-66350000D02*
X106950000Y-66650000D01*
X106650000Y-58900000D02*
X107150000Y-58900000D01*
X106650000Y-58900000D02*
X106650000Y-59400000D01*
X114350000Y-58900000D02*
X113850000Y-58900000D01*
X114350000Y-58900000D02*
X114350000Y-59400000D01*
X114350000Y-66650000D02*
X114350000Y-66150000D01*
X114350000Y-66650000D02*
X113850000Y-66650000D01*
X106650000Y-66350000D02*
X106650000Y-66150000D01*
X106950000Y-66650000D02*
X107150000Y-66650000D01*
X104800000Y-65550000D02*
X104300000Y-65050000D01*
X104300000Y-66050000D02*
X104800000Y-65550000D01*
X104300000Y-66050000D02*
X104300000Y-65050000D01*
X121650000Y-54350000D02*
X122650000Y-54350000D01*
X117850000Y-54350000D02*
X118850000Y-54350000D01*
X117850000Y-47250000D02*
X118850000Y-47250000D01*
X121650000Y-47250000D02*
X122650000Y-47250000D01*
X117350000Y-54350000D02*
G75*
G03X117350000Y-54350000I-100000J0D01*
G01*
X130850000Y-54350000D02*
G75*
G03X130850000Y-54350000I-100000J0D01*
G01*
X135150000Y-47250000D02*
X136150000Y-47250000D01*
X131350000Y-47250000D02*
X132350000Y-47250000D01*
X131350000Y-54350000D02*
X132350000Y-54350000D01*
X135150000Y-54350000D02*
X136150000Y-54350000D01*
D12*
X106900000Y-42850000D02*
X107650000Y-42850000D01*
X103100000Y-50750000D02*
X102350000Y-50750000D01*
X106900000Y-50750000D02*
X107650000Y-50750000D01*
X102350000Y-42850000D02*
X102350000Y-43600000D01*
X102350000Y-42850000D02*
X103100000Y-42850000D01*
X107650000Y-42850000D02*
X107650000Y-43600000D01*
X107650000Y-50750000D02*
X107650000Y-50000000D01*
X102350000Y-50750000D02*
X102350000Y-50000000D01*
D11*
X148900000Y-54350000D02*
X149900000Y-54350000D01*
X145100000Y-54350000D02*
X146100000Y-54350000D01*
X145100000Y-47250000D02*
X146100000Y-47250000D01*
X148900000Y-47250000D02*
X149900000Y-47250000D01*
X144600000Y-54350000D02*
G75*
G03X144600000Y-54350000I-100000J0D01*
G01*
X158100000Y-54350000D02*
G75*
G03X158100000Y-54350000I-100000J0D01*
G01*
X162400000Y-47250000D02*
X163400000Y-47250000D01*
X158600000Y-47250000D02*
X159600000Y-47250000D01*
X158600000Y-54350000D02*
X159600000Y-54350000D01*
X162400000Y-54350000D02*
X163400000Y-54350000D01*
D10*
X118666666Y-62107142D02*
X118714285Y-62154761D01*
X118857142Y-62202380D01*
X118952380Y-62202380D01*
X119095238Y-62154761D01*
X119190476Y-62059523D01*
X119238095Y-61964285D01*
X119285714Y-61773809D01*
X119285714Y-61630952D01*
X119238095Y-61440476D01*
X119190476Y-61345238D01*
X119095238Y-61250000D01*
X118952380Y-61202380D01*
X118857142Y-61202380D01*
X118714285Y-61250000D01*
X118666666Y-61297619D01*
X117761904Y-61202380D02*
X118238095Y-61202380D01*
X118285714Y-61678571D01*
X118238095Y-61630952D01*
X118142857Y-61583333D01*
X117904761Y-61583333D01*
X117809523Y-61630952D01*
X117761904Y-61678571D01*
X117714285Y-61773809D01*
X117714285Y-62011904D01*
X117761904Y-62107142D01*
X117809523Y-62154761D01*
X117904761Y-62202380D01*
X118142857Y-62202380D01*
X118238095Y-62154761D01*
X118285714Y-62107142D01*
X121416666Y-62107142D02*
X121464285Y-62154761D01*
X121607142Y-62202380D01*
X121702380Y-62202380D01*
X121845238Y-62154761D01*
X121940476Y-62059523D01*
X121988095Y-61964285D01*
X122035714Y-61773809D01*
X122035714Y-61630952D01*
X121988095Y-61440476D01*
X121940476Y-61345238D01*
X121845238Y-61250000D01*
X121702380Y-61202380D01*
X121607142Y-61202380D01*
X121464285Y-61250000D01*
X121416666Y-61297619D01*
X120559523Y-61535714D02*
X120559523Y-62202380D01*
X120797619Y-61154761D02*
X121035714Y-61869047D01*
X120416666Y-61869047D01*
X121416666Y-56607142D02*
X121464285Y-56654761D01*
X121607142Y-56702380D01*
X121702380Y-56702380D01*
X121845238Y-56654761D01*
X121940476Y-56559523D01*
X121988095Y-56464285D01*
X122035714Y-56273809D01*
X122035714Y-56130952D01*
X121988095Y-55940476D01*
X121940476Y-55845238D01*
X121845238Y-55750000D01*
X121702380Y-55702380D01*
X121607142Y-55702380D01*
X121464285Y-55750000D01*
X121416666Y-55797619D01*
X121083333Y-55702380D02*
X120464285Y-55702380D01*
X120797619Y-56083333D01*
X120654761Y-56083333D01*
X120559523Y-56130952D01*
X120511904Y-56178571D01*
X120464285Y-56273809D01*
X120464285Y-56511904D01*
X120511904Y-56607142D01*
X120559523Y-56654761D01*
X120654761Y-56702380D01*
X120940476Y-56702380D01*
X121035714Y-56654761D01*
X121083333Y-56607142D01*
X118666666Y-56607142D02*
X118714285Y-56654761D01*
X118857142Y-56702380D01*
X118952380Y-56702380D01*
X119095238Y-56654761D01*
X119190476Y-56559523D01*
X119238095Y-56464285D01*
X119285714Y-56273809D01*
X119285714Y-56130952D01*
X119238095Y-55940476D01*
X119190476Y-55845238D01*
X119095238Y-55750000D01*
X118952380Y-55702380D01*
X118857142Y-55702380D01*
X118714285Y-55750000D01*
X118666666Y-55797619D01*
X118285714Y-55797619D02*
X118238095Y-55750000D01*
X118142857Y-55702380D01*
X117904761Y-55702380D01*
X117809523Y-55750000D01*
X117761904Y-55797619D01*
X117714285Y-55892857D01*
X117714285Y-55988095D01*
X117761904Y-56130952D01*
X118333333Y-56702380D01*
X117714285Y-56702380D01*
X129607142Y-65357142D02*
X129654761Y-65309523D01*
X129702380Y-65166666D01*
X129702380Y-65071428D01*
X129654761Y-64928571D01*
X129559523Y-64833333D01*
X129464285Y-64785714D01*
X129273809Y-64738095D01*
X129130952Y-64738095D01*
X128940476Y-64785714D01*
X128845238Y-64833333D01*
X128750000Y-64928571D01*
X128702380Y-65071428D01*
X128702380Y-65166666D01*
X128750000Y-65309523D01*
X128797619Y-65357142D01*
X129702380Y-66309523D02*
X129702380Y-65738095D01*
X129702380Y-66023809D02*
X128702380Y-66023809D01*
X128845238Y-65928571D01*
X128940476Y-65833333D01*
X128988095Y-65738095D01*
X128702380Y-67214285D02*
X128702380Y-66738095D01*
X129178571Y-66690476D01*
X129130952Y-66738095D01*
X129083333Y-66833333D01*
X129083333Y-67071428D01*
X129130952Y-67166666D01*
X129178571Y-67214285D01*
X129273809Y-67261904D01*
X129511904Y-67261904D01*
X129607142Y-67214285D01*
X129654761Y-67166666D01*
X129702380Y-67071428D01*
X129702380Y-66833333D01*
X129654761Y-66738095D01*
X129607142Y-66690476D01*
X138488095Y-67952380D02*
X138488095Y-66952380D01*
X138250000Y-66952380D01*
X138107142Y-67000000D01*
X138011904Y-67095238D01*
X137964285Y-67190476D01*
X137916666Y-67380952D01*
X137916666Y-67523809D01*
X137964285Y-67714285D01*
X138011904Y-67809523D01*
X138107142Y-67904761D01*
X138250000Y-67952380D01*
X138488095Y-67952380D01*
X137488095Y-67952380D02*
X137488095Y-66952380D01*
X137250000Y-66952380D01*
X137107142Y-67000000D01*
X137011904Y-67095238D01*
X136964285Y-67190476D01*
X136916666Y-67380952D01*
X136916666Y-67523809D01*
X136964285Y-67714285D01*
X137011904Y-67809523D01*
X137107142Y-67904761D01*
X137250000Y-67952380D01*
X137488095Y-67952380D01*
X136583333Y-66952380D02*
X135916666Y-66952380D01*
X136345238Y-67952380D01*
X159809523Y-60952380D02*
X159476190Y-61952380D01*
X159142857Y-60952380D01*
X158809523Y-61952380D02*
X158809523Y-60952380D01*
X158571428Y-60952380D01*
X158428571Y-61000000D01*
X158333333Y-61095238D01*
X158285714Y-61190476D01*
X158238095Y-61380952D01*
X158238095Y-61523809D01*
X158285714Y-61714285D01*
X158333333Y-61809523D01*
X158428571Y-61904761D01*
X158571428Y-61952380D01*
X158809523Y-61952380D01*
X157285714Y-61952380D02*
X157857142Y-61952380D01*
X157571428Y-61952380D02*
X157571428Y-60952380D01*
X157666666Y-61095238D01*
X157761904Y-61190476D01*
X157857142Y-61238095D01*
X156809523Y-60952380D02*
X156476190Y-61952380D01*
X156142857Y-60952380D01*
X155809523Y-61952380D02*
X155809523Y-60952380D01*
X155571428Y-60952380D01*
X155428571Y-61000000D01*
X155333333Y-61095238D01*
X155285714Y-61190476D01*
X155238095Y-61380952D01*
X155238095Y-61523809D01*
X155285714Y-61714285D01*
X155333333Y-61809523D01*
X155428571Y-61904761D01*
X155571428Y-61952380D01*
X155809523Y-61952380D01*
X154333333Y-60952380D02*
X154809523Y-60952380D01*
X154857142Y-61428571D01*
X154809523Y-61380952D01*
X154714285Y-61333333D01*
X154476190Y-61333333D01*
X154380952Y-61380952D01*
X154333333Y-61428571D01*
X154285714Y-61523809D01*
X154285714Y-61761904D01*
X154333333Y-61857142D01*
X154380952Y-61904761D01*
X154476190Y-61952380D01*
X154714285Y-61952380D01*
X154809523Y-61904761D01*
X154857142Y-61857142D01*
X138309523Y-55702380D02*
X137976190Y-56702380D01*
X137642857Y-55702380D01*
X137309523Y-56702380D02*
X137309523Y-55702380D01*
X137071428Y-55702380D01*
X136928571Y-55750000D01*
X136833333Y-55845238D01*
X136785714Y-55940476D01*
X136738095Y-56130952D01*
X136738095Y-56273809D01*
X136785714Y-56464285D01*
X136833333Y-56559523D01*
X136928571Y-56654761D01*
X137071428Y-56702380D01*
X137309523Y-56702380D01*
X135880952Y-55702380D02*
X136071428Y-55702380D01*
X136166666Y-55750000D01*
X136214285Y-55797619D01*
X136309523Y-55940476D01*
X136357142Y-56130952D01*
X136357142Y-56511904D01*
X136309523Y-56607142D01*
X136261904Y-56654761D01*
X136166666Y-56702380D01*
X135976190Y-56702380D01*
X135880952Y-56654761D01*
X135833333Y-56607142D01*
X135785714Y-56511904D01*
X135785714Y-56273809D01*
X135833333Y-56178571D01*
X135880952Y-56130952D01*
X135976190Y-56083333D01*
X136166666Y-56083333D01*
X136261904Y-56130952D01*
X136309523Y-56178571D01*
X136357142Y-56273809D01*
X158559523Y-66702380D02*
X158226190Y-67702380D01*
X157892857Y-66702380D01*
X157559523Y-67702380D02*
X157559523Y-66702380D01*
X157321428Y-66702380D01*
X157178571Y-66750000D01*
X157083333Y-66845238D01*
X157035714Y-66940476D01*
X156988095Y-67130952D01*
X156988095Y-67273809D01*
X157035714Y-67464285D01*
X157083333Y-67559523D01*
X157178571Y-67654761D01*
X157321428Y-67702380D01*
X157559523Y-67702380D01*
X156130952Y-67035714D02*
X156130952Y-67702380D01*
X156369047Y-66654761D02*
X156607142Y-67369047D01*
X155988095Y-67369047D01*
X162809523Y-60952380D02*
X162476190Y-61952380D01*
X162142857Y-60952380D01*
X161809523Y-61952380D02*
X161809523Y-60952380D01*
X161571428Y-60952380D01*
X161428571Y-61000000D01*
X161333333Y-61095238D01*
X161285714Y-61190476D01*
X161238095Y-61380952D01*
X161238095Y-61523809D01*
X161285714Y-61714285D01*
X161333333Y-61809523D01*
X161428571Y-61904761D01*
X161571428Y-61952380D01*
X161809523Y-61952380D01*
X160904761Y-60952380D02*
X160285714Y-60952380D01*
X160619047Y-61333333D01*
X160476190Y-61333333D01*
X160380952Y-61380952D01*
X160333333Y-61428571D01*
X160285714Y-61523809D01*
X160285714Y-61761904D01*
X160333333Y-61857142D01*
X160380952Y-61904761D01*
X160476190Y-61952380D01*
X160761904Y-61952380D01*
X160857142Y-61904761D01*
X160904761Y-61857142D01*
X165809523Y-60952380D02*
X165476190Y-61952380D01*
X165142857Y-60952380D01*
X164809523Y-61952380D02*
X164809523Y-60952380D01*
X164571428Y-60952380D01*
X164428571Y-61000000D01*
X164333333Y-61095238D01*
X164285714Y-61190476D01*
X164238095Y-61380952D01*
X164238095Y-61523809D01*
X164285714Y-61714285D01*
X164333333Y-61809523D01*
X164428571Y-61904761D01*
X164571428Y-61952380D01*
X164809523Y-61952380D01*
X163857142Y-61047619D02*
X163809523Y-61000000D01*
X163714285Y-60952380D01*
X163476190Y-60952380D01*
X163380952Y-61000000D01*
X163333333Y-61047619D01*
X163285714Y-61142857D01*
X163285714Y-61238095D01*
X163333333Y-61380952D01*
X163904761Y-61952380D01*
X163285714Y-61952380D01*
X103916666Y-60107142D02*
X103964285Y-60154761D01*
X104107142Y-60202380D01*
X104202380Y-60202380D01*
X104345238Y-60154761D01*
X104440476Y-60059523D01*
X104488095Y-59964285D01*
X104535714Y-59773809D01*
X104535714Y-59630952D01*
X104488095Y-59440476D01*
X104440476Y-59345238D01*
X104345238Y-59250000D01*
X104202380Y-59202380D01*
X104107142Y-59202380D01*
X103964285Y-59250000D01*
X103916666Y-59297619D01*
X102964285Y-60202380D02*
X103535714Y-60202380D01*
X103250000Y-60202380D02*
X103250000Y-59202380D01*
X103345238Y-59345238D01*
X103440476Y-59440476D01*
X103535714Y-59488095D01*
X113142857Y-44452380D02*
X113476190Y-43976190D01*
X113714285Y-44452380D02*
X113714285Y-43452380D01*
X113333333Y-43452380D01*
X113238095Y-43500000D01*
X113190476Y-43547619D01*
X113142857Y-43642857D01*
X113142857Y-43785714D01*
X113190476Y-43880952D01*
X113238095Y-43928571D01*
X113333333Y-43976190D01*
X113714285Y-43976190D01*
X112190476Y-44452380D02*
X112761904Y-44452380D01*
X112476190Y-44452380D02*
X112476190Y-43452380D01*
X112571428Y-43595238D01*
X112666666Y-43690476D01*
X112761904Y-43738095D01*
X111619047Y-43880952D02*
X111714285Y-43833333D01*
X111761904Y-43785714D01*
X111809523Y-43690476D01*
X111809523Y-43642857D01*
X111761904Y-43547619D01*
X111714285Y-43500000D01*
X111619047Y-43452380D01*
X111428571Y-43452380D01*
X111333333Y-43500000D01*
X111285714Y-43547619D01*
X111238095Y-43642857D01*
X111238095Y-43690476D01*
X111285714Y-43785714D01*
X111333333Y-43833333D01*
X111428571Y-43880952D01*
X111619047Y-43880952D01*
X111714285Y-43928571D01*
X111761904Y-43976190D01*
X111809523Y-44071428D01*
X111809523Y-44261904D01*
X111761904Y-44357142D01*
X111714285Y-44404761D01*
X111619047Y-44452380D01*
X111428571Y-44452380D01*
X111333333Y-44404761D01*
X111285714Y-44357142D01*
X111238095Y-44261904D01*
X111238095Y-44071428D01*
X111285714Y-43976190D01*
X111333333Y-43928571D01*
X111428571Y-43880952D01*
X113142857Y-41952380D02*
X113476190Y-41476190D01*
X113714285Y-41952380D02*
X113714285Y-40952380D01*
X113333333Y-40952380D01*
X113238095Y-41000000D01*
X113190476Y-41047619D01*
X113142857Y-41142857D01*
X113142857Y-41285714D01*
X113190476Y-41380952D01*
X113238095Y-41428571D01*
X113333333Y-41476190D01*
X113714285Y-41476190D01*
X112761904Y-41047619D02*
X112714285Y-41000000D01*
X112619047Y-40952380D01*
X112380952Y-40952380D01*
X112285714Y-41000000D01*
X112238095Y-41047619D01*
X112190476Y-41142857D01*
X112190476Y-41238095D01*
X112238095Y-41380952D01*
X112809523Y-41952380D01*
X112190476Y-41952380D01*
X111571428Y-40952380D02*
X111476190Y-40952380D01*
X111380952Y-41000000D01*
X111333333Y-41047619D01*
X111285714Y-41142857D01*
X111238095Y-41333333D01*
X111238095Y-41571428D01*
X111285714Y-41761904D01*
X111333333Y-41857142D01*
X111380952Y-41904761D01*
X111476190Y-41952380D01*
X111571428Y-41952380D01*
X111666666Y-41904761D01*
X111714285Y-41857142D01*
X111761904Y-41761904D01*
X111809523Y-41571428D01*
X111809523Y-41333333D01*
X111761904Y-41142857D01*
X111714285Y-41047619D01*
X111666666Y-41000000D01*
X111571428Y-40952380D01*
X113142857Y-46702380D02*
X113476190Y-46226190D01*
X113714285Y-46702380D02*
X113714285Y-45702380D01*
X113333333Y-45702380D01*
X113238095Y-45750000D01*
X113190476Y-45797619D01*
X113142857Y-45892857D01*
X113142857Y-46035714D01*
X113190476Y-46130952D01*
X113238095Y-46178571D01*
X113333333Y-46226190D01*
X113714285Y-46226190D01*
X112190476Y-46702380D02*
X112761904Y-46702380D01*
X112476190Y-46702380D02*
X112476190Y-45702380D01*
X112571428Y-45845238D01*
X112666666Y-45940476D01*
X112761904Y-45988095D01*
X111714285Y-46702380D02*
X111523809Y-46702380D01*
X111428571Y-46654761D01*
X111380952Y-46607142D01*
X111285714Y-46464285D01*
X111238095Y-46273809D01*
X111238095Y-45892857D01*
X111285714Y-45797619D01*
X111333333Y-45750000D01*
X111428571Y-45702380D01*
X111619047Y-45702380D01*
X111714285Y-45750000D01*
X111761904Y-45797619D01*
X111809523Y-45892857D01*
X111809523Y-46130952D01*
X111761904Y-46226190D01*
X111714285Y-46273809D01*
X111619047Y-46321428D01*
X111428571Y-46321428D01*
X111333333Y-46273809D01*
X111285714Y-46226190D01*
X111238095Y-46130952D01*
X127392857Y-64452380D02*
X127726190Y-63976190D01*
X127964285Y-64452380D02*
X127964285Y-63452380D01*
X127583333Y-63452380D01*
X127488095Y-63500000D01*
X127440476Y-63547619D01*
X127392857Y-63642857D01*
X127392857Y-63785714D01*
X127440476Y-63880952D01*
X127488095Y-63928571D01*
X127583333Y-63976190D01*
X127964285Y-63976190D01*
X126440476Y-64452380D02*
X127011904Y-64452380D01*
X126726190Y-64452380D02*
X126726190Y-63452380D01*
X126821428Y-63595238D01*
X126916666Y-63690476D01*
X127011904Y-63738095D01*
X126107142Y-63452380D02*
X125440476Y-63452380D01*
X125869047Y-64452380D01*
X124642857Y-69202380D02*
X124976190Y-68726190D01*
X125214285Y-69202380D02*
X125214285Y-68202380D01*
X124833333Y-68202380D01*
X124738095Y-68250000D01*
X124690476Y-68297619D01*
X124642857Y-68392857D01*
X124642857Y-68535714D01*
X124690476Y-68630952D01*
X124738095Y-68678571D01*
X124833333Y-68726190D01*
X125214285Y-68726190D01*
X123690476Y-69202380D02*
X124261904Y-69202380D01*
X123976190Y-69202380D02*
X123976190Y-68202380D01*
X124071428Y-68345238D01*
X124166666Y-68440476D01*
X124261904Y-68488095D01*
X122833333Y-68202380D02*
X123023809Y-68202380D01*
X123119047Y-68250000D01*
X123166666Y-68297619D01*
X123261904Y-68440476D01*
X123309523Y-68630952D01*
X123309523Y-69011904D01*
X123261904Y-69107142D01*
X123214285Y-69154761D01*
X123119047Y-69202380D01*
X122928571Y-69202380D01*
X122833333Y-69154761D01*
X122785714Y-69107142D01*
X122738095Y-69011904D01*
X122738095Y-68773809D01*
X122785714Y-68678571D01*
X122833333Y-68630952D01*
X122928571Y-68583333D01*
X123119047Y-68583333D01*
X123214285Y-68630952D01*
X123261904Y-68678571D01*
X123309523Y-68773809D01*
X127642857Y-69202380D02*
X127976190Y-68726190D01*
X128214285Y-69202380D02*
X128214285Y-68202380D01*
X127833333Y-68202380D01*
X127738095Y-68250000D01*
X127690476Y-68297619D01*
X127642857Y-68392857D01*
X127642857Y-68535714D01*
X127690476Y-68630952D01*
X127738095Y-68678571D01*
X127833333Y-68726190D01*
X128214285Y-68726190D01*
X126690476Y-69202380D02*
X127261904Y-69202380D01*
X126976190Y-69202380D02*
X126976190Y-68202380D01*
X127071428Y-68345238D01*
X127166666Y-68440476D01*
X127261904Y-68488095D01*
X125785714Y-68202380D02*
X126261904Y-68202380D01*
X126309523Y-68678571D01*
X126261904Y-68630952D01*
X126166666Y-68583333D01*
X125928571Y-68583333D01*
X125833333Y-68630952D01*
X125785714Y-68678571D01*
X125738095Y-68773809D01*
X125738095Y-69011904D01*
X125785714Y-69107142D01*
X125833333Y-69154761D01*
X125928571Y-69202380D01*
X126166666Y-69202380D01*
X126261904Y-69154761D01*
X126309523Y-69107142D01*
X147440476Y-68202380D02*
X147107142Y-69202380D01*
X146773809Y-68202380D01*
X146583333Y-68202380D02*
X146011904Y-68202380D01*
X146297619Y-69202380D02*
X146297619Y-68202380D01*
X145154761Y-69202380D02*
X145726190Y-69202380D01*
X145440476Y-69202380D02*
X145440476Y-68202380D01*
X145535714Y-68345238D01*
X145630952Y-68440476D01*
X145726190Y-68488095D01*
X154742857Y-77552380D02*
X155076190Y-77076190D01*
X155314285Y-77552380D02*
X155314285Y-76552380D01*
X154933333Y-76552380D01*
X154838095Y-76600000D01*
X154790476Y-76647619D01*
X154742857Y-76742857D01*
X154742857Y-76885714D01*
X154790476Y-76980952D01*
X154838095Y-77028571D01*
X154933333Y-77076190D01*
X155314285Y-77076190D01*
X153790476Y-77552380D02*
X154361904Y-77552380D01*
X154076190Y-77552380D02*
X154076190Y-76552380D01*
X154171428Y-76695238D01*
X154266666Y-76790476D01*
X154361904Y-76838095D01*
X152933333Y-76885714D02*
X152933333Y-77552380D01*
X153171428Y-76504761D02*
X153409523Y-77219047D01*
X152790476Y-77219047D01*
X149452380Y-67607142D02*
X148976190Y-67273809D01*
X149452380Y-67035714D02*
X148452380Y-67035714D01*
X148452380Y-67416666D01*
X148500000Y-67511904D01*
X148547619Y-67559523D01*
X148642857Y-67607142D01*
X148785714Y-67607142D01*
X148880952Y-67559523D01*
X148928571Y-67511904D01*
X148976190Y-67416666D01*
X148976190Y-67035714D01*
X149452380Y-68559523D02*
X149452380Y-67988095D01*
X149452380Y-68273809D02*
X148452380Y-68273809D01*
X148595238Y-68178571D01*
X148690476Y-68083333D01*
X148738095Y-67988095D01*
X148452380Y-68892857D02*
X148452380Y-69511904D01*
X148833333Y-69178571D01*
X148833333Y-69321428D01*
X148880952Y-69416666D01*
X148928571Y-69464285D01*
X149023809Y-69511904D01*
X149261904Y-69511904D01*
X149357142Y-69464285D01*
X149404761Y-69416666D01*
X149452380Y-69321428D01*
X149452380Y-69035714D01*
X149404761Y-68940476D01*
X149357142Y-68892857D01*
X127892857Y-77107142D02*
X127940476Y-77154761D01*
X128083333Y-77202380D01*
X128178571Y-77202380D01*
X128321428Y-77154761D01*
X128416666Y-77059523D01*
X128464285Y-76964285D01*
X128511904Y-76773809D01*
X128511904Y-76630952D01*
X128464285Y-76440476D01*
X128416666Y-76345238D01*
X128321428Y-76250000D01*
X128178571Y-76202380D01*
X128083333Y-76202380D01*
X127940476Y-76250000D01*
X127892857Y-76297619D01*
X126940476Y-77202380D02*
X127511904Y-77202380D01*
X127226190Y-77202380D02*
X127226190Y-76202380D01*
X127321428Y-76345238D01*
X127416666Y-76440476D01*
X127511904Y-76488095D01*
X126083333Y-76535714D02*
X126083333Y-77202380D01*
X126321428Y-76154761D02*
X126559523Y-76869047D01*
X125940476Y-76869047D01*
X113702380Y-70607142D02*
X113226190Y-70273809D01*
X113702380Y-70035714D02*
X112702380Y-70035714D01*
X112702380Y-70416666D01*
X112750000Y-70511904D01*
X112797619Y-70559523D01*
X112892857Y-70607142D01*
X113035714Y-70607142D01*
X113130952Y-70559523D01*
X113178571Y-70511904D01*
X113226190Y-70416666D01*
X113226190Y-70035714D01*
X113702380Y-71559523D02*
X113702380Y-70988095D01*
X113702380Y-71273809D02*
X112702380Y-71273809D01*
X112845238Y-71178571D01*
X112940476Y-71083333D01*
X112988095Y-70988095D01*
X112797619Y-71940476D02*
X112750000Y-71988095D01*
X112702380Y-72083333D01*
X112702380Y-72321428D01*
X112750000Y-72416666D01*
X112797619Y-72464285D01*
X112892857Y-72511904D01*
X112988095Y-72511904D01*
X113130952Y-72464285D01*
X113702380Y-71892857D01*
X113702380Y-72511904D01*
X117238095Y-78242380D02*
X117238095Y-77242380D01*
X117000000Y-77242380D01*
X116857142Y-77290000D01*
X116761904Y-77385238D01*
X116714285Y-77480476D01*
X116666666Y-77670952D01*
X116666666Y-77813809D01*
X116714285Y-78004285D01*
X116761904Y-78099523D01*
X116857142Y-78194761D01*
X117000000Y-78242380D01*
X117238095Y-78242380D01*
X116238095Y-78242380D02*
X116238095Y-77242380D01*
X116000000Y-77242380D01*
X115857142Y-77290000D01*
X115761904Y-77385238D01*
X115714285Y-77480476D01*
X115666666Y-77670952D01*
X115666666Y-77813809D01*
X115714285Y-78004285D01*
X115761904Y-78099523D01*
X115857142Y-78194761D01*
X116000000Y-78242380D01*
X116238095Y-78242380D01*
X114809523Y-77242380D02*
X115000000Y-77242380D01*
X115095238Y-77290000D01*
X115142857Y-77337619D01*
X115238095Y-77480476D01*
X115285714Y-77670952D01*
X115285714Y-78051904D01*
X115238095Y-78147142D01*
X115190476Y-78194761D01*
X115095238Y-78242380D01*
X114904761Y-78242380D01*
X114809523Y-78194761D01*
X114761904Y-78147142D01*
X114714285Y-78051904D01*
X114714285Y-77813809D01*
X114761904Y-77718571D01*
X114809523Y-77670952D01*
X114904761Y-77623333D01*
X115095238Y-77623333D01*
X115190476Y-77670952D01*
X115238095Y-77718571D01*
X115285714Y-77813809D01*
X116142857Y-68357142D02*
X116190476Y-68404761D01*
X116333333Y-68452380D01*
X116428571Y-68452380D01*
X116571428Y-68404761D01*
X116666666Y-68309523D01*
X116714285Y-68214285D01*
X116761904Y-68023809D01*
X116761904Y-67880952D01*
X116714285Y-67690476D01*
X116666666Y-67595238D01*
X116571428Y-67500000D01*
X116428571Y-67452380D01*
X116333333Y-67452380D01*
X116190476Y-67500000D01*
X116142857Y-67547619D01*
X115190476Y-68452380D02*
X115761904Y-68452380D01*
X115476190Y-68452380D02*
X115476190Y-67452380D01*
X115571428Y-67595238D01*
X115666666Y-67690476D01*
X115761904Y-67738095D01*
X114857142Y-67452380D02*
X114238095Y-67452380D01*
X114571428Y-67833333D01*
X114428571Y-67833333D01*
X114333333Y-67880952D01*
X114285714Y-67928571D01*
X114238095Y-68023809D01*
X114238095Y-68261904D01*
X114285714Y-68357142D01*
X114333333Y-68404761D01*
X114428571Y-68452380D01*
X114714285Y-68452380D01*
X114809523Y-68404761D01*
X114857142Y-68357142D01*
X149738095Y-56702380D02*
X149738095Y-55702380D01*
X149500000Y-55702380D01*
X149357142Y-55750000D01*
X149261904Y-55845238D01*
X149214285Y-55940476D01*
X149166666Y-56130952D01*
X149166666Y-56273809D01*
X149214285Y-56464285D01*
X149261904Y-56559523D01*
X149357142Y-56654761D01*
X149500000Y-56702380D01*
X149738095Y-56702380D01*
X148738095Y-56702380D02*
X148738095Y-55702380D01*
X148500000Y-55702380D01*
X148357142Y-55750000D01*
X148261904Y-55845238D01*
X148214285Y-55940476D01*
X148166666Y-56130952D01*
X148166666Y-56273809D01*
X148214285Y-56464285D01*
X148261904Y-56559523D01*
X148357142Y-56654761D01*
X148500000Y-56702380D01*
X148738095Y-56702380D01*
X147595238Y-56130952D02*
X147690476Y-56083333D01*
X147738095Y-56035714D01*
X147785714Y-55940476D01*
X147785714Y-55892857D01*
X147738095Y-55797619D01*
X147690476Y-55750000D01*
X147595238Y-55702380D01*
X147404761Y-55702380D01*
X147309523Y-55750000D01*
X147261904Y-55797619D01*
X147214285Y-55892857D01*
X147214285Y-55940476D01*
X147261904Y-56035714D01*
X147309523Y-56083333D01*
X147404761Y-56130952D01*
X147595238Y-56130952D01*
X147690476Y-56178571D01*
X147738095Y-56226190D01*
X147785714Y-56321428D01*
X147785714Y-56511904D01*
X147738095Y-56607142D01*
X147690476Y-56654761D01*
X147595238Y-56702380D01*
X147404761Y-56702380D01*
X147309523Y-56654761D01*
X147261904Y-56607142D01*
X147214285Y-56511904D01*
X147214285Y-56321428D01*
X147261904Y-56226190D01*
X147309523Y-56178571D01*
X147404761Y-56130952D01*
X151916666Y-67702380D02*
X152250000Y-67226190D01*
X152488095Y-67702380D02*
X152488095Y-66702380D01*
X152107142Y-66702380D01*
X152011904Y-66750000D01*
X151964285Y-66797619D01*
X151916666Y-66892857D01*
X151916666Y-67035714D01*
X151964285Y-67130952D01*
X152011904Y-67178571D01*
X152107142Y-67226190D01*
X152488095Y-67226190D01*
X151583333Y-66702380D02*
X150916666Y-66702380D01*
X151345238Y-67702380D01*
X154916666Y-67702380D02*
X155250000Y-67226190D01*
X155488095Y-67702380D02*
X155488095Y-66702380D01*
X155107142Y-66702380D01*
X155011904Y-66750000D01*
X154964285Y-66797619D01*
X154916666Y-66892857D01*
X154916666Y-67035714D01*
X154964285Y-67130952D01*
X155011904Y-67178571D01*
X155107142Y-67226190D01*
X155488095Y-67226190D01*
X154059523Y-66702380D02*
X154250000Y-66702380D01*
X154345238Y-66750000D01*
X154392857Y-66797619D01*
X154488095Y-66940476D01*
X154535714Y-67130952D01*
X154535714Y-67511904D01*
X154488095Y-67607142D01*
X154440476Y-67654761D01*
X154345238Y-67702380D01*
X154154761Y-67702380D01*
X154059523Y-67654761D01*
X154011904Y-67607142D01*
X153964285Y-67511904D01*
X153964285Y-67273809D01*
X154011904Y-67178571D01*
X154059523Y-67130952D01*
X154154761Y-67083333D01*
X154345238Y-67083333D01*
X154440476Y-67130952D01*
X154488095Y-67178571D01*
X154535714Y-67273809D01*
X157452380Y-55607142D02*
X156976190Y-55273809D01*
X157452380Y-55035714D02*
X156452380Y-55035714D01*
X156452380Y-55416666D01*
X156500000Y-55511904D01*
X156547619Y-55559523D01*
X156642857Y-55607142D01*
X156785714Y-55607142D01*
X156880952Y-55559523D01*
X156928571Y-55511904D01*
X156976190Y-55416666D01*
X156976190Y-55035714D01*
X157452380Y-56559523D02*
X157452380Y-55988095D01*
X157452380Y-56273809D02*
X156452380Y-56273809D01*
X156595238Y-56178571D01*
X156690476Y-56083333D01*
X156738095Y-55988095D01*
X157452380Y-57511904D02*
X157452380Y-56940476D01*
X157452380Y-57226190D02*
X156452380Y-57226190D01*
X156595238Y-57130952D01*
X156690476Y-57035714D01*
X156738095Y-56940476D01*
X154952380Y-55607142D02*
X154476190Y-55273809D01*
X154952380Y-55035714D02*
X153952380Y-55035714D01*
X153952380Y-55416666D01*
X154000000Y-55511904D01*
X154047619Y-55559523D01*
X154142857Y-55607142D01*
X154285714Y-55607142D01*
X154380952Y-55559523D01*
X154428571Y-55511904D01*
X154476190Y-55416666D01*
X154476190Y-55035714D01*
X154952380Y-56559523D02*
X154952380Y-55988095D01*
X154952380Y-56273809D02*
X153952380Y-56273809D01*
X154095238Y-56178571D01*
X154190476Y-56083333D01*
X154238095Y-55988095D01*
X153952380Y-57178571D02*
X153952380Y-57273809D01*
X154000000Y-57369047D01*
X154047619Y-57416666D01*
X154142857Y-57464285D01*
X154333333Y-57511904D01*
X154571428Y-57511904D01*
X154761904Y-57464285D01*
X154857142Y-57416666D01*
X154904761Y-57369047D01*
X154952380Y-57273809D01*
X154952380Y-57178571D01*
X154904761Y-57083333D01*
X154857142Y-57035714D01*
X154761904Y-56988095D01*
X154571428Y-56940476D01*
X154333333Y-56940476D01*
X154142857Y-56988095D01*
X154047619Y-57035714D01*
X154000000Y-57083333D01*
X153952380Y-57178571D01*
X133202380Y-65333333D02*
X132726190Y-65000000D01*
X133202380Y-64761904D02*
X132202380Y-64761904D01*
X132202380Y-65142857D01*
X132250000Y-65238095D01*
X132297619Y-65285714D01*
X132392857Y-65333333D01*
X132535714Y-65333333D01*
X132630952Y-65285714D01*
X132678571Y-65238095D01*
X132726190Y-65142857D01*
X132726190Y-64761904D01*
X133202380Y-65809523D02*
X133202380Y-66000000D01*
X133154761Y-66095238D01*
X133107142Y-66142857D01*
X132964285Y-66238095D01*
X132773809Y-66285714D01*
X132392857Y-66285714D01*
X132297619Y-66238095D01*
X132250000Y-66190476D01*
X132202380Y-66095238D01*
X132202380Y-65904761D01*
X132250000Y-65809523D01*
X132297619Y-65761904D01*
X132392857Y-65714285D01*
X132630952Y-65714285D01*
X132726190Y-65761904D01*
X132773809Y-65809523D01*
X132821428Y-65904761D01*
X132821428Y-66095238D01*
X132773809Y-66190476D01*
X132726190Y-66238095D01*
X132630952Y-66285714D01*
X134666666Y-60452380D02*
X135000000Y-59976190D01*
X135238095Y-60452380D02*
X135238095Y-59452380D01*
X134857142Y-59452380D01*
X134761904Y-59500000D01*
X134714285Y-59547619D01*
X134666666Y-59642857D01*
X134666666Y-59785714D01*
X134714285Y-59880952D01*
X134761904Y-59928571D01*
X134857142Y-59976190D01*
X135238095Y-59976190D01*
X134095238Y-59880952D02*
X134190476Y-59833333D01*
X134238095Y-59785714D01*
X134285714Y-59690476D01*
X134285714Y-59642857D01*
X134238095Y-59547619D01*
X134190476Y-59500000D01*
X134095238Y-59452380D01*
X133904761Y-59452380D01*
X133809523Y-59500000D01*
X133761904Y-59547619D01*
X133714285Y-59642857D01*
X133714285Y-59690476D01*
X133761904Y-59785714D01*
X133809523Y-59833333D01*
X133904761Y-59880952D01*
X134095238Y-59880952D01*
X134190476Y-59928571D01*
X134238095Y-59976190D01*
X134285714Y-60071428D01*
X134285714Y-60261904D01*
X134238095Y-60357142D01*
X134190476Y-60404761D01*
X134095238Y-60452380D01*
X133904761Y-60452380D01*
X133809523Y-60404761D01*
X133761904Y-60357142D01*
X133714285Y-60261904D01*
X133714285Y-60071428D01*
X133761904Y-59976190D01*
X133809523Y-59928571D01*
X133904761Y-59880952D01*
X133416666Y-56452380D02*
X133892857Y-56452380D01*
X133892857Y-55452380D01*
X132559523Y-56452380D02*
X133130952Y-56452380D01*
X132845238Y-56452380D02*
X132845238Y-55452380D01*
X132940476Y-55595238D01*
X133035714Y-55690476D01*
X133130952Y-55738095D01*
X142214285Y-63500000D02*
X142309523Y-63452380D01*
X142452380Y-63452380D01*
X142595238Y-63500000D01*
X142690476Y-63595238D01*
X142738095Y-63690476D01*
X142785714Y-63880952D01*
X142785714Y-64023809D01*
X142738095Y-64214285D01*
X142690476Y-64309523D01*
X142595238Y-64404761D01*
X142452380Y-64452380D01*
X142357142Y-64452380D01*
X142214285Y-64404761D01*
X142166666Y-64357142D01*
X142166666Y-64023809D01*
X142357142Y-64023809D01*
X141214285Y-64452380D02*
X141785714Y-64452380D01*
X141500000Y-64452380D02*
X141500000Y-63452380D01*
X141595238Y-63595238D01*
X141690476Y-63690476D01*
X141785714Y-63738095D01*
X163107142Y-55178571D02*
X163440476Y-55178571D01*
X163440476Y-55702380D02*
X163440476Y-54702380D01*
X162964285Y-54702380D01*
X162583333Y-54702380D02*
X162583333Y-55511904D01*
X162535714Y-55607142D01*
X162488095Y-55654761D01*
X162392857Y-55702380D01*
X162202380Y-55702380D01*
X162107142Y-55654761D01*
X162059523Y-55607142D01*
X162011904Y-55511904D01*
X162011904Y-54702380D01*
X161583333Y-54797619D02*
X161535714Y-54750000D01*
X161440476Y-54702380D01*
X161202380Y-54702380D01*
X161107142Y-54750000D01*
X161059523Y-54797619D01*
X161011904Y-54892857D01*
X161011904Y-54988095D01*
X161059523Y-55130952D01*
X161630952Y-55702380D01*
X161011904Y-55702380D01*
X163107142Y-68178571D02*
X163440476Y-68178571D01*
X163440476Y-68702380D02*
X163440476Y-67702380D01*
X162964285Y-67702380D01*
X162583333Y-67702380D02*
X162583333Y-68511904D01*
X162535714Y-68607142D01*
X162488095Y-68654761D01*
X162392857Y-68702380D01*
X162202380Y-68702380D01*
X162107142Y-68654761D01*
X162059523Y-68607142D01*
X162011904Y-68511904D01*
X162011904Y-67702380D01*
X161011904Y-68702380D02*
X161583333Y-68702380D01*
X161297619Y-68702380D02*
X161297619Y-67702380D01*
X161392857Y-67845238D01*
X161488095Y-67940476D01*
X161583333Y-67988095D01*
X131714285Y-59500000D02*
X131809523Y-59452380D01*
X131952380Y-59452380D01*
X132095238Y-59500000D01*
X132190476Y-59595238D01*
X132238095Y-59690476D01*
X132285714Y-59880952D01*
X132285714Y-60023809D01*
X132238095Y-60214285D01*
X132190476Y-60309523D01*
X132095238Y-60404761D01*
X131952380Y-60452380D01*
X131857142Y-60452380D01*
X131714285Y-60404761D01*
X131666666Y-60357142D01*
X131666666Y-60023809D01*
X131857142Y-60023809D01*
X131285714Y-59547619D02*
X131238095Y-59500000D01*
X131142857Y-59452380D01*
X130904761Y-59452380D01*
X130809523Y-59500000D01*
X130761904Y-59547619D01*
X130714285Y-59642857D01*
X130714285Y-59738095D01*
X130761904Y-59880952D01*
X131333333Y-60452380D01*
X130714285Y-60452380D01*
X145892857Y-58107142D02*
X145940476Y-58154761D01*
X146083333Y-58202380D01*
X146178571Y-58202380D01*
X146321428Y-58154761D01*
X146416666Y-58059523D01*
X146464285Y-57964285D01*
X146511904Y-57773809D01*
X146511904Y-57630952D01*
X146464285Y-57440476D01*
X146416666Y-57345238D01*
X146321428Y-57250000D01*
X146178571Y-57202380D01*
X146083333Y-57202380D01*
X145940476Y-57250000D01*
X145892857Y-57297619D01*
X144940476Y-58202380D02*
X145511904Y-58202380D01*
X145226190Y-58202380D02*
X145226190Y-57202380D01*
X145321428Y-57345238D01*
X145416666Y-57440476D01*
X145511904Y-57488095D01*
X144559523Y-57297619D02*
X144511904Y-57250000D01*
X144416666Y-57202380D01*
X144178571Y-57202380D01*
X144083333Y-57250000D01*
X144035714Y-57297619D01*
X143988095Y-57392857D01*
X143988095Y-57488095D01*
X144035714Y-57630952D01*
X144607142Y-58202380D01*
X143988095Y-58202380D01*
X142892857Y-58107142D02*
X142940476Y-58154761D01*
X143083333Y-58202380D01*
X143178571Y-58202380D01*
X143321428Y-58154761D01*
X143416666Y-58059523D01*
X143464285Y-57964285D01*
X143511904Y-57773809D01*
X143511904Y-57630952D01*
X143464285Y-57440476D01*
X143416666Y-57345238D01*
X143321428Y-57250000D01*
X143178571Y-57202380D01*
X143083333Y-57202380D01*
X142940476Y-57250000D01*
X142892857Y-57297619D01*
X141940476Y-58202380D02*
X142511904Y-58202380D01*
X142226190Y-58202380D02*
X142226190Y-57202380D01*
X142321428Y-57345238D01*
X142416666Y-57440476D01*
X142511904Y-57488095D01*
X140988095Y-58202380D02*
X141559523Y-58202380D01*
X141273809Y-58202380D02*
X141273809Y-57202380D01*
X141369047Y-57345238D01*
X141464285Y-57440476D01*
X141559523Y-57488095D01*
X139892857Y-60357142D02*
X139940476Y-60404761D01*
X140083333Y-60452380D01*
X140178571Y-60452380D01*
X140321428Y-60404761D01*
X140416666Y-60309523D01*
X140464285Y-60214285D01*
X140511904Y-60023809D01*
X140511904Y-59880952D01*
X140464285Y-59690476D01*
X140416666Y-59595238D01*
X140321428Y-59500000D01*
X140178571Y-59452380D01*
X140083333Y-59452380D01*
X139940476Y-59500000D01*
X139892857Y-59547619D01*
X138940476Y-60452380D02*
X139511904Y-60452380D01*
X139226190Y-60452380D02*
X139226190Y-59452380D01*
X139321428Y-59595238D01*
X139416666Y-59690476D01*
X139511904Y-59738095D01*
X138321428Y-59452380D02*
X138226190Y-59452380D01*
X138130952Y-59500000D01*
X138083333Y-59547619D01*
X138035714Y-59642857D01*
X137988095Y-59833333D01*
X137988095Y-60071428D01*
X138035714Y-60261904D01*
X138083333Y-60357142D01*
X138130952Y-60404761D01*
X138226190Y-60452380D01*
X138321428Y-60452380D01*
X138416666Y-60404761D01*
X138464285Y-60357142D01*
X138511904Y-60261904D01*
X138559523Y-60071428D01*
X138559523Y-59833333D01*
X138511904Y-59642857D01*
X138464285Y-59547619D01*
X138416666Y-59500000D01*
X138321428Y-59452380D01*
X144916666Y-64357142D02*
X144964285Y-64404761D01*
X145107142Y-64452380D01*
X145202380Y-64452380D01*
X145345238Y-64404761D01*
X145440476Y-64309523D01*
X145488095Y-64214285D01*
X145535714Y-64023809D01*
X145535714Y-63880952D01*
X145488095Y-63690476D01*
X145440476Y-63595238D01*
X145345238Y-63500000D01*
X145202380Y-63452380D01*
X145107142Y-63452380D01*
X144964285Y-63500000D01*
X144916666Y-63547619D01*
X144440476Y-64452380D02*
X144250000Y-64452380D01*
X144154761Y-64404761D01*
X144107142Y-64357142D01*
X144011904Y-64214285D01*
X143964285Y-64023809D01*
X143964285Y-63642857D01*
X144011904Y-63547619D01*
X144059523Y-63500000D01*
X144154761Y-63452380D01*
X144345238Y-63452380D01*
X144440476Y-63500000D01*
X144488095Y-63547619D01*
X144535714Y-63642857D01*
X144535714Y-63880952D01*
X144488095Y-63976190D01*
X144440476Y-64023809D01*
X144345238Y-64071428D01*
X144154761Y-64071428D01*
X144059523Y-64023809D01*
X144011904Y-63976190D01*
X143964285Y-63880952D01*
X136916666Y-60357142D02*
X136964285Y-60404761D01*
X137107142Y-60452380D01*
X137202380Y-60452380D01*
X137345238Y-60404761D01*
X137440476Y-60309523D01*
X137488095Y-60214285D01*
X137535714Y-60023809D01*
X137535714Y-59880952D01*
X137488095Y-59690476D01*
X137440476Y-59595238D01*
X137345238Y-59500000D01*
X137202380Y-59452380D01*
X137107142Y-59452380D01*
X136964285Y-59500000D01*
X136916666Y-59547619D01*
X136345238Y-59880952D02*
X136440476Y-59833333D01*
X136488095Y-59785714D01*
X136535714Y-59690476D01*
X136535714Y-59642857D01*
X136488095Y-59547619D01*
X136440476Y-59500000D01*
X136345238Y-59452380D01*
X136154761Y-59452380D01*
X136059523Y-59500000D01*
X136011904Y-59547619D01*
X135964285Y-59642857D01*
X135964285Y-59690476D01*
X136011904Y-59785714D01*
X136059523Y-59833333D01*
X136154761Y-59880952D01*
X136345238Y-59880952D01*
X136440476Y-59928571D01*
X136488095Y-59976190D01*
X136535714Y-60071428D01*
X136535714Y-60261904D01*
X136488095Y-60357142D01*
X136440476Y-60404761D01*
X136345238Y-60452380D01*
X136154761Y-60452380D01*
X136059523Y-60404761D01*
X136011904Y-60357142D01*
X135964285Y-60261904D01*
X135964285Y-60071428D01*
X136011904Y-59976190D01*
X136059523Y-59928571D01*
X136154761Y-59880952D01*
X147166666Y-64357142D02*
X147214285Y-64404761D01*
X147357142Y-64452380D01*
X147452380Y-64452380D01*
X147595238Y-64404761D01*
X147690476Y-64309523D01*
X147738095Y-64214285D01*
X147785714Y-64023809D01*
X147785714Y-63880952D01*
X147738095Y-63690476D01*
X147690476Y-63595238D01*
X147595238Y-63500000D01*
X147452380Y-63452380D01*
X147357142Y-63452380D01*
X147214285Y-63500000D01*
X147166666Y-63547619D01*
X146833333Y-63452380D02*
X146166666Y-63452380D01*
X146595238Y-64452380D01*
X129666666Y-57107142D02*
X129714285Y-57154761D01*
X129857142Y-57202380D01*
X129952380Y-57202380D01*
X130095238Y-57154761D01*
X130190476Y-57059523D01*
X130238095Y-56964285D01*
X130285714Y-56773809D01*
X130285714Y-56630952D01*
X130238095Y-56440476D01*
X130190476Y-56345238D01*
X130095238Y-56250000D01*
X129952380Y-56202380D01*
X129857142Y-56202380D01*
X129714285Y-56250000D01*
X129666666Y-56297619D01*
X128809523Y-56202380D02*
X129000000Y-56202380D01*
X129095238Y-56250000D01*
X129142857Y-56297619D01*
X129238095Y-56440476D01*
X129285714Y-56630952D01*
X129285714Y-57011904D01*
X129238095Y-57107142D01*
X129190476Y-57154761D01*
X129095238Y-57202380D01*
X128904761Y-57202380D01*
X128809523Y-57154761D01*
X128761904Y-57107142D01*
X128714285Y-57011904D01*
X128714285Y-56773809D01*
X128761904Y-56678571D01*
X128809523Y-56630952D01*
X128904761Y-56583333D01*
X129095238Y-56583333D01*
X129190476Y-56630952D01*
X129238095Y-56678571D01*
X129285714Y-56773809D01*
X105416666Y-73702380D02*
X105750000Y-73226190D01*
X105988095Y-73702380D02*
X105988095Y-72702380D01*
X105607142Y-72702380D01*
X105511904Y-72750000D01*
X105464285Y-72797619D01*
X105416666Y-72892857D01*
X105416666Y-73035714D01*
X105464285Y-73130952D01*
X105511904Y-73178571D01*
X105607142Y-73226190D01*
X105988095Y-73226190D01*
X104464285Y-73702380D02*
X105035714Y-73702380D01*
X104750000Y-73702380D02*
X104750000Y-72702380D01*
X104845238Y-72845238D01*
X104940476Y-72940476D01*
X105035714Y-72988095D01*
X107916666Y-73702380D02*
X108250000Y-73226190D01*
X108488095Y-73702380D02*
X108488095Y-72702380D01*
X108107142Y-72702380D01*
X108011904Y-72750000D01*
X107964285Y-72797619D01*
X107916666Y-72892857D01*
X107916666Y-73035714D01*
X107964285Y-73130952D01*
X108011904Y-73178571D01*
X108107142Y-73226190D01*
X108488095Y-73226190D01*
X107535714Y-72797619D02*
X107488095Y-72750000D01*
X107392857Y-72702380D01*
X107154761Y-72702380D01*
X107059523Y-72750000D01*
X107011904Y-72797619D01*
X106964285Y-72892857D01*
X106964285Y-72988095D01*
X107011904Y-73130952D01*
X107583333Y-73702380D01*
X106964285Y-73702380D01*
X105166666Y-53202380D02*
X105500000Y-52726190D01*
X105738095Y-53202380D02*
X105738095Y-52202380D01*
X105357142Y-52202380D01*
X105261904Y-52250000D01*
X105214285Y-52297619D01*
X105166666Y-52392857D01*
X105166666Y-52535714D01*
X105214285Y-52630952D01*
X105261904Y-52678571D01*
X105357142Y-52726190D01*
X105738095Y-52726190D01*
X104833333Y-52202380D02*
X104214285Y-52202380D01*
X104547619Y-52583333D01*
X104404761Y-52583333D01*
X104309523Y-52630952D01*
X104261904Y-52678571D01*
X104214285Y-52773809D01*
X104214285Y-53011904D01*
X104261904Y-53107142D01*
X104309523Y-53154761D01*
X104404761Y-53202380D01*
X104690476Y-53202380D01*
X104785714Y-53154761D01*
X104833333Y-53107142D01*
X124416666Y-59202380D02*
X124750000Y-58726190D01*
X124988095Y-59202380D02*
X124988095Y-58202380D01*
X124607142Y-58202380D01*
X124511904Y-58250000D01*
X124464285Y-58297619D01*
X124416666Y-58392857D01*
X124416666Y-58535714D01*
X124464285Y-58630952D01*
X124511904Y-58678571D01*
X124607142Y-58726190D01*
X124988095Y-58726190D01*
X123559523Y-58535714D02*
X123559523Y-59202380D01*
X123797619Y-58154761D02*
X124035714Y-58869047D01*
X123416666Y-58869047D01*
X124416666Y-64452380D02*
X124750000Y-63976190D01*
X124988095Y-64452380D02*
X124988095Y-63452380D01*
X124607142Y-63452380D01*
X124511904Y-63500000D01*
X124464285Y-63547619D01*
X124416666Y-63642857D01*
X124416666Y-63785714D01*
X124464285Y-63880952D01*
X124511904Y-63928571D01*
X124607142Y-63976190D01*
X124988095Y-63976190D01*
X123511904Y-63452380D02*
X123988095Y-63452380D01*
X124035714Y-63928571D01*
X123988095Y-63880952D01*
X123892857Y-63833333D01*
X123654761Y-63833333D01*
X123559523Y-63880952D01*
X123511904Y-63928571D01*
X123464285Y-64023809D01*
X123464285Y-64261904D01*
X123511904Y-64357142D01*
X123559523Y-64404761D01*
X123654761Y-64452380D01*
X123892857Y-64452380D01*
X123988095Y-64404761D01*
X124035714Y-64357142D01*
X113488095Y-57202380D02*
X113488095Y-56202380D01*
X113250000Y-56202380D01*
X113107142Y-56250000D01*
X113011904Y-56345238D01*
X112964285Y-56440476D01*
X112916666Y-56630952D01*
X112916666Y-56773809D01*
X112964285Y-56964285D01*
X113011904Y-57059523D01*
X113107142Y-57154761D01*
X113250000Y-57202380D01*
X113488095Y-57202380D01*
X112488095Y-57202380D02*
X112488095Y-56202380D01*
X112250000Y-56202380D01*
X112107142Y-56250000D01*
X112011904Y-56345238D01*
X111964285Y-56440476D01*
X111916666Y-56630952D01*
X111916666Y-56773809D01*
X111964285Y-56964285D01*
X112011904Y-57059523D01*
X112107142Y-57154761D01*
X112250000Y-57202380D01*
X112488095Y-57202380D01*
X110964285Y-57202380D02*
X111535714Y-57202380D01*
X111250000Y-57202380D02*
X111250000Y-56202380D01*
X111345238Y-56345238D01*
X111440476Y-56440476D01*
X111535714Y-56488095D01*
X121488095Y-46952380D02*
X121488095Y-45952380D01*
X121250000Y-45952380D01*
X121107142Y-46000000D01*
X121011904Y-46095238D01*
X120964285Y-46190476D01*
X120916666Y-46380952D01*
X120916666Y-46523809D01*
X120964285Y-46714285D01*
X121011904Y-46809523D01*
X121107142Y-46904761D01*
X121250000Y-46952380D01*
X121488095Y-46952380D01*
X120488095Y-46952380D02*
X120488095Y-45952380D01*
X120250000Y-45952380D01*
X120107142Y-46000000D01*
X120011904Y-46095238D01*
X119964285Y-46190476D01*
X119916666Y-46380952D01*
X119916666Y-46523809D01*
X119964285Y-46714285D01*
X120011904Y-46809523D01*
X120107142Y-46904761D01*
X120250000Y-46952380D01*
X120488095Y-46952380D01*
X119535714Y-46047619D02*
X119488095Y-46000000D01*
X119392857Y-45952380D01*
X119154761Y-45952380D01*
X119059523Y-46000000D01*
X119011904Y-46047619D01*
X118964285Y-46142857D01*
X118964285Y-46238095D01*
X119011904Y-46380952D01*
X119583333Y-46952380D01*
X118964285Y-46952380D01*
X134988095Y-46952380D02*
X134988095Y-45952380D01*
X134750000Y-45952380D01*
X134607142Y-46000000D01*
X134511904Y-46095238D01*
X134464285Y-46190476D01*
X134416666Y-46380952D01*
X134416666Y-46523809D01*
X134464285Y-46714285D01*
X134511904Y-46809523D01*
X134607142Y-46904761D01*
X134750000Y-46952380D01*
X134988095Y-46952380D01*
X133988095Y-46952380D02*
X133988095Y-45952380D01*
X133750000Y-45952380D01*
X133607142Y-46000000D01*
X133511904Y-46095238D01*
X133464285Y-46190476D01*
X133416666Y-46380952D01*
X133416666Y-46523809D01*
X133464285Y-46714285D01*
X133511904Y-46809523D01*
X133607142Y-46904761D01*
X133750000Y-46952380D01*
X133988095Y-46952380D01*
X133083333Y-45952380D02*
X132464285Y-45952380D01*
X132797619Y-46333333D01*
X132654761Y-46333333D01*
X132559523Y-46380952D01*
X132511904Y-46428571D01*
X132464285Y-46523809D01*
X132464285Y-46761904D01*
X132511904Y-46857142D01*
X132559523Y-46904761D01*
X132654761Y-46952380D01*
X132940476Y-46952380D01*
X133035714Y-46904761D01*
X133083333Y-46857142D01*
X105309523Y-41452380D02*
X104642857Y-42452380D01*
X104642857Y-41452380D02*
X105309523Y-42452380D01*
X104261904Y-42452380D02*
X104261904Y-41452380D01*
X103880952Y-41452380D01*
X103785714Y-41500000D01*
X103738095Y-41547619D01*
X103690476Y-41642857D01*
X103690476Y-41785714D01*
X103738095Y-41880952D01*
X103785714Y-41928571D01*
X103880952Y-41976190D01*
X104261904Y-41976190D01*
X103357142Y-41452380D02*
X102738095Y-41452380D01*
X103071428Y-41833333D01*
X102928571Y-41833333D01*
X102833333Y-41880952D01*
X102785714Y-41928571D01*
X102738095Y-42023809D01*
X102738095Y-42261904D01*
X102785714Y-42357142D01*
X102833333Y-42404761D01*
X102928571Y-42452380D01*
X103214285Y-42452380D01*
X103309523Y-42404761D01*
X103357142Y-42357142D01*
X148738095Y-46952380D02*
X148738095Y-45952380D01*
X148500000Y-45952380D01*
X148357142Y-46000000D01*
X148261904Y-46095238D01*
X148214285Y-46190476D01*
X148166666Y-46380952D01*
X148166666Y-46523809D01*
X148214285Y-46714285D01*
X148261904Y-46809523D01*
X148357142Y-46904761D01*
X148500000Y-46952380D01*
X148738095Y-46952380D01*
X147738095Y-46952380D02*
X147738095Y-45952380D01*
X147500000Y-45952380D01*
X147357142Y-46000000D01*
X147261904Y-46095238D01*
X147214285Y-46190476D01*
X147166666Y-46380952D01*
X147166666Y-46523809D01*
X147214285Y-46714285D01*
X147261904Y-46809523D01*
X147357142Y-46904761D01*
X147500000Y-46952380D01*
X147738095Y-46952380D01*
X146309523Y-46285714D02*
X146309523Y-46952380D01*
X146547619Y-45904761D02*
X146785714Y-46619047D01*
X146166666Y-46619047D01*
X162238095Y-46952380D02*
X162238095Y-45952380D01*
X162000000Y-45952380D01*
X161857142Y-46000000D01*
X161761904Y-46095238D01*
X161714285Y-46190476D01*
X161666666Y-46380952D01*
X161666666Y-46523809D01*
X161714285Y-46714285D01*
X161761904Y-46809523D01*
X161857142Y-46904761D01*
X162000000Y-46952380D01*
X162238095Y-46952380D01*
X161238095Y-46952380D02*
X161238095Y-45952380D01*
X161000000Y-45952380D01*
X160857142Y-46000000D01*
X160761904Y-46095238D01*
X160714285Y-46190476D01*
X160666666Y-46380952D01*
X160666666Y-46523809D01*
X160714285Y-46714285D01*
X160761904Y-46809523D01*
X160857142Y-46904761D01*
X161000000Y-46952380D01*
X161238095Y-46952380D01*
X159761904Y-45952380D02*
X160238095Y-45952380D01*
X160285714Y-46428571D01*
X160238095Y-46380952D01*
X160142857Y-46333333D01*
X159904761Y-46333333D01*
X159809523Y-46380952D01*
X159761904Y-46428571D01*
X159714285Y-46523809D01*
X159714285Y-46761904D01*
X159761904Y-46857142D01*
X159809523Y-46904761D01*
X159904761Y-46952380D01*
X160142857Y-46952380D01*
X160238095Y-46904761D01*
X160285714Y-46857142D01*
M02*
