G04 #@! TF.GenerationSoftware,KiCad,Pcbnew,(5.1.2-1)-1*
G04 #@! TF.CreationDate,2019-10-19T13:23:49+03:00*
G04 #@! TF.ProjectId,mag,6d61672e-6b69-4636-9164-5f7063625858,rev?*
G04 #@! TF.SameCoordinates,Original*
G04 #@! TF.FileFunction,Copper,L2,Inr*
G04 #@! TF.FilePolarity,Positive*
%FSLAX46Y46*%
G04 Gerber Fmt 4.6, Leading zero omitted, Abs format (unit mm)*
G04 Created by KiCad (PCBNEW (5.1.2-1)-1) date 2019-10-19 13:23:49*
%MOMM*%
%LPD*%
G04 APERTURE LIST*
%ADD10C,1.700000*%
%ADD11R,1.700000X1.700000*%
%ADD12C,0.800000*%
%ADD13C,0.250000*%
%ADD14C,0.200000*%
G04 APERTURE END LIST*
D10*
X117750000Y-75000000D03*
D11*
X120290000Y-75000000D03*
X122830000Y-75000000D03*
X125370000Y-75000000D03*
X127910000Y-75000000D03*
X130450000Y-75000000D03*
X132990000Y-75000000D03*
X135530000Y-75000000D03*
X138070000Y-75000000D03*
X140610000Y-75000000D03*
X143150000Y-75000000D03*
X145690000Y-75000000D03*
X148230000Y-75000000D03*
X150770000Y-75000000D03*
X153310000Y-75000000D03*
X155850000Y-75000000D03*
X158390000Y-75000000D03*
X160930000Y-75000000D03*
X163470000Y-75000000D03*
X166010000Y-75000000D03*
X117750000Y-41980000D03*
X120290000Y-41980000D03*
X122830000Y-41980000D03*
X125370000Y-41980000D03*
X127910000Y-41980000D03*
X130450000Y-41980000D03*
X132990000Y-41980000D03*
X135530000Y-41980000D03*
X138070000Y-41980000D03*
X140610000Y-41980000D03*
X143150000Y-41980000D03*
X145690000Y-41980000D03*
X148230000Y-41980000D03*
X150770000Y-41980000D03*
X153310000Y-41980000D03*
X155850000Y-41980000D03*
X158390000Y-41980000D03*
X160930000Y-41980000D03*
X163470000Y-41980000D03*
X166010000Y-41980000D03*
X112620000Y-79000000D03*
X110080000Y-79000000D03*
X107540000Y-79000000D03*
D10*
X105000000Y-79000000D03*
D11*
X168000000Y-64620000D03*
X168000000Y-62080000D03*
X168000000Y-59540000D03*
D10*
X168000000Y-57000000D03*
D11*
X168000000Y-68250000D03*
D10*
X168000000Y-70790000D03*
X106250000Y-44250000D03*
D11*
X106250000Y-46790000D03*
X106250000Y-49330000D03*
X103710000Y-44250000D03*
X103710000Y-46790000D03*
X103710000Y-49330000D03*
D12*
X117750000Y-55000000D03*
X121000000Y-55000000D03*
X115000000Y-42500000D03*
X115000000Y-43500000D03*
X115000000Y-44500000D03*
X115000000Y-45500000D03*
X142000000Y-47500000D03*
X128500000Y-47500000D03*
X115000000Y-47500000D03*
X155500000Y-47500000D03*
X142000000Y-48500000D03*
X128500000Y-48500000D03*
X115000000Y-48500000D03*
X155500000Y-48500000D03*
X142000000Y-49500000D03*
X128500000Y-49500000D03*
X115000000Y-49500000D03*
X155500000Y-49500000D03*
X142000000Y-50500000D03*
X128500000Y-50500000D03*
X115000000Y-50500000D03*
X155500000Y-50500000D03*
X142000000Y-51500000D03*
X128500000Y-51500000D03*
X115000000Y-51500000D03*
X155500000Y-51500000D03*
X142000000Y-52500000D03*
X128500000Y-52500000D03*
X115000000Y-52500000D03*
X155500000Y-52500000D03*
X142000000Y-53500000D03*
X128500000Y-53500000D03*
X115000000Y-53500000D03*
X155500000Y-53500000D03*
X114250000Y-41500000D03*
X155500000Y-54500000D03*
X115000000Y-54500000D03*
X128500000Y-54500000D03*
X142000000Y-54500000D03*
X111250000Y-45000000D03*
X142000000Y-55500000D03*
X128500000Y-55500000D03*
X115000000Y-55500000D03*
X155500000Y-55500000D03*
X111250000Y-47250000D03*
X138750000Y-77500000D03*
X125500000Y-77500000D03*
X125500000Y-72500000D03*
X111750000Y-70000000D03*
X131000000Y-71750000D03*
X130250000Y-70250000D03*
X109250000Y-70000000D03*
X124500000Y-57250000D03*
X125500000Y-57250000D03*
X126500000Y-57250000D03*
X127500000Y-57250000D03*
X127500000Y-45500000D03*
X126500000Y-45500000D03*
X125500000Y-45500000D03*
X124500000Y-45500000D03*
X138000000Y-45500000D03*
X139000000Y-45500000D03*
X140000000Y-45500000D03*
X141000000Y-45500000D03*
X140000000Y-56500000D03*
X139000000Y-55750000D03*
X138030154Y-55030154D03*
X136750000Y-54550002D03*
X150500000Y-54550002D03*
X151945299Y-55167948D03*
X152500000Y-56000000D03*
X153500000Y-56025306D03*
X154500000Y-45500000D03*
X153500000Y-45500000D03*
X152500000Y-45500000D03*
X151500000Y-45500000D03*
X165000000Y-45500000D03*
X166000000Y-45500000D03*
X167000000Y-45500000D03*
X168000000Y-54750000D03*
X166000000Y-51250000D03*
X167250000Y-50000000D03*
X157500000Y-73250000D03*
X167000000Y-54750000D03*
X166000000Y-54750000D03*
X165000000Y-54750000D03*
X117000000Y-59500000D03*
X102500000Y-54500000D03*
X131500000Y-56250000D03*
X128750000Y-62500000D03*
X104000000Y-73500000D03*
X120000000Y-66500000D03*
X122500000Y-69750000D03*
X104250000Y-58250000D03*
X144599980Y-69000000D03*
X120000000Y-64000000D03*
X120000000Y-58750000D03*
X142000000Y-46500000D03*
X128500000Y-46500000D03*
X115000000Y-46500000D03*
X155500000Y-46500000D03*
X137250000Y-77500000D03*
X150500000Y-77500000D03*
X103750000Y-64000000D03*
X106000000Y-66750000D03*
X166000000Y-79000000D03*
X149500000Y-59000000D03*
X155750000Y-58750000D03*
X143750000Y-61750000D03*
X140750000Y-63750000D03*
X134500000Y-67250000D03*
X133263212Y-62457060D03*
X129000000Y-78000000D03*
X128250000Y-59000000D03*
X117250000Y-70750000D03*
X110250000Y-73750000D03*
X131000000Y-64500000D03*
X131750000Y-70250000D03*
X123000000Y-66750000D03*
X141250000Y-73000000D03*
X116750000Y-79250000D03*
X108250000Y-70000000D03*
X149500000Y-60275000D03*
X107250000Y-70000000D03*
X149500000Y-61500000D03*
X124500000Y-78500000D03*
X114250000Y-77500000D03*
X113250000Y-71750000D03*
X131000000Y-69500000D03*
X145750000Y-66500000D03*
X149963342Y-69518329D03*
X156000000Y-79000000D03*
X142000000Y-56500000D03*
X128500000Y-56500000D03*
X115000000Y-56500000D03*
X155500000Y-56500000D03*
X112500000Y-69000000D03*
X152250000Y-79000000D03*
D13*
X134250000Y-74000000D02*
X134250000Y-80250000D01*
X134250000Y-80250000D02*
X133750000Y-80750000D01*
X133750000Y-80750000D02*
X125250000Y-80750000D01*
X125250000Y-80750000D02*
X106750000Y-80750000D01*
X106750000Y-80750000D02*
X105000000Y-79000000D01*
X134250000Y-74000000D02*
X133750000Y-73500000D01*
X133750000Y-73500000D02*
X132250000Y-73500000D01*
X132250000Y-73500000D02*
X131000000Y-72250000D01*
X131000000Y-72250000D02*
X131000000Y-71750000D01*
X131814999Y-79935001D02*
X131450010Y-80299990D01*
X131450010Y-80299990D02*
X125436400Y-80299990D01*
X125436400Y-80299990D02*
X119750000Y-80299990D01*
X119750000Y-80299990D02*
X107799990Y-80299990D01*
X107799990Y-80299990D02*
X107500000Y-80000000D01*
X107500000Y-80000000D02*
X107500000Y-79000000D01*
X131814999Y-74685001D02*
X131814999Y-74079997D01*
X131814999Y-74079997D02*
X130250000Y-72514998D01*
X131814999Y-74685001D02*
X131814999Y-79935001D01*
X130250000Y-72514998D02*
X130250000Y-70250000D01*
X108250000Y-69434315D02*
X108250000Y-70000000D01*
X117409316Y-60275000D02*
X108250000Y-69434315D01*
X149500000Y-60275000D02*
X117409316Y-60275000D01*
X149000000Y-61000000D02*
X149500000Y-61500000D01*
X148750000Y-60750000D02*
X149000000Y-61000000D01*
X110250000Y-68250000D02*
X117750000Y-60750000D01*
X117750000Y-60750000D02*
X148750000Y-60750000D01*
X109750000Y-71000000D02*
X110250000Y-70500000D01*
X107684315Y-71000000D02*
X109750000Y-71000000D01*
X107250000Y-70565685D02*
X107684315Y-71000000D01*
X110250000Y-70500000D02*
X110250000Y-68250000D01*
X107250000Y-70000000D02*
X107250000Y-70565685D01*
D14*
G36*
X113363811Y-41026322D02*
G01*
X113288429Y-41208311D01*
X113250000Y-41401509D01*
X113250000Y-41598491D01*
X113288429Y-41791689D01*
X113363811Y-41973678D01*
X113473249Y-42137463D01*
X113612537Y-42276751D01*
X113776322Y-42386189D01*
X113958311Y-42461571D01*
X114000000Y-42469863D01*
X114000000Y-42598491D01*
X114038429Y-42791689D01*
X114113811Y-42973678D01*
X114131399Y-43000000D01*
X114113811Y-43026322D01*
X114038429Y-43208311D01*
X114000000Y-43401509D01*
X114000000Y-43598491D01*
X114038429Y-43791689D01*
X114113811Y-43973678D01*
X114131399Y-44000000D01*
X114113811Y-44026322D01*
X114038429Y-44208311D01*
X114000000Y-44401509D01*
X114000000Y-44598491D01*
X114038429Y-44791689D01*
X114113811Y-44973678D01*
X114131399Y-45000000D01*
X114113811Y-45026322D01*
X114038429Y-45208311D01*
X114000000Y-45401509D01*
X114000000Y-45598491D01*
X114038429Y-45791689D01*
X114113811Y-45973678D01*
X114223249Y-46137463D01*
X114362537Y-46276751D01*
X114526322Y-46386189D01*
X114708311Y-46461571D01*
X114901509Y-46500000D01*
X114708311Y-46538429D01*
X114526322Y-46613811D01*
X114362537Y-46723249D01*
X114223249Y-46862537D01*
X114113811Y-47026322D01*
X114038429Y-47208311D01*
X114000000Y-47401509D01*
X114000000Y-47598491D01*
X114038429Y-47791689D01*
X114113811Y-47973678D01*
X114131399Y-48000000D01*
X114113811Y-48026322D01*
X114038429Y-48208311D01*
X114000000Y-48401509D01*
X114000000Y-48598491D01*
X114038429Y-48791689D01*
X114113811Y-48973678D01*
X114131399Y-49000000D01*
X114113811Y-49026322D01*
X114038429Y-49208311D01*
X114000000Y-49401509D01*
X114000000Y-49598491D01*
X114038429Y-49791689D01*
X114113811Y-49973678D01*
X114131399Y-50000000D01*
X114113811Y-50026322D01*
X114038429Y-50208311D01*
X114000000Y-50401509D01*
X114000000Y-50598491D01*
X114038429Y-50791689D01*
X114113811Y-50973678D01*
X114131399Y-51000000D01*
X114113811Y-51026322D01*
X114038429Y-51208311D01*
X114000000Y-51401509D01*
X114000000Y-51598491D01*
X114038429Y-51791689D01*
X114113811Y-51973678D01*
X114131399Y-52000000D01*
X114113811Y-52026322D01*
X114038429Y-52208311D01*
X114000000Y-52401509D01*
X114000000Y-52598491D01*
X114038429Y-52791689D01*
X114113811Y-52973678D01*
X114131399Y-53000000D01*
X114113811Y-53026322D01*
X114038429Y-53208311D01*
X114000000Y-53401509D01*
X114000000Y-53598491D01*
X114038429Y-53791689D01*
X114113811Y-53973678D01*
X114131399Y-54000000D01*
X114113811Y-54026322D01*
X114038429Y-54208311D01*
X114000000Y-54401509D01*
X114000000Y-54598491D01*
X114038429Y-54791689D01*
X114113811Y-54973678D01*
X114131399Y-55000000D01*
X114113811Y-55026322D01*
X114038429Y-55208311D01*
X114000000Y-55401509D01*
X114000000Y-55598491D01*
X114038429Y-55791689D01*
X114113811Y-55973678D01*
X114131399Y-56000000D01*
X114113811Y-56026322D01*
X114038429Y-56208311D01*
X114000000Y-56401509D01*
X114000000Y-56598491D01*
X114038429Y-56791689D01*
X114113811Y-56973678D01*
X114223249Y-57137463D01*
X114362537Y-57276751D01*
X114526322Y-57386189D01*
X114708311Y-57461571D01*
X114901509Y-57500000D01*
X115098491Y-57500000D01*
X115291689Y-57461571D01*
X115473678Y-57386189D01*
X115637463Y-57276751D01*
X115762705Y-57151509D01*
X123500000Y-57151509D01*
X123500000Y-57348491D01*
X123538429Y-57541689D01*
X123613811Y-57723678D01*
X123723249Y-57887463D01*
X123862537Y-58026751D01*
X124026322Y-58136189D01*
X124208311Y-58211571D01*
X124401509Y-58250000D01*
X124598491Y-58250000D01*
X124791689Y-58211571D01*
X124973678Y-58136189D01*
X125000000Y-58118601D01*
X125026322Y-58136189D01*
X125208311Y-58211571D01*
X125401509Y-58250000D01*
X125598491Y-58250000D01*
X125791689Y-58211571D01*
X125973678Y-58136189D01*
X126000000Y-58118601D01*
X126026322Y-58136189D01*
X126208311Y-58211571D01*
X126401509Y-58250000D01*
X126598491Y-58250000D01*
X126791689Y-58211571D01*
X126973678Y-58136189D01*
X127000000Y-58118601D01*
X127026322Y-58136189D01*
X127208311Y-58211571D01*
X127401509Y-58250000D01*
X127598491Y-58250000D01*
X127791689Y-58211571D01*
X127973678Y-58136189D01*
X128137463Y-58026751D01*
X128276751Y-57887463D01*
X128386189Y-57723678D01*
X128461571Y-57541689D01*
X128469863Y-57500000D01*
X128598491Y-57500000D01*
X128791689Y-57461571D01*
X128973678Y-57386189D01*
X129137463Y-57276751D01*
X129276751Y-57137463D01*
X129386189Y-56973678D01*
X129461571Y-56791689D01*
X129500000Y-56598491D01*
X129500000Y-56401509D01*
X129461571Y-56208311D01*
X129438043Y-56151509D01*
X130500000Y-56151509D01*
X130500000Y-56348491D01*
X130538429Y-56541689D01*
X130613811Y-56723678D01*
X130723249Y-56887463D01*
X130862537Y-57026751D01*
X131026322Y-57136189D01*
X131208311Y-57211571D01*
X131401509Y-57250000D01*
X131598491Y-57250000D01*
X131791689Y-57211571D01*
X131973678Y-57136189D01*
X132137463Y-57026751D01*
X132276751Y-56887463D01*
X132386189Y-56723678D01*
X132461571Y-56541689D01*
X132500000Y-56348491D01*
X132500000Y-56151509D01*
X132461571Y-55958311D01*
X132386189Y-55776322D01*
X132276751Y-55612537D01*
X132137463Y-55473249D01*
X131973678Y-55363811D01*
X131791689Y-55288429D01*
X131598491Y-55250000D01*
X131401509Y-55250000D01*
X131208311Y-55288429D01*
X131026322Y-55363811D01*
X130862537Y-55473249D01*
X130723249Y-55612537D01*
X130613811Y-55776322D01*
X130538429Y-55958311D01*
X130500000Y-56151509D01*
X129438043Y-56151509D01*
X129386189Y-56026322D01*
X129368601Y-56000000D01*
X129386189Y-55973678D01*
X129461571Y-55791689D01*
X129500000Y-55598491D01*
X129500000Y-55401509D01*
X129461571Y-55208311D01*
X129386189Y-55026322D01*
X129368601Y-55000000D01*
X129386189Y-54973678D01*
X129461571Y-54791689D01*
X129500000Y-54598491D01*
X129500000Y-54451511D01*
X135750000Y-54451511D01*
X135750000Y-54648493D01*
X135788429Y-54841691D01*
X135863811Y-55023680D01*
X135973249Y-55187465D01*
X136112537Y-55326753D01*
X136276322Y-55436191D01*
X136458311Y-55511573D01*
X136651509Y-55550002D01*
X136848491Y-55550002D01*
X137041689Y-55511573D01*
X137131724Y-55474279D01*
X137143965Y-55503832D01*
X137253403Y-55667617D01*
X137392691Y-55806905D01*
X137556476Y-55916343D01*
X137738465Y-55991725D01*
X137931663Y-56030154D01*
X138036135Y-56030154D01*
X138038429Y-56041689D01*
X138113811Y-56223678D01*
X138223249Y-56387463D01*
X138362537Y-56526751D01*
X138526322Y-56636189D01*
X138708311Y-56711571D01*
X138901509Y-56750000D01*
X139030137Y-56750000D01*
X139038429Y-56791689D01*
X139113811Y-56973678D01*
X139223249Y-57137463D01*
X139362537Y-57276751D01*
X139526322Y-57386189D01*
X139708311Y-57461571D01*
X139901509Y-57500000D01*
X140098491Y-57500000D01*
X140291689Y-57461571D01*
X140473678Y-57386189D01*
X140637463Y-57276751D01*
X140776751Y-57137463D01*
X140886189Y-56973678D01*
X140961571Y-56791689D01*
X141000000Y-56598491D01*
X141038429Y-56791689D01*
X141113811Y-56973678D01*
X141223249Y-57137463D01*
X141362537Y-57276751D01*
X141526322Y-57386189D01*
X141708311Y-57461571D01*
X141901509Y-57500000D01*
X142098491Y-57500000D01*
X142291689Y-57461571D01*
X142473678Y-57386189D01*
X142637463Y-57276751D01*
X142776751Y-57137463D01*
X142886189Y-56973678D01*
X142961571Y-56791689D01*
X143000000Y-56598491D01*
X143000000Y-56401509D01*
X142961571Y-56208311D01*
X142886189Y-56026322D01*
X142868601Y-56000000D01*
X142886189Y-55973678D01*
X142961571Y-55791689D01*
X143000000Y-55598491D01*
X143000000Y-55401509D01*
X142961571Y-55208311D01*
X142886189Y-55026322D01*
X142868601Y-55000000D01*
X142886189Y-54973678D01*
X142961571Y-54791689D01*
X143000000Y-54598491D01*
X143000000Y-54451511D01*
X149500000Y-54451511D01*
X149500000Y-54648493D01*
X149538429Y-54841691D01*
X149613811Y-55023680D01*
X149723249Y-55187465D01*
X149862537Y-55326753D01*
X150026322Y-55436191D01*
X150208311Y-55511573D01*
X150401509Y-55550002D01*
X150598491Y-55550002D01*
X150791689Y-55511573D01*
X150973678Y-55436191D01*
X150978432Y-55433014D01*
X150983728Y-55459637D01*
X151059110Y-55641626D01*
X151168548Y-55805411D01*
X151307836Y-55944699D01*
X151471621Y-56054137D01*
X151500000Y-56065892D01*
X151500000Y-56098491D01*
X151538429Y-56291689D01*
X151613811Y-56473678D01*
X151723249Y-56637463D01*
X151862537Y-56776751D01*
X152026322Y-56886189D01*
X152208311Y-56961571D01*
X152401509Y-57000000D01*
X152598491Y-57000000D01*
X152791689Y-56961571D01*
X152973678Y-56886189D01*
X152981064Y-56881254D01*
X153026322Y-56911495D01*
X153208311Y-56986877D01*
X153401509Y-57025306D01*
X153598491Y-57025306D01*
X153791689Y-56986877D01*
X153973678Y-56911495D01*
X154137463Y-56802057D01*
X154276751Y-56662769D01*
X154386189Y-56498984D01*
X154461571Y-56316995D01*
X154500000Y-56123797D01*
X154500000Y-55926815D01*
X154461571Y-55733617D01*
X154386189Y-55551628D01*
X154276751Y-55387843D01*
X154137463Y-55248555D01*
X153973678Y-55139117D01*
X153791689Y-55063735D01*
X153598491Y-55025306D01*
X153401509Y-55025306D01*
X153208311Y-55063735D01*
X153026322Y-55139117D01*
X153018936Y-55144052D01*
X152973678Y-55113811D01*
X152945299Y-55102056D01*
X152945299Y-55069457D01*
X152906870Y-54876259D01*
X152831488Y-54694270D01*
X152722050Y-54530485D01*
X152582762Y-54391197D01*
X152418977Y-54281759D01*
X152236988Y-54206377D01*
X152043790Y-54167948D01*
X151846808Y-54167948D01*
X151653610Y-54206377D01*
X151471621Y-54281759D01*
X151466867Y-54284936D01*
X151461571Y-54258313D01*
X151386189Y-54076324D01*
X151276751Y-53912539D01*
X151137463Y-53773251D01*
X150973678Y-53663813D01*
X150791689Y-53588431D01*
X150598491Y-53550002D01*
X150401509Y-53550002D01*
X150208311Y-53588431D01*
X150026322Y-53663813D01*
X149862537Y-53773251D01*
X149723249Y-53912539D01*
X149613811Y-54076324D01*
X149538429Y-54258313D01*
X149500000Y-54451511D01*
X143000000Y-54451511D01*
X143000000Y-54401509D01*
X142961571Y-54208311D01*
X142886189Y-54026322D01*
X142868601Y-54000000D01*
X142886189Y-53973678D01*
X142961571Y-53791689D01*
X143000000Y-53598491D01*
X143000000Y-53401509D01*
X142961571Y-53208311D01*
X142886189Y-53026322D01*
X142868601Y-53000000D01*
X142886189Y-52973678D01*
X142961571Y-52791689D01*
X143000000Y-52598491D01*
X143000000Y-52401509D01*
X142961571Y-52208311D01*
X142886189Y-52026322D01*
X142868601Y-52000000D01*
X142886189Y-51973678D01*
X142961571Y-51791689D01*
X143000000Y-51598491D01*
X143000000Y-51401509D01*
X142961571Y-51208311D01*
X142886189Y-51026322D01*
X142868601Y-51000000D01*
X142886189Y-50973678D01*
X142961571Y-50791689D01*
X143000000Y-50598491D01*
X143000000Y-50401509D01*
X142961571Y-50208311D01*
X142886189Y-50026322D01*
X142868601Y-50000000D01*
X142886189Y-49973678D01*
X142961571Y-49791689D01*
X143000000Y-49598491D01*
X143000000Y-49401509D01*
X142961571Y-49208311D01*
X142886189Y-49026322D01*
X142868601Y-49000000D01*
X142886189Y-48973678D01*
X142961571Y-48791689D01*
X143000000Y-48598491D01*
X143000000Y-48401509D01*
X142961571Y-48208311D01*
X142886189Y-48026322D01*
X142868601Y-48000000D01*
X142886189Y-47973678D01*
X142961571Y-47791689D01*
X143000000Y-47598491D01*
X143000000Y-47401509D01*
X154500000Y-47401509D01*
X154500000Y-47598491D01*
X154538429Y-47791689D01*
X154613811Y-47973678D01*
X154631399Y-48000000D01*
X154613811Y-48026322D01*
X154538429Y-48208311D01*
X154500000Y-48401509D01*
X154500000Y-48598491D01*
X154538429Y-48791689D01*
X154613811Y-48973678D01*
X154631399Y-49000000D01*
X154613811Y-49026322D01*
X154538429Y-49208311D01*
X154500000Y-49401509D01*
X154500000Y-49598491D01*
X154538429Y-49791689D01*
X154613811Y-49973678D01*
X154631399Y-50000000D01*
X154613811Y-50026322D01*
X154538429Y-50208311D01*
X154500000Y-50401509D01*
X154500000Y-50598491D01*
X154538429Y-50791689D01*
X154613811Y-50973678D01*
X154631399Y-51000000D01*
X154613811Y-51026322D01*
X154538429Y-51208311D01*
X154500000Y-51401509D01*
X154500000Y-51598491D01*
X154538429Y-51791689D01*
X154613811Y-51973678D01*
X154631399Y-52000000D01*
X154613811Y-52026322D01*
X154538429Y-52208311D01*
X154500000Y-52401509D01*
X154500000Y-52598491D01*
X154538429Y-52791689D01*
X154613811Y-52973678D01*
X154631399Y-53000000D01*
X154613811Y-53026322D01*
X154538429Y-53208311D01*
X154500000Y-53401509D01*
X154500000Y-53598491D01*
X154538429Y-53791689D01*
X154613811Y-53973678D01*
X154631399Y-54000000D01*
X154613811Y-54026322D01*
X154538429Y-54208311D01*
X154500000Y-54401509D01*
X154500000Y-54598491D01*
X154538429Y-54791689D01*
X154613811Y-54973678D01*
X154631399Y-55000000D01*
X154613811Y-55026322D01*
X154538429Y-55208311D01*
X154500000Y-55401509D01*
X154500000Y-55598491D01*
X154538429Y-55791689D01*
X154613811Y-55973678D01*
X154631399Y-56000000D01*
X154613811Y-56026322D01*
X154538429Y-56208311D01*
X154500000Y-56401509D01*
X154500000Y-56598491D01*
X154538429Y-56791689D01*
X154613811Y-56973678D01*
X154723249Y-57137463D01*
X154862537Y-57276751D01*
X155026322Y-57386189D01*
X155208311Y-57461571D01*
X155401509Y-57500000D01*
X155598491Y-57500000D01*
X155791689Y-57461571D01*
X155973678Y-57386189D01*
X156137463Y-57276751D01*
X156276751Y-57137463D01*
X156386189Y-56973678D01*
X156461571Y-56791689D01*
X156500000Y-56598491D01*
X156500000Y-56401509D01*
X156461571Y-56208311D01*
X156386189Y-56026322D01*
X156368601Y-56000000D01*
X156386189Y-55973678D01*
X156461571Y-55791689D01*
X156500000Y-55598491D01*
X156500000Y-55401509D01*
X156461571Y-55208311D01*
X156386189Y-55026322D01*
X156368601Y-55000000D01*
X156386189Y-54973678D01*
X156461571Y-54791689D01*
X156500000Y-54598491D01*
X156500000Y-54401509D01*
X156461571Y-54208311D01*
X156386189Y-54026322D01*
X156368601Y-54000000D01*
X156386189Y-53973678D01*
X156461571Y-53791689D01*
X156500000Y-53598491D01*
X156500000Y-53401509D01*
X156461571Y-53208311D01*
X156386189Y-53026322D01*
X156368601Y-53000000D01*
X156386189Y-52973678D01*
X156461571Y-52791689D01*
X156500000Y-52598491D01*
X156500000Y-52401509D01*
X156461571Y-52208311D01*
X156386189Y-52026322D01*
X156368601Y-52000000D01*
X156386189Y-51973678D01*
X156461571Y-51791689D01*
X156500000Y-51598491D01*
X156500000Y-51401509D01*
X156461571Y-51208311D01*
X156438043Y-51151509D01*
X165000000Y-51151509D01*
X165000000Y-51348491D01*
X165038429Y-51541689D01*
X165113811Y-51723678D01*
X165223249Y-51887463D01*
X165362537Y-52026751D01*
X165526322Y-52136189D01*
X165708311Y-52211571D01*
X165901509Y-52250000D01*
X166098491Y-52250000D01*
X166291689Y-52211571D01*
X166473678Y-52136189D01*
X166637463Y-52026751D01*
X166776751Y-51887463D01*
X166886189Y-51723678D01*
X166961571Y-51541689D01*
X167000000Y-51348491D01*
X167000000Y-51151509D01*
X166962380Y-50962380D01*
X167151509Y-51000000D01*
X167348491Y-51000000D01*
X167541689Y-50961571D01*
X167723678Y-50886189D01*
X167887463Y-50776751D01*
X168026751Y-50637463D01*
X168136189Y-50473678D01*
X168211571Y-50291689D01*
X168250000Y-50098491D01*
X168250000Y-49901509D01*
X168211571Y-49708311D01*
X168136189Y-49526322D01*
X168026751Y-49362537D01*
X167887463Y-49223249D01*
X167723678Y-49113811D01*
X167541689Y-49038429D01*
X167348491Y-49000000D01*
X167151509Y-49000000D01*
X166958311Y-49038429D01*
X166776322Y-49113811D01*
X166612537Y-49223249D01*
X166473249Y-49362537D01*
X166363811Y-49526322D01*
X166288429Y-49708311D01*
X166250000Y-49901509D01*
X166250000Y-50098491D01*
X166287620Y-50287620D01*
X166098491Y-50250000D01*
X165901509Y-50250000D01*
X165708311Y-50288429D01*
X165526322Y-50363811D01*
X165362537Y-50473249D01*
X165223249Y-50612537D01*
X165113811Y-50776322D01*
X165038429Y-50958311D01*
X165000000Y-51151509D01*
X156438043Y-51151509D01*
X156386189Y-51026322D01*
X156368601Y-51000000D01*
X156386189Y-50973678D01*
X156461571Y-50791689D01*
X156500000Y-50598491D01*
X156500000Y-50401509D01*
X156461571Y-50208311D01*
X156386189Y-50026322D01*
X156368601Y-50000000D01*
X156386189Y-49973678D01*
X156461571Y-49791689D01*
X156500000Y-49598491D01*
X156500000Y-49401509D01*
X156461571Y-49208311D01*
X156386189Y-49026322D01*
X156368601Y-49000000D01*
X156386189Y-48973678D01*
X156461571Y-48791689D01*
X156500000Y-48598491D01*
X156500000Y-48401509D01*
X156461571Y-48208311D01*
X156386189Y-48026322D01*
X156368601Y-48000000D01*
X156386189Y-47973678D01*
X156461571Y-47791689D01*
X156500000Y-47598491D01*
X156500000Y-47401509D01*
X156461571Y-47208311D01*
X156386189Y-47026322D01*
X156276751Y-46862537D01*
X156137463Y-46723249D01*
X155973678Y-46613811D01*
X155791689Y-46538429D01*
X155598491Y-46500000D01*
X155401509Y-46500000D01*
X155208311Y-46538429D01*
X155026322Y-46613811D01*
X154862537Y-46723249D01*
X154723249Y-46862537D01*
X154613811Y-47026322D01*
X154538429Y-47208311D01*
X154500000Y-47401509D01*
X143000000Y-47401509D01*
X142961571Y-47208311D01*
X142886189Y-47026322D01*
X142776751Y-46862537D01*
X142637463Y-46723249D01*
X142473678Y-46613811D01*
X142291689Y-46538429D01*
X142098491Y-46500000D01*
X141901509Y-46500000D01*
X141708311Y-46538429D01*
X141526322Y-46613811D01*
X141362537Y-46723249D01*
X141223249Y-46862537D01*
X141113811Y-47026322D01*
X141038429Y-47208311D01*
X141000000Y-47401509D01*
X141000000Y-47598491D01*
X141038429Y-47791689D01*
X141113811Y-47973678D01*
X141131399Y-48000000D01*
X141113811Y-48026322D01*
X141038429Y-48208311D01*
X141000000Y-48401509D01*
X141000000Y-48598491D01*
X141038429Y-48791689D01*
X141113811Y-48973678D01*
X141131399Y-49000000D01*
X141113811Y-49026322D01*
X141038429Y-49208311D01*
X141000000Y-49401509D01*
X141000000Y-49598491D01*
X141038429Y-49791689D01*
X141113811Y-49973678D01*
X141131399Y-50000000D01*
X141113811Y-50026322D01*
X141038429Y-50208311D01*
X141000000Y-50401509D01*
X141000000Y-50598491D01*
X141038429Y-50791689D01*
X141113811Y-50973678D01*
X141131399Y-51000000D01*
X141113811Y-51026322D01*
X141038429Y-51208311D01*
X141000000Y-51401509D01*
X141000000Y-51598491D01*
X141038429Y-51791689D01*
X141113811Y-51973678D01*
X141131399Y-52000000D01*
X141113811Y-52026322D01*
X141038429Y-52208311D01*
X141000000Y-52401509D01*
X141000000Y-52598491D01*
X141038429Y-52791689D01*
X141113811Y-52973678D01*
X141131399Y-53000000D01*
X141113811Y-53026322D01*
X141038429Y-53208311D01*
X141000000Y-53401509D01*
X141000000Y-53598491D01*
X141038429Y-53791689D01*
X141113811Y-53973678D01*
X141131399Y-54000000D01*
X141113811Y-54026322D01*
X141038429Y-54208311D01*
X141000000Y-54401509D01*
X141000000Y-54598491D01*
X141038429Y-54791689D01*
X141113811Y-54973678D01*
X141131399Y-55000000D01*
X141113811Y-55026322D01*
X141038429Y-55208311D01*
X141000000Y-55401509D01*
X141000000Y-55598491D01*
X141038429Y-55791689D01*
X141113811Y-55973678D01*
X141131399Y-56000000D01*
X141113811Y-56026322D01*
X141038429Y-56208311D01*
X141000000Y-56401509D01*
X140961571Y-56208311D01*
X140886189Y-56026322D01*
X140776751Y-55862537D01*
X140637463Y-55723249D01*
X140473678Y-55613811D01*
X140291689Y-55538429D01*
X140098491Y-55500000D01*
X139969863Y-55500000D01*
X139961571Y-55458311D01*
X139886189Y-55276322D01*
X139776751Y-55112537D01*
X139637463Y-54973249D01*
X139473678Y-54863811D01*
X139291689Y-54788429D01*
X139098491Y-54750000D01*
X138994019Y-54750000D01*
X138991725Y-54738465D01*
X138916343Y-54556476D01*
X138806905Y-54392691D01*
X138667617Y-54253403D01*
X138503832Y-54143965D01*
X138321843Y-54068583D01*
X138128645Y-54030154D01*
X137931663Y-54030154D01*
X137738465Y-54068583D01*
X137648430Y-54105877D01*
X137636189Y-54076324D01*
X137526751Y-53912539D01*
X137387463Y-53773251D01*
X137223678Y-53663813D01*
X137041689Y-53588431D01*
X136848491Y-53550002D01*
X136651509Y-53550002D01*
X136458311Y-53588431D01*
X136276322Y-53663813D01*
X136112537Y-53773251D01*
X135973249Y-53912539D01*
X135863811Y-54076324D01*
X135788429Y-54258313D01*
X135750000Y-54451511D01*
X129500000Y-54451511D01*
X129500000Y-54401509D01*
X129461571Y-54208311D01*
X129386189Y-54026322D01*
X129368601Y-54000000D01*
X129386189Y-53973678D01*
X129461571Y-53791689D01*
X129500000Y-53598491D01*
X129500000Y-53401509D01*
X129461571Y-53208311D01*
X129386189Y-53026322D01*
X129368601Y-53000000D01*
X129386189Y-52973678D01*
X129461571Y-52791689D01*
X129500000Y-52598491D01*
X129500000Y-52401509D01*
X129461571Y-52208311D01*
X129386189Y-52026322D01*
X129368601Y-52000000D01*
X129386189Y-51973678D01*
X129461571Y-51791689D01*
X129500000Y-51598491D01*
X129500000Y-51401509D01*
X129461571Y-51208311D01*
X129386189Y-51026322D01*
X129368601Y-51000000D01*
X129386189Y-50973678D01*
X129461571Y-50791689D01*
X129500000Y-50598491D01*
X129500000Y-50401509D01*
X129461571Y-50208311D01*
X129386189Y-50026322D01*
X129368601Y-50000000D01*
X129386189Y-49973678D01*
X129461571Y-49791689D01*
X129500000Y-49598491D01*
X129500000Y-49401509D01*
X129461571Y-49208311D01*
X129386189Y-49026322D01*
X129368601Y-49000000D01*
X129386189Y-48973678D01*
X129461571Y-48791689D01*
X129500000Y-48598491D01*
X129500000Y-48401509D01*
X129461571Y-48208311D01*
X129386189Y-48026322D01*
X129368601Y-48000000D01*
X129386189Y-47973678D01*
X129461571Y-47791689D01*
X129500000Y-47598491D01*
X129500000Y-47401509D01*
X129461571Y-47208311D01*
X129386189Y-47026322D01*
X129276751Y-46862537D01*
X129137463Y-46723249D01*
X128973678Y-46613811D01*
X128791689Y-46538429D01*
X128598491Y-46500000D01*
X128401509Y-46500000D01*
X128208311Y-46538429D01*
X128026322Y-46613811D01*
X127862537Y-46723249D01*
X127723249Y-46862537D01*
X127613811Y-47026322D01*
X127538429Y-47208311D01*
X127500000Y-47401509D01*
X127500000Y-47598491D01*
X127538429Y-47791689D01*
X127613811Y-47973678D01*
X127631399Y-48000000D01*
X127613811Y-48026322D01*
X127538429Y-48208311D01*
X127500000Y-48401509D01*
X127500000Y-48598491D01*
X127538429Y-48791689D01*
X127613811Y-48973678D01*
X127631399Y-49000000D01*
X127613811Y-49026322D01*
X127538429Y-49208311D01*
X127500000Y-49401509D01*
X127500000Y-49598491D01*
X127538429Y-49791689D01*
X127613811Y-49973678D01*
X127631399Y-50000000D01*
X127613811Y-50026322D01*
X127538429Y-50208311D01*
X127500000Y-50401509D01*
X127500000Y-50598491D01*
X127538429Y-50791689D01*
X127613811Y-50973678D01*
X127631399Y-51000000D01*
X127613811Y-51026322D01*
X127538429Y-51208311D01*
X127500000Y-51401509D01*
X127500000Y-51598491D01*
X127538429Y-51791689D01*
X127613811Y-51973678D01*
X127631399Y-52000000D01*
X127613811Y-52026322D01*
X127538429Y-52208311D01*
X127500000Y-52401509D01*
X127500000Y-52598491D01*
X127538429Y-52791689D01*
X127613811Y-52973678D01*
X127631399Y-53000000D01*
X127613811Y-53026322D01*
X127538429Y-53208311D01*
X127500000Y-53401509D01*
X127500000Y-53598491D01*
X127538429Y-53791689D01*
X127613811Y-53973678D01*
X127631399Y-54000000D01*
X127613811Y-54026322D01*
X127538429Y-54208311D01*
X127500000Y-54401509D01*
X127500000Y-54598491D01*
X127538429Y-54791689D01*
X127613811Y-54973678D01*
X127631399Y-55000000D01*
X127613811Y-55026322D01*
X127538429Y-55208311D01*
X127500000Y-55401509D01*
X127500000Y-55598491D01*
X127538429Y-55791689D01*
X127613811Y-55973678D01*
X127631399Y-56000000D01*
X127613811Y-56026322D01*
X127538429Y-56208311D01*
X127530137Y-56250000D01*
X127401509Y-56250000D01*
X127208311Y-56288429D01*
X127026322Y-56363811D01*
X127000000Y-56381399D01*
X126973678Y-56363811D01*
X126791689Y-56288429D01*
X126598491Y-56250000D01*
X126401509Y-56250000D01*
X126208311Y-56288429D01*
X126026322Y-56363811D01*
X126000000Y-56381399D01*
X125973678Y-56363811D01*
X125791689Y-56288429D01*
X125598491Y-56250000D01*
X125401509Y-56250000D01*
X125208311Y-56288429D01*
X125026322Y-56363811D01*
X125000000Y-56381399D01*
X124973678Y-56363811D01*
X124791689Y-56288429D01*
X124598491Y-56250000D01*
X124401509Y-56250000D01*
X124208311Y-56288429D01*
X124026322Y-56363811D01*
X123862537Y-56473249D01*
X123723249Y-56612537D01*
X123613811Y-56776322D01*
X123538429Y-56958311D01*
X123500000Y-57151509D01*
X115762705Y-57151509D01*
X115776751Y-57137463D01*
X115886189Y-56973678D01*
X115961571Y-56791689D01*
X116000000Y-56598491D01*
X116000000Y-56401509D01*
X115961571Y-56208311D01*
X115886189Y-56026322D01*
X115868601Y-56000000D01*
X115886189Y-55973678D01*
X115961571Y-55791689D01*
X116000000Y-55598491D01*
X116000000Y-55401509D01*
X115961571Y-55208311D01*
X115886189Y-55026322D01*
X115868601Y-55000000D01*
X115886189Y-54973678D01*
X115916082Y-54901509D01*
X116750000Y-54901509D01*
X116750000Y-55098491D01*
X116788429Y-55291689D01*
X116863811Y-55473678D01*
X116973249Y-55637463D01*
X117112537Y-55776751D01*
X117276322Y-55886189D01*
X117458311Y-55961571D01*
X117651509Y-56000000D01*
X117848491Y-56000000D01*
X118041689Y-55961571D01*
X118223678Y-55886189D01*
X118387463Y-55776751D01*
X118526751Y-55637463D01*
X118636189Y-55473678D01*
X118711571Y-55291689D01*
X118750000Y-55098491D01*
X118750000Y-54901509D01*
X120000000Y-54901509D01*
X120000000Y-55098491D01*
X120038429Y-55291689D01*
X120113811Y-55473678D01*
X120223249Y-55637463D01*
X120362537Y-55776751D01*
X120526322Y-55886189D01*
X120708311Y-55961571D01*
X120901509Y-56000000D01*
X121098491Y-56000000D01*
X121291689Y-55961571D01*
X121473678Y-55886189D01*
X121637463Y-55776751D01*
X121776751Y-55637463D01*
X121886189Y-55473678D01*
X121961571Y-55291689D01*
X122000000Y-55098491D01*
X122000000Y-54901509D01*
X121961571Y-54708311D01*
X121886189Y-54526322D01*
X121776751Y-54362537D01*
X121637463Y-54223249D01*
X121473678Y-54113811D01*
X121291689Y-54038429D01*
X121098491Y-54000000D01*
X120901509Y-54000000D01*
X120708311Y-54038429D01*
X120526322Y-54113811D01*
X120362537Y-54223249D01*
X120223249Y-54362537D01*
X120113811Y-54526322D01*
X120038429Y-54708311D01*
X120000000Y-54901509D01*
X118750000Y-54901509D01*
X118711571Y-54708311D01*
X118636189Y-54526322D01*
X118526751Y-54362537D01*
X118387463Y-54223249D01*
X118223678Y-54113811D01*
X118041689Y-54038429D01*
X117848491Y-54000000D01*
X117651509Y-54000000D01*
X117458311Y-54038429D01*
X117276322Y-54113811D01*
X117112537Y-54223249D01*
X116973249Y-54362537D01*
X116863811Y-54526322D01*
X116788429Y-54708311D01*
X116750000Y-54901509D01*
X115916082Y-54901509D01*
X115961571Y-54791689D01*
X116000000Y-54598491D01*
X116000000Y-54401509D01*
X115961571Y-54208311D01*
X115886189Y-54026322D01*
X115868601Y-54000000D01*
X115886189Y-53973678D01*
X115961571Y-53791689D01*
X116000000Y-53598491D01*
X116000000Y-53401509D01*
X115961571Y-53208311D01*
X115886189Y-53026322D01*
X115868601Y-53000000D01*
X115886189Y-52973678D01*
X115961571Y-52791689D01*
X116000000Y-52598491D01*
X116000000Y-52401509D01*
X115961571Y-52208311D01*
X115886189Y-52026322D01*
X115868601Y-52000000D01*
X115886189Y-51973678D01*
X115961571Y-51791689D01*
X116000000Y-51598491D01*
X116000000Y-51401509D01*
X115961571Y-51208311D01*
X115886189Y-51026322D01*
X115868601Y-51000000D01*
X115886189Y-50973678D01*
X115961571Y-50791689D01*
X116000000Y-50598491D01*
X116000000Y-50401509D01*
X115961571Y-50208311D01*
X115886189Y-50026322D01*
X115868601Y-50000000D01*
X115886189Y-49973678D01*
X115961571Y-49791689D01*
X116000000Y-49598491D01*
X116000000Y-49401509D01*
X115961571Y-49208311D01*
X115886189Y-49026322D01*
X115868601Y-49000000D01*
X115886189Y-48973678D01*
X115961571Y-48791689D01*
X116000000Y-48598491D01*
X116000000Y-48401509D01*
X115961571Y-48208311D01*
X115886189Y-48026322D01*
X115868601Y-48000000D01*
X115886189Y-47973678D01*
X115961571Y-47791689D01*
X116000000Y-47598491D01*
X116000000Y-47401509D01*
X115961571Y-47208311D01*
X115886189Y-47026322D01*
X115776751Y-46862537D01*
X115637463Y-46723249D01*
X115473678Y-46613811D01*
X115291689Y-46538429D01*
X115098491Y-46500000D01*
X115291689Y-46461571D01*
X115473678Y-46386189D01*
X115637463Y-46276751D01*
X115776751Y-46137463D01*
X115886189Y-45973678D01*
X115961571Y-45791689D01*
X116000000Y-45598491D01*
X116000000Y-45401509D01*
X123500000Y-45401509D01*
X123500000Y-45598491D01*
X123538429Y-45791689D01*
X123613811Y-45973678D01*
X123723249Y-46137463D01*
X123862537Y-46276751D01*
X124026322Y-46386189D01*
X124208311Y-46461571D01*
X124401509Y-46500000D01*
X124598491Y-46500000D01*
X124791689Y-46461571D01*
X124973678Y-46386189D01*
X125000000Y-46368601D01*
X125026322Y-46386189D01*
X125208311Y-46461571D01*
X125401509Y-46500000D01*
X125598491Y-46500000D01*
X125791689Y-46461571D01*
X125973678Y-46386189D01*
X126000000Y-46368601D01*
X126026322Y-46386189D01*
X126208311Y-46461571D01*
X126401509Y-46500000D01*
X126598491Y-46500000D01*
X126791689Y-46461571D01*
X126973678Y-46386189D01*
X127000000Y-46368601D01*
X127026322Y-46386189D01*
X127208311Y-46461571D01*
X127401509Y-46500000D01*
X127598491Y-46500000D01*
X127791689Y-46461571D01*
X127973678Y-46386189D01*
X128137463Y-46276751D01*
X128276751Y-46137463D01*
X128386189Y-45973678D01*
X128461571Y-45791689D01*
X128500000Y-45598491D01*
X128500000Y-45401509D01*
X137000000Y-45401509D01*
X137000000Y-45598491D01*
X137038429Y-45791689D01*
X137113811Y-45973678D01*
X137223249Y-46137463D01*
X137362537Y-46276751D01*
X137526322Y-46386189D01*
X137708311Y-46461571D01*
X137901509Y-46500000D01*
X138098491Y-46500000D01*
X138291689Y-46461571D01*
X138473678Y-46386189D01*
X138500000Y-46368601D01*
X138526322Y-46386189D01*
X138708311Y-46461571D01*
X138901509Y-46500000D01*
X139098491Y-46500000D01*
X139291689Y-46461571D01*
X139473678Y-46386189D01*
X139500000Y-46368601D01*
X139526322Y-46386189D01*
X139708311Y-46461571D01*
X139901509Y-46500000D01*
X140098491Y-46500000D01*
X140291689Y-46461571D01*
X140473678Y-46386189D01*
X140500000Y-46368601D01*
X140526322Y-46386189D01*
X140708311Y-46461571D01*
X140901509Y-46500000D01*
X141098491Y-46500000D01*
X141291689Y-46461571D01*
X141473678Y-46386189D01*
X141637463Y-46276751D01*
X141776751Y-46137463D01*
X141886189Y-45973678D01*
X141961571Y-45791689D01*
X142000000Y-45598491D01*
X142000000Y-45401509D01*
X150500000Y-45401509D01*
X150500000Y-45598491D01*
X150538429Y-45791689D01*
X150613811Y-45973678D01*
X150723249Y-46137463D01*
X150862537Y-46276751D01*
X151026322Y-46386189D01*
X151208311Y-46461571D01*
X151401509Y-46500000D01*
X151598491Y-46500000D01*
X151791689Y-46461571D01*
X151973678Y-46386189D01*
X152000000Y-46368601D01*
X152026322Y-46386189D01*
X152208311Y-46461571D01*
X152401509Y-46500000D01*
X152598491Y-46500000D01*
X152791689Y-46461571D01*
X152973678Y-46386189D01*
X153000000Y-46368601D01*
X153026322Y-46386189D01*
X153208311Y-46461571D01*
X153401509Y-46500000D01*
X153598491Y-46500000D01*
X153791689Y-46461571D01*
X153973678Y-46386189D01*
X154000000Y-46368601D01*
X154026322Y-46386189D01*
X154208311Y-46461571D01*
X154401509Y-46500000D01*
X154598491Y-46500000D01*
X154791689Y-46461571D01*
X154973678Y-46386189D01*
X155137463Y-46276751D01*
X155276751Y-46137463D01*
X155386189Y-45973678D01*
X155461571Y-45791689D01*
X155500000Y-45598491D01*
X155500000Y-45401509D01*
X164000000Y-45401509D01*
X164000000Y-45598491D01*
X164038429Y-45791689D01*
X164113811Y-45973678D01*
X164223249Y-46137463D01*
X164362537Y-46276751D01*
X164526322Y-46386189D01*
X164708311Y-46461571D01*
X164901509Y-46500000D01*
X165098491Y-46500000D01*
X165291689Y-46461571D01*
X165473678Y-46386189D01*
X165500000Y-46368601D01*
X165526322Y-46386189D01*
X165708311Y-46461571D01*
X165901509Y-46500000D01*
X166098491Y-46500000D01*
X166291689Y-46461571D01*
X166473678Y-46386189D01*
X166500000Y-46368601D01*
X166526322Y-46386189D01*
X166708311Y-46461571D01*
X166901509Y-46500000D01*
X167098491Y-46500000D01*
X167291689Y-46461571D01*
X167473678Y-46386189D01*
X167637463Y-46276751D01*
X167776751Y-46137463D01*
X167886189Y-45973678D01*
X167961571Y-45791689D01*
X168000000Y-45598491D01*
X168000000Y-45401509D01*
X167961571Y-45208311D01*
X167886189Y-45026322D01*
X167776751Y-44862537D01*
X167637463Y-44723249D01*
X167473678Y-44613811D01*
X167291689Y-44538429D01*
X167098491Y-44500000D01*
X166901509Y-44500000D01*
X166708311Y-44538429D01*
X166526322Y-44613811D01*
X166500000Y-44631399D01*
X166473678Y-44613811D01*
X166291689Y-44538429D01*
X166098491Y-44500000D01*
X165901509Y-44500000D01*
X165708311Y-44538429D01*
X165526322Y-44613811D01*
X165500000Y-44631399D01*
X165473678Y-44613811D01*
X165291689Y-44538429D01*
X165098491Y-44500000D01*
X164901509Y-44500000D01*
X164708311Y-44538429D01*
X164526322Y-44613811D01*
X164362537Y-44723249D01*
X164223249Y-44862537D01*
X164113811Y-45026322D01*
X164038429Y-45208311D01*
X164000000Y-45401509D01*
X155500000Y-45401509D01*
X155461571Y-45208311D01*
X155386189Y-45026322D01*
X155276751Y-44862537D01*
X155137463Y-44723249D01*
X154973678Y-44613811D01*
X154791689Y-44538429D01*
X154598491Y-44500000D01*
X154401509Y-44500000D01*
X154208311Y-44538429D01*
X154026322Y-44613811D01*
X154000000Y-44631399D01*
X153973678Y-44613811D01*
X153791689Y-44538429D01*
X153598491Y-44500000D01*
X153401509Y-44500000D01*
X153208311Y-44538429D01*
X153026322Y-44613811D01*
X153000000Y-44631399D01*
X152973678Y-44613811D01*
X152791689Y-44538429D01*
X152598491Y-44500000D01*
X152401509Y-44500000D01*
X152208311Y-44538429D01*
X152026322Y-44613811D01*
X152000000Y-44631399D01*
X151973678Y-44613811D01*
X151791689Y-44538429D01*
X151598491Y-44500000D01*
X151401509Y-44500000D01*
X151208311Y-44538429D01*
X151026322Y-44613811D01*
X150862537Y-44723249D01*
X150723249Y-44862537D01*
X150613811Y-45026322D01*
X150538429Y-45208311D01*
X150500000Y-45401509D01*
X142000000Y-45401509D01*
X141961571Y-45208311D01*
X141886189Y-45026322D01*
X141776751Y-44862537D01*
X141637463Y-44723249D01*
X141473678Y-44613811D01*
X141291689Y-44538429D01*
X141098491Y-44500000D01*
X140901509Y-44500000D01*
X140708311Y-44538429D01*
X140526322Y-44613811D01*
X140500000Y-44631399D01*
X140473678Y-44613811D01*
X140291689Y-44538429D01*
X140098491Y-44500000D01*
X139901509Y-44500000D01*
X139708311Y-44538429D01*
X139526322Y-44613811D01*
X139500000Y-44631399D01*
X139473678Y-44613811D01*
X139291689Y-44538429D01*
X139098491Y-44500000D01*
X138901509Y-44500000D01*
X138708311Y-44538429D01*
X138526322Y-44613811D01*
X138500000Y-44631399D01*
X138473678Y-44613811D01*
X138291689Y-44538429D01*
X138098491Y-44500000D01*
X137901509Y-44500000D01*
X137708311Y-44538429D01*
X137526322Y-44613811D01*
X137362537Y-44723249D01*
X137223249Y-44862537D01*
X137113811Y-45026322D01*
X137038429Y-45208311D01*
X137000000Y-45401509D01*
X128500000Y-45401509D01*
X128461571Y-45208311D01*
X128386189Y-45026322D01*
X128276751Y-44862537D01*
X128137463Y-44723249D01*
X127973678Y-44613811D01*
X127791689Y-44538429D01*
X127598491Y-44500000D01*
X127401509Y-44500000D01*
X127208311Y-44538429D01*
X127026322Y-44613811D01*
X127000000Y-44631399D01*
X126973678Y-44613811D01*
X126791689Y-44538429D01*
X126598491Y-44500000D01*
X126401509Y-44500000D01*
X126208311Y-44538429D01*
X126026322Y-44613811D01*
X126000000Y-44631399D01*
X125973678Y-44613811D01*
X125791689Y-44538429D01*
X125598491Y-44500000D01*
X125401509Y-44500000D01*
X125208311Y-44538429D01*
X125026322Y-44613811D01*
X125000000Y-44631399D01*
X124973678Y-44613811D01*
X124791689Y-44538429D01*
X124598491Y-44500000D01*
X124401509Y-44500000D01*
X124208311Y-44538429D01*
X124026322Y-44613811D01*
X123862537Y-44723249D01*
X123723249Y-44862537D01*
X123613811Y-45026322D01*
X123538429Y-45208311D01*
X123500000Y-45401509D01*
X116000000Y-45401509D01*
X115961571Y-45208311D01*
X115886189Y-45026322D01*
X115868601Y-45000000D01*
X115886189Y-44973678D01*
X115961571Y-44791689D01*
X116000000Y-44598491D01*
X116000000Y-44401509D01*
X115961571Y-44208311D01*
X115886189Y-44026322D01*
X115868601Y-44000000D01*
X115886189Y-43973678D01*
X115961571Y-43791689D01*
X116000000Y-43598491D01*
X116000000Y-43401509D01*
X115961571Y-43208311D01*
X115886189Y-43026322D01*
X115868601Y-43000000D01*
X115886189Y-42973678D01*
X115945702Y-42830000D01*
X116297097Y-42830000D01*
X116308682Y-42947621D01*
X116342990Y-43060721D01*
X116398704Y-43164955D01*
X116473683Y-43256317D01*
X116565045Y-43331296D01*
X116669279Y-43387010D01*
X116782379Y-43421318D01*
X116900000Y-43432903D01*
X117575000Y-43430000D01*
X117725000Y-43280000D01*
X117725000Y-42005000D01*
X116450000Y-42005000D01*
X116300000Y-42155000D01*
X116297097Y-42830000D01*
X115945702Y-42830000D01*
X115961571Y-42791689D01*
X116000000Y-42598491D01*
X116000000Y-42401509D01*
X115961571Y-42208311D01*
X115886189Y-42026322D01*
X115776751Y-41862537D01*
X115637463Y-41723249D01*
X115473678Y-41613811D01*
X115291689Y-41538429D01*
X115250000Y-41530137D01*
X115250000Y-41401509D01*
X115211571Y-41208311D01*
X115136189Y-41026322D01*
X115085192Y-40950000D01*
X116327604Y-40950000D01*
X116308682Y-41012379D01*
X116297097Y-41130000D01*
X116300000Y-41805000D01*
X116450000Y-41955000D01*
X117725000Y-41955000D01*
X117725000Y-41935000D01*
X117775000Y-41935000D01*
X117775000Y-41955000D01*
X117795000Y-41955000D01*
X117795000Y-42005000D01*
X117775000Y-42005000D01*
X117775000Y-43280000D01*
X117925000Y-43430000D01*
X118600000Y-43432903D01*
X118717621Y-43421318D01*
X118830721Y-43387010D01*
X118934955Y-43331296D01*
X119020000Y-43261501D01*
X119105045Y-43331296D01*
X119209279Y-43387010D01*
X119322379Y-43421318D01*
X119440000Y-43432903D01*
X121140000Y-43432903D01*
X121257621Y-43421318D01*
X121370721Y-43387010D01*
X121474955Y-43331296D01*
X121560000Y-43261501D01*
X121645045Y-43331296D01*
X121749279Y-43387010D01*
X121862379Y-43421318D01*
X121980000Y-43432903D01*
X123680000Y-43432903D01*
X123797621Y-43421318D01*
X123910721Y-43387010D01*
X124014955Y-43331296D01*
X124100000Y-43261501D01*
X124185045Y-43331296D01*
X124289279Y-43387010D01*
X124402379Y-43421318D01*
X124520000Y-43432903D01*
X126220000Y-43432903D01*
X126337621Y-43421318D01*
X126450721Y-43387010D01*
X126554955Y-43331296D01*
X126640000Y-43261501D01*
X126725045Y-43331296D01*
X126829279Y-43387010D01*
X126942379Y-43421318D01*
X127060000Y-43432903D01*
X128760000Y-43432903D01*
X128877621Y-43421318D01*
X128990721Y-43387010D01*
X129094955Y-43331296D01*
X129180000Y-43261501D01*
X129265045Y-43331296D01*
X129369279Y-43387010D01*
X129482379Y-43421318D01*
X129600000Y-43432903D01*
X131300000Y-43432903D01*
X131417621Y-43421318D01*
X131530721Y-43387010D01*
X131634955Y-43331296D01*
X131720000Y-43261501D01*
X131805045Y-43331296D01*
X131909279Y-43387010D01*
X132022379Y-43421318D01*
X132140000Y-43432903D01*
X133840000Y-43432903D01*
X133957621Y-43421318D01*
X134070721Y-43387010D01*
X134174955Y-43331296D01*
X134260000Y-43261501D01*
X134345045Y-43331296D01*
X134449279Y-43387010D01*
X134562379Y-43421318D01*
X134680000Y-43432903D01*
X136380000Y-43432903D01*
X136497621Y-43421318D01*
X136610721Y-43387010D01*
X136714955Y-43331296D01*
X136800000Y-43261501D01*
X136885045Y-43331296D01*
X136989279Y-43387010D01*
X137102379Y-43421318D01*
X137220000Y-43432903D01*
X138920000Y-43432903D01*
X139037621Y-43421318D01*
X139150721Y-43387010D01*
X139254955Y-43331296D01*
X139340000Y-43261501D01*
X139425045Y-43331296D01*
X139529279Y-43387010D01*
X139642379Y-43421318D01*
X139760000Y-43432903D01*
X141460000Y-43432903D01*
X141577621Y-43421318D01*
X141690721Y-43387010D01*
X141794955Y-43331296D01*
X141880000Y-43261501D01*
X141965045Y-43331296D01*
X142069279Y-43387010D01*
X142182379Y-43421318D01*
X142300000Y-43432903D01*
X144000000Y-43432903D01*
X144117621Y-43421318D01*
X144230721Y-43387010D01*
X144334955Y-43331296D01*
X144420000Y-43261501D01*
X144505045Y-43331296D01*
X144609279Y-43387010D01*
X144722379Y-43421318D01*
X144840000Y-43432903D01*
X146540000Y-43432903D01*
X146657621Y-43421318D01*
X146770721Y-43387010D01*
X146874955Y-43331296D01*
X146960000Y-43261501D01*
X147045045Y-43331296D01*
X147149279Y-43387010D01*
X147262379Y-43421318D01*
X147380000Y-43432903D01*
X149080000Y-43432903D01*
X149197621Y-43421318D01*
X149310721Y-43387010D01*
X149414955Y-43331296D01*
X149500000Y-43261501D01*
X149585045Y-43331296D01*
X149689279Y-43387010D01*
X149802379Y-43421318D01*
X149920000Y-43432903D01*
X151620000Y-43432903D01*
X151737621Y-43421318D01*
X151850721Y-43387010D01*
X151954955Y-43331296D01*
X152040000Y-43261501D01*
X152125045Y-43331296D01*
X152229279Y-43387010D01*
X152342379Y-43421318D01*
X152460000Y-43432903D01*
X154160000Y-43432903D01*
X154277621Y-43421318D01*
X154390721Y-43387010D01*
X154494955Y-43331296D01*
X154580000Y-43261501D01*
X154665045Y-43331296D01*
X154769279Y-43387010D01*
X154882379Y-43421318D01*
X155000000Y-43432903D01*
X156700000Y-43432903D01*
X156817621Y-43421318D01*
X156930721Y-43387010D01*
X157034955Y-43331296D01*
X157120000Y-43261501D01*
X157205045Y-43331296D01*
X157309279Y-43387010D01*
X157422379Y-43421318D01*
X157540000Y-43432903D01*
X159240000Y-43432903D01*
X159357621Y-43421318D01*
X159470721Y-43387010D01*
X159574955Y-43331296D01*
X159660000Y-43261501D01*
X159745045Y-43331296D01*
X159849279Y-43387010D01*
X159962379Y-43421318D01*
X160080000Y-43432903D01*
X161780000Y-43432903D01*
X161897621Y-43421318D01*
X162010721Y-43387010D01*
X162114955Y-43331296D01*
X162200000Y-43261501D01*
X162285045Y-43331296D01*
X162389279Y-43387010D01*
X162502379Y-43421318D01*
X162620000Y-43432903D01*
X164320000Y-43432903D01*
X164437621Y-43421318D01*
X164550721Y-43387010D01*
X164654955Y-43331296D01*
X164740000Y-43261501D01*
X164825045Y-43331296D01*
X164929279Y-43387010D01*
X165042379Y-43421318D01*
X165160000Y-43432903D01*
X166860000Y-43432903D01*
X166977621Y-43421318D01*
X167090721Y-43387010D01*
X167194955Y-43331296D01*
X167286317Y-43256317D01*
X167361296Y-43164955D01*
X167417010Y-43060721D01*
X167451318Y-42947621D01*
X167462903Y-42830000D01*
X167462903Y-41130000D01*
X167451318Y-41012379D01*
X167432396Y-40950000D01*
X168800001Y-40950000D01*
X168800001Y-54147332D01*
X168776751Y-54112537D01*
X168637463Y-53973249D01*
X168473678Y-53863811D01*
X168291689Y-53788429D01*
X168098491Y-53750000D01*
X167901509Y-53750000D01*
X167708311Y-53788429D01*
X167526322Y-53863811D01*
X167500000Y-53881399D01*
X167473678Y-53863811D01*
X167291689Y-53788429D01*
X167098491Y-53750000D01*
X166901509Y-53750000D01*
X166708311Y-53788429D01*
X166526322Y-53863811D01*
X166500000Y-53881399D01*
X166473678Y-53863811D01*
X166291689Y-53788429D01*
X166098491Y-53750000D01*
X165901509Y-53750000D01*
X165708311Y-53788429D01*
X165526322Y-53863811D01*
X165500000Y-53881399D01*
X165473678Y-53863811D01*
X165291689Y-53788429D01*
X165098491Y-53750000D01*
X164901509Y-53750000D01*
X164708311Y-53788429D01*
X164526322Y-53863811D01*
X164362537Y-53973249D01*
X164223249Y-54112537D01*
X164113811Y-54276322D01*
X164038429Y-54458311D01*
X164000000Y-54651509D01*
X164000000Y-54848491D01*
X164038429Y-55041689D01*
X164113811Y-55223678D01*
X164223249Y-55387463D01*
X164362537Y-55526751D01*
X164526322Y-55636189D01*
X164708311Y-55711571D01*
X164901509Y-55750000D01*
X165098491Y-55750000D01*
X165291689Y-55711571D01*
X165473678Y-55636189D01*
X165500000Y-55618601D01*
X165526322Y-55636189D01*
X165708311Y-55711571D01*
X165901509Y-55750000D01*
X166098491Y-55750000D01*
X166291689Y-55711571D01*
X166473678Y-55636189D01*
X166500000Y-55618601D01*
X166526322Y-55636189D01*
X166708311Y-55711571D01*
X166901509Y-55750000D01*
X167098491Y-55750000D01*
X167291689Y-55711571D01*
X167473678Y-55636189D01*
X167500000Y-55618601D01*
X167517588Y-55630353D01*
X167313167Y-55715027D01*
X167075679Y-55873711D01*
X166873711Y-56075679D01*
X166715027Y-56313167D01*
X166605723Y-56577051D01*
X166550000Y-56857187D01*
X166550000Y-57142813D01*
X166605723Y-57422949D01*
X166715027Y-57686833D01*
X166873711Y-57924321D01*
X167046665Y-58097275D01*
X167032379Y-58098682D01*
X166919279Y-58132990D01*
X166815045Y-58188704D01*
X166723683Y-58263683D01*
X166648704Y-58355045D01*
X166592990Y-58459279D01*
X166558682Y-58572379D01*
X166547097Y-58690000D01*
X166547097Y-60390000D01*
X166558682Y-60507621D01*
X166592990Y-60620721D01*
X166648704Y-60724955D01*
X166718499Y-60810000D01*
X166648704Y-60895045D01*
X166592990Y-60999279D01*
X166558682Y-61112379D01*
X166547097Y-61230000D01*
X166547097Y-62930000D01*
X166558682Y-63047621D01*
X166592990Y-63160721D01*
X166648704Y-63264955D01*
X166718499Y-63350000D01*
X166648704Y-63435045D01*
X166592990Y-63539279D01*
X166558682Y-63652379D01*
X166547097Y-63770000D01*
X166550000Y-64445000D01*
X166700000Y-64595000D01*
X167975000Y-64595000D01*
X167975000Y-64575000D01*
X168025000Y-64575000D01*
X168025000Y-64595000D01*
X168045000Y-64595000D01*
X168045000Y-64645000D01*
X168025000Y-64645000D01*
X168025000Y-65920000D01*
X168175000Y-66070000D01*
X168800000Y-66072688D01*
X168800000Y-66797312D01*
X168175000Y-66800000D01*
X168025000Y-66950000D01*
X168025000Y-68225000D01*
X168045000Y-68225000D01*
X168045000Y-68275000D01*
X168025000Y-68275000D01*
X168025000Y-68295000D01*
X167975000Y-68295000D01*
X167975000Y-68275000D01*
X166700000Y-68275000D01*
X166550000Y-68425000D01*
X166547097Y-69100000D01*
X166558682Y-69217621D01*
X166592990Y-69330721D01*
X166648704Y-69434955D01*
X166723683Y-69526317D01*
X166815045Y-69601296D01*
X166919279Y-69657010D01*
X167032379Y-69691318D01*
X167046665Y-69692725D01*
X166873711Y-69865679D01*
X166715027Y-70103167D01*
X166605723Y-70367051D01*
X166550000Y-70647187D01*
X166550000Y-70932813D01*
X166605723Y-71212949D01*
X166715027Y-71476833D01*
X166873711Y-71714321D01*
X167075679Y-71916289D01*
X167313167Y-72074973D01*
X167577051Y-72184277D01*
X167857187Y-72240000D01*
X168142813Y-72240000D01*
X168422949Y-72184277D01*
X168686833Y-72074973D01*
X168800000Y-71999357D01*
X168800000Y-80550000D01*
X134911715Y-80550000D01*
X134923053Y-80528788D01*
X134946072Y-80452903D01*
X134964509Y-80392125D01*
X134975000Y-80285607D01*
X134975000Y-80285597D01*
X134978506Y-80250000D01*
X134975000Y-80214403D01*
X134975000Y-78901509D01*
X151250000Y-78901509D01*
X151250000Y-79098491D01*
X151288429Y-79291689D01*
X151363811Y-79473678D01*
X151473249Y-79637463D01*
X151612537Y-79776751D01*
X151776322Y-79886189D01*
X151958311Y-79961571D01*
X152151509Y-80000000D01*
X152348491Y-80000000D01*
X152541689Y-79961571D01*
X152723678Y-79886189D01*
X152887463Y-79776751D01*
X153026751Y-79637463D01*
X153136189Y-79473678D01*
X153211571Y-79291689D01*
X153250000Y-79098491D01*
X153250000Y-78901509D01*
X155000000Y-78901509D01*
X155000000Y-79098491D01*
X155038429Y-79291689D01*
X155113811Y-79473678D01*
X155223249Y-79637463D01*
X155362537Y-79776751D01*
X155526322Y-79886189D01*
X155708311Y-79961571D01*
X155901509Y-80000000D01*
X156098491Y-80000000D01*
X156291689Y-79961571D01*
X156473678Y-79886189D01*
X156637463Y-79776751D01*
X156776751Y-79637463D01*
X156886189Y-79473678D01*
X156961571Y-79291689D01*
X157000000Y-79098491D01*
X157000000Y-78901509D01*
X156961571Y-78708311D01*
X156886189Y-78526322D01*
X156776751Y-78362537D01*
X156637463Y-78223249D01*
X156473678Y-78113811D01*
X156291689Y-78038429D01*
X156098491Y-78000000D01*
X155901509Y-78000000D01*
X155708311Y-78038429D01*
X155526322Y-78113811D01*
X155362537Y-78223249D01*
X155223249Y-78362537D01*
X155113811Y-78526322D01*
X155038429Y-78708311D01*
X155000000Y-78901509D01*
X153250000Y-78901509D01*
X153211571Y-78708311D01*
X153136189Y-78526322D01*
X153026751Y-78362537D01*
X152887463Y-78223249D01*
X152723678Y-78113811D01*
X152541689Y-78038429D01*
X152348491Y-78000000D01*
X152151509Y-78000000D01*
X151958311Y-78038429D01*
X151776322Y-78113811D01*
X151612537Y-78223249D01*
X151473249Y-78362537D01*
X151363811Y-78526322D01*
X151288429Y-78708311D01*
X151250000Y-78901509D01*
X134975000Y-78901509D01*
X134975000Y-77401509D01*
X137750000Y-77401509D01*
X137750000Y-77598491D01*
X137788429Y-77791689D01*
X137863811Y-77973678D01*
X137973249Y-78137463D01*
X138112537Y-78276751D01*
X138276322Y-78386189D01*
X138458311Y-78461571D01*
X138651509Y-78500000D01*
X138848491Y-78500000D01*
X139041689Y-78461571D01*
X139223678Y-78386189D01*
X139387463Y-78276751D01*
X139526751Y-78137463D01*
X139636189Y-77973678D01*
X139711571Y-77791689D01*
X139750000Y-77598491D01*
X139750000Y-77401509D01*
X139711571Y-77208311D01*
X139636189Y-77026322D01*
X139526751Y-76862537D01*
X139387463Y-76723249D01*
X139223678Y-76613811D01*
X139041689Y-76538429D01*
X138848491Y-76500000D01*
X138651509Y-76500000D01*
X138458311Y-76538429D01*
X138276322Y-76613811D01*
X138112537Y-76723249D01*
X137973249Y-76862537D01*
X137863811Y-77026322D01*
X137788429Y-77208311D01*
X137750000Y-77401509D01*
X134975000Y-77401509D01*
X134975000Y-76452903D01*
X136380000Y-76452903D01*
X136497621Y-76441318D01*
X136610721Y-76407010D01*
X136714955Y-76351296D01*
X136800000Y-76281501D01*
X136885045Y-76351296D01*
X136989279Y-76407010D01*
X137102379Y-76441318D01*
X137220000Y-76452903D01*
X138920000Y-76452903D01*
X139037621Y-76441318D01*
X139150721Y-76407010D01*
X139254955Y-76351296D01*
X139340000Y-76281501D01*
X139425045Y-76351296D01*
X139529279Y-76407010D01*
X139642379Y-76441318D01*
X139760000Y-76452903D01*
X141460000Y-76452903D01*
X141577621Y-76441318D01*
X141690721Y-76407010D01*
X141794955Y-76351296D01*
X141880000Y-76281501D01*
X141965045Y-76351296D01*
X142069279Y-76407010D01*
X142182379Y-76441318D01*
X142300000Y-76452903D01*
X144000000Y-76452903D01*
X144117621Y-76441318D01*
X144230721Y-76407010D01*
X144334955Y-76351296D01*
X144420000Y-76281501D01*
X144505045Y-76351296D01*
X144609279Y-76407010D01*
X144722379Y-76441318D01*
X144840000Y-76452903D01*
X146540000Y-76452903D01*
X146657621Y-76441318D01*
X146770721Y-76407010D01*
X146874955Y-76351296D01*
X146960000Y-76281501D01*
X147045045Y-76351296D01*
X147149279Y-76407010D01*
X147262379Y-76441318D01*
X147380000Y-76452903D01*
X149080000Y-76452903D01*
X149197621Y-76441318D01*
X149310721Y-76407010D01*
X149414955Y-76351296D01*
X149500000Y-76281501D01*
X149585045Y-76351296D01*
X149689279Y-76407010D01*
X149802379Y-76441318D01*
X149920000Y-76452903D01*
X151620000Y-76452903D01*
X151737621Y-76441318D01*
X151850721Y-76407010D01*
X151954955Y-76351296D01*
X152040000Y-76281501D01*
X152125045Y-76351296D01*
X152229279Y-76407010D01*
X152342379Y-76441318D01*
X152460000Y-76452903D01*
X154160000Y-76452903D01*
X154277621Y-76441318D01*
X154390721Y-76407010D01*
X154494955Y-76351296D01*
X154580000Y-76281501D01*
X154665045Y-76351296D01*
X154769279Y-76407010D01*
X154882379Y-76441318D01*
X155000000Y-76452903D01*
X156700000Y-76452903D01*
X156817621Y-76441318D01*
X156930721Y-76407010D01*
X157034955Y-76351296D01*
X157120000Y-76281501D01*
X157205045Y-76351296D01*
X157309279Y-76407010D01*
X157422379Y-76441318D01*
X157540000Y-76452903D01*
X159240000Y-76452903D01*
X159357621Y-76441318D01*
X159470721Y-76407010D01*
X159574955Y-76351296D01*
X159660000Y-76281501D01*
X159745045Y-76351296D01*
X159849279Y-76407010D01*
X159962379Y-76441318D01*
X160080000Y-76452903D01*
X161780000Y-76452903D01*
X161897621Y-76441318D01*
X162010721Y-76407010D01*
X162114955Y-76351296D01*
X162200000Y-76281501D01*
X162285045Y-76351296D01*
X162389279Y-76407010D01*
X162502379Y-76441318D01*
X162620000Y-76452903D01*
X164320000Y-76452903D01*
X164437621Y-76441318D01*
X164550721Y-76407010D01*
X164654955Y-76351296D01*
X164740000Y-76281501D01*
X164825045Y-76351296D01*
X164929279Y-76407010D01*
X165042379Y-76441318D01*
X165160000Y-76452903D01*
X166860000Y-76452903D01*
X166977621Y-76441318D01*
X167090721Y-76407010D01*
X167194955Y-76351296D01*
X167286317Y-76276317D01*
X167361296Y-76184955D01*
X167417010Y-76080721D01*
X167451318Y-75967621D01*
X167462903Y-75850000D01*
X167462903Y-74150000D01*
X167451318Y-74032379D01*
X167417010Y-73919279D01*
X167361296Y-73815045D01*
X167286317Y-73723683D01*
X167194955Y-73648704D01*
X167090721Y-73592990D01*
X166977621Y-73558682D01*
X166860000Y-73547097D01*
X165160000Y-73547097D01*
X165042379Y-73558682D01*
X164929279Y-73592990D01*
X164825045Y-73648704D01*
X164740000Y-73718499D01*
X164654955Y-73648704D01*
X164550721Y-73592990D01*
X164437621Y-73558682D01*
X164320000Y-73547097D01*
X162620000Y-73547097D01*
X162502379Y-73558682D01*
X162389279Y-73592990D01*
X162285045Y-73648704D01*
X162200000Y-73718499D01*
X162114955Y-73648704D01*
X162010721Y-73592990D01*
X161897621Y-73558682D01*
X161780000Y-73547097D01*
X160080000Y-73547097D01*
X159962379Y-73558682D01*
X159849279Y-73592990D01*
X159745045Y-73648704D01*
X159660000Y-73718499D01*
X159574955Y-73648704D01*
X159470721Y-73592990D01*
X159357621Y-73558682D01*
X159240000Y-73547097D01*
X158459331Y-73547097D01*
X158461571Y-73541689D01*
X158500000Y-73348491D01*
X158500000Y-73151509D01*
X158461571Y-72958311D01*
X158386189Y-72776322D01*
X158276751Y-72612537D01*
X158137463Y-72473249D01*
X157973678Y-72363811D01*
X157791689Y-72288429D01*
X157598491Y-72250000D01*
X157401509Y-72250000D01*
X157208311Y-72288429D01*
X157026322Y-72363811D01*
X156862537Y-72473249D01*
X156723249Y-72612537D01*
X156613811Y-72776322D01*
X156538429Y-72958311D01*
X156500000Y-73151509D01*
X156500000Y-73348491D01*
X156538429Y-73541689D01*
X156540669Y-73547097D01*
X155000000Y-73547097D01*
X154882379Y-73558682D01*
X154769279Y-73592990D01*
X154665045Y-73648704D01*
X154580000Y-73718499D01*
X154494955Y-73648704D01*
X154390721Y-73592990D01*
X154277621Y-73558682D01*
X154160000Y-73547097D01*
X152460000Y-73547097D01*
X152342379Y-73558682D01*
X152229279Y-73592990D01*
X152125045Y-73648704D01*
X152040000Y-73718499D01*
X151954955Y-73648704D01*
X151850721Y-73592990D01*
X151737621Y-73558682D01*
X151620000Y-73547097D01*
X149920000Y-73547097D01*
X149802379Y-73558682D01*
X149689279Y-73592990D01*
X149585045Y-73648704D01*
X149500000Y-73718499D01*
X149414955Y-73648704D01*
X149310721Y-73592990D01*
X149197621Y-73558682D01*
X149080000Y-73547097D01*
X147380000Y-73547097D01*
X147262379Y-73558682D01*
X147149279Y-73592990D01*
X147045045Y-73648704D01*
X146960000Y-73718499D01*
X146874955Y-73648704D01*
X146770721Y-73592990D01*
X146657621Y-73558682D01*
X146540000Y-73547097D01*
X144840000Y-73547097D01*
X144722379Y-73558682D01*
X144609279Y-73592990D01*
X144505045Y-73648704D01*
X144420000Y-73718499D01*
X144334955Y-73648704D01*
X144230721Y-73592990D01*
X144117621Y-73558682D01*
X144000000Y-73547097D01*
X142300000Y-73547097D01*
X142182379Y-73558682D01*
X142069279Y-73592990D01*
X141965045Y-73648704D01*
X141880000Y-73718499D01*
X141794955Y-73648704D01*
X141690721Y-73592990D01*
X141577621Y-73558682D01*
X141460000Y-73547097D01*
X139760000Y-73547097D01*
X139642379Y-73558682D01*
X139529279Y-73592990D01*
X139425045Y-73648704D01*
X139340000Y-73718499D01*
X139254955Y-73648704D01*
X139150721Y-73592990D01*
X139037621Y-73558682D01*
X138920000Y-73547097D01*
X137220000Y-73547097D01*
X137102379Y-73558682D01*
X136989279Y-73592990D01*
X136885045Y-73648704D01*
X136800000Y-73718499D01*
X136714955Y-73648704D01*
X136610721Y-73592990D01*
X136497621Y-73558682D01*
X136380000Y-73547097D01*
X134816202Y-73547097D01*
X134787830Y-73512525D01*
X134787823Y-73512518D01*
X134765131Y-73484868D01*
X134737482Y-73462177D01*
X134287832Y-73012528D01*
X134265132Y-72984868D01*
X134154737Y-72894269D01*
X134028788Y-72826947D01*
X133892125Y-72785491D01*
X133785607Y-72775000D01*
X133785597Y-72775000D01*
X133750000Y-72771494D01*
X133714403Y-72775000D01*
X132550305Y-72775000D01*
X131919225Y-72143921D01*
X131961571Y-72041689D01*
X132000000Y-71848491D01*
X132000000Y-71651509D01*
X131961571Y-71458311D01*
X131886189Y-71276322D01*
X131776751Y-71112537D01*
X131637463Y-70973249D01*
X131473678Y-70863811D01*
X131291689Y-70788429D01*
X131116242Y-70753531D01*
X131136189Y-70723678D01*
X131211571Y-70541689D01*
X131224863Y-70474863D01*
X131291689Y-70461571D01*
X131473678Y-70386189D01*
X131637463Y-70276751D01*
X131776751Y-70137463D01*
X131886189Y-69973678D01*
X131961571Y-69791689D01*
X132000000Y-69598491D01*
X132000000Y-69401509D01*
X131961571Y-69208311D01*
X131886189Y-69026322D01*
X131802792Y-68901509D01*
X143599980Y-68901509D01*
X143599980Y-69098491D01*
X143638409Y-69291689D01*
X143713791Y-69473678D01*
X143823229Y-69637463D01*
X143962517Y-69776751D01*
X144126302Y-69886189D01*
X144308291Y-69961571D01*
X144501489Y-70000000D01*
X144698471Y-70000000D01*
X144891669Y-69961571D01*
X145073658Y-69886189D01*
X145237443Y-69776751D01*
X145376731Y-69637463D01*
X145486169Y-69473678D01*
X145508470Y-69419838D01*
X148963342Y-69419838D01*
X148963342Y-69616820D01*
X149001771Y-69810018D01*
X149077153Y-69992007D01*
X149186591Y-70155792D01*
X149325879Y-70295080D01*
X149489664Y-70404518D01*
X149671653Y-70479900D01*
X149864851Y-70518329D01*
X150061833Y-70518329D01*
X150255031Y-70479900D01*
X150437020Y-70404518D01*
X150600805Y-70295080D01*
X150740093Y-70155792D01*
X150849531Y-69992007D01*
X150924913Y-69810018D01*
X150963342Y-69616820D01*
X150963342Y-69419838D01*
X150924913Y-69226640D01*
X150849531Y-69044651D01*
X150740093Y-68880866D01*
X150600805Y-68741578D01*
X150437020Y-68632140D01*
X150255031Y-68556758D01*
X150061833Y-68518329D01*
X149864851Y-68518329D01*
X149671653Y-68556758D01*
X149489664Y-68632140D01*
X149325879Y-68741578D01*
X149186591Y-68880866D01*
X149077153Y-69044651D01*
X149001771Y-69226640D01*
X148963342Y-69419838D01*
X145508470Y-69419838D01*
X145561551Y-69291689D01*
X145599980Y-69098491D01*
X145599980Y-68901509D01*
X145561551Y-68708311D01*
X145486169Y-68526322D01*
X145376731Y-68362537D01*
X145237443Y-68223249D01*
X145073658Y-68113811D01*
X144891669Y-68038429D01*
X144698471Y-68000000D01*
X144501489Y-68000000D01*
X144308291Y-68038429D01*
X144126302Y-68113811D01*
X143962517Y-68223249D01*
X143823229Y-68362537D01*
X143713791Y-68526322D01*
X143638409Y-68708311D01*
X143599980Y-68901509D01*
X131802792Y-68901509D01*
X131776751Y-68862537D01*
X131637463Y-68723249D01*
X131473678Y-68613811D01*
X131291689Y-68538429D01*
X131098491Y-68500000D01*
X130901509Y-68500000D01*
X130708311Y-68538429D01*
X130526322Y-68613811D01*
X130362537Y-68723249D01*
X130223249Y-68862537D01*
X130113811Y-69026322D01*
X130038429Y-69208311D01*
X130025137Y-69275137D01*
X129958311Y-69288429D01*
X129776322Y-69363811D01*
X129612537Y-69473249D01*
X129473249Y-69612537D01*
X129363811Y-69776322D01*
X129288429Y-69958311D01*
X129250000Y-70151509D01*
X129250000Y-70348491D01*
X129288429Y-70541689D01*
X129363811Y-70723678D01*
X129473249Y-70887463D01*
X129525001Y-70939215D01*
X129525000Y-72479401D01*
X129521494Y-72514998D01*
X129525000Y-72550595D01*
X129525000Y-72550604D01*
X129535491Y-72657122D01*
X129563665Y-72750000D01*
X129576947Y-72793785D01*
X129644269Y-72919734D01*
X129688540Y-72973678D01*
X129734868Y-73030129D01*
X129762524Y-73052826D01*
X130256795Y-73547097D01*
X129600000Y-73547097D01*
X129482379Y-73558682D01*
X129369279Y-73592990D01*
X129265045Y-73648704D01*
X129180000Y-73718499D01*
X129094955Y-73648704D01*
X128990721Y-73592990D01*
X128877621Y-73558682D01*
X128760000Y-73547097D01*
X127060000Y-73547097D01*
X126942379Y-73558682D01*
X126829279Y-73592990D01*
X126725045Y-73648704D01*
X126640000Y-73718499D01*
X126554955Y-73648704D01*
X126450721Y-73592990D01*
X126337621Y-73558682D01*
X126220000Y-73547097D01*
X124520000Y-73547097D01*
X124402379Y-73558682D01*
X124289279Y-73592990D01*
X124185045Y-73648704D01*
X124100000Y-73718499D01*
X124014955Y-73648704D01*
X123910721Y-73592990D01*
X123797621Y-73558682D01*
X123680000Y-73547097D01*
X121980000Y-73547097D01*
X121862379Y-73558682D01*
X121749279Y-73592990D01*
X121645045Y-73648704D01*
X121560000Y-73718499D01*
X121474955Y-73648704D01*
X121370721Y-73592990D01*
X121257621Y-73558682D01*
X121140000Y-73547097D01*
X119440000Y-73547097D01*
X119322379Y-73558682D01*
X119209279Y-73592990D01*
X119105045Y-73648704D01*
X119013683Y-73723683D01*
X118938704Y-73815045D01*
X118882990Y-73919279D01*
X118848682Y-74032379D01*
X118838605Y-74134693D01*
X118691709Y-74093647D01*
X117785355Y-75000000D01*
X118691709Y-75906353D01*
X118838605Y-75865307D01*
X118848682Y-75967621D01*
X118882990Y-76080721D01*
X118938704Y-76184955D01*
X119013683Y-76276317D01*
X119105045Y-76351296D01*
X119209279Y-76407010D01*
X119322379Y-76441318D01*
X119440000Y-76452903D01*
X121140000Y-76452903D01*
X121257621Y-76441318D01*
X121370721Y-76407010D01*
X121474955Y-76351296D01*
X121560000Y-76281501D01*
X121645045Y-76351296D01*
X121749279Y-76407010D01*
X121862379Y-76441318D01*
X121980000Y-76452903D01*
X123680000Y-76452903D01*
X123797621Y-76441318D01*
X123910721Y-76407010D01*
X124014955Y-76351296D01*
X124100000Y-76281501D01*
X124185045Y-76351296D01*
X124289279Y-76407010D01*
X124402379Y-76441318D01*
X124520000Y-76452903D01*
X126220000Y-76452903D01*
X126337621Y-76441318D01*
X126450721Y-76407010D01*
X126554955Y-76351296D01*
X126640000Y-76281501D01*
X126725045Y-76351296D01*
X126829279Y-76407010D01*
X126942379Y-76441318D01*
X127060000Y-76452903D01*
X128760000Y-76452903D01*
X128877621Y-76441318D01*
X128990721Y-76407010D01*
X129094955Y-76351296D01*
X129180000Y-76281501D01*
X129265045Y-76351296D01*
X129369279Y-76407010D01*
X129482379Y-76441318D01*
X129600000Y-76452903D01*
X131089999Y-76452903D01*
X131090000Y-79574990D01*
X114071720Y-79574990D01*
X114070000Y-79175000D01*
X113920000Y-79025000D01*
X112645000Y-79025000D01*
X112645000Y-79045000D01*
X112595000Y-79045000D01*
X112595000Y-79025000D01*
X112575000Y-79025000D01*
X112575000Y-78975000D01*
X112595000Y-78975000D01*
X112595000Y-77700000D01*
X112645000Y-77700000D01*
X112645000Y-78975000D01*
X113920000Y-78975000D01*
X114070000Y-78825000D01*
X114071466Y-78484079D01*
X114151509Y-78500000D01*
X114348491Y-78500000D01*
X114541689Y-78461571D01*
X114686692Y-78401509D01*
X123500000Y-78401509D01*
X123500000Y-78598491D01*
X123538429Y-78791689D01*
X123613811Y-78973678D01*
X123723249Y-79137463D01*
X123862537Y-79276751D01*
X124026322Y-79386189D01*
X124208311Y-79461571D01*
X124401509Y-79500000D01*
X124598491Y-79500000D01*
X124791689Y-79461571D01*
X124973678Y-79386189D01*
X125137463Y-79276751D01*
X125276751Y-79137463D01*
X125386189Y-78973678D01*
X125461571Y-78791689D01*
X125500000Y-78598491D01*
X125500000Y-78500000D01*
X125598491Y-78500000D01*
X125791689Y-78461571D01*
X125973678Y-78386189D01*
X126137463Y-78276751D01*
X126276751Y-78137463D01*
X126386189Y-77973678D01*
X126461571Y-77791689D01*
X126500000Y-77598491D01*
X126500000Y-77401509D01*
X126461571Y-77208311D01*
X126386189Y-77026322D01*
X126276751Y-76862537D01*
X126137463Y-76723249D01*
X125973678Y-76613811D01*
X125791689Y-76538429D01*
X125598491Y-76500000D01*
X125401509Y-76500000D01*
X125208311Y-76538429D01*
X125026322Y-76613811D01*
X124862537Y-76723249D01*
X124723249Y-76862537D01*
X124613811Y-77026322D01*
X124538429Y-77208311D01*
X124500000Y-77401509D01*
X124500000Y-77500000D01*
X124401509Y-77500000D01*
X124208311Y-77538429D01*
X124026322Y-77613811D01*
X123862537Y-77723249D01*
X123723249Y-77862537D01*
X123613811Y-78026322D01*
X123538429Y-78208311D01*
X123500000Y-78401509D01*
X114686692Y-78401509D01*
X114723678Y-78386189D01*
X114887463Y-78276751D01*
X115026751Y-78137463D01*
X115136189Y-77973678D01*
X115211571Y-77791689D01*
X115250000Y-77598491D01*
X115250000Y-77401509D01*
X115211571Y-77208311D01*
X115136189Y-77026322D01*
X115026751Y-76862537D01*
X114887463Y-76723249D01*
X114723678Y-76613811D01*
X114541689Y-76538429D01*
X114348491Y-76500000D01*
X114151509Y-76500000D01*
X113958311Y-76538429D01*
X113776322Y-76613811D01*
X113612537Y-76723249D01*
X113473249Y-76862537D01*
X113363811Y-77026322D01*
X113288429Y-77208311D01*
X113250000Y-77401509D01*
X113250000Y-77548043D01*
X112795000Y-77550000D01*
X112645000Y-77700000D01*
X112595000Y-77700000D01*
X112445000Y-77550000D01*
X111770000Y-77547097D01*
X111652379Y-77558682D01*
X111539279Y-77592990D01*
X111435045Y-77648704D01*
X111350000Y-77718499D01*
X111264955Y-77648704D01*
X111160721Y-77592990D01*
X111047621Y-77558682D01*
X110930000Y-77547097D01*
X109230000Y-77547097D01*
X109112379Y-77558682D01*
X108999279Y-77592990D01*
X108895045Y-77648704D01*
X108810000Y-77718499D01*
X108724955Y-77648704D01*
X108620721Y-77592990D01*
X108507621Y-77558682D01*
X108390000Y-77547097D01*
X106690000Y-77547097D01*
X106572379Y-77558682D01*
X106459279Y-77592990D01*
X106355045Y-77648704D01*
X106263683Y-77723683D01*
X106188704Y-77815045D01*
X106132990Y-77919279D01*
X106098682Y-78032379D01*
X106097275Y-78046665D01*
X105924321Y-77873711D01*
X105686833Y-77715027D01*
X105422949Y-77605723D01*
X105142813Y-77550000D01*
X104857187Y-77550000D01*
X104577051Y-77605723D01*
X104313167Y-77715027D01*
X104075679Y-77873711D01*
X103873711Y-78075679D01*
X103715027Y-78313167D01*
X103605723Y-78577051D01*
X103550000Y-78857187D01*
X103550000Y-79142813D01*
X103605723Y-79422949D01*
X103715027Y-79686833D01*
X103873711Y-79924321D01*
X104075679Y-80126289D01*
X104313167Y-80284973D01*
X104577051Y-80394277D01*
X104857187Y-80450000D01*
X105142813Y-80450000D01*
X105377928Y-80403232D01*
X105524695Y-80550000D01*
X102200000Y-80550000D01*
X102200000Y-75941709D01*
X116843647Y-75941709D01*
X116913939Y-76193272D01*
X117162799Y-76333451D01*
X117434224Y-76422386D01*
X117717786Y-76456660D01*
X118002586Y-76434956D01*
X118277678Y-76358106D01*
X118532492Y-76229065D01*
X118586061Y-76193272D01*
X118656353Y-75941709D01*
X117750000Y-75035355D01*
X116843647Y-75941709D01*
X102200000Y-75941709D01*
X102200000Y-74967786D01*
X116293340Y-74967786D01*
X116315044Y-75252586D01*
X116391894Y-75527678D01*
X116520935Y-75782492D01*
X116556728Y-75836061D01*
X116808291Y-75906353D01*
X117714645Y-75000000D01*
X116808291Y-74093647D01*
X116556728Y-74163939D01*
X116416549Y-74412799D01*
X116327614Y-74684224D01*
X116293340Y-74967786D01*
X102200000Y-74967786D01*
X102200000Y-73401509D01*
X103000000Y-73401509D01*
X103000000Y-73598491D01*
X103038429Y-73791689D01*
X103113811Y-73973678D01*
X103223249Y-74137463D01*
X103362537Y-74276751D01*
X103526322Y-74386189D01*
X103708311Y-74461571D01*
X103901509Y-74500000D01*
X104098491Y-74500000D01*
X104291689Y-74461571D01*
X104473678Y-74386189D01*
X104637463Y-74276751D01*
X104776751Y-74137463D01*
X104829652Y-74058291D01*
X116843647Y-74058291D01*
X117750000Y-74964645D01*
X118656353Y-74058291D01*
X118586061Y-73806728D01*
X118337201Y-73666549D01*
X118065776Y-73577614D01*
X117782214Y-73543340D01*
X117497414Y-73565044D01*
X117222322Y-73641894D01*
X116967508Y-73770935D01*
X116913939Y-73806728D01*
X116843647Y-74058291D01*
X104829652Y-74058291D01*
X104886189Y-73973678D01*
X104961571Y-73791689D01*
X105000000Y-73598491D01*
X105000000Y-73401509D01*
X104961571Y-73208311D01*
X104886189Y-73026322D01*
X104776751Y-72862537D01*
X104637463Y-72723249D01*
X104473678Y-72613811D01*
X104291689Y-72538429D01*
X104098491Y-72500000D01*
X103901509Y-72500000D01*
X103708311Y-72538429D01*
X103526322Y-72613811D01*
X103362537Y-72723249D01*
X103223249Y-72862537D01*
X103113811Y-73026322D01*
X103038429Y-73208311D01*
X103000000Y-73401509D01*
X102200000Y-73401509D01*
X102200000Y-69901509D01*
X106250000Y-69901509D01*
X106250000Y-70098491D01*
X106288429Y-70291689D01*
X106363811Y-70473678D01*
X106473249Y-70637463D01*
X106534606Y-70698820D01*
X106535491Y-70707810D01*
X106576947Y-70844473D01*
X106587284Y-70863811D01*
X106644269Y-70970421D01*
X106712170Y-71053159D01*
X106712173Y-71053162D01*
X106734869Y-71080817D01*
X106762524Y-71103513D01*
X107146483Y-71487472D01*
X107169183Y-71515132D01*
X107279578Y-71605731D01*
X107405527Y-71673053D01*
X107542190Y-71714509D01*
X107648708Y-71725000D01*
X107648717Y-71725000D01*
X107684314Y-71728506D01*
X107719911Y-71725000D01*
X109714403Y-71725000D01*
X109750000Y-71728506D01*
X109785597Y-71725000D01*
X109785607Y-71725000D01*
X109892125Y-71714509D01*
X110028788Y-71673053D01*
X110069093Y-71651509D01*
X112250000Y-71651509D01*
X112250000Y-71848491D01*
X112288429Y-72041689D01*
X112363811Y-72223678D01*
X112473249Y-72387463D01*
X112612537Y-72526751D01*
X112776322Y-72636189D01*
X112958311Y-72711571D01*
X113151509Y-72750000D01*
X113348491Y-72750000D01*
X113541689Y-72711571D01*
X113723678Y-72636189D01*
X113887463Y-72526751D01*
X114012705Y-72401509D01*
X124500000Y-72401509D01*
X124500000Y-72598491D01*
X124538429Y-72791689D01*
X124613811Y-72973678D01*
X124723249Y-73137463D01*
X124862537Y-73276751D01*
X125026322Y-73386189D01*
X125208311Y-73461571D01*
X125401509Y-73500000D01*
X125598491Y-73500000D01*
X125791689Y-73461571D01*
X125973678Y-73386189D01*
X126137463Y-73276751D01*
X126276751Y-73137463D01*
X126386189Y-72973678D01*
X126461571Y-72791689D01*
X126500000Y-72598491D01*
X126500000Y-72401509D01*
X126461571Y-72208311D01*
X126386189Y-72026322D01*
X126276751Y-71862537D01*
X126137463Y-71723249D01*
X125973678Y-71613811D01*
X125791689Y-71538429D01*
X125598491Y-71500000D01*
X125401509Y-71500000D01*
X125208311Y-71538429D01*
X125026322Y-71613811D01*
X124862537Y-71723249D01*
X124723249Y-71862537D01*
X124613811Y-72026322D01*
X124538429Y-72208311D01*
X124500000Y-72401509D01*
X114012705Y-72401509D01*
X114026751Y-72387463D01*
X114136189Y-72223678D01*
X114211571Y-72041689D01*
X114250000Y-71848491D01*
X114250000Y-71651509D01*
X114211571Y-71458311D01*
X114136189Y-71276322D01*
X114026751Y-71112537D01*
X113887463Y-70973249D01*
X113723678Y-70863811D01*
X113541689Y-70788429D01*
X113348491Y-70750000D01*
X113151509Y-70750000D01*
X112958311Y-70788429D01*
X112776322Y-70863811D01*
X112612537Y-70973249D01*
X112473249Y-71112537D01*
X112363811Y-71276322D01*
X112288429Y-71458311D01*
X112250000Y-71651509D01*
X110069093Y-71651509D01*
X110154737Y-71605731D01*
X110265132Y-71515132D01*
X110287832Y-71487472D01*
X110737482Y-71037823D01*
X110765131Y-71015132D01*
X110787823Y-70987482D01*
X110787830Y-70987475D01*
X110855731Y-70904737D01*
X110923053Y-70778788D01*
X110923671Y-70776751D01*
X110964509Y-70642125D01*
X110966032Y-70626662D01*
X110973249Y-70637463D01*
X111112537Y-70776751D01*
X111276322Y-70886189D01*
X111458311Y-70961571D01*
X111651509Y-71000000D01*
X111848491Y-71000000D01*
X112041689Y-70961571D01*
X112223678Y-70886189D01*
X112387463Y-70776751D01*
X112526751Y-70637463D01*
X112636189Y-70473678D01*
X112711571Y-70291689D01*
X112750000Y-70098491D01*
X112750000Y-69969863D01*
X112791689Y-69961571D01*
X112973678Y-69886189D01*
X113137463Y-69776751D01*
X113262705Y-69651509D01*
X121500000Y-69651509D01*
X121500000Y-69848491D01*
X121538429Y-70041689D01*
X121613811Y-70223678D01*
X121723249Y-70387463D01*
X121862537Y-70526751D01*
X122026322Y-70636189D01*
X122208311Y-70711571D01*
X122401509Y-70750000D01*
X122598491Y-70750000D01*
X122791689Y-70711571D01*
X122973678Y-70636189D01*
X123137463Y-70526751D01*
X123276751Y-70387463D01*
X123386189Y-70223678D01*
X123461571Y-70041689D01*
X123500000Y-69848491D01*
X123500000Y-69651509D01*
X123461571Y-69458311D01*
X123386189Y-69276322D01*
X123276751Y-69112537D01*
X123137463Y-68973249D01*
X122973678Y-68863811D01*
X122791689Y-68788429D01*
X122598491Y-68750000D01*
X122401509Y-68750000D01*
X122208311Y-68788429D01*
X122026322Y-68863811D01*
X121862537Y-68973249D01*
X121723249Y-69112537D01*
X121613811Y-69276322D01*
X121538429Y-69458311D01*
X121500000Y-69651509D01*
X113262705Y-69651509D01*
X113276751Y-69637463D01*
X113386189Y-69473678D01*
X113461571Y-69291689D01*
X113500000Y-69098491D01*
X113500000Y-68901509D01*
X113461571Y-68708311D01*
X113386189Y-68526322D01*
X113276751Y-68362537D01*
X113137463Y-68223249D01*
X112973678Y-68113811D01*
X112791689Y-68038429D01*
X112598491Y-68000000D01*
X112401509Y-68000000D01*
X112208311Y-68038429D01*
X112026322Y-68113811D01*
X111862537Y-68223249D01*
X111723249Y-68362537D01*
X111613811Y-68526322D01*
X111538429Y-68708311D01*
X111500000Y-68901509D01*
X111500000Y-69030137D01*
X111458311Y-69038429D01*
X111276322Y-69113811D01*
X111112537Y-69223249D01*
X110975000Y-69360786D01*
X110975000Y-68550304D01*
X113123795Y-66401509D01*
X119000000Y-66401509D01*
X119000000Y-66598491D01*
X119038429Y-66791689D01*
X119113811Y-66973678D01*
X119223249Y-67137463D01*
X119362537Y-67276751D01*
X119526322Y-67386189D01*
X119708311Y-67461571D01*
X119901509Y-67500000D01*
X120098491Y-67500000D01*
X120291689Y-67461571D01*
X120473678Y-67386189D01*
X120637463Y-67276751D01*
X120776751Y-67137463D01*
X120886189Y-66973678D01*
X120961571Y-66791689D01*
X121000000Y-66598491D01*
X121000000Y-66401509D01*
X144750000Y-66401509D01*
X144750000Y-66598491D01*
X144788429Y-66791689D01*
X144863811Y-66973678D01*
X144973249Y-67137463D01*
X145112537Y-67276751D01*
X145276322Y-67386189D01*
X145458311Y-67461571D01*
X145651509Y-67500000D01*
X145848491Y-67500000D01*
X146041689Y-67461571D01*
X146190335Y-67400000D01*
X166547097Y-67400000D01*
X166550000Y-68075000D01*
X166700000Y-68225000D01*
X167975000Y-68225000D01*
X167975000Y-66950000D01*
X167825000Y-66800000D01*
X167150000Y-66797097D01*
X167032379Y-66808682D01*
X166919279Y-66842990D01*
X166815045Y-66898704D01*
X166723683Y-66973683D01*
X166648704Y-67065045D01*
X166592990Y-67169279D01*
X166558682Y-67282379D01*
X166547097Y-67400000D01*
X146190335Y-67400000D01*
X146223678Y-67386189D01*
X146387463Y-67276751D01*
X146526751Y-67137463D01*
X146636189Y-66973678D01*
X146711571Y-66791689D01*
X146750000Y-66598491D01*
X146750000Y-66401509D01*
X146711571Y-66208311D01*
X146636189Y-66026322D01*
X146526751Y-65862537D01*
X146387463Y-65723249D01*
X146223678Y-65613811D01*
X146041689Y-65538429D01*
X145848491Y-65500000D01*
X145651509Y-65500000D01*
X145458311Y-65538429D01*
X145276322Y-65613811D01*
X145112537Y-65723249D01*
X144973249Y-65862537D01*
X144863811Y-66026322D01*
X144788429Y-66208311D01*
X144750000Y-66401509D01*
X121000000Y-66401509D01*
X120961571Y-66208311D01*
X120886189Y-66026322D01*
X120776751Y-65862537D01*
X120637463Y-65723249D01*
X120473678Y-65613811D01*
X120291689Y-65538429D01*
X120098491Y-65500000D01*
X119901509Y-65500000D01*
X119708311Y-65538429D01*
X119526322Y-65613811D01*
X119362537Y-65723249D01*
X119223249Y-65862537D01*
X119113811Y-66026322D01*
X119038429Y-66208311D01*
X119000000Y-66401509D01*
X113123795Y-66401509D01*
X114055304Y-65470000D01*
X166547097Y-65470000D01*
X166558682Y-65587621D01*
X166592990Y-65700721D01*
X166648704Y-65804955D01*
X166723683Y-65896317D01*
X166815045Y-65971296D01*
X166919279Y-66027010D01*
X167032379Y-66061318D01*
X167150000Y-66072903D01*
X167825000Y-66070000D01*
X167975000Y-65920000D01*
X167975000Y-64645000D01*
X166700000Y-64645000D01*
X166550000Y-64795000D01*
X166547097Y-65470000D01*
X114055304Y-65470000D01*
X117123795Y-62401509D01*
X127750000Y-62401509D01*
X127750000Y-62598491D01*
X127788429Y-62791689D01*
X127863811Y-62973678D01*
X127973249Y-63137463D01*
X128112537Y-63276751D01*
X128276322Y-63386189D01*
X128458311Y-63461571D01*
X128651509Y-63500000D01*
X128848491Y-63500000D01*
X129041689Y-63461571D01*
X129223678Y-63386189D01*
X129387463Y-63276751D01*
X129526751Y-63137463D01*
X129636189Y-62973678D01*
X129711571Y-62791689D01*
X129750000Y-62598491D01*
X129750000Y-62401509D01*
X129711571Y-62208311D01*
X129636189Y-62026322D01*
X129526751Y-61862537D01*
X129387463Y-61723249D01*
X129223678Y-61613811D01*
X129041689Y-61538429D01*
X128848491Y-61500000D01*
X128651509Y-61500000D01*
X128458311Y-61538429D01*
X128276322Y-61613811D01*
X128112537Y-61723249D01*
X127973249Y-61862537D01*
X127863811Y-62026322D01*
X127788429Y-62208311D01*
X127750000Y-62401509D01*
X117123795Y-62401509D01*
X118050305Y-61475000D01*
X148449696Y-61475000D01*
X148500000Y-61525304D01*
X148500000Y-61598491D01*
X148538429Y-61791689D01*
X148613811Y-61973678D01*
X148723249Y-62137463D01*
X148862537Y-62276751D01*
X149026322Y-62386189D01*
X149208311Y-62461571D01*
X149401509Y-62500000D01*
X149598491Y-62500000D01*
X149791689Y-62461571D01*
X149973678Y-62386189D01*
X150137463Y-62276751D01*
X150276751Y-62137463D01*
X150386189Y-61973678D01*
X150461571Y-61791689D01*
X150500000Y-61598491D01*
X150500000Y-61401509D01*
X150461571Y-61208311D01*
X150386189Y-61026322D01*
X150293431Y-60887500D01*
X150386189Y-60748678D01*
X150461571Y-60566689D01*
X150500000Y-60373491D01*
X150500000Y-60176509D01*
X150461571Y-59983311D01*
X150386189Y-59801322D01*
X150276751Y-59637537D01*
X150137463Y-59498249D01*
X149973678Y-59388811D01*
X149791689Y-59313429D01*
X149598491Y-59275000D01*
X149401509Y-59275000D01*
X149208311Y-59313429D01*
X149026322Y-59388811D01*
X148862537Y-59498249D01*
X148810786Y-59550000D01*
X118000000Y-59550000D01*
X118000000Y-59401509D01*
X117961571Y-59208311D01*
X117886189Y-59026322D01*
X117776751Y-58862537D01*
X117637463Y-58723249D01*
X117473678Y-58613811D01*
X117291689Y-58538429D01*
X117098491Y-58500000D01*
X116901509Y-58500000D01*
X116708311Y-58538429D01*
X116526322Y-58613811D01*
X116362537Y-58723249D01*
X116223249Y-58862537D01*
X116113811Y-59026322D01*
X116038429Y-59208311D01*
X116000000Y-59401509D01*
X116000000Y-59598491D01*
X116038429Y-59791689D01*
X116113811Y-59973678D01*
X116223249Y-60137463D01*
X116362537Y-60276751D01*
X116374360Y-60284651D01*
X107762524Y-68896487D01*
X107734868Y-68919184D01*
X107712172Y-68946839D01*
X107712170Y-68946841D01*
X107668544Y-69000000D01*
X107644269Y-69029579D01*
X107621801Y-69071612D01*
X107541689Y-69038429D01*
X107348491Y-69000000D01*
X107151509Y-69000000D01*
X106958311Y-69038429D01*
X106776322Y-69113811D01*
X106612537Y-69223249D01*
X106473249Y-69362537D01*
X106363811Y-69526322D01*
X106288429Y-69708311D01*
X106250000Y-69901509D01*
X102200000Y-69901509D01*
X102200000Y-58151509D01*
X103250000Y-58151509D01*
X103250000Y-58348491D01*
X103288429Y-58541689D01*
X103363811Y-58723678D01*
X103473249Y-58887463D01*
X103612537Y-59026751D01*
X103776322Y-59136189D01*
X103958311Y-59211571D01*
X104151509Y-59250000D01*
X104348491Y-59250000D01*
X104541689Y-59211571D01*
X104723678Y-59136189D01*
X104887463Y-59026751D01*
X105026751Y-58887463D01*
X105136189Y-58723678D01*
X105211571Y-58541689D01*
X105250000Y-58348491D01*
X105250000Y-58151509D01*
X105211571Y-57958311D01*
X105136189Y-57776322D01*
X105026751Y-57612537D01*
X104887463Y-57473249D01*
X104723678Y-57363811D01*
X104541689Y-57288429D01*
X104348491Y-57250000D01*
X104151509Y-57250000D01*
X103958311Y-57288429D01*
X103776322Y-57363811D01*
X103612537Y-57473249D01*
X103473249Y-57612537D01*
X103363811Y-57776322D01*
X103288429Y-57958311D01*
X103250000Y-58151509D01*
X102200000Y-58151509D01*
X102200000Y-55458128D01*
X102208311Y-55461571D01*
X102401509Y-55500000D01*
X102598491Y-55500000D01*
X102791689Y-55461571D01*
X102973678Y-55386189D01*
X103137463Y-55276751D01*
X103276751Y-55137463D01*
X103386189Y-54973678D01*
X103461571Y-54791689D01*
X103500000Y-54598491D01*
X103500000Y-54401509D01*
X103461571Y-54208311D01*
X103386189Y-54026322D01*
X103276751Y-53862537D01*
X103137463Y-53723249D01*
X102973678Y-53613811D01*
X102791689Y-53538429D01*
X102598491Y-53500000D01*
X102401509Y-53500000D01*
X102208311Y-53538429D01*
X102200000Y-53541872D01*
X102200000Y-50180000D01*
X102257097Y-50180000D01*
X102268682Y-50297621D01*
X102302990Y-50410721D01*
X102358704Y-50514955D01*
X102433683Y-50606317D01*
X102525045Y-50681296D01*
X102629279Y-50737010D01*
X102742379Y-50771318D01*
X102860000Y-50782903D01*
X103535000Y-50780000D01*
X103685000Y-50630000D01*
X103685000Y-49355000D01*
X102410000Y-49355000D01*
X102260000Y-49505000D01*
X102257097Y-50180000D01*
X102200000Y-50180000D01*
X102200000Y-43400000D01*
X102257097Y-43400000D01*
X102257097Y-45100000D01*
X102268682Y-45217621D01*
X102302990Y-45330721D01*
X102358704Y-45434955D01*
X102428499Y-45520000D01*
X102358704Y-45605045D01*
X102302990Y-45709279D01*
X102268682Y-45822379D01*
X102257097Y-45940000D01*
X102257097Y-47640000D01*
X102268682Y-47757621D01*
X102302990Y-47870721D01*
X102358704Y-47974955D01*
X102428499Y-48060000D01*
X102358704Y-48145045D01*
X102302990Y-48249279D01*
X102268682Y-48362379D01*
X102257097Y-48480000D01*
X102260000Y-49155000D01*
X102410000Y-49305000D01*
X103685000Y-49305000D01*
X103685000Y-49285000D01*
X103735000Y-49285000D01*
X103735000Y-49305000D01*
X103755000Y-49305000D01*
X103755000Y-49355000D01*
X103735000Y-49355000D01*
X103735000Y-50630000D01*
X103885000Y-50780000D01*
X104560000Y-50782903D01*
X104677621Y-50771318D01*
X104790721Y-50737010D01*
X104894955Y-50681296D01*
X104980000Y-50611501D01*
X105065045Y-50681296D01*
X105169279Y-50737010D01*
X105282379Y-50771318D01*
X105400000Y-50782903D01*
X107100000Y-50782903D01*
X107217621Y-50771318D01*
X107330721Y-50737010D01*
X107434955Y-50681296D01*
X107526317Y-50606317D01*
X107601296Y-50514955D01*
X107657010Y-50410721D01*
X107691318Y-50297621D01*
X107702903Y-50180000D01*
X107702903Y-48480000D01*
X107691318Y-48362379D01*
X107657010Y-48249279D01*
X107601296Y-48145045D01*
X107531501Y-48060000D01*
X107601296Y-47974955D01*
X107657010Y-47870721D01*
X107691318Y-47757621D01*
X107702903Y-47640000D01*
X107702903Y-47151509D01*
X110250000Y-47151509D01*
X110250000Y-47348491D01*
X110288429Y-47541689D01*
X110363811Y-47723678D01*
X110473249Y-47887463D01*
X110612537Y-48026751D01*
X110776322Y-48136189D01*
X110958311Y-48211571D01*
X111151509Y-48250000D01*
X111348491Y-48250000D01*
X111541689Y-48211571D01*
X111723678Y-48136189D01*
X111887463Y-48026751D01*
X112026751Y-47887463D01*
X112136189Y-47723678D01*
X112211571Y-47541689D01*
X112250000Y-47348491D01*
X112250000Y-47151509D01*
X112211571Y-46958311D01*
X112136189Y-46776322D01*
X112026751Y-46612537D01*
X111887463Y-46473249D01*
X111723678Y-46363811D01*
X111541689Y-46288429D01*
X111348491Y-46250000D01*
X111151509Y-46250000D01*
X110958311Y-46288429D01*
X110776322Y-46363811D01*
X110612537Y-46473249D01*
X110473249Y-46612537D01*
X110363811Y-46776322D01*
X110288429Y-46958311D01*
X110250000Y-47151509D01*
X107702903Y-47151509D01*
X107702903Y-45940000D01*
X107691318Y-45822379D01*
X107657010Y-45709279D01*
X107601296Y-45605045D01*
X107526317Y-45513683D01*
X107434955Y-45438704D01*
X107330721Y-45382990D01*
X107217621Y-45348682D01*
X107203335Y-45347275D01*
X107376289Y-45174321D01*
X107534973Y-44936833D01*
X107549604Y-44901509D01*
X110250000Y-44901509D01*
X110250000Y-45098491D01*
X110288429Y-45291689D01*
X110363811Y-45473678D01*
X110473249Y-45637463D01*
X110612537Y-45776751D01*
X110776322Y-45886189D01*
X110958311Y-45961571D01*
X111151509Y-46000000D01*
X111348491Y-46000000D01*
X111541689Y-45961571D01*
X111723678Y-45886189D01*
X111887463Y-45776751D01*
X112026751Y-45637463D01*
X112136189Y-45473678D01*
X112211571Y-45291689D01*
X112250000Y-45098491D01*
X112250000Y-44901509D01*
X112211571Y-44708311D01*
X112136189Y-44526322D01*
X112026751Y-44362537D01*
X111887463Y-44223249D01*
X111723678Y-44113811D01*
X111541689Y-44038429D01*
X111348491Y-44000000D01*
X111151509Y-44000000D01*
X110958311Y-44038429D01*
X110776322Y-44113811D01*
X110612537Y-44223249D01*
X110473249Y-44362537D01*
X110363811Y-44526322D01*
X110288429Y-44708311D01*
X110250000Y-44901509D01*
X107549604Y-44901509D01*
X107644277Y-44672949D01*
X107700000Y-44392813D01*
X107700000Y-44107187D01*
X107644277Y-43827051D01*
X107534973Y-43563167D01*
X107376289Y-43325679D01*
X107174321Y-43123711D01*
X106936833Y-42965027D01*
X106672949Y-42855723D01*
X106392813Y-42800000D01*
X106107187Y-42800000D01*
X105827051Y-42855723D01*
X105563167Y-42965027D01*
X105325679Y-43123711D01*
X105152725Y-43296665D01*
X105151318Y-43282379D01*
X105117010Y-43169279D01*
X105061296Y-43065045D01*
X104986317Y-42973683D01*
X104894955Y-42898704D01*
X104790721Y-42842990D01*
X104677621Y-42808682D01*
X104560000Y-42797097D01*
X102860000Y-42797097D01*
X102742379Y-42808682D01*
X102629279Y-42842990D01*
X102525045Y-42898704D01*
X102433683Y-42973683D01*
X102358704Y-43065045D01*
X102302990Y-43169279D01*
X102268682Y-43282379D01*
X102257097Y-43400000D01*
X102200000Y-43400000D01*
X102200000Y-40950000D01*
X113414808Y-40950000D01*
X113363811Y-41026322D01*
X113363811Y-41026322D01*
G37*
X113363811Y-41026322D02*
X113288429Y-41208311D01*
X113250000Y-41401509D01*
X113250000Y-41598491D01*
X113288429Y-41791689D01*
X113363811Y-41973678D01*
X113473249Y-42137463D01*
X113612537Y-42276751D01*
X113776322Y-42386189D01*
X113958311Y-42461571D01*
X114000000Y-42469863D01*
X114000000Y-42598491D01*
X114038429Y-42791689D01*
X114113811Y-42973678D01*
X114131399Y-43000000D01*
X114113811Y-43026322D01*
X114038429Y-43208311D01*
X114000000Y-43401509D01*
X114000000Y-43598491D01*
X114038429Y-43791689D01*
X114113811Y-43973678D01*
X114131399Y-44000000D01*
X114113811Y-44026322D01*
X114038429Y-44208311D01*
X114000000Y-44401509D01*
X114000000Y-44598491D01*
X114038429Y-44791689D01*
X114113811Y-44973678D01*
X114131399Y-45000000D01*
X114113811Y-45026322D01*
X114038429Y-45208311D01*
X114000000Y-45401509D01*
X114000000Y-45598491D01*
X114038429Y-45791689D01*
X114113811Y-45973678D01*
X114223249Y-46137463D01*
X114362537Y-46276751D01*
X114526322Y-46386189D01*
X114708311Y-46461571D01*
X114901509Y-46500000D01*
X114708311Y-46538429D01*
X114526322Y-46613811D01*
X114362537Y-46723249D01*
X114223249Y-46862537D01*
X114113811Y-47026322D01*
X114038429Y-47208311D01*
X114000000Y-47401509D01*
X114000000Y-47598491D01*
X114038429Y-47791689D01*
X114113811Y-47973678D01*
X114131399Y-48000000D01*
X114113811Y-48026322D01*
X114038429Y-48208311D01*
X114000000Y-48401509D01*
X114000000Y-48598491D01*
X114038429Y-48791689D01*
X114113811Y-48973678D01*
X114131399Y-49000000D01*
X114113811Y-49026322D01*
X114038429Y-49208311D01*
X114000000Y-49401509D01*
X114000000Y-49598491D01*
X114038429Y-49791689D01*
X114113811Y-49973678D01*
X114131399Y-50000000D01*
X114113811Y-50026322D01*
X114038429Y-50208311D01*
X114000000Y-50401509D01*
X114000000Y-50598491D01*
X114038429Y-50791689D01*
X114113811Y-50973678D01*
X114131399Y-51000000D01*
X114113811Y-51026322D01*
X114038429Y-51208311D01*
X114000000Y-51401509D01*
X114000000Y-51598491D01*
X114038429Y-51791689D01*
X114113811Y-51973678D01*
X114131399Y-52000000D01*
X114113811Y-52026322D01*
X114038429Y-52208311D01*
X114000000Y-52401509D01*
X114000000Y-52598491D01*
X114038429Y-52791689D01*
X114113811Y-52973678D01*
X114131399Y-53000000D01*
X114113811Y-53026322D01*
X114038429Y-53208311D01*
X114000000Y-53401509D01*
X114000000Y-53598491D01*
X114038429Y-53791689D01*
X114113811Y-53973678D01*
X114131399Y-54000000D01*
X114113811Y-54026322D01*
X114038429Y-54208311D01*
X114000000Y-54401509D01*
X114000000Y-54598491D01*
X114038429Y-54791689D01*
X114113811Y-54973678D01*
X114131399Y-55000000D01*
X114113811Y-55026322D01*
X114038429Y-55208311D01*
X114000000Y-55401509D01*
X114000000Y-55598491D01*
X114038429Y-55791689D01*
X114113811Y-55973678D01*
X114131399Y-56000000D01*
X114113811Y-56026322D01*
X114038429Y-56208311D01*
X114000000Y-56401509D01*
X114000000Y-56598491D01*
X114038429Y-56791689D01*
X114113811Y-56973678D01*
X114223249Y-57137463D01*
X114362537Y-57276751D01*
X114526322Y-57386189D01*
X114708311Y-57461571D01*
X114901509Y-57500000D01*
X115098491Y-57500000D01*
X115291689Y-57461571D01*
X115473678Y-57386189D01*
X115637463Y-57276751D01*
X115762705Y-57151509D01*
X123500000Y-57151509D01*
X123500000Y-57348491D01*
X123538429Y-57541689D01*
X123613811Y-57723678D01*
X123723249Y-57887463D01*
X123862537Y-58026751D01*
X124026322Y-58136189D01*
X124208311Y-58211571D01*
X124401509Y-58250000D01*
X124598491Y-58250000D01*
X124791689Y-58211571D01*
X124973678Y-58136189D01*
X125000000Y-58118601D01*
X125026322Y-58136189D01*
X125208311Y-58211571D01*
X125401509Y-58250000D01*
X125598491Y-58250000D01*
X125791689Y-58211571D01*
X125973678Y-58136189D01*
X126000000Y-58118601D01*
X126026322Y-58136189D01*
X126208311Y-58211571D01*
X126401509Y-58250000D01*
X126598491Y-58250000D01*
X126791689Y-58211571D01*
X126973678Y-58136189D01*
X127000000Y-58118601D01*
X127026322Y-58136189D01*
X127208311Y-58211571D01*
X127401509Y-58250000D01*
X127598491Y-58250000D01*
X127791689Y-58211571D01*
X127973678Y-58136189D01*
X128137463Y-58026751D01*
X128276751Y-57887463D01*
X128386189Y-57723678D01*
X128461571Y-57541689D01*
X128469863Y-57500000D01*
X128598491Y-57500000D01*
X128791689Y-57461571D01*
X128973678Y-57386189D01*
X129137463Y-57276751D01*
X129276751Y-57137463D01*
X129386189Y-56973678D01*
X129461571Y-56791689D01*
X129500000Y-56598491D01*
X129500000Y-56401509D01*
X129461571Y-56208311D01*
X129438043Y-56151509D01*
X130500000Y-56151509D01*
X130500000Y-56348491D01*
X130538429Y-56541689D01*
X130613811Y-56723678D01*
X130723249Y-56887463D01*
X130862537Y-57026751D01*
X131026322Y-57136189D01*
X131208311Y-57211571D01*
X131401509Y-57250000D01*
X131598491Y-57250000D01*
X131791689Y-57211571D01*
X131973678Y-57136189D01*
X132137463Y-57026751D01*
X132276751Y-56887463D01*
X132386189Y-56723678D01*
X132461571Y-56541689D01*
X132500000Y-56348491D01*
X132500000Y-56151509D01*
X132461571Y-55958311D01*
X132386189Y-55776322D01*
X132276751Y-55612537D01*
X132137463Y-55473249D01*
X131973678Y-55363811D01*
X131791689Y-55288429D01*
X131598491Y-55250000D01*
X131401509Y-55250000D01*
X131208311Y-55288429D01*
X131026322Y-55363811D01*
X130862537Y-55473249D01*
X130723249Y-55612537D01*
X130613811Y-55776322D01*
X130538429Y-55958311D01*
X130500000Y-56151509D01*
X129438043Y-56151509D01*
X129386189Y-56026322D01*
X129368601Y-56000000D01*
X129386189Y-55973678D01*
X129461571Y-55791689D01*
X129500000Y-55598491D01*
X129500000Y-55401509D01*
X129461571Y-55208311D01*
X129386189Y-55026322D01*
X129368601Y-55000000D01*
X129386189Y-54973678D01*
X129461571Y-54791689D01*
X129500000Y-54598491D01*
X129500000Y-54451511D01*
X135750000Y-54451511D01*
X135750000Y-54648493D01*
X135788429Y-54841691D01*
X135863811Y-55023680D01*
X135973249Y-55187465D01*
X136112537Y-55326753D01*
X136276322Y-55436191D01*
X136458311Y-55511573D01*
X136651509Y-55550002D01*
X136848491Y-55550002D01*
X137041689Y-55511573D01*
X137131724Y-55474279D01*
X137143965Y-55503832D01*
X137253403Y-55667617D01*
X137392691Y-55806905D01*
X137556476Y-55916343D01*
X137738465Y-55991725D01*
X137931663Y-56030154D01*
X138036135Y-56030154D01*
X138038429Y-56041689D01*
X138113811Y-56223678D01*
X138223249Y-56387463D01*
X138362537Y-56526751D01*
X138526322Y-56636189D01*
X138708311Y-56711571D01*
X138901509Y-56750000D01*
X139030137Y-56750000D01*
X139038429Y-56791689D01*
X139113811Y-56973678D01*
X139223249Y-57137463D01*
X139362537Y-57276751D01*
X139526322Y-57386189D01*
X139708311Y-57461571D01*
X139901509Y-57500000D01*
X140098491Y-57500000D01*
X140291689Y-57461571D01*
X140473678Y-57386189D01*
X140637463Y-57276751D01*
X140776751Y-57137463D01*
X140886189Y-56973678D01*
X140961571Y-56791689D01*
X141000000Y-56598491D01*
X141038429Y-56791689D01*
X141113811Y-56973678D01*
X141223249Y-57137463D01*
X141362537Y-57276751D01*
X141526322Y-57386189D01*
X141708311Y-57461571D01*
X141901509Y-57500000D01*
X142098491Y-57500000D01*
X142291689Y-57461571D01*
X142473678Y-57386189D01*
X142637463Y-57276751D01*
X142776751Y-57137463D01*
X142886189Y-56973678D01*
X142961571Y-56791689D01*
X143000000Y-56598491D01*
X143000000Y-56401509D01*
X142961571Y-56208311D01*
X142886189Y-56026322D01*
X142868601Y-56000000D01*
X142886189Y-55973678D01*
X142961571Y-55791689D01*
X143000000Y-55598491D01*
X143000000Y-55401509D01*
X142961571Y-55208311D01*
X142886189Y-55026322D01*
X142868601Y-55000000D01*
X142886189Y-54973678D01*
X142961571Y-54791689D01*
X143000000Y-54598491D01*
X143000000Y-54451511D01*
X149500000Y-54451511D01*
X149500000Y-54648493D01*
X149538429Y-54841691D01*
X149613811Y-55023680D01*
X149723249Y-55187465D01*
X149862537Y-55326753D01*
X150026322Y-55436191D01*
X150208311Y-55511573D01*
X150401509Y-55550002D01*
X150598491Y-55550002D01*
X150791689Y-55511573D01*
X150973678Y-55436191D01*
X150978432Y-55433014D01*
X150983728Y-55459637D01*
X151059110Y-55641626D01*
X151168548Y-55805411D01*
X151307836Y-55944699D01*
X151471621Y-56054137D01*
X151500000Y-56065892D01*
X151500000Y-56098491D01*
X151538429Y-56291689D01*
X151613811Y-56473678D01*
X151723249Y-56637463D01*
X151862537Y-56776751D01*
X152026322Y-56886189D01*
X152208311Y-56961571D01*
X152401509Y-57000000D01*
X152598491Y-57000000D01*
X152791689Y-56961571D01*
X152973678Y-56886189D01*
X152981064Y-56881254D01*
X153026322Y-56911495D01*
X153208311Y-56986877D01*
X153401509Y-57025306D01*
X153598491Y-57025306D01*
X153791689Y-56986877D01*
X153973678Y-56911495D01*
X154137463Y-56802057D01*
X154276751Y-56662769D01*
X154386189Y-56498984D01*
X154461571Y-56316995D01*
X154500000Y-56123797D01*
X154500000Y-55926815D01*
X154461571Y-55733617D01*
X154386189Y-55551628D01*
X154276751Y-55387843D01*
X154137463Y-55248555D01*
X153973678Y-55139117D01*
X153791689Y-55063735D01*
X153598491Y-55025306D01*
X153401509Y-55025306D01*
X153208311Y-55063735D01*
X153026322Y-55139117D01*
X153018936Y-55144052D01*
X152973678Y-55113811D01*
X152945299Y-55102056D01*
X152945299Y-55069457D01*
X152906870Y-54876259D01*
X152831488Y-54694270D01*
X152722050Y-54530485D01*
X152582762Y-54391197D01*
X152418977Y-54281759D01*
X152236988Y-54206377D01*
X152043790Y-54167948D01*
X151846808Y-54167948D01*
X151653610Y-54206377D01*
X151471621Y-54281759D01*
X151466867Y-54284936D01*
X151461571Y-54258313D01*
X151386189Y-54076324D01*
X151276751Y-53912539D01*
X151137463Y-53773251D01*
X150973678Y-53663813D01*
X150791689Y-53588431D01*
X150598491Y-53550002D01*
X150401509Y-53550002D01*
X150208311Y-53588431D01*
X150026322Y-53663813D01*
X149862537Y-53773251D01*
X149723249Y-53912539D01*
X149613811Y-54076324D01*
X149538429Y-54258313D01*
X149500000Y-54451511D01*
X143000000Y-54451511D01*
X143000000Y-54401509D01*
X142961571Y-54208311D01*
X142886189Y-54026322D01*
X142868601Y-54000000D01*
X142886189Y-53973678D01*
X142961571Y-53791689D01*
X143000000Y-53598491D01*
X143000000Y-53401509D01*
X142961571Y-53208311D01*
X142886189Y-53026322D01*
X142868601Y-53000000D01*
X142886189Y-52973678D01*
X142961571Y-52791689D01*
X143000000Y-52598491D01*
X143000000Y-52401509D01*
X142961571Y-52208311D01*
X142886189Y-52026322D01*
X142868601Y-52000000D01*
X142886189Y-51973678D01*
X142961571Y-51791689D01*
X143000000Y-51598491D01*
X143000000Y-51401509D01*
X142961571Y-51208311D01*
X142886189Y-51026322D01*
X142868601Y-51000000D01*
X142886189Y-50973678D01*
X142961571Y-50791689D01*
X143000000Y-50598491D01*
X143000000Y-50401509D01*
X142961571Y-50208311D01*
X142886189Y-50026322D01*
X142868601Y-50000000D01*
X142886189Y-49973678D01*
X142961571Y-49791689D01*
X143000000Y-49598491D01*
X143000000Y-49401509D01*
X142961571Y-49208311D01*
X142886189Y-49026322D01*
X142868601Y-49000000D01*
X142886189Y-48973678D01*
X142961571Y-48791689D01*
X143000000Y-48598491D01*
X143000000Y-48401509D01*
X142961571Y-48208311D01*
X142886189Y-48026322D01*
X142868601Y-48000000D01*
X142886189Y-47973678D01*
X142961571Y-47791689D01*
X143000000Y-47598491D01*
X143000000Y-47401509D01*
X154500000Y-47401509D01*
X154500000Y-47598491D01*
X154538429Y-47791689D01*
X154613811Y-47973678D01*
X154631399Y-48000000D01*
X154613811Y-48026322D01*
X154538429Y-48208311D01*
X154500000Y-48401509D01*
X154500000Y-48598491D01*
X154538429Y-48791689D01*
X154613811Y-48973678D01*
X154631399Y-49000000D01*
X154613811Y-49026322D01*
X154538429Y-49208311D01*
X154500000Y-49401509D01*
X154500000Y-49598491D01*
X154538429Y-49791689D01*
X154613811Y-49973678D01*
X154631399Y-50000000D01*
X154613811Y-50026322D01*
X154538429Y-50208311D01*
X154500000Y-50401509D01*
X154500000Y-50598491D01*
X154538429Y-50791689D01*
X154613811Y-50973678D01*
X154631399Y-51000000D01*
X154613811Y-51026322D01*
X154538429Y-51208311D01*
X154500000Y-51401509D01*
X154500000Y-51598491D01*
X154538429Y-51791689D01*
X154613811Y-51973678D01*
X154631399Y-52000000D01*
X154613811Y-52026322D01*
X154538429Y-52208311D01*
X154500000Y-52401509D01*
X154500000Y-52598491D01*
X154538429Y-52791689D01*
X154613811Y-52973678D01*
X154631399Y-53000000D01*
X154613811Y-53026322D01*
X154538429Y-53208311D01*
X154500000Y-53401509D01*
X154500000Y-53598491D01*
X154538429Y-53791689D01*
X154613811Y-53973678D01*
X154631399Y-54000000D01*
X154613811Y-54026322D01*
X154538429Y-54208311D01*
X154500000Y-54401509D01*
X154500000Y-54598491D01*
X154538429Y-54791689D01*
X154613811Y-54973678D01*
X154631399Y-55000000D01*
X154613811Y-55026322D01*
X154538429Y-55208311D01*
X154500000Y-55401509D01*
X154500000Y-55598491D01*
X154538429Y-55791689D01*
X154613811Y-55973678D01*
X154631399Y-56000000D01*
X154613811Y-56026322D01*
X154538429Y-56208311D01*
X154500000Y-56401509D01*
X154500000Y-56598491D01*
X154538429Y-56791689D01*
X154613811Y-56973678D01*
X154723249Y-57137463D01*
X154862537Y-57276751D01*
X155026322Y-57386189D01*
X155208311Y-57461571D01*
X155401509Y-57500000D01*
X155598491Y-57500000D01*
X155791689Y-57461571D01*
X155973678Y-57386189D01*
X156137463Y-57276751D01*
X156276751Y-57137463D01*
X156386189Y-56973678D01*
X156461571Y-56791689D01*
X156500000Y-56598491D01*
X156500000Y-56401509D01*
X156461571Y-56208311D01*
X156386189Y-56026322D01*
X156368601Y-56000000D01*
X156386189Y-55973678D01*
X156461571Y-55791689D01*
X156500000Y-55598491D01*
X156500000Y-55401509D01*
X156461571Y-55208311D01*
X156386189Y-55026322D01*
X156368601Y-55000000D01*
X156386189Y-54973678D01*
X156461571Y-54791689D01*
X156500000Y-54598491D01*
X156500000Y-54401509D01*
X156461571Y-54208311D01*
X156386189Y-54026322D01*
X156368601Y-54000000D01*
X156386189Y-53973678D01*
X156461571Y-53791689D01*
X156500000Y-53598491D01*
X156500000Y-53401509D01*
X156461571Y-53208311D01*
X156386189Y-53026322D01*
X156368601Y-53000000D01*
X156386189Y-52973678D01*
X156461571Y-52791689D01*
X156500000Y-52598491D01*
X156500000Y-52401509D01*
X156461571Y-52208311D01*
X156386189Y-52026322D01*
X156368601Y-52000000D01*
X156386189Y-51973678D01*
X156461571Y-51791689D01*
X156500000Y-51598491D01*
X156500000Y-51401509D01*
X156461571Y-51208311D01*
X156438043Y-51151509D01*
X165000000Y-51151509D01*
X165000000Y-51348491D01*
X165038429Y-51541689D01*
X165113811Y-51723678D01*
X165223249Y-51887463D01*
X165362537Y-52026751D01*
X165526322Y-52136189D01*
X165708311Y-52211571D01*
X165901509Y-52250000D01*
X166098491Y-52250000D01*
X166291689Y-52211571D01*
X166473678Y-52136189D01*
X166637463Y-52026751D01*
X166776751Y-51887463D01*
X166886189Y-51723678D01*
X166961571Y-51541689D01*
X167000000Y-51348491D01*
X167000000Y-51151509D01*
X166962380Y-50962380D01*
X167151509Y-51000000D01*
X167348491Y-51000000D01*
X167541689Y-50961571D01*
X167723678Y-50886189D01*
X167887463Y-50776751D01*
X168026751Y-50637463D01*
X168136189Y-50473678D01*
X168211571Y-50291689D01*
X168250000Y-50098491D01*
X168250000Y-49901509D01*
X168211571Y-49708311D01*
X168136189Y-49526322D01*
X168026751Y-49362537D01*
X167887463Y-49223249D01*
X167723678Y-49113811D01*
X167541689Y-49038429D01*
X167348491Y-49000000D01*
X167151509Y-49000000D01*
X166958311Y-49038429D01*
X166776322Y-49113811D01*
X166612537Y-49223249D01*
X166473249Y-49362537D01*
X166363811Y-49526322D01*
X166288429Y-49708311D01*
X166250000Y-49901509D01*
X166250000Y-50098491D01*
X166287620Y-50287620D01*
X166098491Y-50250000D01*
X165901509Y-50250000D01*
X165708311Y-50288429D01*
X165526322Y-50363811D01*
X165362537Y-50473249D01*
X165223249Y-50612537D01*
X165113811Y-50776322D01*
X165038429Y-50958311D01*
X165000000Y-51151509D01*
X156438043Y-51151509D01*
X156386189Y-51026322D01*
X156368601Y-51000000D01*
X156386189Y-50973678D01*
X156461571Y-50791689D01*
X156500000Y-50598491D01*
X156500000Y-50401509D01*
X156461571Y-50208311D01*
X156386189Y-50026322D01*
X156368601Y-50000000D01*
X156386189Y-49973678D01*
X156461571Y-49791689D01*
X156500000Y-49598491D01*
X156500000Y-49401509D01*
X156461571Y-49208311D01*
X156386189Y-49026322D01*
X156368601Y-49000000D01*
X156386189Y-48973678D01*
X156461571Y-48791689D01*
X156500000Y-48598491D01*
X156500000Y-48401509D01*
X156461571Y-48208311D01*
X156386189Y-48026322D01*
X156368601Y-48000000D01*
X156386189Y-47973678D01*
X156461571Y-47791689D01*
X156500000Y-47598491D01*
X156500000Y-47401509D01*
X156461571Y-47208311D01*
X156386189Y-47026322D01*
X156276751Y-46862537D01*
X156137463Y-46723249D01*
X155973678Y-46613811D01*
X155791689Y-46538429D01*
X155598491Y-46500000D01*
X155401509Y-46500000D01*
X155208311Y-46538429D01*
X155026322Y-46613811D01*
X154862537Y-46723249D01*
X154723249Y-46862537D01*
X154613811Y-47026322D01*
X154538429Y-47208311D01*
X154500000Y-47401509D01*
X143000000Y-47401509D01*
X142961571Y-47208311D01*
X142886189Y-47026322D01*
X142776751Y-46862537D01*
X142637463Y-46723249D01*
X142473678Y-46613811D01*
X142291689Y-46538429D01*
X142098491Y-46500000D01*
X141901509Y-46500000D01*
X141708311Y-46538429D01*
X141526322Y-46613811D01*
X141362537Y-46723249D01*
X141223249Y-46862537D01*
X141113811Y-47026322D01*
X141038429Y-47208311D01*
X141000000Y-47401509D01*
X141000000Y-47598491D01*
X141038429Y-47791689D01*
X141113811Y-47973678D01*
X141131399Y-48000000D01*
X141113811Y-48026322D01*
X141038429Y-48208311D01*
X141000000Y-48401509D01*
X141000000Y-48598491D01*
X141038429Y-48791689D01*
X141113811Y-48973678D01*
X141131399Y-49000000D01*
X141113811Y-49026322D01*
X141038429Y-49208311D01*
X141000000Y-49401509D01*
X141000000Y-49598491D01*
X141038429Y-49791689D01*
X141113811Y-49973678D01*
X141131399Y-50000000D01*
X141113811Y-50026322D01*
X141038429Y-50208311D01*
X141000000Y-50401509D01*
X141000000Y-50598491D01*
X141038429Y-50791689D01*
X141113811Y-50973678D01*
X141131399Y-51000000D01*
X141113811Y-51026322D01*
X141038429Y-51208311D01*
X141000000Y-51401509D01*
X141000000Y-51598491D01*
X141038429Y-51791689D01*
X141113811Y-51973678D01*
X141131399Y-52000000D01*
X141113811Y-52026322D01*
X141038429Y-52208311D01*
X141000000Y-52401509D01*
X141000000Y-52598491D01*
X141038429Y-52791689D01*
X141113811Y-52973678D01*
X141131399Y-53000000D01*
X141113811Y-53026322D01*
X141038429Y-53208311D01*
X141000000Y-53401509D01*
X141000000Y-53598491D01*
X141038429Y-53791689D01*
X141113811Y-53973678D01*
X141131399Y-54000000D01*
X141113811Y-54026322D01*
X141038429Y-54208311D01*
X141000000Y-54401509D01*
X141000000Y-54598491D01*
X141038429Y-54791689D01*
X141113811Y-54973678D01*
X141131399Y-55000000D01*
X141113811Y-55026322D01*
X141038429Y-55208311D01*
X141000000Y-55401509D01*
X141000000Y-55598491D01*
X141038429Y-55791689D01*
X141113811Y-55973678D01*
X141131399Y-56000000D01*
X141113811Y-56026322D01*
X141038429Y-56208311D01*
X141000000Y-56401509D01*
X140961571Y-56208311D01*
X140886189Y-56026322D01*
X140776751Y-55862537D01*
X140637463Y-55723249D01*
X140473678Y-55613811D01*
X140291689Y-55538429D01*
X140098491Y-55500000D01*
X139969863Y-55500000D01*
X139961571Y-55458311D01*
X139886189Y-55276322D01*
X139776751Y-55112537D01*
X139637463Y-54973249D01*
X139473678Y-54863811D01*
X139291689Y-54788429D01*
X139098491Y-54750000D01*
X138994019Y-54750000D01*
X138991725Y-54738465D01*
X138916343Y-54556476D01*
X138806905Y-54392691D01*
X138667617Y-54253403D01*
X138503832Y-54143965D01*
X138321843Y-54068583D01*
X138128645Y-54030154D01*
X137931663Y-54030154D01*
X137738465Y-54068583D01*
X137648430Y-54105877D01*
X137636189Y-54076324D01*
X137526751Y-53912539D01*
X137387463Y-53773251D01*
X137223678Y-53663813D01*
X137041689Y-53588431D01*
X136848491Y-53550002D01*
X136651509Y-53550002D01*
X136458311Y-53588431D01*
X136276322Y-53663813D01*
X136112537Y-53773251D01*
X135973249Y-53912539D01*
X135863811Y-54076324D01*
X135788429Y-54258313D01*
X135750000Y-54451511D01*
X129500000Y-54451511D01*
X129500000Y-54401509D01*
X129461571Y-54208311D01*
X129386189Y-54026322D01*
X129368601Y-54000000D01*
X129386189Y-53973678D01*
X129461571Y-53791689D01*
X129500000Y-53598491D01*
X129500000Y-53401509D01*
X129461571Y-53208311D01*
X129386189Y-53026322D01*
X129368601Y-53000000D01*
X129386189Y-52973678D01*
X129461571Y-52791689D01*
X129500000Y-52598491D01*
X129500000Y-52401509D01*
X129461571Y-52208311D01*
X129386189Y-52026322D01*
X129368601Y-52000000D01*
X129386189Y-51973678D01*
X129461571Y-51791689D01*
X129500000Y-51598491D01*
X129500000Y-51401509D01*
X129461571Y-51208311D01*
X129386189Y-51026322D01*
X129368601Y-51000000D01*
X129386189Y-50973678D01*
X129461571Y-50791689D01*
X129500000Y-50598491D01*
X129500000Y-50401509D01*
X129461571Y-50208311D01*
X129386189Y-50026322D01*
X129368601Y-50000000D01*
X129386189Y-49973678D01*
X129461571Y-49791689D01*
X129500000Y-49598491D01*
X129500000Y-49401509D01*
X129461571Y-49208311D01*
X129386189Y-49026322D01*
X129368601Y-49000000D01*
X129386189Y-48973678D01*
X129461571Y-48791689D01*
X129500000Y-48598491D01*
X129500000Y-48401509D01*
X129461571Y-48208311D01*
X129386189Y-48026322D01*
X129368601Y-48000000D01*
X129386189Y-47973678D01*
X129461571Y-47791689D01*
X129500000Y-47598491D01*
X129500000Y-47401509D01*
X129461571Y-47208311D01*
X129386189Y-47026322D01*
X129276751Y-46862537D01*
X129137463Y-46723249D01*
X128973678Y-46613811D01*
X128791689Y-46538429D01*
X128598491Y-46500000D01*
X128401509Y-46500000D01*
X128208311Y-46538429D01*
X128026322Y-46613811D01*
X127862537Y-46723249D01*
X127723249Y-46862537D01*
X127613811Y-47026322D01*
X127538429Y-47208311D01*
X127500000Y-47401509D01*
X127500000Y-47598491D01*
X127538429Y-47791689D01*
X127613811Y-47973678D01*
X127631399Y-48000000D01*
X127613811Y-48026322D01*
X127538429Y-48208311D01*
X127500000Y-48401509D01*
X127500000Y-48598491D01*
X127538429Y-48791689D01*
X127613811Y-48973678D01*
X127631399Y-49000000D01*
X127613811Y-49026322D01*
X127538429Y-49208311D01*
X127500000Y-49401509D01*
X127500000Y-49598491D01*
X127538429Y-49791689D01*
X127613811Y-49973678D01*
X127631399Y-50000000D01*
X127613811Y-50026322D01*
X127538429Y-50208311D01*
X127500000Y-50401509D01*
X127500000Y-50598491D01*
X127538429Y-50791689D01*
X127613811Y-50973678D01*
X127631399Y-51000000D01*
X127613811Y-51026322D01*
X127538429Y-51208311D01*
X127500000Y-51401509D01*
X127500000Y-51598491D01*
X127538429Y-51791689D01*
X127613811Y-51973678D01*
X127631399Y-52000000D01*
X127613811Y-52026322D01*
X127538429Y-52208311D01*
X127500000Y-52401509D01*
X127500000Y-52598491D01*
X127538429Y-52791689D01*
X127613811Y-52973678D01*
X127631399Y-53000000D01*
X127613811Y-53026322D01*
X127538429Y-53208311D01*
X127500000Y-53401509D01*
X127500000Y-53598491D01*
X127538429Y-53791689D01*
X127613811Y-53973678D01*
X127631399Y-54000000D01*
X127613811Y-54026322D01*
X127538429Y-54208311D01*
X127500000Y-54401509D01*
X127500000Y-54598491D01*
X127538429Y-54791689D01*
X127613811Y-54973678D01*
X127631399Y-55000000D01*
X127613811Y-55026322D01*
X127538429Y-55208311D01*
X127500000Y-55401509D01*
X127500000Y-55598491D01*
X127538429Y-55791689D01*
X127613811Y-55973678D01*
X127631399Y-56000000D01*
X127613811Y-56026322D01*
X127538429Y-56208311D01*
X127530137Y-56250000D01*
X127401509Y-56250000D01*
X127208311Y-56288429D01*
X127026322Y-56363811D01*
X127000000Y-56381399D01*
X126973678Y-56363811D01*
X126791689Y-56288429D01*
X126598491Y-56250000D01*
X126401509Y-56250000D01*
X126208311Y-56288429D01*
X126026322Y-56363811D01*
X126000000Y-56381399D01*
X125973678Y-56363811D01*
X125791689Y-56288429D01*
X125598491Y-56250000D01*
X125401509Y-56250000D01*
X125208311Y-56288429D01*
X125026322Y-56363811D01*
X125000000Y-56381399D01*
X124973678Y-56363811D01*
X124791689Y-56288429D01*
X124598491Y-56250000D01*
X124401509Y-56250000D01*
X124208311Y-56288429D01*
X124026322Y-56363811D01*
X123862537Y-56473249D01*
X123723249Y-56612537D01*
X123613811Y-56776322D01*
X123538429Y-56958311D01*
X123500000Y-57151509D01*
X115762705Y-57151509D01*
X115776751Y-57137463D01*
X115886189Y-56973678D01*
X115961571Y-56791689D01*
X116000000Y-56598491D01*
X116000000Y-56401509D01*
X115961571Y-56208311D01*
X115886189Y-56026322D01*
X115868601Y-56000000D01*
X115886189Y-55973678D01*
X115961571Y-55791689D01*
X116000000Y-55598491D01*
X116000000Y-55401509D01*
X115961571Y-55208311D01*
X115886189Y-55026322D01*
X115868601Y-55000000D01*
X115886189Y-54973678D01*
X115916082Y-54901509D01*
X116750000Y-54901509D01*
X116750000Y-55098491D01*
X116788429Y-55291689D01*
X116863811Y-55473678D01*
X116973249Y-55637463D01*
X117112537Y-55776751D01*
X117276322Y-55886189D01*
X117458311Y-55961571D01*
X117651509Y-56000000D01*
X117848491Y-56000000D01*
X118041689Y-55961571D01*
X118223678Y-55886189D01*
X118387463Y-55776751D01*
X118526751Y-55637463D01*
X118636189Y-55473678D01*
X118711571Y-55291689D01*
X118750000Y-55098491D01*
X118750000Y-54901509D01*
X120000000Y-54901509D01*
X120000000Y-55098491D01*
X120038429Y-55291689D01*
X120113811Y-55473678D01*
X120223249Y-55637463D01*
X120362537Y-55776751D01*
X120526322Y-55886189D01*
X120708311Y-55961571D01*
X120901509Y-56000000D01*
X121098491Y-56000000D01*
X121291689Y-55961571D01*
X121473678Y-55886189D01*
X121637463Y-55776751D01*
X121776751Y-55637463D01*
X121886189Y-55473678D01*
X121961571Y-55291689D01*
X122000000Y-55098491D01*
X122000000Y-54901509D01*
X121961571Y-54708311D01*
X121886189Y-54526322D01*
X121776751Y-54362537D01*
X121637463Y-54223249D01*
X121473678Y-54113811D01*
X121291689Y-54038429D01*
X121098491Y-54000000D01*
X120901509Y-54000000D01*
X120708311Y-54038429D01*
X120526322Y-54113811D01*
X120362537Y-54223249D01*
X120223249Y-54362537D01*
X120113811Y-54526322D01*
X120038429Y-54708311D01*
X120000000Y-54901509D01*
X118750000Y-54901509D01*
X118711571Y-54708311D01*
X118636189Y-54526322D01*
X118526751Y-54362537D01*
X118387463Y-54223249D01*
X118223678Y-54113811D01*
X118041689Y-54038429D01*
X117848491Y-54000000D01*
X117651509Y-54000000D01*
X117458311Y-54038429D01*
X117276322Y-54113811D01*
X117112537Y-54223249D01*
X116973249Y-54362537D01*
X116863811Y-54526322D01*
X116788429Y-54708311D01*
X116750000Y-54901509D01*
X115916082Y-54901509D01*
X115961571Y-54791689D01*
X116000000Y-54598491D01*
X116000000Y-54401509D01*
X115961571Y-54208311D01*
X115886189Y-54026322D01*
X115868601Y-54000000D01*
X115886189Y-53973678D01*
X115961571Y-53791689D01*
X116000000Y-53598491D01*
X116000000Y-53401509D01*
X115961571Y-53208311D01*
X115886189Y-53026322D01*
X115868601Y-53000000D01*
X115886189Y-52973678D01*
X115961571Y-52791689D01*
X116000000Y-52598491D01*
X116000000Y-52401509D01*
X115961571Y-52208311D01*
X115886189Y-52026322D01*
X115868601Y-52000000D01*
X115886189Y-51973678D01*
X115961571Y-51791689D01*
X116000000Y-51598491D01*
X116000000Y-51401509D01*
X115961571Y-51208311D01*
X115886189Y-51026322D01*
X115868601Y-51000000D01*
X115886189Y-50973678D01*
X115961571Y-50791689D01*
X116000000Y-50598491D01*
X116000000Y-50401509D01*
X115961571Y-50208311D01*
X115886189Y-50026322D01*
X115868601Y-50000000D01*
X115886189Y-49973678D01*
X115961571Y-49791689D01*
X116000000Y-49598491D01*
X116000000Y-49401509D01*
X115961571Y-49208311D01*
X115886189Y-49026322D01*
X115868601Y-49000000D01*
X115886189Y-48973678D01*
X115961571Y-48791689D01*
X116000000Y-48598491D01*
X116000000Y-48401509D01*
X115961571Y-48208311D01*
X115886189Y-48026322D01*
X115868601Y-48000000D01*
X115886189Y-47973678D01*
X115961571Y-47791689D01*
X116000000Y-47598491D01*
X116000000Y-47401509D01*
X115961571Y-47208311D01*
X115886189Y-47026322D01*
X115776751Y-46862537D01*
X115637463Y-46723249D01*
X115473678Y-46613811D01*
X115291689Y-46538429D01*
X115098491Y-46500000D01*
X115291689Y-46461571D01*
X115473678Y-46386189D01*
X115637463Y-46276751D01*
X115776751Y-46137463D01*
X115886189Y-45973678D01*
X115961571Y-45791689D01*
X116000000Y-45598491D01*
X116000000Y-45401509D01*
X123500000Y-45401509D01*
X123500000Y-45598491D01*
X123538429Y-45791689D01*
X123613811Y-45973678D01*
X123723249Y-46137463D01*
X123862537Y-46276751D01*
X124026322Y-46386189D01*
X124208311Y-46461571D01*
X124401509Y-46500000D01*
X124598491Y-46500000D01*
X124791689Y-46461571D01*
X124973678Y-46386189D01*
X125000000Y-46368601D01*
X125026322Y-46386189D01*
X125208311Y-46461571D01*
X125401509Y-46500000D01*
X125598491Y-46500000D01*
X125791689Y-46461571D01*
X125973678Y-46386189D01*
X126000000Y-46368601D01*
X126026322Y-46386189D01*
X126208311Y-46461571D01*
X126401509Y-46500000D01*
X126598491Y-46500000D01*
X126791689Y-46461571D01*
X126973678Y-46386189D01*
X127000000Y-46368601D01*
X127026322Y-46386189D01*
X127208311Y-46461571D01*
X127401509Y-46500000D01*
X127598491Y-46500000D01*
X127791689Y-46461571D01*
X127973678Y-46386189D01*
X128137463Y-46276751D01*
X128276751Y-46137463D01*
X128386189Y-45973678D01*
X128461571Y-45791689D01*
X128500000Y-45598491D01*
X128500000Y-45401509D01*
X137000000Y-45401509D01*
X137000000Y-45598491D01*
X137038429Y-45791689D01*
X137113811Y-45973678D01*
X137223249Y-46137463D01*
X137362537Y-46276751D01*
X137526322Y-46386189D01*
X137708311Y-46461571D01*
X137901509Y-46500000D01*
X138098491Y-46500000D01*
X138291689Y-46461571D01*
X138473678Y-46386189D01*
X138500000Y-46368601D01*
X138526322Y-46386189D01*
X138708311Y-46461571D01*
X138901509Y-46500000D01*
X139098491Y-46500000D01*
X139291689Y-46461571D01*
X139473678Y-46386189D01*
X139500000Y-46368601D01*
X139526322Y-46386189D01*
X139708311Y-46461571D01*
X139901509Y-46500000D01*
X140098491Y-46500000D01*
X140291689Y-46461571D01*
X140473678Y-46386189D01*
X140500000Y-46368601D01*
X140526322Y-46386189D01*
X140708311Y-46461571D01*
X140901509Y-46500000D01*
X141098491Y-46500000D01*
X141291689Y-46461571D01*
X141473678Y-46386189D01*
X141637463Y-46276751D01*
X141776751Y-46137463D01*
X141886189Y-45973678D01*
X141961571Y-45791689D01*
X142000000Y-45598491D01*
X142000000Y-45401509D01*
X150500000Y-45401509D01*
X150500000Y-45598491D01*
X150538429Y-45791689D01*
X150613811Y-45973678D01*
X150723249Y-46137463D01*
X150862537Y-46276751D01*
X151026322Y-46386189D01*
X151208311Y-46461571D01*
X151401509Y-46500000D01*
X151598491Y-46500000D01*
X151791689Y-46461571D01*
X151973678Y-46386189D01*
X152000000Y-46368601D01*
X152026322Y-46386189D01*
X152208311Y-46461571D01*
X152401509Y-46500000D01*
X152598491Y-46500000D01*
X152791689Y-46461571D01*
X152973678Y-46386189D01*
X153000000Y-46368601D01*
X153026322Y-46386189D01*
X153208311Y-46461571D01*
X153401509Y-46500000D01*
X153598491Y-46500000D01*
X153791689Y-46461571D01*
X153973678Y-46386189D01*
X154000000Y-46368601D01*
X154026322Y-46386189D01*
X154208311Y-46461571D01*
X154401509Y-46500000D01*
X154598491Y-46500000D01*
X154791689Y-46461571D01*
X154973678Y-46386189D01*
X155137463Y-46276751D01*
X155276751Y-46137463D01*
X155386189Y-45973678D01*
X155461571Y-45791689D01*
X155500000Y-45598491D01*
X155500000Y-45401509D01*
X164000000Y-45401509D01*
X164000000Y-45598491D01*
X164038429Y-45791689D01*
X164113811Y-45973678D01*
X164223249Y-46137463D01*
X164362537Y-46276751D01*
X164526322Y-46386189D01*
X164708311Y-46461571D01*
X164901509Y-46500000D01*
X165098491Y-46500000D01*
X165291689Y-46461571D01*
X165473678Y-46386189D01*
X165500000Y-46368601D01*
X165526322Y-46386189D01*
X165708311Y-46461571D01*
X165901509Y-46500000D01*
X166098491Y-46500000D01*
X166291689Y-46461571D01*
X166473678Y-46386189D01*
X166500000Y-46368601D01*
X166526322Y-46386189D01*
X166708311Y-46461571D01*
X166901509Y-46500000D01*
X167098491Y-46500000D01*
X167291689Y-46461571D01*
X167473678Y-46386189D01*
X167637463Y-46276751D01*
X167776751Y-46137463D01*
X167886189Y-45973678D01*
X167961571Y-45791689D01*
X168000000Y-45598491D01*
X168000000Y-45401509D01*
X167961571Y-45208311D01*
X167886189Y-45026322D01*
X167776751Y-44862537D01*
X167637463Y-44723249D01*
X167473678Y-44613811D01*
X167291689Y-44538429D01*
X167098491Y-44500000D01*
X166901509Y-44500000D01*
X166708311Y-44538429D01*
X166526322Y-44613811D01*
X166500000Y-44631399D01*
X166473678Y-44613811D01*
X166291689Y-44538429D01*
X166098491Y-44500000D01*
X165901509Y-44500000D01*
X165708311Y-44538429D01*
X165526322Y-44613811D01*
X165500000Y-44631399D01*
X165473678Y-44613811D01*
X165291689Y-44538429D01*
X165098491Y-44500000D01*
X164901509Y-44500000D01*
X164708311Y-44538429D01*
X164526322Y-44613811D01*
X164362537Y-44723249D01*
X164223249Y-44862537D01*
X164113811Y-45026322D01*
X164038429Y-45208311D01*
X164000000Y-45401509D01*
X155500000Y-45401509D01*
X155461571Y-45208311D01*
X155386189Y-45026322D01*
X155276751Y-44862537D01*
X155137463Y-44723249D01*
X154973678Y-44613811D01*
X154791689Y-44538429D01*
X154598491Y-44500000D01*
X154401509Y-44500000D01*
X154208311Y-44538429D01*
X154026322Y-44613811D01*
X154000000Y-44631399D01*
X153973678Y-44613811D01*
X153791689Y-44538429D01*
X153598491Y-44500000D01*
X153401509Y-44500000D01*
X153208311Y-44538429D01*
X153026322Y-44613811D01*
X153000000Y-44631399D01*
X152973678Y-44613811D01*
X152791689Y-44538429D01*
X152598491Y-44500000D01*
X152401509Y-44500000D01*
X152208311Y-44538429D01*
X152026322Y-44613811D01*
X152000000Y-44631399D01*
X151973678Y-44613811D01*
X151791689Y-44538429D01*
X151598491Y-44500000D01*
X151401509Y-44500000D01*
X151208311Y-44538429D01*
X151026322Y-44613811D01*
X150862537Y-44723249D01*
X150723249Y-44862537D01*
X150613811Y-45026322D01*
X150538429Y-45208311D01*
X150500000Y-45401509D01*
X142000000Y-45401509D01*
X141961571Y-45208311D01*
X141886189Y-45026322D01*
X141776751Y-44862537D01*
X141637463Y-44723249D01*
X141473678Y-44613811D01*
X141291689Y-44538429D01*
X141098491Y-44500000D01*
X140901509Y-44500000D01*
X140708311Y-44538429D01*
X140526322Y-44613811D01*
X140500000Y-44631399D01*
X140473678Y-44613811D01*
X140291689Y-44538429D01*
X140098491Y-44500000D01*
X139901509Y-44500000D01*
X139708311Y-44538429D01*
X139526322Y-44613811D01*
X139500000Y-44631399D01*
X139473678Y-44613811D01*
X139291689Y-44538429D01*
X139098491Y-44500000D01*
X138901509Y-44500000D01*
X138708311Y-44538429D01*
X138526322Y-44613811D01*
X138500000Y-44631399D01*
X138473678Y-44613811D01*
X138291689Y-44538429D01*
X138098491Y-44500000D01*
X137901509Y-44500000D01*
X137708311Y-44538429D01*
X137526322Y-44613811D01*
X137362537Y-44723249D01*
X137223249Y-44862537D01*
X137113811Y-45026322D01*
X137038429Y-45208311D01*
X137000000Y-45401509D01*
X128500000Y-45401509D01*
X128461571Y-45208311D01*
X128386189Y-45026322D01*
X128276751Y-44862537D01*
X128137463Y-44723249D01*
X127973678Y-44613811D01*
X127791689Y-44538429D01*
X127598491Y-44500000D01*
X127401509Y-44500000D01*
X127208311Y-44538429D01*
X127026322Y-44613811D01*
X127000000Y-44631399D01*
X126973678Y-44613811D01*
X126791689Y-44538429D01*
X126598491Y-44500000D01*
X126401509Y-44500000D01*
X126208311Y-44538429D01*
X126026322Y-44613811D01*
X126000000Y-44631399D01*
X125973678Y-44613811D01*
X125791689Y-44538429D01*
X125598491Y-44500000D01*
X125401509Y-44500000D01*
X125208311Y-44538429D01*
X125026322Y-44613811D01*
X125000000Y-44631399D01*
X124973678Y-44613811D01*
X124791689Y-44538429D01*
X124598491Y-44500000D01*
X124401509Y-44500000D01*
X124208311Y-44538429D01*
X124026322Y-44613811D01*
X123862537Y-44723249D01*
X123723249Y-44862537D01*
X123613811Y-45026322D01*
X123538429Y-45208311D01*
X123500000Y-45401509D01*
X116000000Y-45401509D01*
X115961571Y-45208311D01*
X115886189Y-45026322D01*
X115868601Y-45000000D01*
X115886189Y-44973678D01*
X115961571Y-44791689D01*
X116000000Y-44598491D01*
X116000000Y-44401509D01*
X115961571Y-44208311D01*
X115886189Y-44026322D01*
X115868601Y-44000000D01*
X115886189Y-43973678D01*
X115961571Y-43791689D01*
X116000000Y-43598491D01*
X116000000Y-43401509D01*
X115961571Y-43208311D01*
X115886189Y-43026322D01*
X115868601Y-43000000D01*
X115886189Y-42973678D01*
X115945702Y-42830000D01*
X116297097Y-42830000D01*
X116308682Y-42947621D01*
X116342990Y-43060721D01*
X116398704Y-43164955D01*
X116473683Y-43256317D01*
X116565045Y-43331296D01*
X116669279Y-43387010D01*
X116782379Y-43421318D01*
X116900000Y-43432903D01*
X117575000Y-43430000D01*
X117725000Y-43280000D01*
X117725000Y-42005000D01*
X116450000Y-42005000D01*
X116300000Y-42155000D01*
X116297097Y-42830000D01*
X115945702Y-42830000D01*
X115961571Y-42791689D01*
X116000000Y-42598491D01*
X116000000Y-42401509D01*
X115961571Y-42208311D01*
X115886189Y-42026322D01*
X115776751Y-41862537D01*
X115637463Y-41723249D01*
X115473678Y-41613811D01*
X115291689Y-41538429D01*
X115250000Y-41530137D01*
X115250000Y-41401509D01*
X115211571Y-41208311D01*
X115136189Y-41026322D01*
X115085192Y-40950000D01*
X116327604Y-40950000D01*
X116308682Y-41012379D01*
X116297097Y-41130000D01*
X116300000Y-41805000D01*
X116450000Y-41955000D01*
X117725000Y-41955000D01*
X117725000Y-41935000D01*
X117775000Y-41935000D01*
X117775000Y-41955000D01*
X117795000Y-41955000D01*
X117795000Y-42005000D01*
X117775000Y-42005000D01*
X117775000Y-43280000D01*
X117925000Y-43430000D01*
X118600000Y-43432903D01*
X118717621Y-43421318D01*
X118830721Y-43387010D01*
X118934955Y-43331296D01*
X119020000Y-43261501D01*
X119105045Y-43331296D01*
X119209279Y-43387010D01*
X119322379Y-43421318D01*
X119440000Y-43432903D01*
X121140000Y-43432903D01*
X121257621Y-43421318D01*
X121370721Y-43387010D01*
X121474955Y-43331296D01*
X121560000Y-43261501D01*
X121645045Y-43331296D01*
X121749279Y-43387010D01*
X121862379Y-43421318D01*
X121980000Y-43432903D01*
X123680000Y-43432903D01*
X123797621Y-43421318D01*
X123910721Y-43387010D01*
X124014955Y-43331296D01*
X124100000Y-43261501D01*
X124185045Y-43331296D01*
X124289279Y-43387010D01*
X124402379Y-43421318D01*
X124520000Y-43432903D01*
X126220000Y-43432903D01*
X126337621Y-43421318D01*
X126450721Y-43387010D01*
X126554955Y-43331296D01*
X126640000Y-43261501D01*
X126725045Y-43331296D01*
X126829279Y-43387010D01*
X126942379Y-43421318D01*
X127060000Y-43432903D01*
X128760000Y-43432903D01*
X128877621Y-43421318D01*
X128990721Y-43387010D01*
X129094955Y-43331296D01*
X129180000Y-43261501D01*
X129265045Y-43331296D01*
X129369279Y-43387010D01*
X129482379Y-43421318D01*
X129600000Y-43432903D01*
X131300000Y-43432903D01*
X131417621Y-43421318D01*
X131530721Y-43387010D01*
X131634955Y-43331296D01*
X131720000Y-43261501D01*
X131805045Y-43331296D01*
X131909279Y-43387010D01*
X132022379Y-43421318D01*
X132140000Y-43432903D01*
X133840000Y-43432903D01*
X133957621Y-43421318D01*
X134070721Y-43387010D01*
X134174955Y-43331296D01*
X134260000Y-43261501D01*
X134345045Y-43331296D01*
X134449279Y-43387010D01*
X134562379Y-43421318D01*
X134680000Y-43432903D01*
X136380000Y-43432903D01*
X136497621Y-43421318D01*
X136610721Y-43387010D01*
X136714955Y-43331296D01*
X136800000Y-43261501D01*
X136885045Y-43331296D01*
X136989279Y-43387010D01*
X137102379Y-43421318D01*
X137220000Y-43432903D01*
X138920000Y-43432903D01*
X139037621Y-43421318D01*
X139150721Y-43387010D01*
X139254955Y-43331296D01*
X139340000Y-43261501D01*
X139425045Y-43331296D01*
X139529279Y-43387010D01*
X139642379Y-43421318D01*
X139760000Y-43432903D01*
X141460000Y-43432903D01*
X141577621Y-43421318D01*
X141690721Y-43387010D01*
X141794955Y-43331296D01*
X141880000Y-43261501D01*
X141965045Y-43331296D01*
X142069279Y-43387010D01*
X142182379Y-43421318D01*
X142300000Y-43432903D01*
X144000000Y-43432903D01*
X144117621Y-43421318D01*
X144230721Y-43387010D01*
X144334955Y-43331296D01*
X144420000Y-43261501D01*
X144505045Y-43331296D01*
X144609279Y-43387010D01*
X144722379Y-43421318D01*
X144840000Y-43432903D01*
X146540000Y-43432903D01*
X146657621Y-43421318D01*
X146770721Y-43387010D01*
X146874955Y-43331296D01*
X146960000Y-43261501D01*
X147045045Y-43331296D01*
X147149279Y-43387010D01*
X147262379Y-43421318D01*
X147380000Y-43432903D01*
X149080000Y-43432903D01*
X149197621Y-43421318D01*
X149310721Y-43387010D01*
X149414955Y-43331296D01*
X149500000Y-43261501D01*
X149585045Y-43331296D01*
X149689279Y-43387010D01*
X149802379Y-43421318D01*
X149920000Y-43432903D01*
X151620000Y-43432903D01*
X151737621Y-43421318D01*
X151850721Y-43387010D01*
X151954955Y-43331296D01*
X152040000Y-43261501D01*
X152125045Y-43331296D01*
X152229279Y-43387010D01*
X152342379Y-43421318D01*
X152460000Y-43432903D01*
X154160000Y-43432903D01*
X154277621Y-43421318D01*
X154390721Y-43387010D01*
X154494955Y-43331296D01*
X154580000Y-43261501D01*
X154665045Y-43331296D01*
X154769279Y-43387010D01*
X154882379Y-43421318D01*
X155000000Y-43432903D01*
X156700000Y-43432903D01*
X156817621Y-43421318D01*
X156930721Y-43387010D01*
X157034955Y-43331296D01*
X157120000Y-43261501D01*
X157205045Y-43331296D01*
X157309279Y-43387010D01*
X157422379Y-43421318D01*
X157540000Y-43432903D01*
X159240000Y-43432903D01*
X159357621Y-43421318D01*
X159470721Y-43387010D01*
X159574955Y-43331296D01*
X159660000Y-43261501D01*
X159745045Y-43331296D01*
X159849279Y-43387010D01*
X159962379Y-43421318D01*
X160080000Y-43432903D01*
X161780000Y-43432903D01*
X161897621Y-43421318D01*
X162010721Y-43387010D01*
X162114955Y-43331296D01*
X162200000Y-43261501D01*
X162285045Y-43331296D01*
X162389279Y-43387010D01*
X162502379Y-43421318D01*
X162620000Y-43432903D01*
X164320000Y-43432903D01*
X164437621Y-43421318D01*
X164550721Y-43387010D01*
X164654955Y-43331296D01*
X164740000Y-43261501D01*
X164825045Y-43331296D01*
X164929279Y-43387010D01*
X165042379Y-43421318D01*
X165160000Y-43432903D01*
X166860000Y-43432903D01*
X166977621Y-43421318D01*
X167090721Y-43387010D01*
X167194955Y-43331296D01*
X167286317Y-43256317D01*
X167361296Y-43164955D01*
X167417010Y-43060721D01*
X167451318Y-42947621D01*
X167462903Y-42830000D01*
X167462903Y-41130000D01*
X167451318Y-41012379D01*
X167432396Y-40950000D01*
X168800001Y-40950000D01*
X168800001Y-54147332D01*
X168776751Y-54112537D01*
X168637463Y-53973249D01*
X168473678Y-53863811D01*
X168291689Y-53788429D01*
X168098491Y-53750000D01*
X167901509Y-53750000D01*
X167708311Y-53788429D01*
X167526322Y-53863811D01*
X167500000Y-53881399D01*
X167473678Y-53863811D01*
X167291689Y-53788429D01*
X167098491Y-53750000D01*
X166901509Y-53750000D01*
X166708311Y-53788429D01*
X166526322Y-53863811D01*
X166500000Y-53881399D01*
X166473678Y-53863811D01*
X166291689Y-53788429D01*
X166098491Y-53750000D01*
X165901509Y-53750000D01*
X165708311Y-53788429D01*
X165526322Y-53863811D01*
X165500000Y-53881399D01*
X165473678Y-53863811D01*
X165291689Y-53788429D01*
X165098491Y-53750000D01*
X164901509Y-53750000D01*
X164708311Y-53788429D01*
X164526322Y-53863811D01*
X164362537Y-53973249D01*
X164223249Y-54112537D01*
X164113811Y-54276322D01*
X164038429Y-54458311D01*
X164000000Y-54651509D01*
X164000000Y-54848491D01*
X164038429Y-55041689D01*
X164113811Y-55223678D01*
X164223249Y-55387463D01*
X164362537Y-55526751D01*
X164526322Y-55636189D01*
X164708311Y-55711571D01*
X164901509Y-55750000D01*
X165098491Y-55750000D01*
X165291689Y-55711571D01*
X165473678Y-55636189D01*
X165500000Y-55618601D01*
X165526322Y-55636189D01*
X165708311Y-55711571D01*
X165901509Y-55750000D01*
X166098491Y-55750000D01*
X166291689Y-55711571D01*
X166473678Y-55636189D01*
X166500000Y-55618601D01*
X166526322Y-55636189D01*
X166708311Y-55711571D01*
X166901509Y-55750000D01*
X167098491Y-55750000D01*
X167291689Y-55711571D01*
X167473678Y-55636189D01*
X167500000Y-55618601D01*
X167517588Y-55630353D01*
X167313167Y-55715027D01*
X167075679Y-55873711D01*
X166873711Y-56075679D01*
X166715027Y-56313167D01*
X166605723Y-56577051D01*
X166550000Y-56857187D01*
X166550000Y-57142813D01*
X166605723Y-57422949D01*
X166715027Y-57686833D01*
X166873711Y-57924321D01*
X167046665Y-58097275D01*
X167032379Y-58098682D01*
X166919279Y-58132990D01*
X166815045Y-58188704D01*
X166723683Y-58263683D01*
X166648704Y-58355045D01*
X166592990Y-58459279D01*
X166558682Y-58572379D01*
X166547097Y-58690000D01*
X166547097Y-60390000D01*
X166558682Y-60507621D01*
X166592990Y-60620721D01*
X166648704Y-60724955D01*
X166718499Y-60810000D01*
X166648704Y-60895045D01*
X166592990Y-60999279D01*
X166558682Y-61112379D01*
X166547097Y-61230000D01*
X166547097Y-62930000D01*
X166558682Y-63047621D01*
X166592990Y-63160721D01*
X166648704Y-63264955D01*
X166718499Y-63350000D01*
X166648704Y-63435045D01*
X166592990Y-63539279D01*
X166558682Y-63652379D01*
X166547097Y-63770000D01*
X166550000Y-64445000D01*
X166700000Y-64595000D01*
X167975000Y-64595000D01*
X167975000Y-64575000D01*
X168025000Y-64575000D01*
X168025000Y-64595000D01*
X168045000Y-64595000D01*
X168045000Y-64645000D01*
X168025000Y-64645000D01*
X168025000Y-65920000D01*
X168175000Y-66070000D01*
X168800000Y-66072688D01*
X168800000Y-66797312D01*
X168175000Y-66800000D01*
X168025000Y-66950000D01*
X168025000Y-68225000D01*
X168045000Y-68225000D01*
X168045000Y-68275000D01*
X168025000Y-68275000D01*
X168025000Y-68295000D01*
X167975000Y-68295000D01*
X167975000Y-68275000D01*
X166700000Y-68275000D01*
X166550000Y-68425000D01*
X166547097Y-69100000D01*
X166558682Y-69217621D01*
X166592990Y-69330721D01*
X166648704Y-69434955D01*
X166723683Y-69526317D01*
X166815045Y-69601296D01*
X166919279Y-69657010D01*
X167032379Y-69691318D01*
X167046665Y-69692725D01*
X166873711Y-69865679D01*
X166715027Y-70103167D01*
X166605723Y-70367051D01*
X166550000Y-70647187D01*
X166550000Y-70932813D01*
X166605723Y-71212949D01*
X166715027Y-71476833D01*
X166873711Y-71714321D01*
X167075679Y-71916289D01*
X167313167Y-72074973D01*
X167577051Y-72184277D01*
X167857187Y-72240000D01*
X168142813Y-72240000D01*
X168422949Y-72184277D01*
X168686833Y-72074973D01*
X168800000Y-71999357D01*
X168800000Y-80550000D01*
X134911715Y-80550000D01*
X134923053Y-80528788D01*
X134946072Y-80452903D01*
X134964509Y-80392125D01*
X134975000Y-80285607D01*
X134975000Y-80285597D01*
X134978506Y-80250000D01*
X134975000Y-80214403D01*
X134975000Y-78901509D01*
X151250000Y-78901509D01*
X151250000Y-79098491D01*
X151288429Y-79291689D01*
X151363811Y-79473678D01*
X151473249Y-79637463D01*
X151612537Y-79776751D01*
X151776322Y-79886189D01*
X151958311Y-79961571D01*
X152151509Y-80000000D01*
X152348491Y-80000000D01*
X152541689Y-79961571D01*
X152723678Y-79886189D01*
X152887463Y-79776751D01*
X153026751Y-79637463D01*
X153136189Y-79473678D01*
X153211571Y-79291689D01*
X153250000Y-79098491D01*
X153250000Y-78901509D01*
X155000000Y-78901509D01*
X155000000Y-79098491D01*
X155038429Y-79291689D01*
X155113811Y-79473678D01*
X155223249Y-79637463D01*
X155362537Y-79776751D01*
X155526322Y-79886189D01*
X155708311Y-79961571D01*
X155901509Y-80000000D01*
X156098491Y-80000000D01*
X156291689Y-79961571D01*
X156473678Y-79886189D01*
X156637463Y-79776751D01*
X156776751Y-79637463D01*
X156886189Y-79473678D01*
X156961571Y-79291689D01*
X157000000Y-79098491D01*
X157000000Y-78901509D01*
X156961571Y-78708311D01*
X156886189Y-78526322D01*
X156776751Y-78362537D01*
X156637463Y-78223249D01*
X156473678Y-78113811D01*
X156291689Y-78038429D01*
X156098491Y-78000000D01*
X155901509Y-78000000D01*
X155708311Y-78038429D01*
X155526322Y-78113811D01*
X155362537Y-78223249D01*
X155223249Y-78362537D01*
X155113811Y-78526322D01*
X155038429Y-78708311D01*
X155000000Y-78901509D01*
X153250000Y-78901509D01*
X153211571Y-78708311D01*
X153136189Y-78526322D01*
X153026751Y-78362537D01*
X152887463Y-78223249D01*
X152723678Y-78113811D01*
X152541689Y-78038429D01*
X152348491Y-78000000D01*
X152151509Y-78000000D01*
X151958311Y-78038429D01*
X151776322Y-78113811D01*
X151612537Y-78223249D01*
X151473249Y-78362537D01*
X151363811Y-78526322D01*
X151288429Y-78708311D01*
X151250000Y-78901509D01*
X134975000Y-78901509D01*
X134975000Y-77401509D01*
X137750000Y-77401509D01*
X137750000Y-77598491D01*
X137788429Y-77791689D01*
X137863811Y-77973678D01*
X137973249Y-78137463D01*
X138112537Y-78276751D01*
X138276322Y-78386189D01*
X138458311Y-78461571D01*
X138651509Y-78500000D01*
X138848491Y-78500000D01*
X139041689Y-78461571D01*
X139223678Y-78386189D01*
X139387463Y-78276751D01*
X139526751Y-78137463D01*
X139636189Y-77973678D01*
X139711571Y-77791689D01*
X139750000Y-77598491D01*
X139750000Y-77401509D01*
X139711571Y-77208311D01*
X139636189Y-77026322D01*
X139526751Y-76862537D01*
X139387463Y-76723249D01*
X139223678Y-76613811D01*
X139041689Y-76538429D01*
X138848491Y-76500000D01*
X138651509Y-76500000D01*
X138458311Y-76538429D01*
X138276322Y-76613811D01*
X138112537Y-76723249D01*
X137973249Y-76862537D01*
X137863811Y-77026322D01*
X137788429Y-77208311D01*
X137750000Y-77401509D01*
X134975000Y-77401509D01*
X134975000Y-76452903D01*
X136380000Y-76452903D01*
X136497621Y-76441318D01*
X136610721Y-76407010D01*
X136714955Y-76351296D01*
X136800000Y-76281501D01*
X136885045Y-76351296D01*
X136989279Y-76407010D01*
X137102379Y-76441318D01*
X137220000Y-76452903D01*
X138920000Y-76452903D01*
X139037621Y-76441318D01*
X139150721Y-76407010D01*
X139254955Y-76351296D01*
X139340000Y-76281501D01*
X139425045Y-76351296D01*
X139529279Y-76407010D01*
X139642379Y-76441318D01*
X139760000Y-76452903D01*
X141460000Y-76452903D01*
X141577621Y-76441318D01*
X141690721Y-76407010D01*
X141794955Y-76351296D01*
X141880000Y-76281501D01*
X141965045Y-76351296D01*
X142069279Y-76407010D01*
X142182379Y-76441318D01*
X142300000Y-76452903D01*
X144000000Y-76452903D01*
X144117621Y-76441318D01*
X144230721Y-76407010D01*
X144334955Y-76351296D01*
X144420000Y-76281501D01*
X144505045Y-76351296D01*
X144609279Y-76407010D01*
X144722379Y-76441318D01*
X144840000Y-76452903D01*
X146540000Y-76452903D01*
X146657621Y-76441318D01*
X146770721Y-76407010D01*
X146874955Y-76351296D01*
X146960000Y-76281501D01*
X147045045Y-76351296D01*
X147149279Y-76407010D01*
X147262379Y-76441318D01*
X147380000Y-76452903D01*
X149080000Y-76452903D01*
X149197621Y-76441318D01*
X149310721Y-76407010D01*
X149414955Y-76351296D01*
X149500000Y-76281501D01*
X149585045Y-76351296D01*
X149689279Y-76407010D01*
X149802379Y-76441318D01*
X149920000Y-76452903D01*
X151620000Y-76452903D01*
X151737621Y-76441318D01*
X151850721Y-76407010D01*
X151954955Y-76351296D01*
X152040000Y-76281501D01*
X152125045Y-76351296D01*
X152229279Y-76407010D01*
X152342379Y-76441318D01*
X152460000Y-76452903D01*
X154160000Y-76452903D01*
X154277621Y-76441318D01*
X154390721Y-76407010D01*
X154494955Y-76351296D01*
X154580000Y-76281501D01*
X154665045Y-76351296D01*
X154769279Y-76407010D01*
X154882379Y-76441318D01*
X155000000Y-76452903D01*
X156700000Y-76452903D01*
X156817621Y-76441318D01*
X156930721Y-76407010D01*
X157034955Y-76351296D01*
X157120000Y-76281501D01*
X157205045Y-76351296D01*
X157309279Y-76407010D01*
X157422379Y-76441318D01*
X157540000Y-76452903D01*
X159240000Y-76452903D01*
X159357621Y-76441318D01*
X159470721Y-76407010D01*
X159574955Y-76351296D01*
X159660000Y-76281501D01*
X159745045Y-76351296D01*
X159849279Y-76407010D01*
X159962379Y-76441318D01*
X160080000Y-76452903D01*
X161780000Y-76452903D01*
X161897621Y-76441318D01*
X162010721Y-76407010D01*
X162114955Y-76351296D01*
X162200000Y-76281501D01*
X162285045Y-76351296D01*
X162389279Y-76407010D01*
X162502379Y-76441318D01*
X162620000Y-76452903D01*
X164320000Y-76452903D01*
X164437621Y-76441318D01*
X164550721Y-76407010D01*
X164654955Y-76351296D01*
X164740000Y-76281501D01*
X164825045Y-76351296D01*
X164929279Y-76407010D01*
X165042379Y-76441318D01*
X165160000Y-76452903D01*
X166860000Y-76452903D01*
X166977621Y-76441318D01*
X167090721Y-76407010D01*
X167194955Y-76351296D01*
X167286317Y-76276317D01*
X167361296Y-76184955D01*
X167417010Y-76080721D01*
X167451318Y-75967621D01*
X167462903Y-75850000D01*
X167462903Y-74150000D01*
X167451318Y-74032379D01*
X167417010Y-73919279D01*
X167361296Y-73815045D01*
X167286317Y-73723683D01*
X167194955Y-73648704D01*
X167090721Y-73592990D01*
X166977621Y-73558682D01*
X166860000Y-73547097D01*
X165160000Y-73547097D01*
X165042379Y-73558682D01*
X164929279Y-73592990D01*
X164825045Y-73648704D01*
X164740000Y-73718499D01*
X164654955Y-73648704D01*
X164550721Y-73592990D01*
X164437621Y-73558682D01*
X164320000Y-73547097D01*
X162620000Y-73547097D01*
X162502379Y-73558682D01*
X162389279Y-73592990D01*
X162285045Y-73648704D01*
X162200000Y-73718499D01*
X162114955Y-73648704D01*
X162010721Y-73592990D01*
X161897621Y-73558682D01*
X161780000Y-73547097D01*
X160080000Y-73547097D01*
X159962379Y-73558682D01*
X159849279Y-73592990D01*
X159745045Y-73648704D01*
X159660000Y-73718499D01*
X159574955Y-73648704D01*
X159470721Y-73592990D01*
X159357621Y-73558682D01*
X159240000Y-73547097D01*
X158459331Y-73547097D01*
X158461571Y-73541689D01*
X158500000Y-73348491D01*
X158500000Y-73151509D01*
X158461571Y-72958311D01*
X158386189Y-72776322D01*
X158276751Y-72612537D01*
X158137463Y-72473249D01*
X157973678Y-72363811D01*
X157791689Y-72288429D01*
X157598491Y-72250000D01*
X157401509Y-72250000D01*
X157208311Y-72288429D01*
X157026322Y-72363811D01*
X156862537Y-72473249D01*
X156723249Y-72612537D01*
X156613811Y-72776322D01*
X156538429Y-72958311D01*
X156500000Y-73151509D01*
X156500000Y-73348491D01*
X156538429Y-73541689D01*
X156540669Y-73547097D01*
X155000000Y-73547097D01*
X154882379Y-73558682D01*
X154769279Y-73592990D01*
X154665045Y-73648704D01*
X154580000Y-73718499D01*
X154494955Y-73648704D01*
X154390721Y-73592990D01*
X154277621Y-73558682D01*
X154160000Y-73547097D01*
X152460000Y-73547097D01*
X152342379Y-73558682D01*
X152229279Y-73592990D01*
X152125045Y-73648704D01*
X152040000Y-73718499D01*
X151954955Y-73648704D01*
X151850721Y-73592990D01*
X151737621Y-73558682D01*
X151620000Y-73547097D01*
X149920000Y-73547097D01*
X149802379Y-73558682D01*
X149689279Y-73592990D01*
X149585045Y-73648704D01*
X149500000Y-73718499D01*
X149414955Y-73648704D01*
X149310721Y-73592990D01*
X149197621Y-73558682D01*
X149080000Y-73547097D01*
X147380000Y-73547097D01*
X147262379Y-73558682D01*
X147149279Y-73592990D01*
X147045045Y-73648704D01*
X146960000Y-73718499D01*
X146874955Y-73648704D01*
X146770721Y-73592990D01*
X146657621Y-73558682D01*
X146540000Y-73547097D01*
X144840000Y-73547097D01*
X144722379Y-73558682D01*
X144609279Y-73592990D01*
X144505045Y-73648704D01*
X144420000Y-73718499D01*
X144334955Y-73648704D01*
X144230721Y-73592990D01*
X144117621Y-73558682D01*
X144000000Y-73547097D01*
X142300000Y-73547097D01*
X142182379Y-73558682D01*
X142069279Y-73592990D01*
X141965045Y-73648704D01*
X141880000Y-73718499D01*
X141794955Y-73648704D01*
X141690721Y-73592990D01*
X141577621Y-73558682D01*
X141460000Y-73547097D01*
X139760000Y-73547097D01*
X139642379Y-73558682D01*
X139529279Y-73592990D01*
X139425045Y-73648704D01*
X139340000Y-73718499D01*
X139254955Y-73648704D01*
X139150721Y-73592990D01*
X139037621Y-73558682D01*
X138920000Y-73547097D01*
X137220000Y-73547097D01*
X137102379Y-73558682D01*
X136989279Y-73592990D01*
X136885045Y-73648704D01*
X136800000Y-73718499D01*
X136714955Y-73648704D01*
X136610721Y-73592990D01*
X136497621Y-73558682D01*
X136380000Y-73547097D01*
X134816202Y-73547097D01*
X134787830Y-73512525D01*
X134787823Y-73512518D01*
X134765131Y-73484868D01*
X134737482Y-73462177D01*
X134287832Y-73012528D01*
X134265132Y-72984868D01*
X134154737Y-72894269D01*
X134028788Y-72826947D01*
X133892125Y-72785491D01*
X133785607Y-72775000D01*
X133785597Y-72775000D01*
X133750000Y-72771494D01*
X133714403Y-72775000D01*
X132550305Y-72775000D01*
X131919225Y-72143921D01*
X131961571Y-72041689D01*
X132000000Y-71848491D01*
X132000000Y-71651509D01*
X131961571Y-71458311D01*
X131886189Y-71276322D01*
X131776751Y-71112537D01*
X131637463Y-70973249D01*
X131473678Y-70863811D01*
X131291689Y-70788429D01*
X131116242Y-70753531D01*
X131136189Y-70723678D01*
X131211571Y-70541689D01*
X131224863Y-70474863D01*
X131291689Y-70461571D01*
X131473678Y-70386189D01*
X131637463Y-70276751D01*
X131776751Y-70137463D01*
X131886189Y-69973678D01*
X131961571Y-69791689D01*
X132000000Y-69598491D01*
X132000000Y-69401509D01*
X131961571Y-69208311D01*
X131886189Y-69026322D01*
X131802792Y-68901509D01*
X143599980Y-68901509D01*
X143599980Y-69098491D01*
X143638409Y-69291689D01*
X143713791Y-69473678D01*
X143823229Y-69637463D01*
X143962517Y-69776751D01*
X144126302Y-69886189D01*
X144308291Y-69961571D01*
X144501489Y-70000000D01*
X144698471Y-70000000D01*
X144891669Y-69961571D01*
X145073658Y-69886189D01*
X145237443Y-69776751D01*
X145376731Y-69637463D01*
X145486169Y-69473678D01*
X145508470Y-69419838D01*
X148963342Y-69419838D01*
X148963342Y-69616820D01*
X149001771Y-69810018D01*
X149077153Y-69992007D01*
X149186591Y-70155792D01*
X149325879Y-70295080D01*
X149489664Y-70404518D01*
X149671653Y-70479900D01*
X149864851Y-70518329D01*
X150061833Y-70518329D01*
X150255031Y-70479900D01*
X150437020Y-70404518D01*
X150600805Y-70295080D01*
X150740093Y-70155792D01*
X150849531Y-69992007D01*
X150924913Y-69810018D01*
X150963342Y-69616820D01*
X150963342Y-69419838D01*
X150924913Y-69226640D01*
X150849531Y-69044651D01*
X150740093Y-68880866D01*
X150600805Y-68741578D01*
X150437020Y-68632140D01*
X150255031Y-68556758D01*
X150061833Y-68518329D01*
X149864851Y-68518329D01*
X149671653Y-68556758D01*
X149489664Y-68632140D01*
X149325879Y-68741578D01*
X149186591Y-68880866D01*
X149077153Y-69044651D01*
X149001771Y-69226640D01*
X148963342Y-69419838D01*
X145508470Y-69419838D01*
X145561551Y-69291689D01*
X145599980Y-69098491D01*
X145599980Y-68901509D01*
X145561551Y-68708311D01*
X145486169Y-68526322D01*
X145376731Y-68362537D01*
X145237443Y-68223249D01*
X145073658Y-68113811D01*
X144891669Y-68038429D01*
X144698471Y-68000000D01*
X144501489Y-68000000D01*
X144308291Y-68038429D01*
X144126302Y-68113811D01*
X143962517Y-68223249D01*
X143823229Y-68362537D01*
X143713791Y-68526322D01*
X143638409Y-68708311D01*
X143599980Y-68901509D01*
X131802792Y-68901509D01*
X131776751Y-68862537D01*
X131637463Y-68723249D01*
X131473678Y-68613811D01*
X131291689Y-68538429D01*
X131098491Y-68500000D01*
X130901509Y-68500000D01*
X130708311Y-68538429D01*
X130526322Y-68613811D01*
X130362537Y-68723249D01*
X130223249Y-68862537D01*
X130113811Y-69026322D01*
X130038429Y-69208311D01*
X130025137Y-69275137D01*
X129958311Y-69288429D01*
X129776322Y-69363811D01*
X129612537Y-69473249D01*
X129473249Y-69612537D01*
X129363811Y-69776322D01*
X129288429Y-69958311D01*
X129250000Y-70151509D01*
X129250000Y-70348491D01*
X129288429Y-70541689D01*
X129363811Y-70723678D01*
X129473249Y-70887463D01*
X129525001Y-70939215D01*
X129525000Y-72479401D01*
X129521494Y-72514998D01*
X129525000Y-72550595D01*
X129525000Y-72550604D01*
X129535491Y-72657122D01*
X129563665Y-72750000D01*
X129576947Y-72793785D01*
X129644269Y-72919734D01*
X129688540Y-72973678D01*
X129734868Y-73030129D01*
X129762524Y-73052826D01*
X130256795Y-73547097D01*
X129600000Y-73547097D01*
X129482379Y-73558682D01*
X129369279Y-73592990D01*
X129265045Y-73648704D01*
X129180000Y-73718499D01*
X129094955Y-73648704D01*
X128990721Y-73592990D01*
X128877621Y-73558682D01*
X128760000Y-73547097D01*
X127060000Y-73547097D01*
X126942379Y-73558682D01*
X126829279Y-73592990D01*
X126725045Y-73648704D01*
X126640000Y-73718499D01*
X126554955Y-73648704D01*
X126450721Y-73592990D01*
X126337621Y-73558682D01*
X126220000Y-73547097D01*
X124520000Y-73547097D01*
X124402379Y-73558682D01*
X124289279Y-73592990D01*
X124185045Y-73648704D01*
X124100000Y-73718499D01*
X124014955Y-73648704D01*
X123910721Y-73592990D01*
X123797621Y-73558682D01*
X123680000Y-73547097D01*
X121980000Y-73547097D01*
X121862379Y-73558682D01*
X121749279Y-73592990D01*
X121645045Y-73648704D01*
X121560000Y-73718499D01*
X121474955Y-73648704D01*
X121370721Y-73592990D01*
X121257621Y-73558682D01*
X121140000Y-73547097D01*
X119440000Y-73547097D01*
X119322379Y-73558682D01*
X119209279Y-73592990D01*
X119105045Y-73648704D01*
X119013683Y-73723683D01*
X118938704Y-73815045D01*
X118882990Y-73919279D01*
X118848682Y-74032379D01*
X118838605Y-74134693D01*
X118691709Y-74093647D01*
X117785355Y-75000000D01*
X118691709Y-75906353D01*
X118838605Y-75865307D01*
X118848682Y-75967621D01*
X118882990Y-76080721D01*
X118938704Y-76184955D01*
X119013683Y-76276317D01*
X119105045Y-76351296D01*
X119209279Y-76407010D01*
X119322379Y-76441318D01*
X119440000Y-76452903D01*
X121140000Y-76452903D01*
X121257621Y-76441318D01*
X121370721Y-76407010D01*
X121474955Y-76351296D01*
X121560000Y-76281501D01*
X121645045Y-76351296D01*
X121749279Y-76407010D01*
X121862379Y-76441318D01*
X121980000Y-76452903D01*
X123680000Y-76452903D01*
X123797621Y-76441318D01*
X123910721Y-76407010D01*
X124014955Y-76351296D01*
X124100000Y-76281501D01*
X124185045Y-76351296D01*
X124289279Y-76407010D01*
X124402379Y-76441318D01*
X124520000Y-76452903D01*
X126220000Y-76452903D01*
X126337621Y-76441318D01*
X126450721Y-76407010D01*
X126554955Y-76351296D01*
X126640000Y-76281501D01*
X126725045Y-76351296D01*
X126829279Y-76407010D01*
X126942379Y-76441318D01*
X127060000Y-76452903D01*
X128760000Y-76452903D01*
X128877621Y-76441318D01*
X128990721Y-76407010D01*
X129094955Y-76351296D01*
X129180000Y-76281501D01*
X129265045Y-76351296D01*
X129369279Y-76407010D01*
X129482379Y-76441318D01*
X129600000Y-76452903D01*
X131089999Y-76452903D01*
X131090000Y-79574990D01*
X114071720Y-79574990D01*
X114070000Y-79175000D01*
X113920000Y-79025000D01*
X112645000Y-79025000D01*
X112645000Y-79045000D01*
X112595000Y-79045000D01*
X112595000Y-79025000D01*
X112575000Y-79025000D01*
X112575000Y-78975000D01*
X112595000Y-78975000D01*
X112595000Y-77700000D01*
X112645000Y-77700000D01*
X112645000Y-78975000D01*
X113920000Y-78975000D01*
X114070000Y-78825000D01*
X114071466Y-78484079D01*
X114151509Y-78500000D01*
X114348491Y-78500000D01*
X114541689Y-78461571D01*
X114686692Y-78401509D01*
X123500000Y-78401509D01*
X123500000Y-78598491D01*
X123538429Y-78791689D01*
X123613811Y-78973678D01*
X123723249Y-79137463D01*
X123862537Y-79276751D01*
X124026322Y-79386189D01*
X124208311Y-79461571D01*
X124401509Y-79500000D01*
X124598491Y-79500000D01*
X124791689Y-79461571D01*
X124973678Y-79386189D01*
X125137463Y-79276751D01*
X125276751Y-79137463D01*
X125386189Y-78973678D01*
X125461571Y-78791689D01*
X125500000Y-78598491D01*
X125500000Y-78500000D01*
X125598491Y-78500000D01*
X125791689Y-78461571D01*
X125973678Y-78386189D01*
X126137463Y-78276751D01*
X126276751Y-78137463D01*
X126386189Y-77973678D01*
X126461571Y-77791689D01*
X126500000Y-77598491D01*
X126500000Y-77401509D01*
X126461571Y-77208311D01*
X126386189Y-77026322D01*
X126276751Y-76862537D01*
X126137463Y-76723249D01*
X125973678Y-76613811D01*
X125791689Y-76538429D01*
X125598491Y-76500000D01*
X125401509Y-76500000D01*
X125208311Y-76538429D01*
X125026322Y-76613811D01*
X124862537Y-76723249D01*
X124723249Y-76862537D01*
X124613811Y-77026322D01*
X124538429Y-77208311D01*
X124500000Y-77401509D01*
X124500000Y-77500000D01*
X124401509Y-77500000D01*
X124208311Y-77538429D01*
X124026322Y-77613811D01*
X123862537Y-77723249D01*
X123723249Y-77862537D01*
X123613811Y-78026322D01*
X123538429Y-78208311D01*
X123500000Y-78401509D01*
X114686692Y-78401509D01*
X114723678Y-78386189D01*
X114887463Y-78276751D01*
X115026751Y-78137463D01*
X115136189Y-77973678D01*
X115211571Y-77791689D01*
X115250000Y-77598491D01*
X115250000Y-77401509D01*
X115211571Y-77208311D01*
X115136189Y-77026322D01*
X115026751Y-76862537D01*
X114887463Y-76723249D01*
X114723678Y-76613811D01*
X114541689Y-76538429D01*
X114348491Y-76500000D01*
X114151509Y-76500000D01*
X113958311Y-76538429D01*
X113776322Y-76613811D01*
X113612537Y-76723249D01*
X113473249Y-76862537D01*
X113363811Y-77026322D01*
X113288429Y-77208311D01*
X113250000Y-77401509D01*
X113250000Y-77548043D01*
X112795000Y-77550000D01*
X112645000Y-77700000D01*
X112595000Y-77700000D01*
X112445000Y-77550000D01*
X111770000Y-77547097D01*
X111652379Y-77558682D01*
X111539279Y-77592990D01*
X111435045Y-77648704D01*
X111350000Y-77718499D01*
X111264955Y-77648704D01*
X111160721Y-77592990D01*
X111047621Y-77558682D01*
X110930000Y-77547097D01*
X109230000Y-77547097D01*
X109112379Y-77558682D01*
X108999279Y-77592990D01*
X108895045Y-77648704D01*
X108810000Y-77718499D01*
X108724955Y-77648704D01*
X108620721Y-77592990D01*
X108507621Y-77558682D01*
X108390000Y-77547097D01*
X106690000Y-77547097D01*
X106572379Y-77558682D01*
X106459279Y-77592990D01*
X106355045Y-77648704D01*
X106263683Y-77723683D01*
X106188704Y-77815045D01*
X106132990Y-77919279D01*
X106098682Y-78032379D01*
X106097275Y-78046665D01*
X105924321Y-77873711D01*
X105686833Y-77715027D01*
X105422949Y-77605723D01*
X105142813Y-77550000D01*
X104857187Y-77550000D01*
X104577051Y-77605723D01*
X104313167Y-77715027D01*
X104075679Y-77873711D01*
X103873711Y-78075679D01*
X103715027Y-78313167D01*
X103605723Y-78577051D01*
X103550000Y-78857187D01*
X103550000Y-79142813D01*
X103605723Y-79422949D01*
X103715027Y-79686833D01*
X103873711Y-79924321D01*
X104075679Y-80126289D01*
X104313167Y-80284973D01*
X104577051Y-80394277D01*
X104857187Y-80450000D01*
X105142813Y-80450000D01*
X105377928Y-80403232D01*
X105524695Y-80550000D01*
X102200000Y-80550000D01*
X102200000Y-75941709D01*
X116843647Y-75941709D01*
X116913939Y-76193272D01*
X117162799Y-76333451D01*
X117434224Y-76422386D01*
X117717786Y-76456660D01*
X118002586Y-76434956D01*
X118277678Y-76358106D01*
X118532492Y-76229065D01*
X118586061Y-76193272D01*
X118656353Y-75941709D01*
X117750000Y-75035355D01*
X116843647Y-75941709D01*
X102200000Y-75941709D01*
X102200000Y-74967786D01*
X116293340Y-74967786D01*
X116315044Y-75252586D01*
X116391894Y-75527678D01*
X116520935Y-75782492D01*
X116556728Y-75836061D01*
X116808291Y-75906353D01*
X117714645Y-75000000D01*
X116808291Y-74093647D01*
X116556728Y-74163939D01*
X116416549Y-74412799D01*
X116327614Y-74684224D01*
X116293340Y-74967786D01*
X102200000Y-74967786D01*
X102200000Y-73401509D01*
X103000000Y-73401509D01*
X103000000Y-73598491D01*
X103038429Y-73791689D01*
X103113811Y-73973678D01*
X103223249Y-74137463D01*
X103362537Y-74276751D01*
X103526322Y-74386189D01*
X103708311Y-74461571D01*
X103901509Y-74500000D01*
X104098491Y-74500000D01*
X104291689Y-74461571D01*
X104473678Y-74386189D01*
X104637463Y-74276751D01*
X104776751Y-74137463D01*
X104829652Y-74058291D01*
X116843647Y-74058291D01*
X117750000Y-74964645D01*
X118656353Y-74058291D01*
X118586061Y-73806728D01*
X118337201Y-73666549D01*
X118065776Y-73577614D01*
X117782214Y-73543340D01*
X117497414Y-73565044D01*
X117222322Y-73641894D01*
X116967508Y-73770935D01*
X116913939Y-73806728D01*
X116843647Y-74058291D01*
X104829652Y-74058291D01*
X104886189Y-73973678D01*
X104961571Y-73791689D01*
X105000000Y-73598491D01*
X105000000Y-73401509D01*
X104961571Y-73208311D01*
X104886189Y-73026322D01*
X104776751Y-72862537D01*
X104637463Y-72723249D01*
X104473678Y-72613811D01*
X104291689Y-72538429D01*
X104098491Y-72500000D01*
X103901509Y-72500000D01*
X103708311Y-72538429D01*
X103526322Y-72613811D01*
X103362537Y-72723249D01*
X103223249Y-72862537D01*
X103113811Y-73026322D01*
X103038429Y-73208311D01*
X103000000Y-73401509D01*
X102200000Y-73401509D01*
X102200000Y-69901509D01*
X106250000Y-69901509D01*
X106250000Y-70098491D01*
X106288429Y-70291689D01*
X106363811Y-70473678D01*
X106473249Y-70637463D01*
X106534606Y-70698820D01*
X106535491Y-70707810D01*
X106576947Y-70844473D01*
X106587284Y-70863811D01*
X106644269Y-70970421D01*
X106712170Y-71053159D01*
X106712173Y-71053162D01*
X106734869Y-71080817D01*
X106762524Y-71103513D01*
X107146483Y-71487472D01*
X107169183Y-71515132D01*
X107279578Y-71605731D01*
X107405527Y-71673053D01*
X107542190Y-71714509D01*
X107648708Y-71725000D01*
X107648717Y-71725000D01*
X107684314Y-71728506D01*
X107719911Y-71725000D01*
X109714403Y-71725000D01*
X109750000Y-71728506D01*
X109785597Y-71725000D01*
X109785607Y-71725000D01*
X109892125Y-71714509D01*
X110028788Y-71673053D01*
X110069093Y-71651509D01*
X112250000Y-71651509D01*
X112250000Y-71848491D01*
X112288429Y-72041689D01*
X112363811Y-72223678D01*
X112473249Y-72387463D01*
X112612537Y-72526751D01*
X112776322Y-72636189D01*
X112958311Y-72711571D01*
X113151509Y-72750000D01*
X113348491Y-72750000D01*
X113541689Y-72711571D01*
X113723678Y-72636189D01*
X113887463Y-72526751D01*
X114012705Y-72401509D01*
X124500000Y-72401509D01*
X124500000Y-72598491D01*
X124538429Y-72791689D01*
X124613811Y-72973678D01*
X124723249Y-73137463D01*
X124862537Y-73276751D01*
X125026322Y-73386189D01*
X125208311Y-73461571D01*
X125401509Y-73500000D01*
X125598491Y-73500000D01*
X125791689Y-73461571D01*
X125973678Y-73386189D01*
X126137463Y-73276751D01*
X126276751Y-73137463D01*
X126386189Y-72973678D01*
X126461571Y-72791689D01*
X126500000Y-72598491D01*
X126500000Y-72401509D01*
X126461571Y-72208311D01*
X126386189Y-72026322D01*
X126276751Y-71862537D01*
X126137463Y-71723249D01*
X125973678Y-71613811D01*
X125791689Y-71538429D01*
X125598491Y-71500000D01*
X125401509Y-71500000D01*
X125208311Y-71538429D01*
X125026322Y-71613811D01*
X124862537Y-71723249D01*
X124723249Y-71862537D01*
X124613811Y-72026322D01*
X124538429Y-72208311D01*
X124500000Y-72401509D01*
X114012705Y-72401509D01*
X114026751Y-72387463D01*
X114136189Y-72223678D01*
X114211571Y-72041689D01*
X114250000Y-71848491D01*
X114250000Y-71651509D01*
X114211571Y-71458311D01*
X114136189Y-71276322D01*
X114026751Y-71112537D01*
X113887463Y-70973249D01*
X113723678Y-70863811D01*
X113541689Y-70788429D01*
X113348491Y-70750000D01*
X113151509Y-70750000D01*
X112958311Y-70788429D01*
X112776322Y-70863811D01*
X112612537Y-70973249D01*
X112473249Y-71112537D01*
X112363811Y-71276322D01*
X112288429Y-71458311D01*
X112250000Y-71651509D01*
X110069093Y-71651509D01*
X110154737Y-71605731D01*
X110265132Y-71515132D01*
X110287832Y-71487472D01*
X110737482Y-71037823D01*
X110765131Y-71015132D01*
X110787823Y-70987482D01*
X110787830Y-70987475D01*
X110855731Y-70904737D01*
X110923053Y-70778788D01*
X110923671Y-70776751D01*
X110964509Y-70642125D01*
X110966032Y-70626662D01*
X110973249Y-70637463D01*
X111112537Y-70776751D01*
X111276322Y-70886189D01*
X111458311Y-70961571D01*
X111651509Y-71000000D01*
X111848491Y-71000000D01*
X112041689Y-70961571D01*
X112223678Y-70886189D01*
X112387463Y-70776751D01*
X112526751Y-70637463D01*
X112636189Y-70473678D01*
X112711571Y-70291689D01*
X112750000Y-70098491D01*
X112750000Y-69969863D01*
X112791689Y-69961571D01*
X112973678Y-69886189D01*
X113137463Y-69776751D01*
X113262705Y-69651509D01*
X121500000Y-69651509D01*
X121500000Y-69848491D01*
X121538429Y-70041689D01*
X121613811Y-70223678D01*
X121723249Y-70387463D01*
X121862537Y-70526751D01*
X122026322Y-70636189D01*
X122208311Y-70711571D01*
X122401509Y-70750000D01*
X122598491Y-70750000D01*
X122791689Y-70711571D01*
X122973678Y-70636189D01*
X123137463Y-70526751D01*
X123276751Y-70387463D01*
X123386189Y-70223678D01*
X123461571Y-70041689D01*
X123500000Y-69848491D01*
X123500000Y-69651509D01*
X123461571Y-69458311D01*
X123386189Y-69276322D01*
X123276751Y-69112537D01*
X123137463Y-68973249D01*
X122973678Y-68863811D01*
X122791689Y-68788429D01*
X122598491Y-68750000D01*
X122401509Y-68750000D01*
X122208311Y-68788429D01*
X122026322Y-68863811D01*
X121862537Y-68973249D01*
X121723249Y-69112537D01*
X121613811Y-69276322D01*
X121538429Y-69458311D01*
X121500000Y-69651509D01*
X113262705Y-69651509D01*
X113276751Y-69637463D01*
X113386189Y-69473678D01*
X113461571Y-69291689D01*
X113500000Y-69098491D01*
X113500000Y-68901509D01*
X113461571Y-68708311D01*
X113386189Y-68526322D01*
X113276751Y-68362537D01*
X113137463Y-68223249D01*
X112973678Y-68113811D01*
X112791689Y-68038429D01*
X112598491Y-68000000D01*
X112401509Y-68000000D01*
X112208311Y-68038429D01*
X112026322Y-68113811D01*
X111862537Y-68223249D01*
X111723249Y-68362537D01*
X111613811Y-68526322D01*
X111538429Y-68708311D01*
X111500000Y-68901509D01*
X111500000Y-69030137D01*
X111458311Y-69038429D01*
X111276322Y-69113811D01*
X111112537Y-69223249D01*
X110975000Y-69360786D01*
X110975000Y-68550304D01*
X113123795Y-66401509D01*
X119000000Y-66401509D01*
X119000000Y-66598491D01*
X119038429Y-66791689D01*
X119113811Y-66973678D01*
X119223249Y-67137463D01*
X119362537Y-67276751D01*
X119526322Y-67386189D01*
X119708311Y-67461571D01*
X119901509Y-67500000D01*
X120098491Y-67500000D01*
X120291689Y-67461571D01*
X120473678Y-67386189D01*
X120637463Y-67276751D01*
X120776751Y-67137463D01*
X120886189Y-66973678D01*
X120961571Y-66791689D01*
X121000000Y-66598491D01*
X121000000Y-66401509D01*
X144750000Y-66401509D01*
X144750000Y-66598491D01*
X144788429Y-66791689D01*
X144863811Y-66973678D01*
X144973249Y-67137463D01*
X145112537Y-67276751D01*
X145276322Y-67386189D01*
X145458311Y-67461571D01*
X145651509Y-67500000D01*
X145848491Y-67500000D01*
X146041689Y-67461571D01*
X146190335Y-67400000D01*
X166547097Y-67400000D01*
X166550000Y-68075000D01*
X166700000Y-68225000D01*
X167975000Y-68225000D01*
X167975000Y-66950000D01*
X167825000Y-66800000D01*
X167150000Y-66797097D01*
X167032379Y-66808682D01*
X166919279Y-66842990D01*
X166815045Y-66898704D01*
X166723683Y-66973683D01*
X166648704Y-67065045D01*
X166592990Y-67169279D01*
X166558682Y-67282379D01*
X166547097Y-67400000D01*
X146190335Y-67400000D01*
X146223678Y-67386189D01*
X146387463Y-67276751D01*
X146526751Y-67137463D01*
X146636189Y-66973678D01*
X146711571Y-66791689D01*
X146750000Y-66598491D01*
X146750000Y-66401509D01*
X146711571Y-66208311D01*
X146636189Y-66026322D01*
X146526751Y-65862537D01*
X146387463Y-65723249D01*
X146223678Y-65613811D01*
X146041689Y-65538429D01*
X145848491Y-65500000D01*
X145651509Y-65500000D01*
X145458311Y-65538429D01*
X145276322Y-65613811D01*
X145112537Y-65723249D01*
X144973249Y-65862537D01*
X144863811Y-66026322D01*
X144788429Y-66208311D01*
X144750000Y-66401509D01*
X121000000Y-66401509D01*
X120961571Y-66208311D01*
X120886189Y-66026322D01*
X120776751Y-65862537D01*
X120637463Y-65723249D01*
X120473678Y-65613811D01*
X120291689Y-65538429D01*
X120098491Y-65500000D01*
X119901509Y-65500000D01*
X119708311Y-65538429D01*
X119526322Y-65613811D01*
X119362537Y-65723249D01*
X119223249Y-65862537D01*
X119113811Y-66026322D01*
X119038429Y-66208311D01*
X119000000Y-66401509D01*
X113123795Y-66401509D01*
X114055304Y-65470000D01*
X166547097Y-65470000D01*
X166558682Y-65587621D01*
X166592990Y-65700721D01*
X166648704Y-65804955D01*
X166723683Y-65896317D01*
X166815045Y-65971296D01*
X166919279Y-66027010D01*
X167032379Y-66061318D01*
X167150000Y-66072903D01*
X167825000Y-66070000D01*
X167975000Y-65920000D01*
X167975000Y-64645000D01*
X166700000Y-64645000D01*
X166550000Y-64795000D01*
X166547097Y-65470000D01*
X114055304Y-65470000D01*
X117123795Y-62401509D01*
X127750000Y-62401509D01*
X127750000Y-62598491D01*
X127788429Y-62791689D01*
X127863811Y-62973678D01*
X127973249Y-63137463D01*
X128112537Y-63276751D01*
X128276322Y-63386189D01*
X128458311Y-63461571D01*
X128651509Y-63500000D01*
X128848491Y-63500000D01*
X129041689Y-63461571D01*
X129223678Y-63386189D01*
X129387463Y-63276751D01*
X129526751Y-63137463D01*
X129636189Y-62973678D01*
X129711571Y-62791689D01*
X129750000Y-62598491D01*
X129750000Y-62401509D01*
X129711571Y-62208311D01*
X129636189Y-62026322D01*
X129526751Y-61862537D01*
X129387463Y-61723249D01*
X129223678Y-61613811D01*
X129041689Y-61538429D01*
X128848491Y-61500000D01*
X128651509Y-61500000D01*
X128458311Y-61538429D01*
X128276322Y-61613811D01*
X128112537Y-61723249D01*
X127973249Y-61862537D01*
X127863811Y-62026322D01*
X127788429Y-62208311D01*
X127750000Y-62401509D01*
X117123795Y-62401509D01*
X118050305Y-61475000D01*
X148449696Y-61475000D01*
X148500000Y-61525304D01*
X148500000Y-61598491D01*
X148538429Y-61791689D01*
X148613811Y-61973678D01*
X148723249Y-62137463D01*
X148862537Y-62276751D01*
X149026322Y-62386189D01*
X149208311Y-62461571D01*
X149401509Y-62500000D01*
X149598491Y-62500000D01*
X149791689Y-62461571D01*
X149973678Y-62386189D01*
X150137463Y-62276751D01*
X150276751Y-62137463D01*
X150386189Y-61973678D01*
X150461571Y-61791689D01*
X150500000Y-61598491D01*
X150500000Y-61401509D01*
X150461571Y-61208311D01*
X150386189Y-61026322D01*
X150293431Y-60887500D01*
X150386189Y-60748678D01*
X150461571Y-60566689D01*
X150500000Y-60373491D01*
X150500000Y-60176509D01*
X150461571Y-59983311D01*
X150386189Y-59801322D01*
X150276751Y-59637537D01*
X150137463Y-59498249D01*
X149973678Y-59388811D01*
X149791689Y-59313429D01*
X149598491Y-59275000D01*
X149401509Y-59275000D01*
X149208311Y-59313429D01*
X149026322Y-59388811D01*
X148862537Y-59498249D01*
X148810786Y-59550000D01*
X118000000Y-59550000D01*
X118000000Y-59401509D01*
X117961571Y-59208311D01*
X117886189Y-59026322D01*
X117776751Y-58862537D01*
X117637463Y-58723249D01*
X117473678Y-58613811D01*
X117291689Y-58538429D01*
X117098491Y-58500000D01*
X116901509Y-58500000D01*
X116708311Y-58538429D01*
X116526322Y-58613811D01*
X116362537Y-58723249D01*
X116223249Y-58862537D01*
X116113811Y-59026322D01*
X116038429Y-59208311D01*
X116000000Y-59401509D01*
X116000000Y-59598491D01*
X116038429Y-59791689D01*
X116113811Y-59973678D01*
X116223249Y-60137463D01*
X116362537Y-60276751D01*
X116374360Y-60284651D01*
X107762524Y-68896487D01*
X107734868Y-68919184D01*
X107712172Y-68946839D01*
X107712170Y-68946841D01*
X107668544Y-69000000D01*
X107644269Y-69029579D01*
X107621801Y-69071612D01*
X107541689Y-69038429D01*
X107348491Y-69000000D01*
X107151509Y-69000000D01*
X106958311Y-69038429D01*
X106776322Y-69113811D01*
X106612537Y-69223249D01*
X106473249Y-69362537D01*
X106363811Y-69526322D01*
X106288429Y-69708311D01*
X106250000Y-69901509D01*
X102200000Y-69901509D01*
X102200000Y-58151509D01*
X103250000Y-58151509D01*
X103250000Y-58348491D01*
X103288429Y-58541689D01*
X103363811Y-58723678D01*
X103473249Y-58887463D01*
X103612537Y-59026751D01*
X103776322Y-59136189D01*
X103958311Y-59211571D01*
X104151509Y-59250000D01*
X104348491Y-59250000D01*
X104541689Y-59211571D01*
X104723678Y-59136189D01*
X104887463Y-59026751D01*
X105026751Y-58887463D01*
X105136189Y-58723678D01*
X105211571Y-58541689D01*
X105250000Y-58348491D01*
X105250000Y-58151509D01*
X105211571Y-57958311D01*
X105136189Y-57776322D01*
X105026751Y-57612537D01*
X104887463Y-57473249D01*
X104723678Y-57363811D01*
X104541689Y-57288429D01*
X104348491Y-57250000D01*
X104151509Y-57250000D01*
X103958311Y-57288429D01*
X103776322Y-57363811D01*
X103612537Y-57473249D01*
X103473249Y-57612537D01*
X103363811Y-57776322D01*
X103288429Y-57958311D01*
X103250000Y-58151509D01*
X102200000Y-58151509D01*
X102200000Y-55458128D01*
X102208311Y-55461571D01*
X102401509Y-55500000D01*
X102598491Y-55500000D01*
X102791689Y-55461571D01*
X102973678Y-55386189D01*
X103137463Y-55276751D01*
X103276751Y-55137463D01*
X103386189Y-54973678D01*
X103461571Y-54791689D01*
X103500000Y-54598491D01*
X103500000Y-54401509D01*
X103461571Y-54208311D01*
X103386189Y-54026322D01*
X103276751Y-53862537D01*
X103137463Y-53723249D01*
X102973678Y-53613811D01*
X102791689Y-53538429D01*
X102598491Y-53500000D01*
X102401509Y-53500000D01*
X102208311Y-53538429D01*
X102200000Y-53541872D01*
X102200000Y-50180000D01*
X102257097Y-50180000D01*
X102268682Y-50297621D01*
X102302990Y-50410721D01*
X102358704Y-50514955D01*
X102433683Y-50606317D01*
X102525045Y-50681296D01*
X102629279Y-50737010D01*
X102742379Y-50771318D01*
X102860000Y-50782903D01*
X103535000Y-50780000D01*
X103685000Y-50630000D01*
X103685000Y-49355000D01*
X102410000Y-49355000D01*
X102260000Y-49505000D01*
X102257097Y-50180000D01*
X102200000Y-50180000D01*
X102200000Y-43400000D01*
X102257097Y-43400000D01*
X102257097Y-45100000D01*
X102268682Y-45217621D01*
X102302990Y-45330721D01*
X102358704Y-45434955D01*
X102428499Y-45520000D01*
X102358704Y-45605045D01*
X102302990Y-45709279D01*
X102268682Y-45822379D01*
X102257097Y-45940000D01*
X102257097Y-47640000D01*
X102268682Y-47757621D01*
X102302990Y-47870721D01*
X102358704Y-47974955D01*
X102428499Y-48060000D01*
X102358704Y-48145045D01*
X102302990Y-48249279D01*
X102268682Y-48362379D01*
X102257097Y-48480000D01*
X102260000Y-49155000D01*
X102410000Y-49305000D01*
X103685000Y-49305000D01*
X103685000Y-49285000D01*
X103735000Y-49285000D01*
X103735000Y-49305000D01*
X103755000Y-49305000D01*
X103755000Y-49355000D01*
X103735000Y-49355000D01*
X103735000Y-50630000D01*
X103885000Y-50780000D01*
X104560000Y-50782903D01*
X104677621Y-50771318D01*
X104790721Y-50737010D01*
X104894955Y-50681296D01*
X104980000Y-50611501D01*
X105065045Y-50681296D01*
X105169279Y-50737010D01*
X105282379Y-50771318D01*
X105400000Y-50782903D01*
X107100000Y-50782903D01*
X107217621Y-50771318D01*
X107330721Y-50737010D01*
X107434955Y-50681296D01*
X107526317Y-50606317D01*
X107601296Y-50514955D01*
X107657010Y-50410721D01*
X107691318Y-50297621D01*
X107702903Y-50180000D01*
X107702903Y-48480000D01*
X107691318Y-48362379D01*
X107657010Y-48249279D01*
X107601296Y-48145045D01*
X107531501Y-48060000D01*
X107601296Y-47974955D01*
X107657010Y-47870721D01*
X107691318Y-47757621D01*
X107702903Y-47640000D01*
X107702903Y-47151509D01*
X110250000Y-47151509D01*
X110250000Y-47348491D01*
X110288429Y-47541689D01*
X110363811Y-47723678D01*
X110473249Y-47887463D01*
X110612537Y-48026751D01*
X110776322Y-48136189D01*
X110958311Y-48211571D01*
X111151509Y-48250000D01*
X111348491Y-48250000D01*
X111541689Y-48211571D01*
X111723678Y-48136189D01*
X111887463Y-48026751D01*
X112026751Y-47887463D01*
X112136189Y-47723678D01*
X112211571Y-47541689D01*
X112250000Y-47348491D01*
X112250000Y-47151509D01*
X112211571Y-46958311D01*
X112136189Y-46776322D01*
X112026751Y-46612537D01*
X111887463Y-46473249D01*
X111723678Y-46363811D01*
X111541689Y-46288429D01*
X111348491Y-46250000D01*
X111151509Y-46250000D01*
X110958311Y-46288429D01*
X110776322Y-46363811D01*
X110612537Y-46473249D01*
X110473249Y-46612537D01*
X110363811Y-46776322D01*
X110288429Y-46958311D01*
X110250000Y-47151509D01*
X107702903Y-47151509D01*
X107702903Y-45940000D01*
X107691318Y-45822379D01*
X107657010Y-45709279D01*
X107601296Y-45605045D01*
X107526317Y-45513683D01*
X107434955Y-45438704D01*
X107330721Y-45382990D01*
X107217621Y-45348682D01*
X107203335Y-45347275D01*
X107376289Y-45174321D01*
X107534973Y-44936833D01*
X107549604Y-44901509D01*
X110250000Y-44901509D01*
X110250000Y-45098491D01*
X110288429Y-45291689D01*
X110363811Y-45473678D01*
X110473249Y-45637463D01*
X110612537Y-45776751D01*
X110776322Y-45886189D01*
X110958311Y-45961571D01*
X111151509Y-46000000D01*
X111348491Y-46000000D01*
X111541689Y-45961571D01*
X111723678Y-45886189D01*
X111887463Y-45776751D01*
X112026751Y-45637463D01*
X112136189Y-45473678D01*
X112211571Y-45291689D01*
X112250000Y-45098491D01*
X112250000Y-44901509D01*
X112211571Y-44708311D01*
X112136189Y-44526322D01*
X112026751Y-44362537D01*
X111887463Y-44223249D01*
X111723678Y-44113811D01*
X111541689Y-44038429D01*
X111348491Y-44000000D01*
X111151509Y-44000000D01*
X110958311Y-44038429D01*
X110776322Y-44113811D01*
X110612537Y-44223249D01*
X110473249Y-44362537D01*
X110363811Y-44526322D01*
X110288429Y-44708311D01*
X110250000Y-44901509D01*
X107549604Y-44901509D01*
X107644277Y-44672949D01*
X107700000Y-44392813D01*
X107700000Y-44107187D01*
X107644277Y-43827051D01*
X107534973Y-43563167D01*
X107376289Y-43325679D01*
X107174321Y-43123711D01*
X106936833Y-42965027D01*
X106672949Y-42855723D01*
X106392813Y-42800000D01*
X106107187Y-42800000D01*
X105827051Y-42855723D01*
X105563167Y-42965027D01*
X105325679Y-43123711D01*
X105152725Y-43296665D01*
X105151318Y-43282379D01*
X105117010Y-43169279D01*
X105061296Y-43065045D01*
X104986317Y-42973683D01*
X104894955Y-42898704D01*
X104790721Y-42842990D01*
X104677621Y-42808682D01*
X104560000Y-42797097D01*
X102860000Y-42797097D01*
X102742379Y-42808682D01*
X102629279Y-42842990D01*
X102525045Y-42898704D01*
X102433683Y-42973683D01*
X102358704Y-43065045D01*
X102302990Y-43169279D01*
X102268682Y-43282379D01*
X102257097Y-43400000D01*
X102200000Y-43400000D01*
X102200000Y-40950000D01*
X113414808Y-40950000D01*
X113363811Y-41026322D01*
M02*
