G04 #@! TF.GenerationSoftware,KiCad,Pcbnew,(5.1.2-1)-1*
G04 #@! TF.CreationDate,2019-10-19T13:23:49+03:00*
G04 #@! TF.ProjectId,mag,6d61672e-6b69-4636-9164-5f7063625858,rev?*
G04 #@! TF.SameCoordinates,Original*
G04 #@! TF.FileFunction,Copper,L3,Inr*
G04 #@! TF.FilePolarity,Positive*
%FSLAX46Y46*%
G04 Gerber Fmt 4.6, Leading zero omitted, Abs format (unit mm)*
G04 Created by KiCad (PCBNEW (5.1.2-1)-1) date 2019-10-19 13:23:49*
%MOMM*%
%LPD*%
G04 APERTURE LIST*
%ADD10C,1.700000*%
%ADD11R,1.700000X1.700000*%
%ADD12C,0.800000*%
%ADD13C,0.200000*%
G04 APERTURE END LIST*
D10*
X117750000Y-75000000D03*
D11*
X120290000Y-75000000D03*
X122830000Y-75000000D03*
X125370000Y-75000000D03*
X127910000Y-75000000D03*
X130450000Y-75000000D03*
X132990000Y-75000000D03*
X135530000Y-75000000D03*
X138070000Y-75000000D03*
X140610000Y-75000000D03*
X143150000Y-75000000D03*
X145690000Y-75000000D03*
X148230000Y-75000000D03*
X150770000Y-75000000D03*
X153310000Y-75000000D03*
X155850000Y-75000000D03*
X158390000Y-75000000D03*
X160930000Y-75000000D03*
X163470000Y-75000000D03*
X166010000Y-75000000D03*
X117750000Y-41980000D03*
X120290000Y-41980000D03*
X122830000Y-41980000D03*
X125370000Y-41980000D03*
X127910000Y-41980000D03*
X130450000Y-41980000D03*
X132990000Y-41980000D03*
X135530000Y-41980000D03*
X138070000Y-41980000D03*
X140610000Y-41980000D03*
X143150000Y-41980000D03*
X145690000Y-41980000D03*
X148230000Y-41980000D03*
X150770000Y-41980000D03*
X153310000Y-41980000D03*
X155850000Y-41980000D03*
X158390000Y-41980000D03*
X160930000Y-41980000D03*
X163470000Y-41980000D03*
X166010000Y-41980000D03*
X112620000Y-79000000D03*
X110080000Y-79000000D03*
X107540000Y-79000000D03*
D10*
X105000000Y-79000000D03*
D11*
X168000000Y-64620000D03*
X168000000Y-62080000D03*
X168000000Y-59540000D03*
D10*
X168000000Y-57000000D03*
D11*
X168000000Y-68250000D03*
D10*
X168000000Y-70790000D03*
X106250000Y-44250000D03*
D11*
X106250000Y-46790000D03*
X106250000Y-49330000D03*
X103710000Y-44250000D03*
X103710000Y-46790000D03*
X103710000Y-49330000D03*
D12*
X117750000Y-55000000D03*
X121000000Y-55000000D03*
X115000000Y-42500000D03*
X115000000Y-43500000D03*
X115000000Y-44500000D03*
X115000000Y-45500000D03*
X142000000Y-47500000D03*
X128500000Y-47500000D03*
X115000000Y-47500000D03*
X155500000Y-47500000D03*
X142000000Y-48500000D03*
X128500000Y-48500000D03*
X115000000Y-48500000D03*
X155500000Y-48500000D03*
X142000000Y-49500000D03*
X128500000Y-49500000D03*
X115000000Y-49500000D03*
X155500000Y-49500000D03*
X142000000Y-50500000D03*
X128500000Y-50500000D03*
X115000000Y-50500000D03*
X155500000Y-50500000D03*
X142000000Y-51500000D03*
X128500000Y-51500000D03*
X115000000Y-51500000D03*
X155500000Y-51500000D03*
X142000000Y-52500000D03*
X128500000Y-52500000D03*
X115000000Y-52500000D03*
X155500000Y-52500000D03*
X142000000Y-53500000D03*
X128500000Y-53500000D03*
X115000000Y-53500000D03*
X155500000Y-53500000D03*
X114250000Y-41500000D03*
X155500000Y-54500000D03*
X115000000Y-54500000D03*
X128500000Y-54500000D03*
X142000000Y-54500000D03*
X111250000Y-45000000D03*
X142000000Y-55500000D03*
X128500000Y-55500000D03*
X115000000Y-55500000D03*
X155500000Y-55500000D03*
X111250000Y-47250000D03*
X138750000Y-77500000D03*
X125500000Y-77500000D03*
X125500000Y-72500000D03*
X111750000Y-70000000D03*
X131000000Y-71750000D03*
X130250000Y-70250000D03*
X109250000Y-70000000D03*
X124500000Y-57250000D03*
X125500000Y-57250000D03*
X126500000Y-57250000D03*
X127500000Y-57250000D03*
X127500000Y-45500000D03*
X126500000Y-45500000D03*
X125500000Y-45500000D03*
X124500000Y-45500000D03*
X138000000Y-45500000D03*
X139000000Y-45500000D03*
X140000000Y-45500000D03*
X141000000Y-45500000D03*
X140000000Y-56500000D03*
X139000000Y-55750000D03*
X138030154Y-55030154D03*
X136750000Y-54550002D03*
X150500000Y-54550002D03*
X151945299Y-55167948D03*
X152500000Y-56000000D03*
X153500000Y-56025306D03*
X154500000Y-45500000D03*
X153500000Y-45500000D03*
X152500000Y-45500000D03*
X151500000Y-45500000D03*
X165000000Y-45500000D03*
X166000000Y-45500000D03*
X167000000Y-45500000D03*
X168000000Y-54750000D03*
X166000000Y-51250000D03*
X167250000Y-50000000D03*
X157500000Y-73250000D03*
X167000000Y-54750000D03*
X166000000Y-54750000D03*
X165000000Y-54750000D03*
X117000000Y-59500000D03*
X102500000Y-54500000D03*
X131500000Y-56250000D03*
X128750000Y-62500000D03*
X104000000Y-73500000D03*
X120000000Y-66500000D03*
X122500000Y-69750000D03*
X104250000Y-58250000D03*
X144599980Y-69000000D03*
X120000000Y-64000000D03*
X120000000Y-58750000D03*
X142000000Y-46500000D03*
X128500000Y-46500000D03*
X115000000Y-46500000D03*
X155500000Y-46500000D03*
X137250000Y-77500000D03*
X150500000Y-77500000D03*
X103750000Y-64000000D03*
X106000000Y-66750000D03*
X166000000Y-79000000D03*
X149500000Y-59000000D03*
X155750000Y-58750000D03*
X143750000Y-61750000D03*
X140750000Y-63750000D03*
X134500000Y-67250000D03*
X133263212Y-62457060D03*
X129000000Y-78000000D03*
X128250000Y-59000000D03*
X117250000Y-70750000D03*
X110250000Y-73750000D03*
X131000000Y-64500000D03*
X131750000Y-70250000D03*
X123000000Y-66750000D03*
X141250000Y-73000000D03*
X116750000Y-79250000D03*
X108250000Y-70000000D03*
X149500000Y-60275000D03*
X107250000Y-70000000D03*
X149500000Y-61500000D03*
X124500000Y-78500000D03*
X114250000Y-77500000D03*
X113250000Y-71750000D03*
X131000000Y-69500000D03*
X145750000Y-66500000D03*
X149963342Y-69518329D03*
X156000000Y-79000000D03*
X142000000Y-56500000D03*
X128500000Y-56500000D03*
X115000000Y-56500000D03*
X155500000Y-56500000D03*
X112500000Y-69000000D03*
X152250000Y-79000000D03*
D13*
G36*
X113363811Y-41026322D02*
G01*
X113288429Y-41208311D01*
X113250000Y-41401509D01*
X113250000Y-41598491D01*
X113288429Y-41791689D01*
X113363811Y-41973678D01*
X113473249Y-42137463D01*
X113612537Y-42276751D01*
X113776322Y-42386189D01*
X113958311Y-42461571D01*
X114000000Y-42469863D01*
X114000000Y-42598491D01*
X114038429Y-42791689D01*
X114113811Y-42973678D01*
X114131399Y-43000000D01*
X114113811Y-43026322D01*
X114038429Y-43208311D01*
X114000000Y-43401509D01*
X114000000Y-43598491D01*
X114038429Y-43791689D01*
X114113811Y-43973678D01*
X114131399Y-44000000D01*
X114113811Y-44026322D01*
X114038429Y-44208311D01*
X114000000Y-44401509D01*
X114000000Y-44598491D01*
X114038429Y-44791689D01*
X114113811Y-44973678D01*
X114131399Y-45000000D01*
X114113811Y-45026322D01*
X114038429Y-45208311D01*
X114000000Y-45401509D01*
X114000000Y-45598491D01*
X114038429Y-45791689D01*
X114113811Y-45973678D01*
X114131399Y-46000000D01*
X114113811Y-46026322D01*
X114038429Y-46208311D01*
X114000000Y-46401509D01*
X114000000Y-46598491D01*
X114038429Y-46791689D01*
X114113811Y-46973678D01*
X114131399Y-47000000D01*
X114113811Y-47026322D01*
X114038429Y-47208311D01*
X114000000Y-47401509D01*
X114000000Y-47598491D01*
X114038429Y-47791689D01*
X114113811Y-47973678D01*
X114131399Y-48000000D01*
X114113811Y-48026322D01*
X114038429Y-48208311D01*
X114000000Y-48401509D01*
X114000000Y-48598491D01*
X114038429Y-48791689D01*
X114113811Y-48973678D01*
X114131399Y-49000000D01*
X114113811Y-49026322D01*
X114038429Y-49208311D01*
X114000000Y-49401509D01*
X114000000Y-49598491D01*
X114038429Y-49791689D01*
X114113811Y-49973678D01*
X114131399Y-50000000D01*
X114113811Y-50026322D01*
X114038429Y-50208311D01*
X114000000Y-50401509D01*
X114000000Y-50598491D01*
X114038429Y-50791689D01*
X114113811Y-50973678D01*
X114131399Y-51000000D01*
X114113811Y-51026322D01*
X114038429Y-51208311D01*
X114000000Y-51401509D01*
X114000000Y-51598491D01*
X114038429Y-51791689D01*
X114113811Y-51973678D01*
X114131399Y-52000000D01*
X114113811Y-52026322D01*
X114038429Y-52208311D01*
X114000000Y-52401509D01*
X114000000Y-52598491D01*
X114038429Y-52791689D01*
X114113811Y-52973678D01*
X114131399Y-53000000D01*
X114113811Y-53026322D01*
X114038429Y-53208311D01*
X114000000Y-53401509D01*
X114000000Y-53598491D01*
X114038429Y-53791689D01*
X114113811Y-53973678D01*
X114131399Y-54000000D01*
X114113811Y-54026322D01*
X114038429Y-54208311D01*
X114000000Y-54401509D01*
X114000000Y-54598491D01*
X114038429Y-54791689D01*
X114113811Y-54973678D01*
X114131399Y-55000000D01*
X114113811Y-55026322D01*
X114038429Y-55208311D01*
X114000000Y-55401509D01*
X114000000Y-55598491D01*
X114038429Y-55791689D01*
X114113811Y-55973678D01*
X114131399Y-56000000D01*
X114113811Y-56026322D01*
X114038429Y-56208311D01*
X114000000Y-56401509D01*
X114000000Y-56598491D01*
X114038429Y-56791689D01*
X114113811Y-56973678D01*
X114223249Y-57137463D01*
X114362537Y-57276751D01*
X114526322Y-57386189D01*
X114708311Y-57461571D01*
X114901509Y-57500000D01*
X115098491Y-57500000D01*
X115291689Y-57461571D01*
X115473678Y-57386189D01*
X115637463Y-57276751D01*
X115776751Y-57137463D01*
X115886189Y-56973678D01*
X115961571Y-56791689D01*
X116000000Y-56598491D01*
X116000000Y-56401509D01*
X115961571Y-56208311D01*
X115886189Y-56026322D01*
X115868601Y-56000000D01*
X115886189Y-55973678D01*
X115961571Y-55791689D01*
X116000000Y-55598491D01*
X116000000Y-55401509D01*
X115961571Y-55208311D01*
X115886189Y-55026322D01*
X115868601Y-55000000D01*
X115886189Y-54973678D01*
X115916082Y-54901509D01*
X116750000Y-54901509D01*
X116750000Y-55098491D01*
X116788429Y-55291689D01*
X116863811Y-55473678D01*
X116973249Y-55637463D01*
X117112537Y-55776751D01*
X117276322Y-55886189D01*
X117458311Y-55961571D01*
X117651509Y-56000000D01*
X117848491Y-56000000D01*
X118041689Y-55961571D01*
X118223678Y-55886189D01*
X118387463Y-55776751D01*
X118526751Y-55637463D01*
X118636189Y-55473678D01*
X118711571Y-55291689D01*
X118750000Y-55098491D01*
X118750000Y-54901509D01*
X120000000Y-54901509D01*
X120000000Y-55098491D01*
X120038429Y-55291689D01*
X120113811Y-55473678D01*
X120223249Y-55637463D01*
X120362537Y-55776751D01*
X120526322Y-55886189D01*
X120708311Y-55961571D01*
X120901509Y-56000000D01*
X121098491Y-56000000D01*
X121291689Y-55961571D01*
X121473678Y-55886189D01*
X121637463Y-55776751D01*
X121776751Y-55637463D01*
X121886189Y-55473678D01*
X121961571Y-55291689D01*
X122000000Y-55098491D01*
X122000000Y-54901509D01*
X121961571Y-54708311D01*
X121886189Y-54526322D01*
X121776751Y-54362537D01*
X121637463Y-54223249D01*
X121473678Y-54113811D01*
X121291689Y-54038429D01*
X121098491Y-54000000D01*
X120901509Y-54000000D01*
X120708311Y-54038429D01*
X120526322Y-54113811D01*
X120362537Y-54223249D01*
X120223249Y-54362537D01*
X120113811Y-54526322D01*
X120038429Y-54708311D01*
X120000000Y-54901509D01*
X118750000Y-54901509D01*
X118711571Y-54708311D01*
X118636189Y-54526322D01*
X118526751Y-54362537D01*
X118387463Y-54223249D01*
X118223678Y-54113811D01*
X118041689Y-54038429D01*
X117848491Y-54000000D01*
X117651509Y-54000000D01*
X117458311Y-54038429D01*
X117276322Y-54113811D01*
X117112537Y-54223249D01*
X116973249Y-54362537D01*
X116863811Y-54526322D01*
X116788429Y-54708311D01*
X116750000Y-54901509D01*
X115916082Y-54901509D01*
X115961571Y-54791689D01*
X116000000Y-54598491D01*
X116000000Y-54401509D01*
X115961571Y-54208311D01*
X115886189Y-54026322D01*
X115868601Y-54000000D01*
X115886189Y-53973678D01*
X115961571Y-53791689D01*
X116000000Y-53598491D01*
X116000000Y-53401509D01*
X115961571Y-53208311D01*
X115886189Y-53026322D01*
X115868601Y-53000000D01*
X115886189Y-52973678D01*
X115961571Y-52791689D01*
X116000000Y-52598491D01*
X116000000Y-52401509D01*
X115961571Y-52208311D01*
X115886189Y-52026322D01*
X115868601Y-52000000D01*
X115886189Y-51973678D01*
X115961571Y-51791689D01*
X116000000Y-51598491D01*
X116000000Y-51401509D01*
X115961571Y-51208311D01*
X115886189Y-51026322D01*
X115868601Y-51000000D01*
X115886189Y-50973678D01*
X115961571Y-50791689D01*
X116000000Y-50598491D01*
X116000000Y-50401509D01*
X115961571Y-50208311D01*
X115886189Y-50026322D01*
X115868601Y-50000000D01*
X115886189Y-49973678D01*
X115961571Y-49791689D01*
X116000000Y-49598491D01*
X116000000Y-49401509D01*
X115961571Y-49208311D01*
X115886189Y-49026322D01*
X115868601Y-49000000D01*
X115886189Y-48973678D01*
X115961571Y-48791689D01*
X116000000Y-48598491D01*
X116000000Y-48401509D01*
X115961571Y-48208311D01*
X115886189Y-48026322D01*
X115868601Y-48000000D01*
X115886189Y-47973678D01*
X115961571Y-47791689D01*
X116000000Y-47598491D01*
X116000000Y-47401509D01*
X115961571Y-47208311D01*
X115886189Y-47026322D01*
X115868601Y-47000000D01*
X115886189Y-46973678D01*
X115961571Y-46791689D01*
X116000000Y-46598491D01*
X116000000Y-46401509D01*
X115961571Y-46208311D01*
X115886189Y-46026322D01*
X115868601Y-46000000D01*
X115886189Y-45973678D01*
X115961571Y-45791689D01*
X116000000Y-45598491D01*
X116000000Y-45401509D01*
X123500000Y-45401509D01*
X123500000Y-45598491D01*
X123538429Y-45791689D01*
X123613811Y-45973678D01*
X123723249Y-46137463D01*
X123862537Y-46276751D01*
X124026322Y-46386189D01*
X124208311Y-46461571D01*
X124401509Y-46500000D01*
X124598491Y-46500000D01*
X124791689Y-46461571D01*
X124973678Y-46386189D01*
X125000000Y-46368601D01*
X125026322Y-46386189D01*
X125208311Y-46461571D01*
X125401509Y-46500000D01*
X125598491Y-46500000D01*
X125791689Y-46461571D01*
X125973678Y-46386189D01*
X126000000Y-46368601D01*
X126026322Y-46386189D01*
X126208311Y-46461571D01*
X126401509Y-46500000D01*
X126598491Y-46500000D01*
X126791689Y-46461571D01*
X126973678Y-46386189D01*
X127000000Y-46368601D01*
X127026322Y-46386189D01*
X127208311Y-46461571D01*
X127401509Y-46500000D01*
X127500000Y-46500000D01*
X127500000Y-46598491D01*
X127538429Y-46791689D01*
X127613811Y-46973678D01*
X127631399Y-47000000D01*
X127613811Y-47026322D01*
X127538429Y-47208311D01*
X127500000Y-47401509D01*
X127500000Y-47598491D01*
X127538429Y-47791689D01*
X127613811Y-47973678D01*
X127631399Y-48000000D01*
X127613811Y-48026322D01*
X127538429Y-48208311D01*
X127500000Y-48401509D01*
X127500000Y-48598491D01*
X127538429Y-48791689D01*
X127613811Y-48973678D01*
X127631399Y-49000000D01*
X127613811Y-49026322D01*
X127538429Y-49208311D01*
X127500000Y-49401509D01*
X127500000Y-49598491D01*
X127538429Y-49791689D01*
X127613811Y-49973678D01*
X127631399Y-50000000D01*
X127613811Y-50026322D01*
X127538429Y-50208311D01*
X127500000Y-50401509D01*
X127500000Y-50598491D01*
X127538429Y-50791689D01*
X127613811Y-50973678D01*
X127631399Y-51000000D01*
X127613811Y-51026322D01*
X127538429Y-51208311D01*
X127500000Y-51401509D01*
X127500000Y-51598491D01*
X127538429Y-51791689D01*
X127613811Y-51973678D01*
X127631399Y-52000000D01*
X127613811Y-52026322D01*
X127538429Y-52208311D01*
X127500000Y-52401509D01*
X127500000Y-52598491D01*
X127538429Y-52791689D01*
X127613811Y-52973678D01*
X127631399Y-53000000D01*
X127613811Y-53026322D01*
X127538429Y-53208311D01*
X127500000Y-53401509D01*
X127500000Y-53598491D01*
X127538429Y-53791689D01*
X127613811Y-53973678D01*
X127631399Y-54000000D01*
X127613811Y-54026322D01*
X127538429Y-54208311D01*
X127500000Y-54401509D01*
X127500000Y-54598491D01*
X127538429Y-54791689D01*
X127613811Y-54973678D01*
X127631399Y-55000000D01*
X127613811Y-55026322D01*
X127538429Y-55208311D01*
X127500000Y-55401509D01*
X127500000Y-55598491D01*
X127538429Y-55791689D01*
X127613811Y-55973678D01*
X127631399Y-56000000D01*
X127613811Y-56026322D01*
X127538429Y-56208311D01*
X127530137Y-56250000D01*
X127401509Y-56250000D01*
X127208311Y-56288429D01*
X127026322Y-56363811D01*
X127000000Y-56381399D01*
X126973678Y-56363811D01*
X126791689Y-56288429D01*
X126598491Y-56250000D01*
X126401509Y-56250000D01*
X126208311Y-56288429D01*
X126026322Y-56363811D01*
X126000000Y-56381399D01*
X125973678Y-56363811D01*
X125791689Y-56288429D01*
X125598491Y-56250000D01*
X125401509Y-56250000D01*
X125208311Y-56288429D01*
X125026322Y-56363811D01*
X125000000Y-56381399D01*
X124973678Y-56363811D01*
X124791689Y-56288429D01*
X124598491Y-56250000D01*
X124401509Y-56250000D01*
X124208311Y-56288429D01*
X124026322Y-56363811D01*
X123862537Y-56473249D01*
X123723249Y-56612537D01*
X123613811Y-56776322D01*
X123538429Y-56958311D01*
X123500000Y-57151509D01*
X123500000Y-57348491D01*
X123538429Y-57541689D01*
X123613811Y-57723678D01*
X123723249Y-57887463D01*
X123862537Y-58026751D01*
X124026322Y-58136189D01*
X124208311Y-58211571D01*
X124401509Y-58250000D01*
X124598491Y-58250000D01*
X124791689Y-58211571D01*
X124973678Y-58136189D01*
X125000000Y-58118601D01*
X125026322Y-58136189D01*
X125208311Y-58211571D01*
X125401509Y-58250000D01*
X125598491Y-58250000D01*
X125791689Y-58211571D01*
X125973678Y-58136189D01*
X126000000Y-58118601D01*
X126026322Y-58136189D01*
X126208311Y-58211571D01*
X126401509Y-58250000D01*
X126598491Y-58250000D01*
X126791689Y-58211571D01*
X126973678Y-58136189D01*
X127000000Y-58118601D01*
X127026322Y-58136189D01*
X127208311Y-58211571D01*
X127401509Y-58250000D01*
X127585786Y-58250000D01*
X127473249Y-58362537D01*
X127363811Y-58526322D01*
X127288429Y-58708311D01*
X127250000Y-58901509D01*
X127250000Y-59098491D01*
X127288429Y-59291689D01*
X127363811Y-59473678D01*
X127473249Y-59637463D01*
X127612537Y-59776751D01*
X127776322Y-59886189D01*
X127958311Y-59961571D01*
X128151509Y-60000000D01*
X128348491Y-60000000D01*
X128541689Y-59961571D01*
X128723678Y-59886189D01*
X128887463Y-59776751D01*
X129026751Y-59637463D01*
X129136189Y-59473678D01*
X129211571Y-59291689D01*
X129250000Y-59098491D01*
X129250000Y-58901509D01*
X148500000Y-58901509D01*
X148500000Y-59098491D01*
X148538429Y-59291689D01*
X148613811Y-59473678D01*
X148723249Y-59637463D01*
X148723286Y-59637500D01*
X148723249Y-59637537D01*
X148613811Y-59801322D01*
X148538429Y-59983311D01*
X148500000Y-60176509D01*
X148500000Y-60373491D01*
X148538429Y-60566689D01*
X148613811Y-60748678D01*
X148706569Y-60887500D01*
X148613811Y-61026322D01*
X148538429Y-61208311D01*
X148500000Y-61401509D01*
X148500000Y-61598491D01*
X148538429Y-61791689D01*
X148613811Y-61973678D01*
X148723249Y-62137463D01*
X148862537Y-62276751D01*
X149026322Y-62386189D01*
X149208311Y-62461571D01*
X149401509Y-62500000D01*
X149598491Y-62500000D01*
X149791689Y-62461571D01*
X149973678Y-62386189D01*
X150137463Y-62276751D01*
X150276751Y-62137463D01*
X150386189Y-61973678D01*
X150461571Y-61791689D01*
X150500000Y-61598491D01*
X150500000Y-61401509D01*
X150461571Y-61208311D01*
X150386189Y-61026322D01*
X150293431Y-60887500D01*
X150386189Y-60748678D01*
X150461571Y-60566689D01*
X150500000Y-60373491D01*
X150500000Y-60176509D01*
X150461571Y-59983311D01*
X150386189Y-59801322D01*
X150276751Y-59637537D01*
X150276714Y-59637500D01*
X150276751Y-59637463D01*
X150386189Y-59473678D01*
X150461571Y-59291689D01*
X150500000Y-59098491D01*
X150500000Y-58901509D01*
X150461571Y-58708311D01*
X150438043Y-58651509D01*
X154750000Y-58651509D01*
X154750000Y-58848491D01*
X154788429Y-59041689D01*
X154863811Y-59223678D01*
X154973249Y-59387463D01*
X155112537Y-59526751D01*
X155276322Y-59636189D01*
X155458311Y-59711571D01*
X155651509Y-59750000D01*
X155848491Y-59750000D01*
X156041689Y-59711571D01*
X156223678Y-59636189D01*
X156387463Y-59526751D01*
X156526751Y-59387463D01*
X156636189Y-59223678D01*
X156711571Y-59041689D01*
X156750000Y-58848491D01*
X156750000Y-58651509D01*
X156711571Y-58458311D01*
X156636189Y-58276322D01*
X156526751Y-58112537D01*
X156387463Y-57973249D01*
X156223678Y-57863811D01*
X156041689Y-57788429D01*
X155848491Y-57750000D01*
X155651509Y-57750000D01*
X155458311Y-57788429D01*
X155276322Y-57863811D01*
X155112537Y-57973249D01*
X154973249Y-58112537D01*
X154863811Y-58276322D01*
X154788429Y-58458311D01*
X154750000Y-58651509D01*
X150438043Y-58651509D01*
X150386189Y-58526322D01*
X150276751Y-58362537D01*
X150137463Y-58223249D01*
X149973678Y-58113811D01*
X149791689Y-58038429D01*
X149598491Y-58000000D01*
X149401509Y-58000000D01*
X149208311Y-58038429D01*
X149026322Y-58113811D01*
X148862537Y-58223249D01*
X148723249Y-58362537D01*
X148613811Y-58526322D01*
X148538429Y-58708311D01*
X148500000Y-58901509D01*
X129250000Y-58901509D01*
X129211571Y-58708311D01*
X129136189Y-58526322D01*
X129026751Y-58362537D01*
X128887463Y-58223249D01*
X128723678Y-58113811D01*
X128541689Y-58038429D01*
X128348491Y-58000000D01*
X128164214Y-58000000D01*
X128276751Y-57887463D01*
X128386189Y-57723678D01*
X128461571Y-57541689D01*
X128469863Y-57500000D01*
X128598491Y-57500000D01*
X128791689Y-57461571D01*
X128973678Y-57386189D01*
X129137463Y-57276751D01*
X129276751Y-57137463D01*
X129386189Y-56973678D01*
X129461571Y-56791689D01*
X129500000Y-56598491D01*
X129500000Y-56401509D01*
X129461571Y-56208311D01*
X129386189Y-56026322D01*
X129368601Y-56000000D01*
X129386189Y-55973678D01*
X129461571Y-55791689D01*
X129500000Y-55598491D01*
X129500000Y-55401509D01*
X129461571Y-55208311D01*
X129386189Y-55026322D01*
X129368601Y-55000000D01*
X129386189Y-54973678D01*
X129461571Y-54791689D01*
X129500000Y-54598491D01*
X129500000Y-54451511D01*
X135750000Y-54451511D01*
X135750000Y-54648493D01*
X135788429Y-54841691D01*
X135863811Y-55023680D01*
X135973249Y-55187465D01*
X136112537Y-55326753D01*
X136276322Y-55436191D01*
X136458311Y-55511573D01*
X136651509Y-55550002D01*
X136848491Y-55550002D01*
X137041689Y-55511573D01*
X137131724Y-55474279D01*
X137143965Y-55503832D01*
X137253403Y-55667617D01*
X137392691Y-55806905D01*
X137556476Y-55916343D01*
X137738465Y-55991725D01*
X137931663Y-56030154D01*
X138036135Y-56030154D01*
X138038429Y-56041689D01*
X138113811Y-56223678D01*
X138223249Y-56387463D01*
X138362537Y-56526751D01*
X138526322Y-56636189D01*
X138708311Y-56711571D01*
X138901509Y-56750000D01*
X139030137Y-56750000D01*
X139038429Y-56791689D01*
X139113811Y-56973678D01*
X139223249Y-57137463D01*
X139362537Y-57276751D01*
X139526322Y-57386189D01*
X139708311Y-57461571D01*
X139901509Y-57500000D01*
X140098491Y-57500000D01*
X140291689Y-57461571D01*
X140473678Y-57386189D01*
X140637463Y-57276751D01*
X140776751Y-57137463D01*
X140886189Y-56973678D01*
X140961571Y-56791689D01*
X141000000Y-56598491D01*
X141038429Y-56791689D01*
X141113811Y-56973678D01*
X141223249Y-57137463D01*
X141362537Y-57276751D01*
X141526322Y-57386189D01*
X141708311Y-57461571D01*
X141901509Y-57500000D01*
X142098491Y-57500000D01*
X142291689Y-57461571D01*
X142473678Y-57386189D01*
X142637463Y-57276751D01*
X142776751Y-57137463D01*
X142886189Y-56973678D01*
X142961571Y-56791689D01*
X143000000Y-56598491D01*
X143000000Y-56401509D01*
X142961571Y-56208311D01*
X142886189Y-56026322D01*
X142868601Y-56000000D01*
X142886189Y-55973678D01*
X142961571Y-55791689D01*
X143000000Y-55598491D01*
X143000000Y-55401509D01*
X142961571Y-55208311D01*
X142886189Y-55026322D01*
X142868601Y-55000000D01*
X142886189Y-54973678D01*
X142961571Y-54791689D01*
X143000000Y-54598491D01*
X143000000Y-54451511D01*
X149500000Y-54451511D01*
X149500000Y-54648493D01*
X149538429Y-54841691D01*
X149613811Y-55023680D01*
X149723249Y-55187465D01*
X149862537Y-55326753D01*
X150026322Y-55436191D01*
X150208311Y-55511573D01*
X150401509Y-55550002D01*
X150598491Y-55550002D01*
X150791689Y-55511573D01*
X150973678Y-55436191D01*
X150978432Y-55433014D01*
X150983728Y-55459637D01*
X151059110Y-55641626D01*
X151168548Y-55805411D01*
X151307836Y-55944699D01*
X151471621Y-56054137D01*
X151500000Y-56065892D01*
X151500000Y-56098491D01*
X151538429Y-56291689D01*
X151613811Y-56473678D01*
X151723249Y-56637463D01*
X151862537Y-56776751D01*
X152026322Y-56886189D01*
X152208311Y-56961571D01*
X152401509Y-57000000D01*
X152598491Y-57000000D01*
X152791689Y-56961571D01*
X152973678Y-56886189D01*
X152981064Y-56881254D01*
X153026322Y-56911495D01*
X153208311Y-56986877D01*
X153401509Y-57025306D01*
X153598491Y-57025306D01*
X153791689Y-56986877D01*
X153973678Y-56911495D01*
X154137463Y-56802057D01*
X154276751Y-56662769D01*
X154386189Y-56498984D01*
X154461571Y-56316995D01*
X154500000Y-56123797D01*
X154500000Y-55926815D01*
X154461571Y-55733617D01*
X154386189Y-55551628D01*
X154276751Y-55387843D01*
X154137463Y-55248555D01*
X153973678Y-55139117D01*
X153791689Y-55063735D01*
X153598491Y-55025306D01*
X153401509Y-55025306D01*
X153208311Y-55063735D01*
X153026322Y-55139117D01*
X153018936Y-55144052D01*
X152973678Y-55113811D01*
X152945299Y-55102056D01*
X152945299Y-55069457D01*
X152906870Y-54876259D01*
X152831488Y-54694270D01*
X152722050Y-54530485D01*
X152582762Y-54391197D01*
X152418977Y-54281759D01*
X152236988Y-54206377D01*
X152043790Y-54167948D01*
X151846808Y-54167948D01*
X151653610Y-54206377D01*
X151471621Y-54281759D01*
X151466867Y-54284936D01*
X151461571Y-54258313D01*
X151386189Y-54076324D01*
X151276751Y-53912539D01*
X151137463Y-53773251D01*
X150973678Y-53663813D01*
X150791689Y-53588431D01*
X150598491Y-53550002D01*
X150401509Y-53550002D01*
X150208311Y-53588431D01*
X150026322Y-53663813D01*
X149862537Y-53773251D01*
X149723249Y-53912539D01*
X149613811Y-54076324D01*
X149538429Y-54258313D01*
X149500000Y-54451511D01*
X143000000Y-54451511D01*
X143000000Y-54401509D01*
X142961571Y-54208311D01*
X142886189Y-54026322D01*
X142868601Y-54000000D01*
X142886189Y-53973678D01*
X142961571Y-53791689D01*
X143000000Y-53598491D01*
X143000000Y-53401509D01*
X142961571Y-53208311D01*
X142886189Y-53026322D01*
X142868601Y-53000000D01*
X142886189Y-52973678D01*
X142961571Y-52791689D01*
X143000000Y-52598491D01*
X143000000Y-52401509D01*
X142961571Y-52208311D01*
X142886189Y-52026322D01*
X142868601Y-52000000D01*
X142886189Y-51973678D01*
X142961571Y-51791689D01*
X143000000Y-51598491D01*
X143000000Y-51401509D01*
X142961571Y-51208311D01*
X142886189Y-51026322D01*
X142868601Y-51000000D01*
X142886189Y-50973678D01*
X142961571Y-50791689D01*
X143000000Y-50598491D01*
X143000000Y-50401509D01*
X142961571Y-50208311D01*
X142886189Y-50026322D01*
X142868601Y-50000000D01*
X142886189Y-49973678D01*
X142961571Y-49791689D01*
X143000000Y-49598491D01*
X143000000Y-49401509D01*
X142961571Y-49208311D01*
X142886189Y-49026322D01*
X142868601Y-49000000D01*
X142886189Y-48973678D01*
X142961571Y-48791689D01*
X143000000Y-48598491D01*
X143000000Y-48401509D01*
X142961571Y-48208311D01*
X142886189Y-48026322D01*
X142868601Y-48000000D01*
X142886189Y-47973678D01*
X142961571Y-47791689D01*
X143000000Y-47598491D01*
X143000000Y-47401509D01*
X142961571Y-47208311D01*
X142886189Y-47026322D01*
X142868601Y-47000000D01*
X142886189Y-46973678D01*
X142961571Y-46791689D01*
X143000000Y-46598491D01*
X143000000Y-46401509D01*
X142961571Y-46208311D01*
X142886189Y-46026322D01*
X142776751Y-45862537D01*
X142637463Y-45723249D01*
X142473678Y-45613811D01*
X142291689Y-45538429D01*
X142098491Y-45500000D01*
X142000000Y-45500000D01*
X142000000Y-45401509D01*
X150500000Y-45401509D01*
X150500000Y-45598491D01*
X150538429Y-45791689D01*
X150613811Y-45973678D01*
X150723249Y-46137463D01*
X150862537Y-46276751D01*
X151026322Y-46386189D01*
X151208311Y-46461571D01*
X151401509Y-46500000D01*
X151598491Y-46500000D01*
X151791689Y-46461571D01*
X151973678Y-46386189D01*
X152000000Y-46368601D01*
X152026322Y-46386189D01*
X152208311Y-46461571D01*
X152401509Y-46500000D01*
X152598491Y-46500000D01*
X152791689Y-46461571D01*
X152973678Y-46386189D01*
X153000000Y-46368601D01*
X153026322Y-46386189D01*
X153208311Y-46461571D01*
X153401509Y-46500000D01*
X153598491Y-46500000D01*
X153791689Y-46461571D01*
X153973678Y-46386189D01*
X154000000Y-46368601D01*
X154026322Y-46386189D01*
X154208311Y-46461571D01*
X154401509Y-46500000D01*
X154500000Y-46500000D01*
X154500000Y-46598491D01*
X154538429Y-46791689D01*
X154613811Y-46973678D01*
X154631399Y-47000000D01*
X154613811Y-47026322D01*
X154538429Y-47208311D01*
X154500000Y-47401509D01*
X154500000Y-47598491D01*
X154538429Y-47791689D01*
X154613811Y-47973678D01*
X154631399Y-48000000D01*
X154613811Y-48026322D01*
X154538429Y-48208311D01*
X154500000Y-48401509D01*
X154500000Y-48598491D01*
X154538429Y-48791689D01*
X154613811Y-48973678D01*
X154631399Y-49000000D01*
X154613811Y-49026322D01*
X154538429Y-49208311D01*
X154500000Y-49401509D01*
X154500000Y-49598491D01*
X154538429Y-49791689D01*
X154613811Y-49973678D01*
X154631399Y-50000000D01*
X154613811Y-50026322D01*
X154538429Y-50208311D01*
X154500000Y-50401509D01*
X154500000Y-50598491D01*
X154538429Y-50791689D01*
X154613811Y-50973678D01*
X154631399Y-51000000D01*
X154613811Y-51026322D01*
X154538429Y-51208311D01*
X154500000Y-51401509D01*
X154500000Y-51598491D01*
X154538429Y-51791689D01*
X154613811Y-51973678D01*
X154631399Y-52000000D01*
X154613811Y-52026322D01*
X154538429Y-52208311D01*
X154500000Y-52401509D01*
X154500000Y-52598491D01*
X154538429Y-52791689D01*
X154613811Y-52973678D01*
X154631399Y-53000000D01*
X154613811Y-53026322D01*
X154538429Y-53208311D01*
X154500000Y-53401509D01*
X154500000Y-53598491D01*
X154538429Y-53791689D01*
X154613811Y-53973678D01*
X154631399Y-54000000D01*
X154613811Y-54026322D01*
X154538429Y-54208311D01*
X154500000Y-54401509D01*
X154500000Y-54598491D01*
X154538429Y-54791689D01*
X154613811Y-54973678D01*
X154631399Y-55000000D01*
X154613811Y-55026322D01*
X154538429Y-55208311D01*
X154500000Y-55401509D01*
X154500000Y-55598491D01*
X154538429Y-55791689D01*
X154613811Y-55973678D01*
X154631399Y-56000000D01*
X154613811Y-56026322D01*
X154538429Y-56208311D01*
X154500000Y-56401509D01*
X154500000Y-56598491D01*
X154538429Y-56791689D01*
X154613811Y-56973678D01*
X154723249Y-57137463D01*
X154862537Y-57276751D01*
X155026322Y-57386189D01*
X155208311Y-57461571D01*
X155401509Y-57500000D01*
X155598491Y-57500000D01*
X155791689Y-57461571D01*
X155973678Y-57386189D01*
X156137463Y-57276751D01*
X156276751Y-57137463D01*
X156386189Y-56973678D01*
X156461571Y-56791689D01*
X156500000Y-56598491D01*
X156500000Y-56401509D01*
X156461571Y-56208311D01*
X156386189Y-56026322D01*
X156368601Y-56000000D01*
X156386189Y-55973678D01*
X156461571Y-55791689D01*
X156500000Y-55598491D01*
X156500000Y-55401509D01*
X156461571Y-55208311D01*
X156386189Y-55026322D01*
X156368601Y-55000000D01*
X156386189Y-54973678D01*
X156461571Y-54791689D01*
X156500000Y-54598491D01*
X156500000Y-54401509D01*
X156461571Y-54208311D01*
X156386189Y-54026322D01*
X156368601Y-54000000D01*
X156386189Y-53973678D01*
X156461571Y-53791689D01*
X156500000Y-53598491D01*
X156500000Y-53401509D01*
X156461571Y-53208311D01*
X156386189Y-53026322D01*
X156368601Y-53000000D01*
X156386189Y-52973678D01*
X156461571Y-52791689D01*
X156500000Y-52598491D01*
X156500000Y-52401509D01*
X156461571Y-52208311D01*
X156386189Y-52026322D01*
X156368601Y-52000000D01*
X156386189Y-51973678D01*
X156461571Y-51791689D01*
X156500000Y-51598491D01*
X156500000Y-51401509D01*
X156461571Y-51208311D01*
X156438043Y-51151509D01*
X165000000Y-51151509D01*
X165000000Y-51348491D01*
X165038429Y-51541689D01*
X165113811Y-51723678D01*
X165223249Y-51887463D01*
X165362537Y-52026751D01*
X165526322Y-52136189D01*
X165708311Y-52211571D01*
X165901509Y-52250000D01*
X166098491Y-52250000D01*
X166291689Y-52211571D01*
X166473678Y-52136189D01*
X166637463Y-52026751D01*
X166776751Y-51887463D01*
X166886189Y-51723678D01*
X166961571Y-51541689D01*
X167000000Y-51348491D01*
X167000000Y-51151509D01*
X166962380Y-50962380D01*
X167151509Y-51000000D01*
X167348491Y-51000000D01*
X167541689Y-50961571D01*
X167723678Y-50886189D01*
X167887463Y-50776751D01*
X168026751Y-50637463D01*
X168136189Y-50473678D01*
X168211571Y-50291689D01*
X168250000Y-50098491D01*
X168250000Y-49901509D01*
X168211571Y-49708311D01*
X168136189Y-49526322D01*
X168026751Y-49362537D01*
X167887463Y-49223249D01*
X167723678Y-49113811D01*
X167541689Y-49038429D01*
X167348491Y-49000000D01*
X167151509Y-49000000D01*
X166958311Y-49038429D01*
X166776322Y-49113811D01*
X166612537Y-49223249D01*
X166473249Y-49362537D01*
X166363811Y-49526322D01*
X166288429Y-49708311D01*
X166250000Y-49901509D01*
X166250000Y-50098491D01*
X166287620Y-50287620D01*
X166098491Y-50250000D01*
X165901509Y-50250000D01*
X165708311Y-50288429D01*
X165526322Y-50363811D01*
X165362537Y-50473249D01*
X165223249Y-50612537D01*
X165113811Y-50776322D01*
X165038429Y-50958311D01*
X165000000Y-51151509D01*
X156438043Y-51151509D01*
X156386189Y-51026322D01*
X156368601Y-51000000D01*
X156386189Y-50973678D01*
X156461571Y-50791689D01*
X156500000Y-50598491D01*
X156500000Y-50401509D01*
X156461571Y-50208311D01*
X156386189Y-50026322D01*
X156368601Y-50000000D01*
X156386189Y-49973678D01*
X156461571Y-49791689D01*
X156500000Y-49598491D01*
X156500000Y-49401509D01*
X156461571Y-49208311D01*
X156386189Y-49026322D01*
X156368601Y-49000000D01*
X156386189Y-48973678D01*
X156461571Y-48791689D01*
X156500000Y-48598491D01*
X156500000Y-48401509D01*
X156461571Y-48208311D01*
X156386189Y-48026322D01*
X156368601Y-48000000D01*
X156386189Y-47973678D01*
X156461571Y-47791689D01*
X156500000Y-47598491D01*
X156500000Y-47401509D01*
X156461571Y-47208311D01*
X156386189Y-47026322D01*
X156368601Y-47000000D01*
X156386189Y-46973678D01*
X156461571Y-46791689D01*
X156500000Y-46598491D01*
X156500000Y-46401509D01*
X156461571Y-46208311D01*
X156386189Y-46026322D01*
X156276751Y-45862537D01*
X156137463Y-45723249D01*
X155973678Y-45613811D01*
X155791689Y-45538429D01*
X155598491Y-45500000D01*
X155500000Y-45500000D01*
X155500000Y-45401509D01*
X164000000Y-45401509D01*
X164000000Y-45598491D01*
X164038429Y-45791689D01*
X164113811Y-45973678D01*
X164223249Y-46137463D01*
X164362537Y-46276751D01*
X164526322Y-46386189D01*
X164708311Y-46461571D01*
X164901509Y-46500000D01*
X165098491Y-46500000D01*
X165291689Y-46461571D01*
X165473678Y-46386189D01*
X165500000Y-46368601D01*
X165526322Y-46386189D01*
X165708311Y-46461571D01*
X165901509Y-46500000D01*
X166098491Y-46500000D01*
X166291689Y-46461571D01*
X166473678Y-46386189D01*
X166500000Y-46368601D01*
X166526322Y-46386189D01*
X166708311Y-46461571D01*
X166901509Y-46500000D01*
X167098491Y-46500000D01*
X167291689Y-46461571D01*
X167473678Y-46386189D01*
X167637463Y-46276751D01*
X167776751Y-46137463D01*
X167886189Y-45973678D01*
X167961571Y-45791689D01*
X168000000Y-45598491D01*
X168000000Y-45401509D01*
X167961571Y-45208311D01*
X167886189Y-45026322D01*
X167776751Y-44862537D01*
X167637463Y-44723249D01*
X167473678Y-44613811D01*
X167291689Y-44538429D01*
X167098491Y-44500000D01*
X166901509Y-44500000D01*
X166708311Y-44538429D01*
X166526322Y-44613811D01*
X166500000Y-44631399D01*
X166473678Y-44613811D01*
X166291689Y-44538429D01*
X166098491Y-44500000D01*
X165901509Y-44500000D01*
X165708311Y-44538429D01*
X165526322Y-44613811D01*
X165500000Y-44631399D01*
X165473678Y-44613811D01*
X165291689Y-44538429D01*
X165098491Y-44500000D01*
X164901509Y-44500000D01*
X164708311Y-44538429D01*
X164526322Y-44613811D01*
X164362537Y-44723249D01*
X164223249Y-44862537D01*
X164113811Y-45026322D01*
X164038429Y-45208311D01*
X164000000Y-45401509D01*
X155500000Y-45401509D01*
X155461571Y-45208311D01*
X155386189Y-45026322D01*
X155276751Y-44862537D01*
X155137463Y-44723249D01*
X154973678Y-44613811D01*
X154791689Y-44538429D01*
X154598491Y-44500000D01*
X154401509Y-44500000D01*
X154208311Y-44538429D01*
X154026322Y-44613811D01*
X154000000Y-44631399D01*
X153973678Y-44613811D01*
X153791689Y-44538429D01*
X153598491Y-44500000D01*
X153401509Y-44500000D01*
X153208311Y-44538429D01*
X153026322Y-44613811D01*
X153000000Y-44631399D01*
X152973678Y-44613811D01*
X152791689Y-44538429D01*
X152598491Y-44500000D01*
X152401509Y-44500000D01*
X152208311Y-44538429D01*
X152026322Y-44613811D01*
X152000000Y-44631399D01*
X151973678Y-44613811D01*
X151791689Y-44538429D01*
X151598491Y-44500000D01*
X151401509Y-44500000D01*
X151208311Y-44538429D01*
X151026322Y-44613811D01*
X150862537Y-44723249D01*
X150723249Y-44862537D01*
X150613811Y-45026322D01*
X150538429Y-45208311D01*
X150500000Y-45401509D01*
X142000000Y-45401509D01*
X141961571Y-45208311D01*
X141886189Y-45026322D01*
X141776751Y-44862537D01*
X141637463Y-44723249D01*
X141473678Y-44613811D01*
X141291689Y-44538429D01*
X141098491Y-44500000D01*
X140901509Y-44500000D01*
X140708311Y-44538429D01*
X140526322Y-44613811D01*
X140500000Y-44631399D01*
X140473678Y-44613811D01*
X140291689Y-44538429D01*
X140098491Y-44500000D01*
X139901509Y-44500000D01*
X139708311Y-44538429D01*
X139526322Y-44613811D01*
X139500000Y-44631399D01*
X139473678Y-44613811D01*
X139291689Y-44538429D01*
X139098491Y-44500000D01*
X138901509Y-44500000D01*
X138708311Y-44538429D01*
X138526322Y-44613811D01*
X138500000Y-44631399D01*
X138473678Y-44613811D01*
X138291689Y-44538429D01*
X138098491Y-44500000D01*
X137901509Y-44500000D01*
X137708311Y-44538429D01*
X137526322Y-44613811D01*
X137362537Y-44723249D01*
X137223249Y-44862537D01*
X137113811Y-45026322D01*
X137038429Y-45208311D01*
X137000000Y-45401509D01*
X137000000Y-45598491D01*
X137038429Y-45791689D01*
X137113811Y-45973678D01*
X137223249Y-46137463D01*
X137362537Y-46276751D01*
X137526322Y-46386189D01*
X137708311Y-46461571D01*
X137901509Y-46500000D01*
X138098491Y-46500000D01*
X138291689Y-46461571D01*
X138473678Y-46386189D01*
X138500000Y-46368601D01*
X138526322Y-46386189D01*
X138708311Y-46461571D01*
X138901509Y-46500000D01*
X139098491Y-46500000D01*
X139291689Y-46461571D01*
X139473678Y-46386189D01*
X139500000Y-46368601D01*
X139526322Y-46386189D01*
X139708311Y-46461571D01*
X139901509Y-46500000D01*
X140098491Y-46500000D01*
X140291689Y-46461571D01*
X140473678Y-46386189D01*
X140500000Y-46368601D01*
X140526322Y-46386189D01*
X140708311Y-46461571D01*
X140901509Y-46500000D01*
X141000000Y-46500000D01*
X141000000Y-46598491D01*
X141038429Y-46791689D01*
X141113811Y-46973678D01*
X141131399Y-47000000D01*
X141113811Y-47026322D01*
X141038429Y-47208311D01*
X141000000Y-47401509D01*
X141000000Y-47598491D01*
X141038429Y-47791689D01*
X141113811Y-47973678D01*
X141131399Y-48000000D01*
X141113811Y-48026322D01*
X141038429Y-48208311D01*
X141000000Y-48401509D01*
X141000000Y-48598491D01*
X141038429Y-48791689D01*
X141113811Y-48973678D01*
X141131399Y-49000000D01*
X141113811Y-49026322D01*
X141038429Y-49208311D01*
X141000000Y-49401509D01*
X141000000Y-49598491D01*
X141038429Y-49791689D01*
X141113811Y-49973678D01*
X141131399Y-50000000D01*
X141113811Y-50026322D01*
X141038429Y-50208311D01*
X141000000Y-50401509D01*
X141000000Y-50598491D01*
X141038429Y-50791689D01*
X141113811Y-50973678D01*
X141131399Y-51000000D01*
X141113811Y-51026322D01*
X141038429Y-51208311D01*
X141000000Y-51401509D01*
X141000000Y-51598491D01*
X141038429Y-51791689D01*
X141113811Y-51973678D01*
X141131399Y-52000000D01*
X141113811Y-52026322D01*
X141038429Y-52208311D01*
X141000000Y-52401509D01*
X141000000Y-52598491D01*
X141038429Y-52791689D01*
X141113811Y-52973678D01*
X141131399Y-53000000D01*
X141113811Y-53026322D01*
X141038429Y-53208311D01*
X141000000Y-53401509D01*
X141000000Y-53598491D01*
X141038429Y-53791689D01*
X141113811Y-53973678D01*
X141131399Y-54000000D01*
X141113811Y-54026322D01*
X141038429Y-54208311D01*
X141000000Y-54401509D01*
X141000000Y-54598491D01*
X141038429Y-54791689D01*
X141113811Y-54973678D01*
X141131399Y-55000000D01*
X141113811Y-55026322D01*
X141038429Y-55208311D01*
X141000000Y-55401509D01*
X141000000Y-55598491D01*
X141038429Y-55791689D01*
X141113811Y-55973678D01*
X141131399Y-56000000D01*
X141113811Y-56026322D01*
X141038429Y-56208311D01*
X141000000Y-56401509D01*
X140961571Y-56208311D01*
X140886189Y-56026322D01*
X140776751Y-55862537D01*
X140637463Y-55723249D01*
X140473678Y-55613811D01*
X140291689Y-55538429D01*
X140098491Y-55500000D01*
X139969863Y-55500000D01*
X139961571Y-55458311D01*
X139886189Y-55276322D01*
X139776751Y-55112537D01*
X139637463Y-54973249D01*
X139473678Y-54863811D01*
X139291689Y-54788429D01*
X139098491Y-54750000D01*
X138994019Y-54750000D01*
X138991725Y-54738465D01*
X138916343Y-54556476D01*
X138806905Y-54392691D01*
X138667617Y-54253403D01*
X138503832Y-54143965D01*
X138321843Y-54068583D01*
X138128645Y-54030154D01*
X137931663Y-54030154D01*
X137738465Y-54068583D01*
X137648430Y-54105877D01*
X137636189Y-54076324D01*
X137526751Y-53912539D01*
X137387463Y-53773251D01*
X137223678Y-53663813D01*
X137041689Y-53588431D01*
X136848491Y-53550002D01*
X136651509Y-53550002D01*
X136458311Y-53588431D01*
X136276322Y-53663813D01*
X136112537Y-53773251D01*
X135973249Y-53912539D01*
X135863811Y-54076324D01*
X135788429Y-54258313D01*
X135750000Y-54451511D01*
X129500000Y-54451511D01*
X129500000Y-54401509D01*
X129461571Y-54208311D01*
X129386189Y-54026322D01*
X129368601Y-54000000D01*
X129386189Y-53973678D01*
X129461571Y-53791689D01*
X129500000Y-53598491D01*
X129500000Y-53401509D01*
X129461571Y-53208311D01*
X129386189Y-53026322D01*
X129368601Y-53000000D01*
X129386189Y-52973678D01*
X129461571Y-52791689D01*
X129500000Y-52598491D01*
X129500000Y-52401509D01*
X129461571Y-52208311D01*
X129386189Y-52026322D01*
X129368601Y-52000000D01*
X129386189Y-51973678D01*
X129461571Y-51791689D01*
X129500000Y-51598491D01*
X129500000Y-51401509D01*
X129461571Y-51208311D01*
X129386189Y-51026322D01*
X129368601Y-51000000D01*
X129386189Y-50973678D01*
X129461571Y-50791689D01*
X129500000Y-50598491D01*
X129500000Y-50401509D01*
X129461571Y-50208311D01*
X129386189Y-50026322D01*
X129368601Y-50000000D01*
X129386189Y-49973678D01*
X129461571Y-49791689D01*
X129500000Y-49598491D01*
X129500000Y-49401509D01*
X129461571Y-49208311D01*
X129386189Y-49026322D01*
X129368601Y-49000000D01*
X129386189Y-48973678D01*
X129461571Y-48791689D01*
X129500000Y-48598491D01*
X129500000Y-48401509D01*
X129461571Y-48208311D01*
X129386189Y-48026322D01*
X129368601Y-48000000D01*
X129386189Y-47973678D01*
X129461571Y-47791689D01*
X129500000Y-47598491D01*
X129500000Y-47401509D01*
X129461571Y-47208311D01*
X129386189Y-47026322D01*
X129368601Y-47000000D01*
X129386189Y-46973678D01*
X129461571Y-46791689D01*
X129500000Y-46598491D01*
X129500000Y-46401509D01*
X129461571Y-46208311D01*
X129386189Y-46026322D01*
X129276751Y-45862537D01*
X129137463Y-45723249D01*
X128973678Y-45613811D01*
X128791689Y-45538429D01*
X128598491Y-45500000D01*
X128500000Y-45500000D01*
X128500000Y-45401509D01*
X128461571Y-45208311D01*
X128386189Y-45026322D01*
X128276751Y-44862537D01*
X128137463Y-44723249D01*
X127973678Y-44613811D01*
X127791689Y-44538429D01*
X127598491Y-44500000D01*
X127401509Y-44500000D01*
X127208311Y-44538429D01*
X127026322Y-44613811D01*
X127000000Y-44631399D01*
X126973678Y-44613811D01*
X126791689Y-44538429D01*
X126598491Y-44500000D01*
X126401509Y-44500000D01*
X126208311Y-44538429D01*
X126026322Y-44613811D01*
X126000000Y-44631399D01*
X125973678Y-44613811D01*
X125791689Y-44538429D01*
X125598491Y-44500000D01*
X125401509Y-44500000D01*
X125208311Y-44538429D01*
X125026322Y-44613811D01*
X125000000Y-44631399D01*
X124973678Y-44613811D01*
X124791689Y-44538429D01*
X124598491Y-44500000D01*
X124401509Y-44500000D01*
X124208311Y-44538429D01*
X124026322Y-44613811D01*
X123862537Y-44723249D01*
X123723249Y-44862537D01*
X123613811Y-45026322D01*
X123538429Y-45208311D01*
X123500000Y-45401509D01*
X116000000Y-45401509D01*
X115961571Y-45208311D01*
X115886189Y-45026322D01*
X115868601Y-45000000D01*
X115886189Y-44973678D01*
X115961571Y-44791689D01*
X116000000Y-44598491D01*
X116000000Y-44401509D01*
X115961571Y-44208311D01*
X115886189Y-44026322D01*
X115868601Y-44000000D01*
X115886189Y-43973678D01*
X115961571Y-43791689D01*
X116000000Y-43598491D01*
X116000000Y-43401509D01*
X115961571Y-43208311D01*
X115886189Y-43026322D01*
X115868601Y-43000000D01*
X115886189Y-42973678D01*
X115961571Y-42791689D01*
X116000000Y-42598491D01*
X116000000Y-42401509D01*
X115961571Y-42208311D01*
X115886189Y-42026322D01*
X115776751Y-41862537D01*
X115637463Y-41723249D01*
X115473678Y-41613811D01*
X115291689Y-41538429D01*
X115250000Y-41530137D01*
X115250000Y-41401509D01*
X115211571Y-41208311D01*
X115136189Y-41026322D01*
X115085192Y-40950000D01*
X116327604Y-40950000D01*
X116308682Y-41012379D01*
X116297097Y-41130000D01*
X116297097Y-42830000D01*
X116308682Y-42947621D01*
X116342990Y-43060721D01*
X116398704Y-43164955D01*
X116473683Y-43256317D01*
X116565045Y-43331296D01*
X116669279Y-43387010D01*
X116782379Y-43421318D01*
X116900000Y-43432903D01*
X118600000Y-43432903D01*
X118717621Y-43421318D01*
X118830721Y-43387010D01*
X118934955Y-43331296D01*
X119020000Y-43261501D01*
X119105045Y-43331296D01*
X119209279Y-43387010D01*
X119322379Y-43421318D01*
X119440000Y-43432903D01*
X121140000Y-43432903D01*
X121257621Y-43421318D01*
X121370721Y-43387010D01*
X121474955Y-43331296D01*
X121560000Y-43261501D01*
X121645045Y-43331296D01*
X121749279Y-43387010D01*
X121862379Y-43421318D01*
X121980000Y-43432903D01*
X123680000Y-43432903D01*
X123797621Y-43421318D01*
X123910721Y-43387010D01*
X124014955Y-43331296D01*
X124100000Y-43261501D01*
X124185045Y-43331296D01*
X124289279Y-43387010D01*
X124402379Y-43421318D01*
X124520000Y-43432903D01*
X126220000Y-43432903D01*
X126337621Y-43421318D01*
X126450721Y-43387010D01*
X126554955Y-43331296D01*
X126640000Y-43261501D01*
X126725045Y-43331296D01*
X126829279Y-43387010D01*
X126942379Y-43421318D01*
X127060000Y-43432903D01*
X128760000Y-43432903D01*
X128877621Y-43421318D01*
X128990721Y-43387010D01*
X129094955Y-43331296D01*
X129180000Y-43261501D01*
X129265045Y-43331296D01*
X129369279Y-43387010D01*
X129482379Y-43421318D01*
X129600000Y-43432903D01*
X131300000Y-43432903D01*
X131417621Y-43421318D01*
X131530721Y-43387010D01*
X131634955Y-43331296D01*
X131720000Y-43261501D01*
X131805045Y-43331296D01*
X131909279Y-43387010D01*
X132022379Y-43421318D01*
X132140000Y-43432903D01*
X133840000Y-43432903D01*
X133957621Y-43421318D01*
X134070721Y-43387010D01*
X134174955Y-43331296D01*
X134260000Y-43261501D01*
X134345045Y-43331296D01*
X134449279Y-43387010D01*
X134562379Y-43421318D01*
X134680000Y-43432903D01*
X136380000Y-43432903D01*
X136497621Y-43421318D01*
X136610721Y-43387010D01*
X136714955Y-43331296D01*
X136800000Y-43261501D01*
X136885045Y-43331296D01*
X136989279Y-43387010D01*
X137102379Y-43421318D01*
X137220000Y-43432903D01*
X138920000Y-43432903D01*
X139037621Y-43421318D01*
X139150721Y-43387010D01*
X139254955Y-43331296D01*
X139340000Y-43261501D01*
X139425045Y-43331296D01*
X139529279Y-43387010D01*
X139642379Y-43421318D01*
X139760000Y-43432903D01*
X141460000Y-43432903D01*
X141577621Y-43421318D01*
X141690721Y-43387010D01*
X141794955Y-43331296D01*
X141880000Y-43261501D01*
X141965045Y-43331296D01*
X142069279Y-43387010D01*
X142182379Y-43421318D01*
X142300000Y-43432903D01*
X144000000Y-43432903D01*
X144117621Y-43421318D01*
X144230721Y-43387010D01*
X144334955Y-43331296D01*
X144420000Y-43261501D01*
X144505045Y-43331296D01*
X144609279Y-43387010D01*
X144722379Y-43421318D01*
X144840000Y-43432903D01*
X146540000Y-43432903D01*
X146657621Y-43421318D01*
X146770721Y-43387010D01*
X146874955Y-43331296D01*
X146960000Y-43261501D01*
X147045045Y-43331296D01*
X147149279Y-43387010D01*
X147262379Y-43421318D01*
X147380000Y-43432903D01*
X149080000Y-43432903D01*
X149197621Y-43421318D01*
X149310721Y-43387010D01*
X149414955Y-43331296D01*
X149500000Y-43261501D01*
X149585045Y-43331296D01*
X149689279Y-43387010D01*
X149802379Y-43421318D01*
X149920000Y-43432903D01*
X151620000Y-43432903D01*
X151737621Y-43421318D01*
X151850721Y-43387010D01*
X151954955Y-43331296D01*
X152040000Y-43261501D01*
X152125045Y-43331296D01*
X152229279Y-43387010D01*
X152342379Y-43421318D01*
X152460000Y-43432903D01*
X154160000Y-43432903D01*
X154277621Y-43421318D01*
X154390721Y-43387010D01*
X154494955Y-43331296D01*
X154580000Y-43261501D01*
X154665045Y-43331296D01*
X154769279Y-43387010D01*
X154882379Y-43421318D01*
X155000000Y-43432903D01*
X156700000Y-43432903D01*
X156817621Y-43421318D01*
X156930721Y-43387010D01*
X157034955Y-43331296D01*
X157120000Y-43261501D01*
X157205045Y-43331296D01*
X157309279Y-43387010D01*
X157422379Y-43421318D01*
X157540000Y-43432903D01*
X159240000Y-43432903D01*
X159357621Y-43421318D01*
X159470721Y-43387010D01*
X159574955Y-43331296D01*
X159660000Y-43261501D01*
X159745045Y-43331296D01*
X159849279Y-43387010D01*
X159962379Y-43421318D01*
X160080000Y-43432903D01*
X161780000Y-43432903D01*
X161897621Y-43421318D01*
X162010721Y-43387010D01*
X162114955Y-43331296D01*
X162200000Y-43261501D01*
X162285045Y-43331296D01*
X162389279Y-43387010D01*
X162502379Y-43421318D01*
X162620000Y-43432903D01*
X164320000Y-43432903D01*
X164437621Y-43421318D01*
X164550721Y-43387010D01*
X164654955Y-43331296D01*
X164740000Y-43261501D01*
X164825045Y-43331296D01*
X164929279Y-43387010D01*
X165042379Y-43421318D01*
X165160000Y-43432903D01*
X166860000Y-43432903D01*
X166977621Y-43421318D01*
X167090721Y-43387010D01*
X167194955Y-43331296D01*
X167286317Y-43256317D01*
X167361296Y-43164955D01*
X167417010Y-43060721D01*
X167451318Y-42947621D01*
X167462903Y-42830000D01*
X167462903Y-41130000D01*
X167451318Y-41012379D01*
X167432396Y-40950000D01*
X168800001Y-40950000D01*
X168800001Y-54147332D01*
X168776751Y-54112537D01*
X168637463Y-53973249D01*
X168473678Y-53863811D01*
X168291689Y-53788429D01*
X168098491Y-53750000D01*
X167901509Y-53750000D01*
X167708311Y-53788429D01*
X167526322Y-53863811D01*
X167500000Y-53881399D01*
X167473678Y-53863811D01*
X167291689Y-53788429D01*
X167098491Y-53750000D01*
X166901509Y-53750000D01*
X166708311Y-53788429D01*
X166526322Y-53863811D01*
X166500000Y-53881399D01*
X166473678Y-53863811D01*
X166291689Y-53788429D01*
X166098491Y-53750000D01*
X165901509Y-53750000D01*
X165708311Y-53788429D01*
X165526322Y-53863811D01*
X165500000Y-53881399D01*
X165473678Y-53863811D01*
X165291689Y-53788429D01*
X165098491Y-53750000D01*
X164901509Y-53750000D01*
X164708311Y-53788429D01*
X164526322Y-53863811D01*
X164362537Y-53973249D01*
X164223249Y-54112537D01*
X164113811Y-54276322D01*
X164038429Y-54458311D01*
X164000000Y-54651509D01*
X164000000Y-54848491D01*
X164038429Y-55041689D01*
X164113811Y-55223678D01*
X164223249Y-55387463D01*
X164362537Y-55526751D01*
X164526322Y-55636189D01*
X164708311Y-55711571D01*
X164901509Y-55750000D01*
X165098491Y-55750000D01*
X165291689Y-55711571D01*
X165473678Y-55636189D01*
X165500000Y-55618601D01*
X165526322Y-55636189D01*
X165708311Y-55711571D01*
X165901509Y-55750000D01*
X166098491Y-55750000D01*
X166291689Y-55711571D01*
X166473678Y-55636189D01*
X166500000Y-55618601D01*
X166526322Y-55636189D01*
X166708311Y-55711571D01*
X166901509Y-55750000D01*
X167098491Y-55750000D01*
X167291689Y-55711571D01*
X167473678Y-55636189D01*
X167500000Y-55618601D01*
X167517588Y-55630353D01*
X167313167Y-55715027D01*
X167075679Y-55873711D01*
X166873711Y-56075679D01*
X166715027Y-56313167D01*
X166605723Y-56577051D01*
X166550000Y-56857187D01*
X166550000Y-57142813D01*
X166605723Y-57422949D01*
X166715027Y-57686833D01*
X166873711Y-57924321D01*
X167046665Y-58097275D01*
X167032379Y-58098682D01*
X166919279Y-58132990D01*
X166815045Y-58188704D01*
X166723683Y-58263683D01*
X166648704Y-58355045D01*
X166592990Y-58459279D01*
X166558682Y-58572379D01*
X166547097Y-58690000D01*
X166547097Y-60390000D01*
X166558682Y-60507621D01*
X166592990Y-60620721D01*
X166648704Y-60724955D01*
X166718499Y-60810000D01*
X166648704Y-60895045D01*
X166592990Y-60999279D01*
X166558682Y-61112379D01*
X166547097Y-61230000D01*
X166547097Y-62930000D01*
X166558682Y-63047621D01*
X166592990Y-63160721D01*
X166648704Y-63264955D01*
X166718499Y-63350000D01*
X166648704Y-63435045D01*
X166592990Y-63539279D01*
X166558682Y-63652379D01*
X166547097Y-63770000D01*
X166547097Y-65470000D01*
X166558682Y-65587621D01*
X166592990Y-65700721D01*
X166648704Y-65804955D01*
X166723683Y-65896317D01*
X166815045Y-65971296D01*
X166919279Y-66027010D01*
X167032379Y-66061318D01*
X167150000Y-66072903D01*
X168800000Y-66072903D01*
X168800000Y-66797097D01*
X167150000Y-66797097D01*
X167032379Y-66808682D01*
X166919279Y-66842990D01*
X166815045Y-66898704D01*
X166723683Y-66973683D01*
X166648704Y-67065045D01*
X166592990Y-67169279D01*
X166558682Y-67282379D01*
X166547097Y-67400000D01*
X166547097Y-69100000D01*
X166558682Y-69217621D01*
X166592990Y-69330721D01*
X166648704Y-69434955D01*
X166723683Y-69526317D01*
X166815045Y-69601296D01*
X166919279Y-69657010D01*
X167032379Y-69691318D01*
X167046665Y-69692725D01*
X166873711Y-69865679D01*
X166715027Y-70103167D01*
X166605723Y-70367051D01*
X166550000Y-70647187D01*
X166550000Y-70932813D01*
X166605723Y-71212949D01*
X166715027Y-71476833D01*
X166873711Y-71714321D01*
X167075679Y-71916289D01*
X167313167Y-72074973D01*
X167577051Y-72184277D01*
X167857187Y-72240000D01*
X168142813Y-72240000D01*
X168422949Y-72184277D01*
X168686833Y-72074973D01*
X168800000Y-71999357D01*
X168800000Y-80550000D01*
X143350000Y-80550000D01*
X143350000Y-78901509D01*
X151250000Y-78901509D01*
X151250000Y-79098491D01*
X151288429Y-79291689D01*
X151363811Y-79473678D01*
X151473249Y-79637463D01*
X151612537Y-79776751D01*
X151776322Y-79886189D01*
X151958311Y-79961571D01*
X152151509Y-80000000D01*
X152348491Y-80000000D01*
X152541689Y-79961571D01*
X152723678Y-79886189D01*
X152887463Y-79776751D01*
X153026751Y-79637463D01*
X153136189Y-79473678D01*
X153211571Y-79291689D01*
X153250000Y-79098491D01*
X153250000Y-78901509D01*
X155000000Y-78901509D01*
X155000000Y-79098491D01*
X155038429Y-79291689D01*
X155113811Y-79473678D01*
X155223249Y-79637463D01*
X155362537Y-79776751D01*
X155526322Y-79886189D01*
X155708311Y-79961571D01*
X155901509Y-80000000D01*
X156098491Y-80000000D01*
X156291689Y-79961571D01*
X156473678Y-79886189D01*
X156637463Y-79776751D01*
X156776751Y-79637463D01*
X156886189Y-79473678D01*
X156961571Y-79291689D01*
X157000000Y-79098491D01*
X157000000Y-78901509D01*
X165000000Y-78901509D01*
X165000000Y-79098491D01*
X165038429Y-79291689D01*
X165113811Y-79473678D01*
X165223249Y-79637463D01*
X165362537Y-79776751D01*
X165526322Y-79886189D01*
X165708311Y-79961571D01*
X165901509Y-80000000D01*
X166098491Y-80000000D01*
X166291689Y-79961571D01*
X166473678Y-79886189D01*
X166637463Y-79776751D01*
X166776751Y-79637463D01*
X166886189Y-79473678D01*
X166961571Y-79291689D01*
X167000000Y-79098491D01*
X167000000Y-78901509D01*
X166961571Y-78708311D01*
X166886189Y-78526322D01*
X166776751Y-78362537D01*
X166637463Y-78223249D01*
X166473678Y-78113811D01*
X166291689Y-78038429D01*
X166098491Y-78000000D01*
X165901509Y-78000000D01*
X165708311Y-78038429D01*
X165526322Y-78113811D01*
X165362537Y-78223249D01*
X165223249Y-78362537D01*
X165113811Y-78526322D01*
X165038429Y-78708311D01*
X165000000Y-78901509D01*
X157000000Y-78901509D01*
X156961571Y-78708311D01*
X156886189Y-78526322D01*
X156776751Y-78362537D01*
X156637463Y-78223249D01*
X156473678Y-78113811D01*
X156291689Y-78038429D01*
X156098491Y-78000000D01*
X155901509Y-78000000D01*
X155708311Y-78038429D01*
X155526322Y-78113811D01*
X155362537Y-78223249D01*
X155223249Y-78362537D01*
X155113811Y-78526322D01*
X155038429Y-78708311D01*
X155000000Y-78901509D01*
X153250000Y-78901509D01*
X153211571Y-78708311D01*
X153136189Y-78526322D01*
X153026751Y-78362537D01*
X152887463Y-78223249D01*
X152723678Y-78113811D01*
X152541689Y-78038429D01*
X152348491Y-78000000D01*
X152151509Y-78000000D01*
X151958311Y-78038429D01*
X151776322Y-78113811D01*
X151612537Y-78223249D01*
X151473249Y-78362537D01*
X151363811Y-78526322D01*
X151288429Y-78708311D01*
X151250000Y-78901509D01*
X143350000Y-78901509D01*
X143350000Y-77401509D01*
X149500000Y-77401509D01*
X149500000Y-77598491D01*
X149538429Y-77791689D01*
X149613811Y-77973678D01*
X149723249Y-78137463D01*
X149862537Y-78276751D01*
X150026322Y-78386189D01*
X150208311Y-78461571D01*
X150401509Y-78500000D01*
X150598491Y-78500000D01*
X150791689Y-78461571D01*
X150973678Y-78386189D01*
X151137463Y-78276751D01*
X151276751Y-78137463D01*
X151386189Y-77973678D01*
X151461571Y-77791689D01*
X151500000Y-77598491D01*
X151500000Y-77401509D01*
X151461571Y-77208311D01*
X151386189Y-77026322D01*
X151276751Y-76862537D01*
X151137463Y-76723249D01*
X150973678Y-76613811D01*
X150791689Y-76538429D01*
X150598491Y-76500000D01*
X150401509Y-76500000D01*
X150208311Y-76538429D01*
X150026322Y-76613811D01*
X149862537Y-76723249D01*
X149723249Y-76862537D01*
X149613811Y-77026322D01*
X149538429Y-77208311D01*
X149500000Y-77401509D01*
X143350000Y-77401509D01*
X143350000Y-76452903D01*
X144000000Y-76452903D01*
X144117621Y-76441318D01*
X144230721Y-76407010D01*
X144334955Y-76351296D01*
X144420000Y-76281501D01*
X144505045Y-76351296D01*
X144609279Y-76407010D01*
X144722379Y-76441318D01*
X144840000Y-76452903D01*
X146540000Y-76452903D01*
X146657621Y-76441318D01*
X146770721Y-76407010D01*
X146874955Y-76351296D01*
X146960000Y-76281501D01*
X147045045Y-76351296D01*
X147149279Y-76407010D01*
X147262379Y-76441318D01*
X147380000Y-76452903D01*
X149080000Y-76452903D01*
X149197621Y-76441318D01*
X149310721Y-76407010D01*
X149414955Y-76351296D01*
X149500000Y-76281501D01*
X149585045Y-76351296D01*
X149689279Y-76407010D01*
X149802379Y-76441318D01*
X149920000Y-76452903D01*
X151620000Y-76452903D01*
X151737621Y-76441318D01*
X151850721Y-76407010D01*
X151954955Y-76351296D01*
X152040000Y-76281501D01*
X152125045Y-76351296D01*
X152229279Y-76407010D01*
X152342379Y-76441318D01*
X152460000Y-76452903D01*
X154160000Y-76452903D01*
X154277621Y-76441318D01*
X154390721Y-76407010D01*
X154494955Y-76351296D01*
X154580000Y-76281501D01*
X154665045Y-76351296D01*
X154769279Y-76407010D01*
X154882379Y-76441318D01*
X155000000Y-76452903D01*
X156700000Y-76452903D01*
X156817621Y-76441318D01*
X156930721Y-76407010D01*
X157034955Y-76351296D01*
X157120000Y-76281501D01*
X157205045Y-76351296D01*
X157309279Y-76407010D01*
X157422379Y-76441318D01*
X157540000Y-76452903D01*
X159240000Y-76452903D01*
X159357621Y-76441318D01*
X159470721Y-76407010D01*
X159574955Y-76351296D01*
X159660000Y-76281501D01*
X159745045Y-76351296D01*
X159849279Y-76407010D01*
X159962379Y-76441318D01*
X160080000Y-76452903D01*
X161780000Y-76452903D01*
X161897621Y-76441318D01*
X162010721Y-76407010D01*
X162114955Y-76351296D01*
X162200000Y-76281501D01*
X162285045Y-76351296D01*
X162389279Y-76407010D01*
X162502379Y-76441318D01*
X162620000Y-76452903D01*
X164320000Y-76452903D01*
X164437621Y-76441318D01*
X164550721Y-76407010D01*
X164654955Y-76351296D01*
X164740000Y-76281501D01*
X164825045Y-76351296D01*
X164929279Y-76407010D01*
X165042379Y-76441318D01*
X165160000Y-76452903D01*
X166860000Y-76452903D01*
X166977621Y-76441318D01*
X167090721Y-76407010D01*
X167194955Y-76351296D01*
X167286317Y-76276317D01*
X167361296Y-76184955D01*
X167417010Y-76080721D01*
X167451318Y-75967621D01*
X167462903Y-75850000D01*
X167462903Y-74150000D01*
X167451318Y-74032379D01*
X167417010Y-73919279D01*
X167361296Y-73815045D01*
X167286317Y-73723683D01*
X167194955Y-73648704D01*
X167090721Y-73592990D01*
X166977621Y-73558682D01*
X166860000Y-73547097D01*
X165160000Y-73547097D01*
X165042379Y-73558682D01*
X164929279Y-73592990D01*
X164825045Y-73648704D01*
X164740000Y-73718499D01*
X164654955Y-73648704D01*
X164550721Y-73592990D01*
X164437621Y-73558682D01*
X164320000Y-73547097D01*
X162620000Y-73547097D01*
X162502379Y-73558682D01*
X162389279Y-73592990D01*
X162285045Y-73648704D01*
X162200000Y-73718499D01*
X162114955Y-73648704D01*
X162010721Y-73592990D01*
X161897621Y-73558682D01*
X161780000Y-73547097D01*
X160080000Y-73547097D01*
X159962379Y-73558682D01*
X159849279Y-73592990D01*
X159745045Y-73648704D01*
X159660000Y-73718499D01*
X159574955Y-73648704D01*
X159470721Y-73592990D01*
X159357621Y-73558682D01*
X159240000Y-73547097D01*
X158459331Y-73547097D01*
X158461571Y-73541689D01*
X158500000Y-73348491D01*
X158500000Y-73151509D01*
X158461571Y-72958311D01*
X158386189Y-72776322D01*
X158276751Y-72612537D01*
X158137463Y-72473249D01*
X157973678Y-72363811D01*
X157791689Y-72288429D01*
X157598491Y-72250000D01*
X157401509Y-72250000D01*
X157208311Y-72288429D01*
X157026322Y-72363811D01*
X156862537Y-72473249D01*
X156723249Y-72612537D01*
X156613811Y-72776322D01*
X156538429Y-72958311D01*
X156500000Y-73151509D01*
X156500000Y-73348491D01*
X156538429Y-73541689D01*
X156540669Y-73547097D01*
X155000000Y-73547097D01*
X154882379Y-73558682D01*
X154769279Y-73592990D01*
X154665045Y-73648704D01*
X154580000Y-73718499D01*
X154494955Y-73648704D01*
X154390721Y-73592990D01*
X154277621Y-73558682D01*
X154160000Y-73547097D01*
X152460000Y-73547097D01*
X152342379Y-73558682D01*
X152229279Y-73592990D01*
X152125045Y-73648704D01*
X152040000Y-73718499D01*
X151954955Y-73648704D01*
X151850721Y-73592990D01*
X151737621Y-73558682D01*
X151620000Y-73547097D01*
X149920000Y-73547097D01*
X149802379Y-73558682D01*
X149689279Y-73592990D01*
X149585045Y-73648704D01*
X149500000Y-73718499D01*
X149414955Y-73648704D01*
X149310721Y-73592990D01*
X149197621Y-73558682D01*
X149080000Y-73547097D01*
X147380000Y-73547097D01*
X147262379Y-73558682D01*
X147149279Y-73592990D01*
X147045045Y-73648704D01*
X146960000Y-73718499D01*
X146874955Y-73648704D01*
X146770721Y-73592990D01*
X146657621Y-73558682D01*
X146540000Y-73547097D01*
X144840000Y-73547097D01*
X144722379Y-73558682D01*
X144609279Y-73592990D01*
X144505045Y-73648704D01*
X144420000Y-73718499D01*
X144334955Y-73648704D01*
X144230721Y-73592990D01*
X144117621Y-73558682D01*
X144000000Y-73547097D01*
X143350000Y-73547097D01*
X143350000Y-69419838D01*
X148963342Y-69419838D01*
X148963342Y-69616820D01*
X149001771Y-69810018D01*
X149077153Y-69992007D01*
X149186591Y-70155792D01*
X149325879Y-70295080D01*
X149489664Y-70404518D01*
X149671653Y-70479900D01*
X149864851Y-70518329D01*
X150061833Y-70518329D01*
X150255031Y-70479900D01*
X150437020Y-70404518D01*
X150600805Y-70295080D01*
X150740093Y-70155792D01*
X150849531Y-69992007D01*
X150924913Y-69810018D01*
X150963342Y-69616820D01*
X150963342Y-69419838D01*
X150924913Y-69226640D01*
X150849531Y-69044651D01*
X150740093Y-68880866D01*
X150600805Y-68741578D01*
X150437020Y-68632140D01*
X150255031Y-68556758D01*
X150061833Y-68518329D01*
X149864851Y-68518329D01*
X149671653Y-68556758D01*
X149489664Y-68632140D01*
X149325879Y-68741578D01*
X149186591Y-68880866D01*
X149077153Y-69044651D01*
X149001771Y-69226640D01*
X148963342Y-69419838D01*
X143350000Y-69419838D01*
X143350000Y-68350000D01*
X147250000Y-68350000D01*
X147269509Y-68348079D01*
X147288268Y-68342388D01*
X147305557Y-68333147D01*
X147320711Y-68320711D01*
X147333147Y-68305557D01*
X147342388Y-68288268D01*
X147348079Y-68269509D01*
X147350000Y-68250000D01*
X147350000Y-64750000D01*
X147348079Y-64730491D01*
X147342388Y-64711732D01*
X147333147Y-64694443D01*
X147320711Y-64679289D01*
X147305557Y-64666853D01*
X147288268Y-64657612D01*
X147269509Y-64651921D01*
X147250000Y-64650000D01*
X141190335Y-64650000D01*
X141223678Y-64636189D01*
X141387463Y-64526751D01*
X141526751Y-64387463D01*
X141636189Y-64223678D01*
X141711571Y-64041689D01*
X141750000Y-63848491D01*
X141750000Y-63651509D01*
X141711571Y-63458311D01*
X141636189Y-63276322D01*
X141526751Y-63112537D01*
X141387463Y-62973249D01*
X141223678Y-62863811D01*
X141041689Y-62788429D01*
X140848491Y-62750000D01*
X140651509Y-62750000D01*
X140458311Y-62788429D01*
X140276322Y-62863811D01*
X140112537Y-62973249D01*
X139973249Y-63112537D01*
X139863811Y-63276322D01*
X139788429Y-63458311D01*
X139750000Y-63651509D01*
X139750000Y-63848491D01*
X139788429Y-64041689D01*
X139863811Y-64223678D01*
X139973249Y-64387463D01*
X140112537Y-64526751D01*
X140276322Y-64636189D01*
X140309665Y-64650000D01*
X131989754Y-64650000D01*
X132000000Y-64598491D01*
X132000000Y-64401509D01*
X131961571Y-64208311D01*
X131886189Y-64026322D01*
X131776751Y-63862537D01*
X131637463Y-63723249D01*
X131473678Y-63613811D01*
X131291689Y-63538429D01*
X131098491Y-63500000D01*
X130901509Y-63500000D01*
X130708311Y-63538429D01*
X130526322Y-63613811D01*
X130362537Y-63723249D01*
X130223249Y-63862537D01*
X130113811Y-64026322D01*
X130038429Y-64208311D01*
X130000000Y-64401509D01*
X130000000Y-64598491D01*
X130010246Y-64650000D01*
X123250000Y-64650000D01*
X123230491Y-64651921D01*
X123211732Y-64657612D01*
X123194443Y-64666853D01*
X123179289Y-64679289D01*
X123166853Y-64694443D01*
X123157612Y-64711732D01*
X123151921Y-64730491D01*
X123150000Y-64750000D01*
X123150000Y-65760246D01*
X123098491Y-65750000D01*
X122901509Y-65750000D01*
X122708311Y-65788429D01*
X122526322Y-65863811D01*
X122362537Y-65973249D01*
X122223249Y-66112537D01*
X122113811Y-66276322D01*
X122038429Y-66458311D01*
X122000000Y-66651509D01*
X122000000Y-66848491D01*
X122038429Y-67041689D01*
X122113811Y-67223678D01*
X122223249Y-67387463D01*
X122362537Y-67526751D01*
X122526322Y-67636189D01*
X122708311Y-67711571D01*
X122901509Y-67750000D01*
X123098491Y-67750000D01*
X123150000Y-67739754D01*
X123150000Y-70650000D01*
X118249700Y-70650000D01*
X118211571Y-70458311D01*
X118136189Y-70276322D01*
X118026751Y-70112537D01*
X117887463Y-69973249D01*
X117723678Y-69863811D01*
X117541689Y-69788429D01*
X117348491Y-69750000D01*
X117151509Y-69750000D01*
X116958311Y-69788429D01*
X116776322Y-69863811D01*
X116612537Y-69973249D01*
X116473249Y-70112537D01*
X116363811Y-70276322D01*
X116288429Y-70458311D01*
X116250300Y-70650000D01*
X112514214Y-70650000D01*
X112526751Y-70637463D01*
X112636189Y-70473678D01*
X112711571Y-70291689D01*
X112750000Y-70098491D01*
X112750000Y-69969863D01*
X112791689Y-69961571D01*
X112973678Y-69886189D01*
X113137463Y-69776751D01*
X113276751Y-69637463D01*
X113386189Y-69473678D01*
X113461571Y-69291689D01*
X113500000Y-69098491D01*
X113500000Y-68901509D01*
X113461571Y-68708311D01*
X113386189Y-68526322D01*
X113276751Y-68362537D01*
X113137463Y-68223249D01*
X112973678Y-68113811D01*
X112791689Y-68038429D01*
X112598491Y-68000000D01*
X112401509Y-68000000D01*
X112208311Y-68038429D01*
X112026322Y-68113811D01*
X111862537Y-68223249D01*
X111723249Y-68362537D01*
X111613811Y-68526322D01*
X111538429Y-68708311D01*
X111500000Y-68901509D01*
X111500000Y-69030137D01*
X111458311Y-69038429D01*
X111276322Y-69113811D01*
X111112537Y-69223249D01*
X110973249Y-69362537D01*
X110863811Y-69526322D01*
X110788429Y-69708311D01*
X110750000Y-69901509D01*
X110750000Y-70098491D01*
X110788429Y-70291689D01*
X110863811Y-70473678D01*
X110973249Y-70637463D01*
X110985786Y-70650000D01*
X110014214Y-70650000D01*
X110026751Y-70637463D01*
X110136189Y-70473678D01*
X110211571Y-70291689D01*
X110250000Y-70098491D01*
X110250000Y-69901509D01*
X110211571Y-69708311D01*
X110136189Y-69526322D01*
X110026751Y-69362537D01*
X109887463Y-69223249D01*
X109723678Y-69113811D01*
X109541689Y-69038429D01*
X109348491Y-69000000D01*
X109151509Y-69000000D01*
X108958311Y-69038429D01*
X108776322Y-69113811D01*
X108750000Y-69131399D01*
X108723678Y-69113811D01*
X108541689Y-69038429D01*
X108348491Y-69000000D01*
X108151509Y-69000000D01*
X107958311Y-69038429D01*
X107776322Y-69113811D01*
X107750000Y-69131399D01*
X107723678Y-69113811D01*
X107541689Y-69038429D01*
X107348491Y-69000000D01*
X107151509Y-69000000D01*
X106958311Y-69038429D01*
X106776322Y-69113811D01*
X106612537Y-69223249D01*
X106473249Y-69362537D01*
X106363811Y-69526322D01*
X106288429Y-69708311D01*
X106250000Y-69901509D01*
X106250000Y-70098491D01*
X106288429Y-70291689D01*
X106363811Y-70473678D01*
X106473249Y-70637463D01*
X106612537Y-70776751D01*
X106776322Y-70886189D01*
X106958311Y-70961571D01*
X107151509Y-71000000D01*
X107348491Y-71000000D01*
X107541689Y-70961571D01*
X107723678Y-70886189D01*
X107750000Y-70868601D01*
X107776322Y-70886189D01*
X107958311Y-70961571D01*
X108151509Y-71000000D01*
X108348491Y-71000000D01*
X108541689Y-70961571D01*
X108650000Y-70916707D01*
X108650000Y-77608640D01*
X108620721Y-77592990D01*
X108507621Y-77558682D01*
X108390000Y-77547097D01*
X106690000Y-77547097D01*
X106572379Y-77558682D01*
X106459279Y-77592990D01*
X106355045Y-77648704D01*
X106263683Y-77723683D01*
X106188704Y-77815045D01*
X106132990Y-77919279D01*
X106098682Y-78032379D01*
X106097275Y-78046665D01*
X105924321Y-77873711D01*
X105686833Y-77715027D01*
X105422949Y-77605723D01*
X105142813Y-77550000D01*
X104857187Y-77550000D01*
X104577051Y-77605723D01*
X104313167Y-77715027D01*
X104075679Y-77873711D01*
X103873711Y-78075679D01*
X103715027Y-78313167D01*
X103605723Y-78577051D01*
X103550000Y-78857187D01*
X103550000Y-79142813D01*
X103605723Y-79422949D01*
X103715027Y-79686833D01*
X103873711Y-79924321D01*
X104075679Y-80126289D01*
X104313167Y-80284973D01*
X104577051Y-80394277D01*
X104857187Y-80450000D01*
X105142813Y-80450000D01*
X105422949Y-80394277D01*
X105686833Y-80284973D01*
X105924321Y-80126289D01*
X106097275Y-79953335D01*
X106098682Y-79967621D01*
X106132990Y-80080721D01*
X106188704Y-80184955D01*
X106263683Y-80276317D01*
X106355045Y-80351296D01*
X106459279Y-80407010D01*
X106572379Y-80441318D01*
X106690000Y-80452903D01*
X108390000Y-80452903D01*
X108507621Y-80441318D01*
X108620721Y-80407010D01*
X108650000Y-80391360D01*
X108650000Y-80550000D01*
X102200000Y-80550000D01*
X102200000Y-66651509D01*
X105000000Y-66651509D01*
X105000000Y-66848491D01*
X105038429Y-67041689D01*
X105113811Y-67223678D01*
X105223249Y-67387463D01*
X105362537Y-67526751D01*
X105526322Y-67636189D01*
X105708311Y-67711571D01*
X105901509Y-67750000D01*
X106098491Y-67750000D01*
X106291689Y-67711571D01*
X106473678Y-67636189D01*
X106637463Y-67526751D01*
X106776751Y-67387463D01*
X106886189Y-67223678D01*
X106961571Y-67041689D01*
X107000000Y-66848491D01*
X107000000Y-66651509D01*
X106961571Y-66458311D01*
X106886189Y-66276322D01*
X106776751Y-66112537D01*
X106637463Y-65973249D01*
X106473678Y-65863811D01*
X106291689Y-65788429D01*
X106098491Y-65750000D01*
X105901509Y-65750000D01*
X105708311Y-65788429D01*
X105526322Y-65863811D01*
X105362537Y-65973249D01*
X105223249Y-66112537D01*
X105113811Y-66276322D01*
X105038429Y-66458311D01*
X105000000Y-66651509D01*
X102200000Y-66651509D01*
X102200000Y-63901509D01*
X102750000Y-63901509D01*
X102750000Y-64098491D01*
X102788429Y-64291689D01*
X102863811Y-64473678D01*
X102973249Y-64637463D01*
X103112537Y-64776751D01*
X103276322Y-64886189D01*
X103458311Y-64961571D01*
X103651509Y-65000000D01*
X103848491Y-65000000D01*
X104041689Y-64961571D01*
X104223678Y-64886189D01*
X104387463Y-64776751D01*
X104526751Y-64637463D01*
X104636189Y-64473678D01*
X104711571Y-64291689D01*
X104750000Y-64098491D01*
X104750000Y-63901509D01*
X119000000Y-63901509D01*
X119000000Y-64098491D01*
X119038429Y-64291689D01*
X119113811Y-64473678D01*
X119223249Y-64637463D01*
X119362537Y-64776751D01*
X119526322Y-64886189D01*
X119708311Y-64961571D01*
X119901509Y-65000000D01*
X120098491Y-65000000D01*
X120291689Y-64961571D01*
X120473678Y-64886189D01*
X120637463Y-64776751D01*
X120776751Y-64637463D01*
X120886189Y-64473678D01*
X120961571Y-64291689D01*
X121000000Y-64098491D01*
X121000000Y-63901509D01*
X120961571Y-63708311D01*
X120886189Y-63526322D01*
X120776751Y-63362537D01*
X120637463Y-63223249D01*
X120473678Y-63113811D01*
X120291689Y-63038429D01*
X120098491Y-63000000D01*
X119901509Y-63000000D01*
X119708311Y-63038429D01*
X119526322Y-63113811D01*
X119362537Y-63223249D01*
X119223249Y-63362537D01*
X119113811Y-63526322D01*
X119038429Y-63708311D01*
X119000000Y-63901509D01*
X104750000Y-63901509D01*
X104711571Y-63708311D01*
X104636189Y-63526322D01*
X104526751Y-63362537D01*
X104387463Y-63223249D01*
X104223678Y-63113811D01*
X104041689Y-63038429D01*
X103848491Y-63000000D01*
X103651509Y-63000000D01*
X103458311Y-63038429D01*
X103276322Y-63113811D01*
X103112537Y-63223249D01*
X102973249Y-63362537D01*
X102863811Y-63526322D01*
X102788429Y-63708311D01*
X102750000Y-63901509D01*
X102200000Y-63901509D01*
X102200000Y-62358569D01*
X132263212Y-62358569D01*
X132263212Y-62555551D01*
X132301641Y-62748749D01*
X132377023Y-62930738D01*
X132486461Y-63094523D01*
X132625749Y-63233811D01*
X132789534Y-63343249D01*
X132971523Y-63418631D01*
X133164721Y-63457060D01*
X133361703Y-63457060D01*
X133554901Y-63418631D01*
X133736890Y-63343249D01*
X133900675Y-63233811D01*
X134039963Y-63094523D01*
X134149401Y-62930738D01*
X134224783Y-62748749D01*
X134263212Y-62555551D01*
X134263212Y-62358569D01*
X134224783Y-62165371D01*
X134149401Y-61983382D01*
X134039963Y-61819597D01*
X133900675Y-61680309D01*
X133857573Y-61651509D01*
X142750000Y-61651509D01*
X142750000Y-61848491D01*
X142788429Y-62041689D01*
X142863811Y-62223678D01*
X142973249Y-62387463D01*
X143112537Y-62526751D01*
X143276322Y-62636189D01*
X143458311Y-62711571D01*
X143651509Y-62750000D01*
X143848491Y-62750000D01*
X144041689Y-62711571D01*
X144223678Y-62636189D01*
X144387463Y-62526751D01*
X144526751Y-62387463D01*
X144636189Y-62223678D01*
X144711571Y-62041689D01*
X144750000Y-61848491D01*
X144750000Y-61651509D01*
X144711571Y-61458311D01*
X144636189Y-61276322D01*
X144526751Y-61112537D01*
X144387463Y-60973249D01*
X144223678Y-60863811D01*
X144041689Y-60788429D01*
X143848491Y-60750000D01*
X143651509Y-60750000D01*
X143458311Y-60788429D01*
X143276322Y-60863811D01*
X143112537Y-60973249D01*
X142973249Y-61112537D01*
X142863811Y-61276322D01*
X142788429Y-61458311D01*
X142750000Y-61651509D01*
X133857573Y-61651509D01*
X133736890Y-61570871D01*
X133554901Y-61495489D01*
X133361703Y-61457060D01*
X133164721Y-61457060D01*
X132971523Y-61495489D01*
X132789534Y-61570871D01*
X132625749Y-61680309D01*
X132486461Y-61819597D01*
X132377023Y-61983382D01*
X132301641Y-62165371D01*
X132263212Y-62358569D01*
X102200000Y-62358569D01*
X102200000Y-58651509D01*
X119000000Y-58651509D01*
X119000000Y-58848491D01*
X119038429Y-59041689D01*
X119113811Y-59223678D01*
X119223249Y-59387463D01*
X119362537Y-59526751D01*
X119526322Y-59636189D01*
X119708311Y-59711571D01*
X119901509Y-59750000D01*
X120098491Y-59750000D01*
X120291689Y-59711571D01*
X120473678Y-59636189D01*
X120637463Y-59526751D01*
X120776751Y-59387463D01*
X120886189Y-59223678D01*
X120961571Y-59041689D01*
X121000000Y-58848491D01*
X121000000Y-58651509D01*
X120961571Y-58458311D01*
X120886189Y-58276322D01*
X120776751Y-58112537D01*
X120637463Y-57973249D01*
X120473678Y-57863811D01*
X120291689Y-57788429D01*
X120098491Y-57750000D01*
X119901509Y-57750000D01*
X119708311Y-57788429D01*
X119526322Y-57863811D01*
X119362537Y-57973249D01*
X119223249Y-58112537D01*
X119113811Y-58276322D01*
X119038429Y-58458311D01*
X119000000Y-58651509D01*
X102200000Y-58651509D01*
X102200000Y-43400000D01*
X102257097Y-43400000D01*
X102257097Y-45100000D01*
X102268682Y-45217621D01*
X102302990Y-45330721D01*
X102358704Y-45434955D01*
X102428499Y-45520000D01*
X102358704Y-45605045D01*
X102302990Y-45709279D01*
X102268682Y-45822379D01*
X102257097Y-45940000D01*
X102257097Y-47640000D01*
X102268682Y-47757621D01*
X102302990Y-47870721D01*
X102358704Y-47974955D01*
X102428499Y-48060000D01*
X102358704Y-48145045D01*
X102302990Y-48249279D01*
X102268682Y-48362379D01*
X102257097Y-48480000D01*
X102257097Y-50180000D01*
X102268682Y-50297621D01*
X102302990Y-50410721D01*
X102358704Y-50514955D01*
X102433683Y-50606317D01*
X102525045Y-50681296D01*
X102629279Y-50737010D01*
X102742379Y-50771318D01*
X102860000Y-50782903D01*
X104560000Y-50782903D01*
X104677621Y-50771318D01*
X104790721Y-50737010D01*
X104894955Y-50681296D01*
X104980000Y-50611501D01*
X105065045Y-50681296D01*
X105169279Y-50737010D01*
X105282379Y-50771318D01*
X105400000Y-50782903D01*
X107100000Y-50782903D01*
X107217621Y-50771318D01*
X107330721Y-50737010D01*
X107434955Y-50681296D01*
X107526317Y-50606317D01*
X107601296Y-50514955D01*
X107657010Y-50410721D01*
X107691318Y-50297621D01*
X107702903Y-50180000D01*
X107702903Y-48480000D01*
X107691318Y-48362379D01*
X107657010Y-48249279D01*
X107601296Y-48145045D01*
X107531501Y-48060000D01*
X107601296Y-47974955D01*
X107657010Y-47870721D01*
X107691318Y-47757621D01*
X107702903Y-47640000D01*
X107702903Y-47151509D01*
X110250000Y-47151509D01*
X110250000Y-47348491D01*
X110288429Y-47541689D01*
X110363811Y-47723678D01*
X110473249Y-47887463D01*
X110612537Y-48026751D01*
X110776322Y-48136189D01*
X110958311Y-48211571D01*
X111151509Y-48250000D01*
X111348491Y-48250000D01*
X111541689Y-48211571D01*
X111723678Y-48136189D01*
X111887463Y-48026751D01*
X112026751Y-47887463D01*
X112136189Y-47723678D01*
X112211571Y-47541689D01*
X112250000Y-47348491D01*
X112250000Y-47151509D01*
X112211571Y-46958311D01*
X112136189Y-46776322D01*
X112026751Y-46612537D01*
X111887463Y-46473249D01*
X111723678Y-46363811D01*
X111541689Y-46288429D01*
X111348491Y-46250000D01*
X111151509Y-46250000D01*
X110958311Y-46288429D01*
X110776322Y-46363811D01*
X110612537Y-46473249D01*
X110473249Y-46612537D01*
X110363811Y-46776322D01*
X110288429Y-46958311D01*
X110250000Y-47151509D01*
X107702903Y-47151509D01*
X107702903Y-45940000D01*
X107691318Y-45822379D01*
X107657010Y-45709279D01*
X107601296Y-45605045D01*
X107526317Y-45513683D01*
X107434955Y-45438704D01*
X107330721Y-45382990D01*
X107217621Y-45348682D01*
X107203335Y-45347275D01*
X107376289Y-45174321D01*
X107534973Y-44936833D01*
X107549604Y-44901509D01*
X110250000Y-44901509D01*
X110250000Y-45098491D01*
X110288429Y-45291689D01*
X110363811Y-45473678D01*
X110473249Y-45637463D01*
X110612537Y-45776751D01*
X110776322Y-45886189D01*
X110958311Y-45961571D01*
X111151509Y-46000000D01*
X111348491Y-46000000D01*
X111541689Y-45961571D01*
X111723678Y-45886189D01*
X111887463Y-45776751D01*
X112026751Y-45637463D01*
X112136189Y-45473678D01*
X112211571Y-45291689D01*
X112250000Y-45098491D01*
X112250000Y-44901509D01*
X112211571Y-44708311D01*
X112136189Y-44526322D01*
X112026751Y-44362537D01*
X111887463Y-44223249D01*
X111723678Y-44113811D01*
X111541689Y-44038429D01*
X111348491Y-44000000D01*
X111151509Y-44000000D01*
X110958311Y-44038429D01*
X110776322Y-44113811D01*
X110612537Y-44223249D01*
X110473249Y-44362537D01*
X110363811Y-44526322D01*
X110288429Y-44708311D01*
X110250000Y-44901509D01*
X107549604Y-44901509D01*
X107644277Y-44672949D01*
X107700000Y-44392813D01*
X107700000Y-44107187D01*
X107644277Y-43827051D01*
X107534973Y-43563167D01*
X107376289Y-43325679D01*
X107174321Y-43123711D01*
X106936833Y-42965027D01*
X106672949Y-42855723D01*
X106392813Y-42800000D01*
X106107187Y-42800000D01*
X105827051Y-42855723D01*
X105563167Y-42965027D01*
X105325679Y-43123711D01*
X105152725Y-43296665D01*
X105151318Y-43282379D01*
X105117010Y-43169279D01*
X105061296Y-43065045D01*
X104986317Y-42973683D01*
X104894955Y-42898704D01*
X104790721Y-42842990D01*
X104677621Y-42808682D01*
X104560000Y-42797097D01*
X102860000Y-42797097D01*
X102742379Y-42808682D01*
X102629279Y-42842990D01*
X102525045Y-42898704D01*
X102433683Y-42973683D01*
X102358704Y-43065045D01*
X102302990Y-43169279D01*
X102268682Y-43282379D01*
X102257097Y-43400000D01*
X102200000Y-43400000D01*
X102200000Y-40950000D01*
X113414808Y-40950000D01*
X113363811Y-41026322D01*
X113363811Y-41026322D01*
G37*
X113363811Y-41026322D02*
X113288429Y-41208311D01*
X113250000Y-41401509D01*
X113250000Y-41598491D01*
X113288429Y-41791689D01*
X113363811Y-41973678D01*
X113473249Y-42137463D01*
X113612537Y-42276751D01*
X113776322Y-42386189D01*
X113958311Y-42461571D01*
X114000000Y-42469863D01*
X114000000Y-42598491D01*
X114038429Y-42791689D01*
X114113811Y-42973678D01*
X114131399Y-43000000D01*
X114113811Y-43026322D01*
X114038429Y-43208311D01*
X114000000Y-43401509D01*
X114000000Y-43598491D01*
X114038429Y-43791689D01*
X114113811Y-43973678D01*
X114131399Y-44000000D01*
X114113811Y-44026322D01*
X114038429Y-44208311D01*
X114000000Y-44401509D01*
X114000000Y-44598491D01*
X114038429Y-44791689D01*
X114113811Y-44973678D01*
X114131399Y-45000000D01*
X114113811Y-45026322D01*
X114038429Y-45208311D01*
X114000000Y-45401509D01*
X114000000Y-45598491D01*
X114038429Y-45791689D01*
X114113811Y-45973678D01*
X114131399Y-46000000D01*
X114113811Y-46026322D01*
X114038429Y-46208311D01*
X114000000Y-46401509D01*
X114000000Y-46598491D01*
X114038429Y-46791689D01*
X114113811Y-46973678D01*
X114131399Y-47000000D01*
X114113811Y-47026322D01*
X114038429Y-47208311D01*
X114000000Y-47401509D01*
X114000000Y-47598491D01*
X114038429Y-47791689D01*
X114113811Y-47973678D01*
X114131399Y-48000000D01*
X114113811Y-48026322D01*
X114038429Y-48208311D01*
X114000000Y-48401509D01*
X114000000Y-48598491D01*
X114038429Y-48791689D01*
X114113811Y-48973678D01*
X114131399Y-49000000D01*
X114113811Y-49026322D01*
X114038429Y-49208311D01*
X114000000Y-49401509D01*
X114000000Y-49598491D01*
X114038429Y-49791689D01*
X114113811Y-49973678D01*
X114131399Y-50000000D01*
X114113811Y-50026322D01*
X114038429Y-50208311D01*
X114000000Y-50401509D01*
X114000000Y-50598491D01*
X114038429Y-50791689D01*
X114113811Y-50973678D01*
X114131399Y-51000000D01*
X114113811Y-51026322D01*
X114038429Y-51208311D01*
X114000000Y-51401509D01*
X114000000Y-51598491D01*
X114038429Y-51791689D01*
X114113811Y-51973678D01*
X114131399Y-52000000D01*
X114113811Y-52026322D01*
X114038429Y-52208311D01*
X114000000Y-52401509D01*
X114000000Y-52598491D01*
X114038429Y-52791689D01*
X114113811Y-52973678D01*
X114131399Y-53000000D01*
X114113811Y-53026322D01*
X114038429Y-53208311D01*
X114000000Y-53401509D01*
X114000000Y-53598491D01*
X114038429Y-53791689D01*
X114113811Y-53973678D01*
X114131399Y-54000000D01*
X114113811Y-54026322D01*
X114038429Y-54208311D01*
X114000000Y-54401509D01*
X114000000Y-54598491D01*
X114038429Y-54791689D01*
X114113811Y-54973678D01*
X114131399Y-55000000D01*
X114113811Y-55026322D01*
X114038429Y-55208311D01*
X114000000Y-55401509D01*
X114000000Y-55598491D01*
X114038429Y-55791689D01*
X114113811Y-55973678D01*
X114131399Y-56000000D01*
X114113811Y-56026322D01*
X114038429Y-56208311D01*
X114000000Y-56401509D01*
X114000000Y-56598491D01*
X114038429Y-56791689D01*
X114113811Y-56973678D01*
X114223249Y-57137463D01*
X114362537Y-57276751D01*
X114526322Y-57386189D01*
X114708311Y-57461571D01*
X114901509Y-57500000D01*
X115098491Y-57500000D01*
X115291689Y-57461571D01*
X115473678Y-57386189D01*
X115637463Y-57276751D01*
X115776751Y-57137463D01*
X115886189Y-56973678D01*
X115961571Y-56791689D01*
X116000000Y-56598491D01*
X116000000Y-56401509D01*
X115961571Y-56208311D01*
X115886189Y-56026322D01*
X115868601Y-56000000D01*
X115886189Y-55973678D01*
X115961571Y-55791689D01*
X116000000Y-55598491D01*
X116000000Y-55401509D01*
X115961571Y-55208311D01*
X115886189Y-55026322D01*
X115868601Y-55000000D01*
X115886189Y-54973678D01*
X115916082Y-54901509D01*
X116750000Y-54901509D01*
X116750000Y-55098491D01*
X116788429Y-55291689D01*
X116863811Y-55473678D01*
X116973249Y-55637463D01*
X117112537Y-55776751D01*
X117276322Y-55886189D01*
X117458311Y-55961571D01*
X117651509Y-56000000D01*
X117848491Y-56000000D01*
X118041689Y-55961571D01*
X118223678Y-55886189D01*
X118387463Y-55776751D01*
X118526751Y-55637463D01*
X118636189Y-55473678D01*
X118711571Y-55291689D01*
X118750000Y-55098491D01*
X118750000Y-54901509D01*
X120000000Y-54901509D01*
X120000000Y-55098491D01*
X120038429Y-55291689D01*
X120113811Y-55473678D01*
X120223249Y-55637463D01*
X120362537Y-55776751D01*
X120526322Y-55886189D01*
X120708311Y-55961571D01*
X120901509Y-56000000D01*
X121098491Y-56000000D01*
X121291689Y-55961571D01*
X121473678Y-55886189D01*
X121637463Y-55776751D01*
X121776751Y-55637463D01*
X121886189Y-55473678D01*
X121961571Y-55291689D01*
X122000000Y-55098491D01*
X122000000Y-54901509D01*
X121961571Y-54708311D01*
X121886189Y-54526322D01*
X121776751Y-54362537D01*
X121637463Y-54223249D01*
X121473678Y-54113811D01*
X121291689Y-54038429D01*
X121098491Y-54000000D01*
X120901509Y-54000000D01*
X120708311Y-54038429D01*
X120526322Y-54113811D01*
X120362537Y-54223249D01*
X120223249Y-54362537D01*
X120113811Y-54526322D01*
X120038429Y-54708311D01*
X120000000Y-54901509D01*
X118750000Y-54901509D01*
X118711571Y-54708311D01*
X118636189Y-54526322D01*
X118526751Y-54362537D01*
X118387463Y-54223249D01*
X118223678Y-54113811D01*
X118041689Y-54038429D01*
X117848491Y-54000000D01*
X117651509Y-54000000D01*
X117458311Y-54038429D01*
X117276322Y-54113811D01*
X117112537Y-54223249D01*
X116973249Y-54362537D01*
X116863811Y-54526322D01*
X116788429Y-54708311D01*
X116750000Y-54901509D01*
X115916082Y-54901509D01*
X115961571Y-54791689D01*
X116000000Y-54598491D01*
X116000000Y-54401509D01*
X115961571Y-54208311D01*
X115886189Y-54026322D01*
X115868601Y-54000000D01*
X115886189Y-53973678D01*
X115961571Y-53791689D01*
X116000000Y-53598491D01*
X116000000Y-53401509D01*
X115961571Y-53208311D01*
X115886189Y-53026322D01*
X115868601Y-53000000D01*
X115886189Y-52973678D01*
X115961571Y-52791689D01*
X116000000Y-52598491D01*
X116000000Y-52401509D01*
X115961571Y-52208311D01*
X115886189Y-52026322D01*
X115868601Y-52000000D01*
X115886189Y-51973678D01*
X115961571Y-51791689D01*
X116000000Y-51598491D01*
X116000000Y-51401509D01*
X115961571Y-51208311D01*
X115886189Y-51026322D01*
X115868601Y-51000000D01*
X115886189Y-50973678D01*
X115961571Y-50791689D01*
X116000000Y-50598491D01*
X116000000Y-50401509D01*
X115961571Y-50208311D01*
X115886189Y-50026322D01*
X115868601Y-50000000D01*
X115886189Y-49973678D01*
X115961571Y-49791689D01*
X116000000Y-49598491D01*
X116000000Y-49401509D01*
X115961571Y-49208311D01*
X115886189Y-49026322D01*
X115868601Y-49000000D01*
X115886189Y-48973678D01*
X115961571Y-48791689D01*
X116000000Y-48598491D01*
X116000000Y-48401509D01*
X115961571Y-48208311D01*
X115886189Y-48026322D01*
X115868601Y-48000000D01*
X115886189Y-47973678D01*
X115961571Y-47791689D01*
X116000000Y-47598491D01*
X116000000Y-47401509D01*
X115961571Y-47208311D01*
X115886189Y-47026322D01*
X115868601Y-47000000D01*
X115886189Y-46973678D01*
X115961571Y-46791689D01*
X116000000Y-46598491D01*
X116000000Y-46401509D01*
X115961571Y-46208311D01*
X115886189Y-46026322D01*
X115868601Y-46000000D01*
X115886189Y-45973678D01*
X115961571Y-45791689D01*
X116000000Y-45598491D01*
X116000000Y-45401509D01*
X123500000Y-45401509D01*
X123500000Y-45598491D01*
X123538429Y-45791689D01*
X123613811Y-45973678D01*
X123723249Y-46137463D01*
X123862537Y-46276751D01*
X124026322Y-46386189D01*
X124208311Y-46461571D01*
X124401509Y-46500000D01*
X124598491Y-46500000D01*
X124791689Y-46461571D01*
X124973678Y-46386189D01*
X125000000Y-46368601D01*
X125026322Y-46386189D01*
X125208311Y-46461571D01*
X125401509Y-46500000D01*
X125598491Y-46500000D01*
X125791689Y-46461571D01*
X125973678Y-46386189D01*
X126000000Y-46368601D01*
X126026322Y-46386189D01*
X126208311Y-46461571D01*
X126401509Y-46500000D01*
X126598491Y-46500000D01*
X126791689Y-46461571D01*
X126973678Y-46386189D01*
X127000000Y-46368601D01*
X127026322Y-46386189D01*
X127208311Y-46461571D01*
X127401509Y-46500000D01*
X127500000Y-46500000D01*
X127500000Y-46598491D01*
X127538429Y-46791689D01*
X127613811Y-46973678D01*
X127631399Y-47000000D01*
X127613811Y-47026322D01*
X127538429Y-47208311D01*
X127500000Y-47401509D01*
X127500000Y-47598491D01*
X127538429Y-47791689D01*
X127613811Y-47973678D01*
X127631399Y-48000000D01*
X127613811Y-48026322D01*
X127538429Y-48208311D01*
X127500000Y-48401509D01*
X127500000Y-48598491D01*
X127538429Y-48791689D01*
X127613811Y-48973678D01*
X127631399Y-49000000D01*
X127613811Y-49026322D01*
X127538429Y-49208311D01*
X127500000Y-49401509D01*
X127500000Y-49598491D01*
X127538429Y-49791689D01*
X127613811Y-49973678D01*
X127631399Y-50000000D01*
X127613811Y-50026322D01*
X127538429Y-50208311D01*
X127500000Y-50401509D01*
X127500000Y-50598491D01*
X127538429Y-50791689D01*
X127613811Y-50973678D01*
X127631399Y-51000000D01*
X127613811Y-51026322D01*
X127538429Y-51208311D01*
X127500000Y-51401509D01*
X127500000Y-51598491D01*
X127538429Y-51791689D01*
X127613811Y-51973678D01*
X127631399Y-52000000D01*
X127613811Y-52026322D01*
X127538429Y-52208311D01*
X127500000Y-52401509D01*
X127500000Y-52598491D01*
X127538429Y-52791689D01*
X127613811Y-52973678D01*
X127631399Y-53000000D01*
X127613811Y-53026322D01*
X127538429Y-53208311D01*
X127500000Y-53401509D01*
X127500000Y-53598491D01*
X127538429Y-53791689D01*
X127613811Y-53973678D01*
X127631399Y-54000000D01*
X127613811Y-54026322D01*
X127538429Y-54208311D01*
X127500000Y-54401509D01*
X127500000Y-54598491D01*
X127538429Y-54791689D01*
X127613811Y-54973678D01*
X127631399Y-55000000D01*
X127613811Y-55026322D01*
X127538429Y-55208311D01*
X127500000Y-55401509D01*
X127500000Y-55598491D01*
X127538429Y-55791689D01*
X127613811Y-55973678D01*
X127631399Y-56000000D01*
X127613811Y-56026322D01*
X127538429Y-56208311D01*
X127530137Y-56250000D01*
X127401509Y-56250000D01*
X127208311Y-56288429D01*
X127026322Y-56363811D01*
X127000000Y-56381399D01*
X126973678Y-56363811D01*
X126791689Y-56288429D01*
X126598491Y-56250000D01*
X126401509Y-56250000D01*
X126208311Y-56288429D01*
X126026322Y-56363811D01*
X126000000Y-56381399D01*
X125973678Y-56363811D01*
X125791689Y-56288429D01*
X125598491Y-56250000D01*
X125401509Y-56250000D01*
X125208311Y-56288429D01*
X125026322Y-56363811D01*
X125000000Y-56381399D01*
X124973678Y-56363811D01*
X124791689Y-56288429D01*
X124598491Y-56250000D01*
X124401509Y-56250000D01*
X124208311Y-56288429D01*
X124026322Y-56363811D01*
X123862537Y-56473249D01*
X123723249Y-56612537D01*
X123613811Y-56776322D01*
X123538429Y-56958311D01*
X123500000Y-57151509D01*
X123500000Y-57348491D01*
X123538429Y-57541689D01*
X123613811Y-57723678D01*
X123723249Y-57887463D01*
X123862537Y-58026751D01*
X124026322Y-58136189D01*
X124208311Y-58211571D01*
X124401509Y-58250000D01*
X124598491Y-58250000D01*
X124791689Y-58211571D01*
X124973678Y-58136189D01*
X125000000Y-58118601D01*
X125026322Y-58136189D01*
X125208311Y-58211571D01*
X125401509Y-58250000D01*
X125598491Y-58250000D01*
X125791689Y-58211571D01*
X125973678Y-58136189D01*
X126000000Y-58118601D01*
X126026322Y-58136189D01*
X126208311Y-58211571D01*
X126401509Y-58250000D01*
X126598491Y-58250000D01*
X126791689Y-58211571D01*
X126973678Y-58136189D01*
X127000000Y-58118601D01*
X127026322Y-58136189D01*
X127208311Y-58211571D01*
X127401509Y-58250000D01*
X127585786Y-58250000D01*
X127473249Y-58362537D01*
X127363811Y-58526322D01*
X127288429Y-58708311D01*
X127250000Y-58901509D01*
X127250000Y-59098491D01*
X127288429Y-59291689D01*
X127363811Y-59473678D01*
X127473249Y-59637463D01*
X127612537Y-59776751D01*
X127776322Y-59886189D01*
X127958311Y-59961571D01*
X128151509Y-60000000D01*
X128348491Y-60000000D01*
X128541689Y-59961571D01*
X128723678Y-59886189D01*
X128887463Y-59776751D01*
X129026751Y-59637463D01*
X129136189Y-59473678D01*
X129211571Y-59291689D01*
X129250000Y-59098491D01*
X129250000Y-58901509D01*
X148500000Y-58901509D01*
X148500000Y-59098491D01*
X148538429Y-59291689D01*
X148613811Y-59473678D01*
X148723249Y-59637463D01*
X148723286Y-59637500D01*
X148723249Y-59637537D01*
X148613811Y-59801322D01*
X148538429Y-59983311D01*
X148500000Y-60176509D01*
X148500000Y-60373491D01*
X148538429Y-60566689D01*
X148613811Y-60748678D01*
X148706569Y-60887500D01*
X148613811Y-61026322D01*
X148538429Y-61208311D01*
X148500000Y-61401509D01*
X148500000Y-61598491D01*
X148538429Y-61791689D01*
X148613811Y-61973678D01*
X148723249Y-62137463D01*
X148862537Y-62276751D01*
X149026322Y-62386189D01*
X149208311Y-62461571D01*
X149401509Y-62500000D01*
X149598491Y-62500000D01*
X149791689Y-62461571D01*
X149973678Y-62386189D01*
X150137463Y-62276751D01*
X150276751Y-62137463D01*
X150386189Y-61973678D01*
X150461571Y-61791689D01*
X150500000Y-61598491D01*
X150500000Y-61401509D01*
X150461571Y-61208311D01*
X150386189Y-61026322D01*
X150293431Y-60887500D01*
X150386189Y-60748678D01*
X150461571Y-60566689D01*
X150500000Y-60373491D01*
X150500000Y-60176509D01*
X150461571Y-59983311D01*
X150386189Y-59801322D01*
X150276751Y-59637537D01*
X150276714Y-59637500D01*
X150276751Y-59637463D01*
X150386189Y-59473678D01*
X150461571Y-59291689D01*
X150500000Y-59098491D01*
X150500000Y-58901509D01*
X150461571Y-58708311D01*
X150438043Y-58651509D01*
X154750000Y-58651509D01*
X154750000Y-58848491D01*
X154788429Y-59041689D01*
X154863811Y-59223678D01*
X154973249Y-59387463D01*
X155112537Y-59526751D01*
X155276322Y-59636189D01*
X155458311Y-59711571D01*
X155651509Y-59750000D01*
X155848491Y-59750000D01*
X156041689Y-59711571D01*
X156223678Y-59636189D01*
X156387463Y-59526751D01*
X156526751Y-59387463D01*
X156636189Y-59223678D01*
X156711571Y-59041689D01*
X156750000Y-58848491D01*
X156750000Y-58651509D01*
X156711571Y-58458311D01*
X156636189Y-58276322D01*
X156526751Y-58112537D01*
X156387463Y-57973249D01*
X156223678Y-57863811D01*
X156041689Y-57788429D01*
X155848491Y-57750000D01*
X155651509Y-57750000D01*
X155458311Y-57788429D01*
X155276322Y-57863811D01*
X155112537Y-57973249D01*
X154973249Y-58112537D01*
X154863811Y-58276322D01*
X154788429Y-58458311D01*
X154750000Y-58651509D01*
X150438043Y-58651509D01*
X150386189Y-58526322D01*
X150276751Y-58362537D01*
X150137463Y-58223249D01*
X149973678Y-58113811D01*
X149791689Y-58038429D01*
X149598491Y-58000000D01*
X149401509Y-58000000D01*
X149208311Y-58038429D01*
X149026322Y-58113811D01*
X148862537Y-58223249D01*
X148723249Y-58362537D01*
X148613811Y-58526322D01*
X148538429Y-58708311D01*
X148500000Y-58901509D01*
X129250000Y-58901509D01*
X129211571Y-58708311D01*
X129136189Y-58526322D01*
X129026751Y-58362537D01*
X128887463Y-58223249D01*
X128723678Y-58113811D01*
X128541689Y-58038429D01*
X128348491Y-58000000D01*
X128164214Y-58000000D01*
X128276751Y-57887463D01*
X128386189Y-57723678D01*
X128461571Y-57541689D01*
X128469863Y-57500000D01*
X128598491Y-57500000D01*
X128791689Y-57461571D01*
X128973678Y-57386189D01*
X129137463Y-57276751D01*
X129276751Y-57137463D01*
X129386189Y-56973678D01*
X129461571Y-56791689D01*
X129500000Y-56598491D01*
X129500000Y-56401509D01*
X129461571Y-56208311D01*
X129386189Y-56026322D01*
X129368601Y-56000000D01*
X129386189Y-55973678D01*
X129461571Y-55791689D01*
X129500000Y-55598491D01*
X129500000Y-55401509D01*
X129461571Y-55208311D01*
X129386189Y-55026322D01*
X129368601Y-55000000D01*
X129386189Y-54973678D01*
X129461571Y-54791689D01*
X129500000Y-54598491D01*
X129500000Y-54451511D01*
X135750000Y-54451511D01*
X135750000Y-54648493D01*
X135788429Y-54841691D01*
X135863811Y-55023680D01*
X135973249Y-55187465D01*
X136112537Y-55326753D01*
X136276322Y-55436191D01*
X136458311Y-55511573D01*
X136651509Y-55550002D01*
X136848491Y-55550002D01*
X137041689Y-55511573D01*
X137131724Y-55474279D01*
X137143965Y-55503832D01*
X137253403Y-55667617D01*
X137392691Y-55806905D01*
X137556476Y-55916343D01*
X137738465Y-55991725D01*
X137931663Y-56030154D01*
X138036135Y-56030154D01*
X138038429Y-56041689D01*
X138113811Y-56223678D01*
X138223249Y-56387463D01*
X138362537Y-56526751D01*
X138526322Y-56636189D01*
X138708311Y-56711571D01*
X138901509Y-56750000D01*
X139030137Y-56750000D01*
X139038429Y-56791689D01*
X139113811Y-56973678D01*
X139223249Y-57137463D01*
X139362537Y-57276751D01*
X139526322Y-57386189D01*
X139708311Y-57461571D01*
X139901509Y-57500000D01*
X140098491Y-57500000D01*
X140291689Y-57461571D01*
X140473678Y-57386189D01*
X140637463Y-57276751D01*
X140776751Y-57137463D01*
X140886189Y-56973678D01*
X140961571Y-56791689D01*
X141000000Y-56598491D01*
X141038429Y-56791689D01*
X141113811Y-56973678D01*
X141223249Y-57137463D01*
X141362537Y-57276751D01*
X141526322Y-57386189D01*
X141708311Y-57461571D01*
X141901509Y-57500000D01*
X142098491Y-57500000D01*
X142291689Y-57461571D01*
X142473678Y-57386189D01*
X142637463Y-57276751D01*
X142776751Y-57137463D01*
X142886189Y-56973678D01*
X142961571Y-56791689D01*
X143000000Y-56598491D01*
X143000000Y-56401509D01*
X142961571Y-56208311D01*
X142886189Y-56026322D01*
X142868601Y-56000000D01*
X142886189Y-55973678D01*
X142961571Y-55791689D01*
X143000000Y-55598491D01*
X143000000Y-55401509D01*
X142961571Y-55208311D01*
X142886189Y-55026322D01*
X142868601Y-55000000D01*
X142886189Y-54973678D01*
X142961571Y-54791689D01*
X143000000Y-54598491D01*
X143000000Y-54451511D01*
X149500000Y-54451511D01*
X149500000Y-54648493D01*
X149538429Y-54841691D01*
X149613811Y-55023680D01*
X149723249Y-55187465D01*
X149862537Y-55326753D01*
X150026322Y-55436191D01*
X150208311Y-55511573D01*
X150401509Y-55550002D01*
X150598491Y-55550002D01*
X150791689Y-55511573D01*
X150973678Y-55436191D01*
X150978432Y-55433014D01*
X150983728Y-55459637D01*
X151059110Y-55641626D01*
X151168548Y-55805411D01*
X151307836Y-55944699D01*
X151471621Y-56054137D01*
X151500000Y-56065892D01*
X151500000Y-56098491D01*
X151538429Y-56291689D01*
X151613811Y-56473678D01*
X151723249Y-56637463D01*
X151862537Y-56776751D01*
X152026322Y-56886189D01*
X152208311Y-56961571D01*
X152401509Y-57000000D01*
X152598491Y-57000000D01*
X152791689Y-56961571D01*
X152973678Y-56886189D01*
X152981064Y-56881254D01*
X153026322Y-56911495D01*
X153208311Y-56986877D01*
X153401509Y-57025306D01*
X153598491Y-57025306D01*
X153791689Y-56986877D01*
X153973678Y-56911495D01*
X154137463Y-56802057D01*
X154276751Y-56662769D01*
X154386189Y-56498984D01*
X154461571Y-56316995D01*
X154500000Y-56123797D01*
X154500000Y-55926815D01*
X154461571Y-55733617D01*
X154386189Y-55551628D01*
X154276751Y-55387843D01*
X154137463Y-55248555D01*
X153973678Y-55139117D01*
X153791689Y-55063735D01*
X153598491Y-55025306D01*
X153401509Y-55025306D01*
X153208311Y-55063735D01*
X153026322Y-55139117D01*
X153018936Y-55144052D01*
X152973678Y-55113811D01*
X152945299Y-55102056D01*
X152945299Y-55069457D01*
X152906870Y-54876259D01*
X152831488Y-54694270D01*
X152722050Y-54530485D01*
X152582762Y-54391197D01*
X152418977Y-54281759D01*
X152236988Y-54206377D01*
X152043790Y-54167948D01*
X151846808Y-54167948D01*
X151653610Y-54206377D01*
X151471621Y-54281759D01*
X151466867Y-54284936D01*
X151461571Y-54258313D01*
X151386189Y-54076324D01*
X151276751Y-53912539D01*
X151137463Y-53773251D01*
X150973678Y-53663813D01*
X150791689Y-53588431D01*
X150598491Y-53550002D01*
X150401509Y-53550002D01*
X150208311Y-53588431D01*
X150026322Y-53663813D01*
X149862537Y-53773251D01*
X149723249Y-53912539D01*
X149613811Y-54076324D01*
X149538429Y-54258313D01*
X149500000Y-54451511D01*
X143000000Y-54451511D01*
X143000000Y-54401509D01*
X142961571Y-54208311D01*
X142886189Y-54026322D01*
X142868601Y-54000000D01*
X142886189Y-53973678D01*
X142961571Y-53791689D01*
X143000000Y-53598491D01*
X143000000Y-53401509D01*
X142961571Y-53208311D01*
X142886189Y-53026322D01*
X142868601Y-53000000D01*
X142886189Y-52973678D01*
X142961571Y-52791689D01*
X143000000Y-52598491D01*
X143000000Y-52401509D01*
X142961571Y-52208311D01*
X142886189Y-52026322D01*
X142868601Y-52000000D01*
X142886189Y-51973678D01*
X142961571Y-51791689D01*
X143000000Y-51598491D01*
X143000000Y-51401509D01*
X142961571Y-51208311D01*
X142886189Y-51026322D01*
X142868601Y-51000000D01*
X142886189Y-50973678D01*
X142961571Y-50791689D01*
X143000000Y-50598491D01*
X143000000Y-50401509D01*
X142961571Y-50208311D01*
X142886189Y-50026322D01*
X142868601Y-50000000D01*
X142886189Y-49973678D01*
X142961571Y-49791689D01*
X143000000Y-49598491D01*
X143000000Y-49401509D01*
X142961571Y-49208311D01*
X142886189Y-49026322D01*
X142868601Y-49000000D01*
X142886189Y-48973678D01*
X142961571Y-48791689D01*
X143000000Y-48598491D01*
X143000000Y-48401509D01*
X142961571Y-48208311D01*
X142886189Y-48026322D01*
X142868601Y-48000000D01*
X142886189Y-47973678D01*
X142961571Y-47791689D01*
X143000000Y-47598491D01*
X143000000Y-47401509D01*
X142961571Y-47208311D01*
X142886189Y-47026322D01*
X142868601Y-47000000D01*
X142886189Y-46973678D01*
X142961571Y-46791689D01*
X143000000Y-46598491D01*
X143000000Y-46401509D01*
X142961571Y-46208311D01*
X142886189Y-46026322D01*
X142776751Y-45862537D01*
X142637463Y-45723249D01*
X142473678Y-45613811D01*
X142291689Y-45538429D01*
X142098491Y-45500000D01*
X142000000Y-45500000D01*
X142000000Y-45401509D01*
X150500000Y-45401509D01*
X150500000Y-45598491D01*
X150538429Y-45791689D01*
X150613811Y-45973678D01*
X150723249Y-46137463D01*
X150862537Y-46276751D01*
X151026322Y-46386189D01*
X151208311Y-46461571D01*
X151401509Y-46500000D01*
X151598491Y-46500000D01*
X151791689Y-46461571D01*
X151973678Y-46386189D01*
X152000000Y-46368601D01*
X152026322Y-46386189D01*
X152208311Y-46461571D01*
X152401509Y-46500000D01*
X152598491Y-46500000D01*
X152791689Y-46461571D01*
X152973678Y-46386189D01*
X153000000Y-46368601D01*
X153026322Y-46386189D01*
X153208311Y-46461571D01*
X153401509Y-46500000D01*
X153598491Y-46500000D01*
X153791689Y-46461571D01*
X153973678Y-46386189D01*
X154000000Y-46368601D01*
X154026322Y-46386189D01*
X154208311Y-46461571D01*
X154401509Y-46500000D01*
X154500000Y-46500000D01*
X154500000Y-46598491D01*
X154538429Y-46791689D01*
X154613811Y-46973678D01*
X154631399Y-47000000D01*
X154613811Y-47026322D01*
X154538429Y-47208311D01*
X154500000Y-47401509D01*
X154500000Y-47598491D01*
X154538429Y-47791689D01*
X154613811Y-47973678D01*
X154631399Y-48000000D01*
X154613811Y-48026322D01*
X154538429Y-48208311D01*
X154500000Y-48401509D01*
X154500000Y-48598491D01*
X154538429Y-48791689D01*
X154613811Y-48973678D01*
X154631399Y-49000000D01*
X154613811Y-49026322D01*
X154538429Y-49208311D01*
X154500000Y-49401509D01*
X154500000Y-49598491D01*
X154538429Y-49791689D01*
X154613811Y-49973678D01*
X154631399Y-50000000D01*
X154613811Y-50026322D01*
X154538429Y-50208311D01*
X154500000Y-50401509D01*
X154500000Y-50598491D01*
X154538429Y-50791689D01*
X154613811Y-50973678D01*
X154631399Y-51000000D01*
X154613811Y-51026322D01*
X154538429Y-51208311D01*
X154500000Y-51401509D01*
X154500000Y-51598491D01*
X154538429Y-51791689D01*
X154613811Y-51973678D01*
X154631399Y-52000000D01*
X154613811Y-52026322D01*
X154538429Y-52208311D01*
X154500000Y-52401509D01*
X154500000Y-52598491D01*
X154538429Y-52791689D01*
X154613811Y-52973678D01*
X154631399Y-53000000D01*
X154613811Y-53026322D01*
X154538429Y-53208311D01*
X154500000Y-53401509D01*
X154500000Y-53598491D01*
X154538429Y-53791689D01*
X154613811Y-53973678D01*
X154631399Y-54000000D01*
X154613811Y-54026322D01*
X154538429Y-54208311D01*
X154500000Y-54401509D01*
X154500000Y-54598491D01*
X154538429Y-54791689D01*
X154613811Y-54973678D01*
X154631399Y-55000000D01*
X154613811Y-55026322D01*
X154538429Y-55208311D01*
X154500000Y-55401509D01*
X154500000Y-55598491D01*
X154538429Y-55791689D01*
X154613811Y-55973678D01*
X154631399Y-56000000D01*
X154613811Y-56026322D01*
X154538429Y-56208311D01*
X154500000Y-56401509D01*
X154500000Y-56598491D01*
X154538429Y-56791689D01*
X154613811Y-56973678D01*
X154723249Y-57137463D01*
X154862537Y-57276751D01*
X155026322Y-57386189D01*
X155208311Y-57461571D01*
X155401509Y-57500000D01*
X155598491Y-57500000D01*
X155791689Y-57461571D01*
X155973678Y-57386189D01*
X156137463Y-57276751D01*
X156276751Y-57137463D01*
X156386189Y-56973678D01*
X156461571Y-56791689D01*
X156500000Y-56598491D01*
X156500000Y-56401509D01*
X156461571Y-56208311D01*
X156386189Y-56026322D01*
X156368601Y-56000000D01*
X156386189Y-55973678D01*
X156461571Y-55791689D01*
X156500000Y-55598491D01*
X156500000Y-55401509D01*
X156461571Y-55208311D01*
X156386189Y-55026322D01*
X156368601Y-55000000D01*
X156386189Y-54973678D01*
X156461571Y-54791689D01*
X156500000Y-54598491D01*
X156500000Y-54401509D01*
X156461571Y-54208311D01*
X156386189Y-54026322D01*
X156368601Y-54000000D01*
X156386189Y-53973678D01*
X156461571Y-53791689D01*
X156500000Y-53598491D01*
X156500000Y-53401509D01*
X156461571Y-53208311D01*
X156386189Y-53026322D01*
X156368601Y-53000000D01*
X156386189Y-52973678D01*
X156461571Y-52791689D01*
X156500000Y-52598491D01*
X156500000Y-52401509D01*
X156461571Y-52208311D01*
X156386189Y-52026322D01*
X156368601Y-52000000D01*
X156386189Y-51973678D01*
X156461571Y-51791689D01*
X156500000Y-51598491D01*
X156500000Y-51401509D01*
X156461571Y-51208311D01*
X156438043Y-51151509D01*
X165000000Y-51151509D01*
X165000000Y-51348491D01*
X165038429Y-51541689D01*
X165113811Y-51723678D01*
X165223249Y-51887463D01*
X165362537Y-52026751D01*
X165526322Y-52136189D01*
X165708311Y-52211571D01*
X165901509Y-52250000D01*
X166098491Y-52250000D01*
X166291689Y-52211571D01*
X166473678Y-52136189D01*
X166637463Y-52026751D01*
X166776751Y-51887463D01*
X166886189Y-51723678D01*
X166961571Y-51541689D01*
X167000000Y-51348491D01*
X167000000Y-51151509D01*
X166962380Y-50962380D01*
X167151509Y-51000000D01*
X167348491Y-51000000D01*
X167541689Y-50961571D01*
X167723678Y-50886189D01*
X167887463Y-50776751D01*
X168026751Y-50637463D01*
X168136189Y-50473678D01*
X168211571Y-50291689D01*
X168250000Y-50098491D01*
X168250000Y-49901509D01*
X168211571Y-49708311D01*
X168136189Y-49526322D01*
X168026751Y-49362537D01*
X167887463Y-49223249D01*
X167723678Y-49113811D01*
X167541689Y-49038429D01*
X167348491Y-49000000D01*
X167151509Y-49000000D01*
X166958311Y-49038429D01*
X166776322Y-49113811D01*
X166612537Y-49223249D01*
X166473249Y-49362537D01*
X166363811Y-49526322D01*
X166288429Y-49708311D01*
X166250000Y-49901509D01*
X166250000Y-50098491D01*
X166287620Y-50287620D01*
X166098491Y-50250000D01*
X165901509Y-50250000D01*
X165708311Y-50288429D01*
X165526322Y-50363811D01*
X165362537Y-50473249D01*
X165223249Y-50612537D01*
X165113811Y-50776322D01*
X165038429Y-50958311D01*
X165000000Y-51151509D01*
X156438043Y-51151509D01*
X156386189Y-51026322D01*
X156368601Y-51000000D01*
X156386189Y-50973678D01*
X156461571Y-50791689D01*
X156500000Y-50598491D01*
X156500000Y-50401509D01*
X156461571Y-50208311D01*
X156386189Y-50026322D01*
X156368601Y-50000000D01*
X156386189Y-49973678D01*
X156461571Y-49791689D01*
X156500000Y-49598491D01*
X156500000Y-49401509D01*
X156461571Y-49208311D01*
X156386189Y-49026322D01*
X156368601Y-49000000D01*
X156386189Y-48973678D01*
X156461571Y-48791689D01*
X156500000Y-48598491D01*
X156500000Y-48401509D01*
X156461571Y-48208311D01*
X156386189Y-48026322D01*
X156368601Y-48000000D01*
X156386189Y-47973678D01*
X156461571Y-47791689D01*
X156500000Y-47598491D01*
X156500000Y-47401509D01*
X156461571Y-47208311D01*
X156386189Y-47026322D01*
X156368601Y-47000000D01*
X156386189Y-46973678D01*
X156461571Y-46791689D01*
X156500000Y-46598491D01*
X156500000Y-46401509D01*
X156461571Y-46208311D01*
X156386189Y-46026322D01*
X156276751Y-45862537D01*
X156137463Y-45723249D01*
X155973678Y-45613811D01*
X155791689Y-45538429D01*
X155598491Y-45500000D01*
X155500000Y-45500000D01*
X155500000Y-45401509D01*
X164000000Y-45401509D01*
X164000000Y-45598491D01*
X164038429Y-45791689D01*
X164113811Y-45973678D01*
X164223249Y-46137463D01*
X164362537Y-46276751D01*
X164526322Y-46386189D01*
X164708311Y-46461571D01*
X164901509Y-46500000D01*
X165098491Y-46500000D01*
X165291689Y-46461571D01*
X165473678Y-46386189D01*
X165500000Y-46368601D01*
X165526322Y-46386189D01*
X165708311Y-46461571D01*
X165901509Y-46500000D01*
X166098491Y-46500000D01*
X166291689Y-46461571D01*
X166473678Y-46386189D01*
X166500000Y-46368601D01*
X166526322Y-46386189D01*
X166708311Y-46461571D01*
X166901509Y-46500000D01*
X167098491Y-46500000D01*
X167291689Y-46461571D01*
X167473678Y-46386189D01*
X167637463Y-46276751D01*
X167776751Y-46137463D01*
X167886189Y-45973678D01*
X167961571Y-45791689D01*
X168000000Y-45598491D01*
X168000000Y-45401509D01*
X167961571Y-45208311D01*
X167886189Y-45026322D01*
X167776751Y-44862537D01*
X167637463Y-44723249D01*
X167473678Y-44613811D01*
X167291689Y-44538429D01*
X167098491Y-44500000D01*
X166901509Y-44500000D01*
X166708311Y-44538429D01*
X166526322Y-44613811D01*
X166500000Y-44631399D01*
X166473678Y-44613811D01*
X166291689Y-44538429D01*
X166098491Y-44500000D01*
X165901509Y-44500000D01*
X165708311Y-44538429D01*
X165526322Y-44613811D01*
X165500000Y-44631399D01*
X165473678Y-44613811D01*
X165291689Y-44538429D01*
X165098491Y-44500000D01*
X164901509Y-44500000D01*
X164708311Y-44538429D01*
X164526322Y-44613811D01*
X164362537Y-44723249D01*
X164223249Y-44862537D01*
X164113811Y-45026322D01*
X164038429Y-45208311D01*
X164000000Y-45401509D01*
X155500000Y-45401509D01*
X155461571Y-45208311D01*
X155386189Y-45026322D01*
X155276751Y-44862537D01*
X155137463Y-44723249D01*
X154973678Y-44613811D01*
X154791689Y-44538429D01*
X154598491Y-44500000D01*
X154401509Y-44500000D01*
X154208311Y-44538429D01*
X154026322Y-44613811D01*
X154000000Y-44631399D01*
X153973678Y-44613811D01*
X153791689Y-44538429D01*
X153598491Y-44500000D01*
X153401509Y-44500000D01*
X153208311Y-44538429D01*
X153026322Y-44613811D01*
X153000000Y-44631399D01*
X152973678Y-44613811D01*
X152791689Y-44538429D01*
X152598491Y-44500000D01*
X152401509Y-44500000D01*
X152208311Y-44538429D01*
X152026322Y-44613811D01*
X152000000Y-44631399D01*
X151973678Y-44613811D01*
X151791689Y-44538429D01*
X151598491Y-44500000D01*
X151401509Y-44500000D01*
X151208311Y-44538429D01*
X151026322Y-44613811D01*
X150862537Y-44723249D01*
X150723249Y-44862537D01*
X150613811Y-45026322D01*
X150538429Y-45208311D01*
X150500000Y-45401509D01*
X142000000Y-45401509D01*
X141961571Y-45208311D01*
X141886189Y-45026322D01*
X141776751Y-44862537D01*
X141637463Y-44723249D01*
X141473678Y-44613811D01*
X141291689Y-44538429D01*
X141098491Y-44500000D01*
X140901509Y-44500000D01*
X140708311Y-44538429D01*
X140526322Y-44613811D01*
X140500000Y-44631399D01*
X140473678Y-44613811D01*
X140291689Y-44538429D01*
X140098491Y-44500000D01*
X139901509Y-44500000D01*
X139708311Y-44538429D01*
X139526322Y-44613811D01*
X139500000Y-44631399D01*
X139473678Y-44613811D01*
X139291689Y-44538429D01*
X139098491Y-44500000D01*
X138901509Y-44500000D01*
X138708311Y-44538429D01*
X138526322Y-44613811D01*
X138500000Y-44631399D01*
X138473678Y-44613811D01*
X138291689Y-44538429D01*
X138098491Y-44500000D01*
X137901509Y-44500000D01*
X137708311Y-44538429D01*
X137526322Y-44613811D01*
X137362537Y-44723249D01*
X137223249Y-44862537D01*
X137113811Y-45026322D01*
X137038429Y-45208311D01*
X137000000Y-45401509D01*
X137000000Y-45598491D01*
X137038429Y-45791689D01*
X137113811Y-45973678D01*
X137223249Y-46137463D01*
X137362537Y-46276751D01*
X137526322Y-46386189D01*
X137708311Y-46461571D01*
X137901509Y-46500000D01*
X138098491Y-46500000D01*
X138291689Y-46461571D01*
X138473678Y-46386189D01*
X138500000Y-46368601D01*
X138526322Y-46386189D01*
X138708311Y-46461571D01*
X138901509Y-46500000D01*
X139098491Y-46500000D01*
X139291689Y-46461571D01*
X139473678Y-46386189D01*
X139500000Y-46368601D01*
X139526322Y-46386189D01*
X139708311Y-46461571D01*
X139901509Y-46500000D01*
X140098491Y-46500000D01*
X140291689Y-46461571D01*
X140473678Y-46386189D01*
X140500000Y-46368601D01*
X140526322Y-46386189D01*
X140708311Y-46461571D01*
X140901509Y-46500000D01*
X141000000Y-46500000D01*
X141000000Y-46598491D01*
X141038429Y-46791689D01*
X141113811Y-46973678D01*
X141131399Y-47000000D01*
X141113811Y-47026322D01*
X141038429Y-47208311D01*
X141000000Y-47401509D01*
X141000000Y-47598491D01*
X141038429Y-47791689D01*
X141113811Y-47973678D01*
X141131399Y-48000000D01*
X141113811Y-48026322D01*
X141038429Y-48208311D01*
X141000000Y-48401509D01*
X141000000Y-48598491D01*
X141038429Y-48791689D01*
X141113811Y-48973678D01*
X141131399Y-49000000D01*
X141113811Y-49026322D01*
X141038429Y-49208311D01*
X141000000Y-49401509D01*
X141000000Y-49598491D01*
X141038429Y-49791689D01*
X141113811Y-49973678D01*
X141131399Y-50000000D01*
X141113811Y-50026322D01*
X141038429Y-50208311D01*
X141000000Y-50401509D01*
X141000000Y-50598491D01*
X141038429Y-50791689D01*
X141113811Y-50973678D01*
X141131399Y-51000000D01*
X141113811Y-51026322D01*
X141038429Y-51208311D01*
X141000000Y-51401509D01*
X141000000Y-51598491D01*
X141038429Y-51791689D01*
X141113811Y-51973678D01*
X141131399Y-52000000D01*
X141113811Y-52026322D01*
X141038429Y-52208311D01*
X141000000Y-52401509D01*
X141000000Y-52598491D01*
X141038429Y-52791689D01*
X141113811Y-52973678D01*
X141131399Y-53000000D01*
X141113811Y-53026322D01*
X141038429Y-53208311D01*
X141000000Y-53401509D01*
X141000000Y-53598491D01*
X141038429Y-53791689D01*
X141113811Y-53973678D01*
X141131399Y-54000000D01*
X141113811Y-54026322D01*
X141038429Y-54208311D01*
X141000000Y-54401509D01*
X141000000Y-54598491D01*
X141038429Y-54791689D01*
X141113811Y-54973678D01*
X141131399Y-55000000D01*
X141113811Y-55026322D01*
X141038429Y-55208311D01*
X141000000Y-55401509D01*
X141000000Y-55598491D01*
X141038429Y-55791689D01*
X141113811Y-55973678D01*
X141131399Y-56000000D01*
X141113811Y-56026322D01*
X141038429Y-56208311D01*
X141000000Y-56401509D01*
X140961571Y-56208311D01*
X140886189Y-56026322D01*
X140776751Y-55862537D01*
X140637463Y-55723249D01*
X140473678Y-55613811D01*
X140291689Y-55538429D01*
X140098491Y-55500000D01*
X139969863Y-55500000D01*
X139961571Y-55458311D01*
X139886189Y-55276322D01*
X139776751Y-55112537D01*
X139637463Y-54973249D01*
X139473678Y-54863811D01*
X139291689Y-54788429D01*
X139098491Y-54750000D01*
X138994019Y-54750000D01*
X138991725Y-54738465D01*
X138916343Y-54556476D01*
X138806905Y-54392691D01*
X138667617Y-54253403D01*
X138503832Y-54143965D01*
X138321843Y-54068583D01*
X138128645Y-54030154D01*
X137931663Y-54030154D01*
X137738465Y-54068583D01*
X137648430Y-54105877D01*
X137636189Y-54076324D01*
X137526751Y-53912539D01*
X137387463Y-53773251D01*
X137223678Y-53663813D01*
X137041689Y-53588431D01*
X136848491Y-53550002D01*
X136651509Y-53550002D01*
X136458311Y-53588431D01*
X136276322Y-53663813D01*
X136112537Y-53773251D01*
X135973249Y-53912539D01*
X135863811Y-54076324D01*
X135788429Y-54258313D01*
X135750000Y-54451511D01*
X129500000Y-54451511D01*
X129500000Y-54401509D01*
X129461571Y-54208311D01*
X129386189Y-54026322D01*
X129368601Y-54000000D01*
X129386189Y-53973678D01*
X129461571Y-53791689D01*
X129500000Y-53598491D01*
X129500000Y-53401509D01*
X129461571Y-53208311D01*
X129386189Y-53026322D01*
X129368601Y-53000000D01*
X129386189Y-52973678D01*
X129461571Y-52791689D01*
X129500000Y-52598491D01*
X129500000Y-52401509D01*
X129461571Y-52208311D01*
X129386189Y-52026322D01*
X129368601Y-52000000D01*
X129386189Y-51973678D01*
X129461571Y-51791689D01*
X129500000Y-51598491D01*
X129500000Y-51401509D01*
X129461571Y-51208311D01*
X129386189Y-51026322D01*
X129368601Y-51000000D01*
X129386189Y-50973678D01*
X129461571Y-50791689D01*
X129500000Y-50598491D01*
X129500000Y-50401509D01*
X129461571Y-50208311D01*
X129386189Y-50026322D01*
X129368601Y-50000000D01*
X129386189Y-49973678D01*
X129461571Y-49791689D01*
X129500000Y-49598491D01*
X129500000Y-49401509D01*
X129461571Y-49208311D01*
X129386189Y-49026322D01*
X129368601Y-49000000D01*
X129386189Y-48973678D01*
X129461571Y-48791689D01*
X129500000Y-48598491D01*
X129500000Y-48401509D01*
X129461571Y-48208311D01*
X129386189Y-48026322D01*
X129368601Y-48000000D01*
X129386189Y-47973678D01*
X129461571Y-47791689D01*
X129500000Y-47598491D01*
X129500000Y-47401509D01*
X129461571Y-47208311D01*
X129386189Y-47026322D01*
X129368601Y-47000000D01*
X129386189Y-46973678D01*
X129461571Y-46791689D01*
X129500000Y-46598491D01*
X129500000Y-46401509D01*
X129461571Y-46208311D01*
X129386189Y-46026322D01*
X129276751Y-45862537D01*
X129137463Y-45723249D01*
X128973678Y-45613811D01*
X128791689Y-45538429D01*
X128598491Y-45500000D01*
X128500000Y-45500000D01*
X128500000Y-45401509D01*
X128461571Y-45208311D01*
X128386189Y-45026322D01*
X128276751Y-44862537D01*
X128137463Y-44723249D01*
X127973678Y-44613811D01*
X127791689Y-44538429D01*
X127598491Y-44500000D01*
X127401509Y-44500000D01*
X127208311Y-44538429D01*
X127026322Y-44613811D01*
X127000000Y-44631399D01*
X126973678Y-44613811D01*
X126791689Y-44538429D01*
X126598491Y-44500000D01*
X126401509Y-44500000D01*
X126208311Y-44538429D01*
X126026322Y-44613811D01*
X126000000Y-44631399D01*
X125973678Y-44613811D01*
X125791689Y-44538429D01*
X125598491Y-44500000D01*
X125401509Y-44500000D01*
X125208311Y-44538429D01*
X125026322Y-44613811D01*
X125000000Y-44631399D01*
X124973678Y-44613811D01*
X124791689Y-44538429D01*
X124598491Y-44500000D01*
X124401509Y-44500000D01*
X124208311Y-44538429D01*
X124026322Y-44613811D01*
X123862537Y-44723249D01*
X123723249Y-44862537D01*
X123613811Y-45026322D01*
X123538429Y-45208311D01*
X123500000Y-45401509D01*
X116000000Y-45401509D01*
X115961571Y-45208311D01*
X115886189Y-45026322D01*
X115868601Y-45000000D01*
X115886189Y-44973678D01*
X115961571Y-44791689D01*
X116000000Y-44598491D01*
X116000000Y-44401509D01*
X115961571Y-44208311D01*
X115886189Y-44026322D01*
X115868601Y-44000000D01*
X115886189Y-43973678D01*
X115961571Y-43791689D01*
X116000000Y-43598491D01*
X116000000Y-43401509D01*
X115961571Y-43208311D01*
X115886189Y-43026322D01*
X115868601Y-43000000D01*
X115886189Y-42973678D01*
X115961571Y-42791689D01*
X116000000Y-42598491D01*
X116000000Y-42401509D01*
X115961571Y-42208311D01*
X115886189Y-42026322D01*
X115776751Y-41862537D01*
X115637463Y-41723249D01*
X115473678Y-41613811D01*
X115291689Y-41538429D01*
X115250000Y-41530137D01*
X115250000Y-41401509D01*
X115211571Y-41208311D01*
X115136189Y-41026322D01*
X115085192Y-40950000D01*
X116327604Y-40950000D01*
X116308682Y-41012379D01*
X116297097Y-41130000D01*
X116297097Y-42830000D01*
X116308682Y-42947621D01*
X116342990Y-43060721D01*
X116398704Y-43164955D01*
X116473683Y-43256317D01*
X116565045Y-43331296D01*
X116669279Y-43387010D01*
X116782379Y-43421318D01*
X116900000Y-43432903D01*
X118600000Y-43432903D01*
X118717621Y-43421318D01*
X118830721Y-43387010D01*
X118934955Y-43331296D01*
X119020000Y-43261501D01*
X119105045Y-43331296D01*
X119209279Y-43387010D01*
X119322379Y-43421318D01*
X119440000Y-43432903D01*
X121140000Y-43432903D01*
X121257621Y-43421318D01*
X121370721Y-43387010D01*
X121474955Y-43331296D01*
X121560000Y-43261501D01*
X121645045Y-43331296D01*
X121749279Y-43387010D01*
X121862379Y-43421318D01*
X121980000Y-43432903D01*
X123680000Y-43432903D01*
X123797621Y-43421318D01*
X123910721Y-43387010D01*
X124014955Y-43331296D01*
X124100000Y-43261501D01*
X124185045Y-43331296D01*
X124289279Y-43387010D01*
X124402379Y-43421318D01*
X124520000Y-43432903D01*
X126220000Y-43432903D01*
X126337621Y-43421318D01*
X126450721Y-43387010D01*
X126554955Y-43331296D01*
X126640000Y-43261501D01*
X126725045Y-43331296D01*
X126829279Y-43387010D01*
X126942379Y-43421318D01*
X127060000Y-43432903D01*
X128760000Y-43432903D01*
X128877621Y-43421318D01*
X128990721Y-43387010D01*
X129094955Y-43331296D01*
X129180000Y-43261501D01*
X129265045Y-43331296D01*
X129369279Y-43387010D01*
X129482379Y-43421318D01*
X129600000Y-43432903D01*
X131300000Y-43432903D01*
X131417621Y-43421318D01*
X131530721Y-43387010D01*
X131634955Y-43331296D01*
X131720000Y-43261501D01*
X131805045Y-43331296D01*
X131909279Y-43387010D01*
X132022379Y-43421318D01*
X132140000Y-43432903D01*
X133840000Y-43432903D01*
X133957621Y-43421318D01*
X134070721Y-43387010D01*
X134174955Y-43331296D01*
X134260000Y-43261501D01*
X134345045Y-43331296D01*
X134449279Y-43387010D01*
X134562379Y-43421318D01*
X134680000Y-43432903D01*
X136380000Y-43432903D01*
X136497621Y-43421318D01*
X136610721Y-43387010D01*
X136714955Y-43331296D01*
X136800000Y-43261501D01*
X136885045Y-43331296D01*
X136989279Y-43387010D01*
X137102379Y-43421318D01*
X137220000Y-43432903D01*
X138920000Y-43432903D01*
X139037621Y-43421318D01*
X139150721Y-43387010D01*
X139254955Y-43331296D01*
X139340000Y-43261501D01*
X139425045Y-43331296D01*
X139529279Y-43387010D01*
X139642379Y-43421318D01*
X139760000Y-43432903D01*
X141460000Y-43432903D01*
X141577621Y-43421318D01*
X141690721Y-43387010D01*
X141794955Y-43331296D01*
X141880000Y-43261501D01*
X141965045Y-43331296D01*
X142069279Y-43387010D01*
X142182379Y-43421318D01*
X142300000Y-43432903D01*
X144000000Y-43432903D01*
X144117621Y-43421318D01*
X144230721Y-43387010D01*
X144334955Y-43331296D01*
X144420000Y-43261501D01*
X144505045Y-43331296D01*
X144609279Y-43387010D01*
X144722379Y-43421318D01*
X144840000Y-43432903D01*
X146540000Y-43432903D01*
X146657621Y-43421318D01*
X146770721Y-43387010D01*
X146874955Y-43331296D01*
X146960000Y-43261501D01*
X147045045Y-43331296D01*
X147149279Y-43387010D01*
X147262379Y-43421318D01*
X147380000Y-43432903D01*
X149080000Y-43432903D01*
X149197621Y-43421318D01*
X149310721Y-43387010D01*
X149414955Y-43331296D01*
X149500000Y-43261501D01*
X149585045Y-43331296D01*
X149689279Y-43387010D01*
X149802379Y-43421318D01*
X149920000Y-43432903D01*
X151620000Y-43432903D01*
X151737621Y-43421318D01*
X151850721Y-43387010D01*
X151954955Y-43331296D01*
X152040000Y-43261501D01*
X152125045Y-43331296D01*
X152229279Y-43387010D01*
X152342379Y-43421318D01*
X152460000Y-43432903D01*
X154160000Y-43432903D01*
X154277621Y-43421318D01*
X154390721Y-43387010D01*
X154494955Y-43331296D01*
X154580000Y-43261501D01*
X154665045Y-43331296D01*
X154769279Y-43387010D01*
X154882379Y-43421318D01*
X155000000Y-43432903D01*
X156700000Y-43432903D01*
X156817621Y-43421318D01*
X156930721Y-43387010D01*
X157034955Y-43331296D01*
X157120000Y-43261501D01*
X157205045Y-43331296D01*
X157309279Y-43387010D01*
X157422379Y-43421318D01*
X157540000Y-43432903D01*
X159240000Y-43432903D01*
X159357621Y-43421318D01*
X159470721Y-43387010D01*
X159574955Y-43331296D01*
X159660000Y-43261501D01*
X159745045Y-43331296D01*
X159849279Y-43387010D01*
X159962379Y-43421318D01*
X160080000Y-43432903D01*
X161780000Y-43432903D01*
X161897621Y-43421318D01*
X162010721Y-43387010D01*
X162114955Y-43331296D01*
X162200000Y-43261501D01*
X162285045Y-43331296D01*
X162389279Y-43387010D01*
X162502379Y-43421318D01*
X162620000Y-43432903D01*
X164320000Y-43432903D01*
X164437621Y-43421318D01*
X164550721Y-43387010D01*
X164654955Y-43331296D01*
X164740000Y-43261501D01*
X164825045Y-43331296D01*
X164929279Y-43387010D01*
X165042379Y-43421318D01*
X165160000Y-43432903D01*
X166860000Y-43432903D01*
X166977621Y-43421318D01*
X167090721Y-43387010D01*
X167194955Y-43331296D01*
X167286317Y-43256317D01*
X167361296Y-43164955D01*
X167417010Y-43060721D01*
X167451318Y-42947621D01*
X167462903Y-42830000D01*
X167462903Y-41130000D01*
X167451318Y-41012379D01*
X167432396Y-40950000D01*
X168800001Y-40950000D01*
X168800001Y-54147332D01*
X168776751Y-54112537D01*
X168637463Y-53973249D01*
X168473678Y-53863811D01*
X168291689Y-53788429D01*
X168098491Y-53750000D01*
X167901509Y-53750000D01*
X167708311Y-53788429D01*
X167526322Y-53863811D01*
X167500000Y-53881399D01*
X167473678Y-53863811D01*
X167291689Y-53788429D01*
X167098491Y-53750000D01*
X166901509Y-53750000D01*
X166708311Y-53788429D01*
X166526322Y-53863811D01*
X166500000Y-53881399D01*
X166473678Y-53863811D01*
X166291689Y-53788429D01*
X166098491Y-53750000D01*
X165901509Y-53750000D01*
X165708311Y-53788429D01*
X165526322Y-53863811D01*
X165500000Y-53881399D01*
X165473678Y-53863811D01*
X165291689Y-53788429D01*
X165098491Y-53750000D01*
X164901509Y-53750000D01*
X164708311Y-53788429D01*
X164526322Y-53863811D01*
X164362537Y-53973249D01*
X164223249Y-54112537D01*
X164113811Y-54276322D01*
X164038429Y-54458311D01*
X164000000Y-54651509D01*
X164000000Y-54848491D01*
X164038429Y-55041689D01*
X164113811Y-55223678D01*
X164223249Y-55387463D01*
X164362537Y-55526751D01*
X164526322Y-55636189D01*
X164708311Y-55711571D01*
X164901509Y-55750000D01*
X165098491Y-55750000D01*
X165291689Y-55711571D01*
X165473678Y-55636189D01*
X165500000Y-55618601D01*
X165526322Y-55636189D01*
X165708311Y-55711571D01*
X165901509Y-55750000D01*
X166098491Y-55750000D01*
X166291689Y-55711571D01*
X166473678Y-55636189D01*
X166500000Y-55618601D01*
X166526322Y-55636189D01*
X166708311Y-55711571D01*
X166901509Y-55750000D01*
X167098491Y-55750000D01*
X167291689Y-55711571D01*
X167473678Y-55636189D01*
X167500000Y-55618601D01*
X167517588Y-55630353D01*
X167313167Y-55715027D01*
X167075679Y-55873711D01*
X166873711Y-56075679D01*
X166715027Y-56313167D01*
X166605723Y-56577051D01*
X166550000Y-56857187D01*
X166550000Y-57142813D01*
X166605723Y-57422949D01*
X166715027Y-57686833D01*
X166873711Y-57924321D01*
X167046665Y-58097275D01*
X167032379Y-58098682D01*
X166919279Y-58132990D01*
X166815045Y-58188704D01*
X166723683Y-58263683D01*
X166648704Y-58355045D01*
X166592990Y-58459279D01*
X166558682Y-58572379D01*
X166547097Y-58690000D01*
X166547097Y-60390000D01*
X166558682Y-60507621D01*
X166592990Y-60620721D01*
X166648704Y-60724955D01*
X166718499Y-60810000D01*
X166648704Y-60895045D01*
X166592990Y-60999279D01*
X166558682Y-61112379D01*
X166547097Y-61230000D01*
X166547097Y-62930000D01*
X166558682Y-63047621D01*
X166592990Y-63160721D01*
X166648704Y-63264955D01*
X166718499Y-63350000D01*
X166648704Y-63435045D01*
X166592990Y-63539279D01*
X166558682Y-63652379D01*
X166547097Y-63770000D01*
X166547097Y-65470000D01*
X166558682Y-65587621D01*
X166592990Y-65700721D01*
X166648704Y-65804955D01*
X166723683Y-65896317D01*
X166815045Y-65971296D01*
X166919279Y-66027010D01*
X167032379Y-66061318D01*
X167150000Y-66072903D01*
X168800000Y-66072903D01*
X168800000Y-66797097D01*
X167150000Y-66797097D01*
X167032379Y-66808682D01*
X166919279Y-66842990D01*
X166815045Y-66898704D01*
X166723683Y-66973683D01*
X166648704Y-67065045D01*
X166592990Y-67169279D01*
X166558682Y-67282379D01*
X166547097Y-67400000D01*
X166547097Y-69100000D01*
X166558682Y-69217621D01*
X166592990Y-69330721D01*
X166648704Y-69434955D01*
X166723683Y-69526317D01*
X166815045Y-69601296D01*
X166919279Y-69657010D01*
X167032379Y-69691318D01*
X167046665Y-69692725D01*
X166873711Y-69865679D01*
X166715027Y-70103167D01*
X166605723Y-70367051D01*
X166550000Y-70647187D01*
X166550000Y-70932813D01*
X166605723Y-71212949D01*
X166715027Y-71476833D01*
X166873711Y-71714321D01*
X167075679Y-71916289D01*
X167313167Y-72074973D01*
X167577051Y-72184277D01*
X167857187Y-72240000D01*
X168142813Y-72240000D01*
X168422949Y-72184277D01*
X168686833Y-72074973D01*
X168800000Y-71999357D01*
X168800000Y-80550000D01*
X143350000Y-80550000D01*
X143350000Y-78901509D01*
X151250000Y-78901509D01*
X151250000Y-79098491D01*
X151288429Y-79291689D01*
X151363811Y-79473678D01*
X151473249Y-79637463D01*
X151612537Y-79776751D01*
X151776322Y-79886189D01*
X151958311Y-79961571D01*
X152151509Y-80000000D01*
X152348491Y-80000000D01*
X152541689Y-79961571D01*
X152723678Y-79886189D01*
X152887463Y-79776751D01*
X153026751Y-79637463D01*
X153136189Y-79473678D01*
X153211571Y-79291689D01*
X153250000Y-79098491D01*
X153250000Y-78901509D01*
X155000000Y-78901509D01*
X155000000Y-79098491D01*
X155038429Y-79291689D01*
X155113811Y-79473678D01*
X155223249Y-79637463D01*
X155362537Y-79776751D01*
X155526322Y-79886189D01*
X155708311Y-79961571D01*
X155901509Y-80000000D01*
X156098491Y-80000000D01*
X156291689Y-79961571D01*
X156473678Y-79886189D01*
X156637463Y-79776751D01*
X156776751Y-79637463D01*
X156886189Y-79473678D01*
X156961571Y-79291689D01*
X157000000Y-79098491D01*
X157000000Y-78901509D01*
X165000000Y-78901509D01*
X165000000Y-79098491D01*
X165038429Y-79291689D01*
X165113811Y-79473678D01*
X165223249Y-79637463D01*
X165362537Y-79776751D01*
X165526322Y-79886189D01*
X165708311Y-79961571D01*
X165901509Y-80000000D01*
X166098491Y-80000000D01*
X166291689Y-79961571D01*
X166473678Y-79886189D01*
X166637463Y-79776751D01*
X166776751Y-79637463D01*
X166886189Y-79473678D01*
X166961571Y-79291689D01*
X167000000Y-79098491D01*
X167000000Y-78901509D01*
X166961571Y-78708311D01*
X166886189Y-78526322D01*
X166776751Y-78362537D01*
X166637463Y-78223249D01*
X166473678Y-78113811D01*
X166291689Y-78038429D01*
X166098491Y-78000000D01*
X165901509Y-78000000D01*
X165708311Y-78038429D01*
X165526322Y-78113811D01*
X165362537Y-78223249D01*
X165223249Y-78362537D01*
X165113811Y-78526322D01*
X165038429Y-78708311D01*
X165000000Y-78901509D01*
X157000000Y-78901509D01*
X156961571Y-78708311D01*
X156886189Y-78526322D01*
X156776751Y-78362537D01*
X156637463Y-78223249D01*
X156473678Y-78113811D01*
X156291689Y-78038429D01*
X156098491Y-78000000D01*
X155901509Y-78000000D01*
X155708311Y-78038429D01*
X155526322Y-78113811D01*
X155362537Y-78223249D01*
X155223249Y-78362537D01*
X155113811Y-78526322D01*
X155038429Y-78708311D01*
X155000000Y-78901509D01*
X153250000Y-78901509D01*
X153211571Y-78708311D01*
X153136189Y-78526322D01*
X153026751Y-78362537D01*
X152887463Y-78223249D01*
X152723678Y-78113811D01*
X152541689Y-78038429D01*
X152348491Y-78000000D01*
X152151509Y-78000000D01*
X151958311Y-78038429D01*
X151776322Y-78113811D01*
X151612537Y-78223249D01*
X151473249Y-78362537D01*
X151363811Y-78526322D01*
X151288429Y-78708311D01*
X151250000Y-78901509D01*
X143350000Y-78901509D01*
X143350000Y-77401509D01*
X149500000Y-77401509D01*
X149500000Y-77598491D01*
X149538429Y-77791689D01*
X149613811Y-77973678D01*
X149723249Y-78137463D01*
X149862537Y-78276751D01*
X150026322Y-78386189D01*
X150208311Y-78461571D01*
X150401509Y-78500000D01*
X150598491Y-78500000D01*
X150791689Y-78461571D01*
X150973678Y-78386189D01*
X151137463Y-78276751D01*
X151276751Y-78137463D01*
X151386189Y-77973678D01*
X151461571Y-77791689D01*
X151500000Y-77598491D01*
X151500000Y-77401509D01*
X151461571Y-77208311D01*
X151386189Y-77026322D01*
X151276751Y-76862537D01*
X151137463Y-76723249D01*
X150973678Y-76613811D01*
X150791689Y-76538429D01*
X150598491Y-76500000D01*
X150401509Y-76500000D01*
X150208311Y-76538429D01*
X150026322Y-76613811D01*
X149862537Y-76723249D01*
X149723249Y-76862537D01*
X149613811Y-77026322D01*
X149538429Y-77208311D01*
X149500000Y-77401509D01*
X143350000Y-77401509D01*
X143350000Y-76452903D01*
X144000000Y-76452903D01*
X144117621Y-76441318D01*
X144230721Y-76407010D01*
X144334955Y-76351296D01*
X144420000Y-76281501D01*
X144505045Y-76351296D01*
X144609279Y-76407010D01*
X144722379Y-76441318D01*
X144840000Y-76452903D01*
X146540000Y-76452903D01*
X146657621Y-76441318D01*
X146770721Y-76407010D01*
X146874955Y-76351296D01*
X146960000Y-76281501D01*
X147045045Y-76351296D01*
X147149279Y-76407010D01*
X147262379Y-76441318D01*
X147380000Y-76452903D01*
X149080000Y-76452903D01*
X149197621Y-76441318D01*
X149310721Y-76407010D01*
X149414955Y-76351296D01*
X149500000Y-76281501D01*
X149585045Y-76351296D01*
X149689279Y-76407010D01*
X149802379Y-76441318D01*
X149920000Y-76452903D01*
X151620000Y-76452903D01*
X151737621Y-76441318D01*
X151850721Y-76407010D01*
X151954955Y-76351296D01*
X152040000Y-76281501D01*
X152125045Y-76351296D01*
X152229279Y-76407010D01*
X152342379Y-76441318D01*
X152460000Y-76452903D01*
X154160000Y-76452903D01*
X154277621Y-76441318D01*
X154390721Y-76407010D01*
X154494955Y-76351296D01*
X154580000Y-76281501D01*
X154665045Y-76351296D01*
X154769279Y-76407010D01*
X154882379Y-76441318D01*
X155000000Y-76452903D01*
X156700000Y-76452903D01*
X156817621Y-76441318D01*
X156930721Y-76407010D01*
X157034955Y-76351296D01*
X157120000Y-76281501D01*
X157205045Y-76351296D01*
X157309279Y-76407010D01*
X157422379Y-76441318D01*
X157540000Y-76452903D01*
X159240000Y-76452903D01*
X159357621Y-76441318D01*
X159470721Y-76407010D01*
X159574955Y-76351296D01*
X159660000Y-76281501D01*
X159745045Y-76351296D01*
X159849279Y-76407010D01*
X159962379Y-76441318D01*
X160080000Y-76452903D01*
X161780000Y-76452903D01*
X161897621Y-76441318D01*
X162010721Y-76407010D01*
X162114955Y-76351296D01*
X162200000Y-76281501D01*
X162285045Y-76351296D01*
X162389279Y-76407010D01*
X162502379Y-76441318D01*
X162620000Y-76452903D01*
X164320000Y-76452903D01*
X164437621Y-76441318D01*
X164550721Y-76407010D01*
X164654955Y-76351296D01*
X164740000Y-76281501D01*
X164825045Y-76351296D01*
X164929279Y-76407010D01*
X165042379Y-76441318D01*
X165160000Y-76452903D01*
X166860000Y-76452903D01*
X166977621Y-76441318D01*
X167090721Y-76407010D01*
X167194955Y-76351296D01*
X167286317Y-76276317D01*
X167361296Y-76184955D01*
X167417010Y-76080721D01*
X167451318Y-75967621D01*
X167462903Y-75850000D01*
X167462903Y-74150000D01*
X167451318Y-74032379D01*
X167417010Y-73919279D01*
X167361296Y-73815045D01*
X167286317Y-73723683D01*
X167194955Y-73648704D01*
X167090721Y-73592990D01*
X166977621Y-73558682D01*
X166860000Y-73547097D01*
X165160000Y-73547097D01*
X165042379Y-73558682D01*
X164929279Y-73592990D01*
X164825045Y-73648704D01*
X164740000Y-73718499D01*
X164654955Y-73648704D01*
X164550721Y-73592990D01*
X164437621Y-73558682D01*
X164320000Y-73547097D01*
X162620000Y-73547097D01*
X162502379Y-73558682D01*
X162389279Y-73592990D01*
X162285045Y-73648704D01*
X162200000Y-73718499D01*
X162114955Y-73648704D01*
X162010721Y-73592990D01*
X161897621Y-73558682D01*
X161780000Y-73547097D01*
X160080000Y-73547097D01*
X159962379Y-73558682D01*
X159849279Y-73592990D01*
X159745045Y-73648704D01*
X159660000Y-73718499D01*
X159574955Y-73648704D01*
X159470721Y-73592990D01*
X159357621Y-73558682D01*
X159240000Y-73547097D01*
X158459331Y-73547097D01*
X158461571Y-73541689D01*
X158500000Y-73348491D01*
X158500000Y-73151509D01*
X158461571Y-72958311D01*
X158386189Y-72776322D01*
X158276751Y-72612537D01*
X158137463Y-72473249D01*
X157973678Y-72363811D01*
X157791689Y-72288429D01*
X157598491Y-72250000D01*
X157401509Y-72250000D01*
X157208311Y-72288429D01*
X157026322Y-72363811D01*
X156862537Y-72473249D01*
X156723249Y-72612537D01*
X156613811Y-72776322D01*
X156538429Y-72958311D01*
X156500000Y-73151509D01*
X156500000Y-73348491D01*
X156538429Y-73541689D01*
X156540669Y-73547097D01*
X155000000Y-73547097D01*
X154882379Y-73558682D01*
X154769279Y-73592990D01*
X154665045Y-73648704D01*
X154580000Y-73718499D01*
X154494955Y-73648704D01*
X154390721Y-73592990D01*
X154277621Y-73558682D01*
X154160000Y-73547097D01*
X152460000Y-73547097D01*
X152342379Y-73558682D01*
X152229279Y-73592990D01*
X152125045Y-73648704D01*
X152040000Y-73718499D01*
X151954955Y-73648704D01*
X151850721Y-73592990D01*
X151737621Y-73558682D01*
X151620000Y-73547097D01*
X149920000Y-73547097D01*
X149802379Y-73558682D01*
X149689279Y-73592990D01*
X149585045Y-73648704D01*
X149500000Y-73718499D01*
X149414955Y-73648704D01*
X149310721Y-73592990D01*
X149197621Y-73558682D01*
X149080000Y-73547097D01*
X147380000Y-73547097D01*
X147262379Y-73558682D01*
X147149279Y-73592990D01*
X147045045Y-73648704D01*
X146960000Y-73718499D01*
X146874955Y-73648704D01*
X146770721Y-73592990D01*
X146657621Y-73558682D01*
X146540000Y-73547097D01*
X144840000Y-73547097D01*
X144722379Y-73558682D01*
X144609279Y-73592990D01*
X144505045Y-73648704D01*
X144420000Y-73718499D01*
X144334955Y-73648704D01*
X144230721Y-73592990D01*
X144117621Y-73558682D01*
X144000000Y-73547097D01*
X143350000Y-73547097D01*
X143350000Y-69419838D01*
X148963342Y-69419838D01*
X148963342Y-69616820D01*
X149001771Y-69810018D01*
X149077153Y-69992007D01*
X149186591Y-70155792D01*
X149325879Y-70295080D01*
X149489664Y-70404518D01*
X149671653Y-70479900D01*
X149864851Y-70518329D01*
X150061833Y-70518329D01*
X150255031Y-70479900D01*
X150437020Y-70404518D01*
X150600805Y-70295080D01*
X150740093Y-70155792D01*
X150849531Y-69992007D01*
X150924913Y-69810018D01*
X150963342Y-69616820D01*
X150963342Y-69419838D01*
X150924913Y-69226640D01*
X150849531Y-69044651D01*
X150740093Y-68880866D01*
X150600805Y-68741578D01*
X150437020Y-68632140D01*
X150255031Y-68556758D01*
X150061833Y-68518329D01*
X149864851Y-68518329D01*
X149671653Y-68556758D01*
X149489664Y-68632140D01*
X149325879Y-68741578D01*
X149186591Y-68880866D01*
X149077153Y-69044651D01*
X149001771Y-69226640D01*
X148963342Y-69419838D01*
X143350000Y-69419838D01*
X143350000Y-68350000D01*
X147250000Y-68350000D01*
X147269509Y-68348079D01*
X147288268Y-68342388D01*
X147305557Y-68333147D01*
X147320711Y-68320711D01*
X147333147Y-68305557D01*
X147342388Y-68288268D01*
X147348079Y-68269509D01*
X147350000Y-68250000D01*
X147350000Y-64750000D01*
X147348079Y-64730491D01*
X147342388Y-64711732D01*
X147333147Y-64694443D01*
X147320711Y-64679289D01*
X147305557Y-64666853D01*
X147288268Y-64657612D01*
X147269509Y-64651921D01*
X147250000Y-64650000D01*
X141190335Y-64650000D01*
X141223678Y-64636189D01*
X141387463Y-64526751D01*
X141526751Y-64387463D01*
X141636189Y-64223678D01*
X141711571Y-64041689D01*
X141750000Y-63848491D01*
X141750000Y-63651509D01*
X141711571Y-63458311D01*
X141636189Y-63276322D01*
X141526751Y-63112537D01*
X141387463Y-62973249D01*
X141223678Y-62863811D01*
X141041689Y-62788429D01*
X140848491Y-62750000D01*
X140651509Y-62750000D01*
X140458311Y-62788429D01*
X140276322Y-62863811D01*
X140112537Y-62973249D01*
X139973249Y-63112537D01*
X139863811Y-63276322D01*
X139788429Y-63458311D01*
X139750000Y-63651509D01*
X139750000Y-63848491D01*
X139788429Y-64041689D01*
X139863811Y-64223678D01*
X139973249Y-64387463D01*
X140112537Y-64526751D01*
X140276322Y-64636189D01*
X140309665Y-64650000D01*
X131989754Y-64650000D01*
X132000000Y-64598491D01*
X132000000Y-64401509D01*
X131961571Y-64208311D01*
X131886189Y-64026322D01*
X131776751Y-63862537D01*
X131637463Y-63723249D01*
X131473678Y-63613811D01*
X131291689Y-63538429D01*
X131098491Y-63500000D01*
X130901509Y-63500000D01*
X130708311Y-63538429D01*
X130526322Y-63613811D01*
X130362537Y-63723249D01*
X130223249Y-63862537D01*
X130113811Y-64026322D01*
X130038429Y-64208311D01*
X130000000Y-64401509D01*
X130000000Y-64598491D01*
X130010246Y-64650000D01*
X123250000Y-64650000D01*
X123230491Y-64651921D01*
X123211732Y-64657612D01*
X123194443Y-64666853D01*
X123179289Y-64679289D01*
X123166853Y-64694443D01*
X123157612Y-64711732D01*
X123151921Y-64730491D01*
X123150000Y-64750000D01*
X123150000Y-65760246D01*
X123098491Y-65750000D01*
X122901509Y-65750000D01*
X122708311Y-65788429D01*
X122526322Y-65863811D01*
X122362537Y-65973249D01*
X122223249Y-66112537D01*
X122113811Y-66276322D01*
X122038429Y-66458311D01*
X122000000Y-66651509D01*
X122000000Y-66848491D01*
X122038429Y-67041689D01*
X122113811Y-67223678D01*
X122223249Y-67387463D01*
X122362537Y-67526751D01*
X122526322Y-67636189D01*
X122708311Y-67711571D01*
X122901509Y-67750000D01*
X123098491Y-67750000D01*
X123150000Y-67739754D01*
X123150000Y-70650000D01*
X118249700Y-70650000D01*
X118211571Y-70458311D01*
X118136189Y-70276322D01*
X118026751Y-70112537D01*
X117887463Y-69973249D01*
X117723678Y-69863811D01*
X117541689Y-69788429D01*
X117348491Y-69750000D01*
X117151509Y-69750000D01*
X116958311Y-69788429D01*
X116776322Y-69863811D01*
X116612537Y-69973249D01*
X116473249Y-70112537D01*
X116363811Y-70276322D01*
X116288429Y-70458311D01*
X116250300Y-70650000D01*
X112514214Y-70650000D01*
X112526751Y-70637463D01*
X112636189Y-70473678D01*
X112711571Y-70291689D01*
X112750000Y-70098491D01*
X112750000Y-69969863D01*
X112791689Y-69961571D01*
X112973678Y-69886189D01*
X113137463Y-69776751D01*
X113276751Y-69637463D01*
X113386189Y-69473678D01*
X113461571Y-69291689D01*
X113500000Y-69098491D01*
X113500000Y-68901509D01*
X113461571Y-68708311D01*
X113386189Y-68526322D01*
X113276751Y-68362537D01*
X113137463Y-68223249D01*
X112973678Y-68113811D01*
X112791689Y-68038429D01*
X112598491Y-68000000D01*
X112401509Y-68000000D01*
X112208311Y-68038429D01*
X112026322Y-68113811D01*
X111862537Y-68223249D01*
X111723249Y-68362537D01*
X111613811Y-68526322D01*
X111538429Y-68708311D01*
X111500000Y-68901509D01*
X111500000Y-69030137D01*
X111458311Y-69038429D01*
X111276322Y-69113811D01*
X111112537Y-69223249D01*
X110973249Y-69362537D01*
X110863811Y-69526322D01*
X110788429Y-69708311D01*
X110750000Y-69901509D01*
X110750000Y-70098491D01*
X110788429Y-70291689D01*
X110863811Y-70473678D01*
X110973249Y-70637463D01*
X110985786Y-70650000D01*
X110014214Y-70650000D01*
X110026751Y-70637463D01*
X110136189Y-70473678D01*
X110211571Y-70291689D01*
X110250000Y-70098491D01*
X110250000Y-69901509D01*
X110211571Y-69708311D01*
X110136189Y-69526322D01*
X110026751Y-69362537D01*
X109887463Y-69223249D01*
X109723678Y-69113811D01*
X109541689Y-69038429D01*
X109348491Y-69000000D01*
X109151509Y-69000000D01*
X108958311Y-69038429D01*
X108776322Y-69113811D01*
X108750000Y-69131399D01*
X108723678Y-69113811D01*
X108541689Y-69038429D01*
X108348491Y-69000000D01*
X108151509Y-69000000D01*
X107958311Y-69038429D01*
X107776322Y-69113811D01*
X107750000Y-69131399D01*
X107723678Y-69113811D01*
X107541689Y-69038429D01*
X107348491Y-69000000D01*
X107151509Y-69000000D01*
X106958311Y-69038429D01*
X106776322Y-69113811D01*
X106612537Y-69223249D01*
X106473249Y-69362537D01*
X106363811Y-69526322D01*
X106288429Y-69708311D01*
X106250000Y-69901509D01*
X106250000Y-70098491D01*
X106288429Y-70291689D01*
X106363811Y-70473678D01*
X106473249Y-70637463D01*
X106612537Y-70776751D01*
X106776322Y-70886189D01*
X106958311Y-70961571D01*
X107151509Y-71000000D01*
X107348491Y-71000000D01*
X107541689Y-70961571D01*
X107723678Y-70886189D01*
X107750000Y-70868601D01*
X107776322Y-70886189D01*
X107958311Y-70961571D01*
X108151509Y-71000000D01*
X108348491Y-71000000D01*
X108541689Y-70961571D01*
X108650000Y-70916707D01*
X108650000Y-77608640D01*
X108620721Y-77592990D01*
X108507621Y-77558682D01*
X108390000Y-77547097D01*
X106690000Y-77547097D01*
X106572379Y-77558682D01*
X106459279Y-77592990D01*
X106355045Y-77648704D01*
X106263683Y-77723683D01*
X106188704Y-77815045D01*
X106132990Y-77919279D01*
X106098682Y-78032379D01*
X106097275Y-78046665D01*
X105924321Y-77873711D01*
X105686833Y-77715027D01*
X105422949Y-77605723D01*
X105142813Y-77550000D01*
X104857187Y-77550000D01*
X104577051Y-77605723D01*
X104313167Y-77715027D01*
X104075679Y-77873711D01*
X103873711Y-78075679D01*
X103715027Y-78313167D01*
X103605723Y-78577051D01*
X103550000Y-78857187D01*
X103550000Y-79142813D01*
X103605723Y-79422949D01*
X103715027Y-79686833D01*
X103873711Y-79924321D01*
X104075679Y-80126289D01*
X104313167Y-80284973D01*
X104577051Y-80394277D01*
X104857187Y-80450000D01*
X105142813Y-80450000D01*
X105422949Y-80394277D01*
X105686833Y-80284973D01*
X105924321Y-80126289D01*
X106097275Y-79953335D01*
X106098682Y-79967621D01*
X106132990Y-80080721D01*
X106188704Y-80184955D01*
X106263683Y-80276317D01*
X106355045Y-80351296D01*
X106459279Y-80407010D01*
X106572379Y-80441318D01*
X106690000Y-80452903D01*
X108390000Y-80452903D01*
X108507621Y-80441318D01*
X108620721Y-80407010D01*
X108650000Y-80391360D01*
X108650000Y-80550000D01*
X102200000Y-80550000D01*
X102200000Y-66651509D01*
X105000000Y-66651509D01*
X105000000Y-66848491D01*
X105038429Y-67041689D01*
X105113811Y-67223678D01*
X105223249Y-67387463D01*
X105362537Y-67526751D01*
X105526322Y-67636189D01*
X105708311Y-67711571D01*
X105901509Y-67750000D01*
X106098491Y-67750000D01*
X106291689Y-67711571D01*
X106473678Y-67636189D01*
X106637463Y-67526751D01*
X106776751Y-67387463D01*
X106886189Y-67223678D01*
X106961571Y-67041689D01*
X107000000Y-66848491D01*
X107000000Y-66651509D01*
X106961571Y-66458311D01*
X106886189Y-66276322D01*
X106776751Y-66112537D01*
X106637463Y-65973249D01*
X106473678Y-65863811D01*
X106291689Y-65788429D01*
X106098491Y-65750000D01*
X105901509Y-65750000D01*
X105708311Y-65788429D01*
X105526322Y-65863811D01*
X105362537Y-65973249D01*
X105223249Y-66112537D01*
X105113811Y-66276322D01*
X105038429Y-66458311D01*
X105000000Y-66651509D01*
X102200000Y-66651509D01*
X102200000Y-63901509D01*
X102750000Y-63901509D01*
X102750000Y-64098491D01*
X102788429Y-64291689D01*
X102863811Y-64473678D01*
X102973249Y-64637463D01*
X103112537Y-64776751D01*
X103276322Y-64886189D01*
X103458311Y-64961571D01*
X103651509Y-65000000D01*
X103848491Y-65000000D01*
X104041689Y-64961571D01*
X104223678Y-64886189D01*
X104387463Y-64776751D01*
X104526751Y-64637463D01*
X104636189Y-64473678D01*
X104711571Y-64291689D01*
X104750000Y-64098491D01*
X104750000Y-63901509D01*
X119000000Y-63901509D01*
X119000000Y-64098491D01*
X119038429Y-64291689D01*
X119113811Y-64473678D01*
X119223249Y-64637463D01*
X119362537Y-64776751D01*
X119526322Y-64886189D01*
X119708311Y-64961571D01*
X119901509Y-65000000D01*
X120098491Y-65000000D01*
X120291689Y-64961571D01*
X120473678Y-64886189D01*
X120637463Y-64776751D01*
X120776751Y-64637463D01*
X120886189Y-64473678D01*
X120961571Y-64291689D01*
X121000000Y-64098491D01*
X121000000Y-63901509D01*
X120961571Y-63708311D01*
X120886189Y-63526322D01*
X120776751Y-63362537D01*
X120637463Y-63223249D01*
X120473678Y-63113811D01*
X120291689Y-63038429D01*
X120098491Y-63000000D01*
X119901509Y-63000000D01*
X119708311Y-63038429D01*
X119526322Y-63113811D01*
X119362537Y-63223249D01*
X119223249Y-63362537D01*
X119113811Y-63526322D01*
X119038429Y-63708311D01*
X119000000Y-63901509D01*
X104750000Y-63901509D01*
X104711571Y-63708311D01*
X104636189Y-63526322D01*
X104526751Y-63362537D01*
X104387463Y-63223249D01*
X104223678Y-63113811D01*
X104041689Y-63038429D01*
X103848491Y-63000000D01*
X103651509Y-63000000D01*
X103458311Y-63038429D01*
X103276322Y-63113811D01*
X103112537Y-63223249D01*
X102973249Y-63362537D01*
X102863811Y-63526322D01*
X102788429Y-63708311D01*
X102750000Y-63901509D01*
X102200000Y-63901509D01*
X102200000Y-62358569D01*
X132263212Y-62358569D01*
X132263212Y-62555551D01*
X132301641Y-62748749D01*
X132377023Y-62930738D01*
X132486461Y-63094523D01*
X132625749Y-63233811D01*
X132789534Y-63343249D01*
X132971523Y-63418631D01*
X133164721Y-63457060D01*
X133361703Y-63457060D01*
X133554901Y-63418631D01*
X133736890Y-63343249D01*
X133900675Y-63233811D01*
X134039963Y-63094523D01*
X134149401Y-62930738D01*
X134224783Y-62748749D01*
X134263212Y-62555551D01*
X134263212Y-62358569D01*
X134224783Y-62165371D01*
X134149401Y-61983382D01*
X134039963Y-61819597D01*
X133900675Y-61680309D01*
X133857573Y-61651509D01*
X142750000Y-61651509D01*
X142750000Y-61848491D01*
X142788429Y-62041689D01*
X142863811Y-62223678D01*
X142973249Y-62387463D01*
X143112537Y-62526751D01*
X143276322Y-62636189D01*
X143458311Y-62711571D01*
X143651509Y-62750000D01*
X143848491Y-62750000D01*
X144041689Y-62711571D01*
X144223678Y-62636189D01*
X144387463Y-62526751D01*
X144526751Y-62387463D01*
X144636189Y-62223678D01*
X144711571Y-62041689D01*
X144750000Y-61848491D01*
X144750000Y-61651509D01*
X144711571Y-61458311D01*
X144636189Y-61276322D01*
X144526751Y-61112537D01*
X144387463Y-60973249D01*
X144223678Y-60863811D01*
X144041689Y-60788429D01*
X143848491Y-60750000D01*
X143651509Y-60750000D01*
X143458311Y-60788429D01*
X143276322Y-60863811D01*
X143112537Y-60973249D01*
X142973249Y-61112537D01*
X142863811Y-61276322D01*
X142788429Y-61458311D01*
X142750000Y-61651509D01*
X133857573Y-61651509D01*
X133736890Y-61570871D01*
X133554901Y-61495489D01*
X133361703Y-61457060D01*
X133164721Y-61457060D01*
X132971523Y-61495489D01*
X132789534Y-61570871D01*
X132625749Y-61680309D01*
X132486461Y-61819597D01*
X132377023Y-61983382D01*
X132301641Y-62165371D01*
X132263212Y-62358569D01*
X102200000Y-62358569D01*
X102200000Y-58651509D01*
X119000000Y-58651509D01*
X119000000Y-58848491D01*
X119038429Y-59041689D01*
X119113811Y-59223678D01*
X119223249Y-59387463D01*
X119362537Y-59526751D01*
X119526322Y-59636189D01*
X119708311Y-59711571D01*
X119901509Y-59750000D01*
X120098491Y-59750000D01*
X120291689Y-59711571D01*
X120473678Y-59636189D01*
X120637463Y-59526751D01*
X120776751Y-59387463D01*
X120886189Y-59223678D01*
X120961571Y-59041689D01*
X121000000Y-58848491D01*
X121000000Y-58651509D01*
X120961571Y-58458311D01*
X120886189Y-58276322D01*
X120776751Y-58112537D01*
X120637463Y-57973249D01*
X120473678Y-57863811D01*
X120291689Y-57788429D01*
X120098491Y-57750000D01*
X119901509Y-57750000D01*
X119708311Y-57788429D01*
X119526322Y-57863811D01*
X119362537Y-57973249D01*
X119223249Y-58112537D01*
X119113811Y-58276322D01*
X119038429Y-58458311D01*
X119000000Y-58651509D01*
X102200000Y-58651509D01*
X102200000Y-43400000D01*
X102257097Y-43400000D01*
X102257097Y-45100000D01*
X102268682Y-45217621D01*
X102302990Y-45330721D01*
X102358704Y-45434955D01*
X102428499Y-45520000D01*
X102358704Y-45605045D01*
X102302990Y-45709279D01*
X102268682Y-45822379D01*
X102257097Y-45940000D01*
X102257097Y-47640000D01*
X102268682Y-47757621D01*
X102302990Y-47870721D01*
X102358704Y-47974955D01*
X102428499Y-48060000D01*
X102358704Y-48145045D01*
X102302990Y-48249279D01*
X102268682Y-48362379D01*
X102257097Y-48480000D01*
X102257097Y-50180000D01*
X102268682Y-50297621D01*
X102302990Y-50410721D01*
X102358704Y-50514955D01*
X102433683Y-50606317D01*
X102525045Y-50681296D01*
X102629279Y-50737010D01*
X102742379Y-50771318D01*
X102860000Y-50782903D01*
X104560000Y-50782903D01*
X104677621Y-50771318D01*
X104790721Y-50737010D01*
X104894955Y-50681296D01*
X104980000Y-50611501D01*
X105065045Y-50681296D01*
X105169279Y-50737010D01*
X105282379Y-50771318D01*
X105400000Y-50782903D01*
X107100000Y-50782903D01*
X107217621Y-50771318D01*
X107330721Y-50737010D01*
X107434955Y-50681296D01*
X107526317Y-50606317D01*
X107601296Y-50514955D01*
X107657010Y-50410721D01*
X107691318Y-50297621D01*
X107702903Y-50180000D01*
X107702903Y-48480000D01*
X107691318Y-48362379D01*
X107657010Y-48249279D01*
X107601296Y-48145045D01*
X107531501Y-48060000D01*
X107601296Y-47974955D01*
X107657010Y-47870721D01*
X107691318Y-47757621D01*
X107702903Y-47640000D01*
X107702903Y-47151509D01*
X110250000Y-47151509D01*
X110250000Y-47348491D01*
X110288429Y-47541689D01*
X110363811Y-47723678D01*
X110473249Y-47887463D01*
X110612537Y-48026751D01*
X110776322Y-48136189D01*
X110958311Y-48211571D01*
X111151509Y-48250000D01*
X111348491Y-48250000D01*
X111541689Y-48211571D01*
X111723678Y-48136189D01*
X111887463Y-48026751D01*
X112026751Y-47887463D01*
X112136189Y-47723678D01*
X112211571Y-47541689D01*
X112250000Y-47348491D01*
X112250000Y-47151509D01*
X112211571Y-46958311D01*
X112136189Y-46776322D01*
X112026751Y-46612537D01*
X111887463Y-46473249D01*
X111723678Y-46363811D01*
X111541689Y-46288429D01*
X111348491Y-46250000D01*
X111151509Y-46250000D01*
X110958311Y-46288429D01*
X110776322Y-46363811D01*
X110612537Y-46473249D01*
X110473249Y-46612537D01*
X110363811Y-46776322D01*
X110288429Y-46958311D01*
X110250000Y-47151509D01*
X107702903Y-47151509D01*
X107702903Y-45940000D01*
X107691318Y-45822379D01*
X107657010Y-45709279D01*
X107601296Y-45605045D01*
X107526317Y-45513683D01*
X107434955Y-45438704D01*
X107330721Y-45382990D01*
X107217621Y-45348682D01*
X107203335Y-45347275D01*
X107376289Y-45174321D01*
X107534973Y-44936833D01*
X107549604Y-44901509D01*
X110250000Y-44901509D01*
X110250000Y-45098491D01*
X110288429Y-45291689D01*
X110363811Y-45473678D01*
X110473249Y-45637463D01*
X110612537Y-45776751D01*
X110776322Y-45886189D01*
X110958311Y-45961571D01*
X111151509Y-46000000D01*
X111348491Y-46000000D01*
X111541689Y-45961571D01*
X111723678Y-45886189D01*
X111887463Y-45776751D01*
X112026751Y-45637463D01*
X112136189Y-45473678D01*
X112211571Y-45291689D01*
X112250000Y-45098491D01*
X112250000Y-44901509D01*
X112211571Y-44708311D01*
X112136189Y-44526322D01*
X112026751Y-44362537D01*
X111887463Y-44223249D01*
X111723678Y-44113811D01*
X111541689Y-44038429D01*
X111348491Y-44000000D01*
X111151509Y-44000000D01*
X110958311Y-44038429D01*
X110776322Y-44113811D01*
X110612537Y-44223249D01*
X110473249Y-44362537D01*
X110363811Y-44526322D01*
X110288429Y-44708311D01*
X110250000Y-44901509D01*
X107549604Y-44901509D01*
X107644277Y-44672949D01*
X107700000Y-44392813D01*
X107700000Y-44107187D01*
X107644277Y-43827051D01*
X107534973Y-43563167D01*
X107376289Y-43325679D01*
X107174321Y-43123711D01*
X106936833Y-42965027D01*
X106672949Y-42855723D01*
X106392813Y-42800000D01*
X106107187Y-42800000D01*
X105827051Y-42855723D01*
X105563167Y-42965027D01*
X105325679Y-43123711D01*
X105152725Y-43296665D01*
X105151318Y-43282379D01*
X105117010Y-43169279D01*
X105061296Y-43065045D01*
X104986317Y-42973683D01*
X104894955Y-42898704D01*
X104790721Y-42842990D01*
X104677621Y-42808682D01*
X104560000Y-42797097D01*
X102860000Y-42797097D01*
X102742379Y-42808682D01*
X102629279Y-42842990D01*
X102525045Y-42898704D01*
X102433683Y-42973683D01*
X102358704Y-43065045D01*
X102302990Y-43169279D01*
X102268682Y-43282379D01*
X102257097Y-43400000D01*
X102200000Y-43400000D01*
X102200000Y-40950000D01*
X113414808Y-40950000D01*
X113363811Y-41026322D01*
G36*
X130526322Y-65386189D02*
G01*
X130708311Y-65461571D01*
X130901509Y-65500000D01*
X131098491Y-65500000D01*
X131291689Y-65461571D01*
X131473678Y-65386189D01*
X131527838Y-65350000D01*
X146650000Y-65350000D01*
X146650000Y-67650000D01*
X142750000Y-67650000D01*
X142730491Y-67651921D01*
X142711732Y-67657612D01*
X142694443Y-67666853D01*
X142679289Y-67679289D01*
X142666853Y-67694443D01*
X142657612Y-67711732D01*
X142651921Y-67730491D01*
X142650000Y-67750000D01*
X142650000Y-73547097D01*
X142300000Y-73547097D01*
X142182379Y-73558682D01*
X142069279Y-73592990D01*
X142049349Y-73603643D01*
X142136189Y-73473678D01*
X142211571Y-73291689D01*
X142250000Y-73098491D01*
X142250000Y-72901509D01*
X142211571Y-72708311D01*
X142136189Y-72526322D01*
X142026751Y-72362537D01*
X141887463Y-72223249D01*
X141723678Y-72113811D01*
X141541689Y-72038429D01*
X141348491Y-72000000D01*
X141151509Y-72000000D01*
X140958311Y-72038429D01*
X140776322Y-72113811D01*
X140612537Y-72223249D01*
X140473249Y-72362537D01*
X140363811Y-72526322D01*
X140288429Y-72708311D01*
X140250000Y-72901509D01*
X140250000Y-73098491D01*
X140288429Y-73291689D01*
X140363811Y-73473678D01*
X140412868Y-73547097D01*
X139760000Y-73547097D01*
X139642379Y-73558682D01*
X139529279Y-73592990D01*
X139425045Y-73648704D01*
X139340000Y-73718499D01*
X139254955Y-73648704D01*
X139150721Y-73592990D01*
X139037621Y-73558682D01*
X138920000Y-73547097D01*
X137220000Y-73547097D01*
X137102379Y-73558682D01*
X136989279Y-73592990D01*
X136885045Y-73648704D01*
X136800000Y-73718499D01*
X136714955Y-73648704D01*
X136610721Y-73592990D01*
X136497621Y-73558682D01*
X136380000Y-73547097D01*
X134680000Y-73547097D01*
X134562379Y-73558682D01*
X134449279Y-73592990D01*
X134345045Y-73648704D01*
X134260000Y-73718499D01*
X134174955Y-73648704D01*
X134070721Y-73592990D01*
X133957621Y-73558682D01*
X133840000Y-73547097D01*
X132140000Y-73547097D01*
X132022379Y-73558682D01*
X131909279Y-73592990D01*
X131805045Y-73648704D01*
X131720000Y-73718499D01*
X131634955Y-73648704D01*
X131530721Y-73592990D01*
X131417621Y-73558682D01*
X131300000Y-73547097D01*
X129600000Y-73547097D01*
X129482379Y-73558682D01*
X129369279Y-73592990D01*
X129265045Y-73648704D01*
X129180000Y-73718499D01*
X129094955Y-73648704D01*
X128990721Y-73592990D01*
X128877621Y-73558682D01*
X128760000Y-73547097D01*
X127060000Y-73547097D01*
X126942379Y-73558682D01*
X126829279Y-73592990D01*
X126725045Y-73648704D01*
X126640000Y-73718499D01*
X126554955Y-73648704D01*
X126450721Y-73592990D01*
X126337621Y-73558682D01*
X126220000Y-73547097D01*
X124520000Y-73547097D01*
X124402379Y-73558682D01*
X124289279Y-73592990D01*
X124185045Y-73648704D01*
X124100000Y-73718499D01*
X124014955Y-73648704D01*
X123910721Y-73592990D01*
X123797621Y-73558682D01*
X123680000Y-73547097D01*
X121980000Y-73547097D01*
X121862379Y-73558682D01*
X121749279Y-73592990D01*
X121645045Y-73648704D01*
X121560000Y-73718499D01*
X121474955Y-73648704D01*
X121370721Y-73592990D01*
X121257621Y-73558682D01*
X121140000Y-73547097D01*
X119440000Y-73547097D01*
X119322379Y-73558682D01*
X119209279Y-73592990D01*
X119105045Y-73648704D01*
X119013683Y-73723683D01*
X118938704Y-73815045D01*
X118882990Y-73919279D01*
X118848682Y-74032379D01*
X118847275Y-74046665D01*
X118674321Y-73873711D01*
X118436833Y-73715027D01*
X118172949Y-73605723D01*
X117892813Y-73550000D01*
X117607187Y-73550000D01*
X117327051Y-73605723D01*
X117063167Y-73715027D01*
X116825679Y-73873711D01*
X116623711Y-74075679D01*
X116465027Y-74313167D01*
X116355723Y-74577051D01*
X116300000Y-74857187D01*
X116300000Y-75142813D01*
X116355723Y-75422949D01*
X116465027Y-75686833D01*
X116623711Y-75924321D01*
X116825679Y-76126289D01*
X117063167Y-76284973D01*
X117327051Y-76394277D01*
X117607187Y-76450000D01*
X117892813Y-76450000D01*
X118172949Y-76394277D01*
X118436833Y-76284973D01*
X118674321Y-76126289D01*
X118847275Y-75953335D01*
X118848682Y-75967621D01*
X118882990Y-76080721D01*
X118938704Y-76184955D01*
X119013683Y-76276317D01*
X119105045Y-76351296D01*
X119209279Y-76407010D01*
X119322379Y-76441318D01*
X119440000Y-76452903D01*
X121140000Y-76452903D01*
X121257621Y-76441318D01*
X121370721Y-76407010D01*
X121474955Y-76351296D01*
X121560000Y-76281501D01*
X121645045Y-76351296D01*
X121749279Y-76407010D01*
X121862379Y-76441318D01*
X121980000Y-76452903D01*
X123680000Y-76452903D01*
X123797621Y-76441318D01*
X123910721Y-76407010D01*
X124014955Y-76351296D01*
X124100000Y-76281501D01*
X124185045Y-76351296D01*
X124289279Y-76407010D01*
X124402379Y-76441318D01*
X124520000Y-76452903D01*
X126220000Y-76452903D01*
X126337621Y-76441318D01*
X126450721Y-76407010D01*
X126554955Y-76351296D01*
X126640000Y-76281501D01*
X126725045Y-76351296D01*
X126829279Y-76407010D01*
X126942379Y-76441318D01*
X127060000Y-76452903D01*
X128760000Y-76452903D01*
X128877621Y-76441318D01*
X128990721Y-76407010D01*
X129094955Y-76351296D01*
X129180000Y-76281501D01*
X129265045Y-76351296D01*
X129369279Y-76407010D01*
X129482379Y-76441318D01*
X129600000Y-76452903D01*
X131300000Y-76452903D01*
X131417621Y-76441318D01*
X131530721Y-76407010D01*
X131634955Y-76351296D01*
X131720000Y-76281501D01*
X131805045Y-76351296D01*
X131909279Y-76407010D01*
X132022379Y-76441318D01*
X132140000Y-76452903D01*
X133840000Y-76452903D01*
X133957621Y-76441318D01*
X134070721Y-76407010D01*
X134174955Y-76351296D01*
X134260000Y-76281501D01*
X134345045Y-76351296D01*
X134449279Y-76407010D01*
X134562379Y-76441318D01*
X134680000Y-76452903D01*
X136380000Y-76452903D01*
X136497621Y-76441318D01*
X136610721Y-76407010D01*
X136714955Y-76351296D01*
X136800000Y-76281501D01*
X136885045Y-76351296D01*
X136989279Y-76407010D01*
X137102379Y-76441318D01*
X137220000Y-76452903D01*
X138920000Y-76452903D01*
X139037621Y-76441318D01*
X139150721Y-76407010D01*
X139254955Y-76351296D01*
X139340000Y-76281501D01*
X139425045Y-76351296D01*
X139529279Y-76407010D01*
X139642379Y-76441318D01*
X139760000Y-76452903D01*
X141460000Y-76452903D01*
X141577621Y-76441318D01*
X141690721Y-76407010D01*
X141794955Y-76351296D01*
X141880000Y-76281501D01*
X141965045Y-76351296D01*
X142069279Y-76407010D01*
X142182379Y-76441318D01*
X142300000Y-76452903D01*
X142650000Y-76452903D01*
X142650000Y-80550000D01*
X109350000Y-80550000D01*
X109350000Y-80452387D01*
X109905000Y-80450000D01*
X110055000Y-80300000D01*
X110055000Y-79025000D01*
X110035000Y-79025000D01*
X110035000Y-78975000D01*
X110055000Y-78975000D01*
X110055000Y-77700000D01*
X110105000Y-77700000D01*
X110105000Y-78975000D01*
X110125000Y-78975000D01*
X110125000Y-79025000D01*
X110105000Y-79025000D01*
X110105000Y-80300000D01*
X110255000Y-80450000D01*
X110930000Y-80452903D01*
X111047621Y-80441318D01*
X111160721Y-80407010D01*
X111264955Y-80351296D01*
X111350000Y-80281501D01*
X111435045Y-80351296D01*
X111539279Y-80407010D01*
X111652379Y-80441318D01*
X111770000Y-80452903D01*
X113470000Y-80452903D01*
X113587621Y-80441318D01*
X113700721Y-80407010D01*
X113804955Y-80351296D01*
X113896317Y-80276317D01*
X113971296Y-80184955D01*
X114027010Y-80080721D01*
X114061318Y-79967621D01*
X114072903Y-79850000D01*
X114072903Y-79151509D01*
X115750000Y-79151509D01*
X115750000Y-79348491D01*
X115788429Y-79541689D01*
X115863811Y-79723678D01*
X115973249Y-79887463D01*
X116112537Y-80026751D01*
X116276322Y-80136189D01*
X116458311Y-80211571D01*
X116651509Y-80250000D01*
X116848491Y-80250000D01*
X117041689Y-80211571D01*
X117223678Y-80136189D01*
X117387463Y-80026751D01*
X117526751Y-79887463D01*
X117636189Y-79723678D01*
X117711571Y-79541689D01*
X117750000Y-79348491D01*
X117750000Y-79151509D01*
X117711571Y-78958311D01*
X117636189Y-78776322D01*
X117526751Y-78612537D01*
X117387463Y-78473249D01*
X117223678Y-78363811D01*
X117041689Y-78288429D01*
X116848491Y-78250000D01*
X116651509Y-78250000D01*
X116458311Y-78288429D01*
X116276322Y-78363811D01*
X116112537Y-78473249D01*
X115973249Y-78612537D01*
X115863811Y-78776322D01*
X115788429Y-78958311D01*
X115750000Y-79151509D01*
X114072903Y-79151509D01*
X114072903Y-78150000D01*
X114061318Y-78032379D01*
X114027010Y-77919279D01*
X113971296Y-77815045D01*
X113896317Y-77723683D01*
X113804955Y-77648704D01*
X113700721Y-77592990D01*
X113587621Y-77558682D01*
X113470000Y-77547097D01*
X111770000Y-77547097D01*
X111652379Y-77558682D01*
X111539279Y-77592990D01*
X111435045Y-77648704D01*
X111350000Y-77718499D01*
X111264955Y-77648704D01*
X111160721Y-77592990D01*
X111047621Y-77558682D01*
X110930000Y-77547097D01*
X110255000Y-77550000D01*
X110105000Y-77700000D01*
X110055000Y-77700000D01*
X109905000Y-77550000D01*
X109350000Y-77547613D01*
X109350000Y-77401509D01*
X124500000Y-77401509D01*
X124500000Y-77598491D01*
X124538429Y-77791689D01*
X124613811Y-77973678D01*
X124723249Y-78137463D01*
X124862537Y-78276751D01*
X125026322Y-78386189D01*
X125208311Y-78461571D01*
X125401509Y-78500000D01*
X125598491Y-78500000D01*
X125791689Y-78461571D01*
X125973678Y-78386189D01*
X126137463Y-78276751D01*
X126276751Y-78137463D01*
X126386189Y-77973678D01*
X126416082Y-77901509D01*
X128000000Y-77901509D01*
X128000000Y-78098491D01*
X128038429Y-78291689D01*
X128113811Y-78473678D01*
X128223249Y-78637463D01*
X128362537Y-78776751D01*
X128526322Y-78886189D01*
X128708311Y-78961571D01*
X128901509Y-79000000D01*
X129098491Y-79000000D01*
X129291689Y-78961571D01*
X129473678Y-78886189D01*
X129637463Y-78776751D01*
X129776751Y-78637463D01*
X129886189Y-78473678D01*
X129961571Y-78291689D01*
X130000000Y-78098491D01*
X130000000Y-77901509D01*
X129961571Y-77708311D01*
X129886189Y-77526322D01*
X129802792Y-77401509D01*
X136250000Y-77401509D01*
X136250000Y-77598491D01*
X136288429Y-77791689D01*
X136363811Y-77973678D01*
X136473249Y-78137463D01*
X136612537Y-78276751D01*
X136776322Y-78386189D01*
X136958311Y-78461571D01*
X137151509Y-78500000D01*
X137348491Y-78500000D01*
X137541689Y-78461571D01*
X137723678Y-78386189D01*
X137887463Y-78276751D01*
X138000000Y-78164214D01*
X138112537Y-78276751D01*
X138276322Y-78386189D01*
X138458311Y-78461571D01*
X138651509Y-78500000D01*
X138848491Y-78500000D01*
X139041689Y-78461571D01*
X139223678Y-78386189D01*
X139387463Y-78276751D01*
X139526751Y-78137463D01*
X139636189Y-77973678D01*
X139711571Y-77791689D01*
X139750000Y-77598491D01*
X139750000Y-77401509D01*
X139711571Y-77208311D01*
X139636189Y-77026322D01*
X139526751Y-76862537D01*
X139387463Y-76723249D01*
X139223678Y-76613811D01*
X139041689Y-76538429D01*
X138848491Y-76500000D01*
X138651509Y-76500000D01*
X138458311Y-76538429D01*
X138276322Y-76613811D01*
X138112537Y-76723249D01*
X138000000Y-76835786D01*
X137887463Y-76723249D01*
X137723678Y-76613811D01*
X137541689Y-76538429D01*
X137348491Y-76500000D01*
X137151509Y-76500000D01*
X136958311Y-76538429D01*
X136776322Y-76613811D01*
X136612537Y-76723249D01*
X136473249Y-76862537D01*
X136363811Y-77026322D01*
X136288429Y-77208311D01*
X136250000Y-77401509D01*
X129802792Y-77401509D01*
X129776751Y-77362537D01*
X129637463Y-77223249D01*
X129473678Y-77113811D01*
X129291689Y-77038429D01*
X129098491Y-77000000D01*
X128901509Y-77000000D01*
X128708311Y-77038429D01*
X128526322Y-77113811D01*
X128362537Y-77223249D01*
X128223249Y-77362537D01*
X128113811Y-77526322D01*
X128038429Y-77708311D01*
X128000000Y-77901509D01*
X126416082Y-77901509D01*
X126461571Y-77791689D01*
X126500000Y-77598491D01*
X126500000Y-77401509D01*
X126461571Y-77208311D01*
X126386189Y-77026322D01*
X126276751Y-76862537D01*
X126137463Y-76723249D01*
X125973678Y-76613811D01*
X125791689Y-76538429D01*
X125598491Y-76500000D01*
X125401509Y-76500000D01*
X125208311Y-76538429D01*
X125026322Y-76613811D01*
X124862537Y-76723249D01*
X124723249Y-76862537D01*
X124613811Y-77026322D01*
X124538429Y-77208311D01*
X124500000Y-77401509D01*
X109350000Y-77401509D01*
X109350000Y-74190335D01*
X109363811Y-74223678D01*
X109473249Y-74387463D01*
X109612537Y-74526751D01*
X109776322Y-74636189D01*
X109958311Y-74711571D01*
X110151509Y-74750000D01*
X110348491Y-74750000D01*
X110541689Y-74711571D01*
X110723678Y-74636189D01*
X110887463Y-74526751D01*
X111026751Y-74387463D01*
X111136189Y-74223678D01*
X111211571Y-74041689D01*
X111250000Y-73848491D01*
X111250000Y-73651509D01*
X111211571Y-73458311D01*
X111136189Y-73276322D01*
X111026751Y-73112537D01*
X110887463Y-72973249D01*
X110723678Y-72863811D01*
X110541689Y-72788429D01*
X110348491Y-72750000D01*
X110151509Y-72750000D01*
X109958311Y-72788429D01*
X109776322Y-72863811D01*
X109612537Y-72973249D01*
X109473249Y-73112537D01*
X109363811Y-73276322D01*
X109350000Y-73309665D01*
X109350000Y-72401509D01*
X124500000Y-72401509D01*
X124500000Y-72598491D01*
X124538429Y-72791689D01*
X124613811Y-72973678D01*
X124723249Y-73137463D01*
X124862537Y-73276751D01*
X125026322Y-73386189D01*
X125208311Y-73461571D01*
X125401509Y-73500000D01*
X125598491Y-73500000D01*
X125791689Y-73461571D01*
X125973678Y-73386189D01*
X126137463Y-73276751D01*
X126276751Y-73137463D01*
X126386189Y-72973678D01*
X126461571Y-72791689D01*
X126500000Y-72598491D01*
X126500000Y-72401509D01*
X126461571Y-72208311D01*
X126386189Y-72026322D01*
X126276751Y-71862537D01*
X126137463Y-71723249D01*
X125973678Y-71613811D01*
X125791689Y-71538429D01*
X125598491Y-71500000D01*
X125401509Y-71500000D01*
X125208311Y-71538429D01*
X125026322Y-71613811D01*
X124862537Y-71723249D01*
X124723249Y-71862537D01*
X124613811Y-72026322D01*
X124538429Y-72208311D01*
X124500000Y-72401509D01*
X109350000Y-72401509D01*
X109350000Y-71350000D01*
X116448217Y-71350000D01*
X116473249Y-71387463D01*
X116612537Y-71526751D01*
X116776322Y-71636189D01*
X116958311Y-71711571D01*
X117151509Y-71750000D01*
X117348491Y-71750000D01*
X117541689Y-71711571D01*
X117723678Y-71636189D01*
X117887463Y-71526751D01*
X118026751Y-71387463D01*
X118051783Y-71350000D01*
X123750000Y-71350000D01*
X123769509Y-71348079D01*
X123788268Y-71342388D01*
X123805557Y-71333147D01*
X123820711Y-71320711D01*
X123833147Y-71305557D01*
X123842388Y-71288268D01*
X123848079Y-71269509D01*
X123850000Y-71250000D01*
X123850000Y-70151509D01*
X129250000Y-70151509D01*
X129250000Y-70348491D01*
X129288429Y-70541689D01*
X129363811Y-70723678D01*
X129473249Y-70887463D01*
X129612537Y-71026751D01*
X129776322Y-71136189D01*
X129958311Y-71211571D01*
X130133758Y-71246469D01*
X130113811Y-71276322D01*
X130038429Y-71458311D01*
X130000000Y-71651509D01*
X130000000Y-71848491D01*
X130038429Y-72041689D01*
X130113811Y-72223678D01*
X130223249Y-72387463D01*
X130362537Y-72526751D01*
X130526322Y-72636189D01*
X130708311Y-72711571D01*
X130901509Y-72750000D01*
X131098491Y-72750000D01*
X131291689Y-72711571D01*
X131473678Y-72636189D01*
X131637463Y-72526751D01*
X131776751Y-72387463D01*
X131886189Y-72223678D01*
X131961571Y-72041689D01*
X132000000Y-71848491D01*
X132000000Y-71651509D01*
X131961571Y-71458311D01*
X131886189Y-71276322D01*
X131866242Y-71246469D01*
X132041689Y-71211571D01*
X132223678Y-71136189D01*
X132387463Y-71026751D01*
X132526751Y-70887463D01*
X132636189Y-70723678D01*
X132711571Y-70541689D01*
X132750000Y-70348491D01*
X132750000Y-70151509D01*
X132711571Y-69958311D01*
X132636189Y-69776322D01*
X132526751Y-69612537D01*
X132387463Y-69473249D01*
X132223678Y-69363811D01*
X132041689Y-69288429D01*
X131848491Y-69250000D01*
X131651509Y-69250000D01*
X131458311Y-69288429D01*
X131276322Y-69363811D01*
X131112537Y-69473249D01*
X131000000Y-69585786D01*
X130887463Y-69473249D01*
X130723678Y-69363811D01*
X130541689Y-69288429D01*
X130348491Y-69250000D01*
X130151509Y-69250000D01*
X129958311Y-69288429D01*
X129776322Y-69363811D01*
X129612537Y-69473249D01*
X129473249Y-69612537D01*
X129363811Y-69776322D01*
X129288429Y-69958311D01*
X129250000Y-70151509D01*
X123850000Y-70151509D01*
X123850000Y-67277838D01*
X123886189Y-67223678D01*
X123916082Y-67151509D01*
X133500000Y-67151509D01*
X133500000Y-67348491D01*
X133538429Y-67541689D01*
X133613811Y-67723678D01*
X133723249Y-67887463D01*
X133862537Y-68026751D01*
X134026322Y-68136189D01*
X134208311Y-68211571D01*
X134401509Y-68250000D01*
X134598491Y-68250000D01*
X134791689Y-68211571D01*
X134973678Y-68136189D01*
X135137463Y-68026751D01*
X135276751Y-67887463D01*
X135386189Y-67723678D01*
X135461571Y-67541689D01*
X135500000Y-67348491D01*
X135500000Y-67151509D01*
X135461571Y-66958311D01*
X135386189Y-66776322D01*
X135276751Y-66612537D01*
X135137463Y-66473249D01*
X134973678Y-66363811D01*
X134791689Y-66288429D01*
X134598491Y-66250000D01*
X134401509Y-66250000D01*
X134208311Y-66288429D01*
X134026322Y-66363811D01*
X133862537Y-66473249D01*
X133723249Y-66612537D01*
X133613811Y-66776322D01*
X133538429Y-66958311D01*
X133500000Y-67151509D01*
X123916082Y-67151509D01*
X123961571Y-67041689D01*
X124000000Y-66848491D01*
X124000000Y-66651509D01*
X123961571Y-66458311D01*
X123886189Y-66276322D01*
X123850000Y-66222162D01*
X123850000Y-65350000D01*
X130472162Y-65350000D01*
X130526322Y-65386189D01*
X130526322Y-65386189D01*
G37*
X130526322Y-65386189D02*
X130708311Y-65461571D01*
X130901509Y-65500000D01*
X131098491Y-65500000D01*
X131291689Y-65461571D01*
X131473678Y-65386189D01*
X131527838Y-65350000D01*
X146650000Y-65350000D01*
X146650000Y-67650000D01*
X142750000Y-67650000D01*
X142730491Y-67651921D01*
X142711732Y-67657612D01*
X142694443Y-67666853D01*
X142679289Y-67679289D01*
X142666853Y-67694443D01*
X142657612Y-67711732D01*
X142651921Y-67730491D01*
X142650000Y-67750000D01*
X142650000Y-73547097D01*
X142300000Y-73547097D01*
X142182379Y-73558682D01*
X142069279Y-73592990D01*
X142049349Y-73603643D01*
X142136189Y-73473678D01*
X142211571Y-73291689D01*
X142250000Y-73098491D01*
X142250000Y-72901509D01*
X142211571Y-72708311D01*
X142136189Y-72526322D01*
X142026751Y-72362537D01*
X141887463Y-72223249D01*
X141723678Y-72113811D01*
X141541689Y-72038429D01*
X141348491Y-72000000D01*
X141151509Y-72000000D01*
X140958311Y-72038429D01*
X140776322Y-72113811D01*
X140612537Y-72223249D01*
X140473249Y-72362537D01*
X140363811Y-72526322D01*
X140288429Y-72708311D01*
X140250000Y-72901509D01*
X140250000Y-73098491D01*
X140288429Y-73291689D01*
X140363811Y-73473678D01*
X140412868Y-73547097D01*
X139760000Y-73547097D01*
X139642379Y-73558682D01*
X139529279Y-73592990D01*
X139425045Y-73648704D01*
X139340000Y-73718499D01*
X139254955Y-73648704D01*
X139150721Y-73592990D01*
X139037621Y-73558682D01*
X138920000Y-73547097D01*
X137220000Y-73547097D01*
X137102379Y-73558682D01*
X136989279Y-73592990D01*
X136885045Y-73648704D01*
X136800000Y-73718499D01*
X136714955Y-73648704D01*
X136610721Y-73592990D01*
X136497621Y-73558682D01*
X136380000Y-73547097D01*
X134680000Y-73547097D01*
X134562379Y-73558682D01*
X134449279Y-73592990D01*
X134345045Y-73648704D01*
X134260000Y-73718499D01*
X134174955Y-73648704D01*
X134070721Y-73592990D01*
X133957621Y-73558682D01*
X133840000Y-73547097D01*
X132140000Y-73547097D01*
X132022379Y-73558682D01*
X131909279Y-73592990D01*
X131805045Y-73648704D01*
X131720000Y-73718499D01*
X131634955Y-73648704D01*
X131530721Y-73592990D01*
X131417621Y-73558682D01*
X131300000Y-73547097D01*
X129600000Y-73547097D01*
X129482379Y-73558682D01*
X129369279Y-73592990D01*
X129265045Y-73648704D01*
X129180000Y-73718499D01*
X129094955Y-73648704D01*
X128990721Y-73592990D01*
X128877621Y-73558682D01*
X128760000Y-73547097D01*
X127060000Y-73547097D01*
X126942379Y-73558682D01*
X126829279Y-73592990D01*
X126725045Y-73648704D01*
X126640000Y-73718499D01*
X126554955Y-73648704D01*
X126450721Y-73592990D01*
X126337621Y-73558682D01*
X126220000Y-73547097D01*
X124520000Y-73547097D01*
X124402379Y-73558682D01*
X124289279Y-73592990D01*
X124185045Y-73648704D01*
X124100000Y-73718499D01*
X124014955Y-73648704D01*
X123910721Y-73592990D01*
X123797621Y-73558682D01*
X123680000Y-73547097D01*
X121980000Y-73547097D01*
X121862379Y-73558682D01*
X121749279Y-73592990D01*
X121645045Y-73648704D01*
X121560000Y-73718499D01*
X121474955Y-73648704D01*
X121370721Y-73592990D01*
X121257621Y-73558682D01*
X121140000Y-73547097D01*
X119440000Y-73547097D01*
X119322379Y-73558682D01*
X119209279Y-73592990D01*
X119105045Y-73648704D01*
X119013683Y-73723683D01*
X118938704Y-73815045D01*
X118882990Y-73919279D01*
X118848682Y-74032379D01*
X118847275Y-74046665D01*
X118674321Y-73873711D01*
X118436833Y-73715027D01*
X118172949Y-73605723D01*
X117892813Y-73550000D01*
X117607187Y-73550000D01*
X117327051Y-73605723D01*
X117063167Y-73715027D01*
X116825679Y-73873711D01*
X116623711Y-74075679D01*
X116465027Y-74313167D01*
X116355723Y-74577051D01*
X116300000Y-74857187D01*
X116300000Y-75142813D01*
X116355723Y-75422949D01*
X116465027Y-75686833D01*
X116623711Y-75924321D01*
X116825679Y-76126289D01*
X117063167Y-76284973D01*
X117327051Y-76394277D01*
X117607187Y-76450000D01*
X117892813Y-76450000D01*
X118172949Y-76394277D01*
X118436833Y-76284973D01*
X118674321Y-76126289D01*
X118847275Y-75953335D01*
X118848682Y-75967621D01*
X118882990Y-76080721D01*
X118938704Y-76184955D01*
X119013683Y-76276317D01*
X119105045Y-76351296D01*
X119209279Y-76407010D01*
X119322379Y-76441318D01*
X119440000Y-76452903D01*
X121140000Y-76452903D01*
X121257621Y-76441318D01*
X121370721Y-76407010D01*
X121474955Y-76351296D01*
X121560000Y-76281501D01*
X121645045Y-76351296D01*
X121749279Y-76407010D01*
X121862379Y-76441318D01*
X121980000Y-76452903D01*
X123680000Y-76452903D01*
X123797621Y-76441318D01*
X123910721Y-76407010D01*
X124014955Y-76351296D01*
X124100000Y-76281501D01*
X124185045Y-76351296D01*
X124289279Y-76407010D01*
X124402379Y-76441318D01*
X124520000Y-76452903D01*
X126220000Y-76452903D01*
X126337621Y-76441318D01*
X126450721Y-76407010D01*
X126554955Y-76351296D01*
X126640000Y-76281501D01*
X126725045Y-76351296D01*
X126829279Y-76407010D01*
X126942379Y-76441318D01*
X127060000Y-76452903D01*
X128760000Y-76452903D01*
X128877621Y-76441318D01*
X128990721Y-76407010D01*
X129094955Y-76351296D01*
X129180000Y-76281501D01*
X129265045Y-76351296D01*
X129369279Y-76407010D01*
X129482379Y-76441318D01*
X129600000Y-76452903D01*
X131300000Y-76452903D01*
X131417621Y-76441318D01*
X131530721Y-76407010D01*
X131634955Y-76351296D01*
X131720000Y-76281501D01*
X131805045Y-76351296D01*
X131909279Y-76407010D01*
X132022379Y-76441318D01*
X132140000Y-76452903D01*
X133840000Y-76452903D01*
X133957621Y-76441318D01*
X134070721Y-76407010D01*
X134174955Y-76351296D01*
X134260000Y-76281501D01*
X134345045Y-76351296D01*
X134449279Y-76407010D01*
X134562379Y-76441318D01*
X134680000Y-76452903D01*
X136380000Y-76452903D01*
X136497621Y-76441318D01*
X136610721Y-76407010D01*
X136714955Y-76351296D01*
X136800000Y-76281501D01*
X136885045Y-76351296D01*
X136989279Y-76407010D01*
X137102379Y-76441318D01*
X137220000Y-76452903D01*
X138920000Y-76452903D01*
X139037621Y-76441318D01*
X139150721Y-76407010D01*
X139254955Y-76351296D01*
X139340000Y-76281501D01*
X139425045Y-76351296D01*
X139529279Y-76407010D01*
X139642379Y-76441318D01*
X139760000Y-76452903D01*
X141460000Y-76452903D01*
X141577621Y-76441318D01*
X141690721Y-76407010D01*
X141794955Y-76351296D01*
X141880000Y-76281501D01*
X141965045Y-76351296D01*
X142069279Y-76407010D01*
X142182379Y-76441318D01*
X142300000Y-76452903D01*
X142650000Y-76452903D01*
X142650000Y-80550000D01*
X109350000Y-80550000D01*
X109350000Y-80452387D01*
X109905000Y-80450000D01*
X110055000Y-80300000D01*
X110055000Y-79025000D01*
X110035000Y-79025000D01*
X110035000Y-78975000D01*
X110055000Y-78975000D01*
X110055000Y-77700000D01*
X110105000Y-77700000D01*
X110105000Y-78975000D01*
X110125000Y-78975000D01*
X110125000Y-79025000D01*
X110105000Y-79025000D01*
X110105000Y-80300000D01*
X110255000Y-80450000D01*
X110930000Y-80452903D01*
X111047621Y-80441318D01*
X111160721Y-80407010D01*
X111264955Y-80351296D01*
X111350000Y-80281501D01*
X111435045Y-80351296D01*
X111539279Y-80407010D01*
X111652379Y-80441318D01*
X111770000Y-80452903D01*
X113470000Y-80452903D01*
X113587621Y-80441318D01*
X113700721Y-80407010D01*
X113804955Y-80351296D01*
X113896317Y-80276317D01*
X113971296Y-80184955D01*
X114027010Y-80080721D01*
X114061318Y-79967621D01*
X114072903Y-79850000D01*
X114072903Y-79151509D01*
X115750000Y-79151509D01*
X115750000Y-79348491D01*
X115788429Y-79541689D01*
X115863811Y-79723678D01*
X115973249Y-79887463D01*
X116112537Y-80026751D01*
X116276322Y-80136189D01*
X116458311Y-80211571D01*
X116651509Y-80250000D01*
X116848491Y-80250000D01*
X117041689Y-80211571D01*
X117223678Y-80136189D01*
X117387463Y-80026751D01*
X117526751Y-79887463D01*
X117636189Y-79723678D01*
X117711571Y-79541689D01*
X117750000Y-79348491D01*
X117750000Y-79151509D01*
X117711571Y-78958311D01*
X117636189Y-78776322D01*
X117526751Y-78612537D01*
X117387463Y-78473249D01*
X117223678Y-78363811D01*
X117041689Y-78288429D01*
X116848491Y-78250000D01*
X116651509Y-78250000D01*
X116458311Y-78288429D01*
X116276322Y-78363811D01*
X116112537Y-78473249D01*
X115973249Y-78612537D01*
X115863811Y-78776322D01*
X115788429Y-78958311D01*
X115750000Y-79151509D01*
X114072903Y-79151509D01*
X114072903Y-78150000D01*
X114061318Y-78032379D01*
X114027010Y-77919279D01*
X113971296Y-77815045D01*
X113896317Y-77723683D01*
X113804955Y-77648704D01*
X113700721Y-77592990D01*
X113587621Y-77558682D01*
X113470000Y-77547097D01*
X111770000Y-77547097D01*
X111652379Y-77558682D01*
X111539279Y-77592990D01*
X111435045Y-77648704D01*
X111350000Y-77718499D01*
X111264955Y-77648704D01*
X111160721Y-77592990D01*
X111047621Y-77558682D01*
X110930000Y-77547097D01*
X110255000Y-77550000D01*
X110105000Y-77700000D01*
X110055000Y-77700000D01*
X109905000Y-77550000D01*
X109350000Y-77547613D01*
X109350000Y-77401509D01*
X124500000Y-77401509D01*
X124500000Y-77598491D01*
X124538429Y-77791689D01*
X124613811Y-77973678D01*
X124723249Y-78137463D01*
X124862537Y-78276751D01*
X125026322Y-78386189D01*
X125208311Y-78461571D01*
X125401509Y-78500000D01*
X125598491Y-78500000D01*
X125791689Y-78461571D01*
X125973678Y-78386189D01*
X126137463Y-78276751D01*
X126276751Y-78137463D01*
X126386189Y-77973678D01*
X126416082Y-77901509D01*
X128000000Y-77901509D01*
X128000000Y-78098491D01*
X128038429Y-78291689D01*
X128113811Y-78473678D01*
X128223249Y-78637463D01*
X128362537Y-78776751D01*
X128526322Y-78886189D01*
X128708311Y-78961571D01*
X128901509Y-79000000D01*
X129098491Y-79000000D01*
X129291689Y-78961571D01*
X129473678Y-78886189D01*
X129637463Y-78776751D01*
X129776751Y-78637463D01*
X129886189Y-78473678D01*
X129961571Y-78291689D01*
X130000000Y-78098491D01*
X130000000Y-77901509D01*
X129961571Y-77708311D01*
X129886189Y-77526322D01*
X129802792Y-77401509D01*
X136250000Y-77401509D01*
X136250000Y-77598491D01*
X136288429Y-77791689D01*
X136363811Y-77973678D01*
X136473249Y-78137463D01*
X136612537Y-78276751D01*
X136776322Y-78386189D01*
X136958311Y-78461571D01*
X137151509Y-78500000D01*
X137348491Y-78500000D01*
X137541689Y-78461571D01*
X137723678Y-78386189D01*
X137887463Y-78276751D01*
X138000000Y-78164214D01*
X138112537Y-78276751D01*
X138276322Y-78386189D01*
X138458311Y-78461571D01*
X138651509Y-78500000D01*
X138848491Y-78500000D01*
X139041689Y-78461571D01*
X139223678Y-78386189D01*
X139387463Y-78276751D01*
X139526751Y-78137463D01*
X139636189Y-77973678D01*
X139711571Y-77791689D01*
X139750000Y-77598491D01*
X139750000Y-77401509D01*
X139711571Y-77208311D01*
X139636189Y-77026322D01*
X139526751Y-76862537D01*
X139387463Y-76723249D01*
X139223678Y-76613811D01*
X139041689Y-76538429D01*
X138848491Y-76500000D01*
X138651509Y-76500000D01*
X138458311Y-76538429D01*
X138276322Y-76613811D01*
X138112537Y-76723249D01*
X138000000Y-76835786D01*
X137887463Y-76723249D01*
X137723678Y-76613811D01*
X137541689Y-76538429D01*
X137348491Y-76500000D01*
X137151509Y-76500000D01*
X136958311Y-76538429D01*
X136776322Y-76613811D01*
X136612537Y-76723249D01*
X136473249Y-76862537D01*
X136363811Y-77026322D01*
X136288429Y-77208311D01*
X136250000Y-77401509D01*
X129802792Y-77401509D01*
X129776751Y-77362537D01*
X129637463Y-77223249D01*
X129473678Y-77113811D01*
X129291689Y-77038429D01*
X129098491Y-77000000D01*
X128901509Y-77000000D01*
X128708311Y-77038429D01*
X128526322Y-77113811D01*
X128362537Y-77223249D01*
X128223249Y-77362537D01*
X128113811Y-77526322D01*
X128038429Y-77708311D01*
X128000000Y-77901509D01*
X126416082Y-77901509D01*
X126461571Y-77791689D01*
X126500000Y-77598491D01*
X126500000Y-77401509D01*
X126461571Y-77208311D01*
X126386189Y-77026322D01*
X126276751Y-76862537D01*
X126137463Y-76723249D01*
X125973678Y-76613811D01*
X125791689Y-76538429D01*
X125598491Y-76500000D01*
X125401509Y-76500000D01*
X125208311Y-76538429D01*
X125026322Y-76613811D01*
X124862537Y-76723249D01*
X124723249Y-76862537D01*
X124613811Y-77026322D01*
X124538429Y-77208311D01*
X124500000Y-77401509D01*
X109350000Y-77401509D01*
X109350000Y-74190335D01*
X109363811Y-74223678D01*
X109473249Y-74387463D01*
X109612537Y-74526751D01*
X109776322Y-74636189D01*
X109958311Y-74711571D01*
X110151509Y-74750000D01*
X110348491Y-74750000D01*
X110541689Y-74711571D01*
X110723678Y-74636189D01*
X110887463Y-74526751D01*
X111026751Y-74387463D01*
X111136189Y-74223678D01*
X111211571Y-74041689D01*
X111250000Y-73848491D01*
X111250000Y-73651509D01*
X111211571Y-73458311D01*
X111136189Y-73276322D01*
X111026751Y-73112537D01*
X110887463Y-72973249D01*
X110723678Y-72863811D01*
X110541689Y-72788429D01*
X110348491Y-72750000D01*
X110151509Y-72750000D01*
X109958311Y-72788429D01*
X109776322Y-72863811D01*
X109612537Y-72973249D01*
X109473249Y-73112537D01*
X109363811Y-73276322D01*
X109350000Y-73309665D01*
X109350000Y-72401509D01*
X124500000Y-72401509D01*
X124500000Y-72598491D01*
X124538429Y-72791689D01*
X124613811Y-72973678D01*
X124723249Y-73137463D01*
X124862537Y-73276751D01*
X125026322Y-73386189D01*
X125208311Y-73461571D01*
X125401509Y-73500000D01*
X125598491Y-73500000D01*
X125791689Y-73461571D01*
X125973678Y-73386189D01*
X126137463Y-73276751D01*
X126276751Y-73137463D01*
X126386189Y-72973678D01*
X126461571Y-72791689D01*
X126500000Y-72598491D01*
X126500000Y-72401509D01*
X126461571Y-72208311D01*
X126386189Y-72026322D01*
X126276751Y-71862537D01*
X126137463Y-71723249D01*
X125973678Y-71613811D01*
X125791689Y-71538429D01*
X125598491Y-71500000D01*
X125401509Y-71500000D01*
X125208311Y-71538429D01*
X125026322Y-71613811D01*
X124862537Y-71723249D01*
X124723249Y-71862537D01*
X124613811Y-72026322D01*
X124538429Y-72208311D01*
X124500000Y-72401509D01*
X109350000Y-72401509D01*
X109350000Y-71350000D01*
X116448217Y-71350000D01*
X116473249Y-71387463D01*
X116612537Y-71526751D01*
X116776322Y-71636189D01*
X116958311Y-71711571D01*
X117151509Y-71750000D01*
X117348491Y-71750000D01*
X117541689Y-71711571D01*
X117723678Y-71636189D01*
X117887463Y-71526751D01*
X118026751Y-71387463D01*
X118051783Y-71350000D01*
X123750000Y-71350000D01*
X123769509Y-71348079D01*
X123788268Y-71342388D01*
X123805557Y-71333147D01*
X123820711Y-71320711D01*
X123833147Y-71305557D01*
X123842388Y-71288268D01*
X123848079Y-71269509D01*
X123850000Y-71250000D01*
X123850000Y-70151509D01*
X129250000Y-70151509D01*
X129250000Y-70348491D01*
X129288429Y-70541689D01*
X129363811Y-70723678D01*
X129473249Y-70887463D01*
X129612537Y-71026751D01*
X129776322Y-71136189D01*
X129958311Y-71211571D01*
X130133758Y-71246469D01*
X130113811Y-71276322D01*
X130038429Y-71458311D01*
X130000000Y-71651509D01*
X130000000Y-71848491D01*
X130038429Y-72041689D01*
X130113811Y-72223678D01*
X130223249Y-72387463D01*
X130362537Y-72526751D01*
X130526322Y-72636189D01*
X130708311Y-72711571D01*
X130901509Y-72750000D01*
X131098491Y-72750000D01*
X131291689Y-72711571D01*
X131473678Y-72636189D01*
X131637463Y-72526751D01*
X131776751Y-72387463D01*
X131886189Y-72223678D01*
X131961571Y-72041689D01*
X132000000Y-71848491D01*
X132000000Y-71651509D01*
X131961571Y-71458311D01*
X131886189Y-71276322D01*
X131866242Y-71246469D01*
X132041689Y-71211571D01*
X132223678Y-71136189D01*
X132387463Y-71026751D01*
X132526751Y-70887463D01*
X132636189Y-70723678D01*
X132711571Y-70541689D01*
X132750000Y-70348491D01*
X132750000Y-70151509D01*
X132711571Y-69958311D01*
X132636189Y-69776322D01*
X132526751Y-69612537D01*
X132387463Y-69473249D01*
X132223678Y-69363811D01*
X132041689Y-69288429D01*
X131848491Y-69250000D01*
X131651509Y-69250000D01*
X131458311Y-69288429D01*
X131276322Y-69363811D01*
X131112537Y-69473249D01*
X131000000Y-69585786D01*
X130887463Y-69473249D01*
X130723678Y-69363811D01*
X130541689Y-69288429D01*
X130348491Y-69250000D01*
X130151509Y-69250000D01*
X129958311Y-69288429D01*
X129776322Y-69363811D01*
X129612537Y-69473249D01*
X129473249Y-69612537D01*
X129363811Y-69776322D01*
X129288429Y-69958311D01*
X129250000Y-70151509D01*
X123850000Y-70151509D01*
X123850000Y-67277838D01*
X123886189Y-67223678D01*
X123916082Y-67151509D01*
X133500000Y-67151509D01*
X133500000Y-67348491D01*
X133538429Y-67541689D01*
X133613811Y-67723678D01*
X133723249Y-67887463D01*
X133862537Y-68026751D01*
X134026322Y-68136189D01*
X134208311Y-68211571D01*
X134401509Y-68250000D01*
X134598491Y-68250000D01*
X134791689Y-68211571D01*
X134973678Y-68136189D01*
X135137463Y-68026751D01*
X135276751Y-67887463D01*
X135386189Y-67723678D01*
X135461571Y-67541689D01*
X135500000Y-67348491D01*
X135500000Y-67151509D01*
X135461571Y-66958311D01*
X135386189Y-66776322D01*
X135276751Y-66612537D01*
X135137463Y-66473249D01*
X134973678Y-66363811D01*
X134791689Y-66288429D01*
X134598491Y-66250000D01*
X134401509Y-66250000D01*
X134208311Y-66288429D01*
X134026322Y-66363811D01*
X133862537Y-66473249D01*
X133723249Y-66612537D01*
X133613811Y-66776322D01*
X133538429Y-66958311D01*
X133500000Y-67151509D01*
X123916082Y-67151509D01*
X123961571Y-67041689D01*
X124000000Y-66848491D01*
X124000000Y-66651509D01*
X123961571Y-66458311D01*
X123886189Y-66276322D01*
X123850000Y-66222162D01*
X123850000Y-65350000D01*
X130472162Y-65350000D01*
X130526322Y-65386189D01*
M02*
