G04 #@! TF.GenerationSoftware,KiCad,Pcbnew,(5.1.2-1)-1*
G04 #@! TF.CreationDate,2019-10-19T13:23:49+03:00*
G04 #@! TF.ProjectId,mag,6d61672e-6b69-4636-9164-5f7063625858,rev?*
G04 #@! TF.SameCoordinates,Original*
G04 #@! TF.FileFunction,Legend,Top*
G04 #@! TF.FilePolarity,Positive*
%FSLAX46Y46*%
G04 Gerber Fmt 4.6, Leading zero omitted, Abs format (unit mm)*
G04 Created by KiCad (PCBNEW (5.1.2-1)-1) date 2019-10-19 13:23:49*
%MOMM*%
%LPD*%
G04 APERTURE LIST*
%ADD10C,0.200000*%
%ADD11C,0.010000*%
%ADD12C,0.300000*%
%ADD13C,0.250000*%
G04 APERTURE END LIST*
D10*
X103452380Y-71642857D02*
X102785714Y-71642857D01*
X102880952Y-71642857D02*
X102833333Y-71595238D01*
X102785714Y-71500000D01*
X102785714Y-71357142D01*
X102833333Y-71261904D01*
X102928571Y-71214285D01*
X103452380Y-71214285D01*
X102928571Y-71214285D02*
X102833333Y-71166666D01*
X102785714Y-71071428D01*
X102785714Y-70928571D01*
X102833333Y-70833333D01*
X102928571Y-70785714D01*
X103452380Y-70785714D01*
X103452380Y-69880952D02*
X102928571Y-69880952D01*
X102833333Y-69928571D01*
X102785714Y-70023809D01*
X102785714Y-70214285D01*
X102833333Y-70309523D01*
X103404761Y-69880952D02*
X103452380Y-69976190D01*
X103452380Y-70214285D01*
X103404761Y-70309523D01*
X103309523Y-70357142D01*
X103214285Y-70357142D01*
X103119047Y-70309523D01*
X103071428Y-70214285D01*
X103071428Y-69976190D01*
X103023809Y-69880952D01*
X102785714Y-68976190D02*
X103595238Y-68976190D01*
X103690476Y-69023809D01*
X103738095Y-69071428D01*
X103785714Y-69166666D01*
X103785714Y-69309523D01*
X103738095Y-69404761D01*
X103404761Y-68976190D02*
X103452380Y-69071428D01*
X103452380Y-69261904D01*
X103404761Y-69357142D01*
X103357142Y-69404761D01*
X103261904Y-69452380D01*
X102976190Y-69452380D01*
X102880952Y-69404761D01*
X102833333Y-69357142D01*
X102785714Y-69261904D01*
X102785714Y-69071428D01*
X102833333Y-68976190D01*
X103357142Y-68500000D02*
X103404761Y-68452380D01*
X103452380Y-68500000D01*
X103404761Y-68547619D01*
X103357142Y-68500000D01*
X103452380Y-68500000D01*
X103452380Y-67500000D02*
X103452380Y-68071428D01*
X103452380Y-67785714D02*
X102452380Y-67785714D01*
X102595238Y-67880952D01*
X102690476Y-67976190D01*
X102738095Y-68071428D01*
X103833333Y-66785714D02*
X103785714Y-66833333D01*
X103642857Y-66928571D01*
X103547619Y-66976190D01*
X103404761Y-67023809D01*
X103166666Y-67071428D01*
X102976190Y-67071428D01*
X102738095Y-67023809D01*
X102595238Y-66976190D01*
X102500000Y-66928571D01*
X102357142Y-66833333D01*
X102309523Y-66785714D01*
X103452380Y-65880952D02*
X103452380Y-66452380D01*
X103452380Y-66166666D02*
X102452380Y-66166666D01*
X102595238Y-66261904D01*
X102690476Y-66357142D01*
X102738095Y-66452380D01*
X102452380Y-65261904D02*
X102452380Y-65166666D01*
X102500000Y-65071428D01*
X102547619Y-65023809D01*
X102642857Y-64976190D01*
X102833333Y-64928571D01*
X103071428Y-64928571D01*
X103261904Y-64976190D01*
X103357142Y-65023809D01*
X103404761Y-65071428D01*
X103452380Y-65166666D01*
X103452380Y-65261904D01*
X103404761Y-65357142D01*
X103357142Y-65404761D01*
X103261904Y-65452380D01*
X103071428Y-65500000D01*
X102833333Y-65500000D01*
X102642857Y-65452380D01*
X102547619Y-65404761D01*
X102500000Y-65357142D01*
X102452380Y-65261904D01*
X102404761Y-63785714D02*
X103690476Y-64642857D01*
X103452380Y-62928571D02*
X103452380Y-63500000D01*
X103452380Y-63214285D02*
X102452380Y-63214285D01*
X102595238Y-63309523D01*
X102690476Y-63404761D01*
X102738095Y-63500000D01*
X103452380Y-62452380D02*
X103452380Y-62261904D01*
X103404761Y-62166666D01*
X103357142Y-62119047D01*
X103214285Y-62023809D01*
X103023809Y-61976190D01*
X102642857Y-61976190D01*
X102547619Y-62023809D01*
X102500000Y-62071428D01*
X102452380Y-62166666D01*
X102452380Y-62357142D01*
X102500000Y-62452380D01*
X102547619Y-62500000D01*
X102642857Y-62547619D01*
X102880952Y-62547619D01*
X102976190Y-62500000D01*
X103023809Y-62452380D01*
X103071428Y-62357142D01*
X103071428Y-62166666D01*
X103023809Y-62071428D01*
X102976190Y-62023809D01*
X102880952Y-61976190D01*
X103833333Y-61642857D02*
X103785714Y-61595238D01*
X103642857Y-61500000D01*
X103547619Y-61452380D01*
X103404761Y-61404761D01*
X103166666Y-61357142D01*
X102976190Y-61357142D01*
X102738095Y-61404761D01*
X102595238Y-61452380D01*
X102500000Y-61500000D01*
X102357142Y-61595238D01*
X102309523Y-61642857D01*
X112000000Y-77261904D02*
X111952380Y-77357142D01*
X111952380Y-77500000D01*
X112000000Y-77642857D01*
X112095238Y-77738095D01*
X112190476Y-77785714D01*
X112380952Y-77833333D01*
X112523809Y-77833333D01*
X112714285Y-77785714D01*
X112809523Y-77738095D01*
X112904761Y-77642857D01*
X112952380Y-77500000D01*
X112952380Y-77404761D01*
X112904761Y-77261904D01*
X112857142Y-77214285D01*
X112523809Y-77214285D01*
X112523809Y-77404761D01*
X112952380Y-76785714D02*
X111952380Y-76785714D01*
X112952380Y-76214285D01*
X111952380Y-76214285D01*
X112952380Y-75738095D02*
X111952380Y-75738095D01*
X111952380Y-75500000D01*
X112000000Y-75357142D01*
X112095238Y-75261904D01*
X112190476Y-75214285D01*
X112380952Y-75166666D01*
X112523809Y-75166666D01*
X112714285Y-75214285D01*
X112809523Y-75261904D01*
X112904761Y-75357142D01*
X112952380Y-75500000D01*
X112952380Y-75738095D01*
X109452380Y-77833333D02*
X110452380Y-77500000D01*
X109452380Y-77166666D01*
X110357142Y-76261904D02*
X110404761Y-76309523D01*
X110452380Y-76452380D01*
X110452380Y-76547619D01*
X110404761Y-76690476D01*
X110309523Y-76785714D01*
X110214285Y-76833333D01*
X110023809Y-76880952D01*
X109880952Y-76880952D01*
X109690476Y-76833333D01*
X109595238Y-76785714D01*
X109500000Y-76690476D01*
X109452380Y-76547619D01*
X109452380Y-76452380D01*
X109500000Y-76309523D01*
X109547619Y-76261904D01*
X110357142Y-75261904D02*
X110404761Y-75309523D01*
X110452380Y-75452380D01*
X110452380Y-75547619D01*
X110404761Y-75690476D01*
X110309523Y-75785714D01*
X110214285Y-75833333D01*
X110023809Y-75880952D01*
X109880952Y-75880952D01*
X109690476Y-75833333D01*
X109595238Y-75785714D01*
X109500000Y-75690476D01*
X109452380Y-75547619D01*
X109452380Y-75452380D01*
X109500000Y-75309523D01*
X109547619Y-75261904D01*
X107904761Y-77690476D02*
X107952380Y-77547619D01*
X107952380Y-77309523D01*
X107904761Y-77214285D01*
X107857142Y-77166666D01*
X107761904Y-77119047D01*
X107666666Y-77119047D01*
X107571428Y-77166666D01*
X107523809Y-77214285D01*
X107476190Y-77309523D01*
X107428571Y-77500000D01*
X107380952Y-77595238D01*
X107333333Y-77642857D01*
X107238095Y-77690476D01*
X107142857Y-77690476D01*
X107047619Y-77642857D01*
X107000000Y-77595238D01*
X106952380Y-77500000D01*
X106952380Y-77261904D01*
X107000000Y-77119047D01*
X107857142Y-76119047D02*
X107904761Y-76166666D01*
X107952380Y-76309523D01*
X107952380Y-76404761D01*
X107904761Y-76547619D01*
X107809523Y-76642857D01*
X107714285Y-76690476D01*
X107523809Y-76738095D01*
X107380952Y-76738095D01*
X107190476Y-76690476D01*
X107095238Y-76642857D01*
X107000000Y-76547619D01*
X106952380Y-76404761D01*
X106952380Y-76309523D01*
X107000000Y-76166666D01*
X107047619Y-76119047D01*
X107952380Y-75214285D02*
X107952380Y-75690476D01*
X106952380Y-75690476D01*
X105404761Y-77714285D02*
X105452380Y-77571428D01*
X105452380Y-77333333D01*
X105404761Y-77238095D01*
X105357142Y-77190476D01*
X105261904Y-77142857D01*
X105166666Y-77142857D01*
X105071428Y-77190476D01*
X105023809Y-77238095D01*
X104976190Y-77333333D01*
X104928571Y-77523809D01*
X104880952Y-77619047D01*
X104833333Y-77666666D01*
X104738095Y-77714285D01*
X104642857Y-77714285D01*
X104547619Y-77666666D01*
X104500000Y-77619047D01*
X104452380Y-77523809D01*
X104452380Y-77285714D01*
X104500000Y-77142857D01*
X105452380Y-76714285D02*
X104452380Y-76714285D01*
X104452380Y-76476190D01*
X104500000Y-76333333D01*
X104595238Y-76238095D01*
X104690476Y-76190476D01*
X104880952Y-76142857D01*
X105023809Y-76142857D01*
X105214285Y-76190476D01*
X105309523Y-76238095D01*
X105404761Y-76333333D01*
X105452380Y-76476190D01*
X105452380Y-76714285D01*
X105166666Y-75761904D02*
X105166666Y-75285714D01*
X105452380Y-75857142D02*
X104452380Y-75523809D01*
X105452380Y-75190476D01*
D11*
G36*
X154720324Y-68098698D02*
G01*
X154898495Y-68168494D01*
X155054011Y-68285818D01*
X155148448Y-68413742D01*
X155200590Y-68537662D01*
X155239056Y-68667833D01*
X155259253Y-68781150D01*
X155256585Y-68854507D01*
X155239122Y-68869754D01*
X155183697Y-68850816D01*
X155077398Y-68804895D01*
X154967158Y-68753337D01*
X154812385Y-68681986D01*
X154616731Y-68596328D01*
X154418159Y-68512920D01*
X154384630Y-68499260D01*
X154233275Y-68432806D01*
X154121046Y-68373576D01*
X154064221Y-68330657D01*
X154061261Y-68318738D01*
X154124740Y-68264748D01*
X154240732Y-68201052D01*
X154380327Y-68141154D01*
X154514618Y-68098560D01*
X154547636Y-68091519D01*
X154720324Y-68098698D01*
X154720324Y-68098698D01*
G37*
X154720324Y-68098698D02*
X154898495Y-68168494D01*
X155054011Y-68285818D01*
X155148448Y-68413742D01*
X155200590Y-68537662D01*
X155239056Y-68667833D01*
X155259253Y-68781150D01*
X155256585Y-68854507D01*
X155239122Y-68869754D01*
X155183697Y-68850816D01*
X155077398Y-68804895D01*
X154967158Y-68753337D01*
X154812385Y-68681986D01*
X154616731Y-68596328D01*
X154418159Y-68512920D01*
X154384630Y-68499260D01*
X154233275Y-68432806D01*
X154121046Y-68373576D01*
X154064221Y-68330657D01*
X154061261Y-68318738D01*
X154124740Y-68264748D01*
X154240732Y-68201052D01*
X154380327Y-68141154D01*
X154514618Y-68098560D01*
X154547636Y-68091519D01*
X154720324Y-68098698D01*
G36*
X149877763Y-68088975D02*
G01*
X149995362Y-68158237D01*
X150087606Y-68275701D01*
X150147388Y-68423505D01*
X150167603Y-68583785D01*
X150141146Y-68738678D01*
X150060912Y-68870319D01*
X150055972Y-68875361D01*
X149939678Y-68948130D01*
X149814047Y-68938408D01*
X149728844Y-68891596D01*
X149613352Y-68769549D01*
X149532651Y-68607408D01*
X149508000Y-68470833D01*
X149535569Y-68321752D01*
X149606555Y-68188821D01*
X149703379Y-68100979D01*
X149741912Y-68085779D01*
X149877763Y-68088975D01*
X149877763Y-68088975D01*
G37*
X149877763Y-68088975D02*
X149995362Y-68158237D01*
X150087606Y-68275701D01*
X150147388Y-68423505D01*
X150167603Y-68583785D01*
X150141146Y-68738678D01*
X150060912Y-68870319D01*
X150055972Y-68875361D01*
X149939678Y-68948130D01*
X149814047Y-68938408D01*
X149728844Y-68891596D01*
X149613352Y-68769549D01*
X149532651Y-68607408D01*
X149508000Y-68470833D01*
X149535569Y-68321752D01*
X149606555Y-68188821D01*
X149703379Y-68100979D01*
X149741912Y-68085779D01*
X149877763Y-68088975D01*
G36*
X153960646Y-68507950D02*
G01*
X154074995Y-68552118D01*
X154239659Y-68618977D01*
X154440968Y-68703002D01*
X154607694Y-68773927D01*
X154848781Y-68878093D01*
X155022611Y-68956310D01*
X155140103Y-69015146D01*
X155212173Y-69061168D01*
X155249740Y-69100945D01*
X155263721Y-69141042D01*
X155265334Y-69169533D01*
X155224167Y-69302543D01*
X155103201Y-69416966D01*
X155069537Y-69437292D01*
X155028378Y-69418062D01*
X154984269Y-69324559D01*
X154968772Y-69274353D01*
X154915638Y-69084577D01*
X154778573Y-69169288D01*
X154685305Y-69223982D01*
X154626990Y-69252722D01*
X154621454Y-69254000D01*
X154598253Y-69217607D01*
X154563783Y-69126183D01*
X154549859Y-69081965D01*
X154498316Y-68909930D01*
X154346087Y-68999748D01*
X154226848Y-69051976D01*
X154154917Y-69036168D01*
X154124286Y-68950055D01*
X154122334Y-68915333D01*
X154101783Y-68810557D01*
X154041694Y-68776336D01*
X153935784Y-68810368D01*
X153896071Y-68832398D01*
X153741334Y-68923696D01*
X153741334Y-68832745D01*
X153759154Y-68735546D01*
X153802583Y-68626191D01*
X153856572Y-68535032D01*
X153906071Y-68492422D01*
X153910281Y-68492000D01*
X153960646Y-68507950D01*
X153960646Y-68507950D01*
G37*
X153960646Y-68507950D02*
X154074995Y-68552118D01*
X154239659Y-68618977D01*
X154440968Y-68703002D01*
X154607694Y-68773927D01*
X154848781Y-68878093D01*
X155022611Y-68956310D01*
X155140103Y-69015146D01*
X155212173Y-69061168D01*
X155249740Y-69100945D01*
X155263721Y-69141042D01*
X155265334Y-69169533D01*
X155224167Y-69302543D01*
X155103201Y-69416966D01*
X155069537Y-69437292D01*
X155028378Y-69418062D01*
X154984269Y-69324559D01*
X154968772Y-69274353D01*
X154915638Y-69084577D01*
X154778573Y-69169288D01*
X154685305Y-69223982D01*
X154626990Y-69252722D01*
X154621454Y-69254000D01*
X154598253Y-69217607D01*
X154563783Y-69126183D01*
X154549859Y-69081965D01*
X154498316Y-68909930D01*
X154346087Y-68999748D01*
X154226848Y-69051976D01*
X154154917Y-69036168D01*
X154124286Y-68950055D01*
X154122334Y-68915333D01*
X154101783Y-68810557D01*
X154041694Y-68776336D01*
X153935784Y-68810368D01*
X153896071Y-68832398D01*
X153741334Y-68923696D01*
X153741334Y-68832745D01*
X153759154Y-68735546D01*
X153802583Y-68626191D01*
X153856572Y-68535032D01*
X153906071Y-68492422D01*
X153910281Y-68492000D01*
X153960646Y-68507950D01*
G36*
X153989920Y-69036904D02*
G01*
X154015225Y-69127790D01*
X154019381Y-69148634D01*
X154053993Y-69273036D01*
X154105114Y-69319552D01*
X154186868Y-69294928D01*
X154245574Y-69256676D01*
X154333035Y-69198620D01*
X154387819Y-69169972D01*
X154391534Y-69169333D01*
X154413775Y-69206226D01*
X154438566Y-69297087D01*
X154442714Y-69317967D01*
X154474769Y-69438796D01*
X154523168Y-69485276D01*
X154606695Y-69465420D01*
X154686557Y-69422017D01*
X154833948Y-69335054D01*
X154862862Y-69506193D01*
X154892166Y-69625481D01*
X154937688Y-69670849D01*
X155016849Y-69653036D01*
X155063384Y-69629799D01*
X155152202Y-69582265D01*
X155068892Y-69724911D01*
X154977194Y-69842756D01*
X154887991Y-69882806D01*
X154819952Y-69854503D01*
X154760879Y-69820588D01*
X154648266Y-69769052D01*
X154524500Y-69718235D01*
X154199117Y-69586044D01*
X153937797Y-69469283D01*
X153744632Y-69370084D01*
X153623715Y-69290581D01*
X153579140Y-69232907D01*
X153579389Y-69225729D01*
X153600837Y-69173550D01*
X153614334Y-69171753D01*
X153659748Y-69162489D01*
X153748676Y-69118346D01*
X153788664Y-69094660D01*
X153888593Y-69036198D01*
X153955821Y-69002921D01*
X153966662Y-69000000D01*
X153989920Y-69036904D01*
X153989920Y-69036904D01*
G37*
X153989920Y-69036904D02*
X154015225Y-69127790D01*
X154019381Y-69148634D01*
X154053993Y-69273036D01*
X154105114Y-69319552D01*
X154186868Y-69294928D01*
X154245574Y-69256676D01*
X154333035Y-69198620D01*
X154387819Y-69169972D01*
X154391534Y-69169333D01*
X154413775Y-69206226D01*
X154438566Y-69297087D01*
X154442714Y-69317967D01*
X154474769Y-69438796D01*
X154523168Y-69485276D01*
X154606695Y-69465420D01*
X154686557Y-69422017D01*
X154833948Y-69335054D01*
X154862862Y-69506193D01*
X154892166Y-69625481D01*
X154937688Y-69670849D01*
X155016849Y-69653036D01*
X155063384Y-69629799D01*
X155152202Y-69582265D01*
X155068892Y-69724911D01*
X154977194Y-69842756D01*
X154887991Y-69882806D01*
X154819952Y-69854503D01*
X154760879Y-69820588D01*
X154648266Y-69769052D01*
X154524500Y-69718235D01*
X154199117Y-69586044D01*
X153937797Y-69469283D01*
X153744632Y-69370084D01*
X153623715Y-69290581D01*
X153579140Y-69232907D01*
X153579389Y-69225729D01*
X153600837Y-69173550D01*
X153614334Y-69171753D01*
X153659748Y-69162489D01*
X153748676Y-69118346D01*
X153788664Y-69094660D01*
X153888593Y-69036198D01*
X153955821Y-69002921D01*
X153966662Y-69000000D01*
X153989920Y-69036904D01*
G36*
X143680344Y-69906865D02*
G01*
X143773680Y-69918080D01*
X143847261Y-69936768D01*
X143852457Y-69938510D01*
X144033050Y-70041953D01*
X144156283Y-70203881D01*
X144196288Y-70316710D01*
X144222397Y-70426920D01*
X143679615Y-70454447D01*
X143436478Y-70467201D01*
X143188944Y-70480906D01*
X142967871Y-70493814D01*
X142819334Y-70503152D01*
X142587393Y-70507028D01*
X142407554Y-70486139D01*
X142355133Y-70471248D01*
X142236213Y-70399955D01*
X142124563Y-70287773D01*
X142043233Y-70162554D01*
X142015000Y-70060256D01*
X142024049Y-70035424D01*
X142058218Y-70015189D01*
X142128045Y-69997986D01*
X142244065Y-69982252D01*
X142416816Y-69966421D01*
X142656833Y-69948929D01*
X142851084Y-69936110D01*
X143152625Y-69917745D01*
X143382736Y-69906729D01*
X143554336Y-69903092D01*
X143680344Y-69906865D01*
X143680344Y-69906865D01*
G37*
X143680344Y-69906865D02*
X143773680Y-69918080D01*
X143847261Y-69936768D01*
X143852457Y-69938510D01*
X144033050Y-70041953D01*
X144156283Y-70203881D01*
X144196288Y-70316710D01*
X144222397Y-70426920D01*
X143679615Y-70454447D01*
X143436478Y-70467201D01*
X143188944Y-70480906D01*
X142967871Y-70493814D01*
X142819334Y-70503152D01*
X142587393Y-70507028D01*
X142407554Y-70486139D01*
X142355133Y-70471248D01*
X142236213Y-70399955D01*
X142124563Y-70287773D01*
X142043233Y-70162554D01*
X142015000Y-70060256D01*
X142024049Y-70035424D01*
X142058218Y-70015189D01*
X142128045Y-69997986D01*
X142244065Y-69982252D01*
X142416816Y-69966421D01*
X142656833Y-69948929D01*
X142851084Y-69936110D01*
X143152625Y-69917745D01*
X143382736Y-69906729D01*
X143554336Y-69903092D01*
X143680344Y-69906865D01*
G36*
X153625785Y-69535696D02*
G01*
X153736587Y-69572903D01*
X153899004Y-69635593D01*
X154100428Y-69718721D01*
X154328252Y-69817244D01*
X154555913Y-69919709D01*
X154686323Y-69981818D01*
X154751465Y-70023755D01*
X154763739Y-70059061D01*
X154735543Y-70101274D01*
X154728938Y-70108654D01*
X154642882Y-70171268D01*
X154519856Y-70227047D01*
X154493628Y-70235576D01*
X154433412Y-70254412D01*
X154383827Y-70276979D01*
X154339551Y-70312853D01*
X154295264Y-70371615D01*
X154245646Y-70462842D01*
X154185374Y-70596114D01*
X154109130Y-70781009D01*
X154011591Y-71027106D01*
X153910144Y-71286000D01*
X153813606Y-71529015D01*
X153724668Y-71746281D01*
X153648822Y-71924909D01*
X153591555Y-72052010D01*
X153558357Y-72114697D01*
X153556001Y-72117539D01*
X153437037Y-72186348D01*
X153305058Y-72182437D01*
X153242618Y-72151338D01*
X153162875Y-72046965D01*
X153148667Y-71961992D01*
X153163857Y-71886839D01*
X153206323Y-71746786D01*
X153271412Y-71555351D01*
X153354471Y-71326048D01*
X153450843Y-71072395D01*
X153485426Y-70983999D01*
X153822184Y-70129544D01*
X153744205Y-70019855D01*
X153690091Y-69923783D01*
X153637777Y-69799737D01*
X153596255Y-69674470D01*
X153574519Y-69574735D01*
X153579208Y-69529014D01*
X153625785Y-69535696D01*
X153625785Y-69535696D01*
G37*
X153625785Y-69535696D02*
X153736587Y-69572903D01*
X153899004Y-69635593D01*
X154100428Y-69718721D01*
X154328252Y-69817244D01*
X154555913Y-69919709D01*
X154686323Y-69981818D01*
X154751465Y-70023755D01*
X154763739Y-70059061D01*
X154735543Y-70101274D01*
X154728938Y-70108654D01*
X154642882Y-70171268D01*
X154519856Y-70227047D01*
X154493628Y-70235576D01*
X154433412Y-70254412D01*
X154383827Y-70276979D01*
X154339551Y-70312853D01*
X154295264Y-70371615D01*
X154245646Y-70462842D01*
X154185374Y-70596114D01*
X154109130Y-70781009D01*
X154011591Y-71027106D01*
X153910144Y-71286000D01*
X153813606Y-71529015D01*
X153724668Y-71746281D01*
X153648822Y-71924909D01*
X153591555Y-72052010D01*
X153558357Y-72114697D01*
X153556001Y-72117539D01*
X153437037Y-72186348D01*
X153305058Y-72182437D01*
X153242618Y-72151338D01*
X153162875Y-72046965D01*
X153148667Y-71961992D01*
X153163857Y-71886839D01*
X153206323Y-71746786D01*
X153271412Y-71555351D01*
X153354471Y-71326048D01*
X153450843Y-71072395D01*
X153485426Y-70983999D01*
X153822184Y-70129544D01*
X153744205Y-70019855D01*
X153690091Y-69923783D01*
X153637777Y-69799737D01*
X153596255Y-69674470D01*
X153574519Y-69574735D01*
X153579208Y-69529014D01*
X153625785Y-69535696D01*
G36*
X161831002Y-69043729D02*
G01*
X162092325Y-69098545D01*
X162206808Y-69134896D01*
X162276401Y-69169810D01*
X162298848Y-69215198D01*
X162271892Y-69282974D01*
X162193276Y-69385050D01*
X162060744Y-69533338D01*
X161996722Y-69603250D01*
X161839997Y-69764477D01*
X161725893Y-69857233D01*
X161649581Y-69883163D01*
X161606234Y-69843917D01*
X161591032Y-69741688D01*
X161550408Y-69576404D01*
X161437920Y-69453528D01*
X161255743Y-69374404D01*
X161006051Y-69340370D01*
X160938000Y-69339061D01*
X160720456Y-69371619D01*
X160554097Y-69466570D01*
X160445631Y-69619534D01*
X160426262Y-69673116D01*
X160398430Y-69843523D01*
X160429752Y-69985669D01*
X160525312Y-70103837D01*
X160690190Y-70202309D01*
X160929468Y-70285369D01*
X161235104Y-70354813D01*
X161533073Y-70421096D01*
X161754952Y-70494780D01*
X161909304Y-70581825D01*
X162004695Y-70688193D01*
X162049687Y-70819846D01*
X162055879Y-70926181D01*
X162009741Y-71148189D01*
X161884693Y-71368947D01*
X161686368Y-71582633D01*
X161420400Y-71783424D01*
X161092422Y-71965497D01*
X161016162Y-72000825D01*
X160727011Y-72116548D01*
X160470667Y-72182920D01*
X160221779Y-72201423D01*
X159954991Y-72173540D01*
X159644953Y-72100752D01*
X159587285Y-72084356D01*
X159308167Y-72003482D01*
X159199251Y-72131574D01*
X159105944Y-72229465D01*
X159051809Y-72255883D01*
X159033277Y-72212443D01*
X159033221Y-72206750D01*
X159058082Y-72155611D01*
X159126132Y-72051917D01*
X159227830Y-71909351D01*
X159353633Y-71741598D01*
X159394835Y-71688166D01*
X159576818Y-71460774D01*
X159714390Y-71304916D01*
X159807925Y-71220275D01*
X159857799Y-71206534D01*
X159864387Y-71263376D01*
X159857308Y-71296846D01*
X159872768Y-71400054D01*
X159959666Y-71512072D01*
X160106861Y-71623009D01*
X160303216Y-71722974D01*
X160364618Y-71747326D01*
X160636650Y-71820566D01*
X160873957Y-71826578D01*
X161070171Y-71767248D01*
X161218926Y-71644460D01*
X161311760Y-71466804D01*
X161342968Y-71304921D01*
X161319198Y-71171645D01*
X161234480Y-71061823D01*
X161082846Y-70970304D01*
X160858326Y-70891935D01*
X160567046Y-70823963D01*
X160245004Y-70749134D01*
X160001494Y-70666008D01*
X159830431Y-70569156D01*
X159725730Y-70453150D01*
X159681305Y-70312561D01*
X159691072Y-70141962D01*
X159710026Y-70059476D01*
X159801192Y-69862774D01*
X159962454Y-69663576D01*
X160180342Y-69473022D01*
X160441391Y-69302251D01*
X160732133Y-69162401D01*
X160845271Y-69120474D01*
X161151106Y-69049074D01*
X161491933Y-69023277D01*
X161831002Y-69043729D01*
X161831002Y-69043729D01*
G37*
X161831002Y-69043729D02*
X162092325Y-69098545D01*
X162206808Y-69134896D01*
X162276401Y-69169810D01*
X162298848Y-69215198D01*
X162271892Y-69282974D01*
X162193276Y-69385050D01*
X162060744Y-69533338D01*
X161996722Y-69603250D01*
X161839997Y-69764477D01*
X161725893Y-69857233D01*
X161649581Y-69883163D01*
X161606234Y-69843917D01*
X161591032Y-69741688D01*
X161550408Y-69576404D01*
X161437920Y-69453528D01*
X161255743Y-69374404D01*
X161006051Y-69340370D01*
X160938000Y-69339061D01*
X160720456Y-69371619D01*
X160554097Y-69466570D01*
X160445631Y-69619534D01*
X160426262Y-69673116D01*
X160398430Y-69843523D01*
X160429752Y-69985669D01*
X160525312Y-70103837D01*
X160690190Y-70202309D01*
X160929468Y-70285369D01*
X161235104Y-70354813D01*
X161533073Y-70421096D01*
X161754952Y-70494780D01*
X161909304Y-70581825D01*
X162004695Y-70688193D01*
X162049687Y-70819846D01*
X162055879Y-70926181D01*
X162009741Y-71148189D01*
X161884693Y-71368947D01*
X161686368Y-71582633D01*
X161420400Y-71783424D01*
X161092422Y-71965497D01*
X161016162Y-72000825D01*
X160727011Y-72116548D01*
X160470667Y-72182920D01*
X160221779Y-72201423D01*
X159954991Y-72173540D01*
X159644953Y-72100752D01*
X159587285Y-72084356D01*
X159308167Y-72003482D01*
X159199251Y-72131574D01*
X159105944Y-72229465D01*
X159051809Y-72255883D01*
X159033277Y-72212443D01*
X159033221Y-72206750D01*
X159058082Y-72155611D01*
X159126132Y-72051917D01*
X159227830Y-71909351D01*
X159353633Y-71741598D01*
X159394835Y-71688166D01*
X159576818Y-71460774D01*
X159714390Y-71304916D01*
X159807925Y-71220275D01*
X159857799Y-71206534D01*
X159864387Y-71263376D01*
X159857308Y-71296846D01*
X159872768Y-71400054D01*
X159959666Y-71512072D01*
X160106861Y-71623009D01*
X160303216Y-71722974D01*
X160364618Y-71747326D01*
X160636650Y-71820566D01*
X160873957Y-71826578D01*
X161070171Y-71767248D01*
X161218926Y-71644460D01*
X161311760Y-71466804D01*
X161342968Y-71304921D01*
X161319198Y-71171645D01*
X161234480Y-71061823D01*
X161082846Y-70970304D01*
X160858326Y-70891935D01*
X160567046Y-70823963D01*
X160245004Y-70749134D01*
X160001494Y-70666008D01*
X159830431Y-70569156D01*
X159725730Y-70453150D01*
X159681305Y-70312561D01*
X159691072Y-70141962D01*
X159710026Y-70059476D01*
X159801192Y-69862774D01*
X159962454Y-69663576D01*
X160180342Y-69473022D01*
X160441391Y-69302251D01*
X160732133Y-69162401D01*
X160845271Y-69120474D01*
X161151106Y-69049074D01*
X161491933Y-69023277D01*
X161831002Y-69043729D01*
G36*
X156961416Y-67430694D02*
G01*
X157007688Y-67523535D01*
X157030218Y-67663613D01*
X157026136Y-67838908D01*
X156992575Y-68037398D01*
X156971639Y-68115920D01*
X156887832Y-68400505D01*
X157027836Y-68426770D01*
X157148426Y-68469702D01*
X157270880Y-68544087D01*
X157370316Y-68630983D01*
X157421850Y-68711449D01*
X157424334Y-68728596D01*
X157406027Y-68784079D01*
X157392584Y-68790760D01*
X157337972Y-68794009D01*
X157221384Y-68800464D01*
X157065393Y-68808880D01*
X157022167Y-68811183D01*
X156840990Y-68824773D01*
X156724083Y-68845600D01*
X156651076Y-68878833D01*
X156612837Y-68915055D01*
X156567406Y-68982648D01*
X156489720Y-69111292D01*
X156387401Y-69287352D01*
X156268074Y-69497194D01*
X156139364Y-69727182D01*
X156008895Y-69963684D01*
X155884292Y-70193062D01*
X155773179Y-70401684D01*
X155683179Y-70575914D01*
X155674997Y-70592192D01*
X155510051Y-70958400D01*
X155402760Y-71281389D01*
X155353354Y-71557715D01*
X155362061Y-71783936D01*
X155429112Y-71956609D01*
X155554736Y-72072293D01*
X155575701Y-72083120D01*
X155726508Y-72109937D01*
X155899355Y-72061161D01*
X156087737Y-71940908D01*
X156285148Y-71753294D01*
X156386129Y-71627131D01*
X157198233Y-71627131D01*
X157219760Y-71804590D01*
X157275091Y-71919811D01*
X157394659Y-71992704D01*
X157551566Y-71994624D01*
X157737885Y-71926148D01*
X157817089Y-71880311D01*
X158008270Y-71722639D01*
X158205394Y-71492099D01*
X158400541Y-71199347D01*
X158585795Y-70855039D01*
X158598390Y-70828859D01*
X158786336Y-70435218D01*
X158597475Y-70257359D01*
X158421449Y-70064962D01*
X158308955Y-69871011D01*
X158249312Y-69677643D01*
X158237887Y-69624660D01*
X158655721Y-69624660D01*
X158659048Y-69771473D01*
X158689610Y-69920147D01*
X158720324Y-69999018D01*
X158781765Y-70107648D01*
X158827410Y-70134561D01*
X158862220Y-70080120D01*
X158879542Y-70010708D01*
X158901717Y-69842788D01*
X158906116Y-69670631D01*
X158894036Y-69519192D01*
X158866775Y-69413424D01*
X158846985Y-69384722D01*
X158775261Y-69359737D01*
X158717217Y-69402356D01*
X158676240Y-69496143D01*
X158655721Y-69624660D01*
X158237887Y-69624660D01*
X158217427Y-69529787D01*
X157979630Y-69789450D01*
X157716926Y-70112384D01*
X157513069Y-70450705D01*
X157349278Y-70836174D01*
X157332618Y-70883638D01*
X157255534Y-71150956D01*
X157210448Y-71404020D01*
X157198233Y-71627131D01*
X156386129Y-71627131D01*
X156478331Y-71511937D01*
X156592678Y-71337777D01*
X156665808Y-71182270D01*
X156715607Y-71003442D01*
X156733556Y-70912972D01*
X156827361Y-70564551D01*
X156976275Y-70204129D01*
X157165900Y-69859986D01*
X157381842Y-69560402D01*
X157474794Y-69456863D01*
X157718602Y-69238013D01*
X157970234Y-69072348D01*
X158217885Y-68964716D01*
X158449752Y-68919966D01*
X158654031Y-68942947D01*
X158692174Y-68956772D01*
X158780084Y-69014772D01*
X158900122Y-69121391D01*
X159033970Y-69257248D01*
X159163312Y-69402962D01*
X159269831Y-69539152D01*
X159325733Y-69627138D01*
X159352128Y-69718940D01*
X159370471Y-69863154D01*
X159376631Y-70018721D01*
X159377679Y-70172639D01*
X159386525Y-70260437D01*
X159409887Y-70300656D01*
X159454486Y-70311836D01*
X159483046Y-70312333D01*
X159560377Y-70330832D01*
X159566886Y-70377280D01*
X159505537Y-70438108D01*
X159448475Y-70470589D01*
X159377981Y-70527423D01*
X159310678Y-70634675D01*
X159237505Y-70807407D01*
X159224108Y-70843606D01*
X159065209Y-71200825D01*
X158862127Y-71534355D01*
X158627169Y-71828572D01*
X158372640Y-72067852D01*
X158137625Y-72222996D01*
X157882764Y-72311748D01*
X157620983Y-72323196D01*
X157367693Y-72261702D01*
X157138302Y-72131632D01*
X156948221Y-71937351D01*
X156905351Y-71873991D01*
X156776359Y-71666487D01*
X156537542Y-71894280D01*
X156393262Y-72020905D01*
X156242567Y-72135786D01*
X156117569Y-72214484D01*
X156115294Y-72215653D01*
X155897287Y-72295934D01*
X155666925Y-72329228D01*
X155454417Y-72312994D01*
X155351260Y-72279888D01*
X155135856Y-72145735D01*
X154985624Y-71964413D01*
X154897414Y-71730408D01*
X154868072Y-71438204D01*
X154868065Y-71434166D01*
X154873511Y-71284479D01*
X154892787Y-71136274D01*
X154929923Y-70978364D01*
X154988951Y-70799560D01*
X155073901Y-70588675D01*
X155188805Y-70334520D01*
X155337694Y-70025908D01*
X155474372Y-69751416D01*
X155610912Y-69478178D01*
X155712127Y-69271180D01*
X155781564Y-69121446D01*
X155822771Y-69020002D01*
X155839295Y-68957872D01*
X155834686Y-68926081D01*
X155812489Y-68915654D01*
X155804867Y-68915333D01*
X155700725Y-68895089D01*
X155571762Y-68844309D01*
X155447535Y-68777922D01*
X155357598Y-68710856D01*
X155332479Y-68676734D01*
X155320304Y-68611635D01*
X155351376Y-68569360D01*
X155437304Y-68545461D01*
X155589699Y-68535491D01*
X155704241Y-68534333D01*
X155905087Y-68527420D01*
X156049640Y-68507935D01*
X156119171Y-68481416D01*
X156165009Y-68426182D01*
X156242829Y-68313498D01*
X156342174Y-68159182D01*
X156452591Y-67979049D01*
X156465085Y-67958133D01*
X156575925Y-67776138D01*
X156676617Y-67618186D01*
X156756769Y-67500086D01*
X156805990Y-67437645D01*
X156809118Y-67434813D01*
X156894270Y-67397113D01*
X156961416Y-67430694D01*
X156961416Y-67430694D01*
G37*
X156961416Y-67430694D02*
X157007688Y-67523535D01*
X157030218Y-67663613D01*
X157026136Y-67838908D01*
X156992575Y-68037398D01*
X156971639Y-68115920D01*
X156887832Y-68400505D01*
X157027836Y-68426770D01*
X157148426Y-68469702D01*
X157270880Y-68544087D01*
X157370316Y-68630983D01*
X157421850Y-68711449D01*
X157424334Y-68728596D01*
X157406027Y-68784079D01*
X157392584Y-68790760D01*
X157337972Y-68794009D01*
X157221384Y-68800464D01*
X157065393Y-68808880D01*
X157022167Y-68811183D01*
X156840990Y-68824773D01*
X156724083Y-68845600D01*
X156651076Y-68878833D01*
X156612837Y-68915055D01*
X156567406Y-68982648D01*
X156489720Y-69111292D01*
X156387401Y-69287352D01*
X156268074Y-69497194D01*
X156139364Y-69727182D01*
X156008895Y-69963684D01*
X155884292Y-70193062D01*
X155773179Y-70401684D01*
X155683179Y-70575914D01*
X155674997Y-70592192D01*
X155510051Y-70958400D01*
X155402760Y-71281389D01*
X155353354Y-71557715D01*
X155362061Y-71783936D01*
X155429112Y-71956609D01*
X155554736Y-72072293D01*
X155575701Y-72083120D01*
X155726508Y-72109937D01*
X155899355Y-72061161D01*
X156087737Y-71940908D01*
X156285148Y-71753294D01*
X156386129Y-71627131D01*
X157198233Y-71627131D01*
X157219760Y-71804590D01*
X157275091Y-71919811D01*
X157394659Y-71992704D01*
X157551566Y-71994624D01*
X157737885Y-71926148D01*
X157817089Y-71880311D01*
X158008270Y-71722639D01*
X158205394Y-71492099D01*
X158400541Y-71199347D01*
X158585795Y-70855039D01*
X158598390Y-70828859D01*
X158786336Y-70435218D01*
X158597475Y-70257359D01*
X158421449Y-70064962D01*
X158308955Y-69871011D01*
X158249312Y-69677643D01*
X158237887Y-69624660D01*
X158655721Y-69624660D01*
X158659048Y-69771473D01*
X158689610Y-69920147D01*
X158720324Y-69999018D01*
X158781765Y-70107648D01*
X158827410Y-70134561D01*
X158862220Y-70080120D01*
X158879542Y-70010708D01*
X158901717Y-69842788D01*
X158906116Y-69670631D01*
X158894036Y-69519192D01*
X158866775Y-69413424D01*
X158846985Y-69384722D01*
X158775261Y-69359737D01*
X158717217Y-69402356D01*
X158676240Y-69496143D01*
X158655721Y-69624660D01*
X158237887Y-69624660D01*
X158217427Y-69529787D01*
X157979630Y-69789450D01*
X157716926Y-70112384D01*
X157513069Y-70450705D01*
X157349278Y-70836174D01*
X157332618Y-70883638D01*
X157255534Y-71150956D01*
X157210448Y-71404020D01*
X157198233Y-71627131D01*
X156386129Y-71627131D01*
X156478331Y-71511937D01*
X156592678Y-71337777D01*
X156665808Y-71182270D01*
X156715607Y-71003442D01*
X156733556Y-70912972D01*
X156827361Y-70564551D01*
X156976275Y-70204129D01*
X157165900Y-69859986D01*
X157381842Y-69560402D01*
X157474794Y-69456863D01*
X157718602Y-69238013D01*
X157970234Y-69072348D01*
X158217885Y-68964716D01*
X158449752Y-68919966D01*
X158654031Y-68942947D01*
X158692174Y-68956772D01*
X158780084Y-69014772D01*
X158900122Y-69121391D01*
X159033970Y-69257248D01*
X159163312Y-69402962D01*
X159269831Y-69539152D01*
X159325733Y-69627138D01*
X159352128Y-69718940D01*
X159370471Y-69863154D01*
X159376631Y-70018721D01*
X159377679Y-70172639D01*
X159386525Y-70260437D01*
X159409887Y-70300656D01*
X159454486Y-70311836D01*
X159483046Y-70312333D01*
X159560377Y-70330832D01*
X159566886Y-70377280D01*
X159505537Y-70438108D01*
X159448475Y-70470589D01*
X159377981Y-70527423D01*
X159310678Y-70634675D01*
X159237505Y-70807407D01*
X159224108Y-70843606D01*
X159065209Y-71200825D01*
X158862127Y-71534355D01*
X158627169Y-71828572D01*
X158372640Y-72067852D01*
X158137625Y-72222996D01*
X157882764Y-72311748D01*
X157620983Y-72323196D01*
X157367693Y-72261702D01*
X157138302Y-72131632D01*
X156948221Y-71937351D01*
X156905351Y-71873991D01*
X156776359Y-71666487D01*
X156537542Y-71894280D01*
X156393262Y-72020905D01*
X156242567Y-72135786D01*
X156117569Y-72214484D01*
X156115294Y-72215653D01*
X155897287Y-72295934D01*
X155666925Y-72329228D01*
X155454417Y-72312994D01*
X155351260Y-72279888D01*
X155135856Y-72145735D01*
X154985624Y-71964413D01*
X154897414Y-71730408D01*
X154868072Y-71438204D01*
X154868065Y-71434166D01*
X154873511Y-71284479D01*
X154892787Y-71136274D01*
X154929923Y-70978364D01*
X154988951Y-70799560D01*
X155073901Y-70588675D01*
X155188805Y-70334520D01*
X155337694Y-70025908D01*
X155474372Y-69751416D01*
X155610912Y-69478178D01*
X155712127Y-69271180D01*
X155781564Y-69121446D01*
X155822771Y-69020002D01*
X155839295Y-68957872D01*
X155834686Y-68926081D01*
X155812489Y-68915654D01*
X155804867Y-68915333D01*
X155700725Y-68895089D01*
X155571762Y-68844309D01*
X155447535Y-68777922D01*
X155357598Y-68710856D01*
X155332479Y-68676734D01*
X155320304Y-68611635D01*
X155351376Y-68569360D01*
X155437304Y-68545461D01*
X155589699Y-68535491D01*
X155704241Y-68534333D01*
X155905087Y-68527420D01*
X156049640Y-68507935D01*
X156119171Y-68481416D01*
X156165009Y-68426182D01*
X156242829Y-68313498D01*
X156342174Y-68159182D01*
X156452591Y-67979049D01*
X156465085Y-67958133D01*
X156575925Y-67776138D01*
X156676617Y-67618186D01*
X156756769Y-67500086D01*
X156805990Y-67437645D01*
X156809118Y-67434813D01*
X156894270Y-67397113D01*
X156961416Y-67430694D01*
G36*
X152432448Y-66725478D02*
G01*
X152471984Y-66843414D01*
X152495387Y-66984625D01*
X152488732Y-67138157D01*
X152448537Y-67314127D01*
X152371324Y-67522652D01*
X152253612Y-67773848D01*
X152091922Y-68077833D01*
X151977756Y-68280333D01*
X151813464Y-68567504D01*
X151687221Y-68789134D01*
X151595030Y-68953172D01*
X151532894Y-69067565D01*
X151496815Y-69140259D01*
X151482797Y-69179205D01*
X151486842Y-69192348D01*
X151504953Y-69187637D01*
X151527192Y-69176187D01*
X151618815Y-69112282D01*
X151659870Y-69072091D01*
X151720660Y-69026393D01*
X151836021Y-68960194D01*
X151982814Y-68886605D01*
X152007781Y-68874970D01*
X152227982Y-68788991D01*
X152401189Y-68760902D01*
X152542824Y-68791387D01*
X152668310Y-68881129D01*
X152691919Y-68905277D01*
X152857257Y-69136950D01*
X152943601Y-69390056D01*
X152948558Y-69656033D01*
X152929506Y-69755108D01*
X152839822Y-69955203D01*
X152673218Y-70159078D01*
X152436817Y-70360246D01*
X152137742Y-70552218D01*
X151941212Y-70655404D01*
X151512151Y-70864971D01*
X151543418Y-71095383D01*
X151600309Y-71378242D01*
X151685983Y-71625205D01*
X151793908Y-71825248D01*
X151917552Y-71967352D01*
X152050382Y-72040494D01*
X152108018Y-72048000D01*
X152277357Y-72008480D01*
X152460806Y-71895077D01*
X152649947Y-71715521D01*
X152836364Y-71477542D01*
X152979334Y-71247707D01*
X153093875Y-71049914D01*
X153178152Y-70920455D01*
X153238980Y-70851547D01*
X153283172Y-70835408D01*
X153316492Y-70862666D01*
X153359065Y-71001661D01*
X153331232Y-71184122D01*
X153233789Y-71407703D01*
X153067533Y-71670061D01*
X153020183Y-71734920D01*
X152799886Y-71974183D01*
X152553724Y-72146168D01*
X152292557Y-72251087D01*
X152027247Y-72289150D01*
X151768653Y-72260568D01*
X151527636Y-72165551D01*
X151315057Y-72004310D01*
X151141777Y-71777057D01*
X151099859Y-71697659D01*
X151010310Y-71458893D01*
X150945131Y-71180881D01*
X150912285Y-70904584D01*
X150912731Y-70735003D01*
X150932137Y-70606277D01*
X150976311Y-70532261D01*
X151032000Y-70496216D01*
X151116416Y-70455470D01*
X151253827Y-70389618D01*
X151420758Y-70309898D01*
X151505517Y-70269511D01*
X151757828Y-70130036D01*
X152003480Y-69959483D01*
X152224212Y-69773219D01*
X152401766Y-69586610D01*
X152515644Y-69419457D01*
X152575292Y-69292890D01*
X152593171Y-69212769D01*
X152570464Y-69152578D01*
X152529596Y-69106643D01*
X152424205Y-69059975D01*
X152269619Y-69078659D01*
X152069004Y-69161513D01*
X151825526Y-69307356D01*
X151642526Y-69437816D01*
X151431450Y-69617655D01*
X151229818Y-69835478D01*
X151032420Y-70099311D01*
X150834045Y-70417184D01*
X150629483Y-70797124D01*
X150413524Y-71247159D01*
X150291575Y-71519318D01*
X150189524Y-71748402D01*
X150096082Y-71951964D01*
X150017591Y-72116672D01*
X149960392Y-72229198D01*
X149932027Y-72275172D01*
X149874733Y-72287144D01*
X149814380Y-72229962D01*
X149761924Y-72117976D01*
X149736621Y-72019264D01*
X149710164Y-71878239D01*
X149558316Y-72011563D01*
X149334568Y-72165506D01*
X149078149Y-72272944D01*
X148813071Y-72327542D01*
X148563344Y-72322965D01*
X148463760Y-72300341D01*
X148293989Y-72206454D01*
X148170338Y-72050094D01*
X148097229Y-71842472D01*
X148079084Y-71594801D01*
X148104328Y-71388895D01*
X148170553Y-71145981D01*
X148279150Y-70851028D01*
X148422416Y-70520265D01*
X148592650Y-70169927D01*
X148782148Y-69816243D01*
X148983209Y-69475446D01*
X149095625Y-69299843D01*
X149219219Y-69122522D01*
X149312812Y-69014485D01*
X149384931Y-68969621D01*
X149444100Y-68981821D01*
X149483168Y-69022101D01*
X149554305Y-69152917D01*
X149583997Y-69304918D01*
X149570350Y-69486380D01*
X149511473Y-69705581D01*
X149405470Y-69970796D01*
X149250450Y-70290302D01*
X149149290Y-70481666D01*
X148956174Y-70846873D01*
X148806702Y-71148576D01*
X148698343Y-71394240D01*
X148628566Y-71591329D01*
X148594840Y-71747308D01*
X148594635Y-71869640D01*
X148625421Y-71965789D01*
X148638568Y-71988000D01*
X148738071Y-72072953D01*
X148872792Y-72087863D01*
X149034661Y-72035451D01*
X149215606Y-71918438D01*
X149407557Y-71739546D01*
X149422053Y-71723841D01*
X149598218Y-71502063D01*
X149782980Y-71217191D01*
X149964820Y-70888373D01*
X150118382Y-70566333D01*
X150262548Y-70250614D01*
X150430040Y-69901921D01*
X150615479Y-69530053D01*
X150813485Y-69144812D01*
X151018680Y-68755996D01*
X151225683Y-68373404D01*
X151429117Y-68006836D01*
X151623601Y-67666093D01*
X151803756Y-67360973D01*
X151964204Y-67101276D01*
X152099564Y-66896801D01*
X152204458Y-66757349D01*
X152217432Y-66742421D01*
X152309041Y-66660457D01*
X152377882Y-66653686D01*
X152432448Y-66725478D01*
X152432448Y-66725478D01*
G37*
X152432448Y-66725478D02*
X152471984Y-66843414D01*
X152495387Y-66984625D01*
X152488732Y-67138157D01*
X152448537Y-67314127D01*
X152371324Y-67522652D01*
X152253612Y-67773848D01*
X152091922Y-68077833D01*
X151977756Y-68280333D01*
X151813464Y-68567504D01*
X151687221Y-68789134D01*
X151595030Y-68953172D01*
X151532894Y-69067565D01*
X151496815Y-69140259D01*
X151482797Y-69179205D01*
X151486842Y-69192348D01*
X151504953Y-69187637D01*
X151527192Y-69176187D01*
X151618815Y-69112282D01*
X151659870Y-69072091D01*
X151720660Y-69026393D01*
X151836021Y-68960194D01*
X151982814Y-68886605D01*
X152007781Y-68874970D01*
X152227982Y-68788991D01*
X152401189Y-68760902D01*
X152542824Y-68791387D01*
X152668310Y-68881129D01*
X152691919Y-68905277D01*
X152857257Y-69136950D01*
X152943601Y-69390056D01*
X152948558Y-69656033D01*
X152929506Y-69755108D01*
X152839822Y-69955203D01*
X152673218Y-70159078D01*
X152436817Y-70360246D01*
X152137742Y-70552218D01*
X151941212Y-70655404D01*
X151512151Y-70864971D01*
X151543418Y-71095383D01*
X151600309Y-71378242D01*
X151685983Y-71625205D01*
X151793908Y-71825248D01*
X151917552Y-71967352D01*
X152050382Y-72040494D01*
X152108018Y-72048000D01*
X152277357Y-72008480D01*
X152460806Y-71895077D01*
X152649947Y-71715521D01*
X152836364Y-71477542D01*
X152979334Y-71247707D01*
X153093875Y-71049914D01*
X153178152Y-70920455D01*
X153238980Y-70851547D01*
X153283172Y-70835408D01*
X153316492Y-70862666D01*
X153359065Y-71001661D01*
X153331232Y-71184122D01*
X153233789Y-71407703D01*
X153067533Y-71670061D01*
X153020183Y-71734920D01*
X152799886Y-71974183D01*
X152553724Y-72146168D01*
X152292557Y-72251087D01*
X152027247Y-72289150D01*
X151768653Y-72260568D01*
X151527636Y-72165551D01*
X151315057Y-72004310D01*
X151141777Y-71777057D01*
X151099859Y-71697659D01*
X151010310Y-71458893D01*
X150945131Y-71180881D01*
X150912285Y-70904584D01*
X150912731Y-70735003D01*
X150932137Y-70606277D01*
X150976311Y-70532261D01*
X151032000Y-70496216D01*
X151116416Y-70455470D01*
X151253827Y-70389618D01*
X151420758Y-70309898D01*
X151505517Y-70269511D01*
X151757828Y-70130036D01*
X152003480Y-69959483D01*
X152224212Y-69773219D01*
X152401766Y-69586610D01*
X152515644Y-69419457D01*
X152575292Y-69292890D01*
X152593171Y-69212769D01*
X152570464Y-69152578D01*
X152529596Y-69106643D01*
X152424205Y-69059975D01*
X152269619Y-69078659D01*
X152069004Y-69161513D01*
X151825526Y-69307356D01*
X151642526Y-69437816D01*
X151431450Y-69617655D01*
X151229818Y-69835478D01*
X151032420Y-70099311D01*
X150834045Y-70417184D01*
X150629483Y-70797124D01*
X150413524Y-71247159D01*
X150291575Y-71519318D01*
X150189524Y-71748402D01*
X150096082Y-71951964D01*
X150017591Y-72116672D01*
X149960392Y-72229198D01*
X149932027Y-72275172D01*
X149874733Y-72287144D01*
X149814380Y-72229962D01*
X149761924Y-72117976D01*
X149736621Y-72019264D01*
X149710164Y-71878239D01*
X149558316Y-72011563D01*
X149334568Y-72165506D01*
X149078149Y-72272944D01*
X148813071Y-72327542D01*
X148563344Y-72322965D01*
X148463760Y-72300341D01*
X148293989Y-72206454D01*
X148170338Y-72050094D01*
X148097229Y-71842472D01*
X148079084Y-71594801D01*
X148104328Y-71388895D01*
X148170553Y-71145981D01*
X148279150Y-70851028D01*
X148422416Y-70520265D01*
X148592650Y-70169927D01*
X148782148Y-69816243D01*
X148983209Y-69475446D01*
X149095625Y-69299843D01*
X149219219Y-69122522D01*
X149312812Y-69014485D01*
X149384931Y-68969621D01*
X149444100Y-68981821D01*
X149483168Y-69022101D01*
X149554305Y-69152917D01*
X149583997Y-69304918D01*
X149570350Y-69486380D01*
X149511473Y-69705581D01*
X149405470Y-69970796D01*
X149250450Y-70290302D01*
X149149290Y-70481666D01*
X148956174Y-70846873D01*
X148806702Y-71148576D01*
X148698343Y-71394240D01*
X148628566Y-71591329D01*
X148594840Y-71747308D01*
X148594635Y-71869640D01*
X148625421Y-71965789D01*
X148638568Y-71988000D01*
X148738071Y-72072953D01*
X148872792Y-72087863D01*
X149034661Y-72035451D01*
X149215606Y-71918438D01*
X149407557Y-71739546D01*
X149422053Y-71723841D01*
X149598218Y-71502063D01*
X149782980Y-71217191D01*
X149964820Y-70888373D01*
X150118382Y-70566333D01*
X150262548Y-70250614D01*
X150430040Y-69901921D01*
X150615479Y-69530053D01*
X150813485Y-69144812D01*
X151018680Y-68755996D01*
X151225683Y-68373404D01*
X151429117Y-68006836D01*
X151623601Y-67666093D01*
X151803756Y-67360973D01*
X151964204Y-67101276D01*
X152099564Y-66896801D01*
X152204458Y-66757349D01*
X152217432Y-66742421D01*
X152309041Y-66660457D01*
X152377882Y-66653686D01*
X152432448Y-66725478D01*
G36*
X149134722Y-66999908D02*
G01*
X149195219Y-67075093D01*
X149235823Y-67164644D01*
X149250614Y-67284278D01*
X149243694Y-67452469D01*
X149235306Y-67535901D01*
X149221563Y-67616069D01*
X149198426Y-67701505D01*
X149161856Y-67800744D01*
X149107815Y-67922317D01*
X149032264Y-68074759D01*
X148931165Y-68266604D01*
X148800479Y-68506383D01*
X148636166Y-68802631D01*
X148434189Y-69163881D01*
X148431135Y-69169333D01*
X148317415Y-69377172D01*
X148175082Y-69644915D01*
X148012536Y-69956320D01*
X147838177Y-70295144D01*
X147660404Y-70645142D01*
X147487618Y-70990073D01*
X147441701Y-71082674D01*
X147291397Y-71383566D01*
X147151105Y-71658770D01*
X147025580Y-71899392D01*
X146919576Y-72096539D01*
X146837848Y-72241317D01*
X146785150Y-72324833D01*
X146768390Y-72342091D01*
X146708064Y-72317369D01*
X146614547Y-72252228D01*
X146567183Y-72212839D01*
X146460583Y-72090711D01*
X146380435Y-71928642D01*
X146322662Y-71713902D01*
X146283192Y-71433762D01*
X146270537Y-71286000D01*
X146264203Y-71106668D01*
X146265133Y-70861356D01*
X146272465Y-70568358D01*
X146285340Y-70245970D01*
X146302897Y-69912488D01*
X146324274Y-69586205D01*
X146348611Y-69285419D01*
X146375048Y-69028423D01*
X146377831Y-69005366D01*
X146396138Y-68842600D01*
X146407247Y-68715743D01*
X146409503Y-68645125D01*
X146407813Y-68637368D01*
X146378317Y-68662141D01*
X146316587Y-68754105D01*
X146227270Y-68904241D01*
X146115014Y-69103529D01*
X145984467Y-69342948D01*
X145840276Y-69613480D01*
X145687090Y-69906103D01*
X145529555Y-70211799D01*
X145372320Y-70521546D01*
X145220033Y-70826327D01*
X145077341Y-71117120D01*
X144948892Y-71384906D01*
X144839333Y-71620664D01*
X144753313Y-71815376D01*
X144695480Y-71960022D01*
X144694937Y-71961524D01*
X144632901Y-72122076D01*
X144576033Y-72249014D01*
X144533207Y-72323330D01*
X144520791Y-72334569D01*
X144468009Y-72314013D01*
X144408171Y-72246482D01*
X144346010Y-72120777D01*
X144314789Y-71974242D01*
X144316316Y-71800065D01*
X144352397Y-71591432D01*
X144424838Y-71341528D01*
X144535445Y-71043539D01*
X144686025Y-70690654D01*
X144878385Y-70276056D01*
X144993885Y-70037166D01*
X145174890Y-69672241D01*
X145363939Y-69300917D01*
X145556574Y-68931168D01*
X145748340Y-68570964D01*
X145934779Y-68228276D01*
X146111436Y-67911077D01*
X146273853Y-67627336D01*
X146417576Y-67385026D01*
X146538146Y-67192118D01*
X146631107Y-67056584D01*
X146692004Y-66986394D01*
X146703429Y-66979242D01*
X146775655Y-66992412D01*
X146869003Y-67062237D01*
X146966875Y-67169573D01*
X147052676Y-67295275D01*
X147109811Y-67420196D01*
X147119864Y-67459652D01*
X147126254Y-67575407D01*
X147117412Y-67762081D01*
X147094224Y-68007472D01*
X147060356Y-68279195D01*
X147030548Y-68512167D01*
X146999440Y-68782085D01*
X146967994Y-69077656D01*
X146937176Y-69387587D01*
X146907948Y-69700585D01*
X146881273Y-70005356D01*
X146858116Y-70290607D01*
X146839440Y-70545044D01*
X146826208Y-70757376D01*
X146819383Y-70916307D01*
X146819930Y-71010545D01*
X146825492Y-71032000D01*
X146845331Y-70995798D01*
X146897471Y-70894148D01*
X146976655Y-70737480D01*
X147077625Y-70536227D01*
X147195124Y-70300819D01*
X147278872Y-70132416D01*
X147445287Y-69802755D01*
X147624019Y-69458366D01*
X147810487Y-69107271D01*
X148000107Y-68757494D01*
X148188298Y-68417058D01*
X148370477Y-68093987D01*
X148542061Y-67796303D01*
X148698468Y-67532031D01*
X148835115Y-67309192D01*
X148947419Y-67135810D01*
X149030799Y-67019910D01*
X149080671Y-66969513D01*
X149086255Y-66967999D01*
X149134722Y-66999908D01*
X149134722Y-66999908D01*
G37*
X149134722Y-66999908D02*
X149195219Y-67075093D01*
X149235823Y-67164644D01*
X149250614Y-67284278D01*
X149243694Y-67452469D01*
X149235306Y-67535901D01*
X149221563Y-67616069D01*
X149198426Y-67701505D01*
X149161856Y-67800744D01*
X149107815Y-67922317D01*
X149032264Y-68074759D01*
X148931165Y-68266604D01*
X148800479Y-68506383D01*
X148636166Y-68802631D01*
X148434189Y-69163881D01*
X148431135Y-69169333D01*
X148317415Y-69377172D01*
X148175082Y-69644915D01*
X148012536Y-69956320D01*
X147838177Y-70295144D01*
X147660404Y-70645142D01*
X147487618Y-70990073D01*
X147441701Y-71082674D01*
X147291397Y-71383566D01*
X147151105Y-71658770D01*
X147025580Y-71899392D01*
X146919576Y-72096539D01*
X146837848Y-72241317D01*
X146785150Y-72324833D01*
X146768390Y-72342091D01*
X146708064Y-72317369D01*
X146614547Y-72252228D01*
X146567183Y-72212839D01*
X146460583Y-72090711D01*
X146380435Y-71928642D01*
X146322662Y-71713902D01*
X146283192Y-71433762D01*
X146270537Y-71286000D01*
X146264203Y-71106668D01*
X146265133Y-70861356D01*
X146272465Y-70568358D01*
X146285340Y-70245970D01*
X146302897Y-69912488D01*
X146324274Y-69586205D01*
X146348611Y-69285419D01*
X146375048Y-69028423D01*
X146377831Y-69005366D01*
X146396138Y-68842600D01*
X146407247Y-68715743D01*
X146409503Y-68645125D01*
X146407813Y-68637368D01*
X146378317Y-68662141D01*
X146316587Y-68754105D01*
X146227270Y-68904241D01*
X146115014Y-69103529D01*
X145984467Y-69342948D01*
X145840276Y-69613480D01*
X145687090Y-69906103D01*
X145529555Y-70211799D01*
X145372320Y-70521546D01*
X145220033Y-70826327D01*
X145077341Y-71117120D01*
X144948892Y-71384906D01*
X144839333Y-71620664D01*
X144753313Y-71815376D01*
X144695480Y-71960022D01*
X144694937Y-71961524D01*
X144632901Y-72122076D01*
X144576033Y-72249014D01*
X144533207Y-72323330D01*
X144520791Y-72334569D01*
X144468009Y-72314013D01*
X144408171Y-72246482D01*
X144346010Y-72120777D01*
X144314789Y-71974242D01*
X144316316Y-71800065D01*
X144352397Y-71591432D01*
X144424838Y-71341528D01*
X144535445Y-71043539D01*
X144686025Y-70690654D01*
X144878385Y-70276056D01*
X144993885Y-70037166D01*
X145174890Y-69672241D01*
X145363939Y-69300917D01*
X145556574Y-68931168D01*
X145748340Y-68570964D01*
X145934779Y-68228276D01*
X146111436Y-67911077D01*
X146273853Y-67627336D01*
X146417576Y-67385026D01*
X146538146Y-67192118D01*
X146631107Y-67056584D01*
X146692004Y-66986394D01*
X146703429Y-66979242D01*
X146775655Y-66992412D01*
X146869003Y-67062237D01*
X146966875Y-67169573D01*
X147052676Y-67295275D01*
X147109811Y-67420196D01*
X147119864Y-67459652D01*
X147126254Y-67575407D01*
X147117412Y-67762081D01*
X147094224Y-68007472D01*
X147060356Y-68279195D01*
X147030548Y-68512167D01*
X146999440Y-68782085D01*
X146967994Y-69077656D01*
X146937176Y-69387587D01*
X146907948Y-69700585D01*
X146881273Y-70005356D01*
X146858116Y-70290607D01*
X146839440Y-70545044D01*
X146826208Y-70757376D01*
X146819383Y-70916307D01*
X146819930Y-71010545D01*
X146825492Y-71032000D01*
X146845331Y-70995798D01*
X146897471Y-70894148D01*
X146976655Y-70737480D01*
X147077625Y-70536227D01*
X147195124Y-70300819D01*
X147278872Y-70132416D01*
X147445287Y-69802755D01*
X147624019Y-69458366D01*
X147810487Y-69107271D01*
X148000107Y-68757494D01*
X148188298Y-68417058D01*
X148370477Y-68093987D01*
X148542061Y-67796303D01*
X148698468Y-67532031D01*
X148835115Y-67309192D01*
X148947419Y-67135810D01*
X149030799Y-67019910D01*
X149080671Y-66969513D01*
X149086255Y-66967999D01*
X149134722Y-66999908D01*
G36*
X142433395Y-67026098D02*
G01*
X142443030Y-67034362D01*
X142549617Y-67168777D01*
X142636237Y-67348508D01*
X142685774Y-67534251D01*
X142691404Y-67604689D01*
X142663959Y-67854694D01*
X142583641Y-68147544D01*
X142457626Y-68466393D01*
X142293090Y-68794398D01*
X142097207Y-69114715D01*
X141974932Y-69286533D01*
X141819363Y-69478116D01*
X141628707Y-69690294D01*
X141420033Y-69906073D01*
X141210413Y-70108463D01*
X141016916Y-70280473D01*
X140856612Y-70405110D01*
X140839676Y-70416567D01*
X140748228Y-70485631D01*
X140682130Y-70564259D01*
X140626300Y-70676298D01*
X140565657Y-70845598D01*
X140562709Y-70854532D01*
X140458013Y-71217339D01*
X140400922Y-71521781D01*
X140390443Y-71765644D01*
X140425585Y-71946717D01*
X140505354Y-72062790D01*
X140628757Y-72111648D01*
X140794803Y-72091082D01*
X141002497Y-71998879D01*
X141060816Y-71964374D01*
X141205481Y-71853012D01*
X141374277Y-71688923D01*
X141548829Y-71492606D01*
X141710761Y-71284560D01*
X141827847Y-71108693D01*
X141944461Y-70926504D01*
X142030696Y-70821027D01*
X142089918Y-70791322D01*
X142125497Y-70836450D01*
X142140800Y-70955474D01*
X142142000Y-71021132D01*
X142114339Y-71231970D01*
X142026752Y-71437525D01*
X141872332Y-71650433D01*
X141698855Y-71831840D01*
X141427689Y-72053201D01*
X141143760Y-72213709D01*
X140859309Y-72309026D01*
X140586576Y-72334816D01*
X140377345Y-72300147D01*
X140210600Y-72211487D01*
X140062283Y-72067205D01*
X139959711Y-71895876D01*
X139942410Y-71845166D01*
X139904769Y-71580950D01*
X139919237Y-71262367D01*
X139981947Y-70898573D01*
X140089032Y-70498724D01*
X140235676Y-70074724D01*
X140872000Y-70074724D01*
X140889400Y-70101348D01*
X140944736Y-70074413D01*
X141042712Y-69990280D01*
X141188032Y-69845310D01*
X141243733Y-69787129D01*
X141484603Y-69513381D01*
X141711741Y-69217226D01*
X141916747Y-68912734D01*
X142091219Y-68613973D01*
X142226758Y-68335015D01*
X142314964Y-68089929D01*
X142344294Y-67943788D01*
X142364947Y-67751166D01*
X142249085Y-67857000D01*
X142161190Y-67954931D01*
X142040422Y-68114922D01*
X141894714Y-68324847D01*
X141731997Y-68572581D01*
X141560201Y-68845997D01*
X141387258Y-69132969D01*
X141221100Y-69421373D01*
X141193095Y-69471474D01*
X141083005Y-69670989D01*
X140989185Y-69844033D01*
X140918689Y-69977352D01*
X140878571Y-70057693D01*
X140872000Y-70074724D01*
X140235676Y-70074724D01*
X140236627Y-70071977D01*
X140420864Y-69627488D01*
X140637877Y-69174414D01*
X140883799Y-68721910D01*
X141154764Y-68279133D01*
X141446906Y-67855239D01*
X141756357Y-67459384D01*
X141831966Y-67370500D01*
X142006818Y-67178789D01*
X142145292Y-67053495D01*
X142256484Y-66989617D01*
X142349487Y-66982152D01*
X142433395Y-67026098D01*
X142433395Y-67026098D01*
G37*
X142433395Y-67026098D02*
X142443030Y-67034362D01*
X142549617Y-67168777D01*
X142636237Y-67348508D01*
X142685774Y-67534251D01*
X142691404Y-67604689D01*
X142663959Y-67854694D01*
X142583641Y-68147544D01*
X142457626Y-68466393D01*
X142293090Y-68794398D01*
X142097207Y-69114715D01*
X141974932Y-69286533D01*
X141819363Y-69478116D01*
X141628707Y-69690294D01*
X141420033Y-69906073D01*
X141210413Y-70108463D01*
X141016916Y-70280473D01*
X140856612Y-70405110D01*
X140839676Y-70416567D01*
X140748228Y-70485631D01*
X140682130Y-70564259D01*
X140626300Y-70676298D01*
X140565657Y-70845598D01*
X140562709Y-70854532D01*
X140458013Y-71217339D01*
X140400922Y-71521781D01*
X140390443Y-71765644D01*
X140425585Y-71946717D01*
X140505354Y-72062790D01*
X140628757Y-72111648D01*
X140794803Y-72091082D01*
X141002497Y-71998879D01*
X141060816Y-71964374D01*
X141205481Y-71853012D01*
X141374277Y-71688923D01*
X141548829Y-71492606D01*
X141710761Y-71284560D01*
X141827847Y-71108693D01*
X141944461Y-70926504D01*
X142030696Y-70821027D01*
X142089918Y-70791322D01*
X142125497Y-70836450D01*
X142140800Y-70955474D01*
X142142000Y-71021132D01*
X142114339Y-71231970D01*
X142026752Y-71437525D01*
X141872332Y-71650433D01*
X141698855Y-71831840D01*
X141427689Y-72053201D01*
X141143760Y-72213709D01*
X140859309Y-72309026D01*
X140586576Y-72334816D01*
X140377345Y-72300147D01*
X140210600Y-72211487D01*
X140062283Y-72067205D01*
X139959711Y-71895876D01*
X139942410Y-71845166D01*
X139904769Y-71580950D01*
X139919237Y-71262367D01*
X139981947Y-70898573D01*
X140089032Y-70498724D01*
X140235676Y-70074724D01*
X140872000Y-70074724D01*
X140889400Y-70101348D01*
X140944736Y-70074413D01*
X141042712Y-69990280D01*
X141188032Y-69845310D01*
X141243733Y-69787129D01*
X141484603Y-69513381D01*
X141711741Y-69217226D01*
X141916747Y-68912734D01*
X142091219Y-68613973D01*
X142226758Y-68335015D01*
X142314964Y-68089929D01*
X142344294Y-67943788D01*
X142364947Y-67751166D01*
X142249085Y-67857000D01*
X142161190Y-67954931D01*
X142040422Y-68114922D01*
X141894714Y-68324847D01*
X141731997Y-68572581D01*
X141560201Y-68845997D01*
X141387258Y-69132969D01*
X141221100Y-69421373D01*
X141193095Y-69471474D01*
X141083005Y-69670989D01*
X140989185Y-69844033D01*
X140918689Y-69977352D01*
X140878571Y-70057693D01*
X140872000Y-70074724D01*
X140235676Y-70074724D01*
X140236627Y-70071977D01*
X140420864Y-69627488D01*
X140637877Y-69174414D01*
X140883799Y-68721910D01*
X141154764Y-68279133D01*
X141446906Y-67855239D01*
X141756357Y-67459384D01*
X141831966Y-67370500D01*
X142006818Y-67178789D01*
X142145292Y-67053495D01*
X142256484Y-66989617D01*
X142349487Y-66982152D01*
X142433395Y-67026098D01*
G36*
X139209450Y-64476548D02*
G01*
X139348000Y-64576166D01*
X139453841Y-64658683D01*
X139536407Y-64712473D01*
X139566815Y-64724333D01*
X139624999Y-64754241D01*
X139721074Y-64833071D01*
X139838992Y-64944486D01*
X139962703Y-65072147D01*
X140076161Y-65199715D01*
X140163316Y-65310851D01*
X140198993Y-65367959D01*
X140320786Y-65626913D01*
X140396640Y-65846432D01*
X140432997Y-66053601D01*
X140436300Y-66275502D01*
X140431941Y-66347223D01*
X140416286Y-66537919D01*
X140398630Y-66720966D01*
X140382495Y-66860206D01*
X140380757Y-66872750D01*
X140355107Y-67052666D01*
X140573323Y-67052666D01*
X140811377Y-67081762D01*
X140990111Y-67168226D01*
X141104117Y-67305280D01*
X141161497Y-67435499D01*
X141161458Y-67512798D01*
X141095510Y-67550170D01*
X140955166Y-67560604D01*
X140937229Y-67560666D01*
X140774743Y-67567390D01*
X140573216Y-67584993D01*
X140381514Y-67608946D01*
X140213529Y-67636853D01*
X140108148Y-67665452D01*
X140043764Y-67704190D01*
X139998769Y-67762516D01*
X139988202Y-67780933D01*
X139839009Y-68029790D01*
X139665173Y-68279439D01*
X139453868Y-68546954D01*
X139192269Y-68849409D01*
X139151348Y-68895017D01*
X138993513Y-69068900D01*
X138853151Y-69220963D01*
X138740987Y-69339788D01*
X138667748Y-69413952D01*
X138646530Y-69432536D01*
X138589124Y-69477018D01*
X138495357Y-69557253D01*
X138433476Y-69612491D01*
X138268500Y-69762077D01*
X138670667Y-69737895D01*
X138872124Y-69728649D01*
X139012207Y-69731201D01*
X139113661Y-69747743D01*
X139199233Y-69780465D01*
X139219560Y-69790773D01*
X139321274Y-69864539D01*
X139414302Y-69964917D01*
X139481867Y-70068819D01*
X139507189Y-70153155D01*
X139500814Y-70177814D01*
X139450902Y-70197537D01*
X139337210Y-70218467D01*
X139180494Y-70237140D01*
X139108335Y-70243360D01*
X138938103Y-70260925D01*
X138733855Y-70288770D01*
X138514481Y-70323501D01*
X138298875Y-70361724D01*
X138105929Y-70400045D01*
X137954534Y-70435071D01*
X137863583Y-70463406D01*
X137852683Y-70468936D01*
X137822091Y-70513417D01*
X137763758Y-70618771D01*
X137685504Y-70769034D01*
X137595149Y-70948241D01*
X137500513Y-71140428D01*
X137409416Y-71329632D01*
X137329678Y-71499888D01*
X137269118Y-71635232D01*
X137235557Y-71719699D01*
X137231334Y-71737403D01*
X137269210Y-71745042D01*
X137371079Y-71732865D01*
X137519295Y-71703512D01*
X137622917Y-71678809D01*
X137851605Y-71628975D01*
X138104485Y-71585997D01*
X138334084Y-71557721D01*
X138376427Y-71554276D01*
X138570385Y-71544192D01*
X138708694Y-71548806D01*
X138819552Y-71571076D01*
X138926760Y-71612005D01*
X139069753Y-71698879D01*
X139170991Y-71806138D01*
X139215950Y-71915122D01*
X139209325Y-71975030D01*
X139163523Y-72009850D01*
X139050882Y-72037041D01*
X138863396Y-72058363D01*
X138812117Y-72062381D01*
X138611505Y-72083642D01*
X138364210Y-72119341D01*
X138105828Y-72163961D01*
X137929834Y-72199173D01*
X137708860Y-72244686D01*
X137495510Y-72285168D01*
X137315821Y-72315873D01*
X137206339Y-72331026D01*
X137073193Y-72339987D01*
X136992526Y-72325504D01*
X136933480Y-72279074D01*
X136908456Y-72248957D01*
X136838220Y-72142532D01*
X136764650Y-72006322D01*
X136746338Y-71967409D01*
X136702888Y-71862679D01*
X136687940Y-71781840D01*
X136701035Y-71690019D01*
X136740899Y-71554928D01*
X136787614Y-71423697D01*
X136860119Y-71239899D01*
X136948560Y-71027765D01*
X137043083Y-70811526D01*
X137044428Y-70808529D01*
X137129201Y-70618826D01*
X137199813Y-70459217D01*
X137249842Y-70344340D01*
X137272864Y-70288835D01*
X137273667Y-70286063D01*
X137239156Y-70293147D01*
X137152883Y-70325097D01*
X137117173Y-70339707D01*
X136974840Y-70379394D01*
X136781905Y-70407371D01*
X136564851Y-70422642D01*
X136350162Y-70424211D01*
X136164321Y-70411083D01*
X136033811Y-70382261D01*
X136029697Y-70380593D01*
X135894003Y-70335206D01*
X135736029Y-70297178D01*
X135703022Y-70291247D01*
X135580209Y-70254090D01*
X135422649Y-70182463D01*
X135246446Y-70086719D01*
X135067705Y-69977213D01*
X135064910Y-69975302D01*
X135742816Y-69975302D01*
X135748174Y-70061438D01*
X135761215Y-70086636D01*
X135826201Y-70106185D01*
X135955537Y-70130321D01*
X136129270Y-70155789D01*
X136327447Y-70179330D01*
X136331750Y-70179782D01*
X136380703Y-70160882D01*
X136384667Y-70146645D01*
X136354298Y-70102964D01*
X136275564Y-70027852D01*
X136231550Y-69990563D01*
X136640756Y-69990563D01*
X136644342Y-70102528D01*
X136656951Y-70160166D01*
X136682390Y-70178638D01*
X136724462Y-70173110D01*
X136733184Y-70170964D01*
X136836600Y-70148989D01*
X136973921Y-70124193D01*
X137010022Y-70118296D01*
X137126134Y-70092772D01*
X137202014Y-70062975D01*
X137213603Y-70052772D01*
X137270397Y-70021287D01*
X137313315Y-70016000D01*
X137406060Y-69985354D01*
X137439571Y-69956631D01*
X137459190Y-69905435D01*
X137418224Y-69849884D01*
X137367928Y-69811165D01*
X137297292Y-69766858D01*
X137181869Y-69700320D01*
X137042221Y-69622709D01*
X136898908Y-69545184D01*
X136772492Y-69478906D01*
X136683533Y-69435032D01*
X136653706Y-69423540D01*
X136650496Y-69462647D01*
X136646996Y-69567657D01*
X136643758Y-69719809D01*
X136642390Y-69809106D01*
X136640756Y-69990563D01*
X136231550Y-69990563D01*
X136167027Y-69935900D01*
X136047247Y-69841698D01*
X135934785Y-69759838D01*
X135848203Y-69704910D01*
X135806060Y-69691505D01*
X135805890Y-69691665D01*
X135775502Y-69756567D01*
X135753201Y-69862395D01*
X135742816Y-69975302D01*
X135064910Y-69975302D01*
X134902531Y-69864297D01*
X134767029Y-69758324D01*
X134677305Y-69669649D01*
X134649000Y-69613656D01*
X134675054Y-69563454D01*
X134739254Y-69474880D01*
X135072334Y-69474880D01*
X135109521Y-69497090D01*
X135206112Y-69500447D01*
X135339653Y-69487716D01*
X135487687Y-69461663D01*
X135627759Y-69425054D01*
X135703350Y-69397148D01*
X135939364Y-69292281D01*
X136121208Y-69205210D01*
X136273572Y-69122922D01*
X136421145Y-69032401D01*
X136523136Y-68965042D01*
X136695742Y-68848903D01*
X137452985Y-68848903D01*
X137458840Y-68893410D01*
X137495138Y-68979272D01*
X137498280Y-68985482D01*
X137551866Y-69116007D01*
X137591451Y-69252610D01*
X137622673Y-69371359D01*
X137655506Y-69460390D01*
X137657493Y-69464277D01*
X137692216Y-69554407D01*
X137716416Y-69645583D01*
X137748411Y-69729930D01*
X137786455Y-69762000D01*
X137840586Y-69737903D01*
X137940216Y-69674497D01*
X138064528Y-69585107D01*
X138073897Y-69578007D01*
X138263938Y-69431442D01*
X138392867Y-69326683D01*
X138468746Y-69256717D01*
X138499633Y-69214528D01*
X138501334Y-69205979D01*
X138463873Y-69182013D01*
X138369596Y-69156111D01*
X138321417Y-69147092D01*
X138180050Y-69114136D01*
X138056651Y-69069921D01*
X138035667Y-69059467D01*
X137934156Y-69010759D01*
X137803106Y-68956678D01*
X137666178Y-68905775D01*
X137547035Y-68866601D01*
X137469337Y-68847706D01*
X137452985Y-68848903D01*
X136695742Y-68848903D01*
X136809773Y-68772177D01*
X136630818Y-68589835D01*
X136522425Y-68487612D01*
X136427132Y-68411782D01*
X136378415Y-68384182D01*
X136297811Y-68394761D01*
X136179302Y-68454215D01*
X136122567Y-68492290D01*
X136014852Y-68576332D01*
X135875970Y-68693912D01*
X135718366Y-68833386D01*
X135554484Y-68983112D01*
X135396770Y-69131446D01*
X135257666Y-69266747D01*
X135149618Y-69377371D01*
X135085069Y-69451674D01*
X135072334Y-69474880D01*
X134739254Y-69474880D01*
X134742621Y-69470235D01*
X134835806Y-69353211D01*
X134938716Y-69231599D01*
X135035456Y-69124613D01*
X135110132Y-69051467D01*
X135121986Y-69041852D01*
X135161788Y-69007322D01*
X135252876Y-68926287D01*
X135383745Y-68809042D01*
X135542892Y-68665880D01*
X135638668Y-68579499D01*
X136126865Y-68138793D01*
X136055067Y-68017249D01*
X135974105Y-67910528D01*
X135888414Y-67833553D01*
X135819226Y-67766834D01*
X135721156Y-67645481D01*
X135607068Y-67488519D01*
X135489829Y-67314973D01*
X135382304Y-67143867D01*
X135297358Y-66994227D01*
X135248710Y-66887599D01*
X135206694Y-66663429D01*
X135212190Y-66536900D01*
X135439359Y-66536900D01*
X135471786Y-66706632D01*
X135478539Y-66735166D01*
X135522270Y-66858330D01*
X135599577Y-67024802D01*
X135696266Y-67207986D01*
X135798141Y-67381287D01*
X135891007Y-67518111D01*
X135907855Y-67539500D01*
X136018844Y-67668736D01*
X136159023Y-67822299D01*
X136316832Y-67988626D01*
X136480712Y-68156155D01*
X136639101Y-68313325D01*
X136780439Y-68448573D01*
X136893167Y-68550337D01*
X136965724Y-68607054D01*
X136983079Y-68614897D01*
X137034696Y-68586913D01*
X137131954Y-68506998D01*
X137263292Y-68385642D01*
X137417146Y-68233333D01*
X137512245Y-68134836D01*
X137633684Y-68005753D01*
X138205000Y-68005753D01*
X138221927Y-68058261D01*
X138266405Y-68164410D01*
X138328978Y-68301690D01*
X138332000Y-68308096D01*
X138394847Y-68443425D01*
X138440258Y-68545624D01*
X138458933Y-68593721D01*
X138459000Y-68594436D01*
X138476231Y-68656926D01*
X138518678Y-68756406D01*
X138572471Y-68865109D01*
X138623742Y-68955272D01*
X138658622Y-68999131D01*
X138661589Y-69000000D01*
X138708978Y-68972651D01*
X138795676Y-68901544D01*
X138885343Y-68818764D01*
X139008024Y-68692000D01*
X139132620Y-68549657D01*
X139247573Y-68406847D01*
X139341323Y-68278681D01*
X139402311Y-68180270D01*
X139418977Y-68126726D01*
X139417080Y-68123635D01*
X139365028Y-68107924D01*
X139249553Y-68089512D01*
X139091701Y-68071507D01*
X139019518Y-68064955D01*
X138816737Y-68046427D01*
X138614964Y-68025571D01*
X138452079Y-68006348D01*
X138427250Y-68003013D01*
X138303811Y-67991591D01*
X138223113Y-67995036D01*
X138205000Y-68005753D01*
X137633684Y-68005753D01*
X137681937Y-67954463D01*
X137841066Y-67782165D01*
X137975693Y-67633259D01*
X138071883Y-67523059D01*
X138099167Y-67489859D01*
X138176241Y-67385295D01*
X138269792Y-67248373D01*
X138328801Y-67157898D01*
X138932244Y-67157898D01*
X138965473Y-67202402D01*
X139000660Y-67230182D01*
X139070646Y-67297148D01*
X139159795Y-67402544D01*
X139199251Y-67454833D01*
X139297810Y-67583434D01*
X139403189Y-67709232D01*
X139499741Y-67814869D01*
X139571820Y-67882991D01*
X139599721Y-67899065D01*
X139634164Y-67866086D01*
X139689818Y-67784798D01*
X139703858Y-67761482D01*
X139815587Y-67559944D01*
X139900998Y-67382994D01*
X139953799Y-67245239D01*
X139967700Y-67161288D01*
X139965729Y-67153386D01*
X139935964Y-67127345D01*
X139862308Y-67109867D01*
X139732811Y-67099638D01*
X139535520Y-67095347D01*
X139433995Y-67095000D01*
X139199320Y-67097836D01*
X139042149Y-67107805D01*
X138955463Y-67127096D01*
X138932244Y-67157898D01*
X138328801Y-67157898D01*
X138368267Y-67097388D01*
X138460109Y-66950638D01*
X138533766Y-66826419D01*
X138577683Y-66743029D01*
X138584974Y-66720571D01*
X138549027Y-66690237D01*
X138455617Y-66637010D01*
X138324713Y-66572237D01*
X138320391Y-66570223D01*
X138176704Y-66500160D01*
X138058221Y-66436624D01*
X137993334Y-66395314D01*
X137902826Y-66342178D01*
X137824000Y-66311659D01*
X137735706Y-66279116D01*
X137605187Y-66224438D01*
X138127570Y-66224438D01*
X138170259Y-66247716D01*
X138264950Y-66295679D01*
X138344367Y-66334956D01*
X138468408Y-66401680D01*
X138562914Y-66463080D01*
X138592967Y-66489561D01*
X138645036Y-66535614D01*
X138690187Y-66524783D01*
X138740055Y-66448322D01*
X138787155Y-66343583D01*
X138822080Y-66250851D01*
X139358777Y-66250851D01*
X139403390Y-66307262D01*
X139494701Y-66396185D01*
X139615529Y-66503391D01*
X139748689Y-66614656D01*
X139876998Y-66715752D01*
X139983274Y-66792454D01*
X140050332Y-66830534D01*
X140060953Y-66832195D01*
X140114492Y-66785520D01*
X140154332Y-66688908D01*
X140156394Y-66679516D01*
X140166204Y-66586372D01*
X140169840Y-66453067D01*
X140167957Y-66306414D01*
X140161209Y-66173226D01*
X140150251Y-66080318D01*
X140141132Y-66054182D01*
X140096698Y-66056703D01*
X139994351Y-66076432D01*
X139855630Y-66107955D01*
X139702070Y-66145856D01*
X139555208Y-66184723D01*
X139436582Y-66219141D01*
X139367729Y-66243696D01*
X139358777Y-66250851D01*
X138822080Y-66250851D01*
X138933995Y-65953698D01*
X139025538Y-65609717D01*
X139040426Y-65493151D01*
X139435974Y-65493151D01*
X139473798Y-65525175D01*
X139512711Y-65528666D01*
X139589355Y-65552151D01*
X139704179Y-65612839D01*
X139798461Y-65674244D01*
X139942317Y-65767408D01*
X140047786Y-65818184D01*
X140103836Y-65821860D01*
X140110000Y-65807342D01*
X140091667Y-65749403D01*
X140045982Y-65646038D01*
X139986913Y-65525721D01*
X139928430Y-65416926D01*
X139885008Y-65348750D01*
X139811748Y-65287810D01*
X139722981Y-65285377D01*
X139598409Y-65342102D01*
X139570250Y-65358869D01*
X139469114Y-65434795D01*
X139435974Y-65493151D01*
X139040426Y-65493151D01*
X139065500Y-65296834D01*
X139067824Y-65224985D01*
X139065169Y-65025975D01*
X139049486Y-64906636D01*
X139019018Y-64862725D01*
X138972008Y-64889998D01*
X138943917Y-64925889D01*
X138871721Y-65019490D01*
X138823191Y-65073761D01*
X138782349Y-65127983D01*
X138711458Y-65235097D01*
X138619499Y-65380243D01*
X138515457Y-65548563D01*
X138408314Y-65725195D01*
X138307054Y-65895281D01*
X138220659Y-66043960D01*
X138158114Y-66156373D01*
X138128402Y-66217659D01*
X138127570Y-66224438D01*
X137605187Y-66224438D01*
X137597892Y-66221382D01*
X137437421Y-66149797D01*
X137405068Y-66134859D01*
X137016692Y-65978883D01*
X136651513Y-65886213D01*
X136284380Y-65850645D01*
X136250245Y-65850032D01*
X136042029Y-65856910D01*
X135886881Y-65892069D01*
X135758497Y-65968603D01*
X135630570Y-66099607D01*
X135552658Y-66197298D01*
X135475850Y-66310865D01*
X135439398Y-66414522D01*
X135439359Y-66536900D01*
X135212190Y-66536900D01*
X135217329Y-66418593D01*
X135275268Y-66181492D01*
X135375161Y-65980528D01*
X135433072Y-65908721D01*
X135601225Y-65761480D01*
X135780010Y-65670172D01*
X135991895Y-65627074D01*
X136259346Y-65624462D01*
X136259926Y-65624490D01*
X136643267Y-65667610D01*
X137017822Y-65753934D01*
X137340302Y-65871922D01*
X137472870Y-65928902D01*
X137615578Y-65985040D01*
X137746471Y-66032401D01*
X137843591Y-66063045D01*
X137884981Y-66069035D01*
X137885080Y-66068868D01*
X137909129Y-66030008D01*
X137963965Y-65943753D01*
X137999366Y-65888500D01*
X138090493Y-65743936D01*
X138189825Y-65582567D01*
X138222395Y-65528666D01*
X138301417Y-65404877D01*
X138411340Y-65242749D01*
X138532156Y-65071595D01*
X138569148Y-65020666D01*
X138684026Y-64861700D01*
X138789818Y-64711690D01*
X138869100Y-64595468D01*
X138888491Y-64565583D01*
X138979438Y-64462761D01*
X139083081Y-64433006D01*
X139209450Y-64476548D01*
X139209450Y-64476548D01*
G37*
X139209450Y-64476548D02*
X139348000Y-64576166D01*
X139453841Y-64658683D01*
X139536407Y-64712473D01*
X139566815Y-64724333D01*
X139624999Y-64754241D01*
X139721074Y-64833071D01*
X139838992Y-64944486D01*
X139962703Y-65072147D01*
X140076161Y-65199715D01*
X140163316Y-65310851D01*
X140198993Y-65367959D01*
X140320786Y-65626913D01*
X140396640Y-65846432D01*
X140432997Y-66053601D01*
X140436300Y-66275502D01*
X140431941Y-66347223D01*
X140416286Y-66537919D01*
X140398630Y-66720966D01*
X140382495Y-66860206D01*
X140380757Y-66872750D01*
X140355107Y-67052666D01*
X140573323Y-67052666D01*
X140811377Y-67081762D01*
X140990111Y-67168226D01*
X141104117Y-67305280D01*
X141161497Y-67435499D01*
X141161458Y-67512798D01*
X141095510Y-67550170D01*
X140955166Y-67560604D01*
X140937229Y-67560666D01*
X140774743Y-67567390D01*
X140573216Y-67584993D01*
X140381514Y-67608946D01*
X140213529Y-67636853D01*
X140108148Y-67665452D01*
X140043764Y-67704190D01*
X139998769Y-67762516D01*
X139988202Y-67780933D01*
X139839009Y-68029790D01*
X139665173Y-68279439D01*
X139453868Y-68546954D01*
X139192269Y-68849409D01*
X139151348Y-68895017D01*
X138993513Y-69068900D01*
X138853151Y-69220963D01*
X138740987Y-69339788D01*
X138667748Y-69413952D01*
X138646530Y-69432536D01*
X138589124Y-69477018D01*
X138495357Y-69557253D01*
X138433476Y-69612491D01*
X138268500Y-69762077D01*
X138670667Y-69737895D01*
X138872124Y-69728649D01*
X139012207Y-69731201D01*
X139113661Y-69747743D01*
X139199233Y-69780465D01*
X139219560Y-69790773D01*
X139321274Y-69864539D01*
X139414302Y-69964917D01*
X139481867Y-70068819D01*
X139507189Y-70153155D01*
X139500814Y-70177814D01*
X139450902Y-70197537D01*
X139337210Y-70218467D01*
X139180494Y-70237140D01*
X139108335Y-70243360D01*
X138938103Y-70260925D01*
X138733855Y-70288770D01*
X138514481Y-70323501D01*
X138298875Y-70361724D01*
X138105929Y-70400045D01*
X137954534Y-70435071D01*
X137863583Y-70463406D01*
X137852683Y-70468936D01*
X137822091Y-70513417D01*
X137763758Y-70618771D01*
X137685504Y-70769034D01*
X137595149Y-70948241D01*
X137500513Y-71140428D01*
X137409416Y-71329632D01*
X137329678Y-71499888D01*
X137269118Y-71635232D01*
X137235557Y-71719699D01*
X137231334Y-71737403D01*
X137269210Y-71745042D01*
X137371079Y-71732865D01*
X137519295Y-71703512D01*
X137622917Y-71678809D01*
X137851605Y-71628975D01*
X138104485Y-71585997D01*
X138334084Y-71557721D01*
X138376427Y-71554276D01*
X138570385Y-71544192D01*
X138708694Y-71548806D01*
X138819552Y-71571076D01*
X138926760Y-71612005D01*
X139069753Y-71698879D01*
X139170991Y-71806138D01*
X139215950Y-71915122D01*
X139209325Y-71975030D01*
X139163523Y-72009850D01*
X139050882Y-72037041D01*
X138863396Y-72058363D01*
X138812117Y-72062381D01*
X138611505Y-72083642D01*
X138364210Y-72119341D01*
X138105828Y-72163961D01*
X137929834Y-72199173D01*
X137708860Y-72244686D01*
X137495510Y-72285168D01*
X137315821Y-72315873D01*
X137206339Y-72331026D01*
X137073193Y-72339987D01*
X136992526Y-72325504D01*
X136933480Y-72279074D01*
X136908456Y-72248957D01*
X136838220Y-72142532D01*
X136764650Y-72006322D01*
X136746338Y-71967409D01*
X136702888Y-71862679D01*
X136687940Y-71781840D01*
X136701035Y-71690019D01*
X136740899Y-71554928D01*
X136787614Y-71423697D01*
X136860119Y-71239899D01*
X136948560Y-71027765D01*
X137043083Y-70811526D01*
X137044428Y-70808529D01*
X137129201Y-70618826D01*
X137199813Y-70459217D01*
X137249842Y-70344340D01*
X137272864Y-70288835D01*
X137273667Y-70286063D01*
X137239156Y-70293147D01*
X137152883Y-70325097D01*
X137117173Y-70339707D01*
X136974840Y-70379394D01*
X136781905Y-70407371D01*
X136564851Y-70422642D01*
X136350162Y-70424211D01*
X136164321Y-70411083D01*
X136033811Y-70382261D01*
X136029697Y-70380593D01*
X135894003Y-70335206D01*
X135736029Y-70297178D01*
X135703022Y-70291247D01*
X135580209Y-70254090D01*
X135422649Y-70182463D01*
X135246446Y-70086719D01*
X135067705Y-69977213D01*
X135064910Y-69975302D01*
X135742816Y-69975302D01*
X135748174Y-70061438D01*
X135761215Y-70086636D01*
X135826201Y-70106185D01*
X135955537Y-70130321D01*
X136129270Y-70155789D01*
X136327447Y-70179330D01*
X136331750Y-70179782D01*
X136380703Y-70160882D01*
X136384667Y-70146645D01*
X136354298Y-70102964D01*
X136275564Y-70027852D01*
X136231550Y-69990563D01*
X136640756Y-69990563D01*
X136644342Y-70102528D01*
X136656951Y-70160166D01*
X136682390Y-70178638D01*
X136724462Y-70173110D01*
X136733184Y-70170964D01*
X136836600Y-70148989D01*
X136973921Y-70124193D01*
X137010022Y-70118296D01*
X137126134Y-70092772D01*
X137202014Y-70062975D01*
X137213603Y-70052772D01*
X137270397Y-70021287D01*
X137313315Y-70016000D01*
X137406060Y-69985354D01*
X137439571Y-69956631D01*
X137459190Y-69905435D01*
X137418224Y-69849884D01*
X137367928Y-69811165D01*
X137297292Y-69766858D01*
X137181869Y-69700320D01*
X137042221Y-69622709D01*
X136898908Y-69545184D01*
X136772492Y-69478906D01*
X136683533Y-69435032D01*
X136653706Y-69423540D01*
X136650496Y-69462647D01*
X136646996Y-69567657D01*
X136643758Y-69719809D01*
X136642390Y-69809106D01*
X136640756Y-69990563D01*
X136231550Y-69990563D01*
X136167027Y-69935900D01*
X136047247Y-69841698D01*
X135934785Y-69759838D01*
X135848203Y-69704910D01*
X135806060Y-69691505D01*
X135805890Y-69691665D01*
X135775502Y-69756567D01*
X135753201Y-69862395D01*
X135742816Y-69975302D01*
X135064910Y-69975302D01*
X134902531Y-69864297D01*
X134767029Y-69758324D01*
X134677305Y-69669649D01*
X134649000Y-69613656D01*
X134675054Y-69563454D01*
X134739254Y-69474880D01*
X135072334Y-69474880D01*
X135109521Y-69497090D01*
X135206112Y-69500447D01*
X135339653Y-69487716D01*
X135487687Y-69461663D01*
X135627759Y-69425054D01*
X135703350Y-69397148D01*
X135939364Y-69292281D01*
X136121208Y-69205210D01*
X136273572Y-69122922D01*
X136421145Y-69032401D01*
X136523136Y-68965042D01*
X136695742Y-68848903D01*
X137452985Y-68848903D01*
X137458840Y-68893410D01*
X137495138Y-68979272D01*
X137498280Y-68985482D01*
X137551866Y-69116007D01*
X137591451Y-69252610D01*
X137622673Y-69371359D01*
X137655506Y-69460390D01*
X137657493Y-69464277D01*
X137692216Y-69554407D01*
X137716416Y-69645583D01*
X137748411Y-69729930D01*
X137786455Y-69762000D01*
X137840586Y-69737903D01*
X137940216Y-69674497D01*
X138064528Y-69585107D01*
X138073897Y-69578007D01*
X138263938Y-69431442D01*
X138392867Y-69326683D01*
X138468746Y-69256717D01*
X138499633Y-69214528D01*
X138501334Y-69205979D01*
X138463873Y-69182013D01*
X138369596Y-69156111D01*
X138321417Y-69147092D01*
X138180050Y-69114136D01*
X138056651Y-69069921D01*
X138035667Y-69059467D01*
X137934156Y-69010759D01*
X137803106Y-68956678D01*
X137666178Y-68905775D01*
X137547035Y-68866601D01*
X137469337Y-68847706D01*
X137452985Y-68848903D01*
X136695742Y-68848903D01*
X136809773Y-68772177D01*
X136630818Y-68589835D01*
X136522425Y-68487612D01*
X136427132Y-68411782D01*
X136378415Y-68384182D01*
X136297811Y-68394761D01*
X136179302Y-68454215D01*
X136122567Y-68492290D01*
X136014852Y-68576332D01*
X135875970Y-68693912D01*
X135718366Y-68833386D01*
X135554484Y-68983112D01*
X135396770Y-69131446D01*
X135257666Y-69266747D01*
X135149618Y-69377371D01*
X135085069Y-69451674D01*
X135072334Y-69474880D01*
X134739254Y-69474880D01*
X134742621Y-69470235D01*
X134835806Y-69353211D01*
X134938716Y-69231599D01*
X135035456Y-69124613D01*
X135110132Y-69051467D01*
X135121986Y-69041852D01*
X135161788Y-69007322D01*
X135252876Y-68926287D01*
X135383745Y-68809042D01*
X135542892Y-68665880D01*
X135638668Y-68579499D01*
X136126865Y-68138793D01*
X136055067Y-68017249D01*
X135974105Y-67910528D01*
X135888414Y-67833553D01*
X135819226Y-67766834D01*
X135721156Y-67645481D01*
X135607068Y-67488519D01*
X135489829Y-67314973D01*
X135382304Y-67143867D01*
X135297358Y-66994227D01*
X135248710Y-66887599D01*
X135206694Y-66663429D01*
X135212190Y-66536900D01*
X135439359Y-66536900D01*
X135471786Y-66706632D01*
X135478539Y-66735166D01*
X135522270Y-66858330D01*
X135599577Y-67024802D01*
X135696266Y-67207986D01*
X135798141Y-67381287D01*
X135891007Y-67518111D01*
X135907855Y-67539500D01*
X136018844Y-67668736D01*
X136159023Y-67822299D01*
X136316832Y-67988626D01*
X136480712Y-68156155D01*
X136639101Y-68313325D01*
X136780439Y-68448573D01*
X136893167Y-68550337D01*
X136965724Y-68607054D01*
X136983079Y-68614897D01*
X137034696Y-68586913D01*
X137131954Y-68506998D01*
X137263292Y-68385642D01*
X137417146Y-68233333D01*
X137512245Y-68134836D01*
X137633684Y-68005753D01*
X138205000Y-68005753D01*
X138221927Y-68058261D01*
X138266405Y-68164410D01*
X138328978Y-68301690D01*
X138332000Y-68308096D01*
X138394847Y-68443425D01*
X138440258Y-68545624D01*
X138458933Y-68593721D01*
X138459000Y-68594436D01*
X138476231Y-68656926D01*
X138518678Y-68756406D01*
X138572471Y-68865109D01*
X138623742Y-68955272D01*
X138658622Y-68999131D01*
X138661589Y-69000000D01*
X138708978Y-68972651D01*
X138795676Y-68901544D01*
X138885343Y-68818764D01*
X139008024Y-68692000D01*
X139132620Y-68549657D01*
X139247573Y-68406847D01*
X139341323Y-68278681D01*
X139402311Y-68180270D01*
X139418977Y-68126726D01*
X139417080Y-68123635D01*
X139365028Y-68107924D01*
X139249553Y-68089512D01*
X139091701Y-68071507D01*
X139019518Y-68064955D01*
X138816737Y-68046427D01*
X138614964Y-68025571D01*
X138452079Y-68006348D01*
X138427250Y-68003013D01*
X138303811Y-67991591D01*
X138223113Y-67995036D01*
X138205000Y-68005753D01*
X137633684Y-68005753D01*
X137681937Y-67954463D01*
X137841066Y-67782165D01*
X137975693Y-67633259D01*
X138071883Y-67523059D01*
X138099167Y-67489859D01*
X138176241Y-67385295D01*
X138269792Y-67248373D01*
X138328801Y-67157898D01*
X138932244Y-67157898D01*
X138965473Y-67202402D01*
X139000660Y-67230182D01*
X139070646Y-67297148D01*
X139159795Y-67402544D01*
X139199251Y-67454833D01*
X139297810Y-67583434D01*
X139403189Y-67709232D01*
X139499741Y-67814869D01*
X139571820Y-67882991D01*
X139599721Y-67899065D01*
X139634164Y-67866086D01*
X139689818Y-67784798D01*
X139703858Y-67761482D01*
X139815587Y-67559944D01*
X139900998Y-67382994D01*
X139953799Y-67245239D01*
X139967700Y-67161288D01*
X139965729Y-67153386D01*
X139935964Y-67127345D01*
X139862308Y-67109867D01*
X139732811Y-67099638D01*
X139535520Y-67095347D01*
X139433995Y-67095000D01*
X139199320Y-67097836D01*
X139042149Y-67107805D01*
X138955463Y-67127096D01*
X138932244Y-67157898D01*
X138328801Y-67157898D01*
X138368267Y-67097388D01*
X138460109Y-66950638D01*
X138533766Y-66826419D01*
X138577683Y-66743029D01*
X138584974Y-66720571D01*
X138549027Y-66690237D01*
X138455617Y-66637010D01*
X138324713Y-66572237D01*
X138320391Y-66570223D01*
X138176704Y-66500160D01*
X138058221Y-66436624D01*
X137993334Y-66395314D01*
X137902826Y-66342178D01*
X137824000Y-66311659D01*
X137735706Y-66279116D01*
X137605187Y-66224438D01*
X138127570Y-66224438D01*
X138170259Y-66247716D01*
X138264950Y-66295679D01*
X138344367Y-66334956D01*
X138468408Y-66401680D01*
X138562914Y-66463080D01*
X138592967Y-66489561D01*
X138645036Y-66535614D01*
X138690187Y-66524783D01*
X138740055Y-66448322D01*
X138787155Y-66343583D01*
X138822080Y-66250851D01*
X139358777Y-66250851D01*
X139403390Y-66307262D01*
X139494701Y-66396185D01*
X139615529Y-66503391D01*
X139748689Y-66614656D01*
X139876998Y-66715752D01*
X139983274Y-66792454D01*
X140050332Y-66830534D01*
X140060953Y-66832195D01*
X140114492Y-66785520D01*
X140154332Y-66688908D01*
X140156394Y-66679516D01*
X140166204Y-66586372D01*
X140169840Y-66453067D01*
X140167957Y-66306414D01*
X140161209Y-66173226D01*
X140150251Y-66080318D01*
X140141132Y-66054182D01*
X140096698Y-66056703D01*
X139994351Y-66076432D01*
X139855630Y-66107955D01*
X139702070Y-66145856D01*
X139555208Y-66184723D01*
X139436582Y-66219141D01*
X139367729Y-66243696D01*
X139358777Y-66250851D01*
X138822080Y-66250851D01*
X138933995Y-65953698D01*
X139025538Y-65609717D01*
X139040426Y-65493151D01*
X139435974Y-65493151D01*
X139473798Y-65525175D01*
X139512711Y-65528666D01*
X139589355Y-65552151D01*
X139704179Y-65612839D01*
X139798461Y-65674244D01*
X139942317Y-65767408D01*
X140047786Y-65818184D01*
X140103836Y-65821860D01*
X140110000Y-65807342D01*
X140091667Y-65749403D01*
X140045982Y-65646038D01*
X139986913Y-65525721D01*
X139928430Y-65416926D01*
X139885008Y-65348750D01*
X139811748Y-65287810D01*
X139722981Y-65285377D01*
X139598409Y-65342102D01*
X139570250Y-65358869D01*
X139469114Y-65434795D01*
X139435974Y-65493151D01*
X139040426Y-65493151D01*
X139065500Y-65296834D01*
X139067824Y-65224985D01*
X139065169Y-65025975D01*
X139049486Y-64906636D01*
X139019018Y-64862725D01*
X138972008Y-64889998D01*
X138943917Y-64925889D01*
X138871721Y-65019490D01*
X138823191Y-65073761D01*
X138782349Y-65127983D01*
X138711458Y-65235097D01*
X138619499Y-65380243D01*
X138515457Y-65548563D01*
X138408314Y-65725195D01*
X138307054Y-65895281D01*
X138220659Y-66043960D01*
X138158114Y-66156373D01*
X138128402Y-66217659D01*
X138127570Y-66224438D01*
X137605187Y-66224438D01*
X137597892Y-66221382D01*
X137437421Y-66149797D01*
X137405068Y-66134859D01*
X137016692Y-65978883D01*
X136651513Y-65886213D01*
X136284380Y-65850645D01*
X136250245Y-65850032D01*
X136042029Y-65856910D01*
X135886881Y-65892069D01*
X135758497Y-65968603D01*
X135630570Y-66099607D01*
X135552658Y-66197298D01*
X135475850Y-66310865D01*
X135439398Y-66414522D01*
X135439359Y-66536900D01*
X135212190Y-66536900D01*
X135217329Y-66418593D01*
X135275268Y-66181492D01*
X135375161Y-65980528D01*
X135433072Y-65908721D01*
X135601225Y-65761480D01*
X135780010Y-65670172D01*
X135991895Y-65627074D01*
X136259346Y-65624462D01*
X136259926Y-65624490D01*
X136643267Y-65667610D01*
X137017822Y-65753934D01*
X137340302Y-65871922D01*
X137472870Y-65928902D01*
X137615578Y-65985040D01*
X137746471Y-66032401D01*
X137843591Y-66063045D01*
X137884981Y-66069035D01*
X137885080Y-66068868D01*
X137909129Y-66030008D01*
X137963965Y-65943753D01*
X137999366Y-65888500D01*
X138090493Y-65743936D01*
X138189825Y-65582567D01*
X138222395Y-65528666D01*
X138301417Y-65404877D01*
X138411340Y-65242749D01*
X138532156Y-65071595D01*
X138569148Y-65020666D01*
X138684026Y-64861700D01*
X138789818Y-64711690D01*
X138869100Y-64595468D01*
X138888491Y-64565583D01*
X138979438Y-64462761D01*
X139083081Y-64433006D01*
X139209450Y-64476548D01*
D12*
X117115000Y-43250000D02*
X115845000Y-43250000D01*
X117115000Y-73730000D02*
X115845000Y-73730000D01*
X166645000Y-73730000D02*
X167915000Y-73730000D01*
X166645000Y-43250000D02*
X167915000Y-43250000D01*
X115845000Y-43250000D02*
X115845000Y-44520000D01*
X115845000Y-73730000D02*
X115845000Y-72460000D01*
X167915000Y-73730000D02*
X167915000Y-72460000D01*
X167915000Y-43250000D02*
X167915000Y-44520000D01*
X103500000Y-73000000D02*
X114500000Y-73000000D01*
X103500000Y-43000000D02*
X114500000Y-43000000D01*
X115500000Y-42000000D02*
X115500000Y-43000000D01*
X115500000Y-42000000D02*
X114500000Y-42000000D01*
X102500000Y-42000000D02*
X102500000Y-43000000D01*
X102500000Y-42000000D02*
X103500000Y-42000000D01*
X115500000Y-80500000D02*
X115500000Y-79500000D01*
X115500000Y-80500000D02*
X114500000Y-80500000D01*
X102500000Y-80500000D02*
X103500000Y-80500000D01*
X102500000Y-80500000D02*
X102500000Y-79500000D01*
D13*
X166250000Y-81000000D02*
X165250000Y-81000000D01*
X166250000Y-80500000D02*
X166250000Y-81000000D01*
X159250000Y-81000000D02*
X160250000Y-81000000D01*
X159250000Y-80500000D02*
X159250000Y-81000000D01*
X166250000Y-77000000D02*
X165250000Y-77000000D01*
X166250000Y-77500000D02*
X166250000Y-77000000D01*
X159250000Y-77000000D02*
X160250000Y-77000000D01*
X159250000Y-77500000D02*
X159250000Y-77000000D01*
X123750000Y-76250000D02*
X123250000Y-76250000D01*
X118750000Y-76250000D02*
X119250000Y-76250000D01*
X123750000Y-76750000D02*
X123750000Y-76250000D01*
X118750000Y-76250000D02*
X118750000Y-76750000D01*
X123750000Y-80750000D02*
X123750000Y-80250000D01*
X123250000Y-80750000D02*
X123750000Y-80750000D01*
X118750000Y-80750000D02*
X118750000Y-80250000D01*
X118750000Y-80750000D02*
X119250000Y-80750000D01*
D12*
X169250000Y-65940000D02*
X168500000Y-65940000D01*
X167500000Y-65940000D02*
X166750000Y-65940000D01*
X166750000Y-65940000D02*
X166750000Y-65190000D01*
X169250000Y-65190000D02*
X169250000Y-65940000D01*
X166750000Y-55750000D02*
X166750000Y-56500000D01*
X167500000Y-55750000D02*
X166750000Y-55750000D01*
X169250000Y-55750000D02*
X168500000Y-55750000D01*
X169250000Y-55750000D02*
X169250000Y-56500000D01*
X166750000Y-67640000D02*
X166750000Y-66890000D01*
X169250000Y-66890000D02*
X169250000Y-67640000D01*
X169250000Y-72040000D02*
X169250000Y-71290000D01*
X166750000Y-66890000D02*
X167500000Y-66890000D01*
X168500000Y-66890000D02*
X169250000Y-66890000D01*
X168500000Y-72040000D02*
X169250000Y-72040000D01*
X166750000Y-72040000D02*
X167500000Y-72040000D01*
X166750000Y-72040000D02*
X166750000Y-71290000D01*
D13*
X142000000Y-77500000D02*
X142000000Y-77000000D01*
X142000000Y-77000000D02*
X143000000Y-77000000D01*
X149000000Y-77500000D02*
X149000000Y-77000000D01*
X149000000Y-77000000D02*
X148000000Y-77000000D01*
X142000000Y-80500000D02*
X142000000Y-81000000D01*
X142000000Y-81000000D02*
X143000000Y-81000000D01*
X149000000Y-80500000D02*
X149000000Y-81000000D01*
X149000000Y-81000000D02*
X148000000Y-81000000D01*
X135750000Y-81000000D02*
X134750000Y-81000000D01*
X135750000Y-80500000D02*
X135750000Y-81000000D01*
X128750000Y-81000000D02*
X129750000Y-81000000D01*
X128750000Y-80500000D02*
X128750000Y-81000000D01*
X135750000Y-77000000D02*
X134750000Y-77000000D01*
X135750000Y-77500000D02*
X135750000Y-77000000D01*
X128750000Y-77000000D02*
X129750000Y-77000000D01*
X128750000Y-77500000D02*
X128750000Y-77000000D01*
D10*
X164833333Y-44702380D02*
X164833333Y-43702380D01*
X164833333Y-44178571D02*
X165404761Y-44178571D01*
X165404761Y-44702380D02*
X165404761Y-43702380D01*
X166357142Y-44702380D02*
X165880952Y-44702380D01*
X165880952Y-43702380D01*
X167214285Y-44702380D02*
X166642857Y-44702380D01*
X166928571Y-44702380D02*
X166928571Y-43702380D01*
X166833333Y-43845238D01*
X166738095Y-43940476D01*
X166642857Y-43988095D01*
X111333333Y-41952380D02*
X111333333Y-40952380D01*
X111333333Y-41428571D02*
X111904761Y-41428571D01*
X111904761Y-41952380D02*
X111904761Y-40952380D01*
X112857142Y-41952380D02*
X112380952Y-41952380D01*
X112380952Y-40952380D01*
X113142857Y-41047619D02*
X113190476Y-41000000D01*
X113285714Y-40952380D01*
X113523809Y-40952380D01*
X113619047Y-41000000D01*
X113666666Y-41047619D01*
X113714285Y-41142857D01*
X113714285Y-41238095D01*
X113666666Y-41380952D01*
X113095238Y-41952380D01*
X113714285Y-41952380D01*
X157011904Y-77452380D02*
X157011904Y-76452380D01*
X157583333Y-77452380D02*
X157154761Y-76880952D01*
X157583333Y-76452380D02*
X157011904Y-77023809D01*
X157916666Y-76452380D02*
X158535714Y-76452380D01*
X158202380Y-76833333D01*
X158345238Y-76833333D01*
X158440476Y-76880952D01*
X158488095Y-76928571D01*
X158535714Y-77023809D01*
X158535714Y-77261904D01*
X158488095Y-77357142D01*
X158440476Y-77404761D01*
X158345238Y-77452380D01*
X158059523Y-77452380D01*
X157964285Y-77404761D01*
X157916666Y-77357142D01*
X118202380Y-79238095D02*
X117202380Y-79238095D01*
X117202380Y-79000000D01*
X117250000Y-78857142D01*
X117345238Y-78761904D01*
X117440476Y-78714285D01*
X117630952Y-78666666D01*
X117773809Y-78666666D01*
X117964285Y-78714285D01*
X118059523Y-78761904D01*
X118154761Y-78857142D01*
X118202380Y-79000000D01*
X118202380Y-79238095D01*
X118202380Y-78238095D02*
X117202380Y-78238095D01*
X117202380Y-78000000D01*
X117250000Y-77857142D01*
X117345238Y-77761904D01*
X117440476Y-77714285D01*
X117630952Y-77666666D01*
X117773809Y-77666666D01*
X117964285Y-77714285D01*
X118059523Y-77761904D01*
X118154761Y-77857142D01*
X118202380Y-78000000D01*
X118202380Y-78238095D01*
X118202380Y-77190476D02*
X118202380Y-77000000D01*
X118154761Y-76904761D01*
X118107142Y-76857142D01*
X117964285Y-76761904D01*
X117773809Y-76714285D01*
X117392857Y-76714285D01*
X117297619Y-76761904D01*
X117250000Y-76809523D01*
X117202380Y-76904761D01*
X117202380Y-77095238D01*
X117250000Y-77190476D01*
X117297619Y-77238095D01*
X117392857Y-77285714D01*
X117630952Y-77285714D01*
X117726190Y-77238095D01*
X117773809Y-77190476D01*
X117821428Y-77095238D01*
X117821428Y-76904761D01*
X117773809Y-76809523D01*
X117726190Y-76761904D01*
X117630952Y-76714285D01*
X165452380Y-59559523D02*
X166452380Y-58892857D01*
X165452380Y-58892857D02*
X166452380Y-59559523D01*
X166452380Y-58511904D02*
X165452380Y-58511904D01*
X165452380Y-58130952D01*
X165500000Y-58035714D01*
X165547619Y-57988095D01*
X165642857Y-57940476D01*
X165785714Y-57940476D01*
X165880952Y-57988095D01*
X165928571Y-58035714D01*
X165976190Y-58130952D01*
X165976190Y-58511904D01*
X165785714Y-57083333D02*
X166452380Y-57083333D01*
X165404761Y-57321428D02*
X166119047Y-57559523D01*
X166119047Y-56940476D01*
X165452380Y-70059523D02*
X166452380Y-69392857D01*
X165452380Y-69392857D02*
X166452380Y-70059523D01*
X166452380Y-68488095D02*
X166452380Y-69059523D01*
X166452380Y-68773809D02*
X165452380Y-68773809D01*
X165595238Y-68869047D01*
X165690476Y-68964285D01*
X165738095Y-69059523D01*
X139511904Y-77452380D02*
X139511904Y-76452380D01*
X140083333Y-77452380D02*
X139654761Y-76880952D01*
X140083333Y-76452380D02*
X139511904Y-77023809D01*
X141035714Y-77452380D02*
X140464285Y-77452380D01*
X140750000Y-77452380D02*
X140750000Y-76452380D01*
X140654761Y-76595238D01*
X140559523Y-76690476D01*
X140464285Y-76738095D01*
X126261904Y-77452380D02*
X126261904Y-76452380D01*
X126833333Y-77452380D02*
X126404761Y-76880952D01*
X126833333Y-76452380D02*
X126261904Y-77023809D01*
X127214285Y-76547619D02*
X127261904Y-76500000D01*
X127357142Y-76452380D01*
X127595238Y-76452380D01*
X127690476Y-76500000D01*
X127738095Y-76547619D01*
X127785714Y-76642857D01*
X127785714Y-76738095D01*
X127738095Y-76880952D01*
X127166666Y-77452380D01*
X127785714Y-77452380D01*
M02*
