G04 #@! TF.GenerationSoftware,KiCad,Pcbnew,(5.1.2-1)-1*
G04 #@! TF.CreationDate,2019-10-19T13:23:49+03:00*
G04 #@! TF.ProjectId,mag,6d61672e-6b69-4636-9164-5f7063625858,rev?*
G04 #@! TF.SameCoordinates,Original*
G04 #@! TF.FileFunction,Soldermask,Bot*
G04 #@! TF.FilePolarity,Negative*
%FSLAX46Y46*%
G04 Gerber Fmt 4.6, Leading zero omitted, Abs format (unit mm)*
G04 Created by KiCad (PCBNEW (5.1.2-1)-1) date 2019-10-19 13:23:49*
%MOMM*%
%LPD*%
G04 APERTURE LIST*
%ADD10C,0.100000*%
G04 APERTURE END LIST*
D10*
G36*
X127925000Y-80300000D02*
G01*
X126575000Y-80300000D01*
X126575000Y-79700000D01*
X127925000Y-79700000D01*
X127925000Y-80300000D01*
X127925000Y-80300000D01*
G37*
G36*
X110980000Y-79900000D02*
G01*
X109180000Y-79900000D01*
X109180000Y-78100000D01*
X110980000Y-78100000D01*
X110980000Y-79900000D01*
X110980000Y-79900000D01*
G37*
G36*
X108440000Y-79900000D02*
G01*
X106640000Y-79900000D01*
X106640000Y-78100000D01*
X108440000Y-78100000D01*
X108440000Y-79900000D01*
X108440000Y-79900000D01*
G37*
G36*
X105262520Y-78134586D02*
G01*
X105262522Y-78134587D01*
X105262523Y-78134587D01*
X105323025Y-78159648D01*
X105426310Y-78202430D01*
X105573717Y-78300924D01*
X105699076Y-78426283D01*
X105797570Y-78573690D01*
X105865414Y-78737480D01*
X105900000Y-78911358D01*
X105900000Y-79088642D01*
X105865414Y-79262520D01*
X105797570Y-79426310D01*
X105699076Y-79573717D01*
X105573717Y-79699076D01*
X105426310Y-79797570D01*
X105323025Y-79840352D01*
X105262523Y-79865413D01*
X105262522Y-79865413D01*
X105262520Y-79865414D01*
X105088642Y-79900000D01*
X104911358Y-79900000D01*
X104737480Y-79865414D01*
X104737478Y-79865413D01*
X104737477Y-79865413D01*
X104676975Y-79840352D01*
X104573690Y-79797570D01*
X104426283Y-79699076D01*
X104300924Y-79573717D01*
X104202430Y-79426310D01*
X104134586Y-79262520D01*
X104100000Y-79088642D01*
X104100000Y-78911358D01*
X104134586Y-78737480D01*
X104202430Y-78573690D01*
X104300924Y-78426283D01*
X104426283Y-78300924D01*
X104573690Y-78202430D01*
X104676975Y-78159648D01*
X104737477Y-78134587D01*
X104737478Y-78134587D01*
X104737480Y-78134586D01*
X104911358Y-78100000D01*
X105088642Y-78100000D01*
X105262520Y-78134586D01*
X105262520Y-78134586D01*
G37*
G36*
X113520000Y-79900000D02*
G01*
X111720000Y-79900000D01*
X111720000Y-78100000D01*
X113520000Y-78100000D01*
X113520000Y-79900000D01*
X113520000Y-79900000D01*
G37*
G36*
X155300000Y-79675000D02*
G01*
X154700000Y-79675000D01*
X154700000Y-78325000D01*
X155300000Y-78325000D01*
X155300000Y-79675000D01*
X155300000Y-79675000D01*
G37*
G36*
X153550000Y-79675000D02*
G01*
X152950000Y-79675000D01*
X152950000Y-78325000D01*
X153550000Y-78325000D01*
X153550000Y-79675000D01*
X153550000Y-79675000D01*
G37*
G36*
X127925000Y-78550000D02*
G01*
X126575000Y-78550000D01*
X126575000Y-77950000D01*
X127925000Y-77950000D01*
X127925000Y-78550000D01*
X127925000Y-78550000D01*
G37*
G36*
X113700000Y-73700001D02*
G01*
X113701921Y-73719510D01*
X113707612Y-73738269D01*
X113716853Y-73755557D01*
X113729289Y-73770711D01*
X113744443Y-73783147D01*
X113761731Y-73792388D01*
X113780490Y-73798079D01*
X113799999Y-73800000D01*
X115150000Y-73800000D01*
X115150000Y-76200000D01*
X113799999Y-76200000D01*
X113780490Y-76201921D01*
X113761731Y-76207612D01*
X113744443Y-76216853D01*
X113729289Y-76229289D01*
X113716853Y-76244443D01*
X113707612Y-76261731D01*
X113701921Y-76280490D01*
X113700000Y-76299999D01*
X113700000Y-77125000D01*
X112300000Y-77125000D01*
X112300000Y-76168264D01*
X112298079Y-76148755D01*
X112292388Y-76129996D01*
X112283147Y-76112708D01*
X112270711Y-76097554D01*
X112255557Y-76085118D01*
X112238269Y-76075877D01*
X112219510Y-76070186D01*
X112200001Y-76068265D01*
X112180492Y-76070186D01*
X112161733Y-76075877D01*
X112144445Y-76085118D01*
X112122702Y-76104824D01*
X112092105Y-76142105D01*
X112061653Y-76167098D01*
X112026907Y-76185669D01*
X111989208Y-76197105D01*
X111974512Y-76198553D01*
X111959817Y-76200000D01*
X111040183Y-76200000D01*
X111025488Y-76198553D01*
X111010792Y-76197105D01*
X110973093Y-76185669D01*
X110938347Y-76167098D01*
X110907895Y-76142105D01*
X110882902Y-76111653D01*
X110864331Y-76076907D01*
X110852895Y-76039208D01*
X110849033Y-75999999D01*
X110852895Y-75960792D01*
X110864331Y-75923093D01*
X110882902Y-75888348D01*
X110903345Y-75863439D01*
X110914236Y-75847140D01*
X110921738Y-75829029D01*
X110925563Y-75809803D01*
X110925563Y-75799999D01*
X112073955Y-75799999D01*
X112075876Y-75819508D01*
X112081567Y-75838267D01*
X112090808Y-75855555D01*
X112096655Y-75863439D01*
X112122702Y-75895176D01*
X112136564Y-75909038D01*
X112152864Y-75919928D01*
X112170975Y-75927430D01*
X112190201Y-75931254D01*
X112209805Y-75931253D01*
X112229031Y-75927428D01*
X112247142Y-75919926D01*
X112263441Y-75909035D01*
X112277303Y-75895173D01*
X112288193Y-75878873D01*
X112295695Y-75860762D01*
X112300000Y-75831736D01*
X112300000Y-75825000D01*
X113750001Y-75825000D01*
X113769510Y-75823079D01*
X113788269Y-75817388D01*
X113805557Y-75808147D01*
X113820711Y-75795711D01*
X113833147Y-75780557D01*
X113842388Y-75763269D01*
X113848079Y-75744510D01*
X113850000Y-75725001D01*
X113850000Y-74249999D01*
X113848079Y-74230490D01*
X113842388Y-74211731D01*
X113833147Y-74194443D01*
X113820711Y-74179289D01*
X113805557Y-74166853D01*
X113788269Y-74157612D01*
X113769510Y-74151921D01*
X113750001Y-74150000D01*
X112249999Y-74150000D01*
X112230490Y-74151921D01*
X112211731Y-74157612D01*
X112194443Y-74166853D01*
X112179289Y-74179289D01*
X112166853Y-74194443D01*
X112157612Y-74211731D01*
X112151921Y-74230490D01*
X112150000Y-74249999D01*
X112150000Y-75703269D01*
X112135686Y-75707612D01*
X112118398Y-75716853D01*
X112103244Y-75729289D01*
X112090808Y-75744443D01*
X112081567Y-75761731D01*
X112075876Y-75780490D01*
X112073955Y-75799999D01*
X110925563Y-75799999D01*
X110925564Y-75790200D01*
X110921740Y-75770973D01*
X110914238Y-75752862D01*
X110903348Y-75736562D01*
X110889486Y-75722700D01*
X110873187Y-75711809D01*
X110855076Y-75704307D01*
X110850000Y-75703297D01*
X110850000Y-73800000D01*
X112200001Y-73800000D01*
X112219510Y-73798079D01*
X112238269Y-73792388D01*
X112255557Y-73783147D01*
X112270711Y-73770711D01*
X112283147Y-73755557D01*
X112292388Y-73738269D01*
X112298079Y-73719510D01*
X112300000Y-73700001D01*
X112300000Y-72850000D01*
X113700000Y-72850000D01*
X113700000Y-73700001D01*
X113700000Y-73700001D01*
G37*
G36*
X108175000Y-77050000D02*
G01*
X106825000Y-77050000D01*
X106825000Y-76450000D01*
X108175000Y-76450000D01*
X108175000Y-77050000D01*
X108175000Y-77050000D01*
G37*
G36*
X105675000Y-77050000D02*
G01*
X104325000Y-77050000D01*
X104325000Y-76450000D01*
X105675000Y-76450000D01*
X105675000Y-77050000D01*
X105675000Y-77050000D01*
G37*
G36*
X128810000Y-75900000D02*
G01*
X127010000Y-75900000D01*
X127010000Y-74100000D01*
X128810000Y-74100000D01*
X128810000Y-75900000D01*
X128810000Y-75900000D01*
G37*
G36*
X126270000Y-75900000D02*
G01*
X124470000Y-75900000D01*
X124470000Y-74100000D01*
X126270000Y-74100000D01*
X126270000Y-75900000D01*
X126270000Y-75900000D01*
G37*
G36*
X123730000Y-75900000D02*
G01*
X121930000Y-75900000D01*
X121930000Y-74100000D01*
X123730000Y-74100000D01*
X123730000Y-75900000D01*
X123730000Y-75900000D01*
G37*
G36*
X121190000Y-75900000D02*
G01*
X119390000Y-75900000D01*
X119390000Y-74100000D01*
X121190000Y-74100000D01*
X121190000Y-75900000D01*
X121190000Y-75900000D01*
G37*
G36*
X118012520Y-74134586D02*
G01*
X118012522Y-74134587D01*
X118012523Y-74134587D01*
X118068110Y-74157612D01*
X118176310Y-74202430D01*
X118323717Y-74300924D01*
X118449076Y-74426283D01*
X118547570Y-74573690D01*
X118615414Y-74737480D01*
X118650000Y-74911358D01*
X118650000Y-75088642D01*
X118615414Y-75262520D01*
X118547570Y-75426310D01*
X118449076Y-75573717D01*
X118323717Y-75699076D01*
X118176310Y-75797570D01*
X118110088Y-75825000D01*
X118012523Y-75865413D01*
X118012522Y-75865413D01*
X118012520Y-75865414D01*
X117838642Y-75900000D01*
X117661358Y-75900000D01*
X117487480Y-75865414D01*
X117487478Y-75865413D01*
X117487477Y-75865413D01*
X117389912Y-75825000D01*
X117323690Y-75797570D01*
X117176283Y-75699076D01*
X117050924Y-75573717D01*
X116952430Y-75426310D01*
X116884586Y-75262520D01*
X116850000Y-75088642D01*
X116850000Y-74911358D01*
X116884586Y-74737480D01*
X116952430Y-74573690D01*
X117050924Y-74426283D01*
X117176283Y-74300924D01*
X117323690Y-74202430D01*
X117431890Y-74157612D01*
X117487477Y-74134587D01*
X117487478Y-74134587D01*
X117487480Y-74134586D01*
X117661358Y-74100000D01*
X117838642Y-74100000D01*
X118012520Y-74134586D01*
X118012520Y-74134586D01*
G37*
G36*
X166910000Y-75900000D02*
G01*
X165110000Y-75900000D01*
X165110000Y-74100000D01*
X166910000Y-74100000D01*
X166910000Y-75900000D01*
X166910000Y-75900000D01*
G37*
G36*
X164370000Y-75900000D02*
G01*
X162570000Y-75900000D01*
X162570000Y-74100000D01*
X164370000Y-74100000D01*
X164370000Y-75900000D01*
X164370000Y-75900000D01*
G37*
G36*
X161830000Y-75900000D02*
G01*
X160030000Y-75900000D01*
X160030000Y-74100000D01*
X161830000Y-74100000D01*
X161830000Y-75900000D01*
X161830000Y-75900000D01*
G37*
G36*
X159290000Y-75900000D02*
G01*
X157490000Y-75900000D01*
X157490000Y-74100000D01*
X159290000Y-74100000D01*
X159290000Y-75900000D01*
X159290000Y-75900000D01*
G37*
G36*
X156750000Y-75900000D02*
G01*
X154950000Y-75900000D01*
X154950000Y-74100000D01*
X156750000Y-74100000D01*
X156750000Y-75900000D01*
X156750000Y-75900000D01*
G37*
G36*
X154210000Y-75900000D02*
G01*
X152410000Y-75900000D01*
X152410000Y-74100000D01*
X154210000Y-74100000D01*
X154210000Y-75900000D01*
X154210000Y-75900000D01*
G37*
G36*
X151670000Y-75900000D02*
G01*
X149870000Y-75900000D01*
X149870000Y-74100000D01*
X151670000Y-74100000D01*
X151670000Y-75900000D01*
X151670000Y-75900000D01*
G37*
G36*
X149130000Y-75900000D02*
G01*
X147330000Y-75900000D01*
X147330000Y-74100000D01*
X149130000Y-74100000D01*
X149130000Y-75900000D01*
X149130000Y-75900000D01*
G37*
G36*
X146590000Y-75900000D02*
G01*
X144790000Y-75900000D01*
X144790000Y-74100000D01*
X146590000Y-74100000D01*
X146590000Y-75900000D01*
X146590000Y-75900000D01*
G37*
G36*
X144050000Y-75900000D02*
G01*
X142250000Y-75900000D01*
X142250000Y-74100000D01*
X144050000Y-74100000D01*
X144050000Y-75900000D01*
X144050000Y-75900000D01*
G37*
G36*
X131350000Y-75900000D02*
G01*
X129550000Y-75900000D01*
X129550000Y-74100000D01*
X131350000Y-74100000D01*
X131350000Y-75900000D01*
X131350000Y-75900000D01*
G37*
G36*
X133890000Y-75900000D02*
G01*
X132090000Y-75900000D01*
X132090000Y-74100000D01*
X133890000Y-74100000D01*
X133890000Y-75900000D01*
X133890000Y-75900000D01*
G37*
G36*
X136430000Y-75900000D02*
G01*
X134630000Y-75900000D01*
X134630000Y-74100000D01*
X136430000Y-74100000D01*
X136430000Y-75900000D01*
X136430000Y-75900000D01*
G37*
G36*
X138970000Y-75900000D02*
G01*
X137170000Y-75900000D01*
X137170000Y-74100000D01*
X138970000Y-74100000D01*
X138970000Y-75900000D01*
X138970000Y-75900000D01*
G37*
G36*
X141510000Y-75900000D02*
G01*
X139710000Y-75900000D01*
X139710000Y-74100000D01*
X141510000Y-74100000D01*
X141510000Y-75900000D01*
X141510000Y-75900000D01*
G37*
G36*
X105675000Y-75300000D02*
G01*
X104325000Y-75300000D01*
X104325000Y-74700000D01*
X105675000Y-74700000D01*
X105675000Y-75300000D01*
X105675000Y-75300000D01*
G37*
G36*
X108175000Y-75300000D02*
G01*
X106825000Y-75300000D01*
X106825000Y-74700000D01*
X108175000Y-74700000D01*
X108175000Y-75300000D01*
X108175000Y-75300000D01*
G37*
G36*
X160800000Y-73300000D02*
G01*
X159200000Y-73300000D01*
X159200000Y-69200000D01*
X160800000Y-69200000D01*
X160800000Y-73300000D01*
X160800000Y-73300000D01*
G37*
G36*
X165300000Y-73300000D02*
G01*
X163700000Y-73300000D01*
X163700000Y-69200000D01*
X165300000Y-69200000D01*
X165300000Y-73300000D01*
X165300000Y-73300000D01*
G37*
G36*
X133992600Y-73259800D02*
G01*
X132419400Y-73259800D01*
X132419400Y-72550200D01*
X133992600Y-72550200D01*
X133992600Y-73259800D01*
X133992600Y-73259800D01*
G37*
G36*
X139580600Y-73259800D02*
G01*
X138007400Y-73259800D01*
X138007400Y-72550200D01*
X139580600Y-72550200D01*
X139580600Y-73259800D01*
X139580600Y-73259800D01*
G37*
G36*
X152550000Y-72800000D02*
G01*
X150450000Y-72800000D01*
X150450000Y-71700000D01*
X152550000Y-71700000D01*
X152550000Y-72800000D01*
X152550000Y-72800000D01*
G37*
G36*
X155550000Y-72800000D02*
G01*
X153450000Y-72800000D01*
X153450000Y-71700000D01*
X155550000Y-71700000D01*
X155550000Y-72800000D01*
X155550000Y-72800000D01*
G37*
G36*
X147450000Y-72650000D02*
G01*
X146250000Y-72650000D01*
X146250000Y-71750000D01*
X147450000Y-71750000D01*
X147450000Y-72650000D01*
X147450000Y-72650000D01*
G37*
G36*
X149675000Y-72550000D02*
G01*
X148325000Y-72550000D01*
X148325000Y-71950000D01*
X149675000Y-71950000D01*
X149675000Y-72550000D01*
X149675000Y-72550000D01*
G37*
G36*
X114800000Y-72425000D02*
G01*
X114200000Y-72425000D01*
X114200000Y-71075000D01*
X114800000Y-71075000D01*
X114800000Y-72425000D01*
X114800000Y-72425000D01*
G37*
G36*
X116550000Y-72425000D02*
G01*
X115950000Y-72425000D01*
X115950000Y-71075000D01*
X116550000Y-71075000D01*
X116550000Y-72425000D01*
X116550000Y-72425000D01*
G37*
G36*
X127425000Y-72300000D02*
G01*
X126075000Y-72300000D01*
X126075000Y-71700000D01*
X127425000Y-71700000D01*
X127425000Y-72300000D01*
X127425000Y-72300000D01*
G37*
G36*
X124675000Y-72300000D02*
G01*
X123325000Y-72300000D01*
X123325000Y-71700000D01*
X124675000Y-71700000D01*
X124675000Y-72300000D01*
X124675000Y-72300000D01*
G37*
G36*
X157900000Y-72200000D02*
G01*
X156600000Y-72200000D01*
X156600000Y-71300000D01*
X157900000Y-71300000D01*
X157900000Y-72200000D01*
X157900000Y-72200000D01*
G37*
G36*
X139580600Y-71989800D02*
G01*
X138007400Y-71989800D01*
X138007400Y-71280200D01*
X139580600Y-71280200D01*
X139580600Y-71989800D01*
X139580600Y-71989800D01*
G37*
G36*
X133992600Y-71989800D02*
G01*
X132419400Y-71989800D01*
X132419400Y-71280200D01*
X133992600Y-71280200D01*
X133992600Y-71989800D01*
X133992600Y-71989800D01*
G37*
G36*
X145250000Y-71700000D02*
G01*
X144050000Y-71700000D01*
X144050000Y-70800000D01*
X145250000Y-70800000D01*
X145250000Y-71700000D01*
X145250000Y-71700000D01*
G37*
G36*
X168262520Y-69924586D02*
G01*
X168262522Y-69924587D01*
X168262523Y-69924587D01*
X168323025Y-69949648D01*
X168426310Y-69992430D01*
X168573717Y-70090924D01*
X168699076Y-70216283D01*
X168797570Y-70363690D01*
X168797570Y-70363691D01*
X168865413Y-70527477D01*
X168900000Y-70701360D01*
X168900000Y-70878640D01*
X168865413Y-71052523D01*
X168840352Y-71113025D01*
X168797570Y-71216310D01*
X168699076Y-71363717D01*
X168573717Y-71489076D01*
X168426310Y-71587570D01*
X168323025Y-71630352D01*
X168262523Y-71655413D01*
X168262522Y-71655413D01*
X168262520Y-71655414D01*
X168088642Y-71690000D01*
X167911358Y-71690000D01*
X167737480Y-71655414D01*
X167737478Y-71655413D01*
X167737477Y-71655413D01*
X167676975Y-71630352D01*
X167573690Y-71587570D01*
X167426283Y-71489076D01*
X167300924Y-71363717D01*
X167202430Y-71216310D01*
X167159648Y-71113025D01*
X167134587Y-71052523D01*
X167100000Y-70878640D01*
X167100000Y-70701360D01*
X167134587Y-70527477D01*
X167202430Y-70363691D01*
X167202430Y-70363690D01*
X167300924Y-70216283D01*
X167426283Y-70090924D01*
X167573690Y-69992430D01*
X167676975Y-69949648D01*
X167737477Y-69924587D01*
X167737478Y-69924587D01*
X167737480Y-69924586D01*
X167911358Y-69890000D01*
X168088642Y-69890000D01*
X168262520Y-69924586D01*
X168262520Y-69924586D01*
G37*
G36*
X149675000Y-70800000D02*
G01*
X148325000Y-70800000D01*
X148325000Y-70200000D01*
X149675000Y-70200000D01*
X149675000Y-70800000D01*
X149675000Y-70800000D01*
G37*
G36*
X147450000Y-70750000D02*
G01*
X146250000Y-70750000D01*
X146250000Y-69850000D01*
X147450000Y-69850000D01*
X147450000Y-70750000D01*
X147450000Y-70750000D01*
G37*
G36*
X133992600Y-70719800D02*
G01*
X132419400Y-70719800D01*
X132419400Y-70010200D01*
X133992600Y-70010200D01*
X133992600Y-70719800D01*
X133992600Y-70719800D01*
G37*
G36*
X139580600Y-70719800D02*
G01*
X138007400Y-70719800D01*
X138007400Y-70010200D01*
X139580600Y-70010200D01*
X139580600Y-70719800D01*
X139580600Y-70719800D01*
G37*
G36*
X124675000Y-70550000D02*
G01*
X123325000Y-70550000D01*
X123325000Y-69950000D01*
X124675000Y-69950000D01*
X124675000Y-70550000D01*
X124675000Y-70550000D01*
G37*
G36*
X127425000Y-70550000D02*
G01*
X126075000Y-70550000D01*
X126075000Y-69950000D01*
X127425000Y-69950000D01*
X127425000Y-70550000D01*
X127425000Y-70550000D01*
G37*
G36*
X116550000Y-70425000D02*
G01*
X115950000Y-70425000D01*
X115950000Y-69075000D01*
X116550000Y-69075000D01*
X116550000Y-70425000D01*
X116550000Y-70425000D01*
G37*
G36*
X114800000Y-70425000D02*
G01*
X114200000Y-70425000D01*
X114200000Y-69075000D01*
X114800000Y-69075000D01*
X114800000Y-70425000D01*
X114800000Y-70425000D01*
G37*
G36*
X133992600Y-69449800D02*
G01*
X132419400Y-69449800D01*
X132419400Y-68740200D01*
X133992600Y-68740200D01*
X133992600Y-69449800D01*
X133992600Y-69449800D01*
G37*
G36*
X139580600Y-69449800D02*
G01*
X138007400Y-69449800D01*
X138007400Y-68740200D01*
X139580600Y-68740200D01*
X139580600Y-69449800D01*
X139580600Y-69449800D01*
G37*
G36*
X155550000Y-69300000D02*
G01*
X153450000Y-69300000D01*
X153450000Y-68200000D01*
X155550000Y-68200000D01*
X155550000Y-69300000D01*
X155550000Y-69300000D01*
G37*
G36*
X152550000Y-69300000D02*
G01*
X150450000Y-69300000D01*
X150450000Y-68200000D01*
X152550000Y-68200000D01*
X152550000Y-69300000D01*
X152550000Y-69300000D01*
G37*
G36*
X168900000Y-69150000D02*
G01*
X167100000Y-69150000D01*
X167100000Y-67350000D01*
X168900000Y-67350000D01*
X168900000Y-69150000D01*
X168900000Y-69150000D01*
G37*
G36*
X157900000Y-68700000D02*
G01*
X156600000Y-68700000D01*
X156600000Y-67800000D01*
X157900000Y-67800000D01*
X157900000Y-68700000D01*
X157900000Y-68700000D01*
G37*
G36*
X113625000Y-68100000D02*
G01*
X107375000Y-68100000D01*
X107375000Y-66500000D01*
X113625000Y-66500000D01*
X113625000Y-68100000D01*
X113625000Y-68100000D01*
G37*
G36*
X143200000Y-67900000D02*
G01*
X142000000Y-67900000D01*
X142000000Y-67000000D01*
X143200000Y-67000000D01*
X143200000Y-67900000D01*
X143200000Y-67900000D01*
G37*
G36*
X124925000Y-67550000D02*
G01*
X123575000Y-67550000D01*
X123575000Y-66950000D01*
X124925000Y-66950000D01*
X124925000Y-67550000D01*
X124925000Y-67550000D01*
G37*
G36*
X127175000Y-67550000D02*
G01*
X125825000Y-67550000D01*
X125825000Y-66950000D01*
X127175000Y-66950000D01*
X127175000Y-67550000D01*
X127175000Y-67550000D01*
G37*
G36*
X145425000Y-67550000D02*
G01*
X144075000Y-67550000D01*
X144075000Y-66950000D01*
X145425000Y-66950000D01*
X145425000Y-67550000D01*
X145425000Y-67550000D01*
G37*
G36*
X147675000Y-67550000D02*
G01*
X146325000Y-67550000D01*
X146325000Y-66950000D01*
X147675000Y-66950000D01*
X147675000Y-67550000D01*
X147675000Y-67550000D01*
G37*
G36*
X131675000Y-67300000D02*
G01*
X130325000Y-67300000D01*
X130325000Y-66700000D01*
X131675000Y-66700000D01*
X131675000Y-67300000D01*
X131675000Y-67300000D01*
G37*
G36*
X141000000Y-66950000D02*
G01*
X139800000Y-66950000D01*
X139800000Y-66050000D01*
X141000000Y-66050000D01*
X141000000Y-66950000D01*
X141000000Y-66950000D01*
G37*
G36*
X135175000Y-66550000D02*
G01*
X133825000Y-66550000D01*
X133825000Y-65950000D01*
X135175000Y-65950000D01*
X135175000Y-66550000D01*
X135175000Y-66550000D01*
G37*
G36*
X165150000Y-66450000D02*
G01*
X163850000Y-66450000D01*
X163850000Y-65550000D01*
X165150000Y-65550000D01*
X165150000Y-66450000D01*
X165150000Y-66450000D01*
G37*
G36*
X162150000Y-66450000D02*
G01*
X160850000Y-66450000D01*
X160850000Y-65550000D01*
X162150000Y-65550000D01*
X162150000Y-66450000D01*
X162150000Y-66450000D01*
G37*
G36*
X156150000Y-66450000D02*
G01*
X154850000Y-66450000D01*
X154850000Y-65550000D01*
X156150000Y-65550000D01*
X156150000Y-66450000D01*
X156150000Y-66450000D01*
G37*
G36*
X159150000Y-66450000D02*
G01*
X157850000Y-66450000D01*
X157850000Y-65550000D01*
X159150000Y-65550000D01*
X159150000Y-66450000D01*
X159150000Y-66450000D01*
G37*
G36*
X143200000Y-66000000D02*
G01*
X142000000Y-66000000D01*
X142000000Y-65100000D01*
X143200000Y-65100000D01*
X143200000Y-66000000D01*
X143200000Y-66000000D01*
G37*
G36*
X115800000Y-65875000D02*
G01*
X114200000Y-65875000D01*
X114200000Y-59625000D01*
X115800000Y-59625000D01*
X115800000Y-65875000D01*
X115800000Y-65875000D01*
G37*
G36*
X106800000Y-65875000D02*
G01*
X105200000Y-65875000D01*
X105200000Y-59625000D01*
X106800000Y-59625000D01*
X106800000Y-65875000D01*
X106800000Y-65875000D01*
G37*
G36*
X145425000Y-65800000D02*
G01*
X144075000Y-65800000D01*
X144075000Y-65200000D01*
X145425000Y-65200000D01*
X145425000Y-65800000D01*
X145425000Y-65800000D01*
G37*
G36*
X147675000Y-65800000D02*
G01*
X146325000Y-65800000D01*
X146325000Y-65200000D01*
X147675000Y-65200000D01*
X147675000Y-65800000D01*
X147675000Y-65800000D01*
G37*
G36*
X127175000Y-65800000D02*
G01*
X125825000Y-65800000D01*
X125825000Y-65200000D01*
X127175000Y-65200000D01*
X127175000Y-65800000D01*
X127175000Y-65800000D01*
G37*
G36*
X124925000Y-65800000D02*
G01*
X123575000Y-65800000D01*
X123575000Y-65200000D01*
X124925000Y-65200000D01*
X124925000Y-65800000D01*
X124925000Y-65800000D01*
G37*
G36*
X131675000Y-65550000D02*
G01*
X130325000Y-65550000D01*
X130325000Y-64950000D01*
X131675000Y-64950000D01*
X131675000Y-65550000D01*
X131675000Y-65550000D01*
G37*
G36*
X168900000Y-65520000D02*
G01*
X167100000Y-65520000D01*
X167100000Y-63720000D01*
X168900000Y-63720000D01*
X168900000Y-65520000D01*
X168900000Y-65520000D01*
G37*
G36*
X119175000Y-65300000D02*
G01*
X117825000Y-65300000D01*
X117825000Y-64700000D01*
X119175000Y-64700000D01*
X119175000Y-65300000D01*
X119175000Y-65300000D01*
G37*
G36*
X121925000Y-65300000D02*
G01*
X120575000Y-65300000D01*
X120575000Y-64700000D01*
X121925000Y-64700000D01*
X121925000Y-65300000D01*
X121925000Y-65300000D01*
G37*
G36*
X135175000Y-64800000D02*
G01*
X133825000Y-64800000D01*
X133825000Y-64200000D01*
X135175000Y-64200000D01*
X135175000Y-64800000D01*
X135175000Y-64800000D01*
G37*
G36*
X132850000Y-63800000D02*
G01*
X131650000Y-63800000D01*
X131650000Y-61100000D01*
X132850000Y-61100000D01*
X132850000Y-63800000D01*
X132850000Y-63800000D01*
G37*
G36*
X130250000Y-63800000D02*
G01*
X129050000Y-63800000D01*
X129050000Y-63000000D01*
X130250000Y-63000000D01*
X130250000Y-63800000D01*
X130250000Y-63800000D01*
G37*
G36*
X121925000Y-63550000D02*
G01*
X120575000Y-63550000D01*
X120575000Y-62950000D01*
X121925000Y-62950000D01*
X121925000Y-63550000D01*
X121925000Y-63550000D01*
G37*
G36*
X119175000Y-63550000D02*
G01*
X117825000Y-63550000D01*
X117825000Y-62950000D01*
X119175000Y-62950000D01*
X119175000Y-63550000D01*
X119175000Y-63550000D01*
G37*
G36*
X139675000Y-63300000D02*
G01*
X138325000Y-63300000D01*
X138325000Y-62700000D01*
X139675000Y-62700000D01*
X139675000Y-63300000D01*
X139675000Y-63300000D01*
G37*
G36*
X135175000Y-63300000D02*
G01*
X133825000Y-63300000D01*
X133825000Y-62700000D01*
X135175000Y-62700000D01*
X135175000Y-63300000D01*
X135175000Y-63300000D01*
G37*
G36*
X137425000Y-63300000D02*
G01*
X136075000Y-63300000D01*
X136075000Y-62700000D01*
X137425000Y-62700000D01*
X137425000Y-63300000D01*
X137425000Y-63300000D01*
G37*
G36*
X151700000Y-63200000D02*
G01*
X148300000Y-63200000D01*
X148300000Y-62100000D01*
X151700000Y-62100000D01*
X151700000Y-63200000D01*
X151700000Y-63200000D01*
G37*
G36*
X104425000Y-63050000D02*
G01*
X103075000Y-63050000D01*
X103075000Y-62450000D01*
X104425000Y-62450000D01*
X104425000Y-63050000D01*
X104425000Y-63050000D01*
G37*
G36*
X168900000Y-62980000D02*
G01*
X167100000Y-62980000D01*
X167100000Y-61180000D01*
X168900000Y-61180000D01*
X168900000Y-62980000D01*
X168900000Y-62980000D01*
G37*
G36*
X165150000Y-62950000D02*
G01*
X163850000Y-62950000D01*
X163850000Y-62050000D01*
X165150000Y-62050000D01*
X165150000Y-62950000D01*
X165150000Y-62950000D01*
G37*
G36*
X162150000Y-62950000D02*
G01*
X160850000Y-62950000D01*
X160850000Y-62050000D01*
X162150000Y-62050000D01*
X162150000Y-62950000D01*
X162150000Y-62950000D01*
G37*
G36*
X159150000Y-62950000D02*
G01*
X157850000Y-62950000D01*
X157850000Y-62050000D01*
X159150000Y-62050000D01*
X159150000Y-62950000D01*
X159150000Y-62950000D01*
G37*
G36*
X156150000Y-62950000D02*
G01*
X154850000Y-62950000D01*
X154850000Y-62050000D01*
X156150000Y-62050000D01*
X156150000Y-62950000D01*
X156150000Y-62950000D01*
G37*
G36*
X124925000Y-62300000D02*
G01*
X123575000Y-62300000D01*
X123575000Y-61700000D01*
X124925000Y-61700000D01*
X124925000Y-62300000D01*
X124925000Y-62300000D01*
G37*
G36*
X152950000Y-61950000D02*
G01*
X151850000Y-61950000D01*
X151850000Y-58550000D01*
X152950000Y-58550000D01*
X152950000Y-61950000D01*
X152950000Y-61950000D01*
G37*
G36*
X148150000Y-61950000D02*
G01*
X147050000Y-61950000D01*
X147050000Y-58550000D01*
X148150000Y-58550000D01*
X148150000Y-61950000D01*
X148150000Y-61950000D01*
G37*
G36*
X130250000Y-61900000D02*
G01*
X129050000Y-61900000D01*
X129050000Y-61100000D01*
X130250000Y-61100000D01*
X130250000Y-61900000D01*
X130250000Y-61900000D01*
G37*
G36*
X135175000Y-61550000D02*
G01*
X133825000Y-61550000D01*
X133825000Y-60950000D01*
X135175000Y-60950000D01*
X135175000Y-61550000D01*
X135175000Y-61550000D01*
G37*
G36*
X137425000Y-61550000D02*
G01*
X136075000Y-61550000D01*
X136075000Y-60950000D01*
X137425000Y-60950000D01*
X137425000Y-61550000D01*
X137425000Y-61550000D01*
G37*
G36*
X139675000Y-61550000D02*
G01*
X138325000Y-61550000D01*
X138325000Y-60950000D01*
X139675000Y-60950000D01*
X139675000Y-61550000D01*
X139675000Y-61550000D01*
G37*
G36*
X145675000Y-61300000D02*
G01*
X144325000Y-61300000D01*
X144325000Y-60700000D01*
X145675000Y-60700000D01*
X145675000Y-61300000D01*
X145675000Y-61300000D01*
G37*
G36*
X104425000Y-61300000D02*
G01*
X103075000Y-61300000D01*
X103075000Y-60700000D01*
X104425000Y-60700000D01*
X104425000Y-61300000D01*
X104425000Y-61300000D01*
G37*
G36*
X143175000Y-61300000D02*
G01*
X141825000Y-61300000D01*
X141825000Y-60700000D01*
X143175000Y-60700000D01*
X143175000Y-61300000D01*
X143175000Y-61300000D01*
G37*
G36*
X124925000Y-60550000D02*
G01*
X123575000Y-60550000D01*
X123575000Y-59950000D01*
X124925000Y-59950000D01*
X124925000Y-60550000D01*
X124925000Y-60550000D01*
G37*
G36*
X168900000Y-60440000D02*
G01*
X167100000Y-60440000D01*
X167100000Y-58640000D01*
X168900000Y-58640000D01*
X168900000Y-60440000D01*
X168900000Y-60440000D01*
G37*
G36*
X129925000Y-60300000D02*
G01*
X128575000Y-60300000D01*
X128575000Y-59700000D01*
X129925000Y-59700000D01*
X129925000Y-60300000D01*
X129925000Y-60300000D01*
G37*
G36*
X155175000Y-60300000D02*
G01*
X153825000Y-60300000D01*
X153825000Y-59700000D01*
X155175000Y-59700000D01*
X155175000Y-60300000D01*
X155175000Y-60300000D01*
G37*
G36*
X157675000Y-60300000D02*
G01*
X156325000Y-60300000D01*
X156325000Y-59700000D01*
X157675000Y-59700000D01*
X157675000Y-60300000D01*
X157675000Y-60300000D01*
G37*
G36*
X165300000Y-60050000D02*
G01*
X163700000Y-60050000D01*
X163700000Y-55950000D01*
X165300000Y-55950000D01*
X165300000Y-60050000D01*
X165300000Y-60050000D01*
G37*
G36*
X160800000Y-60050000D02*
G01*
X159200000Y-60050000D01*
X159200000Y-55950000D01*
X160800000Y-55950000D01*
X160800000Y-60050000D01*
X160800000Y-60050000D01*
G37*
G36*
X119175000Y-59800000D02*
G01*
X117825000Y-59800000D01*
X117825000Y-59200000D01*
X119175000Y-59200000D01*
X119175000Y-59800000D01*
X119175000Y-59800000D01*
G37*
G36*
X121925000Y-59800000D02*
G01*
X120575000Y-59800000D01*
X120575000Y-59200000D01*
X121925000Y-59200000D01*
X121925000Y-59800000D01*
X121925000Y-59800000D01*
G37*
G36*
X143175000Y-59550000D02*
G01*
X141825000Y-59550000D01*
X141825000Y-58950000D01*
X143175000Y-58950000D01*
X143175000Y-59550000D01*
X143175000Y-59550000D01*
G37*
G36*
X145675000Y-59550000D02*
G01*
X144325000Y-59550000D01*
X144325000Y-58950000D01*
X145675000Y-58950000D01*
X145675000Y-59550000D01*
X145675000Y-59550000D01*
G37*
G36*
X113625000Y-59050000D02*
G01*
X107375000Y-59050000D01*
X107375000Y-57450000D01*
X113625000Y-57450000D01*
X113625000Y-59050000D01*
X113625000Y-59050000D01*
G37*
G36*
X134049999Y-58800000D02*
G01*
X132949999Y-58800000D01*
X132949999Y-57200000D01*
X134049999Y-57200000D01*
X134049999Y-58800000D01*
X134049999Y-58800000D01*
G37*
G36*
X132049999Y-58800000D02*
G01*
X130949999Y-58800000D01*
X130949999Y-57200000D01*
X132049999Y-57200000D01*
X132049999Y-58800000D01*
X132049999Y-58800000D01*
G37*
G36*
X135950000Y-58650000D02*
G01*
X135050000Y-58650000D01*
X135050000Y-57350000D01*
X135950000Y-57350000D01*
X135950000Y-58650000D01*
X135950000Y-58650000D01*
G37*
G36*
X139450000Y-58650000D02*
G01*
X138550000Y-58650000D01*
X138550000Y-57350000D01*
X139450000Y-57350000D01*
X139450000Y-58650000D01*
X139450000Y-58650000D01*
G37*
G36*
X157675000Y-58550000D02*
G01*
X156325000Y-58550000D01*
X156325000Y-57950000D01*
X157675000Y-57950000D01*
X157675000Y-58550000D01*
X157675000Y-58550000D01*
G37*
G36*
X155175000Y-58550000D02*
G01*
X153825000Y-58550000D01*
X153825000Y-57950000D01*
X155175000Y-57950000D01*
X155175000Y-58550000D01*
X155175000Y-58550000D01*
G37*
G36*
X129925000Y-58550000D02*
G01*
X128575000Y-58550000D01*
X128575000Y-57950000D01*
X129925000Y-57950000D01*
X129925000Y-58550000D01*
X129925000Y-58550000D01*
G37*
G36*
X148539208Y-57302895D02*
G01*
X148576907Y-57314331D01*
X148611652Y-57332902D01*
X148636561Y-57353345D01*
X148652860Y-57364236D01*
X148670971Y-57371738D01*
X148690197Y-57375563D01*
X148709800Y-57375564D01*
X148729027Y-57371740D01*
X148747138Y-57364238D01*
X148763438Y-57353348D01*
X148777300Y-57339486D01*
X148788191Y-57323187D01*
X148795693Y-57305076D01*
X148796703Y-57300000D01*
X151700000Y-57300000D01*
X151700000Y-58400000D01*
X148796731Y-58400000D01*
X148792388Y-58385686D01*
X148783147Y-58368398D01*
X148770711Y-58353244D01*
X148755557Y-58340808D01*
X148738269Y-58331567D01*
X148719510Y-58325876D01*
X148700001Y-58323955D01*
X148680492Y-58325876D01*
X148661733Y-58331567D01*
X148644445Y-58340808D01*
X148636562Y-58346654D01*
X148611651Y-58367098D01*
X148576906Y-58385669D01*
X148539207Y-58397105D01*
X148500000Y-58400967D01*
X148460792Y-58397105D01*
X148423093Y-58385669D01*
X148388347Y-58367098D01*
X148357896Y-58342106D01*
X148332902Y-58311652D01*
X148314331Y-58276906D01*
X148302895Y-58239207D01*
X148300000Y-58209815D01*
X148300001Y-57490184D01*
X148302896Y-57460792D01*
X148314332Y-57423093D01*
X148332903Y-57388347D01*
X148357896Y-57357895D01*
X148388348Y-57332902D01*
X148423094Y-57314331D01*
X148460793Y-57302895D01*
X148500000Y-57299033D01*
X148539208Y-57302895D01*
X148539208Y-57302895D01*
G37*
G36*
X119175000Y-58050000D02*
G01*
X117825000Y-58050000D01*
X117825000Y-57450000D01*
X119175000Y-57450000D01*
X119175000Y-58050000D01*
X119175000Y-58050000D01*
G37*
G36*
X121925000Y-58050000D02*
G01*
X120575000Y-58050000D01*
X120575000Y-57450000D01*
X121925000Y-57450000D01*
X121925000Y-58050000D01*
X121925000Y-58050000D01*
G37*
G36*
X168262520Y-56134586D02*
G01*
X168262522Y-56134587D01*
X168262523Y-56134587D01*
X168323025Y-56159648D01*
X168426310Y-56202430D01*
X168573717Y-56300924D01*
X168699076Y-56426283D01*
X168797570Y-56573690D01*
X168865414Y-56737480D01*
X168900000Y-56911358D01*
X168900000Y-57088642D01*
X168865414Y-57262520D01*
X168797570Y-57426310D01*
X168699076Y-57573717D01*
X168573717Y-57699076D01*
X168426310Y-57797570D01*
X168323025Y-57840352D01*
X168262523Y-57865413D01*
X168262522Y-57865413D01*
X168262520Y-57865414D01*
X168088642Y-57900000D01*
X167911358Y-57900000D01*
X167737480Y-57865414D01*
X167737478Y-57865413D01*
X167737477Y-57865413D01*
X167676975Y-57840352D01*
X167573690Y-57797570D01*
X167426283Y-57699076D01*
X167300924Y-57573717D01*
X167202430Y-57426310D01*
X167134586Y-57262520D01*
X167100000Y-57088642D01*
X167100000Y-56911358D01*
X167134586Y-56737480D01*
X167202430Y-56573690D01*
X167300924Y-56426283D01*
X167426283Y-56300924D01*
X167573690Y-56202430D01*
X167676975Y-56159648D01*
X167737477Y-56134587D01*
X167737478Y-56134587D01*
X167737480Y-56134586D01*
X167911358Y-56100000D01*
X168088642Y-56100000D01*
X168262520Y-56134586D01*
X168262520Y-56134586D01*
G37*
G36*
X106050000Y-55175000D02*
G01*
X105450000Y-55175000D01*
X105450000Y-53825000D01*
X106050000Y-53825000D01*
X106050000Y-55175000D01*
X106050000Y-55175000D01*
G37*
G36*
X104300000Y-55175000D02*
G01*
X103700000Y-55175000D01*
X103700000Y-53825000D01*
X104300000Y-53825000D01*
X104300000Y-55175000D01*
X104300000Y-55175000D01*
G37*
G36*
X137550000Y-54000000D02*
G01*
X135950000Y-54000000D01*
X135950000Y-47650000D01*
X137550000Y-47650000D01*
X137550000Y-54000000D01*
X137550000Y-54000000D01*
G37*
G36*
X131550000Y-54000000D02*
G01*
X129950000Y-54000000D01*
X129950000Y-47650000D01*
X131550000Y-47650000D01*
X131550000Y-54000000D01*
X131550000Y-54000000D01*
G37*
G36*
X124050000Y-54000000D02*
G01*
X122450000Y-54000000D01*
X122450000Y-47650000D01*
X124050000Y-47650000D01*
X124050000Y-54000000D01*
X124050000Y-54000000D01*
G37*
G36*
X118050000Y-54000000D02*
G01*
X116450000Y-54000000D01*
X116450000Y-47650000D01*
X118050000Y-47650000D01*
X118050000Y-54000000D01*
X118050000Y-54000000D01*
G37*
G36*
X164800000Y-54000000D02*
G01*
X163200000Y-54000000D01*
X163200000Y-47650000D01*
X164800000Y-47650000D01*
X164800000Y-54000000D01*
X164800000Y-54000000D01*
G37*
G36*
X151300000Y-54000000D02*
G01*
X149700000Y-54000000D01*
X149700000Y-47650000D01*
X151300000Y-47650000D01*
X151300000Y-54000000D01*
X151300000Y-54000000D01*
G37*
G36*
X145300000Y-54000000D02*
G01*
X143700000Y-54000000D01*
X143700000Y-47650000D01*
X145300000Y-47650000D01*
X145300000Y-54000000D01*
X145300000Y-54000000D01*
G37*
G36*
X158800000Y-54000000D02*
G01*
X157200000Y-54000000D01*
X157200000Y-47650000D01*
X158800000Y-47650000D01*
X158800000Y-54000000D01*
X158800000Y-54000000D01*
G37*
G36*
X104610000Y-50230000D02*
G01*
X102810000Y-50230000D01*
X102810000Y-48430000D01*
X104610000Y-48430000D01*
X104610000Y-50230000D01*
X104610000Y-50230000D01*
G37*
G36*
X107150000Y-50230000D02*
G01*
X105350000Y-50230000D01*
X105350000Y-48430000D01*
X107150000Y-48430000D01*
X107150000Y-50230000D01*
X107150000Y-50230000D01*
G37*
G36*
X107150000Y-47690000D02*
G01*
X105350000Y-47690000D01*
X105350000Y-45890000D01*
X107150000Y-45890000D01*
X107150000Y-47690000D01*
X107150000Y-47690000D01*
G37*
G36*
X104610000Y-47690000D02*
G01*
X102810000Y-47690000D01*
X102810000Y-45890000D01*
X104610000Y-45890000D01*
X104610000Y-47690000D01*
X104610000Y-47690000D01*
G37*
G36*
X110550000Y-46925000D02*
G01*
X109950000Y-46925000D01*
X109950000Y-45575000D01*
X110550000Y-45575000D01*
X110550000Y-46925000D01*
X110550000Y-46925000D01*
G37*
G36*
X108800000Y-46925000D02*
G01*
X108200000Y-46925000D01*
X108200000Y-45575000D01*
X108800000Y-45575000D01*
X108800000Y-46925000D01*
X108800000Y-46925000D01*
G37*
G36*
X106512520Y-43384586D02*
G01*
X106512522Y-43384587D01*
X106512523Y-43384587D01*
X106573025Y-43409648D01*
X106676310Y-43452430D01*
X106823717Y-43550924D01*
X106949076Y-43676283D01*
X107047570Y-43823690D01*
X107115414Y-43987480D01*
X107150000Y-44161358D01*
X107150000Y-44338642D01*
X107115414Y-44512520D01*
X107047570Y-44676310D01*
X106949076Y-44823717D01*
X106823717Y-44949076D01*
X106676310Y-45047570D01*
X106573025Y-45090352D01*
X106512523Y-45115413D01*
X106512522Y-45115413D01*
X106512520Y-45115414D01*
X106338642Y-45150000D01*
X106161358Y-45150000D01*
X105987480Y-45115414D01*
X105987478Y-45115413D01*
X105987477Y-45115413D01*
X105926975Y-45090352D01*
X105823690Y-45047570D01*
X105676283Y-44949076D01*
X105550924Y-44823717D01*
X105452430Y-44676310D01*
X105384586Y-44512520D01*
X105350000Y-44338642D01*
X105350000Y-44161358D01*
X105384586Y-43987480D01*
X105452430Y-43823690D01*
X105550924Y-43676283D01*
X105676283Y-43550924D01*
X105823690Y-43452430D01*
X105926975Y-43409648D01*
X105987477Y-43384587D01*
X105987478Y-43384587D01*
X105987480Y-43384586D01*
X106161358Y-43350000D01*
X106338642Y-43350000D01*
X106512520Y-43384586D01*
X106512520Y-43384586D01*
G37*
G36*
X104610000Y-45150000D02*
G01*
X102810000Y-45150000D01*
X102810000Y-43350000D01*
X104610000Y-43350000D01*
X104610000Y-45150000D01*
X104610000Y-45150000D01*
G37*
G36*
X110550000Y-44675000D02*
G01*
X109950000Y-44675000D01*
X109950000Y-43325000D01*
X110550000Y-43325000D01*
X110550000Y-44675000D01*
X110550000Y-44675000D01*
G37*
G36*
X108800000Y-44675000D02*
G01*
X108200000Y-44675000D01*
X108200000Y-43325000D01*
X108800000Y-43325000D01*
X108800000Y-44675000D01*
X108800000Y-44675000D01*
G37*
G36*
X138970000Y-42880000D02*
G01*
X137170000Y-42880000D01*
X137170000Y-41080000D01*
X138970000Y-41080000D01*
X138970000Y-42880000D01*
X138970000Y-42880000D01*
G37*
G36*
X166910000Y-42880000D02*
G01*
X165110000Y-42880000D01*
X165110000Y-41080000D01*
X166910000Y-41080000D01*
X166910000Y-42880000D01*
X166910000Y-42880000D01*
G37*
G36*
X141510000Y-42880000D02*
G01*
X139710000Y-42880000D01*
X139710000Y-41080000D01*
X141510000Y-41080000D01*
X141510000Y-42880000D01*
X141510000Y-42880000D01*
G37*
G36*
X136430000Y-42880000D02*
G01*
X134630000Y-42880000D01*
X134630000Y-41080000D01*
X136430000Y-41080000D01*
X136430000Y-42880000D01*
X136430000Y-42880000D01*
G37*
G36*
X144050000Y-42880000D02*
G01*
X142250000Y-42880000D01*
X142250000Y-41080000D01*
X144050000Y-41080000D01*
X144050000Y-42880000D01*
X144050000Y-42880000D01*
G37*
G36*
X146590000Y-42880000D02*
G01*
X144790000Y-42880000D01*
X144790000Y-41080000D01*
X146590000Y-41080000D01*
X146590000Y-42880000D01*
X146590000Y-42880000D01*
G37*
G36*
X164370000Y-42880000D02*
G01*
X162570000Y-42880000D01*
X162570000Y-41080000D01*
X164370000Y-41080000D01*
X164370000Y-42880000D01*
X164370000Y-42880000D01*
G37*
G36*
X149130000Y-42880000D02*
G01*
X147330000Y-42880000D01*
X147330000Y-41080000D01*
X149130000Y-41080000D01*
X149130000Y-42880000D01*
X149130000Y-42880000D01*
G37*
G36*
X151670000Y-42880000D02*
G01*
X149870000Y-42880000D01*
X149870000Y-41080000D01*
X151670000Y-41080000D01*
X151670000Y-42880000D01*
X151670000Y-42880000D01*
G37*
G36*
X154210000Y-42880000D02*
G01*
X152410000Y-42880000D01*
X152410000Y-41080000D01*
X154210000Y-41080000D01*
X154210000Y-42880000D01*
X154210000Y-42880000D01*
G37*
G36*
X156750000Y-42880000D02*
G01*
X154950000Y-42880000D01*
X154950000Y-41080000D01*
X156750000Y-41080000D01*
X156750000Y-42880000D01*
X156750000Y-42880000D01*
G37*
G36*
X159290000Y-42880000D02*
G01*
X157490000Y-42880000D01*
X157490000Y-41080000D01*
X159290000Y-41080000D01*
X159290000Y-42880000D01*
X159290000Y-42880000D01*
G37*
G36*
X133890000Y-42880000D02*
G01*
X132090000Y-42880000D01*
X132090000Y-41080000D01*
X133890000Y-41080000D01*
X133890000Y-42880000D01*
X133890000Y-42880000D01*
G37*
G36*
X131350000Y-42880000D02*
G01*
X129550000Y-42880000D01*
X129550000Y-41080000D01*
X131350000Y-41080000D01*
X131350000Y-42880000D01*
X131350000Y-42880000D01*
G37*
G36*
X128810000Y-42880000D02*
G01*
X127010000Y-42880000D01*
X127010000Y-41080000D01*
X128810000Y-41080000D01*
X128810000Y-42880000D01*
X128810000Y-42880000D01*
G37*
G36*
X126270000Y-42880000D02*
G01*
X124470000Y-42880000D01*
X124470000Y-41080000D01*
X126270000Y-41080000D01*
X126270000Y-42880000D01*
X126270000Y-42880000D01*
G37*
G36*
X123730000Y-42880000D02*
G01*
X121930000Y-42880000D01*
X121930000Y-41080000D01*
X123730000Y-41080000D01*
X123730000Y-42880000D01*
X123730000Y-42880000D01*
G37*
G36*
X121190000Y-42880000D02*
G01*
X119390000Y-42880000D01*
X119390000Y-41080000D01*
X121190000Y-41080000D01*
X121190000Y-42880000D01*
X121190000Y-42880000D01*
G37*
G36*
X161830000Y-42880000D02*
G01*
X160030000Y-42880000D01*
X160030000Y-41080000D01*
X161830000Y-41080000D01*
X161830000Y-42880000D01*
X161830000Y-42880000D01*
G37*
G36*
X118650000Y-42880000D02*
G01*
X116850000Y-42880000D01*
X116850000Y-41080000D01*
X118650000Y-41080000D01*
X118650000Y-42880000D01*
X118650000Y-42880000D01*
G37*
G36*
X110550000Y-42425000D02*
G01*
X109950000Y-42425000D01*
X109950000Y-41075000D01*
X110550000Y-41075000D01*
X110550000Y-42425000D01*
X110550000Y-42425000D01*
G37*
G36*
X108800000Y-42425000D02*
G01*
X108200000Y-42425000D01*
X108200000Y-41075000D01*
X108800000Y-41075000D01*
X108800000Y-42425000D01*
X108800000Y-42425000D01*
G37*
M02*
