M48
; DRILL file {KiCad (5.1.2-1)-1} date суббота, 19 октября 2019 г., 13:23:54
; FORMAT={3:3/ absolute / metric / keep zeros}
; #@! TF.CreationDate,2019-10-19T13:23:54+03:00
; #@! TF.GenerationSoftware,Kicad,Pcbnew,(5.1.2-1)-1
; #@! TF.FileFunction,Plated,1,4,PTH
FMAT,2
METRIC
T1C0.400
T2C1.000
%
G90
G05
T1
X102500Y-054500
X103750Y-064000
X104000Y-073500
X104250Y-058250
X106000Y-066750
X107250Y-070000
X108250Y-070000
X109250Y-070000
X110250Y-073750
X111250Y-045000
X111250Y-047250
X111750Y-070000
X112500Y-069000
X113250Y-071750
X114250Y-041500
X114250Y-077500
X115000Y-042500
X115000Y-043500
X115000Y-044500
X115000Y-045500
X115000Y-046500
X115000Y-047500
X115000Y-048500
X115000Y-049500
X115000Y-050500
X115000Y-051500
X115000Y-052500
X115000Y-053500
X115000Y-054500
X115000Y-055500
X115000Y-056500
X116750Y-079250
X117000Y-059500
X117250Y-070750
X117750Y-055000
X120000Y-058750
X120000Y-064000
X120000Y-066500
X121000Y-055000
X122500Y-069750
X123000Y-066750
X124500Y-045500
X124500Y-057250
X124500Y-078500
X125500Y-045500
X125500Y-057250
X125500Y-072500
X125500Y-077500
X126500Y-045500
X126500Y-057250
X127500Y-045500
X127500Y-057250
X128250Y-059000
X128500Y-046500
X128500Y-047500
X128500Y-048500
X128500Y-049500
X128500Y-050500
X128500Y-051500
X128500Y-052500
X128500Y-053500
X128500Y-054500
X128500Y-055500
X128500Y-056500
X128750Y-062500
X129000Y-078000
X130250Y-070250
X131000Y-064500
X131000Y-069500
X131000Y-071750
X131500Y-056250
X131750Y-070250
X133263Y-062457
X134500Y-067250
X136750Y-054550
X137250Y-077500
X138000Y-045500
X138030Y-055030
X138750Y-077500
X139000Y-045500
X139000Y-055750
X140000Y-045500
X140000Y-056500
X140750Y-063750
X141000Y-045500
X141250Y-073000
X142000Y-046500
X142000Y-047500
X142000Y-048500
X142000Y-049500
X142000Y-050500
X142000Y-051500
X142000Y-052500
X142000Y-053500
X142000Y-054500
X142000Y-055500
X142000Y-056500
X143750Y-061750
X144600Y-069000
X145750Y-066500
X149500Y-059000
X149500Y-060275
X149500Y-061500
X149963Y-069518
X150500Y-054550
X150500Y-077500
X151500Y-045500
X151945Y-055168
X152250Y-079000
X152500Y-045500
X152500Y-056000
X153500Y-045500
X153500Y-056025
X154500Y-045500
X155500Y-046500
X155500Y-047500
X155500Y-048500
X155500Y-049500
X155500Y-050500
X155500Y-051500
X155500Y-052500
X155500Y-053500
X155500Y-054500
X155500Y-055500
X155500Y-056500
X155750Y-058750
X156000Y-079000
X157500Y-073250
X165000Y-045500
X165000Y-054750
X166000Y-045500
X166000Y-051250
X166000Y-054750
X166000Y-079000
X167000Y-045500
X167000Y-054750
X167250Y-050000
X168000Y-054750
T2
X168000Y-068250
X168000Y-070790
X168000Y-057000
X168000Y-059540
X168000Y-062080
X168000Y-064620
X105000Y-079000
X107540Y-079000
X110080Y-079000
X112620Y-079000
X117750Y-041980
X117750Y-075000
X120290Y-041980
X120290Y-075000
X122830Y-041980
X122830Y-075000
X125370Y-041980
X125370Y-075000
X127910Y-041980
X127910Y-075000
X130450Y-041980
X130450Y-075000
X132990Y-041980
X132990Y-075000
X135530Y-041980
X135530Y-075000
X138070Y-041980
X138070Y-075000
X140610Y-041980
X140610Y-075000
X143150Y-041980
X143150Y-075000
X145690Y-041980
X145690Y-075000
X148230Y-041980
X148230Y-075000
X150770Y-041980
X150770Y-075000
X153310Y-041980
X153310Y-075000
X155850Y-041980
X155850Y-075000
X158390Y-041980
X158390Y-075000
X160930Y-041980
X160930Y-075000
X163470Y-041980
X163470Y-075000
X166010Y-041980
X166010Y-075000
X103710Y-044250
X103710Y-046790
X103710Y-049330
X106250Y-044250
X106250Y-046790
X106250Y-049330
T0
M30
