G04 #@! TF.GenerationSoftware,KiCad,Pcbnew,(5.1.2-1)-1*
G04 #@! TF.CreationDate,2021-05-08T22:39:51+03:00*
G04 #@! TF.ProjectId,UAK_3,55414b5f-332e-46b6-9963-61645f706362,rev?*
G04 #@! TF.SameCoordinates,Original*
G04 #@! TF.FileFunction,Legend,Top*
G04 #@! TF.FilePolarity,Positive*
%FSLAX46Y46*%
G04 Gerber Fmt 4.6, Leading zero omitted, Abs format (unit mm)*
G04 Created by KiCad (PCBNEW (5.1.2-1)-1) date 2021-05-08 22:39:51*
%MOMM*%
%LPD*%
G04 APERTURE LIST*
%ADD10C,0.150000*%
G04 APERTURE END LIST*
D10*
X5500000Y9250000D02*
X5500000Y45250000D01*
X8500000Y9250000D02*
X5500000Y9250000D01*
X8500000Y45250000D02*
X8500000Y9250000D01*
X5500000Y45250000D02*
X8500000Y45250000D01*
X18000000Y5000000D02*
X59250000Y5000000D01*
X18000000Y2000000D02*
X18000000Y5000000D01*
X59250000Y2000000D02*
X18000000Y2000000D01*
X59250000Y5000000D02*
X59250000Y2000000D01*
X3478571Y45078571D02*
X3878571Y44478571D01*
X3878571Y45078571D02*
X3478571Y44478571D01*
X4078571Y44507142D02*
X4164285Y44478571D01*
X4307142Y44478571D01*
X4364285Y44507142D01*
X4392857Y44535714D01*
X4421428Y44592857D01*
X4421428Y44650000D01*
X4392857Y44707142D01*
X4364285Y44735714D01*
X4307142Y44764285D01*
X4192857Y44792857D01*
X4135714Y44821428D01*
X4107142Y44850000D01*
X4078571Y44907142D01*
X4078571Y44964285D01*
X4107142Y45021428D01*
X4135714Y45050000D01*
X4192857Y45078571D01*
X4335714Y45078571D01*
X4421428Y45050000D01*
X4650000Y45021428D02*
X4678571Y45050000D01*
X4735714Y45078571D01*
X4878571Y45078571D01*
X4935714Y45050000D01*
X4964285Y45021428D01*
X4992857Y44964285D01*
X4992857Y44907142D01*
X4964285Y44821428D01*
X4621428Y44478571D01*
X4992857Y44478571D01*
X59728571Y3828571D02*
X60128571Y3228571D01*
X60128571Y3828571D02*
X59728571Y3228571D01*
X60328571Y3257142D02*
X60414285Y3228571D01*
X60557142Y3228571D01*
X60614285Y3257142D01*
X60642857Y3285714D01*
X60671428Y3342857D01*
X60671428Y3400000D01*
X60642857Y3457142D01*
X60614285Y3485714D01*
X60557142Y3514285D01*
X60442857Y3542857D01*
X60385714Y3571428D01*
X60357142Y3600000D01*
X60328571Y3657142D01*
X60328571Y3714285D01*
X60357142Y3771428D01*
X60385714Y3800000D01*
X60442857Y3828571D01*
X60585714Y3828571D01*
X60671428Y3800000D01*
X61242857Y3228571D02*
X60900000Y3228571D01*
X61071428Y3228571D02*
X61071428Y3828571D01*
X61014285Y3742857D01*
X60957142Y3685714D01*
X60900000Y3657142D01*
X65750000Y45000000D02*
X65750000Y44250000D01*
X68250000Y44250000D02*
X68250000Y45000000D01*
X65750000Y48500000D02*
X65750000Y49250000D01*
X68250000Y49250000D02*
X68250000Y48500000D01*
X65750000Y49250000D02*
X68250000Y49250000D01*
X65750000Y44250000D02*
X68250000Y44250000D01*
X67000000Y46750000D02*
X66500000Y46250000D01*
X67000000Y46750000D02*
X67500000Y47250000D01*
X61580000Y49760000D02*
X60650000Y49760000D01*
X58420000Y49760000D02*
X59350000Y49760000D01*
X61580000Y49760000D02*
X61580000Y48300000D01*
X58420000Y49760000D02*
X58420000Y48300000D01*
X73080000Y70760000D02*
X72150000Y70760000D01*
X69920000Y70760000D02*
X70850000Y70760000D01*
X73080000Y70760000D02*
X73080000Y69300000D01*
X69920000Y70760000D02*
X69920000Y69300000D01*
X66080000Y9510000D02*
X65150000Y9510000D01*
X62920000Y9510000D02*
X63850000Y9510000D01*
X66080000Y9510000D02*
X66080000Y8050000D01*
X62920000Y9510000D02*
X62920000Y8050000D01*
X81830000Y70760000D02*
X80900000Y70760000D01*
X78670000Y70760000D02*
X79600000Y70760000D01*
X81830000Y70760000D02*
X81830000Y69300000D01*
X78670000Y70760000D02*
X78670000Y69300000D01*
X17670000Y45490000D02*
X18600000Y45490000D01*
X20830000Y45490000D02*
X19900000Y45490000D01*
X17670000Y45490000D02*
X17670000Y46950000D01*
X20830000Y45490000D02*
X20830000Y46950000D01*
X84000000Y77000000D02*
X80000000Y77000000D01*
X79500000Y77500000D02*
X80000000Y77000000D01*
X84000000Y81000000D02*
X79250000Y81000000D01*
X5000000Y20350000D02*
X4250000Y20350000D01*
X5000000Y19600000D02*
X5000000Y20350000D01*
X500000Y20350000D02*
X500000Y19600000D01*
X500000Y20350000D02*
X1250000Y20350000D01*
X5000000Y14350000D02*
X5000000Y15100000D01*
X5000000Y14350000D02*
X4250000Y14350000D01*
X500000Y14350000D02*
X500000Y15100000D01*
X500000Y14350000D02*
X1250000Y14350000D01*
X83350000Y62900000D02*
X83350000Y59100000D01*
X90150000Y59100000D02*
X90150000Y62900000D01*
X83350000Y62900000D02*
X84350000Y62900000D01*
X83350000Y59100000D02*
X84350000Y59100000D01*
X90150000Y62900000D02*
X89150000Y62900000D01*
X90150000Y59100000D02*
X89150000Y59100000D01*
X86750000Y61000000D02*
X87750000Y61000000D01*
X86750000Y61000000D02*
X85750000Y61000000D01*
X11750000Y37000000D02*
X16750000Y37000000D01*
X16750000Y35500000D02*
X16750000Y37000000D01*
X11750000Y37000000D02*
X11750000Y35500000D01*
X10750000Y33500000D02*
X10750000Y28500000D01*
X17750000Y33500000D02*
X17750000Y28500000D01*
X58050000Y72000000D02*
X58050000Y73600000D01*
X61350000Y73600000D02*
X61350000Y71900000D01*
X58050000Y75000000D02*
X58050000Y74600000D01*
X58050000Y75000000D02*
X58450000Y75000000D01*
X61350000Y75000000D02*
X61350000Y74600000D01*
X61350000Y75000000D02*
X60950000Y75000000D01*
X58050000Y70600000D02*
X58050000Y71000000D01*
X58050000Y70600000D02*
X58450000Y70600000D01*
X61350000Y70600000D02*
X61350000Y71000000D01*
X61350000Y70600000D02*
X60950000Y70600000D01*
X95500000Y22250000D02*
X95500000Y22000000D01*
X95500000Y22750000D02*
X95500000Y23000000D01*
X94500000Y22250000D02*
X96500000Y22250000D01*
X94500000Y22750000D02*
X96500000Y22750000D01*
X93500000Y25500000D02*
X93500000Y24400000D01*
X97500000Y19500000D02*
X97500000Y20600000D01*
X93500000Y19500000D02*
X93500000Y20600000D01*
X93500000Y19500000D02*
X97500000Y19500000D01*
X93500000Y25500000D02*
X97500000Y25500000D01*
X97500000Y25500000D02*
X97500000Y24400000D01*
X29050000Y20100000D02*
X28550000Y20100000D01*
X29050000Y21900000D02*
X28550000Y21900000D01*
X29050000Y21900000D02*
X29050000Y20100000D01*
X26250000Y20100000D02*
X26750000Y20100000D01*
X26250000Y21900000D02*
X26250000Y20100000D01*
X26250000Y21900000D02*
X26750000Y21900000D01*
X9450000Y56400000D02*
X9950000Y56400000D01*
X9450000Y54600000D02*
X9950000Y54600000D01*
X9450000Y54600000D02*
X9450000Y56400000D01*
X12250000Y56400000D02*
X11750000Y56400000D01*
X12250000Y54600000D02*
X12250000Y56400000D01*
X12250000Y54600000D02*
X11750000Y54600000D01*
X36600000Y13950000D02*
X36600000Y14450000D01*
X38400000Y13950000D02*
X38400000Y14450000D01*
X38400000Y13950000D02*
X36600000Y13950000D01*
X36600000Y16750000D02*
X36600000Y16250000D01*
X38400000Y16750000D02*
X36600000Y16750000D01*
X38400000Y16750000D02*
X38400000Y16250000D01*
X13600000Y22700000D02*
X13600000Y23200000D01*
X15400000Y22700000D02*
X15400000Y23200000D01*
X15400000Y22700000D02*
X13600000Y22700000D01*
X13600000Y25500000D02*
X13600000Y25000000D01*
X15400000Y25500000D02*
X13600000Y25500000D01*
X15400000Y25500000D02*
X15400000Y25000000D01*
X67850000Y71200000D02*
X67850000Y71700000D01*
X69650000Y71200000D02*
X69650000Y71700000D01*
X69650000Y71200000D02*
X67850000Y71200000D01*
X67850000Y74000000D02*
X67850000Y73500000D01*
X69650000Y74000000D02*
X67850000Y74000000D01*
X69650000Y74000000D02*
X69650000Y73500000D01*
X55600000Y78450000D02*
X55600000Y78950000D01*
X57400000Y78450000D02*
X57400000Y78950000D01*
X57400000Y78450000D02*
X55600000Y78450000D01*
X55600000Y81250000D02*
X55600000Y80750000D01*
X57400000Y81250000D02*
X55600000Y81250000D01*
X57400000Y81250000D02*
X57400000Y80750000D01*
X30050000Y85600000D02*
X29550000Y85600000D01*
X30050000Y87400000D02*
X29550000Y87400000D01*
X30050000Y87400000D02*
X30050000Y85600000D01*
X27250000Y85600000D02*
X27750000Y85600000D01*
X27250000Y87400000D02*
X27250000Y85600000D01*
X27250000Y87400000D02*
X27750000Y87400000D01*
X20550000Y51850000D02*
X20050000Y51850000D01*
X20550000Y53650000D02*
X20050000Y53650000D01*
X20550000Y53650000D02*
X20550000Y51850000D01*
X17750000Y51850000D02*
X18250000Y51850000D01*
X17750000Y53650000D02*
X17750000Y51850000D01*
X17750000Y53650000D02*
X18250000Y53650000D01*
X54350000Y71200000D02*
X54350000Y71700000D01*
X56150000Y71200000D02*
X56150000Y71700000D01*
X56150000Y71200000D02*
X54350000Y71200000D01*
X54350000Y74000000D02*
X54350000Y73500000D01*
X56150000Y74000000D02*
X54350000Y74000000D01*
X56150000Y74000000D02*
X56150000Y73500000D01*
X67750000Y79750000D02*
X67750000Y78250000D01*
X68250000Y79750000D02*
X68250000Y78250000D01*
X67750000Y79000000D02*
X67500000Y79000000D01*
X68250000Y79000000D02*
X68500000Y79000000D01*
X63000000Y81250000D02*
X72000000Y81250000D01*
X63000000Y81250000D02*
X63000000Y80500000D01*
X63000000Y76750000D02*
X63000000Y77500000D01*
X63000000Y76750000D02*
X72000000Y76750000D01*
X63000000Y79750000D02*
X63000000Y78250000D01*
X2500000Y61500000D02*
X3000000Y61500000D01*
X2500000Y61500000D02*
X2500000Y62000000D01*
X2500000Y80000000D02*
X2500000Y79500000D01*
X2500000Y80000000D02*
X3000000Y80000000D01*
X9250000Y62250000D02*
X9250000Y79250000D01*
X6000000Y67250000D02*
X6000000Y68250000D01*
X6000000Y68250000D02*
X5500000Y68250000D01*
X5500000Y68250000D02*
X5500000Y68750000D01*
X5500000Y68750000D02*
X6500000Y68750000D01*
X6500000Y68750000D02*
X6500000Y69250000D01*
X6500000Y69250000D02*
X5500000Y69250000D01*
X5500000Y69250000D02*
X5500000Y69750000D01*
X5500000Y69750000D02*
X6500000Y69750000D01*
X6500000Y69750000D02*
X6500000Y70250000D01*
X6500000Y70250000D02*
X5500000Y70250000D01*
X5500000Y70250000D02*
X5500000Y70750000D01*
X5500000Y70750000D02*
X6500000Y70750000D01*
X4500001Y71249999D02*
G75*
G02X7499999Y71249999I1499999J-1499999D01*
G01*
X4000001Y71749999D02*
G75*
G02X7999999Y71749999I1999999J-1999999D01*
G01*
X3500001Y72249999D02*
G75*
G02X8499999Y72249999I2499999J-2499999D01*
G01*
X3000001Y72749999D02*
G75*
G02X8999999Y72749999I2999999J-2999999D01*
G01*
X34500000Y61500000D02*
X34000000Y61500000D01*
X34500000Y61500000D02*
X34500000Y62000000D01*
X34500000Y80000000D02*
X34000000Y80000000D01*
X34500000Y80000000D02*
X34500000Y79500000D01*
X23550000Y5350000D02*
X23050000Y5350000D01*
X23550000Y7150000D02*
X23050000Y7150000D01*
X23550000Y7150000D02*
X23550000Y5350000D01*
X20750000Y5350000D02*
X21250000Y5350000D01*
X20750000Y7150000D02*
X20750000Y5350000D01*
X20750000Y7150000D02*
X21250000Y7150000D01*
X28050000Y5350000D02*
X27550000Y5350000D01*
X28050000Y7150000D02*
X27550000Y7150000D01*
X28050000Y7150000D02*
X28050000Y5350000D01*
X25250000Y5350000D02*
X25750000Y5350000D01*
X25250000Y7150000D02*
X25250000Y5350000D01*
X25250000Y7150000D02*
X25750000Y7150000D01*
X31550000Y5350000D02*
X31050000Y5350000D01*
X31550000Y7150000D02*
X31050000Y7150000D01*
X31550000Y7150000D02*
X31550000Y5350000D01*
X28750000Y5350000D02*
X29250000Y5350000D01*
X28750000Y7150000D02*
X28750000Y5350000D01*
X28750000Y7150000D02*
X29250000Y7150000D01*
X75350000Y68950000D02*
X75350000Y69450000D01*
X77150000Y68950000D02*
X77150000Y69450000D01*
X77150000Y68950000D02*
X75350000Y68950000D01*
X75350000Y71750000D02*
X75350000Y71250000D01*
X77150000Y71750000D02*
X75350000Y71750000D01*
X77150000Y71750000D02*
X77150000Y71250000D01*
X81800000Y64850000D02*
X81300000Y64850000D01*
X81800000Y66650000D02*
X81300000Y66650000D01*
X81800000Y66650000D02*
X81800000Y64850000D01*
X79000000Y64850000D02*
X79500000Y64850000D01*
X79000000Y66650000D02*
X79000000Y64850000D01*
X79000000Y66650000D02*
X79500000Y66650000D01*
X75350000Y64700000D02*
X75350000Y65200000D01*
X77150000Y64700000D02*
X77150000Y65200000D01*
X77150000Y64700000D02*
X75350000Y64700000D01*
X75350000Y67500000D02*
X75350000Y67000000D01*
X77150000Y67500000D02*
X75350000Y67500000D01*
X77150000Y67500000D02*
X77150000Y67000000D01*
X35175000Y5350000D02*
X34675000Y5350000D01*
X35175000Y7150000D02*
X34675000Y7150000D01*
X35175000Y7150000D02*
X35175000Y5350000D01*
X32375000Y5350000D02*
X32875000Y5350000D01*
X32375000Y7150000D02*
X32375000Y5350000D01*
X32375000Y7150000D02*
X32875000Y7150000D01*
X43550000Y5350000D02*
X43050000Y5350000D01*
X43550000Y7150000D02*
X43050000Y7150000D01*
X43550000Y7150000D02*
X43550000Y5350000D01*
X40750000Y5350000D02*
X41250000Y5350000D01*
X40750000Y7150000D02*
X40750000Y5350000D01*
X40750000Y7150000D02*
X41250000Y7150000D01*
X48900000Y79300000D02*
X48900000Y78800000D01*
X47100000Y79300000D02*
X47100000Y78800000D01*
X47100000Y79300000D02*
X48900000Y79300000D01*
X48900000Y76500000D02*
X48900000Y77000000D01*
X47100000Y76500000D02*
X48900000Y76500000D01*
X47100000Y76500000D02*
X47100000Y77000000D01*
X26050000Y85600000D02*
X25550000Y85600000D01*
X26050000Y87400000D02*
X25550000Y87400000D01*
X26050000Y87400000D02*
X26050000Y85600000D01*
X23250000Y85600000D02*
X23750000Y85600000D01*
X23250000Y87400000D02*
X23250000Y85600000D01*
X23250000Y87400000D02*
X23750000Y87400000D01*
X17700000Y56400000D02*
X18200000Y56400000D01*
X17700000Y54600000D02*
X18200000Y54600000D01*
X17700000Y54600000D02*
X17700000Y56400000D01*
X20500000Y56400000D02*
X20000000Y56400000D01*
X20500000Y54600000D02*
X20500000Y56400000D01*
X20500000Y54600000D02*
X20000000Y54600000D01*
X65350000Y71200000D02*
X65350000Y71700000D01*
X67150000Y71200000D02*
X67150000Y71700000D01*
X67150000Y71200000D02*
X65350000Y71200000D01*
X65350000Y74000000D02*
X65350000Y73500000D01*
X67150000Y74000000D02*
X65350000Y74000000D01*
X67150000Y74000000D02*
X67150000Y73500000D01*
X53100000Y78450000D02*
X53100000Y78950000D01*
X54900000Y78450000D02*
X54900000Y78950000D01*
X54900000Y78450000D02*
X53100000Y78450000D01*
X53100000Y81250000D02*
X53100000Y80750000D01*
X54900000Y81250000D02*
X53100000Y81250000D01*
X54900000Y81250000D02*
X54900000Y80750000D01*
X26050000Y82600000D02*
X25550000Y82600000D01*
X26050000Y84400000D02*
X25550000Y84400000D01*
X26050000Y84400000D02*
X26050000Y82600000D01*
X23250000Y82600000D02*
X23750000Y82600000D01*
X23250000Y84400000D02*
X23250000Y82600000D01*
X23250000Y84400000D02*
X23750000Y84400000D01*
X62850000Y71200000D02*
X62850000Y71700000D01*
X64650000Y71200000D02*
X64650000Y71700000D01*
X64650000Y71200000D02*
X62850000Y71200000D01*
X62850000Y74000000D02*
X62850000Y73500000D01*
X64650000Y74000000D02*
X62850000Y74000000D01*
X64650000Y74000000D02*
X64650000Y73500000D01*
X50600000Y78450000D02*
X50600000Y78950000D01*
X52400000Y78450000D02*
X52400000Y78950000D01*
X52400000Y78450000D02*
X50600000Y78450000D01*
X50600000Y81250000D02*
X50600000Y80750000D01*
X52400000Y81250000D02*
X50600000Y81250000D01*
X52400000Y81250000D02*
X52400000Y80750000D01*
X16300000Y54600000D02*
X15800000Y54600000D01*
X16300000Y56400000D02*
X15800000Y56400000D01*
X16300000Y56400000D02*
X16300000Y54600000D01*
X13500000Y54600000D02*
X14000000Y54600000D01*
X13500000Y56400000D02*
X13500000Y54600000D01*
X13500000Y56400000D02*
X14000000Y56400000D01*
X61550000Y43850000D02*
X61050000Y43850000D01*
X61550000Y45650000D02*
X61050000Y45650000D01*
X61550000Y45650000D02*
X61550000Y43850000D01*
X58750000Y43850000D02*
X59250000Y43850000D01*
X58750000Y45650000D02*
X58750000Y43850000D01*
X58750000Y45650000D02*
X59250000Y45650000D01*
X73050000Y64850000D02*
X72550000Y64850000D01*
X73050000Y66650000D02*
X72550000Y66650000D01*
X73050000Y66650000D02*
X73050000Y64850000D01*
X70250000Y64850000D02*
X70750000Y64850000D01*
X70250000Y66650000D02*
X70250000Y64850000D01*
X70250000Y66650000D02*
X70750000Y66650000D01*
X66050000Y3600000D02*
X65550000Y3600000D01*
X66050000Y5400000D02*
X65550000Y5400000D01*
X66050000Y5400000D02*
X66050000Y3600000D01*
X63250000Y3600000D02*
X63750000Y3600000D01*
X63250000Y5400000D02*
X63250000Y3600000D01*
X63250000Y5400000D02*
X63750000Y5400000D01*
X56900000Y50050000D02*
X56900000Y49550000D01*
X55100000Y50050000D02*
X55100000Y49550000D01*
X55100000Y50050000D02*
X56900000Y50050000D01*
X56900000Y47250000D02*
X56900000Y47750000D01*
X55100000Y47250000D02*
X56900000Y47250000D01*
X55100000Y47250000D02*
X55100000Y47750000D01*
X66600000Y65200000D02*
X66600000Y65700000D01*
X68400000Y65200000D02*
X68400000Y65700000D01*
X68400000Y65200000D02*
X66600000Y65200000D01*
X66600000Y68000000D02*
X66600000Y67500000D01*
X68400000Y68000000D02*
X66600000Y68000000D01*
X68400000Y68000000D02*
X68400000Y67500000D01*
X61400000Y9800000D02*
X61400000Y9300000D01*
X59600000Y9800000D02*
X59600000Y9300000D01*
X59600000Y9800000D02*
X61400000Y9800000D01*
X61400000Y7000000D02*
X61400000Y7500000D01*
X59600000Y7000000D02*
X61400000Y7000000D01*
X59600000Y7000000D02*
X59600000Y7500000D01*
X91250000Y52500000D02*
X91250000Y51500000D01*
X91250000Y52500000D02*
X90250000Y52500000D01*
X91250000Y2000000D02*
X90250000Y2000000D01*
X91250000Y2000000D02*
X91250000Y3000000D01*
X4750000Y2000000D02*
X4750000Y3000000D01*
X4750000Y2000000D02*
X5750000Y2000000D01*
X4750000Y52500000D02*
X4750000Y51500000D01*
X4750000Y52500000D02*
X5750000Y52500000D01*
X93700000Y750000D02*
X93700000Y1750000D01*
X93700000Y750000D02*
X92700000Y750000D01*
X9200000Y750000D02*
X10200000Y750000D01*
X9200000Y750000D02*
X9200000Y1750000D01*
X9200000Y45250000D02*
X9200000Y44250000D01*
X9200000Y45250000D02*
X10200000Y45250000D01*
X93700000Y45250000D02*
X93700000Y44250000D01*
X93700000Y45250000D02*
X92700000Y45250000D01*
X66614285Y49728571D02*
X66414285Y50014285D01*
X66271428Y49728571D02*
X66271428Y50328571D01*
X66500000Y50328571D01*
X66557142Y50300000D01*
X66585714Y50271428D01*
X66614285Y50214285D01*
X66614285Y50128571D01*
X66585714Y50071428D01*
X66557142Y50042857D01*
X66500000Y50014285D01*
X66271428Y50014285D01*
X67185714Y49728571D02*
X66842857Y49728571D01*
X67014285Y49728571D02*
X67014285Y50328571D01*
X66957142Y50242857D01*
X66900000Y50185714D01*
X66842857Y50157142D01*
X67385714Y50328571D02*
X67785714Y50328571D01*
X67528571Y49728571D01*
X59285714Y51828571D02*
X59485714Y51228571D01*
X59685714Y51828571D01*
X59800000Y51828571D02*
X60142857Y51828571D01*
X59971428Y51228571D02*
X59971428Y51828571D01*
X60600000Y51628571D02*
X60600000Y51228571D01*
X60457142Y51857142D02*
X60314285Y51428571D01*
X60685714Y51428571D01*
X70785714Y72828571D02*
X70985714Y72228571D01*
X71185714Y72828571D01*
X71300000Y72828571D02*
X71642857Y72828571D01*
X71471428Y72228571D02*
X71471428Y72828571D01*
X71785714Y72828571D02*
X72157142Y72828571D01*
X71957142Y72600000D01*
X72042857Y72600000D01*
X72100000Y72571428D01*
X72128571Y72542857D01*
X72157142Y72485714D01*
X72157142Y72342857D01*
X72128571Y72285714D01*
X72100000Y72257142D01*
X72042857Y72228571D01*
X71871428Y72228571D01*
X71814285Y72257142D01*
X71785714Y72285714D01*
X63785714Y11578571D02*
X63985714Y10978571D01*
X64185714Y11578571D01*
X64300000Y11578571D02*
X64642857Y11578571D01*
X64471428Y10978571D02*
X64471428Y11578571D01*
X64814285Y11521428D02*
X64842857Y11550000D01*
X64900000Y11578571D01*
X65042857Y11578571D01*
X65100000Y11550000D01*
X65128571Y11521428D01*
X65157142Y11464285D01*
X65157142Y11407142D01*
X65128571Y11321428D01*
X64785714Y10978571D01*
X65157142Y10978571D01*
X79535714Y72828571D02*
X79735714Y72228571D01*
X79935714Y72828571D01*
X80050000Y72828571D02*
X80392857Y72828571D01*
X80221428Y72228571D02*
X80221428Y72828571D01*
X80907142Y72228571D02*
X80564285Y72228571D01*
X80735714Y72228571D02*
X80735714Y72828571D01*
X80678571Y72742857D01*
X80621428Y72685714D01*
X80564285Y72657142D01*
X18464285Y49078571D02*
X18664285Y48478571D01*
X18864285Y49078571D01*
X19064285Y48478571D02*
X19064285Y49078571D01*
X19207142Y49078571D01*
X19292857Y49050000D01*
X19350000Y48992857D01*
X19378571Y48935714D01*
X19407142Y48821428D01*
X19407142Y48735714D01*
X19378571Y48621428D01*
X19350000Y48564285D01*
X19292857Y48507142D01*
X19207142Y48478571D01*
X19064285Y48478571D01*
X19635714Y49021428D02*
X19664285Y49050000D01*
X19721428Y49078571D01*
X19864285Y49078571D01*
X19921428Y49050000D01*
X19950000Y49021428D01*
X19978571Y48964285D01*
X19978571Y48907142D01*
X19950000Y48821428D01*
X19607142Y48478571D01*
X19978571Y48478571D01*
X80714285Y82078571D02*
X80914285Y81478571D01*
X81114285Y82078571D01*
X81314285Y81478571D02*
X81314285Y82078571D01*
X81457142Y82078571D01*
X81542857Y82050000D01*
X81600000Y81992857D01*
X81628571Y81935714D01*
X81657142Y81821428D01*
X81657142Y81735714D01*
X81628571Y81621428D01*
X81600000Y81564285D01*
X81542857Y81507142D01*
X81457142Y81478571D01*
X81314285Y81478571D01*
X82228571Y81478571D02*
X81885714Y81478571D01*
X82057142Y81478571D02*
X82057142Y82078571D01*
X82000000Y81992857D01*
X81942857Y81935714D01*
X81885714Y81907142D01*
X2350000Y21228571D02*
X2150000Y21514285D01*
X2007142Y21228571D02*
X2007142Y21828571D01*
X2235714Y21828571D01*
X2292857Y21800000D01*
X2321428Y21771428D01*
X2350000Y21714285D01*
X2350000Y21628571D01*
X2321428Y21571428D01*
X2292857Y21542857D01*
X2235714Y21514285D01*
X2007142Y21514285D01*
X2607142Y21228571D02*
X2607142Y21828571D01*
X2835714Y21828571D01*
X2892857Y21800000D01*
X2921428Y21771428D01*
X2950000Y21714285D01*
X2950000Y21628571D01*
X2921428Y21571428D01*
X2892857Y21542857D01*
X2835714Y21514285D01*
X2607142Y21514285D01*
X3521428Y21228571D02*
X3178571Y21228571D01*
X3350000Y21228571D02*
X3350000Y21828571D01*
X3292857Y21742857D01*
X3235714Y21685714D01*
X3178571Y21657142D01*
X86650000Y62978571D02*
X86450000Y63264285D01*
X86307142Y62978571D02*
X86307142Y63578571D01*
X86535714Y63578571D01*
X86592857Y63550000D01*
X86621428Y63521428D01*
X86650000Y63464285D01*
X86650000Y63378571D01*
X86621428Y63321428D01*
X86592857Y63292857D01*
X86535714Y63264285D01*
X86307142Y63264285D01*
X87164285Y63378571D02*
X87164285Y62978571D01*
X87021428Y63607142D02*
X86878571Y63178571D01*
X87250000Y63178571D01*
X17621428Y36800000D02*
X17564285Y36828571D01*
X17478571Y36828571D01*
X17392857Y36800000D01*
X17335714Y36742857D01*
X17307142Y36685714D01*
X17278571Y36571428D01*
X17278571Y36485714D01*
X17307142Y36371428D01*
X17335714Y36314285D01*
X17392857Y36257142D01*
X17478571Y36228571D01*
X17535714Y36228571D01*
X17621428Y36257142D01*
X17650000Y36285714D01*
X17650000Y36485714D01*
X17535714Y36485714D01*
X17878571Y36771428D02*
X17907142Y36800000D01*
X17964285Y36828571D01*
X18107142Y36828571D01*
X18164285Y36800000D01*
X18192857Y36771428D01*
X18221428Y36714285D01*
X18221428Y36657142D01*
X18192857Y36571428D01*
X17850000Y36228571D01*
X18221428Y36228571D01*
X59007142Y75228571D02*
X59007142Y75828571D01*
X59150000Y75828571D01*
X59235714Y75800000D01*
X59292857Y75742857D01*
X59321428Y75685714D01*
X59350000Y75571428D01*
X59350000Y75485714D01*
X59321428Y75371428D01*
X59292857Y75314285D01*
X59235714Y75257142D01*
X59150000Y75228571D01*
X59007142Y75228571D01*
X59607142Y75228571D02*
X59607142Y75828571D01*
X59750000Y75828571D01*
X59835714Y75800000D01*
X59892857Y75742857D01*
X59921428Y75685714D01*
X59950000Y75571428D01*
X59950000Y75485714D01*
X59921428Y75371428D01*
X59892857Y75314285D01*
X59835714Y75257142D01*
X59750000Y75228571D01*
X59607142Y75228571D01*
X60521428Y75228571D02*
X60178571Y75228571D01*
X60350000Y75228571D02*
X60350000Y75828571D01*
X60292857Y75742857D01*
X60235714Y75685714D01*
X60178571Y75657142D01*
X95400000Y26035714D02*
X95371428Y26007142D01*
X95285714Y25978571D01*
X95228571Y25978571D01*
X95142857Y26007142D01*
X95085714Y26064285D01*
X95057142Y26121428D01*
X95028571Y26235714D01*
X95028571Y26321428D01*
X95057142Y26435714D01*
X95085714Y26492857D01*
X95142857Y26550000D01*
X95228571Y26578571D01*
X95285714Y26578571D01*
X95371428Y26550000D01*
X95400000Y26521428D01*
X95600000Y26578571D02*
X96000000Y26578571D01*
X95742857Y25978571D01*
X27114285Y22285714D02*
X27085714Y22257142D01*
X27000000Y22228571D01*
X26942857Y22228571D01*
X26857142Y22257142D01*
X26800000Y22314285D01*
X26771428Y22371428D01*
X26742857Y22485714D01*
X26742857Y22571428D01*
X26771428Y22685714D01*
X26800000Y22742857D01*
X26857142Y22800000D01*
X26942857Y22828571D01*
X27000000Y22828571D01*
X27085714Y22800000D01*
X27114285Y22771428D01*
X27685714Y22228571D02*
X27342857Y22228571D01*
X27514285Y22228571D02*
X27514285Y22828571D01*
X27457142Y22742857D01*
X27400000Y22685714D01*
X27342857Y22657142D01*
X28257142Y22228571D02*
X27914285Y22228571D01*
X28085714Y22228571D02*
X28085714Y22828571D01*
X28028571Y22742857D01*
X27971428Y22685714D01*
X27914285Y22657142D01*
X10650000Y56785714D02*
X10621428Y56757142D01*
X10535714Y56728571D01*
X10478571Y56728571D01*
X10392857Y56757142D01*
X10335714Y56814285D01*
X10307142Y56871428D01*
X10278571Y56985714D01*
X10278571Y57071428D01*
X10307142Y57185714D01*
X10335714Y57242857D01*
X10392857Y57300000D01*
X10478571Y57328571D01*
X10535714Y57328571D01*
X10621428Y57300000D01*
X10650000Y57271428D01*
X10935714Y56728571D02*
X11050000Y56728571D01*
X11107142Y56757142D01*
X11135714Y56785714D01*
X11192857Y56871428D01*
X11221428Y56985714D01*
X11221428Y57214285D01*
X11192857Y57271428D01*
X11164285Y57300000D01*
X11107142Y57328571D01*
X10992857Y57328571D01*
X10935714Y57300000D01*
X10907142Y57271428D01*
X10878571Y57214285D01*
X10878571Y57071428D01*
X10907142Y57014285D01*
X10935714Y56985714D01*
X10992857Y56957142D01*
X11107142Y56957142D01*
X11164285Y56985714D01*
X11192857Y57014285D01*
X11221428Y57071428D01*
X37114285Y17285714D02*
X37085714Y17257142D01*
X37000000Y17228571D01*
X36942857Y17228571D01*
X36857142Y17257142D01*
X36800000Y17314285D01*
X36771428Y17371428D01*
X36742857Y17485714D01*
X36742857Y17571428D01*
X36771428Y17685714D01*
X36800000Y17742857D01*
X36857142Y17800000D01*
X36942857Y17828571D01*
X37000000Y17828571D01*
X37085714Y17800000D01*
X37114285Y17771428D01*
X37685714Y17228571D02*
X37342857Y17228571D01*
X37514285Y17228571D02*
X37514285Y17828571D01*
X37457142Y17742857D01*
X37400000Y17685714D01*
X37342857Y17657142D01*
X38057142Y17828571D02*
X38114285Y17828571D01*
X38171428Y17800000D01*
X38200000Y17771428D01*
X38228571Y17714285D01*
X38257142Y17600000D01*
X38257142Y17457142D01*
X38228571Y17342857D01*
X38200000Y17285714D01*
X38171428Y17257142D01*
X38114285Y17228571D01*
X38057142Y17228571D01*
X38000000Y17257142D01*
X37971428Y17285714D01*
X37942857Y17342857D01*
X37914285Y17457142D01*
X37914285Y17600000D01*
X37942857Y17714285D01*
X37971428Y17771428D01*
X38000000Y17800000D01*
X38057142Y17828571D01*
X14400000Y26035714D02*
X14371428Y26007142D01*
X14285714Y25978571D01*
X14228571Y25978571D01*
X14142857Y26007142D01*
X14085714Y26064285D01*
X14057142Y26121428D01*
X14028571Y26235714D01*
X14028571Y26321428D01*
X14057142Y26435714D01*
X14085714Y26492857D01*
X14142857Y26550000D01*
X14228571Y26578571D01*
X14285714Y26578571D01*
X14371428Y26550000D01*
X14400000Y26521428D01*
X14742857Y26321428D02*
X14685714Y26350000D01*
X14657142Y26378571D01*
X14628571Y26435714D01*
X14628571Y26464285D01*
X14657142Y26521428D01*
X14685714Y26550000D01*
X14742857Y26578571D01*
X14857142Y26578571D01*
X14914285Y26550000D01*
X14942857Y26521428D01*
X14971428Y26464285D01*
X14971428Y26435714D01*
X14942857Y26378571D01*
X14914285Y26350000D01*
X14857142Y26321428D01*
X14742857Y26321428D01*
X14685714Y26292857D01*
X14657142Y26264285D01*
X14628571Y26207142D01*
X14628571Y26092857D01*
X14657142Y26035714D01*
X14685714Y26007142D01*
X14742857Y25978571D01*
X14857142Y25978571D01*
X14914285Y26007142D01*
X14942857Y26035714D01*
X14971428Y26092857D01*
X14971428Y26207142D01*
X14942857Y26264285D01*
X14914285Y26292857D01*
X14857142Y26321428D01*
X68650000Y74285714D02*
X68621428Y74257142D01*
X68535714Y74228571D01*
X68478571Y74228571D01*
X68392857Y74257142D01*
X68335714Y74314285D01*
X68307142Y74371428D01*
X68278571Y74485714D01*
X68278571Y74571428D01*
X68307142Y74685714D01*
X68335714Y74742857D01*
X68392857Y74800000D01*
X68478571Y74828571D01*
X68535714Y74828571D01*
X68621428Y74800000D01*
X68650000Y74771428D01*
X69164285Y74828571D02*
X69050000Y74828571D01*
X68992857Y74800000D01*
X68964285Y74771428D01*
X68907142Y74685714D01*
X68878571Y74571428D01*
X68878571Y74342857D01*
X68907142Y74285714D01*
X68935714Y74257142D01*
X68992857Y74228571D01*
X69107142Y74228571D01*
X69164285Y74257142D01*
X69192857Y74285714D01*
X69221428Y74342857D01*
X69221428Y74485714D01*
X69192857Y74542857D01*
X69164285Y74571428D01*
X69107142Y74600000D01*
X68992857Y74600000D01*
X68935714Y74571428D01*
X68907142Y74542857D01*
X68878571Y74485714D01*
X56400000Y81535714D02*
X56371428Y81507142D01*
X56285714Y81478571D01*
X56228571Y81478571D01*
X56142857Y81507142D01*
X56085714Y81564285D01*
X56057142Y81621428D01*
X56028571Y81735714D01*
X56028571Y81821428D01*
X56057142Y81935714D01*
X56085714Y81992857D01*
X56142857Y82050000D01*
X56228571Y82078571D01*
X56285714Y82078571D01*
X56371428Y82050000D01*
X56400000Y82021428D01*
X56942857Y82078571D02*
X56657142Y82078571D01*
X56628571Y81792857D01*
X56657142Y81821428D01*
X56714285Y81850000D01*
X56857142Y81850000D01*
X56914285Y81821428D01*
X56942857Y81792857D01*
X56971428Y81735714D01*
X56971428Y81592857D01*
X56942857Y81535714D01*
X56914285Y81507142D01*
X56857142Y81478571D01*
X56714285Y81478571D01*
X56657142Y81507142D01*
X56628571Y81535714D01*
X28400000Y87785714D02*
X28371428Y87757142D01*
X28285714Y87728571D01*
X28228571Y87728571D01*
X28142857Y87757142D01*
X28085714Y87814285D01*
X28057142Y87871428D01*
X28028571Y87985714D01*
X28028571Y88071428D01*
X28057142Y88185714D01*
X28085714Y88242857D01*
X28142857Y88300000D01*
X28228571Y88328571D01*
X28285714Y88328571D01*
X28371428Y88300000D01*
X28400000Y88271428D01*
X28914285Y88128571D02*
X28914285Y87728571D01*
X28771428Y88357142D02*
X28628571Y87928571D01*
X29000000Y87928571D01*
X18900000Y53785714D02*
X18871428Y53757142D01*
X18785714Y53728571D01*
X18728571Y53728571D01*
X18642857Y53757142D01*
X18585714Y53814285D01*
X18557142Y53871428D01*
X18528571Y53985714D01*
X18528571Y54071428D01*
X18557142Y54185714D01*
X18585714Y54242857D01*
X18642857Y54300000D01*
X18728571Y54328571D01*
X18785714Y54328571D01*
X18871428Y54300000D01*
X18900000Y54271428D01*
X19100000Y54328571D02*
X19471428Y54328571D01*
X19271428Y54100000D01*
X19357142Y54100000D01*
X19414285Y54071428D01*
X19442857Y54042857D01*
X19471428Y53985714D01*
X19471428Y53842857D01*
X19442857Y53785714D01*
X19414285Y53757142D01*
X19357142Y53728571D01*
X19185714Y53728571D01*
X19128571Y53757142D01*
X19100000Y53785714D01*
X55150000Y74535714D02*
X55121428Y74507142D01*
X55035714Y74478571D01*
X54978571Y74478571D01*
X54892857Y74507142D01*
X54835714Y74564285D01*
X54807142Y74621428D01*
X54778571Y74735714D01*
X54778571Y74821428D01*
X54807142Y74935714D01*
X54835714Y74992857D01*
X54892857Y75050000D01*
X54978571Y75078571D01*
X55035714Y75078571D01*
X55121428Y75050000D01*
X55150000Y75021428D01*
X55721428Y74478571D02*
X55378571Y74478571D01*
X55550000Y74478571D02*
X55550000Y75078571D01*
X55492857Y74992857D01*
X55435714Y74935714D01*
X55378571Y74907142D01*
X67499999Y81635715D02*
X67471427Y81607143D01*
X67385713Y81578572D01*
X67328570Y81578572D01*
X67242856Y81607143D01*
X67185713Y81664286D01*
X67157141Y81721429D01*
X67128570Y81835715D01*
X67128570Y81921429D01*
X67157141Y82035715D01*
X67185713Y82092858D01*
X67242856Y82150001D01*
X67328570Y82178572D01*
X67385713Y82178572D01*
X67471427Y82150001D01*
X67499999Y82121429D01*
X67728570Y82121429D02*
X67757141Y82150001D01*
X67814284Y82178572D01*
X67957141Y82178572D01*
X68014284Y82150001D01*
X68042856Y82121429D01*
X68071427Y82064286D01*
X68071427Y82007143D01*
X68042856Y81921429D01*
X67699999Y81578572D01*
X68071427Y81578572D01*
X8071428Y80900000D02*
X8357142Y80900000D01*
X8014285Y80728571D02*
X8214285Y81328571D01*
X8414285Y80728571D01*
X8928571Y80728571D02*
X8585714Y80728571D01*
X8757142Y80728571D02*
X8757142Y81328571D01*
X8700000Y81242857D01*
X8642857Y81185714D01*
X8585714Y81157142D01*
X9921428Y80764285D02*
X9921428Y81135714D01*
X10150000Y80935714D01*
X10150000Y81021428D01*
X10178571Y81078571D01*
X10207142Y81107142D01*
X10264285Y81135714D01*
X10407142Y81135714D01*
X10464285Y81107142D01*
X10492857Y81078571D01*
X10521428Y81021428D01*
X10521428Y80850000D01*
X10492857Y80792857D01*
X10464285Y80764285D01*
X10178571Y81478571D02*
X10150000Y81421428D01*
X10121428Y81392857D01*
X10064285Y81364285D01*
X10035714Y81364285D01*
X9978571Y81392857D01*
X9950000Y81421428D01*
X9921428Y81478571D01*
X9921428Y81592857D01*
X9950000Y81650000D01*
X9978571Y81678571D01*
X10035714Y81707142D01*
X10064285Y81707142D01*
X10121428Y81678571D01*
X10150000Y81650000D01*
X10178571Y81592857D01*
X10178571Y81478571D01*
X10207142Y81421428D01*
X10235714Y81392857D01*
X10292857Y81364285D01*
X10407142Y81364285D01*
X10464285Y81392857D01*
X10492857Y81421428D01*
X10521428Y81478571D01*
X10521428Y81592857D01*
X10492857Y81650000D01*
X10464285Y81678571D01*
X10407142Y81707142D01*
X10292857Y81707142D01*
X10235714Y81678571D01*
X10207142Y81650000D01*
X10178571Y81592857D01*
X33271428Y60135714D02*
X33271428Y59792857D01*
X33271428Y59964285D02*
X32671428Y59964285D01*
X32757142Y59907142D01*
X32814285Y59850000D01*
X32842857Y59792857D01*
X33271428Y60421428D02*
X33271428Y60535714D01*
X33242857Y60592857D01*
X33214285Y60621428D01*
X33128571Y60678571D01*
X33014285Y60707142D01*
X32785714Y60707142D01*
X32728571Y60678571D01*
X32700000Y60650000D01*
X32671428Y60592857D01*
X32671428Y60478571D01*
X32700000Y60421428D01*
X32728571Y60392857D01*
X32785714Y60364285D01*
X32928571Y60364285D01*
X32985714Y60392857D01*
X33014285Y60421428D01*
X33042857Y60478571D01*
X33042857Y60592857D01*
X33014285Y60650000D01*
X32985714Y60678571D01*
X32928571Y60707142D01*
X29771428Y64885714D02*
X29771428Y64542857D01*
X29771428Y64714285D02*
X29171428Y64714285D01*
X29257142Y64657142D01*
X29314285Y64600000D01*
X29342857Y64542857D01*
X29171428Y65428571D02*
X29171428Y65142857D01*
X29457142Y65114285D01*
X29428571Y65142857D01*
X29400000Y65200000D01*
X29400000Y65342857D01*
X29428571Y65400000D01*
X29457142Y65428571D01*
X29514285Y65457142D01*
X29657142Y65457142D01*
X29714285Y65428571D01*
X29742857Y65400000D01*
X29771428Y65342857D01*
X29771428Y65200000D01*
X29742857Y65142857D01*
X29714285Y65114285D01*
X29228571Y76042857D02*
X29200000Y76071428D01*
X29171428Y76128571D01*
X29171428Y76271428D01*
X29200000Y76328571D01*
X29228571Y76357142D01*
X29285714Y76385714D01*
X29342857Y76385714D01*
X29428571Y76357142D01*
X29771428Y76014285D01*
X29771428Y76385714D01*
X29371428Y76900000D02*
X29771428Y76900000D01*
X29142857Y76757142D02*
X29571428Y76614285D01*
X29571428Y76985714D01*
X21864285Y7478571D02*
X21664285Y7764285D01*
X21521428Y7478571D02*
X21521428Y8078571D01*
X21750000Y8078571D01*
X21807142Y8050000D01*
X21835714Y8021428D01*
X21864285Y7964285D01*
X21864285Y7878571D01*
X21835714Y7821428D01*
X21807142Y7792857D01*
X21750000Y7764285D01*
X21521428Y7764285D01*
X22435714Y7478571D02*
X22092857Y7478571D01*
X22264285Y7478571D02*
X22264285Y8078571D01*
X22207142Y7992857D01*
X22150000Y7935714D01*
X22092857Y7907142D01*
X22807142Y8078571D02*
X22864285Y8078571D01*
X22921428Y8050000D01*
X22950000Y8021428D01*
X22978571Y7964285D01*
X23007142Y7850000D01*
X23007142Y7707142D01*
X22978571Y7592857D01*
X22950000Y7535714D01*
X22921428Y7507142D01*
X22864285Y7478571D01*
X22807142Y7478571D01*
X22750000Y7507142D01*
X22721428Y7535714D01*
X22692857Y7592857D01*
X22664285Y7707142D01*
X22664285Y7850000D01*
X22692857Y7964285D01*
X22721428Y8021428D01*
X22750000Y8050000D01*
X22807142Y8078571D01*
X26650000Y7478571D02*
X26450000Y7764285D01*
X26307142Y7478571D02*
X26307142Y8078571D01*
X26535714Y8078571D01*
X26592857Y8050000D01*
X26621428Y8021428D01*
X26650000Y7964285D01*
X26650000Y7878571D01*
X26621428Y7821428D01*
X26592857Y7792857D01*
X26535714Y7764285D01*
X26307142Y7764285D01*
X26935714Y7478571D02*
X27050000Y7478571D01*
X27107142Y7507142D01*
X27135714Y7535714D01*
X27192857Y7621428D01*
X27221428Y7735714D01*
X27221428Y7964285D01*
X27192857Y8021428D01*
X27164285Y8050000D01*
X27107142Y8078571D01*
X26992857Y8078571D01*
X26935714Y8050000D01*
X26907142Y8021428D01*
X26878571Y7964285D01*
X26878571Y7821428D01*
X26907142Y7764285D01*
X26935714Y7735714D01*
X26992857Y7707142D01*
X27107142Y7707142D01*
X27164285Y7735714D01*
X27192857Y7764285D01*
X27221428Y7821428D01*
X30025000Y7478571D02*
X29825000Y7764285D01*
X29682142Y7478571D02*
X29682142Y8078571D01*
X29910714Y8078571D01*
X29967857Y8050000D01*
X29996428Y8021428D01*
X30025000Y7964285D01*
X30025000Y7878571D01*
X29996428Y7821428D01*
X29967857Y7792857D01*
X29910714Y7764285D01*
X29682142Y7764285D01*
X30367857Y7821428D02*
X30310714Y7850000D01*
X30282142Y7878571D01*
X30253571Y7935714D01*
X30253571Y7964285D01*
X30282142Y8021428D01*
X30310714Y8050000D01*
X30367857Y8078571D01*
X30482142Y8078571D01*
X30539285Y8050000D01*
X30567857Y8021428D01*
X30596428Y7964285D01*
X30596428Y7935714D01*
X30567857Y7878571D01*
X30539285Y7850000D01*
X30482142Y7821428D01*
X30367857Y7821428D01*
X30310714Y7792857D01*
X30282142Y7764285D01*
X30253571Y7707142D01*
X30253571Y7592857D01*
X30282142Y7535714D01*
X30310714Y7507142D01*
X30367857Y7478571D01*
X30482142Y7478571D01*
X30539285Y7507142D01*
X30567857Y7535714D01*
X30596428Y7592857D01*
X30596428Y7707142D01*
X30567857Y7764285D01*
X30539285Y7792857D01*
X30482142Y7821428D01*
X76150000Y72103571D02*
X75950000Y72389285D01*
X75807142Y72103571D02*
X75807142Y72703571D01*
X76035714Y72703571D01*
X76092857Y72675000D01*
X76121428Y72646428D01*
X76150000Y72589285D01*
X76150000Y72503571D01*
X76121428Y72446428D01*
X76092857Y72417857D01*
X76035714Y72389285D01*
X75807142Y72389285D01*
X76350000Y72703571D02*
X76721428Y72703571D01*
X76521428Y72475000D01*
X76607142Y72475000D01*
X76664285Y72446428D01*
X76692857Y72417857D01*
X76721428Y72360714D01*
X76721428Y72217857D01*
X76692857Y72160714D01*
X76664285Y72132142D01*
X76607142Y72103571D01*
X76435714Y72103571D01*
X76378571Y72132142D01*
X76350000Y72160714D01*
X80400000Y66978571D02*
X80200000Y67264285D01*
X80057142Y66978571D02*
X80057142Y67578571D01*
X80285714Y67578571D01*
X80342857Y67550000D01*
X80371428Y67521428D01*
X80400000Y67464285D01*
X80400000Y67378571D01*
X80371428Y67321428D01*
X80342857Y67292857D01*
X80285714Y67264285D01*
X80057142Y67264285D01*
X80628571Y67521428D02*
X80657142Y67550000D01*
X80714285Y67578571D01*
X80857142Y67578571D01*
X80914285Y67550000D01*
X80942857Y67521428D01*
X80971428Y67464285D01*
X80971428Y67407142D01*
X80942857Y67321428D01*
X80600000Y66978571D01*
X80971428Y66978571D01*
X76150000Y67853571D02*
X75950000Y68139285D01*
X75807142Y67853571D02*
X75807142Y68453571D01*
X76035714Y68453571D01*
X76092857Y68425000D01*
X76121428Y68396428D01*
X76150000Y68339285D01*
X76150000Y68253571D01*
X76121428Y68196428D01*
X76092857Y68167857D01*
X76035714Y68139285D01*
X75807142Y68139285D01*
X76721428Y67853571D02*
X76378571Y67853571D01*
X76550000Y67853571D02*
X76550000Y68453571D01*
X76492857Y68367857D01*
X76435714Y68310714D01*
X76378571Y68282142D01*
X33650000Y7478571D02*
X33450000Y7764285D01*
X33307142Y7478571D02*
X33307142Y8078571D01*
X33535714Y8078571D01*
X33592857Y8050000D01*
X33621428Y8021428D01*
X33650000Y7964285D01*
X33650000Y7878571D01*
X33621428Y7821428D01*
X33592857Y7792857D01*
X33535714Y7764285D01*
X33307142Y7764285D01*
X33850000Y8078571D02*
X34250000Y8078571D01*
X33992857Y7478571D01*
X42025000Y7478571D02*
X41825000Y7764285D01*
X41682142Y7478571D02*
X41682142Y8078571D01*
X41910714Y8078571D01*
X41967857Y8050000D01*
X41996428Y8021428D01*
X42025000Y7964285D01*
X42025000Y7878571D01*
X41996428Y7821428D01*
X41967857Y7792857D01*
X41910714Y7764285D01*
X41682142Y7764285D01*
X42539285Y8078571D02*
X42425000Y8078571D01*
X42367857Y8050000D01*
X42339285Y8021428D01*
X42282142Y7935714D01*
X42253571Y7821428D01*
X42253571Y7592857D01*
X42282142Y7535714D01*
X42310714Y7507142D01*
X42367857Y7478571D01*
X42482142Y7478571D01*
X42539285Y7507142D01*
X42567857Y7535714D01*
X42596428Y7592857D01*
X42596428Y7735714D01*
X42567857Y7792857D01*
X42539285Y7821428D01*
X42482142Y7850000D01*
X42367857Y7850000D01*
X42310714Y7821428D01*
X42282142Y7792857D01*
X42253571Y7735714D01*
X47900000Y79603571D02*
X47700000Y79889285D01*
X47557142Y79603571D02*
X47557142Y80203571D01*
X47785714Y80203571D01*
X47842857Y80175000D01*
X47871428Y80146428D01*
X47900000Y80089285D01*
X47900000Y80003571D01*
X47871428Y79946428D01*
X47842857Y79917857D01*
X47785714Y79889285D01*
X47557142Y79889285D01*
X48442857Y80203571D02*
X48157142Y80203571D01*
X48128571Y79917857D01*
X48157142Y79946428D01*
X48214285Y79975000D01*
X48357142Y79975000D01*
X48414285Y79946428D01*
X48442857Y79917857D01*
X48471428Y79860714D01*
X48471428Y79717857D01*
X48442857Y79660714D01*
X48414285Y79632142D01*
X48357142Y79603571D01*
X48214285Y79603571D01*
X48157142Y79632142D01*
X48128571Y79660714D01*
X24239285Y87728571D02*
X24039285Y88014285D01*
X23896428Y87728571D02*
X23896428Y88328571D01*
X24125000Y88328571D01*
X24182142Y88300000D01*
X24210714Y88271428D01*
X24239285Y88214285D01*
X24239285Y88128571D01*
X24210714Y88071428D01*
X24182142Y88042857D01*
X24125000Y88014285D01*
X23896428Y88014285D01*
X24467857Y88271428D02*
X24496428Y88300000D01*
X24553571Y88328571D01*
X24696428Y88328571D01*
X24753571Y88300000D01*
X24782142Y88271428D01*
X24810714Y88214285D01*
X24810714Y88157142D01*
X24782142Y88071428D01*
X24439285Y87728571D01*
X24810714Y87728571D01*
X25353571Y88328571D02*
X25067857Y88328571D01*
X25039285Y88042857D01*
X25067857Y88071428D01*
X25125000Y88100000D01*
X25267857Y88100000D01*
X25325000Y88071428D01*
X25353571Y88042857D01*
X25382142Y87985714D01*
X25382142Y87842857D01*
X25353571Y87785714D01*
X25325000Y87757142D01*
X25267857Y87728571D01*
X25125000Y87728571D01*
X25067857Y87757142D01*
X25039285Y87785714D01*
X18739285Y56728571D02*
X18539285Y57014285D01*
X18396428Y56728571D02*
X18396428Y57328571D01*
X18625000Y57328571D01*
X18682142Y57300000D01*
X18710714Y57271428D01*
X18739285Y57214285D01*
X18739285Y57128571D01*
X18710714Y57071428D01*
X18682142Y57042857D01*
X18625000Y57014285D01*
X18396428Y57014285D01*
X18967857Y57271428D02*
X18996428Y57300000D01*
X19053571Y57328571D01*
X19196428Y57328571D01*
X19253571Y57300000D01*
X19282142Y57271428D01*
X19310714Y57214285D01*
X19310714Y57157142D01*
X19282142Y57071428D01*
X18939285Y56728571D01*
X19310714Y56728571D01*
X19825000Y57128571D02*
X19825000Y56728571D01*
X19682142Y57357142D02*
X19539285Y56928571D01*
X19910714Y56928571D01*
X65864285Y74353571D02*
X65664285Y74639285D01*
X65521428Y74353571D02*
X65521428Y74953571D01*
X65750000Y74953571D01*
X65807142Y74925000D01*
X65835714Y74896428D01*
X65864285Y74839285D01*
X65864285Y74753571D01*
X65835714Y74696428D01*
X65807142Y74667857D01*
X65750000Y74639285D01*
X65521428Y74639285D01*
X66092857Y74896428D02*
X66121428Y74925000D01*
X66178571Y74953571D01*
X66321428Y74953571D01*
X66378571Y74925000D01*
X66407142Y74896428D01*
X66435714Y74839285D01*
X66435714Y74782142D01*
X66407142Y74696428D01*
X66064285Y74353571D01*
X66435714Y74353571D01*
X66635714Y74953571D02*
X67007142Y74953571D01*
X66807142Y74725000D01*
X66892857Y74725000D01*
X66950000Y74696428D01*
X66978571Y74667857D01*
X67007142Y74610714D01*
X67007142Y74467857D01*
X66978571Y74410714D01*
X66950000Y74382142D01*
X66892857Y74353571D01*
X66721428Y74353571D01*
X66664285Y74382142D01*
X66635714Y74410714D01*
X53614285Y81603571D02*
X53414285Y81889285D01*
X53271428Y81603571D02*
X53271428Y82203571D01*
X53500000Y82203571D01*
X53557142Y82175000D01*
X53585714Y82146428D01*
X53614285Y82089285D01*
X53614285Y82003571D01*
X53585714Y81946428D01*
X53557142Y81917857D01*
X53500000Y81889285D01*
X53271428Y81889285D01*
X53842857Y82146428D02*
X53871428Y82175000D01*
X53928571Y82203571D01*
X54071428Y82203571D01*
X54128571Y82175000D01*
X54157142Y82146428D01*
X54185714Y82089285D01*
X54185714Y82032142D01*
X54157142Y81946428D01*
X53814285Y81603571D01*
X54185714Y81603571D01*
X54414285Y82146428D02*
X54442857Y82175000D01*
X54500000Y82203571D01*
X54642857Y82203571D01*
X54700000Y82175000D01*
X54728571Y82146428D01*
X54757142Y82089285D01*
X54757142Y82032142D01*
X54728571Y81946428D01*
X54385714Y81603571D01*
X54757142Y81603571D01*
X24239285Y84728571D02*
X24039285Y85014285D01*
X23896428Y84728571D02*
X23896428Y85328571D01*
X24125000Y85328571D01*
X24182142Y85300000D01*
X24210714Y85271428D01*
X24239285Y85214285D01*
X24239285Y85128571D01*
X24210714Y85071428D01*
X24182142Y85042857D01*
X24125000Y85014285D01*
X23896428Y85014285D01*
X24467857Y85271428D02*
X24496428Y85300000D01*
X24553571Y85328571D01*
X24696428Y85328571D01*
X24753571Y85300000D01*
X24782142Y85271428D01*
X24810714Y85214285D01*
X24810714Y85157142D01*
X24782142Y85071428D01*
X24439285Y84728571D01*
X24810714Y84728571D01*
X25382142Y84728571D02*
X25039285Y84728571D01*
X25210714Y84728571D02*
X25210714Y85328571D01*
X25153571Y85242857D01*
X25096428Y85185714D01*
X25039285Y85157142D01*
X63364285Y74353571D02*
X63164285Y74639285D01*
X63021428Y74353571D02*
X63021428Y74953571D01*
X63250000Y74953571D01*
X63307142Y74925000D01*
X63335714Y74896428D01*
X63364285Y74839285D01*
X63364285Y74753571D01*
X63335714Y74696428D01*
X63307142Y74667857D01*
X63250000Y74639285D01*
X63021428Y74639285D01*
X63592857Y74896428D02*
X63621428Y74925000D01*
X63678571Y74953571D01*
X63821428Y74953571D01*
X63878571Y74925000D01*
X63907142Y74896428D01*
X63935714Y74839285D01*
X63935714Y74782142D01*
X63907142Y74696428D01*
X63564285Y74353571D01*
X63935714Y74353571D01*
X64307142Y74953571D02*
X64364285Y74953571D01*
X64421428Y74925000D01*
X64450000Y74896428D01*
X64478571Y74839285D01*
X64507142Y74725000D01*
X64507142Y74582142D01*
X64478571Y74467857D01*
X64450000Y74410714D01*
X64421428Y74382142D01*
X64364285Y74353571D01*
X64307142Y74353571D01*
X64250000Y74382142D01*
X64221428Y74410714D01*
X64192857Y74467857D01*
X64164285Y74582142D01*
X64164285Y74725000D01*
X64192857Y74839285D01*
X64221428Y74896428D01*
X64250000Y74925000D01*
X64307142Y74953571D01*
X51114285Y81603571D02*
X50914285Y81889285D01*
X50771428Y81603571D02*
X50771428Y82203571D01*
X51000000Y82203571D01*
X51057142Y82175000D01*
X51085714Y82146428D01*
X51114285Y82089285D01*
X51114285Y82003571D01*
X51085714Y81946428D01*
X51057142Y81917857D01*
X51000000Y81889285D01*
X50771428Y81889285D01*
X51685714Y81603571D02*
X51342857Y81603571D01*
X51514285Y81603571D02*
X51514285Y82203571D01*
X51457142Y82117857D01*
X51400000Y82060714D01*
X51342857Y82032142D01*
X51971428Y81603571D02*
X52085714Y81603571D01*
X52142857Y81632142D01*
X52171428Y81660714D01*
X52228571Y81746428D01*
X52257142Y81860714D01*
X52257142Y82089285D01*
X52228571Y82146428D01*
X52200000Y82175000D01*
X52142857Y82203571D01*
X52028571Y82203571D01*
X51971428Y82175000D01*
X51942857Y82146428D01*
X51914285Y82089285D01*
X51914285Y81946428D01*
X51942857Y81889285D01*
X51971428Y81860714D01*
X52028571Y81832142D01*
X52142857Y81832142D01*
X52200000Y81860714D01*
X52228571Y81889285D01*
X52257142Y81946428D01*
X14364285Y56728571D02*
X14164285Y57014285D01*
X14021428Y56728571D02*
X14021428Y57328571D01*
X14250000Y57328571D01*
X14307142Y57300000D01*
X14335714Y57271428D01*
X14364285Y57214285D01*
X14364285Y57128571D01*
X14335714Y57071428D01*
X14307142Y57042857D01*
X14250000Y57014285D01*
X14021428Y57014285D01*
X14935714Y56728571D02*
X14592857Y56728571D01*
X14764285Y56728571D02*
X14764285Y57328571D01*
X14707142Y57242857D01*
X14650000Y57185714D01*
X14592857Y57157142D01*
X15278571Y57071428D02*
X15221428Y57100000D01*
X15192857Y57128571D01*
X15164285Y57185714D01*
X15164285Y57214285D01*
X15192857Y57271428D01*
X15221428Y57300000D01*
X15278571Y57328571D01*
X15392857Y57328571D01*
X15450000Y57300000D01*
X15478571Y57271428D01*
X15507142Y57214285D01*
X15507142Y57185714D01*
X15478571Y57128571D01*
X15450000Y57100000D01*
X15392857Y57071428D01*
X15278571Y57071428D01*
X15221428Y57042857D01*
X15192857Y57014285D01*
X15164285Y56957142D01*
X15164285Y56842857D01*
X15192857Y56785714D01*
X15221428Y56757142D01*
X15278571Y56728571D01*
X15392857Y56728571D01*
X15450000Y56757142D01*
X15478571Y56785714D01*
X15507142Y56842857D01*
X15507142Y56957142D01*
X15478571Y57014285D01*
X15450000Y57042857D01*
X15392857Y57071428D01*
X59739285Y45978571D02*
X59539285Y46264285D01*
X59396428Y45978571D02*
X59396428Y46578571D01*
X59625000Y46578571D01*
X59682142Y46550000D01*
X59710714Y46521428D01*
X59739285Y46464285D01*
X59739285Y46378571D01*
X59710714Y46321428D01*
X59682142Y46292857D01*
X59625000Y46264285D01*
X59396428Y46264285D01*
X60310714Y45978571D02*
X59967857Y45978571D01*
X60139285Y45978571D02*
X60139285Y46578571D01*
X60082142Y46492857D01*
X60025000Y46435714D01*
X59967857Y46407142D01*
X60825000Y46578571D02*
X60710714Y46578571D01*
X60653571Y46550000D01*
X60625000Y46521428D01*
X60567857Y46435714D01*
X60539285Y46321428D01*
X60539285Y46092857D01*
X60567857Y46035714D01*
X60596428Y46007142D01*
X60653571Y45978571D01*
X60767857Y45978571D01*
X60825000Y46007142D01*
X60853571Y46035714D01*
X60882142Y46092857D01*
X60882142Y46235714D01*
X60853571Y46292857D01*
X60825000Y46321428D01*
X60767857Y46350000D01*
X60653571Y46350000D01*
X60596428Y46321428D01*
X60567857Y46292857D01*
X60539285Y46235714D01*
X71014285Y66978571D02*
X70814285Y67264285D01*
X70671428Y66978571D02*
X70671428Y67578571D01*
X70900000Y67578571D01*
X70957142Y67550000D01*
X70985714Y67521428D01*
X71014285Y67464285D01*
X71014285Y67378571D01*
X70985714Y67321428D01*
X70957142Y67292857D01*
X70900000Y67264285D01*
X70671428Y67264285D01*
X71585714Y66978571D02*
X71242857Y66978571D01*
X71414285Y66978571D02*
X71414285Y67578571D01*
X71357142Y67492857D01*
X71300000Y67435714D01*
X71242857Y67407142D01*
X72128571Y67578571D02*
X71842857Y67578571D01*
X71814285Y67292857D01*
X71842857Y67321428D01*
X71900000Y67350000D01*
X72042857Y67350000D01*
X72100000Y67321428D01*
X72128571Y67292857D01*
X72157142Y67235714D01*
X72157142Y67092857D01*
X72128571Y67035714D01*
X72100000Y67007142D01*
X72042857Y66978571D01*
X71900000Y66978571D01*
X71842857Y67007142D01*
X71814285Y67035714D01*
X64114285Y5728571D02*
X63914285Y6014285D01*
X63771428Y5728571D02*
X63771428Y6328571D01*
X64000000Y6328571D01*
X64057142Y6300000D01*
X64085714Y6271428D01*
X64114285Y6214285D01*
X64114285Y6128571D01*
X64085714Y6071428D01*
X64057142Y6042857D01*
X64000000Y6014285D01*
X63771428Y6014285D01*
X64685714Y5728571D02*
X64342857Y5728571D01*
X64514285Y5728571D02*
X64514285Y6328571D01*
X64457142Y6242857D01*
X64400000Y6185714D01*
X64342857Y6157142D01*
X65200000Y6128571D02*
X65200000Y5728571D01*
X65057142Y6357142D02*
X64914285Y5928571D01*
X65285714Y5928571D01*
X55614285Y50353571D02*
X55414285Y50639285D01*
X55271428Y50353571D02*
X55271428Y50953571D01*
X55500000Y50953571D01*
X55557142Y50925000D01*
X55585714Y50896428D01*
X55614285Y50839285D01*
X55614285Y50753571D01*
X55585714Y50696428D01*
X55557142Y50667857D01*
X55500000Y50639285D01*
X55271428Y50639285D01*
X56185714Y50353571D02*
X55842857Y50353571D01*
X56014285Y50353571D02*
X56014285Y50953571D01*
X55957142Y50867857D01*
X55900000Y50810714D01*
X55842857Y50782142D01*
X56385714Y50953571D02*
X56757142Y50953571D01*
X56557142Y50725000D01*
X56642857Y50725000D01*
X56700000Y50696428D01*
X56728571Y50667857D01*
X56757142Y50610714D01*
X56757142Y50467857D01*
X56728571Y50410714D01*
X56700000Y50382142D01*
X56642857Y50353571D01*
X56471428Y50353571D01*
X56414285Y50382142D01*
X56385714Y50410714D01*
X67114285Y68353571D02*
X66914285Y68639285D01*
X66771428Y68353571D02*
X66771428Y68953571D01*
X67000000Y68953571D01*
X67057142Y68925000D01*
X67085714Y68896428D01*
X67114285Y68839285D01*
X67114285Y68753571D01*
X67085714Y68696428D01*
X67057142Y68667857D01*
X67000000Y68639285D01*
X66771428Y68639285D01*
X67685714Y68353571D02*
X67342857Y68353571D01*
X67514285Y68353571D02*
X67514285Y68953571D01*
X67457142Y68867857D01*
X67400000Y68810714D01*
X67342857Y68782142D01*
X67914285Y68896428D02*
X67942857Y68925000D01*
X68000000Y68953571D01*
X68142857Y68953571D01*
X68200000Y68925000D01*
X68228571Y68896428D01*
X68257142Y68839285D01*
X68257142Y68782142D01*
X68228571Y68696428D01*
X67885714Y68353571D01*
X68257142Y68353571D01*
X60114285Y10228571D02*
X59914285Y10514285D01*
X59771428Y10228571D02*
X59771428Y10828571D01*
X60000000Y10828571D01*
X60057142Y10800000D01*
X60085714Y10771428D01*
X60114285Y10714285D01*
X60114285Y10628571D01*
X60085714Y10571428D01*
X60057142Y10542857D01*
X60000000Y10514285D01*
X59771428Y10514285D01*
X60685714Y10228571D02*
X60342857Y10228571D01*
X60514285Y10228571D02*
X60514285Y10828571D01*
X60457142Y10742857D01*
X60400000Y10685714D01*
X60342857Y10657142D01*
X61257142Y10228571D02*
X60914285Y10228571D01*
X61085714Y10228571D02*
X61085714Y10828571D01*
X61028571Y10742857D01*
X60971428Y10685714D01*
X60914285Y10657142D01*
X86800000Y52728571D02*
X86800000Y53328571D01*
X86800000Y53042857D02*
X87142857Y53042857D01*
X87142857Y52728571D02*
X87142857Y53328571D01*
X87714285Y52728571D02*
X87428571Y52728571D01*
X87428571Y53328571D01*
X88228571Y52728571D02*
X87885714Y52728571D01*
X88057142Y52728571D02*
X88057142Y53328571D01*
X88000000Y53242857D01*
X87942857Y53185714D01*
X87885714Y53157142D01*
X88500000Y45228571D02*
X88500000Y45828571D01*
X88500000Y45542857D02*
X88842857Y45542857D01*
X88842857Y45228571D02*
X88842857Y45828571D01*
X89414285Y45228571D02*
X89128571Y45228571D01*
X89128571Y45828571D01*
X89585714Y45771428D02*
X89614285Y45800000D01*
X89671428Y45828571D01*
X89814285Y45828571D01*
X89871428Y45800000D01*
X89900000Y45771428D01*
X89928571Y45714285D01*
X89928571Y45657142D01*
X89900000Y45571428D01*
X89557142Y45228571D01*
X89928571Y45228571D01*
X90985714Y12457142D02*
X91014285Y12485714D01*
X91071428Y12514285D01*
X91185714Y12457142D01*
X91242857Y12485714D01*
X91271428Y12514285D01*
X91471428Y12771428D02*
X91500000Y12800000D01*
X91557142Y12828571D01*
X91700000Y12828571D01*
X91757142Y12800000D01*
X91785714Y12771428D01*
X91814285Y12714285D01*
X91814285Y12657142D01*
X91785714Y12571428D01*
X91442857Y12228571D01*
X91814285Y12228571D01*
X92042857Y12771428D02*
X92071428Y12800000D01*
X92128571Y12828571D01*
X92271428Y12828571D01*
X92328571Y12800000D01*
X92357142Y12771428D01*
X92385714Y12714285D01*
X92385714Y12657142D01*
X92357142Y12571428D01*
X92014285Y12228571D01*
X92385714Y12228571D01*
X92757142Y12828571D02*
X92814285Y12828571D01*
X92871428Y12800000D01*
X92900000Y12771428D01*
X92928571Y12714285D01*
X92957142Y12600000D01*
X92957142Y12457142D01*
X92928571Y12342857D01*
X92900000Y12285714D01*
X92871428Y12257142D01*
X92814285Y12228571D01*
X92757142Y12228571D01*
X92700000Y12257142D01*
X92671428Y12285714D01*
X92642857Y12342857D01*
X92614285Y12457142D01*
X92614285Y12600000D01*
X92642857Y12714285D01*
X92671428Y12771428D01*
X92700000Y12800000D01*
X92757142Y12828571D01*
X90985714Y33207142D02*
X91014285Y33235714D01*
X91071428Y33264285D01*
X91185714Y33207142D01*
X91242857Y33235714D01*
X91271428Y33264285D01*
X91471428Y33521428D02*
X91500000Y33550000D01*
X91557142Y33578571D01*
X91700000Y33578571D01*
X91757142Y33550000D01*
X91785714Y33521428D01*
X91814285Y33464285D01*
X91814285Y33407142D01*
X91785714Y33321428D01*
X91442857Y32978571D01*
X91814285Y32978571D01*
X92042857Y33521428D02*
X92071428Y33550000D01*
X92128571Y33578571D01*
X92271428Y33578571D01*
X92328571Y33550000D01*
X92357142Y33521428D01*
X92385714Y33464285D01*
X92385714Y33407142D01*
X92357142Y33321428D01*
X92014285Y32978571D01*
X92385714Y32978571D01*
X92757142Y33578571D02*
X92814285Y33578571D01*
X92871428Y33550000D01*
X92900000Y33521428D01*
X92928571Y33464285D01*
X92957142Y33350000D01*
X92957142Y33207142D01*
X92928571Y33092857D01*
X92900000Y33035714D01*
X92871428Y33007142D01*
X92814285Y32978571D01*
X92757142Y32978571D01*
X92700000Y33007142D01*
X92671428Y33035714D01*
X92642857Y33092857D01*
X92614285Y33207142D01*
X92614285Y33350000D01*
X92642857Y33464285D01*
X92671428Y33521428D01*
X92700000Y33550000D01*
X92757142Y33578571D01*
X53028571Y12828571D02*
X53142857Y12828571D01*
X53200000Y12800000D01*
X53257142Y12742857D01*
X53285714Y12628571D01*
X53285714Y12428571D01*
X53257142Y12314285D01*
X53200000Y12257142D01*
X53142857Y12228571D01*
X53028571Y12228571D01*
X52971428Y12257142D01*
X52914285Y12314285D01*
X52885714Y12428571D01*
X52885714Y12628571D01*
X52914285Y12742857D01*
X52971428Y12800000D01*
X53028571Y12828571D01*
X53542857Y12828571D02*
X53542857Y12342857D01*
X53571428Y12285714D01*
X53600000Y12257142D01*
X53657142Y12228571D01*
X53771428Y12228571D01*
X53828571Y12257142D01*
X53857142Y12285714D01*
X53885714Y12342857D01*
X53885714Y12828571D01*
X54085714Y12828571D02*
X54428571Y12828571D01*
X54257142Y12228571D02*
X54257142Y12828571D01*
X54628571Y12457142D02*
X55085714Y12457142D01*
X53028571Y20828571D02*
X53142857Y20828571D01*
X53200000Y20800000D01*
X53257142Y20742857D01*
X53285714Y20628571D01*
X53285714Y20428571D01*
X53257142Y20314285D01*
X53200000Y20257142D01*
X53142857Y20228571D01*
X53028571Y20228571D01*
X52971428Y20257142D01*
X52914285Y20314285D01*
X52885714Y20428571D01*
X52885714Y20628571D01*
X52914285Y20742857D01*
X52971428Y20800000D01*
X53028571Y20828571D01*
X53542857Y20828571D02*
X53542857Y20342857D01*
X53571428Y20285714D01*
X53600000Y20257142D01*
X53657142Y20228571D01*
X53771428Y20228571D01*
X53828571Y20257142D01*
X53857142Y20285714D01*
X53885714Y20342857D01*
X53885714Y20828571D01*
X54085714Y20828571D02*
X54428571Y20828571D01*
X54257142Y20228571D02*
X54257142Y20828571D01*
X54628571Y20457142D02*
X55085714Y20457142D01*
X54857142Y20228571D02*
X54857142Y20685714D01*
M02*
