M48
; DRILL file {KiCad (5.1.2-1)-1} date суббота, 08 мая 2021 г., 21:42:31
; FORMAT={3:3/ absolute / metric / keep zeros}
; #@! TF.CreationDate,2021-05-08T21:42:31+03:00
; #@! TF.GenerationSoftware,Kicad,Pcbnew,(5.1.2-1)-1
; #@! TF.FileFunction,Plated,1,2,PTH
FMAT,2
METRIC
T1C0.400
T2C1.000
T3C1.200
T4C1.400
T5C1.600
T6C3.400
%
G90
G05
T1
X001500Y034000
X001500Y032750
X001500Y013500
X002750Y029750
X002750Y023000
X003500Y056750
X004000Y029750
X005250Y032250
X005250Y029750
X009500Y035000
X010250Y025250
X010750Y082500
X011500Y081500
X011520Y059270
X012000Y027250
X012500Y024500
X012750Y087500
X013000Y072000
X013000Y069750
X013000Y067500
X014000Y081250
X014750Y016500
X015250Y081250
X015500Y008000
X016500Y001250
X017500Y049000
X017750Y081250
X018000Y083750
X018000Y082750
X018500Y042750
X019250Y081250
X019500Y027250
X020500Y081250
X021000Y051500
X021500Y053500
X021750Y086500
X021750Y081250
X022000Y072000
X022000Y069750
X022000Y067500
X024000Y006250
X024500Y047500
X025500Y081250
X025500Y048500
X026750Y045250
X027750Y046250
X028000Y081250
X028000Y060250
X028250Y007500
X029250Y081250
X029250Y060250
X031750Y007750
X032500Y083750
X032500Y082750
X035500Y006250
X036250Y086500
X036250Y009250
X036500Y006000
X038500Y006000
X040000Y011500
X041250Y066250
X041250Y065000
X041250Y063750
X042500Y076250
X043500Y077250
X044250Y006250
X044500Y078250
X045500Y079250
X045500Y042750
X046500Y080250
X047500Y081250
X048500Y075250
X048500Y059250
X049500Y067500
X049500Y066250
X049500Y065000
X049500Y063750
X049500Y062500
X049750Y083750
X052500Y067500
X052500Y062500
X055250Y069500
X056500Y010250
X060750Y069500
X062000Y044750
X062500Y075250
X070250Y074500
X073250Y079000
X073500Y065750
X074250Y073250
X082250Y065750
T2
X007000Y043750
X007000Y041210
X007000Y038670
X007000Y036130
X007000Y033590
X007000Y031050
X007000Y028510
X007000Y025970
X007000Y023430
X007000Y020890
X007000Y018350
X007000Y015810
X007000Y013270
X007000Y010730
X007000Y054250
X007000Y051710
X007000Y049170
X007000Y046630
X019650Y003500
X022190Y003500
X024730Y003500
X027270Y003500
X029810Y003500
X032350Y003500
X034890Y003500
X037430Y003500
X039970Y003500
X042510Y003500
X045050Y003500
X047590Y003500
X050130Y003500
X052670Y003500
X055210Y003500
X057750Y003500
X090500Y077750
X090500Y070250
X093000Y077750
X093000Y070250
X095500Y077750
X095500Y070250
T3
X022500Y021000
X022500Y011000
X032500Y021000
X032500Y011000
X072500Y041000
T4
X052250Y084000
X056060Y084000
X059870Y084000
X063680Y084000
X067490Y084000
X071300Y084000
X075110Y084000
X078920Y084000
X082730Y084000
X086540Y084000
X094000Y065000
X094000Y061190
X094000Y057380
X094000Y053570
T5
X056000Y060000
X061200Y060000
X072300Y060000
X077500Y060000
X050500Y020500
X050500Y012500
X095500Y033300
X095500Y012500
T6
X088250Y049500
X090950Y041000
X005000Y005000
X011750Y049500
X011750Y005000
X088250Y005000
X095000Y085000
X095000Y005000
X005000Y085000
X011950Y041000
T3
G00X072500Y051500
M15
G01X072500Y052500
M16
G05
T0
M30
