G04 #@! TF.GenerationSoftware,KiCad,Pcbnew,(5.1.2-1)-1*
G04 #@! TF.CreationDate,2021-05-08T22:39:51+03:00*
G04 #@! TF.ProjectId,UAK_3,55414b5f-332e-46b6-9963-61645f706362,rev?*
G04 #@! TF.SameCoordinates,Original*
G04 #@! TF.FileFunction,Copper,L1,Top*
G04 #@! TF.FilePolarity,Positive*
%FSLAX46Y46*%
G04 Gerber Fmt 4.6, Leading zero omitted, Abs format (unit mm)*
G04 Created by KiCad (PCBNEW (5.1.2-1)-1) date 2021-05-08 22:39:51*
%MOMM*%
%LPD*%
G04 APERTURE LIST*
%ADD10R,2.000000X1.000000*%
%ADD11R,0.800000X1.000000*%
%ADD12R,2.000000X2.500000*%
%ADD13R,1.300000X2.000000*%
%ADD14R,2.000000X2.000000*%
%ADD15R,1.000000X3.000000*%
%ADD16R,1.500000X2.000000*%
%ADD17R,4.000000X2.000000*%
%ADD18R,0.700000X1.100000*%
%ADD19R,3.000000X1.500000*%
%ADD20R,0.500000X1.250000*%
%ADD21R,1.250000X0.500000*%
%ADD22R,1.500000X3.500000*%
%ADD23O,0.900000X2.000000*%
%ADD24R,0.900000X2.000000*%
%ADD25R,1.350000X1.350000*%
%ADD26R,2.000000X0.900000*%
%ADD27R,2.200000X2.200000*%
%ADD28C,2.200000*%
%ADD29R,2.000000X3.000000*%
%ADD30C,2.000000*%
%ADD31R,1.700000X1.700000*%
%ADD32C,1.700000*%
%ADD33C,5.500000*%
%ADD34O,1.700000X1.700000*%
%ADD35R,2.800000X2.800000*%
%ADD36R,2.400000X2.400000*%
%ADD37C,2.400000*%
%ADD38C,7.000000*%
%ADD39C,0.800000*%
%ADD40C,0.250000*%
%ADD41C,0.450000*%
%ADD42C,0.200000*%
G04 APERTURE END LIST*
D10*
X67000000Y45000000D03*
X67000000Y48500000D03*
D11*
X59000000Y47750000D03*
X61000000Y47750000D03*
X60000000Y50250000D03*
X70500000Y68750000D03*
X72500000Y68750000D03*
X71500000Y71250000D03*
X63500000Y7500000D03*
X65500000Y7500000D03*
X64500000Y10000000D03*
X79250000Y68750000D03*
X81250000Y68750000D03*
X80250000Y71250000D03*
X20250000Y47500000D03*
X18250000Y47500000D03*
X19250000Y45000000D03*
D12*
X84250000Y79000000D03*
X79000000Y79000000D03*
D13*
X3900000Y15600000D03*
X1600000Y15600000D03*
D14*
X2750000Y19600000D03*
D15*
X89250000Y61000000D03*
X84250000Y61000000D03*
D16*
X16500000Y29250000D03*
X12000000Y29250000D03*
X14250000Y29250000D03*
D17*
X14250000Y35500000D03*
D18*
X58750000Y71500000D03*
X59700000Y71500000D03*
X60650000Y71500000D03*
X60650000Y74100000D03*
X58750000Y74100000D03*
D19*
X95500000Y20750000D03*
X95500000Y24250000D03*
D20*
X28500000Y21000000D03*
X26750000Y21000000D03*
X10000000Y55500000D03*
X11750000Y55500000D03*
D21*
X37500000Y14500000D03*
X37500000Y16250000D03*
X14500000Y23250000D03*
X14500000Y25000000D03*
X68750000Y71750000D03*
X68750000Y73500000D03*
X56500000Y79000000D03*
X56500000Y80750000D03*
D20*
X29500000Y86500000D03*
X27750000Y86500000D03*
X20000000Y52750000D03*
X18250000Y52750000D03*
D21*
X55250000Y71750000D03*
X55250000Y73500000D03*
D22*
X64250000Y79000000D03*
X71500000Y79000000D03*
D23*
X10250000Y62250000D03*
D24*
X10250000Y79250000D03*
X11520000Y62250000D03*
X11520000Y79250000D03*
X12790000Y62250000D03*
X12790000Y79250000D03*
X14060000Y62250000D03*
X14060000Y79250000D03*
X15330000Y62250000D03*
X15330000Y79250000D03*
X16600000Y62250000D03*
X16600000Y79250000D03*
X17870000Y62250000D03*
X17870000Y79250000D03*
X19140000Y62250000D03*
X19140000Y79250000D03*
X20410000Y62250000D03*
X20410000Y79250000D03*
X21680000Y62250000D03*
X21680000Y79250000D03*
X22950000Y62250000D03*
X22950000Y79250000D03*
X24220000Y62250000D03*
X24220000Y79250000D03*
X25490000Y62250000D03*
X25490000Y79250000D03*
X26760000Y62250000D03*
D25*
X17750000Y69750000D03*
X16000000Y69750000D03*
X19500000Y69750000D03*
X19500000Y71500000D03*
X16000000Y71500000D03*
X17750000Y71500000D03*
X19500000Y68000000D03*
X16000000Y68000000D03*
X17750000Y68000000D03*
D24*
X26760000Y79250000D03*
X28030000Y62250000D03*
X28030000Y79250000D03*
X29300000Y62250000D03*
X29300000Y79250000D03*
X30570000Y62250000D03*
X30570000Y79250000D03*
X31840000Y62250000D03*
X31840000Y79250000D03*
X33110000Y62250000D03*
X33110000Y79250000D03*
D26*
X27750000Y76430000D03*
X27750000Y75160000D03*
X27750000Y73890000D03*
X27750000Y65000000D03*
X27750000Y72620000D03*
X27750000Y71350000D03*
X27750000Y70080000D03*
X27750000Y66270000D03*
X27750000Y68810000D03*
X27750000Y67540000D03*
D20*
X23000000Y6250000D03*
X21250000Y6250000D03*
X27500000Y6250000D03*
X25750000Y6250000D03*
X31000000Y6250000D03*
X29250000Y6250000D03*
D21*
X76250000Y69500000D03*
X76250000Y71250000D03*
D20*
X81250000Y65750000D03*
X79500000Y65750000D03*
D21*
X76250000Y65250000D03*
X76250000Y67000000D03*
D20*
X34625000Y6250000D03*
X32875000Y6250000D03*
X43000000Y6250000D03*
X41250000Y6250000D03*
D21*
X48000000Y78750000D03*
X48000000Y77000000D03*
D20*
X25500000Y86500000D03*
X23750000Y86500000D03*
X18250000Y55500000D03*
X20000000Y55500000D03*
D21*
X66250000Y71750000D03*
X66250000Y73500000D03*
X54000000Y79000000D03*
X54000000Y80750000D03*
D20*
X25500000Y83500000D03*
X23750000Y83500000D03*
D21*
X63750000Y71750000D03*
X63750000Y73500000D03*
X51500000Y79000000D03*
X51500000Y80750000D03*
D20*
X15750000Y55500000D03*
X14000000Y55500000D03*
X61000000Y44750000D03*
X59250000Y44750000D03*
X72500000Y65750000D03*
X70750000Y65750000D03*
X65500000Y4500000D03*
X63750000Y4500000D03*
D21*
X56000000Y49500000D03*
X56000000Y47750000D03*
X67500000Y65750000D03*
X67500000Y67500000D03*
X60500000Y9250000D03*
X60500000Y7500000D03*
D27*
X86540000Y84000000D03*
X82730000Y84000000D03*
X78920000Y84000000D03*
X75110000Y84000000D03*
X71300000Y84000000D03*
X67490000Y84000000D03*
X63680000Y84000000D03*
X59870000Y84000000D03*
X56060000Y84000000D03*
D28*
X52250000Y84000000D03*
D27*
X94000000Y53570000D03*
X94000000Y57380000D03*
X94000000Y61190000D03*
D28*
X94000000Y65000000D03*
D29*
X72500000Y52000000D03*
D30*
X72500000Y41000000D03*
D31*
X7000000Y10730000D03*
X7000000Y13270000D03*
X7000000Y15810000D03*
X7000000Y18350000D03*
X7000000Y20890000D03*
X7000000Y23430000D03*
X7000000Y25970000D03*
X7000000Y28510000D03*
X7000000Y31050000D03*
X7000000Y33590000D03*
X7000000Y36130000D03*
X7000000Y38670000D03*
X7000000Y41210000D03*
D32*
X7000000Y43750000D03*
D33*
X11750000Y49500000D03*
X88250000Y5000000D03*
X11750000Y5000000D03*
X88250000Y49500000D03*
D31*
X7000000Y46630000D03*
X7000000Y49170000D03*
X7000000Y51710000D03*
D32*
X7000000Y54250000D03*
D34*
X57750000Y3500000D03*
D31*
X55210000Y3500000D03*
D32*
X52670000Y3500000D03*
D31*
X50130000Y3500000D03*
X47590000Y3500000D03*
X45050000Y3500000D03*
X42510000Y3500000D03*
X39970000Y3500000D03*
X37430000Y3500000D03*
X34890000Y3500000D03*
X32350000Y3500000D03*
X29810000Y3500000D03*
X27270000Y3500000D03*
X24730000Y3500000D03*
X22190000Y3500000D03*
X19650000Y3500000D03*
D33*
X11950000Y41000000D03*
X90950000Y41000000D03*
D35*
X72300000Y60000000D03*
X77500000Y60000000D03*
X61200000Y60000000D03*
X56000000Y60000000D03*
D36*
X50500000Y20500000D03*
X50500000Y12500000D03*
X95500000Y33300000D03*
D37*
X95500000Y12500000D03*
D32*
X90500000Y77750000D03*
D31*
X93000000Y77750000D03*
X95500000Y77750000D03*
X95500000Y70250000D03*
X93000000Y70250000D03*
X90500000Y70250000D03*
D38*
X5000000Y5000000D03*
X95000000Y85000000D03*
X95000000Y5000000D03*
X5000000Y85000000D03*
D30*
X22500000Y21000000D03*
D14*
X32500000Y21000000D03*
X32500000Y11000000D03*
X22500000Y11000000D03*
D39*
X15250000Y81250000D03*
X14000000Y81250000D03*
X62500000Y75250000D03*
X12750000Y87500000D03*
X11520000Y59270000D03*
X49750000Y83750000D03*
X74250000Y73250000D03*
X21500000Y53500000D03*
X21750000Y86500000D03*
X41250000Y65000000D03*
X49500000Y65000000D03*
X18000000Y83750000D03*
X32500000Y83750000D03*
X17750000Y81250000D03*
X48500000Y75250000D03*
X42500000Y76250000D03*
X19250000Y81250000D03*
X24000000Y6250000D03*
X44500000Y78250000D03*
X21750000Y81250000D03*
X31750000Y7750000D03*
X46500000Y80250000D03*
X28000000Y81250000D03*
X15500000Y8000000D03*
X44250000Y6250000D03*
X47500000Y81250000D03*
X29250000Y81250000D03*
X45500000Y79250000D03*
X25500000Y81250000D03*
X35500000Y6250000D03*
X43500000Y77250000D03*
X20500000Y81250000D03*
X28250000Y7500000D03*
X48500000Y59250000D03*
X29250000Y60250000D03*
X10250000Y25250000D03*
X36250000Y9250000D03*
X40000000Y11500000D03*
X56500000Y10250000D03*
X18500000Y42750000D03*
X16500000Y1250000D03*
X45500000Y42750000D03*
X41250000Y66250000D03*
X49500000Y66250000D03*
X18000000Y82750000D03*
X32500000Y82750000D03*
X41250000Y63750000D03*
X49500000Y63750000D03*
X62000000Y44750000D03*
X73500000Y65750000D03*
X2750000Y23000000D03*
X12000000Y27250000D03*
X13000000Y72000000D03*
X13000000Y67500000D03*
X13000000Y69750000D03*
X22000000Y72000000D03*
X22000000Y69750000D03*
X22000000Y67500000D03*
X28000000Y60250000D03*
X21000000Y51500000D03*
X36250000Y86500000D03*
X82250000Y65750000D03*
X55250000Y69500000D03*
X60750000Y69500000D03*
X10750000Y82500000D03*
X73250000Y79000000D03*
X12500000Y24500000D03*
X3500000Y56750000D03*
X9500000Y35000000D03*
X1500000Y32750000D03*
X1500000Y34000000D03*
X4000000Y29750000D03*
X2750000Y29750000D03*
X5250000Y29750000D03*
X5250000Y32250000D03*
X25500000Y48500000D03*
X24500000Y47500000D03*
X49500000Y67500000D03*
X49500000Y62500000D03*
X52500000Y62500000D03*
X52500000Y67500000D03*
X70250000Y74500000D03*
X27750000Y46250000D03*
X26750000Y45250000D03*
X11500000Y81500000D03*
X19500000Y27250000D03*
X14750000Y16500000D03*
X36500000Y6000000D03*
X38500000Y6000000D03*
X1500000Y13500000D03*
X17500000Y49000000D03*
D40*
X30570000Y62250000D02*
X30570000Y65930000D01*
X30570000Y65930000D02*
X29000000Y67500000D01*
X29000000Y67500000D02*
X27750000Y67500000D01*
X31840000Y65970000D02*
X31840000Y64840000D01*
X29000000Y68810000D02*
X31840000Y65970000D01*
X27750000Y68810000D02*
X29000000Y68810000D01*
X31840000Y64840000D02*
X31840000Y65910000D01*
X31840000Y62250000D02*
X31840000Y64840000D01*
X27750000Y70080000D02*
X29000000Y70080000D01*
X29000000Y70080000D02*
X33110000Y65970000D01*
X33110000Y65970000D02*
X33110000Y65890000D01*
X33110000Y62250000D02*
X33110000Y65890000D01*
X29000000Y71350000D02*
X33110000Y75460000D01*
X27750000Y71350000D02*
X29000000Y71350000D01*
X33110000Y75460000D02*
X33110000Y76610000D01*
X33110000Y79250000D02*
X33110000Y76610000D01*
X31840000Y75460000D02*
X31840000Y76160000D01*
X27750000Y72620000D02*
X29000000Y72620000D01*
X29000000Y72620000D02*
X31840000Y75460000D01*
X31840000Y79250000D02*
X31840000Y76160000D01*
X29000000Y73890000D02*
X30570000Y75460000D01*
X27750000Y73890000D02*
X29000000Y73890000D01*
X30570000Y75460000D02*
X30570000Y76430000D01*
X30570000Y79250000D02*
X30570000Y76430000D01*
D41*
X95500000Y31650000D02*
X95500000Y24250000D01*
X95500000Y33300000D02*
X95500000Y31650000D01*
X98250000Y61250000D02*
X98250000Y69500000D01*
X98250000Y62000000D02*
X98250000Y61250000D01*
X97500000Y70250000D02*
X95500000Y70250000D01*
X98250000Y69500000D02*
X97500000Y70250000D01*
X97750000Y53500000D02*
X98250000Y54000000D01*
X94500000Y53500000D02*
X97750000Y53500000D01*
X98250000Y61250000D02*
X98250000Y54000000D01*
X74150000Y60000000D02*
X77500000Y60000000D01*
X72300000Y60000000D02*
X74150000Y60000000D01*
X77500000Y60000000D02*
X79350000Y60000000D01*
X94500000Y57310000D02*
X82040000Y57310000D01*
X82040000Y57310000D02*
X81550000Y57800000D01*
X79350000Y60000000D02*
X81550000Y57800000D01*
D40*
X26500000Y86500000D02*
X25750000Y86500000D01*
X26760000Y86240000D02*
X26500000Y86500000D01*
X27020000Y86500000D02*
X26760000Y86240000D01*
X27750000Y86500000D02*
X27020000Y86500000D01*
X26500000Y86500000D02*
X27020000Y86500000D01*
X26520000Y83500000D02*
X26760000Y83740000D01*
X25500000Y83500000D02*
X26520000Y83500000D01*
X26760000Y83740000D02*
X26760000Y86240000D01*
X26760000Y83260000D02*
X26520000Y83500000D01*
X26760000Y83240000D02*
X26760000Y83260000D01*
X26760000Y83240000D02*
X26760000Y83740000D01*
X26760000Y79250000D02*
X26760000Y83240000D01*
X15330000Y81170000D02*
X15250000Y81250000D01*
X15330000Y79250000D02*
X15330000Y81170000D01*
X14060000Y81190000D02*
X14000000Y81250000D01*
X14060000Y79250000D02*
X14060000Y81190000D01*
X12790000Y62250000D02*
X12790000Y57710000D01*
X12790000Y57710000D02*
X13250000Y57250000D01*
X13250000Y57250000D02*
X16250000Y57250000D01*
X16250000Y57250000D02*
X17000000Y56500000D01*
X17000000Y55750000D02*
X16750000Y55500000D01*
X17000000Y56500000D02*
X17000000Y55750000D01*
X15750000Y55500000D02*
X16750000Y55500000D01*
X17250000Y55500000D02*
X17000000Y55750000D01*
X17250000Y55500000D02*
X18250000Y55500000D01*
X17000000Y55500000D02*
X17250000Y55500000D01*
X16750000Y55500000D02*
X17000000Y55500000D01*
X17250000Y52750000D02*
X18250000Y52750000D01*
X17000000Y53000000D02*
X17250000Y52750000D01*
X17000000Y55250000D02*
X16750000Y55500000D01*
X17000000Y55000000D02*
X17000000Y55250000D01*
X17000000Y55000000D02*
X17000000Y53000000D01*
X17000000Y55500000D02*
X17000000Y55000000D01*
X17000000Y55250000D02*
X17250000Y55500000D01*
X12750000Y55750000D02*
X12500000Y55500000D01*
X12500000Y55500000D02*
X11750000Y55500000D01*
X12500000Y55500000D02*
X12750000Y55250000D01*
X13000000Y55500000D02*
X12750000Y55750000D01*
X14000000Y55500000D02*
X13000000Y55500000D01*
X12750000Y55500000D02*
X12875000Y55375000D01*
X12750000Y55750000D02*
X12750000Y55500000D01*
X12750000Y55250000D02*
X12875000Y55375000D01*
X12875000Y55375000D02*
X13000000Y55500000D01*
X23750000Y83500000D02*
X22750000Y83500000D01*
X22750000Y83500000D02*
X18750000Y87500000D01*
X18750000Y87500000D02*
X19500000Y88250000D01*
X16750000Y42250000D02*
X16750000Y42500000D01*
X12750000Y54500000D02*
X12750000Y55250000D01*
X16750000Y50500000D02*
X12750000Y54500000D01*
X19250000Y45000000D02*
X19250000Y44000000D01*
X19250000Y44000000D02*
X19000000Y43750000D01*
X17000000Y43750000D02*
X16750000Y44000000D01*
X19000000Y43750000D02*
X17000000Y43750000D01*
X16750000Y44000000D02*
X16750000Y50500000D01*
X16750000Y43500000D02*
X17000000Y43750000D01*
X16750000Y43250000D02*
X16750000Y43500000D01*
X16750000Y43250000D02*
X16750000Y44000000D01*
X16750000Y42250000D02*
X16750000Y43250000D01*
X13750000Y37500000D02*
X16750000Y40500000D01*
X11500000Y37500000D02*
X13750000Y37500000D01*
X16750000Y40500000D02*
X16750000Y42250000D01*
X14250000Y27500000D02*
X13000000Y26250000D01*
X14250000Y29250000D02*
X14250000Y27500000D01*
X13000000Y26250000D02*
X11000000Y26250000D01*
X11000000Y26250000D02*
X10500000Y26750000D01*
X10500000Y26750000D02*
X10500000Y36500000D01*
X10500000Y36500000D02*
X11500000Y37500000D01*
X13250000Y87500000D02*
X18750000Y87500000D01*
X12750000Y87500000D02*
X13250000Y87500000D01*
X11520000Y62250000D02*
X11520000Y59270000D01*
X12750000Y56750000D02*
X12750000Y55750000D01*
X11520000Y57980000D02*
X12750000Y56750000D01*
X11520000Y59270000D02*
X11520000Y57980000D01*
X63500000Y75250000D02*
X62500000Y75250000D01*
X63750000Y73500000D02*
X63750000Y75000000D01*
X63750000Y75000000D02*
X63500000Y75250000D01*
X51500000Y82000000D02*
X49750000Y83750000D01*
X51500000Y80750000D02*
X51500000Y82000000D01*
X49750000Y87500000D02*
X49000000Y88250000D01*
X49750000Y83750000D02*
X49750000Y87500000D01*
X19500000Y88250000D02*
X49000000Y88250000D01*
X76000000Y68500000D02*
X76250000Y68750000D01*
X74250000Y68750000D02*
X74500000Y68500000D01*
X76250000Y68750000D02*
X76250000Y69500000D01*
X74500000Y68500000D02*
X76000000Y68500000D01*
X74250000Y73250000D02*
X74250000Y68750000D01*
X20000000Y55500000D02*
X21000000Y55500000D01*
X21500000Y55000000D02*
X21500000Y53500000D01*
X21000000Y55500000D02*
X21500000Y55000000D01*
X23750000Y86500000D02*
X21750000Y86500000D01*
X22950000Y59700000D02*
X22950000Y62250000D01*
X24150000Y58500000D02*
X22950000Y59700000D01*
X34750000Y58500000D02*
X24150000Y58500000D01*
X41250000Y65000000D02*
X34750000Y58500000D01*
X67250000Y64750000D02*
X50500000Y64750000D01*
X67500000Y65000000D02*
X67250000Y64750000D01*
X67500000Y65750000D02*
X67500000Y65000000D01*
X50500000Y64750000D02*
X50250000Y65000000D01*
X49500000Y65000000D02*
X50250000Y65000000D01*
X51500000Y79000000D02*
X51500000Y78250000D01*
X51500000Y78250000D02*
X51750000Y78000000D01*
X54000000Y78250000D02*
X54000000Y79000000D01*
X53750000Y78000000D02*
X54000000Y78250000D01*
X56500000Y78250000D02*
X56500000Y79000000D01*
X56250000Y78000000D02*
X56500000Y78250000D01*
X54000000Y78250000D02*
X54250000Y78000000D01*
X54250000Y78000000D02*
X56250000Y78000000D01*
X53500000Y78000000D02*
X54250000Y78000000D01*
X53500000Y78000000D02*
X53750000Y78000000D01*
X51750000Y78000000D02*
X53500000Y78000000D01*
X51250000Y78000000D02*
X51500000Y78250000D01*
X50750000Y78000000D02*
X50500000Y78000000D01*
X50750000Y78000000D02*
X51250000Y78000000D01*
X50500000Y78000000D02*
X50000000Y78500000D01*
X18565685Y83750000D02*
X18000000Y83750000D01*
X20850000Y83750000D02*
X18565685Y83750000D01*
X22950000Y81650000D02*
X20850000Y83750000D01*
X22950000Y79250000D02*
X22950000Y81650000D01*
X50000000Y78500000D02*
X50000000Y80000000D01*
X50000000Y80000000D02*
X50000000Y80250000D01*
X47500000Y83750000D02*
X47000000Y83750000D01*
X50000000Y80000000D02*
X50000000Y81250000D01*
X50000000Y81250000D02*
X47500000Y83750000D01*
X32500000Y83750000D02*
X47000000Y83750000D01*
X17350000Y81250000D02*
X17750000Y81250000D01*
X16600000Y79250000D02*
X16600000Y80500000D01*
X16600000Y80500000D02*
X17350000Y81250000D01*
X48500000Y61250000D02*
X48500000Y75250000D01*
X56000000Y49500000D02*
X56000000Y53750000D01*
X56000000Y53750000D02*
X48500000Y61250000D01*
X19140000Y79250000D02*
X19140000Y81140000D01*
X19140000Y81140000D02*
X19250000Y81250000D01*
X23000000Y6250000D02*
X24250000Y6250000D01*
X36100010Y8149990D02*
X35000000Y9250000D01*
X37899990Y8149990D02*
X36100010Y8149990D01*
X42500000Y76250000D02*
X42500000Y47500000D01*
X42500000Y47500000D02*
X53250000Y36750000D01*
X53250000Y36750000D02*
X53250000Y11250000D01*
X53250000Y11250000D02*
X52500000Y10500000D01*
X52500000Y10500000D02*
X40250000Y10500000D01*
X40250000Y10500000D02*
X37899990Y8149990D01*
X27000000Y9250000D02*
X24000000Y6250000D01*
X29500000Y9250000D02*
X27000000Y9250000D01*
X29500000Y9250000D02*
X27250000Y9250000D01*
X35000000Y9250000D02*
X29500000Y9250000D01*
X24000000Y6250000D02*
X23000000Y6250000D01*
X21680000Y79250000D02*
X21680000Y81180000D01*
X21680000Y81180000D02*
X21750000Y81250000D01*
X44500000Y47500000D02*
X44500000Y77000000D01*
X54250000Y37750000D02*
X44500000Y47500000D01*
X54250000Y10977180D02*
X54250000Y37750000D01*
X44500000Y77000000D02*
X44500000Y78250000D01*
X35727208Y7249972D02*
X38999972Y7249972D01*
X38999972Y7249972D02*
X41250000Y9500000D01*
X41250000Y9500000D02*
X52772820Y9500000D01*
X52772820Y9500000D02*
X54250000Y10977180D01*
X35477180Y7500000D02*
X35488590Y7488590D01*
X35488590Y7488590D02*
X35727208Y7249972D01*
X31000000Y6250000D02*
X31500000Y6250000D01*
X31500000Y6250000D02*
X31750000Y6500000D01*
X31750000Y6500000D02*
X31750000Y7250000D01*
X31750000Y7750000D02*
X31750000Y7250000D01*
X35227180Y7750000D02*
X35477180Y7500000D01*
X31750000Y7750000D02*
X35227180Y7750000D01*
X28030000Y79250000D02*
X28030000Y76780000D01*
X28030000Y76780000D02*
X27750000Y76500000D01*
X28030000Y79250000D02*
X28030000Y81220000D01*
X28030000Y81220000D02*
X28000000Y81250000D01*
X13350000Y18350000D02*
X7000000Y18350000D01*
X14900000Y18350000D02*
X13350000Y18350000D01*
X15500000Y17750000D02*
X14900000Y18350000D01*
X15500000Y8000000D02*
X15500000Y17750000D01*
X46500000Y78250000D02*
X46500000Y80250000D01*
X46500000Y47750000D02*
X46500000Y78250000D01*
X53045640Y8500000D02*
X55250000Y10704360D01*
X55250000Y10704360D02*
X55250000Y39000000D01*
X55250000Y39000000D02*
X46500000Y47750000D01*
X43000000Y6250000D02*
X44250000Y6250000D01*
X46500000Y8500000D02*
X44250000Y6250000D01*
X49000000Y8500000D02*
X46500000Y8500000D01*
X49000000Y8500000D02*
X53045640Y8500000D01*
X29000000Y75160000D02*
X29300000Y75460000D01*
X29300000Y75800000D02*
X29300000Y75550000D01*
X29300000Y75460000D02*
X29300000Y75800000D01*
X27750000Y75160000D02*
X29000000Y75160000D01*
X29300000Y79250000D02*
X29300000Y75800000D01*
X29300000Y79250000D02*
X29300000Y81200000D01*
X29300000Y81200000D02*
X29250000Y81250000D01*
X48000000Y80750000D02*
X47500000Y81250000D01*
X48000000Y78750000D02*
X48000000Y80750000D01*
X41500000Y8750000D02*
X41750000Y9000000D01*
X25490000Y79250000D02*
X25490000Y81240000D01*
X25490000Y81240000D02*
X25500000Y81250000D01*
X41799991Y9049991D02*
X41500000Y8750000D01*
X52959221Y9049991D02*
X41799991Y9049991D01*
X54750000Y10840770D02*
X52959221Y9049991D01*
X54750000Y38250000D02*
X54750000Y10840770D01*
X45500000Y79250000D02*
X45500000Y47500000D01*
X45500000Y47500000D02*
X54750000Y38250000D01*
X35975001Y6725001D02*
X35500000Y6250000D01*
X37225001Y6725001D02*
X35975001Y6725001D01*
X37225001Y6725001D02*
X36225001Y6725001D01*
X35500000Y6250000D02*
X35000000Y6250000D01*
X34500000Y6250000D02*
X35000000Y6250000D01*
X35000000Y6250000D02*
X35250000Y6250000D01*
X41250000Y8500000D02*
X41500000Y8750000D01*
X37225001Y6725001D02*
X39475001Y6725001D01*
X39475001Y6725001D02*
X41250000Y8500000D01*
X42750000Y10000000D02*
X41000000Y10000000D01*
X20410000Y79250000D02*
X20410000Y81160000D01*
X20410000Y81160000D02*
X20500000Y81250000D01*
X43500000Y76500000D02*
X43500000Y77250000D01*
X43500000Y47500000D02*
X43500000Y76500000D01*
X53750000Y37250000D02*
X43500000Y47500000D01*
X53750000Y11113590D02*
X53750000Y37250000D01*
X42750000Y10000000D02*
X52636410Y10000000D01*
X52636410Y10000000D02*
X53750000Y11113590D01*
X28000000Y6250000D02*
X27500000Y6250000D01*
X28250000Y6500000D02*
X28000000Y6250000D01*
X28250000Y7500000D02*
X28250000Y6500000D01*
X40750000Y10000000D02*
X38449981Y7699981D01*
X42750000Y10000000D02*
X40750000Y10000000D01*
X38449981Y7699981D02*
X35913610Y7699980D01*
X34863590Y8750000D02*
X29500000Y8750000D01*
X35913610Y7699980D02*
X34863590Y8750000D01*
X29500000Y8750000D02*
X28250000Y7500000D01*
X29300000Y62250000D02*
X29300000Y65950000D01*
X29300000Y65950000D02*
X29000000Y66250000D01*
X29000000Y66250000D02*
X27750000Y66250000D01*
X29250000Y62200000D02*
X29300000Y62250000D01*
X29250000Y60250000D02*
X29250000Y62200000D01*
X48500000Y48250000D02*
X48500000Y59250000D01*
X56250000Y40500000D02*
X48500000Y48250000D01*
X60500000Y9250000D02*
X60500000Y10500000D01*
X56250000Y15000000D02*
X56250000Y14750000D01*
X56250000Y15000000D02*
X56250000Y40500000D01*
X7000000Y25970000D02*
X9530000Y25970000D01*
X9530000Y25970000D02*
X10250000Y25250000D01*
X37750000Y9250000D02*
X40000000Y11500000D01*
X58500000Y12250000D02*
X58500000Y12500000D01*
X56500000Y10250000D02*
X58500000Y12250000D01*
X56250000Y14750000D02*
X58500000Y12500000D01*
X58750000Y12250000D02*
X58500000Y12250000D01*
X58750000Y12250000D02*
X60500000Y10500000D01*
X58500000Y12500000D02*
X58750000Y12250000D01*
X36250000Y9250000D02*
X37000000Y9250000D01*
X36500000Y9250000D02*
X37000000Y9250000D01*
X37000000Y9250000D02*
X37750000Y9250000D01*
D41*
X26750000Y21000000D02*
X22500000Y21000000D01*
X64250000Y79000000D02*
X63000000Y79000000D01*
X63000000Y79000000D02*
X62500000Y79000000D01*
X67000000Y45000000D02*
X67000000Y43750000D01*
X67000000Y43750000D02*
X67000000Y44000000D01*
X67000000Y42250000D02*
X67000000Y43750000D01*
X72500000Y40750000D02*
X68000000Y40750000D01*
X68000000Y40750000D02*
X67000000Y41750000D01*
X67000000Y41750000D02*
X67000000Y45000000D01*
X45500000Y27250000D02*
X45500000Y36750000D01*
X16500000Y26750000D02*
X16500000Y29250000D01*
X17000000Y26250000D02*
X16500000Y26750000D01*
X17000000Y26250000D02*
X16500000Y25750000D01*
X14500000Y25700000D02*
X15050000Y26250000D01*
X14500000Y25000000D02*
X14500000Y25700000D01*
X16000000Y26250000D02*
X16500000Y26750000D01*
X16000000Y26250000D02*
X17000000Y26250000D01*
X15050000Y26250000D02*
X16000000Y26250000D01*
X16000000Y26250000D02*
X16500000Y25750000D01*
X18500000Y26750000D02*
X18000000Y26250000D01*
X18000000Y26250000D02*
X17000000Y26250000D01*
X19000000Y26250000D02*
X18500000Y26750000D01*
X19000000Y26250000D02*
X18000000Y26250000D01*
X21750000Y26250000D02*
X19000000Y26250000D01*
X18500000Y32000000D02*
X18500000Y26750000D01*
X18506370Y32006370D02*
X18500000Y32000000D01*
X16500000Y3000000D02*
X16500000Y1250000D01*
X16500000Y3000000D02*
X16500000Y25750000D01*
X18500000Y42000000D02*
X18500000Y42750000D01*
X18500303Y41999697D02*
X18500000Y42000000D01*
X18500303Y41999697D02*
X18506370Y32006370D01*
X18500000Y42500000D02*
X18500303Y41999697D01*
X44500000Y26250000D02*
X45500000Y27250000D01*
X39750000Y26250000D02*
X44500000Y26250000D01*
X39750000Y26250000D02*
X41500000Y26250000D01*
X22500000Y25000000D02*
X22500000Y26000000D01*
X22500000Y25000000D02*
X22500000Y21000000D01*
X23750000Y26250000D02*
X39750000Y26250000D01*
X23250000Y26250000D02*
X23750000Y26250000D01*
X23000000Y26250000D02*
X22250000Y26250000D01*
X23000000Y26250000D02*
X22750000Y26250000D01*
X22500000Y25250000D02*
X22500000Y25750000D01*
X22000000Y26250000D02*
X21750000Y26250000D01*
X22250000Y26250000D02*
X22000000Y26250000D01*
X22500000Y25250000D02*
X22500000Y25000000D01*
X22500000Y25500000D02*
X22500000Y25250000D01*
X23000000Y26250000D02*
X22500000Y25750000D01*
X23750000Y26250000D02*
X23000000Y26250000D01*
X22500000Y25750000D02*
X22000000Y26250000D01*
X56750000Y75750000D02*
X57000000Y75750000D01*
X55250000Y75250000D02*
X55750000Y75750000D01*
X55250000Y73500000D02*
X55250000Y75250000D01*
X55750000Y75750000D02*
X57000000Y75750000D01*
X58750000Y74250000D02*
X58750000Y75500000D01*
X58500000Y75750000D02*
X58750000Y75500000D01*
X57000000Y75750000D02*
X58500000Y75750000D01*
X45500000Y36750000D02*
X45500000Y42750000D01*
X59870000Y84000000D02*
X59870000Y79630000D01*
X59870000Y79630000D02*
X60500000Y79000000D01*
X60500000Y79000000D02*
X64250000Y79000000D01*
X60500000Y79000000D02*
X60000000Y78500000D01*
X60000000Y78500000D02*
X60000000Y76750000D01*
X59125000Y75875000D02*
X60000000Y76750000D01*
X58500000Y75750000D02*
X59000000Y75750000D01*
X59000000Y75750000D02*
X59125000Y75875000D01*
X58750000Y75500000D02*
X59000000Y75750000D01*
X60250000Y87500000D02*
X62250000Y87500000D01*
X59870000Y87120000D02*
X60250000Y87500000D01*
X59870000Y84000000D02*
X59870000Y87120000D01*
X78920000Y86420000D02*
X78920000Y87080000D01*
X78920000Y84000000D02*
X78920000Y86420000D01*
X78920000Y86420000D02*
X78920000Y86920000D01*
X78920000Y86420000D02*
X78920000Y87170000D01*
X78500000Y87500000D02*
X79250000Y87500000D01*
X79250000Y87500000D02*
X78920000Y87170000D01*
X81250000Y87500000D02*
X79250000Y87500000D01*
X78000000Y87500000D02*
X78590000Y87500000D01*
X62250000Y87500000D02*
X78000000Y87500000D01*
X78590000Y87500000D02*
X78920000Y87170000D01*
X78000000Y87500000D02*
X78500000Y87500000D01*
X82730000Y87020000D02*
X82250000Y87500000D01*
X82730000Y84000000D02*
X82730000Y87020000D01*
X81250000Y87500000D02*
X82250000Y87500000D01*
X77000000Y79250000D02*
X77250000Y79000000D01*
X77500000Y81250000D02*
X77000000Y80750000D01*
X77250000Y79000000D02*
X79000000Y79000000D01*
X77000000Y80750000D02*
X77000000Y79250000D01*
X82250000Y81250000D02*
X77500000Y81250000D01*
X82730000Y81730000D02*
X82250000Y81250000D01*
X82730000Y84000000D02*
X82730000Y81730000D01*
D40*
X67000000Y50750000D02*
X67000000Y49250000D01*
X60000000Y50250000D02*
X60000000Y51500000D01*
X67000000Y48500000D02*
X67000000Y49250000D01*
X72500000Y52250000D02*
X67500000Y52250000D01*
X67500000Y52250000D02*
X67000000Y51750000D01*
X67000000Y51750000D02*
X67000000Y48500000D01*
X67000000Y51750000D02*
X66500000Y52250000D01*
X66500000Y52250000D02*
X64750000Y52250000D01*
X64750000Y52250000D02*
X60500000Y52250000D01*
X60500000Y52250000D02*
X60000000Y51750000D01*
X60000000Y51750000D02*
X60000000Y50250000D01*
X54000000Y80750000D02*
X54000000Y82250000D01*
X54000000Y82250000D02*
X52250000Y84000000D01*
X86540000Y84000000D02*
X86540000Y79540000D01*
X86000000Y79000000D02*
X84250000Y79000000D01*
X86540000Y79540000D02*
X86000000Y79000000D01*
X71500000Y72500000D02*
X71500000Y71250000D01*
X73500000Y74500000D02*
X71500000Y72500000D01*
X86000000Y79000000D02*
X86500000Y78500000D01*
X78500000Y74500000D02*
X83500000Y74500000D01*
X78500000Y74500000D02*
X73500000Y74500000D01*
X86500000Y77500000D02*
X86500000Y78500000D01*
X83500000Y74500000D02*
X86500000Y77500000D01*
X65750000Y70750000D02*
X66500000Y70750000D01*
X64000000Y70750000D02*
X65750000Y70750000D01*
X65750000Y70750000D02*
X66000000Y70750000D01*
X68750000Y71000000D02*
X68750000Y71750000D01*
X66250000Y71000000D02*
X66500000Y70750000D01*
X66500000Y70750000D02*
X68500000Y70750000D01*
X68500000Y70750000D02*
X68750000Y71000000D01*
X63750000Y71000000D02*
X64000000Y70750000D01*
X63750000Y71750000D02*
X63750000Y71000000D01*
X66000000Y70750000D02*
X66250000Y71000000D01*
X66250000Y71000000D02*
X66250000Y71750000D01*
X24220000Y62250000D02*
X24220000Y59780000D01*
X24220000Y59780000D02*
X24750000Y59250000D01*
X24750000Y59250000D02*
X34250000Y59250000D01*
X34250000Y59250000D02*
X41250000Y66250000D01*
X57000000Y66250000D02*
X58250000Y66250000D01*
X56250000Y66250000D02*
X59500000Y66250000D01*
X56250000Y66250000D02*
X57000000Y66250000D01*
X60250000Y67000000D02*
X64000000Y70750000D01*
X59500000Y66250000D02*
X60250000Y67000000D01*
X49500000Y66250000D02*
X56250000Y66250000D01*
X12790000Y81540000D02*
X12790000Y79250000D01*
X14000000Y82750000D02*
X12790000Y81540000D01*
X18000000Y82750000D02*
X14000000Y82750000D01*
X52250000Y68750000D02*
X52250000Y75250000D01*
X59700000Y71650000D02*
X59700000Y68700000D01*
X59500000Y68500000D02*
X52500000Y68500000D01*
X52500000Y68500000D02*
X52250000Y68750000D01*
X52250000Y75250000D02*
X49250000Y78250000D01*
X59700000Y68700000D02*
X59500000Y68500000D01*
X49250000Y81000000D02*
X47500000Y82750000D01*
X49250000Y79500000D02*
X49250000Y81000000D01*
X47500000Y82750000D02*
X32500000Y82750000D01*
X49250000Y79500000D02*
X49250000Y80000000D01*
X49250000Y78250000D02*
X49250000Y79500000D01*
X63750000Y82250000D02*
X63750000Y84000000D01*
X64000000Y82000000D02*
X63750000Y82250000D01*
X72500000Y82000000D02*
X64000000Y82000000D01*
X74500000Y80000000D02*
X72500000Y82000000D01*
X74500000Y77250000D02*
X74500000Y80000000D01*
X60650000Y74250000D02*
X60650000Y75650000D01*
X60650000Y75650000D02*
X61250000Y76250000D01*
X61250000Y76250000D02*
X73500000Y76250000D01*
X73500000Y76250000D02*
X74500000Y77250000D01*
X73250000Y83750000D02*
X73000000Y84000000D01*
X73250000Y82250000D02*
X73250000Y83750000D01*
X73500000Y75500000D02*
X75000000Y77000000D01*
X73000000Y84000000D02*
X71540000Y84000000D01*
X75000000Y80500000D02*
X73250000Y82250000D01*
X75000000Y77000000D02*
X75000000Y80500000D01*
X67000000Y75500000D02*
X73500000Y75500000D01*
X66250000Y74750000D02*
X67000000Y75500000D01*
X66250000Y73500000D02*
X66250000Y74750000D01*
X79250000Y68750000D02*
X79250000Y68000000D01*
X79250000Y68000000D02*
X78500000Y67250000D01*
X78500000Y67250000D02*
X78500000Y66000000D01*
X78750000Y65750000D02*
X79500000Y65750000D01*
X78500000Y66000000D02*
X78750000Y65750000D01*
X76250000Y67000000D02*
X76250000Y67750000D01*
X76250000Y67750000D02*
X76500000Y68000000D01*
X77750000Y68000000D02*
X78500000Y67250000D01*
X76500000Y68000000D02*
X77750000Y68000000D01*
X35250000Y57750000D02*
X36500000Y59000000D01*
X41250000Y63750000D02*
X36500000Y59000000D01*
X21680000Y59570000D02*
X23500000Y57750000D01*
X21680000Y62250000D02*
X21680000Y59570000D01*
X23500000Y57750000D02*
X35250000Y57750000D01*
X50000000Y63750000D02*
X50500000Y64250000D01*
X49500000Y63750000D02*
X50000000Y63750000D01*
X74250000Y64250000D02*
X75000000Y64250000D01*
X50500000Y64250000D02*
X74250000Y64250000D01*
X76250000Y65250000D02*
X76250000Y64500000D01*
X76000000Y64250000D02*
X75500000Y64250000D01*
X76250000Y64500000D02*
X76000000Y64250000D01*
X75500000Y64250000D02*
X74250000Y64250000D01*
D41*
X90500000Y70250000D02*
X90500000Y67000000D01*
X90500000Y67000000D02*
X90500000Y66000000D01*
X94500000Y64930000D02*
X92820000Y64930000D01*
X91570000Y64930000D02*
X91000000Y65500000D01*
X94500000Y64930000D02*
X91570000Y64930000D01*
X91000000Y65500000D02*
X91500000Y65000000D01*
X90500000Y66000000D02*
X91000000Y65500000D01*
D40*
X93000000Y79250000D02*
X93000000Y77750000D01*
X92500000Y79750000D02*
X93000000Y79250000D01*
X91500000Y79750000D02*
X92500000Y79750000D01*
X76250000Y72000000D02*
X76250000Y71250000D01*
X89500000Y79750000D02*
X90750000Y79750000D01*
X90750000Y79750000D02*
X91500000Y79750000D01*
X78000000Y73750000D02*
X77625000Y73375000D01*
X77625000Y73375000D02*
X76250000Y72000000D01*
X80250000Y73750000D02*
X83500000Y73750000D01*
X83500000Y73750000D02*
X85000000Y75250000D01*
X89500000Y79750000D02*
X85000000Y75250000D01*
X85000000Y75250000D02*
X84750000Y75000000D01*
X80250000Y73750000D02*
X78000000Y73750000D01*
X80250000Y72500000D02*
X80250000Y71250000D01*
X80750000Y73000000D02*
X80250000Y72500000D01*
X85750000Y73000000D02*
X87375000Y74625000D01*
X87375000Y74625000D02*
X87000000Y74250000D01*
X90500000Y77750000D02*
X87375000Y74625000D01*
X83750000Y73000000D02*
X85750000Y73000000D01*
X83750000Y73000000D02*
X80750000Y73000000D01*
D41*
X65500000Y7500000D02*
X65500000Y6550000D01*
X66500000Y5550000D02*
X66500000Y4750000D01*
X66500000Y4750000D02*
X66250000Y4500000D01*
X65500000Y6550000D02*
X66500000Y5550000D01*
X66250000Y4500000D02*
X65500000Y4500000D01*
X62000000Y45000000D02*
X62000000Y44750000D01*
X61000000Y47750000D02*
X61000000Y46800000D01*
X61750000Y44750000D02*
X61000000Y44750000D01*
X61000000Y46800000D02*
X62000000Y45800000D01*
X62000000Y45800000D02*
X62000000Y45000000D01*
X62000000Y45000000D02*
X61750000Y44750000D01*
X72500000Y67800000D02*
X73500000Y66800000D01*
X72500000Y68750000D02*
X72500000Y67800000D01*
X73500000Y66800000D02*
X73500000Y66000000D01*
X73250000Y65750000D02*
X72500000Y65750000D01*
X73500000Y66000000D02*
X73250000Y65750000D01*
X73500000Y66000000D02*
X73500000Y65750000D01*
X28500000Y21000000D02*
X32500000Y21000000D01*
X12000000Y29250000D02*
X12000000Y27250000D01*
X28030000Y62250000D02*
X28030000Y64720000D01*
X28030000Y64720000D02*
X27750000Y65000000D01*
X10250000Y62250000D02*
X10250000Y60250000D01*
X28030000Y60280000D02*
X28000000Y60250000D01*
X28030000Y62250000D02*
X28030000Y60280000D01*
X10250000Y59684315D02*
X10250000Y60250000D01*
X9000000Y56300000D02*
X9000000Y56578232D01*
X10000000Y55500000D02*
X9250000Y55500000D01*
X9000000Y55750000D02*
X9000000Y56300000D01*
X9250000Y55500000D02*
X9000000Y55750000D01*
X20000000Y52750000D02*
X20750000Y52750000D01*
X20750000Y52750000D02*
X21000000Y52500000D01*
X21000000Y52500000D02*
X21000000Y51500000D01*
X29500000Y86500000D02*
X36250000Y86500000D01*
X81250000Y67800000D02*
X82250000Y66800000D01*
X81250000Y68750000D02*
X81250000Y67800000D01*
X82250000Y66800000D02*
X82250000Y66000000D01*
X82000000Y65750000D02*
X81250000Y65750000D01*
X82250000Y66000000D02*
X82000000Y65750000D01*
X82250000Y66000000D02*
X82250000Y65750000D01*
X56540000Y80790000D02*
X56500000Y80750000D01*
X56540000Y84000000D02*
X56540000Y80790000D01*
X10250000Y79250000D02*
X10250000Y82000000D01*
X10250000Y82000000D02*
X10750000Y82500000D01*
X71500000Y79000000D02*
X73250000Y79000000D01*
X2750000Y22050000D02*
X2750000Y23000000D01*
X66500000Y4500000D02*
X66500000Y4750000D01*
X66500000Y3250000D02*
X66500000Y4500000D01*
X57500000Y5250000D02*
X57000000Y5250000D01*
X57000000Y5250000D02*
X59500000Y5250000D01*
X59500000Y5250000D02*
X61750000Y3000000D01*
X61750000Y3000000D02*
X66250000Y3000000D01*
X66250000Y3000000D02*
X66500000Y3250000D01*
X53217919Y5250000D02*
X53500000Y5250000D01*
X52670000Y4702081D02*
X53217919Y5250000D01*
X52670000Y3500000D02*
X52670000Y4702081D01*
X57000000Y5250000D02*
X53500000Y5250000D01*
X52670000Y2170000D02*
X52670000Y3500000D01*
X52250000Y1750000D02*
X52670000Y2170000D01*
X42960000Y1750000D02*
X43000000Y1750000D01*
X42510000Y2200000D02*
X42960000Y1750000D01*
X42510000Y3500000D02*
X42510000Y2200000D01*
X43000000Y1750000D02*
X52250000Y1750000D01*
X42060000Y1750000D02*
X42510000Y2200000D01*
X40000000Y1750000D02*
X42060000Y1750000D01*
X37880000Y1750000D02*
X38000000Y1750000D01*
X37430000Y2200000D02*
X37880000Y1750000D01*
X37430000Y3500000D02*
X37430000Y2200000D01*
X40000000Y1750000D02*
X38000000Y1750000D01*
X38000000Y1750000D02*
X36430000Y1750000D01*
X36980000Y1750000D02*
X37430000Y2200000D01*
X35250000Y1750000D02*
X35530000Y1750000D01*
X34890000Y2110000D02*
X35250000Y1750000D01*
X34890000Y3500000D02*
X34890000Y2110000D01*
X34530000Y1750000D02*
X34890000Y2110000D01*
X32750000Y1750000D02*
X33000000Y1750000D01*
X32250000Y1750000D02*
X32750000Y1750000D01*
X32350000Y2150000D02*
X32750000Y1750000D01*
X32350000Y3500000D02*
X32350000Y2150000D01*
X31950000Y1750000D02*
X32350000Y2150000D01*
X29810000Y2190000D02*
X30250000Y1750000D01*
X29810000Y3500000D02*
X29810000Y2190000D01*
X31250000Y1750000D02*
X32750000Y1750000D01*
X31250000Y1750000D02*
X31950000Y1750000D01*
X30250000Y1750000D02*
X31250000Y1750000D01*
X34250000Y1750000D02*
X35750000Y1750000D01*
X35750000Y1750000D02*
X36980000Y1750000D01*
X35250000Y1750000D02*
X35750000Y1750000D01*
X34250000Y1750000D02*
X34530000Y1750000D01*
X32750000Y1750000D02*
X34250000Y1750000D01*
X42060000Y1750000D02*
X42960000Y1750000D01*
X2750000Y22050000D02*
X2750000Y20500000D01*
X2750000Y19100000D02*
X2750000Y20500000D01*
X2750000Y22000000D02*
X3200000Y21550000D01*
X2750000Y22050000D02*
X2750000Y22000000D01*
X2750000Y21100000D02*
X3200000Y21550000D01*
X2750000Y20500000D02*
X2750000Y21100000D01*
X14500000Y22550000D02*
X14200000Y22250000D01*
X14500000Y23250000D02*
X14500000Y22550000D01*
X8500000Y56750000D02*
X8921768Y56750000D01*
X9210884Y56789116D02*
X10250000Y57828232D01*
X9000000Y56578232D02*
X9210884Y56789116D01*
X9171768Y56750000D02*
X8921768Y56750000D01*
X10250000Y57828232D02*
X9171768Y56750000D01*
X10250000Y59250000D02*
X10250000Y57828232D01*
X10250000Y59250000D02*
X10250000Y59684315D01*
X9000000Y56500000D02*
X8750000Y56750000D01*
X9000000Y56300000D02*
X9000000Y56500000D01*
X8750000Y56750000D02*
X8921768Y56750000D01*
X3500000Y56750000D02*
X8750000Y56750000D01*
X12500000Y23500000D02*
X12500000Y24500000D01*
X12500000Y22750000D02*
X12500000Y23500000D01*
X13000000Y22250000D02*
X12500000Y22750000D01*
X13750000Y22250000D02*
X13000000Y22250000D01*
X14200000Y22250000D02*
X13750000Y22250000D01*
X8724999Y35775001D02*
X9500000Y35000000D01*
X8724999Y40785001D02*
X8724999Y35775001D01*
X8300000Y41210000D02*
X8724999Y40785001D01*
X7000000Y41210000D02*
X8300000Y41210000D01*
X2750000Y31500000D02*
X1500000Y32750000D01*
X2750000Y29750000D02*
X2750000Y31500000D01*
X4000000Y31500000D02*
X1500000Y34000000D01*
X4000000Y29750000D02*
X4000000Y31500000D01*
X5250000Y29750000D02*
X5250000Y32250000D01*
X49500000Y67500000D02*
X52500000Y67500000D01*
X52500000Y62500000D02*
X49500000Y62500000D01*
X69000000Y74500000D02*
X68750000Y74250000D01*
X70250000Y74500000D02*
X69000000Y74500000D01*
X68750000Y74250000D02*
X68750000Y73500000D01*
X26000000Y48000000D02*
X25500000Y48500000D01*
X27750000Y46250000D02*
X26000000Y48000000D01*
X25000000Y47000000D02*
X24500000Y47500000D01*
X26750000Y45250000D02*
X25000000Y47000000D01*
X2750000Y19600000D02*
X2750000Y21100000D01*
X4700000Y21550000D02*
X3200000Y21550000D01*
X3900000Y13850000D02*
X4250000Y13500000D01*
X3900000Y15600000D02*
X3900000Y13850000D01*
X5250000Y13750000D02*
X5000000Y13500000D01*
X5250000Y21000000D02*
X5250000Y13750000D01*
X4250000Y13500000D02*
X5000000Y13500000D01*
X5250000Y21000000D02*
X4700000Y21550000D01*
X37500000Y19750000D02*
X38250000Y20500000D01*
X22500000Y13000000D02*
X22500000Y11000000D01*
X37250000Y18250000D02*
X37500000Y18000000D01*
X27750000Y18250000D02*
X37250000Y18250000D01*
X22500000Y13000000D02*
X27750000Y18250000D01*
X37500000Y16250000D02*
X37500000Y18000000D01*
X37500000Y18500000D02*
X37250000Y18250000D01*
X37500000Y19000000D02*
X37500000Y18500000D01*
X37500000Y19000000D02*
X37500000Y19750000D01*
X37500000Y18000000D02*
X37500000Y19000000D01*
X50500000Y20500000D02*
X39500000Y20500000D01*
X38250000Y20500000D02*
X39500000Y20500000D01*
X39500000Y20500000D02*
X39750000Y20500000D01*
X95500000Y19550000D02*
X95500000Y12500000D01*
X95500000Y20750000D02*
X95500000Y19550000D01*
X57850000Y60000000D02*
X61200000Y60000000D01*
X56000000Y60000000D02*
X57850000Y60000000D01*
X56000000Y58150000D02*
X56000000Y60000000D01*
X57400000Y56750000D02*
X56000000Y58150000D01*
X66250000Y56750000D02*
X66750000Y57250000D01*
X65500000Y56750000D02*
X66250000Y56750000D01*
X66750000Y56750000D02*
X66750000Y57250000D01*
X65500000Y56750000D02*
X57400000Y56750000D01*
X66750000Y56750000D02*
X65500000Y56750000D01*
X67250000Y56750000D02*
X66750000Y57250000D01*
X67750000Y56750000D02*
X67250000Y56750000D01*
X67750000Y56750000D02*
X66750000Y56750000D01*
X93000000Y12500000D02*
X95500000Y12500000D01*
X67750000Y56750000D02*
X79500000Y56750000D01*
X79500000Y56750000D02*
X82500000Y53750000D01*
X82500000Y53750000D02*
X82500000Y38000000D01*
X82500000Y38000000D02*
X92500000Y28000000D01*
X92500000Y28000000D02*
X92500000Y13000000D01*
X92500000Y13000000D02*
X93000000Y12500000D01*
X66750000Y62000000D02*
X66750000Y57250000D01*
X67750000Y63000000D02*
X66750000Y62000000D01*
X80000000Y63000000D02*
X67750000Y63000000D01*
X84250000Y61000000D02*
X82000000Y61000000D01*
X81375000Y61625000D02*
X80000000Y63000000D01*
X82000000Y61000000D02*
X81375000Y61625000D01*
D40*
X11500000Y79270000D02*
X11520000Y79250000D01*
X11500000Y81500000D02*
X11500000Y79270000D01*
X19140000Y60640000D02*
X19140000Y62250000D01*
X19140000Y59360000D02*
X19140000Y60640000D01*
X22750000Y55750000D02*
X19140000Y59360000D01*
X22750000Y45250000D02*
X22750000Y55750000D01*
X19500000Y42000000D02*
X22750000Y45250000D01*
X19500000Y27250000D02*
X19500000Y42000000D01*
X8980000Y10730000D02*
X7000000Y10730000D01*
X14750000Y16500000D02*
X8980000Y10730000D01*
X26750000Y62240000D02*
X26760000Y62250000D01*
D41*
X94500000Y61120000D02*
X89370000Y61120000D01*
X89370000Y61120000D02*
X89250000Y61000000D01*
X37750000Y12500000D02*
X37500000Y12750000D01*
X50500000Y12500000D02*
X37750000Y12500000D01*
X37500000Y12750000D02*
X37500000Y14500000D01*
X35750000Y11000000D02*
X37500000Y12750000D01*
X32500000Y11000000D02*
X35750000Y11000000D01*
D40*
X64500000Y10000000D02*
X64500000Y11000000D01*
X64500000Y11000000D02*
X64750000Y11250000D01*
X64750000Y11250000D02*
X67500000Y11250000D01*
X67500000Y11250000D02*
X67750000Y11000000D01*
X67750000Y11000000D02*
X67750000Y2000000D01*
X67500000Y1750000D02*
X67750000Y2000000D01*
X64750000Y1750000D02*
X67500000Y1750000D01*
X65500000Y1750000D02*
X64750000Y1750000D01*
X55210000Y2040000D02*
X55500000Y1750000D01*
X55210000Y3500000D02*
X55210000Y2040000D01*
X64750000Y1750000D02*
X55500000Y1750000D01*
X36500000Y6000000D02*
X38500000Y6000000D01*
X1600000Y15600000D02*
X1600000Y13600000D01*
X1600000Y13600000D02*
X1500000Y13500000D01*
X45100000Y6350000D02*
X45100000Y3500000D01*
X46750000Y8000000D02*
X45100000Y6350000D01*
X53182050Y8000000D02*
X46750000Y8000000D01*
X48000000Y76250000D02*
X47500000Y75750000D01*
X48000000Y77000000D02*
X48000000Y76250000D01*
X47500000Y75750000D02*
X47500000Y48000000D01*
X47500000Y48000000D02*
X55750000Y39750000D01*
X55750000Y39750000D02*
X55750000Y10567950D01*
X55750000Y10567950D02*
X53182050Y8000000D01*
X39970000Y3500000D02*
X39970000Y5720000D01*
X39970000Y5720000D02*
X40500000Y6250000D01*
X41250000Y6250000D02*
X40750000Y6250000D01*
X40500000Y6250000D02*
X40750000Y6250000D01*
X27270000Y4600000D02*
X27270000Y3500000D01*
X32250000Y6250000D02*
X32000000Y6000000D01*
X32750000Y6250000D02*
X32250000Y6250000D01*
X32000000Y6000000D02*
X32000000Y5250000D01*
X32000000Y5250000D02*
X31750000Y5000000D01*
X28790000Y4790000D02*
X29000000Y5000000D01*
X27460000Y4790000D02*
X28790000Y4790000D01*
X31750000Y5000000D02*
X29000000Y5000000D01*
X27460000Y4790000D02*
X27270000Y4600000D01*
X28750000Y6250000D02*
X28500000Y6000000D01*
X29250000Y6250000D02*
X28750000Y6250000D01*
X28500000Y6000000D02*
X28500000Y5500000D01*
X28500000Y5500000D02*
X28250000Y5250000D01*
X24730000Y4600000D02*
X24880000Y4750000D01*
X24730000Y3500000D02*
X24730000Y4600000D01*
X26000000Y4750000D02*
X26500000Y5250000D01*
X24880000Y4750000D02*
X26000000Y4750000D01*
X28250000Y5250000D02*
X26500000Y5250000D01*
X25250000Y6250000D02*
X25750000Y6250000D01*
X25073002Y6250000D02*
X25250000Y6250000D01*
X23573002Y4750000D02*
X25073002Y6250000D01*
X22340000Y4750000D02*
X23573002Y4750000D01*
X22190000Y4600000D02*
X22340000Y4750000D01*
X22190000Y3500000D02*
X22190000Y4600000D01*
X19650000Y3500000D02*
X19650000Y5400000D01*
X19650000Y5400000D02*
X20500000Y6250000D01*
X21250000Y6250000D02*
X20500000Y6250000D01*
X62750000Y6000000D02*
X62750000Y4750000D01*
X63000000Y4500000D02*
X63750000Y4500000D01*
X63500000Y7500000D02*
X63500000Y6750000D01*
X63500000Y6750000D02*
X62750000Y6000000D01*
X62750000Y4750000D02*
X63000000Y4500000D01*
X60500000Y7500000D02*
X60500000Y7000000D01*
X61000000Y6500000D02*
X62250000Y6500000D01*
X60500000Y7000000D02*
X61000000Y6500000D01*
X62250000Y6500000D02*
X62750000Y6000000D01*
X69750000Y67250000D02*
X69750000Y66000000D01*
X69750000Y66000000D02*
X70000000Y65750000D01*
X70000000Y65750000D02*
X70750000Y65750000D01*
X70500000Y68000000D02*
X69750000Y67250000D01*
X70500000Y68750000D02*
X70500000Y68000000D01*
X69000000Y68000000D02*
X69750000Y67250000D01*
X67500000Y67500000D02*
X67500000Y68000000D01*
X67500000Y68000000D02*
X67750000Y68250000D01*
X68750000Y68250000D02*
X69000000Y68000000D01*
X67750000Y68250000D02*
X68750000Y68250000D01*
X58250000Y45000000D02*
X58500000Y44750000D01*
X58500000Y44750000D02*
X59250000Y44750000D01*
X59000000Y47750000D02*
X59000000Y47000000D01*
X59000000Y47000000D02*
X58250000Y46250000D01*
X58250000Y46250000D02*
X58250000Y45000000D01*
X56000000Y47000000D02*
X56000000Y47750000D01*
X56250000Y46750000D02*
X56000000Y47000000D01*
X58250000Y46250000D02*
X57750000Y46750000D01*
X57750000Y46750000D02*
X56250000Y46750000D01*
X18250000Y47500000D02*
X18250000Y48250000D01*
X18250000Y48250000D02*
X18500000Y48500000D01*
X18500000Y48500000D02*
X20000000Y48500000D01*
X20250000Y48250000D02*
X20250000Y47500000D01*
X20047919Y48500000D02*
X20000000Y48500000D01*
X20250000Y48297919D02*
X20047919Y48500000D01*
X20250000Y47500000D02*
X20250000Y48297919D01*
X18500000Y48500000D02*
X18000000Y48500000D01*
X17500000Y49000000D02*
X18000000Y48500000D01*
X18000000Y48500000D02*
X18250000Y48250000D01*
D42*
G36*
X14733682Y72292621D02*
G01*
X14722097Y72175000D01*
X14725000Y71675000D01*
X14875000Y71525000D01*
X15975000Y71525000D01*
X15975000Y71545000D01*
X16025000Y71545000D01*
X16025000Y71525000D01*
X17725000Y71525000D01*
X17725000Y71545000D01*
X17775000Y71545000D01*
X17775000Y71525000D01*
X19475000Y71525000D01*
X19475000Y71545000D01*
X19525000Y71545000D01*
X19525000Y71525000D01*
X20625000Y71525000D01*
X20775000Y71675000D01*
X20777903Y72175000D01*
X20766318Y72292621D01*
X20733745Y72400000D01*
X22400000Y72400000D01*
X22400000Y67100000D01*
X20733745Y67100000D01*
X20766318Y67207379D01*
X20777903Y67325000D01*
X20775000Y67825000D01*
X20625000Y67975000D01*
X19525000Y67975000D01*
X19525000Y67955000D01*
X19475000Y67955000D01*
X19475000Y67975000D01*
X17775000Y67975000D01*
X17775000Y67955000D01*
X17725000Y67955000D01*
X17725000Y67975000D01*
X16025000Y67975000D01*
X16025000Y67955000D01*
X15975000Y67955000D01*
X15975000Y67975000D01*
X14875000Y67975000D01*
X14725000Y67825000D01*
X14722097Y67325000D01*
X14733682Y67207379D01*
X14766255Y67100000D01*
X12600000Y67100000D01*
X12600000Y69075000D01*
X14722097Y69075000D01*
X14733682Y68957379D01*
X14758671Y68875000D01*
X14733682Y68792621D01*
X14722097Y68675000D01*
X14725000Y68175000D01*
X14875000Y68025000D01*
X15975000Y68025000D01*
X15975000Y69725000D01*
X16025000Y69725000D01*
X16025000Y68025000D01*
X17725000Y68025000D01*
X17725000Y69725000D01*
X17775000Y69725000D01*
X17775000Y68025000D01*
X19475000Y68025000D01*
X19475000Y69725000D01*
X19525000Y69725000D01*
X19525000Y68025000D01*
X20625000Y68025000D01*
X20775000Y68175000D01*
X20777903Y68675000D01*
X20766318Y68792621D01*
X20741329Y68875000D01*
X20766318Y68957379D01*
X20777903Y69075000D01*
X20775000Y69575000D01*
X20625000Y69725000D01*
X19525000Y69725000D01*
X19475000Y69725000D01*
X17775000Y69725000D01*
X17725000Y69725000D01*
X16025000Y69725000D01*
X15975000Y69725000D01*
X14875000Y69725000D01*
X14725000Y69575000D01*
X14722097Y69075000D01*
X12600000Y69075000D01*
X12600000Y70825000D01*
X14722097Y70825000D01*
X14733682Y70707379D01*
X14758671Y70625000D01*
X14733682Y70542621D01*
X14722097Y70425000D01*
X14725000Y69925000D01*
X14875000Y69775000D01*
X15975000Y69775000D01*
X15975000Y71475000D01*
X16025000Y71475000D01*
X16025000Y69775000D01*
X17725000Y69775000D01*
X17725000Y71475000D01*
X17775000Y71475000D01*
X17775000Y69775000D01*
X19475000Y69775000D01*
X19475000Y71475000D01*
X19525000Y71475000D01*
X19525000Y69775000D01*
X20625000Y69775000D01*
X20775000Y69925000D01*
X20777903Y70425000D01*
X20766318Y70542621D01*
X20741329Y70625000D01*
X20766318Y70707379D01*
X20777903Y70825000D01*
X20775000Y71325000D01*
X20625000Y71475000D01*
X19525000Y71475000D01*
X19475000Y71475000D01*
X17775000Y71475000D01*
X17725000Y71475000D01*
X16025000Y71475000D01*
X15975000Y71475000D01*
X14875000Y71475000D01*
X14725000Y71325000D01*
X14722097Y70825000D01*
X12600000Y70825000D01*
X12600000Y72400000D01*
X14766255Y72400000D01*
X14733682Y72292621D01*
X14733682Y72292621D01*
G37*
X14733682Y72292621D02*
X14722097Y72175000D01*
X14725000Y71675000D01*
X14875000Y71525000D01*
X15975000Y71525000D01*
X15975000Y71545000D01*
X16025000Y71545000D01*
X16025000Y71525000D01*
X17725000Y71525000D01*
X17725000Y71545000D01*
X17775000Y71545000D01*
X17775000Y71525000D01*
X19475000Y71525000D01*
X19475000Y71545000D01*
X19525000Y71545000D01*
X19525000Y71525000D01*
X20625000Y71525000D01*
X20775000Y71675000D01*
X20777903Y72175000D01*
X20766318Y72292621D01*
X20733745Y72400000D01*
X22400000Y72400000D01*
X22400000Y67100000D01*
X20733745Y67100000D01*
X20766318Y67207379D01*
X20777903Y67325000D01*
X20775000Y67825000D01*
X20625000Y67975000D01*
X19525000Y67975000D01*
X19525000Y67955000D01*
X19475000Y67955000D01*
X19475000Y67975000D01*
X17775000Y67975000D01*
X17775000Y67955000D01*
X17725000Y67955000D01*
X17725000Y67975000D01*
X16025000Y67975000D01*
X16025000Y67955000D01*
X15975000Y67955000D01*
X15975000Y67975000D01*
X14875000Y67975000D01*
X14725000Y67825000D01*
X14722097Y67325000D01*
X14733682Y67207379D01*
X14766255Y67100000D01*
X12600000Y67100000D01*
X12600000Y69075000D01*
X14722097Y69075000D01*
X14733682Y68957379D01*
X14758671Y68875000D01*
X14733682Y68792621D01*
X14722097Y68675000D01*
X14725000Y68175000D01*
X14875000Y68025000D01*
X15975000Y68025000D01*
X15975000Y69725000D01*
X16025000Y69725000D01*
X16025000Y68025000D01*
X17725000Y68025000D01*
X17725000Y69725000D01*
X17775000Y69725000D01*
X17775000Y68025000D01*
X19475000Y68025000D01*
X19475000Y69725000D01*
X19525000Y69725000D01*
X19525000Y68025000D01*
X20625000Y68025000D01*
X20775000Y68175000D01*
X20777903Y68675000D01*
X20766318Y68792621D01*
X20741329Y68875000D01*
X20766318Y68957379D01*
X20777903Y69075000D01*
X20775000Y69575000D01*
X20625000Y69725000D01*
X19525000Y69725000D01*
X19475000Y69725000D01*
X17775000Y69725000D01*
X17725000Y69725000D01*
X16025000Y69725000D01*
X15975000Y69725000D01*
X14875000Y69725000D01*
X14725000Y69575000D01*
X14722097Y69075000D01*
X12600000Y69075000D01*
X12600000Y70825000D01*
X14722097Y70825000D01*
X14733682Y70707379D01*
X14758671Y70625000D01*
X14733682Y70542621D01*
X14722097Y70425000D01*
X14725000Y69925000D01*
X14875000Y69775000D01*
X15975000Y69775000D01*
X15975000Y71475000D01*
X16025000Y71475000D01*
X16025000Y69775000D01*
X17725000Y69775000D01*
X17725000Y71475000D01*
X17775000Y71475000D01*
X17775000Y69775000D01*
X19475000Y69775000D01*
X19475000Y71475000D01*
X19525000Y71475000D01*
X19525000Y69775000D01*
X20625000Y69775000D01*
X20775000Y69925000D01*
X20777903Y70425000D01*
X20766318Y70542621D01*
X20741329Y70625000D01*
X20766318Y70707379D01*
X20777903Y70825000D01*
X20775000Y71325000D01*
X20625000Y71475000D01*
X19525000Y71475000D01*
X19475000Y71475000D01*
X17775000Y71475000D01*
X17725000Y71475000D01*
X16025000Y71475000D01*
X15975000Y71475000D01*
X14875000Y71475000D01*
X14725000Y71325000D01*
X14722097Y70825000D01*
X12600000Y70825000D01*
X12600000Y72400000D01*
X14766255Y72400000D01*
X14733682Y72292621D01*
G36*
X55275000Y71775000D02*
G01*
X55295000Y71775000D01*
X55295000Y71725000D01*
X55275000Y71725000D01*
X55275000Y70675000D01*
X55550000Y70400000D01*
X55851488Y70394928D01*
X55900000Y70398666D01*
X55900000Y70250000D01*
X55901921Y70230491D01*
X55907612Y70211732D01*
X55916853Y70194443D01*
X55929289Y70179289D01*
X55944443Y70166853D01*
X55961732Y70157612D01*
X55980491Y70151921D01*
X56000000Y70150000D01*
X57640863Y70150000D01*
X57785916Y70030958D01*
X57977012Y69928816D01*
X58184362Y69865916D01*
X58400000Y69844678D01*
X58450000Y69850000D01*
X58725000Y70125000D01*
X58725000Y71475000D01*
X58705000Y71475000D01*
X58705000Y71525000D01*
X58725000Y71525000D01*
X58725000Y71545000D01*
X58775000Y71545000D01*
X58775000Y71525000D01*
X58795000Y71525000D01*
X58795000Y71475000D01*
X58775000Y71475000D01*
X58775000Y70125000D01*
X59050000Y69850000D01*
X59100000Y69844678D01*
X59225001Y69856989D01*
X59225001Y69100000D01*
X54600000Y69100000D01*
X54600000Y70398666D01*
X54648512Y70394928D01*
X54950000Y70400000D01*
X55225000Y70675000D01*
X55225000Y71725000D01*
X55205000Y71725000D01*
X55205000Y71775000D01*
X55225000Y71775000D01*
X55225000Y71795000D01*
X55275000Y71795000D01*
X55275000Y71775000D01*
X55275000Y71775000D01*
G37*
X55275000Y71775000D02*
X55295000Y71775000D01*
X55295000Y71725000D01*
X55275000Y71725000D01*
X55275000Y70675000D01*
X55550000Y70400000D01*
X55851488Y70394928D01*
X55900000Y70398666D01*
X55900000Y70250000D01*
X55901921Y70230491D01*
X55907612Y70211732D01*
X55916853Y70194443D01*
X55929289Y70179289D01*
X55944443Y70166853D01*
X55961732Y70157612D01*
X55980491Y70151921D01*
X56000000Y70150000D01*
X57640863Y70150000D01*
X57785916Y70030958D01*
X57977012Y69928816D01*
X58184362Y69865916D01*
X58400000Y69844678D01*
X58450000Y69850000D01*
X58725000Y70125000D01*
X58725000Y71475000D01*
X58705000Y71475000D01*
X58705000Y71525000D01*
X58725000Y71525000D01*
X58725000Y71545000D01*
X58775000Y71545000D01*
X58775000Y71525000D01*
X58795000Y71525000D01*
X58795000Y71475000D01*
X58775000Y71475000D01*
X58775000Y70125000D01*
X59050000Y69850000D01*
X59100000Y69844678D01*
X59225001Y69856989D01*
X59225001Y69100000D01*
X54600000Y69100000D01*
X54600000Y70398666D01*
X54648512Y70394928D01*
X54950000Y70400000D01*
X55225000Y70675000D01*
X55225000Y71725000D01*
X55205000Y71725000D01*
X55205000Y71775000D01*
X55225000Y71775000D01*
X55225000Y71795000D01*
X55275000Y71795000D01*
X55275000Y71775000D01*
G36*
X60675000Y71525000D02*
G01*
X60695000Y71525000D01*
X60695000Y71475000D01*
X60675000Y71475000D01*
X60675000Y70125000D01*
X60950000Y69850000D01*
X61000000Y69844678D01*
X61215638Y69865916D01*
X61400000Y69921843D01*
X61400000Y69100000D01*
X60175000Y69100000D01*
X60175000Y69856989D01*
X60300000Y69844678D01*
X60350000Y69850000D01*
X60625000Y70125000D01*
X60625000Y71475000D01*
X60605000Y71475000D01*
X60605000Y71525000D01*
X60625000Y71525000D01*
X60625000Y71545000D01*
X60675000Y71545000D01*
X60675000Y71525000D01*
X60675000Y71525000D01*
G37*
X60675000Y71525000D02*
X60695000Y71525000D01*
X60695000Y71475000D01*
X60675000Y71475000D01*
X60675000Y70125000D01*
X60950000Y69850000D01*
X61000000Y69844678D01*
X61215638Y69865916D01*
X61400000Y69921843D01*
X61400000Y69100000D01*
X60175000Y69100000D01*
X60175000Y69856989D01*
X60300000Y69844678D01*
X60350000Y69850000D01*
X60625000Y70125000D01*
X60625000Y71475000D01*
X60605000Y71475000D01*
X60605000Y71525000D01*
X60625000Y71525000D01*
X60625000Y71545000D01*
X60675000Y71545000D01*
X60675000Y71525000D01*
M02*
