G04 #@! TF.GenerationSoftware,KiCad,Pcbnew,(5.1.2-1)-1*
G04 #@! TF.CreationDate,2021-05-08T22:39:51+03:00*
G04 #@! TF.ProjectId,UAK_3,55414b5f-332e-46b6-9963-61645f706362,rev?*
G04 #@! TF.SameCoordinates,Original*
G04 #@! TF.FileFunction,Soldermask,Top*
G04 #@! TF.FilePolarity,Negative*
%FSLAX46Y46*%
G04 Gerber Fmt 4.6, Leading zero omitted, Abs format (unit mm)*
G04 Created by KiCad (PCBNEW (5.1.2-1)-1) date 2021-05-08 22:39:51*
%MOMM*%
%LPD*%
G04 APERTURE LIST*
%ADD10C,0.100000*%
G04 APERTURE END LIST*
D10*
G36*
X96035787Y8414538D02*
G01*
X96035790Y8414537D01*
X96035789Y8414537D01*
X96682029Y8146856D01*
X97263631Y7758242D01*
X97758242Y7263631D01*
X98146856Y6682029D01*
X98146856Y6682028D01*
X98414538Y6035787D01*
X98551000Y5349744D01*
X98551000Y4650256D01*
X98414538Y3964213D01*
X98356460Y3824000D01*
X98146856Y3317971D01*
X97758242Y2736369D01*
X97263631Y2241758D01*
X96682029Y1853144D01*
X96225068Y1663865D01*
X96035787Y1585462D01*
X95349744Y1449000D01*
X94650256Y1449000D01*
X93964213Y1585462D01*
X93774932Y1663865D01*
X93317971Y1853144D01*
X92736369Y2241758D01*
X92241758Y2736369D01*
X91853144Y3317971D01*
X91643540Y3824000D01*
X91585462Y3964213D01*
X91449000Y4650256D01*
X91449000Y5349744D01*
X91585462Y6035787D01*
X91853144Y6682028D01*
X91853144Y6682029D01*
X92241758Y7263631D01*
X92736369Y7758242D01*
X93317971Y8146856D01*
X93964211Y8414537D01*
X93964210Y8414537D01*
X93964213Y8414538D01*
X94650256Y8551000D01*
X95349744Y8551000D01*
X96035787Y8414538D01*
X96035787Y8414538D01*
G37*
G36*
X6035787Y8414538D02*
G01*
X6035790Y8414537D01*
X6035789Y8414537D01*
X6682029Y8146856D01*
X7263631Y7758242D01*
X7758242Y7263631D01*
X8146856Y6682029D01*
X8146856Y6682028D01*
X8414538Y6035787D01*
X8551000Y5349744D01*
X8551000Y4650256D01*
X8414538Y3964213D01*
X8356460Y3824000D01*
X8146856Y3317971D01*
X7758242Y2736369D01*
X7263631Y2241758D01*
X6682029Y1853144D01*
X6225068Y1663865D01*
X6035787Y1585462D01*
X5349744Y1449000D01*
X4650256Y1449000D01*
X3964213Y1585462D01*
X3774932Y1663865D01*
X3317971Y1853144D01*
X2736369Y2241758D01*
X2241758Y2736369D01*
X1853144Y3317971D01*
X1643540Y3824000D01*
X1585462Y3964213D01*
X1449000Y4650256D01*
X1449000Y5349744D01*
X1585462Y6035787D01*
X1853144Y6682028D01*
X1853144Y6682029D01*
X2241758Y7263631D01*
X2736369Y7758242D01*
X3317971Y8146856D01*
X3964211Y8414537D01*
X3964210Y8414537D01*
X3964213Y8414538D01*
X4650256Y8551000D01*
X5349744Y8551000D01*
X6035787Y8414538D01*
X6035787Y8414538D01*
G37*
G36*
X89067021Y7693360D02*
G01*
X89576769Y7482215D01*
X89576771Y7482214D01*
X90035534Y7175679D01*
X90425679Y6785534D01*
X90494839Y6682028D01*
X90732215Y6326769D01*
X90943360Y5817021D01*
X91051000Y5275876D01*
X91051000Y4724124D01*
X90943360Y4182979D01*
X90733621Y3676625D01*
X90732214Y3673229D01*
X90425679Y3214466D01*
X90035534Y2824321D01*
X89576771Y2517786D01*
X89576770Y2517785D01*
X89576769Y2517785D01*
X89067021Y2306640D01*
X88525876Y2199000D01*
X87974124Y2199000D01*
X87432979Y2306640D01*
X86923231Y2517785D01*
X86923230Y2517785D01*
X86923229Y2517786D01*
X86464466Y2824321D01*
X86074321Y3214466D01*
X85767786Y3673229D01*
X85766379Y3676625D01*
X85556640Y4182979D01*
X85449000Y4724124D01*
X85449000Y5275876D01*
X85556640Y5817021D01*
X85767785Y6326769D01*
X86005161Y6682028D01*
X86074321Y6785534D01*
X86464466Y7175679D01*
X86923229Y7482214D01*
X86923231Y7482215D01*
X87432979Y7693360D01*
X87974124Y7801000D01*
X88525876Y7801000D01*
X89067021Y7693360D01*
X89067021Y7693360D01*
G37*
G36*
X12567021Y7693360D02*
G01*
X13076769Y7482215D01*
X13076771Y7482214D01*
X13535534Y7175679D01*
X13925679Y6785534D01*
X13994839Y6682028D01*
X14232215Y6326769D01*
X14443360Y5817021D01*
X14551000Y5275876D01*
X14551000Y4724124D01*
X14443360Y4182979D01*
X14233621Y3676625D01*
X14232214Y3673229D01*
X13925679Y3214466D01*
X13535534Y2824321D01*
X13076771Y2517786D01*
X13076770Y2517785D01*
X13076769Y2517785D01*
X12567021Y2306640D01*
X12025876Y2199000D01*
X11474124Y2199000D01*
X10932979Y2306640D01*
X10423231Y2517785D01*
X10423230Y2517785D01*
X10423229Y2517786D01*
X9964466Y2824321D01*
X9574321Y3214466D01*
X9267786Y3673229D01*
X9266379Y3676625D01*
X9056640Y4182979D01*
X8949000Y4724124D01*
X8949000Y5275876D01*
X9056640Y5817021D01*
X9267785Y6326769D01*
X9505161Y6682028D01*
X9574321Y6785534D01*
X9964466Y7175679D01*
X10423229Y7482214D01*
X10423231Y7482215D01*
X10932979Y7693360D01*
X11474124Y7801000D01*
X12025876Y7801000D01*
X12567021Y7693360D01*
X12567021Y7693360D01*
G37*
G36*
X48491000Y2599000D02*
G01*
X46689000Y2599000D01*
X46689000Y4401000D01*
X48491000Y4401000D01*
X48491000Y2599000D01*
X48491000Y2599000D01*
G37*
G36*
X45951000Y2599000D02*
G01*
X44149000Y2599000D01*
X44149000Y4401000D01*
X45951000Y4401000D01*
X45951000Y2599000D01*
X45951000Y2599000D01*
G37*
G36*
X43411000Y2599000D02*
G01*
X41609000Y2599000D01*
X41609000Y4401000D01*
X43411000Y4401000D01*
X43411000Y2599000D01*
X43411000Y2599000D01*
G37*
G36*
X40871000Y2599000D02*
G01*
X39069000Y2599000D01*
X39069000Y4401000D01*
X40871000Y4401000D01*
X40871000Y2599000D01*
X40871000Y2599000D01*
G37*
G36*
X38331000Y2599000D02*
G01*
X36529000Y2599000D01*
X36529000Y4401000D01*
X38331000Y4401000D01*
X38331000Y2599000D01*
X38331000Y2599000D01*
G37*
G36*
X35791000Y2599000D02*
G01*
X33989000Y2599000D01*
X33989000Y4401000D01*
X35791000Y4401000D01*
X35791000Y2599000D01*
X35791000Y2599000D01*
G37*
G36*
X33251000Y2599000D02*
G01*
X31449000Y2599000D01*
X31449000Y4401000D01*
X33251000Y4401000D01*
X33251000Y2599000D01*
X33251000Y2599000D01*
G37*
G36*
X30711000Y2599000D02*
G01*
X28909000Y2599000D01*
X28909000Y4401000D01*
X30711000Y4401000D01*
X30711000Y2599000D01*
X30711000Y2599000D01*
G37*
G36*
X28171000Y2599000D02*
G01*
X26369000Y2599000D01*
X26369000Y4401000D01*
X28171000Y4401000D01*
X28171000Y2599000D01*
X28171000Y2599000D01*
G37*
G36*
X25631000Y2599000D02*
G01*
X23829000Y2599000D01*
X23829000Y4401000D01*
X25631000Y4401000D01*
X25631000Y2599000D01*
X25631000Y2599000D01*
G37*
G36*
X23091000Y2599000D02*
G01*
X21289000Y2599000D01*
X21289000Y4401000D01*
X23091000Y4401000D01*
X23091000Y2599000D01*
X23091000Y2599000D01*
G37*
G36*
X20551000Y2599000D02*
G01*
X18749000Y2599000D01*
X18749000Y4401000D01*
X20551000Y4401000D01*
X20551000Y2599000D01*
X20551000Y2599000D01*
G37*
G36*
X57860443Y4394481D02*
G01*
X57926627Y4387963D01*
X58096466Y4336443D01*
X58252991Y4252778D01*
X58288729Y4223448D01*
X58390186Y4140186D01*
X58473448Y4038729D01*
X58502778Y4002991D01*
X58586443Y3846466D01*
X58637963Y3676627D01*
X58655359Y3500000D01*
X58637963Y3323373D01*
X58586443Y3153534D01*
X58502778Y2997009D01*
X58473448Y2961271D01*
X58390186Y2859814D01*
X58317480Y2800147D01*
X58252991Y2747222D01*
X58096466Y2663557D01*
X57926627Y2612037D01*
X57860443Y2605519D01*
X57794260Y2599000D01*
X57705740Y2599000D01*
X57639557Y2605519D01*
X57573373Y2612037D01*
X57403534Y2663557D01*
X57247009Y2747222D01*
X57182520Y2800147D01*
X57109814Y2859814D01*
X57026552Y2961271D01*
X56997222Y2997009D01*
X56913557Y3153534D01*
X56862037Y3323373D01*
X56844641Y3500000D01*
X56862037Y3676627D01*
X56913557Y3846466D01*
X56997222Y4002991D01*
X57026552Y4038729D01*
X57109814Y4140186D01*
X57211271Y4223448D01*
X57247009Y4252778D01*
X57403534Y4336443D01*
X57573373Y4387963D01*
X57639557Y4394481D01*
X57705740Y4401000D01*
X57794260Y4401000D01*
X57860443Y4394481D01*
X57860443Y4394481D01*
G37*
G36*
X56111000Y2599000D02*
G01*
X54309000Y2599000D01*
X54309000Y4401000D01*
X56111000Y4401000D01*
X56111000Y2599000D01*
X56111000Y2599000D01*
G37*
G36*
X52783512Y4396073D02*
G01*
X52932812Y4366376D01*
X53096784Y4298456D01*
X53244354Y4199853D01*
X53369853Y4074354D01*
X53468456Y3926784D01*
X53536376Y3762812D01*
X53571000Y3588741D01*
X53571000Y3411259D01*
X53536376Y3237188D01*
X53468456Y3073216D01*
X53369853Y2925646D01*
X53244354Y2800147D01*
X53096784Y2701544D01*
X52932812Y2633624D01*
X52783512Y2603927D01*
X52758742Y2599000D01*
X52581258Y2599000D01*
X52556488Y2603927D01*
X52407188Y2633624D01*
X52243216Y2701544D01*
X52095646Y2800147D01*
X51970147Y2925646D01*
X51871544Y3073216D01*
X51803624Y3237188D01*
X51769000Y3411259D01*
X51769000Y3588741D01*
X51803624Y3762812D01*
X51871544Y3926784D01*
X51970147Y4074354D01*
X52095646Y4199853D01*
X52243216Y4298456D01*
X52407188Y4366376D01*
X52556488Y4396073D01*
X52581258Y4401000D01*
X52758742Y4401000D01*
X52783512Y4396073D01*
X52783512Y4396073D01*
G37*
G36*
X51031000Y2599000D02*
G01*
X49229000Y2599000D01*
X49229000Y4401000D01*
X51031000Y4401000D01*
X51031000Y2599000D01*
X51031000Y2599000D01*
G37*
G36*
X65801000Y3824000D02*
G01*
X65199000Y3824000D01*
X65199000Y5176000D01*
X65801000Y5176000D01*
X65801000Y3824000D01*
X65801000Y3824000D01*
G37*
G36*
X64051000Y3824000D02*
G01*
X63449000Y3824000D01*
X63449000Y5176000D01*
X64051000Y5176000D01*
X64051000Y3824000D01*
X64051000Y3824000D01*
G37*
G36*
X23301000Y5574000D02*
G01*
X22699000Y5574000D01*
X22699000Y6926000D01*
X23301000Y6926000D01*
X23301000Y5574000D01*
X23301000Y5574000D01*
G37*
G36*
X21551000Y5574000D02*
G01*
X20949000Y5574000D01*
X20949000Y6926000D01*
X21551000Y6926000D01*
X21551000Y5574000D01*
X21551000Y5574000D01*
G37*
G36*
X27801000Y5574000D02*
G01*
X27199000Y5574000D01*
X27199000Y6926000D01*
X27801000Y6926000D01*
X27801000Y5574000D01*
X27801000Y5574000D01*
G37*
G36*
X26051000Y5574000D02*
G01*
X25449000Y5574000D01*
X25449000Y6926000D01*
X26051000Y6926000D01*
X26051000Y5574000D01*
X26051000Y5574000D01*
G37*
G36*
X31301000Y5574000D02*
G01*
X30699000Y5574000D01*
X30699000Y6926000D01*
X31301000Y6926000D01*
X31301000Y5574000D01*
X31301000Y5574000D01*
G37*
G36*
X29551000Y5574000D02*
G01*
X28949000Y5574000D01*
X28949000Y6926000D01*
X29551000Y6926000D01*
X29551000Y5574000D01*
X29551000Y5574000D01*
G37*
G36*
X33176000Y5574000D02*
G01*
X32574000Y5574000D01*
X32574000Y6926000D01*
X33176000Y6926000D01*
X33176000Y5574000D01*
X33176000Y5574000D01*
G37*
G36*
X34926000Y5574000D02*
G01*
X34324000Y5574000D01*
X34324000Y6926000D01*
X34926000Y6926000D01*
X34926000Y5574000D01*
X34926000Y5574000D01*
G37*
G36*
X41551000Y5574000D02*
G01*
X40949000Y5574000D01*
X40949000Y6926000D01*
X41551000Y6926000D01*
X41551000Y5574000D01*
X41551000Y5574000D01*
G37*
G36*
X43301000Y5574000D02*
G01*
X42699000Y5574000D01*
X42699000Y6926000D01*
X43301000Y6926000D01*
X43301000Y5574000D01*
X43301000Y5574000D01*
G37*
G36*
X63951000Y6949000D02*
G01*
X63049000Y6949000D01*
X63049000Y8051000D01*
X63951000Y8051000D01*
X63951000Y6949000D01*
X63951000Y6949000D01*
G37*
G36*
X65951000Y6949000D02*
G01*
X65049000Y6949000D01*
X65049000Y8051000D01*
X65951000Y8051000D01*
X65951000Y6949000D01*
X65951000Y6949000D01*
G37*
G36*
X61176000Y7199000D02*
G01*
X59824000Y7199000D01*
X59824000Y7801000D01*
X61176000Y7801000D01*
X61176000Y7199000D01*
X61176000Y7199000D01*
G37*
G36*
X61176000Y8949000D02*
G01*
X59824000Y8949000D01*
X59824000Y9551000D01*
X61176000Y9551000D01*
X61176000Y8949000D01*
X61176000Y8949000D01*
G37*
G36*
X64951000Y9449000D02*
G01*
X64049000Y9449000D01*
X64049000Y10551000D01*
X64951000Y10551000D01*
X64951000Y9449000D01*
X64951000Y9449000D01*
G37*
G36*
X7901000Y9829000D02*
G01*
X6099000Y9829000D01*
X6099000Y11631000D01*
X7901000Y11631000D01*
X7901000Y9829000D01*
X7901000Y9829000D01*
G37*
G36*
X23551000Y9949000D02*
G01*
X21449000Y9949000D01*
X21449000Y12051000D01*
X23551000Y12051000D01*
X23551000Y9949000D01*
X23551000Y9949000D01*
G37*
G36*
X33551000Y9949000D02*
G01*
X31449000Y9949000D01*
X31449000Y12051000D01*
X33551000Y12051000D01*
X33551000Y9949000D01*
X33551000Y9949000D01*
G37*
G36*
X95864903Y13702925D02*
G01*
X96092571Y13608622D01*
X96297466Y13471715D01*
X96471715Y13297466D01*
X96608622Y13092571D01*
X96702925Y12864903D01*
X96751000Y12623213D01*
X96751000Y12376787D01*
X96702925Y12135097D01*
X96608622Y11907429D01*
X96471715Y11702534D01*
X96297466Y11528285D01*
X96092571Y11391378D01*
X96092570Y11391377D01*
X96092569Y11391377D01*
X95864903Y11297075D01*
X95623214Y11249000D01*
X95376786Y11249000D01*
X95135097Y11297075D01*
X94907431Y11391377D01*
X94907430Y11391377D01*
X94907429Y11391378D01*
X94702534Y11528285D01*
X94528285Y11702534D01*
X94391378Y11907429D01*
X94297075Y12135097D01*
X94249000Y12376787D01*
X94249000Y12623213D01*
X94297075Y12864903D01*
X94391378Y13092571D01*
X94528285Y13297466D01*
X94702534Y13471715D01*
X94907429Y13608622D01*
X95135097Y13702925D01*
X95376786Y13751000D01*
X95623214Y13751000D01*
X95864903Y13702925D01*
X95864903Y13702925D01*
G37*
G36*
X51751000Y11249000D02*
G01*
X49249000Y11249000D01*
X49249000Y13751000D01*
X51751000Y13751000D01*
X51751000Y11249000D01*
X51751000Y11249000D01*
G37*
G36*
X7901000Y12369000D02*
G01*
X6099000Y12369000D01*
X6099000Y14171000D01*
X7901000Y14171000D01*
X7901000Y12369000D01*
X7901000Y12369000D01*
G37*
G36*
X38176000Y14199000D02*
G01*
X36824000Y14199000D01*
X36824000Y14801000D01*
X38176000Y14801000D01*
X38176000Y14199000D01*
X38176000Y14199000D01*
G37*
G36*
X2301000Y14549000D02*
G01*
X899000Y14549000D01*
X899000Y16651000D01*
X2301000Y16651000D01*
X2301000Y14549000D01*
X2301000Y14549000D01*
G37*
G36*
X4601000Y14549000D02*
G01*
X3199000Y14549000D01*
X3199000Y16651000D01*
X4601000Y16651000D01*
X4601000Y14549000D01*
X4601000Y14549000D01*
G37*
G36*
X7901000Y14909000D02*
G01*
X6099000Y14909000D01*
X6099000Y16711000D01*
X7901000Y16711000D01*
X7901000Y14909000D01*
X7901000Y14909000D01*
G37*
G36*
X38176000Y15949000D02*
G01*
X36824000Y15949000D01*
X36824000Y16551000D01*
X38176000Y16551000D01*
X38176000Y15949000D01*
X38176000Y15949000D01*
G37*
G36*
X7901000Y17449000D02*
G01*
X6099000Y17449000D01*
X6099000Y19251000D01*
X7901000Y19251000D01*
X7901000Y17449000D01*
X7901000Y17449000D01*
G37*
G36*
X3801000Y18549000D02*
G01*
X1699000Y18549000D01*
X1699000Y20651000D01*
X3801000Y20651000D01*
X3801000Y18549000D01*
X3801000Y18549000D01*
G37*
G36*
X51751000Y19249000D02*
G01*
X49249000Y19249000D01*
X49249000Y21751000D01*
X51751000Y21751000D01*
X51751000Y19249000D01*
X51751000Y19249000D01*
G37*
G36*
X22806564Y22010611D02*
G01*
X22997833Y21931385D01*
X22997835Y21931384D01*
X23169973Y21816365D01*
X23316365Y21669973D01*
X23431385Y21497833D01*
X23510611Y21306564D01*
X23551000Y21103516D01*
X23551000Y20896484D01*
X23510611Y20693436D01*
X23493033Y20651000D01*
X23431384Y20502165D01*
X23316365Y20330027D01*
X23169973Y20183635D01*
X22997835Y20068616D01*
X22997834Y20068615D01*
X22997833Y20068615D01*
X22806564Y19989389D01*
X22603516Y19949000D01*
X22396484Y19949000D01*
X22193436Y19989389D01*
X22002167Y20068615D01*
X22002166Y20068615D01*
X22002165Y20068616D01*
X21830027Y20183635D01*
X21683635Y20330027D01*
X21568616Y20502165D01*
X21506967Y20651000D01*
X21489389Y20693436D01*
X21449000Y20896484D01*
X21449000Y21103516D01*
X21489389Y21306564D01*
X21568615Y21497833D01*
X21683635Y21669973D01*
X21830027Y21816365D01*
X22002165Y21931384D01*
X22002167Y21931385D01*
X22193436Y22010611D01*
X22396484Y22051000D01*
X22603516Y22051000D01*
X22806564Y22010611D01*
X22806564Y22010611D01*
G37*
G36*
X97051000Y19949000D02*
G01*
X93949000Y19949000D01*
X93949000Y21551000D01*
X97051000Y21551000D01*
X97051000Y19949000D01*
X97051000Y19949000D01*
G37*
G36*
X33551000Y19949000D02*
G01*
X31449000Y19949000D01*
X31449000Y22051000D01*
X33551000Y22051000D01*
X33551000Y19949000D01*
X33551000Y19949000D01*
G37*
G36*
X7901000Y19989000D02*
G01*
X6099000Y19989000D01*
X6099000Y21791000D01*
X7901000Y21791000D01*
X7901000Y19989000D01*
X7901000Y19989000D01*
G37*
G36*
X28801000Y20324000D02*
G01*
X28199000Y20324000D01*
X28199000Y21676000D01*
X28801000Y21676000D01*
X28801000Y20324000D01*
X28801000Y20324000D01*
G37*
G36*
X27051000Y20324000D02*
G01*
X26449000Y20324000D01*
X26449000Y21676000D01*
X27051000Y21676000D01*
X27051000Y20324000D01*
X27051000Y20324000D01*
G37*
G36*
X7901000Y22529000D02*
G01*
X6099000Y22529000D01*
X6099000Y24331000D01*
X7901000Y24331000D01*
X7901000Y22529000D01*
X7901000Y22529000D01*
G37*
G36*
X15176000Y22949000D02*
G01*
X13824000Y22949000D01*
X13824000Y23551000D01*
X15176000Y23551000D01*
X15176000Y22949000D01*
X15176000Y22949000D01*
G37*
G36*
X97051000Y23449000D02*
G01*
X93949000Y23449000D01*
X93949000Y25051000D01*
X97051000Y25051000D01*
X97051000Y23449000D01*
X97051000Y23449000D01*
G37*
G36*
X15176000Y24699000D02*
G01*
X13824000Y24699000D01*
X13824000Y25301000D01*
X15176000Y25301000D01*
X15176000Y24699000D01*
X15176000Y24699000D01*
G37*
G36*
X7901000Y25069000D02*
G01*
X6099000Y25069000D01*
X6099000Y26871000D01*
X7901000Y26871000D01*
X7901000Y25069000D01*
X7901000Y25069000D01*
G37*
G36*
X7901000Y27609000D02*
G01*
X6099000Y27609000D01*
X6099000Y29411000D01*
X7901000Y29411000D01*
X7901000Y27609000D01*
X7901000Y27609000D01*
G37*
G36*
X17301000Y28199000D02*
G01*
X15699000Y28199000D01*
X15699000Y30301000D01*
X17301000Y30301000D01*
X17301000Y28199000D01*
X17301000Y28199000D01*
G37*
G36*
X15051000Y28199000D02*
G01*
X13449000Y28199000D01*
X13449000Y30301000D01*
X15051000Y30301000D01*
X15051000Y28199000D01*
X15051000Y28199000D01*
G37*
G36*
X12801000Y28199000D02*
G01*
X11199000Y28199000D01*
X11199000Y30301000D01*
X12801000Y30301000D01*
X12801000Y28199000D01*
X12801000Y28199000D01*
G37*
G36*
X7901000Y30149000D02*
G01*
X6099000Y30149000D01*
X6099000Y31951000D01*
X7901000Y31951000D01*
X7901000Y30149000D01*
X7901000Y30149000D01*
G37*
G36*
X96751000Y32049000D02*
G01*
X94249000Y32049000D01*
X94249000Y34551000D01*
X96751000Y34551000D01*
X96751000Y32049000D01*
X96751000Y32049000D01*
G37*
G36*
X7901000Y32689000D02*
G01*
X6099000Y32689000D01*
X6099000Y34491000D01*
X7901000Y34491000D01*
X7901000Y32689000D01*
X7901000Y32689000D01*
G37*
G36*
X16301000Y34449000D02*
G01*
X12199000Y34449000D01*
X12199000Y36551000D01*
X16301000Y36551000D01*
X16301000Y34449000D01*
X16301000Y34449000D01*
G37*
G36*
X7901000Y35229000D02*
G01*
X6099000Y35229000D01*
X6099000Y37031000D01*
X7901000Y37031000D01*
X7901000Y35229000D01*
X7901000Y35229000D01*
G37*
G36*
X7901000Y37769000D02*
G01*
X6099000Y37769000D01*
X6099000Y39571000D01*
X7901000Y39571000D01*
X7901000Y37769000D01*
X7901000Y37769000D01*
G37*
G36*
X91767021Y43693360D02*
G01*
X92264763Y43487188D01*
X92276771Y43482214D01*
X92735534Y43175679D01*
X93125679Y42785534D01*
X93432214Y42326771D01*
X93432215Y42326769D01*
X93643360Y41817021D01*
X93751000Y41275876D01*
X93751000Y40724124D01*
X93643360Y40182979D01*
X93432215Y39673231D01*
X93432214Y39673229D01*
X93125679Y39214466D01*
X92735534Y38824321D01*
X92276771Y38517786D01*
X92276770Y38517785D01*
X92276769Y38517785D01*
X91767021Y38306640D01*
X91225876Y38199000D01*
X90674124Y38199000D01*
X90132979Y38306640D01*
X89623231Y38517785D01*
X89623230Y38517785D01*
X89623229Y38517786D01*
X89164466Y38824321D01*
X88774321Y39214466D01*
X88467786Y39673229D01*
X88467785Y39673231D01*
X88256640Y40182979D01*
X88149000Y40724124D01*
X88149000Y41275876D01*
X88256640Y41817021D01*
X88467785Y42326769D01*
X88467786Y42326771D01*
X88774321Y42785534D01*
X89164466Y43175679D01*
X89623229Y43482214D01*
X89635237Y43487188D01*
X90132979Y43693360D01*
X90674124Y43801000D01*
X91225876Y43801000D01*
X91767021Y43693360D01*
X91767021Y43693360D01*
G37*
G36*
X12767021Y43693360D02*
G01*
X13264763Y43487188D01*
X13276771Y43482214D01*
X13735534Y43175679D01*
X14125679Y42785534D01*
X14432214Y42326771D01*
X14432215Y42326769D01*
X14643360Y41817021D01*
X14751000Y41275876D01*
X14751000Y40724124D01*
X14643360Y40182979D01*
X14432215Y39673231D01*
X14432214Y39673229D01*
X14125679Y39214466D01*
X13735534Y38824321D01*
X13276771Y38517786D01*
X13276770Y38517785D01*
X13276769Y38517785D01*
X12767021Y38306640D01*
X12225876Y38199000D01*
X11674124Y38199000D01*
X11132979Y38306640D01*
X10623231Y38517785D01*
X10623230Y38517785D01*
X10623229Y38517786D01*
X10164466Y38824321D01*
X9774321Y39214466D01*
X9467786Y39673229D01*
X9467785Y39673231D01*
X9256640Y40182979D01*
X9149000Y40724124D01*
X9149000Y41275876D01*
X9256640Y41817021D01*
X9467785Y42326769D01*
X9467786Y42326771D01*
X9774321Y42785534D01*
X10164466Y43175679D01*
X10623229Y43482214D01*
X10635237Y43487188D01*
X11132979Y43693360D01*
X11674124Y43801000D01*
X12225876Y43801000D01*
X12767021Y43693360D01*
X12767021Y43693360D01*
G37*
G36*
X72806564Y42010611D02*
G01*
X72997833Y41931385D01*
X72997835Y41931384D01*
X73168990Y41817022D01*
X73169973Y41816365D01*
X73316365Y41669973D01*
X73431385Y41497833D01*
X73510611Y41306564D01*
X73551000Y41103516D01*
X73551000Y40896484D01*
X73510611Y40693436D01*
X73431385Y40502167D01*
X73431384Y40502165D01*
X73316365Y40330027D01*
X73169973Y40183635D01*
X72997835Y40068616D01*
X72997834Y40068615D01*
X72997833Y40068615D01*
X72806564Y39989389D01*
X72603516Y39949000D01*
X72396484Y39949000D01*
X72193436Y39989389D01*
X72002167Y40068615D01*
X72002166Y40068615D01*
X72002165Y40068616D01*
X71830027Y40183635D01*
X71683635Y40330027D01*
X71568616Y40502165D01*
X71568615Y40502167D01*
X71489389Y40693436D01*
X71449000Y40896484D01*
X71449000Y41103516D01*
X71489389Y41306564D01*
X71568615Y41497833D01*
X71683635Y41669973D01*
X71830027Y41816365D01*
X71831010Y41817022D01*
X72002165Y41931384D01*
X72002167Y41931385D01*
X72193436Y42010611D01*
X72396484Y42051000D01*
X72603516Y42051000D01*
X72806564Y42010611D01*
X72806564Y42010611D01*
G37*
G36*
X7901000Y40309000D02*
G01*
X6099000Y40309000D01*
X6099000Y42111000D01*
X7901000Y42111000D01*
X7901000Y40309000D01*
X7901000Y40309000D01*
G37*
G36*
X7113512Y44646073D02*
G01*
X7262812Y44616376D01*
X7426784Y44548456D01*
X7574354Y44449853D01*
X7699853Y44324354D01*
X7798456Y44176784D01*
X7866376Y44012812D01*
X7901000Y43838741D01*
X7901000Y43661259D01*
X7866376Y43487188D01*
X7798456Y43323216D01*
X7699853Y43175646D01*
X7574354Y43050147D01*
X7426784Y42951544D01*
X7262812Y42883624D01*
X7113512Y42853927D01*
X7088742Y42849000D01*
X6911258Y42849000D01*
X6886488Y42853927D01*
X6737188Y42883624D01*
X6573216Y42951544D01*
X6425646Y43050147D01*
X6300147Y43175646D01*
X6201544Y43323216D01*
X6133624Y43487188D01*
X6099000Y43661259D01*
X6099000Y43838741D01*
X6133624Y44012812D01*
X6201544Y44176784D01*
X6300147Y44324354D01*
X6425646Y44449853D01*
X6573216Y44548456D01*
X6737188Y44616376D01*
X6886488Y44646073D01*
X6911258Y44651000D01*
X7088742Y44651000D01*
X7113512Y44646073D01*
X7113512Y44646073D01*
G37*
G36*
X61301000Y44074000D02*
G01*
X60699000Y44074000D01*
X60699000Y45426000D01*
X61301000Y45426000D01*
X61301000Y44074000D01*
X61301000Y44074000D01*
G37*
G36*
X59551000Y44074000D02*
G01*
X58949000Y44074000D01*
X58949000Y45426000D01*
X59551000Y45426000D01*
X59551000Y44074000D01*
X59551000Y44074000D01*
G37*
G36*
X68051000Y44449000D02*
G01*
X65949000Y44449000D01*
X65949000Y45551000D01*
X68051000Y45551000D01*
X68051000Y44449000D01*
X68051000Y44449000D01*
G37*
G36*
X19701000Y44449000D02*
G01*
X18799000Y44449000D01*
X18799000Y45551000D01*
X19701000Y45551000D01*
X19701000Y44449000D01*
X19701000Y44449000D01*
G37*
G36*
X7901000Y45729000D02*
G01*
X6099000Y45729000D01*
X6099000Y47531000D01*
X7901000Y47531000D01*
X7901000Y45729000D01*
X7901000Y45729000D01*
G37*
G36*
X89067021Y52193360D02*
G01*
X89576769Y51982215D01*
X89576771Y51982214D01*
X90035534Y51675679D01*
X90425679Y51285534D01*
X90732214Y50826771D01*
X90732215Y50826769D01*
X90943360Y50317021D01*
X91051000Y49775876D01*
X91051000Y49224124D01*
X90943360Y48682979D01*
X90771884Y48269000D01*
X90732214Y48173229D01*
X90425679Y47714466D01*
X90035534Y47324321D01*
X89576771Y47017786D01*
X89576770Y47017785D01*
X89576769Y47017785D01*
X89067021Y46806640D01*
X88525876Y46699000D01*
X87974124Y46699000D01*
X87432979Y46806640D01*
X86923231Y47017785D01*
X86923230Y47017785D01*
X86923229Y47017786D01*
X86464466Y47324321D01*
X86074321Y47714466D01*
X85767786Y48173229D01*
X85728116Y48269000D01*
X85556640Y48682979D01*
X85449000Y49224124D01*
X85449000Y49775876D01*
X85556640Y50317021D01*
X85767785Y50826769D01*
X85767786Y50826771D01*
X86074321Y51285534D01*
X86464466Y51675679D01*
X86923229Y51982214D01*
X86923231Y51982215D01*
X87432979Y52193360D01*
X87974124Y52301000D01*
X88525876Y52301000D01*
X89067021Y52193360D01*
X89067021Y52193360D01*
G37*
G36*
X12567021Y52193360D02*
G01*
X13076769Y51982215D01*
X13076771Y51982214D01*
X13535534Y51675679D01*
X13925679Y51285534D01*
X14232214Y50826771D01*
X14232215Y50826769D01*
X14443360Y50317021D01*
X14551000Y49775876D01*
X14551000Y49224124D01*
X14443360Y48682979D01*
X14271884Y48269000D01*
X14232214Y48173229D01*
X13925679Y47714466D01*
X13535534Y47324321D01*
X13076771Y47017786D01*
X13076770Y47017785D01*
X13076769Y47017785D01*
X12567021Y46806640D01*
X12025876Y46699000D01*
X11474124Y46699000D01*
X10932979Y46806640D01*
X10423231Y47017785D01*
X10423230Y47017785D01*
X10423229Y47017786D01*
X9964466Y47324321D01*
X9574321Y47714466D01*
X9267786Y48173229D01*
X9228116Y48269000D01*
X9056640Y48682979D01*
X8949000Y49224124D01*
X8949000Y49775876D01*
X9056640Y50317021D01*
X9267785Y50826769D01*
X9267786Y50826771D01*
X9574321Y51285534D01*
X9964466Y51675679D01*
X10423229Y51982214D01*
X10423231Y51982215D01*
X10932979Y52193360D01*
X11474124Y52301000D01*
X12025876Y52301000D01*
X12567021Y52193360D01*
X12567021Y52193360D01*
G37*
G36*
X20701000Y46949000D02*
G01*
X19799000Y46949000D01*
X19799000Y48051000D01*
X20701000Y48051000D01*
X20701000Y46949000D01*
X20701000Y46949000D01*
G37*
G36*
X18701000Y46949000D02*
G01*
X17799000Y46949000D01*
X17799000Y48051000D01*
X18701000Y48051000D01*
X18701000Y46949000D01*
X18701000Y46949000D01*
G37*
G36*
X61451000Y47199000D02*
G01*
X60549000Y47199000D01*
X60549000Y48301000D01*
X61451000Y48301000D01*
X61451000Y47199000D01*
X61451000Y47199000D01*
G37*
G36*
X59451000Y47199000D02*
G01*
X58549000Y47199000D01*
X58549000Y48301000D01*
X59451000Y48301000D01*
X59451000Y47199000D01*
X59451000Y47199000D01*
G37*
G36*
X56676000Y47449000D02*
G01*
X55324000Y47449000D01*
X55324000Y48051000D01*
X56676000Y48051000D01*
X56676000Y47449000D01*
X56676000Y47449000D01*
G37*
G36*
X68051000Y47949000D02*
G01*
X65949000Y47949000D01*
X65949000Y49051000D01*
X68051000Y49051000D01*
X68051000Y47949000D01*
X68051000Y47949000D01*
G37*
G36*
X7901000Y48269000D02*
G01*
X6099000Y48269000D01*
X6099000Y50071000D01*
X7901000Y50071000D01*
X7901000Y48269000D01*
X7901000Y48269000D01*
G37*
G36*
X56676000Y49199000D02*
G01*
X55324000Y49199000D01*
X55324000Y49801000D01*
X56676000Y49801000D01*
X56676000Y49199000D01*
X56676000Y49199000D01*
G37*
G36*
X60451000Y49699000D02*
G01*
X59549000Y49699000D01*
X59549000Y50801000D01*
X60451000Y50801000D01*
X60451000Y49699000D01*
X60451000Y49699000D01*
G37*
G36*
X73551000Y50449000D02*
G01*
X71449000Y50449000D01*
X71449000Y53551000D01*
X73551000Y53551000D01*
X73551000Y50449000D01*
X73551000Y50449000D01*
G37*
G36*
X7901000Y50809000D02*
G01*
X6099000Y50809000D01*
X6099000Y52611000D01*
X7901000Y52611000D01*
X7901000Y50809000D01*
X7901000Y50809000D01*
G37*
G36*
X18551000Y52074000D02*
G01*
X17949000Y52074000D01*
X17949000Y53426000D01*
X18551000Y53426000D01*
X18551000Y52074000D01*
X18551000Y52074000D01*
G37*
G36*
X20301000Y52074000D02*
G01*
X19699000Y52074000D01*
X19699000Y53426000D01*
X20301000Y53426000D01*
X20301000Y52074000D01*
X20301000Y52074000D01*
G37*
G36*
X95151000Y52419000D02*
G01*
X92849000Y52419000D01*
X92849000Y54721000D01*
X95151000Y54721000D01*
X95151000Y52419000D01*
X95151000Y52419000D01*
G37*
G36*
X7113512Y55146073D02*
G01*
X7262812Y55116376D01*
X7426784Y55048456D01*
X7574354Y54949853D01*
X7699853Y54824354D01*
X7798456Y54676784D01*
X7866376Y54512812D01*
X7901000Y54338741D01*
X7901000Y54161259D01*
X7866376Y53987188D01*
X7798456Y53823216D01*
X7699853Y53675646D01*
X7574354Y53550147D01*
X7426784Y53451544D01*
X7262812Y53383624D01*
X7113512Y53353927D01*
X7088742Y53349000D01*
X6911258Y53349000D01*
X6886488Y53353927D01*
X6737188Y53383624D01*
X6573216Y53451544D01*
X6425646Y53550147D01*
X6300147Y53675646D01*
X6201544Y53823216D01*
X6133624Y53987188D01*
X6099000Y54161259D01*
X6099000Y54338741D01*
X6133624Y54512812D01*
X6201544Y54676784D01*
X6300147Y54824354D01*
X6425646Y54949853D01*
X6573216Y55048456D01*
X6737188Y55116376D01*
X6886488Y55146073D01*
X6911258Y55151000D01*
X7088742Y55151000D01*
X7113512Y55146073D01*
X7113512Y55146073D01*
G37*
G36*
X14301000Y54824000D02*
G01*
X13699000Y54824000D01*
X13699000Y56176000D01*
X14301000Y56176000D01*
X14301000Y54824000D01*
X14301000Y54824000D01*
G37*
G36*
X12051000Y54824000D02*
G01*
X11449000Y54824000D01*
X11449000Y56176000D01*
X12051000Y56176000D01*
X12051000Y54824000D01*
X12051000Y54824000D01*
G37*
G36*
X10301000Y54824000D02*
G01*
X9699000Y54824000D01*
X9699000Y56176000D01*
X10301000Y56176000D01*
X10301000Y54824000D01*
X10301000Y54824000D01*
G37*
G36*
X16051000Y54824000D02*
G01*
X15449000Y54824000D01*
X15449000Y56176000D01*
X16051000Y56176000D01*
X16051000Y54824000D01*
X16051000Y54824000D01*
G37*
G36*
X18551000Y54824000D02*
G01*
X17949000Y54824000D01*
X17949000Y56176000D01*
X18551000Y56176000D01*
X18551000Y54824000D01*
X18551000Y54824000D01*
G37*
G36*
X20301000Y54824000D02*
G01*
X19699000Y54824000D01*
X19699000Y56176000D01*
X20301000Y56176000D01*
X20301000Y54824000D01*
X20301000Y54824000D01*
G37*
G36*
X95151000Y56229000D02*
G01*
X92849000Y56229000D01*
X92849000Y58531000D01*
X95151000Y58531000D01*
X95151000Y56229000D01*
X95151000Y56229000D01*
G37*
G36*
X78951000Y58549000D02*
G01*
X76049000Y58549000D01*
X76049000Y61451000D01*
X78951000Y61451000D01*
X78951000Y58549000D01*
X78951000Y58549000D01*
G37*
G36*
X57451000Y58549000D02*
G01*
X54549000Y58549000D01*
X54549000Y61451000D01*
X57451000Y61451000D01*
X57451000Y58549000D01*
X57451000Y58549000D01*
G37*
G36*
X62651000Y58549000D02*
G01*
X59749000Y58549000D01*
X59749000Y61451000D01*
X62651000Y61451000D01*
X62651000Y58549000D01*
X62651000Y58549000D01*
G37*
G36*
X73751000Y58549000D02*
G01*
X70849000Y58549000D01*
X70849000Y61451000D01*
X73751000Y61451000D01*
X73751000Y58549000D01*
X73751000Y58549000D01*
G37*
G36*
X84801000Y59449000D02*
G01*
X83699000Y59449000D01*
X83699000Y62551000D01*
X84801000Y62551000D01*
X84801000Y59449000D01*
X84801000Y59449000D01*
G37*
G36*
X89801000Y59449000D02*
G01*
X88699000Y59449000D01*
X88699000Y62551000D01*
X89801000Y62551000D01*
X89801000Y59449000D01*
X89801000Y59449000D01*
G37*
G36*
X95151000Y60039000D02*
G01*
X92849000Y60039000D01*
X92849000Y62341000D01*
X95151000Y62341000D01*
X95151000Y60039000D01*
X95151000Y60039000D01*
G37*
G36*
X10348212Y63293751D02*
G01*
X10442651Y63265103D01*
X10529687Y63218582D01*
X10605975Y63155975D01*
X10668582Y63079687D01*
X10715103Y62992652D01*
X10743751Y62898213D01*
X10751000Y62824612D01*
X10751000Y61675388D01*
X10743751Y61601787D01*
X10715103Y61507348D01*
X10668582Y61420313D01*
X10605975Y61344025D01*
X10529687Y61281418D01*
X10442652Y61234897D01*
X10348213Y61206249D01*
X10250000Y61196576D01*
X10151788Y61206249D01*
X10057349Y61234897D01*
X9970314Y61281418D01*
X9894026Y61344025D01*
X9831419Y61420313D01*
X9784898Y61507348D01*
X9756250Y61601787D01*
X9749001Y61675388D01*
X9749000Y62824611D01*
X9756249Y62898212D01*
X9784897Y62992651D01*
X9831418Y63079687D01*
X9894025Y63155975D01*
X9970313Y63218582D01*
X10057348Y63265103D01*
X10151787Y63293751D01*
X10250000Y63303424D01*
X10348212Y63293751D01*
X10348212Y63293751D01*
G37*
G36*
X17101000Y61199000D02*
G01*
X16099000Y61199000D01*
X16099000Y63301000D01*
X17101000Y63301000D01*
X17101000Y61199000D01*
X17101000Y61199000D01*
G37*
G36*
X23451000Y61199000D02*
G01*
X22449000Y61199000D01*
X22449000Y63301000D01*
X23451000Y63301000D01*
X23451000Y61199000D01*
X23451000Y61199000D01*
G37*
G36*
X19641000Y61199000D02*
G01*
X18639000Y61199000D01*
X18639000Y63301000D01*
X19641000Y63301000D01*
X19641000Y61199000D01*
X19641000Y61199000D01*
G37*
G36*
X18371000Y61199000D02*
G01*
X17369000Y61199000D01*
X17369000Y63301000D01*
X18371000Y63301000D01*
X18371000Y61199000D01*
X18371000Y61199000D01*
G37*
G36*
X24721000Y61199000D02*
G01*
X23719000Y61199000D01*
X23719000Y63301000D01*
X24721000Y63301000D01*
X24721000Y61199000D01*
X24721000Y61199000D01*
G37*
G36*
X15831000Y61199000D02*
G01*
X14829000Y61199000D01*
X14829000Y63301000D01*
X15831000Y63301000D01*
X15831000Y61199000D01*
X15831000Y61199000D01*
G37*
G36*
X20911000Y61199000D02*
G01*
X19909000Y61199000D01*
X19909000Y63301000D01*
X20911000Y63301000D01*
X20911000Y61199000D01*
X20911000Y61199000D01*
G37*
G36*
X22181000Y61199000D02*
G01*
X21179000Y61199000D01*
X21179000Y63301000D01*
X22181000Y63301000D01*
X22181000Y61199000D01*
X22181000Y61199000D01*
G37*
G36*
X25991000Y61199000D02*
G01*
X24989000Y61199000D01*
X24989000Y63301000D01*
X25991000Y63301000D01*
X25991000Y61199000D01*
X25991000Y61199000D01*
G37*
G36*
X27261000Y61199000D02*
G01*
X26259000Y61199000D01*
X26259000Y63301000D01*
X27261000Y63301000D01*
X27261000Y61199000D01*
X27261000Y61199000D01*
G37*
G36*
X14561000Y61199000D02*
G01*
X13559000Y61199000D01*
X13559000Y63301000D01*
X14561000Y63301000D01*
X14561000Y61199000D01*
X14561000Y61199000D01*
G37*
G36*
X13291000Y61199000D02*
G01*
X12289000Y61199000D01*
X12289000Y63301000D01*
X13291000Y63301000D01*
X13291000Y61199000D01*
X13291000Y61199000D01*
G37*
G36*
X12021000Y61199000D02*
G01*
X11019000Y61199000D01*
X11019000Y63301000D01*
X12021000Y63301000D01*
X12021000Y61199000D01*
X12021000Y61199000D01*
G37*
G36*
X28531000Y61199000D02*
G01*
X27529000Y61199000D01*
X27529000Y63301000D01*
X28531000Y63301000D01*
X28531000Y61199000D01*
X28531000Y61199000D01*
G37*
G36*
X29801000Y61199000D02*
G01*
X28799000Y61199000D01*
X28799000Y63301000D01*
X29801000Y63301000D01*
X29801000Y61199000D01*
X29801000Y61199000D01*
G37*
G36*
X33611000Y61199000D02*
G01*
X32609000Y61199000D01*
X32609000Y63301000D01*
X33611000Y63301000D01*
X33611000Y61199000D01*
X33611000Y61199000D01*
G37*
G36*
X31071000Y61199000D02*
G01*
X30069000Y61199000D01*
X30069000Y63301000D01*
X31071000Y63301000D01*
X31071000Y61199000D01*
X31071000Y61199000D01*
G37*
G36*
X32341000Y61199000D02*
G01*
X31339000Y61199000D01*
X31339000Y63301000D01*
X32341000Y63301000D01*
X32341000Y61199000D01*
X32341000Y61199000D01*
G37*
G36*
X94224549Y66128884D02*
G01*
X94335734Y66106768D01*
X94545203Y66020003D01*
X94733720Y65894040D01*
X94894040Y65733720D01*
X95020003Y65545203D01*
X95106768Y65335734D01*
X95151000Y65113364D01*
X95151000Y64886636D01*
X95106768Y64664266D01*
X95020003Y64454797D01*
X94894040Y64266280D01*
X94733720Y64105960D01*
X94545203Y63979997D01*
X94335734Y63893232D01*
X94224549Y63871116D01*
X94113365Y63849000D01*
X93886635Y63849000D01*
X93775451Y63871116D01*
X93664266Y63893232D01*
X93454797Y63979997D01*
X93266280Y64105960D01*
X93105960Y64266280D01*
X92979997Y64454797D01*
X92893232Y64664266D01*
X92849000Y64886636D01*
X92849000Y65113364D01*
X92893232Y65335734D01*
X92979997Y65545203D01*
X93105960Y65733720D01*
X93266280Y65894040D01*
X93454797Y66020003D01*
X93664266Y66106768D01*
X93775451Y66128884D01*
X93886635Y66151000D01*
X94113365Y66151000D01*
X94224549Y66128884D01*
X94224549Y66128884D01*
G37*
G36*
X28801000Y64499000D02*
G01*
X26699000Y64499000D01*
X26699000Y65501000D01*
X28801000Y65501000D01*
X28801000Y64499000D01*
X28801000Y64499000D01*
G37*
G36*
X76926000Y64949000D02*
G01*
X75574000Y64949000D01*
X75574000Y65551000D01*
X76926000Y65551000D01*
X76926000Y64949000D01*
X76926000Y64949000D01*
G37*
G36*
X71051000Y65074000D02*
G01*
X70449000Y65074000D01*
X70449000Y66426000D01*
X71051000Y66426000D01*
X71051000Y65074000D01*
X71051000Y65074000D01*
G37*
G36*
X79801000Y65074000D02*
G01*
X79199000Y65074000D01*
X79199000Y66426000D01*
X79801000Y66426000D01*
X79801000Y65074000D01*
X79801000Y65074000D01*
G37*
G36*
X72801000Y65074000D02*
G01*
X72199000Y65074000D01*
X72199000Y66426000D01*
X72801000Y66426000D01*
X72801000Y65074000D01*
X72801000Y65074000D01*
G37*
G36*
X81551000Y65074000D02*
G01*
X80949000Y65074000D01*
X80949000Y66426000D01*
X81551000Y66426000D01*
X81551000Y65074000D01*
X81551000Y65074000D01*
G37*
G36*
X68176000Y65449000D02*
G01*
X66824000Y65449000D01*
X66824000Y66051000D01*
X68176000Y66051000D01*
X68176000Y65449000D01*
X68176000Y65449000D01*
G37*
G36*
X28801000Y65769000D02*
G01*
X26699000Y65769000D01*
X26699000Y66771000D01*
X28801000Y66771000D01*
X28801000Y65769000D01*
X28801000Y65769000D01*
G37*
G36*
X76926000Y66699000D02*
G01*
X75574000Y66699000D01*
X75574000Y67301000D01*
X76926000Y67301000D01*
X76926000Y66699000D01*
X76926000Y66699000D01*
G37*
G36*
X28801000Y67039000D02*
G01*
X26699000Y67039000D01*
X26699000Y68041000D01*
X28801000Y68041000D01*
X28801000Y67039000D01*
X28801000Y67039000D01*
G37*
G36*
X68176000Y67199000D02*
G01*
X66824000Y67199000D01*
X66824000Y67801000D01*
X68176000Y67801000D01*
X68176000Y67199000D01*
X68176000Y67199000D01*
G37*
G36*
X18476000Y67274000D02*
G01*
X17024000Y67274000D01*
X17024000Y68726000D01*
X18476000Y68726000D01*
X18476000Y67274000D01*
X18476000Y67274000D01*
G37*
G36*
X16726000Y67274000D02*
G01*
X15274000Y67274000D01*
X15274000Y68726000D01*
X16726000Y68726000D01*
X16726000Y67274000D01*
X16726000Y67274000D01*
G37*
G36*
X20226000Y67274000D02*
G01*
X18774000Y67274000D01*
X18774000Y68726000D01*
X20226000Y68726000D01*
X20226000Y67274000D01*
X20226000Y67274000D01*
G37*
G36*
X81701000Y68199000D02*
G01*
X80799000Y68199000D01*
X80799000Y69301000D01*
X81701000Y69301000D01*
X81701000Y68199000D01*
X81701000Y68199000D01*
G37*
G36*
X79701000Y68199000D02*
G01*
X78799000Y68199000D01*
X78799000Y69301000D01*
X79701000Y69301000D01*
X79701000Y68199000D01*
X79701000Y68199000D01*
G37*
G36*
X72951000Y68199000D02*
G01*
X72049000Y68199000D01*
X72049000Y69301000D01*
X72951000Y69301000D01*
X72951000Y68199000D01*
X72951000Y68199000D01*
G37*
G36*
X70951000Y68199000D02*
G01*
X70049000Y68199000D01*
X70049000Y69301000D01*
X70951000Y69301000D01*
X70951000Y68199000D01*
X70951000Y68199000D01*
G37*
G36*
X28801000Y68309000D02*
G01*
X26699000Y68309000D01*
X26699000Y69311000D01*
X28801000Y69311000D01*
X28801000Y68309000D01*
X28801000Y68309000D01*
G37*
G36*
X20226000Y69024000D02*
G01*
X18774000Y69024000D01*
X18774000Y70476000D01*
X20226000Y70476000D01*
X20226000Y69024000D01*
X20226000Y69024000D01*
G37*
G36*
X16726000Y69024000D02*
G01*
X15274000Y69024000D01*
X15274000Y70476000D01*
X16726000Y70476000D01*
X16726000Y69024000D01*
X16726000Y69024000D01*
G37*
G36*
X18476000Y69024000D02*
G01*
X17024000Y69024000D01*
X17024000Y70476000D01*
X18476000Y70476000D01*
X18476000Y69024000D01*
X18476000Y69024000D01*
G37*
G36*
X76926000Y69199000D02*
G01*
X75574000Y69199000D01*
X75574000Y69801000D01*
X76926000Y69801000D01*
X76926000Y69199000D01*
X76926000Y69199000D01*
G37*
G36*
X96401000Y69349000D02*
G01*
X94599000Y69349000D01*
X94599000Y71151000D01*
X96401000Y71151000D01*
X96401000Y69349000D01*
X96401000Y69349000D01*
G37*
G36*
X93901000Y69349000D02*
G01*
X92099000Y69349000D01*
X92099000Y71151000D01*
X93901000Y71151000D01*
X93901000Y69349000D01*
X93901000Y69349000D01*
G37*
G36*
X91401000Y69349000D02*
G01*
X89599000Y69349000D01*
X89599000Y71151000D01*
X91401000Y71151000D01*
X91401000Y69349000D01*
X91401000Y69349000D01*
G37*
G36*
X28801000Y69579000D02*
G01*
X26699000Y69579000D01*
X26699000Y70581000D01*
X28801000Y70581000D01*
X28801000Y69579000D01*
X28801000Y69579000D01*
G37*
G36*
X80701000Y70699000D02*
G01*
X79799000Y70699000D01*
X79799000Y71801000D01*
X80701000Y71801000D01*
X80701000Y70699000D01*
X80701000Y70699000D01*
G37*
G36*
X71951000Y70699000D02*
G01*
X71049000Y70699000D01*
X71049000Y71801000D01*
X71951000Y71801000D01*
X71951000Y70699000D01*
X71951000Y70699000D01*
G37*
G36*
X16726000Y70774000D02*
G01*
X15274000Y70774000D01*
X15274000Y72226000D01*
X16726000Y72226000D01*
X16726000Y70774000D01*
X16726000Y70774000D01*
G37*
G36*
X20226000Y70774000D02*
G01*
X18774000Y70774000D01*
X18774000Y72226000D01*
X20226000Y72226000D01*
X20226000Y70774000D01*
X20226000Y70774000D01*
G37*
G36*
X18476000Y70774000D02*
G01*
X17024000Y70774000D01*
X17024000Y72226000D01*
X18476000Y72226000D01*
X18476000Y70774000D01*
X18476000Y70774000D01*
G37*
G36*
X28801000Y70849000D02*
G01*
X26699000Y70849000D01*
X26699000Y71851000D01*
X28801000Y71851000D01*
X28801000Y70849000D01*
X28801000Y70849000D01*
G37*
G36*
X61051000Y70899000D02*
G01*
X58349000Y70899000D01*
X58349000Y72101000D01*
X61051000Y72101000D01*
X61051000Y70899000D01*
X61051000Y70899000D01*
G37*
G36*
X76926000Y70949000D02*
G01*
X75574000Y70949000D01*
X75574000Y71551000D01*
X76926000Y71551000D01*
X76926000Y70949000D01*
X76926000Y70949000D01*
G37*
G36*
X66926000Y71449000D02*
G01*
X65574000Y71449000D01*
X65574000Y72051000D01*
X66926000Y72051000D01*
X66926000Y71449000D01*
X66926000Y71449000D01*
G37*
G36*
X64426000Y71449000D02*
G01*
X63074000Y71449000D01*
X63074000Y72051000D01*
X64426000Y72051000D01*
X64426000Y71449000D01*
X64426000Y71449000D01*
G37*
G36*
X55926000Y71449000D02*
G01*
X54574000Y71449000D01*
X54574000Y72051000D01*
X55926000Y72051000D01*
X55926000Y71449000D01*
X55926000Y71449000D01*
G37*
G36*
X69426000Y71449000D02*
G01*
X68074000Y71449000D01*
X68074000Y72051000D01*
X69426000Y72051000D01*
X69426000Y71449000D01*
X69426000Y71449000D01*
G37*
G36*
X28801000Y72119000D02*
G01*
X26699000Y72119000D01*
X26699000Y73121000D01*
X28801000Y73121000D01*
X28801000Y72119000D01*
X28801000Y72119000D01*
G37*
G36*
X69426000Y73199000D02*
G01*
X68074000Y73199000D01*
X68074000Y73801000D01*
X69426000Y73801000D01*
X69426000Y73199000D01*
X69426000Y73199000D01*
G37*
G36*
X64426000Y73199000D02*
G01*
X63074000Y73199000D01*
X63074000Y73801000D01*
X64426000Y73801000D01*
X64426000Y73199000D01*
X64426000Y73199000D01*
G37*
G36*
X66926000Y73199000D02*
G01*
X65574000Y73199000D01*
X65574000Y73801000D01*
X66926000Y73801000D01*
X66926000Y73199000D01*
X66926000Y73199000D01*
G37*
G36*
X55926000Y73199000D02*
G01*
X54574000Y73199000D01*
X54574000Y73801000D01*
X55926000Y73801000D01*
X55926000Y73199000D01*
X55926000Y73199000D01*
G37*
G36*
X28801000Y73389000D02*
G01*
X26699000Y73389000D01*
X26699000Y74391000D01*
X28801000Y74391000D01*
X28801000Y73389000D01*
X28801000Y73389000D01*
G37*
G36*
X61051000Y73499000D02*
G01*
X60249000Y73499000D01*
X60249000Y74701000D01*
X61051000Y74701000D01*
X61051000Y73499000D01*
X61051000Y73499000D01*
G37*
G36*
X59151000Y73499000D02*
G01*
X58349000Y73499000D01*
X58349000Y74701000D01*
X59151000Y74701000D01*
X59151000Y73499000D01*
X59151000Y73499000D01*
G37*
G36*
X28801000Y74659000D02*
G01*
X26699000Y74659000D01*
X26699000Y75661000D01*
X28801000Y75661000D01*
X28801000Y74659000D01*
X28801000Y74659000D01*
G37*
G36*
X28801000Y75929000D02*
G01*
X26699000Y75929000D01*
X26699000Y76931000D01*
X28801000Y76931000D01*
X28801000Y75929000D01*
X28801000Y75929000D01*
G37*
G36*
X48676000Y76699000D02*
G01*
X47324000Y76699000D01*
X47324000Y77301000D01*
X48676000Y77301000D01*
X48676000Y76699000D01*
X48676000Y76699000D01*
G37*
G36*
X90613512Y78646073D02*
G01*
X90762812Y78616376D01*
X90926784Y78548456D01*
X91074354Y78449853D01*
X91199853Y78324354D01*
X91298456Y78176784D01*
X91366376Y78012812D01*
X91401000Y77838741D01*
X91401000Y77661259D01*
X91366376Y77487188D01*
X91298456Y77323216D01*
X91199853Y77175646D01*
X91074354Y77050147D01*
X90926784Y76951544D01*
X90762812Y76883624D01*
X90613512Y76853927D01*
X90588742Y76849000D01*
X90411258Y76849000D01*
X90386488Y76853927D01*
X90237188Y76883624D01*
X90073216Y76951544D01*
X89925646Y77050147D01*
X89800147Y77175646D01*
X89701544Y77323216D01*
X89633624Y77487188D01*
X89599000Y77661259D01*
X89599000Y77838741D01*
X89633624Y78012812D01*
X89701544Y78176784D01*
X89800147Y78324354D01*
X89925646Y78449853D01*
X90073216Y78548456D01*
X90237188Y78616376D01*
X90386488Y78646073D01*
X90411258Y78651000D01*
X90588742Y78651000D01*
X90613512Y78646073D01*
X90613512Y78646073D01*
G37*
G36*
X93901000Y76849000D02*
G01*
X92099000Y76849000D01*
X92099000Y78651000D01*
X93901000Y78651000D01*
X93901000Y76849000D01*
X93901000Y76849000D01*
G37*
G36*
X96401000Y76849000D02*
G01*
X94599000Y76849000D01*
X94599000Y78651000D01*
X96401000Y78651000D01*
X96401000Y76849000D01*
X96401000Y76849000D01*
G37*
G36*
X65051000Y77199000D02*
G01*
X63449000Y77199000D01*
X63449000Y80801000D01*
X65051000Y80801000D01*
X65051000Y77199000D01*
X65051000Y77199000D01*
G37*
G36*
X72301000Y77199000D02*
G01*
X70699000Y77199000D01*
X70699000Y80801000D01*
X72301000Y80801000D01*
X72301000Y77199000D01*
X72301000Y77199000D01*
G37*
G36*
X85301000Y77699000D02*
G01*
X83199000Y77699000D01*
X83199000Y80301000D01*
X85301000Y80301000D01*
X85301000Y77699000D01*
X85301000Y77699000D01*
G37*
G36*
X80051000Y77699000D02*
G01*
X77949000Y77699000D01*
X77949000Y80301000D01*
X80051000Y80301000D01*
X80051000Y77699000D01*
X80051000Y77699000D01*
G37*
G36*
X24721000Y78199000D02*
G01*
X23719000Y78199000D01*
X23719000Y80301000D01*
X24721000Y80301000D01*
X24721000Y78199000D01*
X24721000Y78199000D01*
G37*
G36*
X33611000Y78199000D02*
G01*
X32609000Y78199000D01*
X32609000Y80301000D01*
X33611000Y80301000D01*
X33611000Y78199000D01*
X33611000Y78199000D01*
G37*
G36*
X22181000Y78199000D02*
G01*
X21179000Y78199000D01*
X21179000Y80301000D01*
X22181000Y80301000D01*
X22181000Y78199000D01*
X22181000Y78199000D01*
G37*
G36*
X23451000Y78199000D02*
G01*
X22449000Y78199000D01*
X22449000Y80301000D01*
X23451000Y80301000D01*
X23451000Y78199000D01*
X23451000Y78199000D01*
G37*
G36*
X20911000Y78199000D02*
G01*
X19909000Y78199000D01*
X19909000Y80301000D01*
X20911000Y80301000D01*
X20911000Y78199000D01*
X20911000Y78199000D01*
G37*
G36*
X25991000Y78199000D02*
G01*
X24989000Y78199000D01*
X24989000Y80301000D01*
X25991000Y80301000D01*
X25991000Y78199000D01*
X25991000Y78199000D01*
G37*
G36*
X19641000Y78199000D02*
G01*
X18639000Y78199000D01*
X18639000Y80301000D01*
X19641000Y80301000D01*
X19641000Y78199000D01*
X19641000Y78199000D01*
G37*
G36*
X18371000Y78199000D02*
G01*
X17369000Y78199000D01*
X17369000Y80301000D01*
X18371000Y80301000D01*
X18371000Y78199000D01*
X18371000Y78199000D01*
G37*
G36*
X17101000Y78199000D02*
G01*
X16099000Y78199000D01*
X16099000Y80301000D01*
X17101000Y80301000D01*
X17101000Y78199000D01*
X17101000Y78199000D01*
G37*
G36*
X15831000Y78199000D02*
G01*
X14829000Y78199000D01*
X14829000Y80301000D01*
X15831000Y80301000D01*
X15831000Y78199000D01*
X15831000Y78199000D01*
G37*
G36*
X14561000Y78199000D02*
G01*
X13559000Y78199000D01*
X13559000Y80301000D01*
X14561000Y80301000D01*
X14561000Y78199000D01*
X14561000Y78199000D01*
G37*
G36*
X13291000Y78199000D02*
G01*
X12289000Y78199000D01*
X12289000Y80301000D01*
X13291000Y80301000D01*
X13291000Y78199000D01*
X13291000Y78199000D01*
G37*
G36*
X12021000Y78199000D02*
G01*
X11019000Y78199000D01*
X11019000Y80301000D01*
X12021000Y80301000D01*
X12021000Y78199000D01*
X12021000Y78199000D01*
G37*
G36*
X27261000Y78199000D02*
G01*
X26259000Y78199000D01*
X26259000Y80301000D01*
X27261000Y80301000D01*
X27261000Y78199000D01*
X27261000Y78199000D01*
G37*
G36*
X10751000Y78199000D02*
G01*
X9749000Y78199000D01*
X9749000Y80301000D01*
X10751000Y80301000D01*
X10751000Y78199000D01*
X10751000Y78199000D01*
G37*
G36*
X28531000Y78199000D02*
G01*
X27529000Y78199000D01*
X27529000Y80301000D01*
X28531000Y80301000D01*
X28531000Y78199000D01*
X28531000Y78199000D01*
G37*
G36*
X29801000Y78199000D02*
G01*
X28799000Y78199000D01*
X28799000Y80301000D01*
X29801000Y80301000D01*
X29801000Y78199000D01*
X29801000Y78199000D01*
G37*
G36*
X31071000Y78199000D02*
G01*
X30069000Y78199000D01*
X30069000Y80301000D01*
X31071000Y80301000D01*
X31071000Y78199000D01*
X31071000Y78199000D01*
G37*
G36*
X32341000Y78199000D02*
G01*
X31339000Y78199000D01*
X31339000Y80301000D01*
X32341000Y80301000D01*
X32341000Y78199000D01*
X32341000Y78199000D01*
G37*
G36*
X48676000Y78449000D02*
G01*
X47324000Y78449000D01*
X47324000Y79051000D01*
X48676000Y79051000D01*
X48676000Y78449000D01*
X48676000Y78449000D01*
G37*
G36*
X57176000Y78699000D02*
G01*
X55824000Y78699000D01*
X55824000Y79301000D01*
X57176000Y79301000D01*
X57176000Y78699000D01*
X57176000Y78699000D01*
G37*
G36*
X54676000Y78699000D02*
G01*
X53324000Y78699000D01*
X53324000Y79301000D01*
X54676000Y79301000D01*
X54676000Y78699000D01*
X54676000Y78699000D01*
G37*
G36*
X52176000Y78699000D02*
G01*
X50824000Y78699000D01*
X50824000Y79301000D01*
X52176000Y79301000D01*
X52176000Y78699000D01*
X52176000Y78699000D01*
G37*
G36*
X57176000Y80449000D02*
G01*
X55824000Y80449000D01*
X55824000Y81051000D01*
X57176000Y81051000D01*
X57176000Y80449000D01*
X57176000Y80449000D01*
G37*
G36*
X54676000Y80449000D02*
G01*
X53324000Y80449000D01*
X53324000Y81051000D01*
X54676000Y81051000D01*
X54676000Y80449000D01*
X54676000Y80449000D01*
G37*
G36*
X52176000Y80449000D02*
G01*
X50824000Y80449000D01*
X50824000Y81051000D01*
X52176000Y81051000D01*
X52176000Y80449000D01*
X52176000Y80449000D01*
G37*
G36*
X96035787Y88414538D02*
G01*
X96035790Y88414537D01*
X96035789Y88414537D01*
X96682029Y88146856D01*
X97263631Y87758242D01*
X97758242Y87263631D01*
X98146856Y86682029D01*
X98146856Y86682028D01*
X98414538Y86035787D01*
X98551000Y85349744D01*
X98551000Y84650256D01*
X98414538Y83964213D01*
X98382404Y83886635D01*
X98146856Y83317971D01*
X97758242Y82736369D01*
X97263631Y82241758D01*
X96682029Y81853144D01*
X96225068Y81663865D01*
X96035787Y81585462D01*
X95349744Y81449000D01*
X94650256Y81449000D01*
X93964213Y81585462D01*
X93774932Y81663865D01*
X93317971Y81853144D01*
X92736369Y82241758D01*
X92241758Y82736369D01*
X91853144Y83317971D01*
X91617596Y83886635D01*
X91585462Y83964213D01*
X91449000Y84650256D01*
X91449000Y85349744D01*
X91585462Y86035787D01*
X91853144Y86682028D01*
X91853144Y86682029D01*
X92241758Y87263631D01*
X92736369Y87758242D01*
X93317971Y88146856D01*
X93964211Y88414537D01*
X93964210Y88414537D01*
X93964213Y88414538D01*
X94650256Y88551000D01*
X95349744Y88551000D01*
X96035787Y88414538D01*
X96035787Y88414538D01*
G37*
G36*
X6035787Y88414538D02*
G01*
X6035790Y88414537D01*
X6035789Y88414537D01*
X6682029Y88146856D01*
X7263631Y87758242D01*
X7758242Y87263631D01*
X8146856Y86682029D01*
X8146856Y86682028D01*
X8414538Y86035787D01*
X8551000Y85349744D01*
X8551000Y84650256D01*
X8414538Y83964213D01*
X8382404Y83886635D01*
X8146856Y83317971D01*
X7758242Y82736369D01*
X7263631Y82241758D01*
X6682029Y81853144D01*
X6225068Y81663865D01*
X6035787Y81585462D01*
X5349744Y81449000D01*
X4650256Y81449000D01*
X3964213Y81585462D01*
X3774932Y81663865D01*
X3317971Y81853144D01*
X2736369Y82241758D01*
X2241758Y82736369D01*
X1853144Y83317971D01*
X1617596Y83886635D01*
X1585462Y83964213D01*
X1449000Y84650256D01*
X1449000Y85349744D01*
X1585462Y86035787D01*
X1853144Y86682028D01*
X1853144Y86682029D01*
X2241758Y87263631D01*
X2736369Y87758242D01*
X3317971Y88146856D01*
X3964211Y88414537D01*
X3964210Y88414537D01*
X3964213Y88414538D01*
X4650256Y88551000D01*
X5349744Y88551000D01*
X6035787Y88414538D01*
X6035787Y88414538D01*
G37*
G36*
X24051000Y82824000D02*
G01*
X23449000Y82824000D01*
X23449000Y84176000D01*
X24051000Y84176000D01*
X24051000Y82824000D01*
X24051000Y82824000D01*
G37*
G36*
X25801000Y82824000D02*
G01*
X25199000Y82824000D01*
X25199000Y84176000D01*
X25801000Y84176000D01*
X25801000Y82824000D01*
X25801000Y82824000D01*
G37*
G36*
X61021000Y82849000D02*
G01*
X58719000Y82849000D01*
X58719000Y85151000D01*
X61021000Y85151000D01*
X61021000Y82849000D01*
X61021000Y82849000D01*
G37*
G36*
X64831000Y82849000D02*
G01*
X62529000Y82849000D01*
X62529000Y85151000D01*
X64831000Y85151000D01*
X64831000Y82849000D01*
X64831000Y82849000D01*
G37*
G36*
X68641000Y82849000D02*
G01*
X66339000Y82849000D01*
X66339000Y85151000D01*
X68641000Y85151000D01*
X68641000Y82849000D01*
X68641000Y82849000D01*
G37*
G36*
X52474549Y85128884D02*
G01*
X52585734Y85106768D01*
X52795203Y85020003D01*
X52983720Y84894040D01*
X53144040Y84733720D01*
X53270003Y84545203D01*
X53356768Y84335734D01*
X53401000Y84113364D01*
X53401000Y83886636D01*
X53356768Y83664266D01*
X53270003Y83454797D01*
X53144040Y83266280D01*
X52983720Y83105960D01*
X52795203Y82979997D01*
X52585734Y82893232D01*
X52474549Y82871116D01*
X52363365Y82849000D01*
X52136635Y82849000D01*
X52025451Y82871116D01*
X51914266Y82893232D01*
X51704797Y82979997D01*
X51516280Y83105960D01*
X51355960Y83266280D01*
X51229997Y83454797D01*
X51143232Y83664266D01*
X51099000Y83886636D01*
X51099000Y84113364D01*
X51143232Y84335734D01*
X51229997Y84545203D01*
X51355960Y84733720D01*
X51516280Y84894040D01*
X51704797Y85020003D01*
X51914266Y85106768D01*
X52025451Y85128884D01*
X52136635Y85151000D01*
X52363365Y85151000D01*
X52474549Y85128884D01*
X52474549Y85128884D01*
G37*
G36*
X57211000Y82849000D02*
G01*
X54909000Y82849000D01*
X54909000Y85151000D01*
X57211000Y85151000D01*
X57211000Y82849000D01*
X57211000Y82849000D01*
G37*
G36*
X72451000Y82849000D02*
G01*
X70149000Y82849000D01*
X70149000Y85151000D01*
X72451000Y85151000D01*
X72451000Y82849000D01*
X72451000Y82849000D01*
G37*
G36*
X76261000Y82849000D02*
G01*
X73959000Y82849000D01*
X73959000Y85151000D01*
X76261000Y85151000D01*
X76261000Y82849000D01*
X76261000Y82849000D01*
G37*
G36*
X80071000Y82849000D02*
G01*
X77769000Y82849000D01*
X77769000Y85151000D01*
X80071000Y85151000D01*
X80071000Y82849000D01*
X80071000Y82849000D01*
G37*
G36*
X83881000Y82849000D02*
G01*
X81579000Y82849000D01*
X81579000Y85151000D01*
X83881000Y85151000D01*
X83881000Y82849000D01*
X83881000Y82849000D01*
G37*
G36*
X87691000Y82849000D02*
G01*
X85389000Y82849000D01*
X85389000Y85151000D01*
X87691000Y85151000D01*
X87691000Y82849000D01*
X87691000Y82849000D01*
G37*
G36*
X25801000Y85824000D02*
G01*
X25199000Y85824000D01*
X25199000Y87176000D01*
X25801000Y87176000D01*
X25801000Y85824000D01*
X25801000Y85824000D01*
G37*
G36*
X24051000Y85824000D02*
G01*
X23449000Y85824000D01*
X23449000Y87176000D01*
X24051000Y87176000D01*
X24051000Y85824000D01*
X24051000Y85824000D01*
G37*
G36*
X29801000Y85824000D02*
G01*
X29199000Y85824000D01*
X29199000Y87176000D01*
X29801000Y87176000D01*
X29801000Y85824000D01*
X29801000Y85824000D01*
G37*
G36*
X28051000Y85824000D02*
G01*
X27449000Y85824000D01*
X27449000Y87176000D01*
X28051000Y87176000D01*
X28051000Y85824000D01*
X28051000Y85824000D01*
G37*
M02*
