G04 #@! TF.GenerationSoftware,KiCad,Pcbnew,(5.1.2-1)-1*
G04 #@! TF.CreationDate,2021-05-08T22:39:51+03:00*
G04 #@! TF.ProjectId,UAK_3,55414b5f-332e-46b6-9963-61645f706362,rev?*
G04 #@! TF.SameCoordinates,Original*
G04 #@! TF.FileFunction,Legend,Bot*
G04 #@! TF.FilePolarity,Positive*
%FSLAX46Y46*%
G04 Gerber Fmt 4.6, Leading zero omitted, Abs format (unit mm)*
G04 Created by KiCad (PCBNEW (5.1.2-1)-1) date 2021-05-08 22:39:51*
%MOMM*%
%LPD*%
G04 APERTURE LIST*
%ADD10C,0.120000*%
%ADD11C,0.150000*%
%ADD12C,0.200000*%
%ADD13C,0.010000*%
%ADD14C,0.300000*%
G04 APERTURE END LIST*
D10*
X80500000Y74500000D02*
X80500000Y73500000D01*
X81250000Y74500000D02*
X81250000Y73500000D01*
X81250000Y74000000D02*
X80500000Y74500000D01*
X86500000Y74000000D02*
X86500000Y75000000D01*
X81250000Y75000000D02*
X81250000Y74750000D01*
X80750000Y75000000D02*
X80750000Y74750000D01*
X80750000Y75000000D02*
X80500000Y75000000D01*
X80500000Y74750000D02*
X80750000Y75000000D01*
X81250000Y75000000D02*
X81000000Y75000000D01*
X81000000Y74750000D02*
X81250000Y75000000D01*
X79000000Y74000000D02*
X86500000Y74000000D01*
X80500000Y73500000D02*
X81250000Y74000000D01*
X79000000Y74000000D02*
X79000000Y77000000D01*
X82750000Y75500000D02*
X82750000Y77000000D01*
X86500000Y75000000D02*
X86500000Y76000000D01*
X84500000Y76500000D02*
X84500000Y76250000D01*
X84500000Y76500000D02*
X84250000Y76500000D01*
X84250000Y76250000D02*
X84500000Y76500000D01*
X85000000Y76500000D02*
X85000000Y76250000D01*
X85000000Y76500000D02*
X84750000Y76500000D01*
X84750000Y76250000D02*
X85000000Y76500000D01*
X82750000Y75500000D02*
X86500000Y75500000D01*
X85000000Y76000000D02*
X85000000Y75000000D01*
X85000000Y75500000D02*
X84250000Y76000000D01*
X84250000Y75000000D02*
X85000000Y75500000D01*
X84250000Y76000000D02*
X84250000Y75000000D01*
D11*
X75000000Y74000000D02*
X74000000Y74000000D01*
X74000000Y74000000D02*
X72500000Y73500000D01*
X75000000Y79250000D02*
X75000000Y74000000D01*
X71250000Y74500000D02*
X71250000Y74000000D01*
X71250000Y74000000D02*
X72500000Y74000000D01*
X55000000Y77250000D02*
X53500000Y76750000D01*
X56000000Y77250000D02*
X55000000Y77250000D01*
X56000000Y79250000D02*
X56000000Y77250000D01*
X52250000Y77250000D02*
X53500000Y77250000D01*
X52250000Y77750000D02*
X52250000Y77250000D01*
X16011785Y48888095D02*
X16278452Y49269047D01*
X16468928Y48888095D02*
X16468928Y49688095D01*
X16164166Y49688095D01*
X16087976Y49650000D01*
X16049880Y49611904D01*
X16011785Y49535714D01*
X16011785Y49421428D01*
X16049880Y49345238D01*
X16087976Y49307142D01*
X16164166Y49269047D01*
X16468928Y49269047D01*
X15745119Y49688095D02*
X15211785Y48888095D01*
X15211785Y49688095D02*
X15745119Y48888095D01*
X16642738Y52188095D02*
X16185595Y52188095D01*
X16414166Y51388095D02*
X16414166Y52188095D01*
X15995119Y52188095D02*
X15461785Y51388095D01*
X15461785Y52188095D02*
X15995119Y51388095D01*
X16771309Y54688095D02*
X16276071Y54688095D01*
X16542738Y54383333D01*
X16428452Y54383333D01*
X16352261Y54345238D01*
X16314166Y54307142D01*
X16276071Y54230952D01*
X16276071Y54040476D01*
X16314166Y53964285D01*
X16352261Y53926190D01*
X16428452Y53888095D01*
X16657023Y53888095D01*
X16733214Y53926190D01*
X16771309Y53964285D01*
X16047500Y54688095D02*
X15780833Y53888095D01*
X15514166Y54688095D01*
X15323690Y54688095D02*
X14828452Y54688095D01*
X15095119Y54383333D01*
X14980833Y54383333D01*
X14904642Y54345238D01*
X14866547Y54307142D01*
X14828452Y54230952D01*
X14828452Y54040476D01*
X14866547Y53964285D01*
X14904642Y53926190D01*
X14980833Y53888095D01*
X15209404Y53888095D01*
X15285595Y53926190D01*
X15323690Y53964285D01*
X13876071Y53888095D02*
X13876071Y54688095D01*
X13495119Y53888095D02*
X13495119Y54688095D01*
X13037976Y53888095D01*
X13037976Y54688095D01*
X16176071Y47150000D02*
X16252261Y47188095D01*
X16366547Y47188095D01*
X16480833Y47150000D01*
X16557023Y47073809D01*
X16595119Y46997619D01*
X16633214Y46845238D01*
X16633214Y46730952D01*
X16595119Y46578571D01*
X16557023Y46502380D01*
X16480833Y46426190D01*
X16366547Y46388095D01*
X16290357Y46388095D01*
X16176071Y46426190D01*
X16137976Y46464285D01*
X16137976Y46730952D01*
X16290357Y46730952D01*
X15795119Y46388095D02*
X15795119Y47188095D01*
X15337976Y46388095D01*
X15337976Y47188095D01*
X14957023Y46388095D02*
X14957023Y47188095D01*
X14766547Y47188095D01*
X14652261Y47150000D01*
X14576071Y47073809D01*
X14537976Y46997619D01*
X14499880Y46845238D01*
X14499880Y46730952D01*
X14537976Y46578571D01*
X14576071Y46502380D01*
X14652261Y46426190D01*
X14766547Y46388095D01*
X14957023Y46388095D01*
X91250119Y53861904D02*
X91212023Y53900000D01*
X91135833Y53938095D01*
X90945357Y53938095D01*
X90869166Y53900000D01*
X90831071Y53861904D01*
X90792976Y53785714D01*
X90792976Y53709523D01*
X90831071Y53595238D01*
X91288214Y53138095D01*
X90792976Y53138095D01*
X90488214Y53861904D02*
X90450119Y53900000D01*
X90373928Y53938095D01*
X90183452Y53938095D01*
X90107261Y53900000D01*
X90069166Y53861904D01*
X90031071Y53785714D01*
X90031071Y53709523D01*
X90069166Y53595238D01*
X90526309Y53138095D01*
X90031071Y53138095D01*
X89535833Y53938095D02*
X89459642Y53938095D01*
X89383452Y53900000D01*
X89345357Y53861904D01*
X89307261Y53785714D01*
X89269166Y53633333D01*
X89269166Y53442857D01*
X89307261Y53290476D01*
X89345357Y53214285D01*
X89383452Y53176190D01*
X89459642Y53138095D01*
X89535833Y53138095D01*
X89612023Y53176190D01*
X89650119Y53214285D01*
X89688214Y53290476D01*
X89726309Y53442857D01*
X89726309Y53633333D01*
X89688214Y53785714D01*
X89650119Y53861904D01*
X89612023Y53900000D01*
X89535833Y53938095D01*
X89116785Y53061904D02*
X88507261Y53061904D01*
X88316785Y53138095D02*
X88316785Y53938095D01*
X87859642Y53138095D01*
X87859642Y53938095D01*
X86869166Y53138095D02*
X86869166Y53938095D01*
X86488214Y53138095D02*
X86488214Y53938095D01*
X86031071Y53138095D01*
X86031071Y53938095D01*
X91250119Y57611904D02*
X91212023Y57650000D01*
X91135833Y57688095D01*
X90945357Y57688095D01*
X90869166Y57650000D01*
X90831071Y57611904D01*
X90792976Y57535714D01*
X90792976Y57459523D01*
X90831071Y57345238D01*
X91288214Y56888095D01*
X90792976Y56888095D01*
X90488214Y57611904D02*
X90450119Y57650000D01*
X90373928Y57688095D01*
X90183452Y57688095D01*
X90107261Y57650000D01*
X90069166Y57611904D01*
X90031071Y57535714D01*
X90031071Y57459523D01*
X90069166Y57345238D01*
X90526309Y56888095D01*
X90031071Y56888095D01*
X89535833Y57688095D02*
X89459642Y57688095D01*
X89383452Y57650000D01*
X89345357Y57611904D01*
X89307261Y57535714D01*
X89269166Y57383333D01*
X89269166Y57192857D01*
X89307261Y57040476D01*
X89345357Y56964285D01*
X89383452Y56926190D01*
X89459642Y56888095D01*
X89535833Y56888095D01*
X89612023Y56926190D01*
X89650119Y56964285D01*
X89688214Y57040476D01*
X89726309Y57192857D01*
X89726309Y57383333D01*
X89688214Y57535714D01*
X89650119Y57611904D01*
X89612023Y57650000D01*
X89535833Y57688095D01*
X89116785Y56811904D02*
X88507261Y56811904D01*
X87935833Y56888095D02*
X88316785Y56888095D01*
X88316785Y57688095D01*
X87059642Y56888095D02*
X87059642Y57688095D01*
X86678690Y56888095D02*
X86678690Y57688095D01*
X86221547Y56888095D01*
X86221547Y57688095D01*
X91250119Y61611904D02*
X91212023Y61650000D01*
X91135833Y61688095D01*
X90945357Y61688095D01*
X90869166Y61650000D01*
X90831071Y61611904D01*
X90792976Y61535714D01*
X90792976Y61459523D01*
X90831071Y61345238D01*
X91288214Y60888095D01*
X90792976Y60888095D01*
X90488214Y61611904D02*
X90450119Y61650000D01*
X90373928Y61688095D01*
X90183452Y61688095D01*
X90107261Y61650000D01*
X90069166Y61611904D01*
X90031071Y61535714D01*
X90031071Y61459523D01*
X90069166Y61345238D01*
X90526309Y60888095D01*
X90031071Y60888095D01*
X89535833Y61688095D02*
X89459642Y61688095D01*
X89383452Y61650000D01*
X89345357Y61611904D01*
X89307261Y61535714D01*
X89269166Y61383333D01*
X89269166Y61192857D01*
X89307261Y61040476D01*
X89345357Y60964285D01*
X89383452Y60926190D01*
X89459642Y60888095D01*
X89535833Y60888095D01*
X89612023Y60926190D01*
X89650119Y60964285D01*
X89688214Y61040476D01*
X89726309Y61192857D01*
X89726309Y61383333D01*
X89688214Y61535714D01*
X89650119Y61611904D01*
X89612023Y61650000D01*
X89535833Y61688095D01*
X89116785Y60811904D02*
X88507261Y60811904D01*
X87935833Y60888095D02*
X88316785Y60888095D01*
X88316785Y61688095D01*
X86907261Y61688095D02*
X86754880Y61688095D01*
X86678690Y61650000D01*
X86602500Y61573809D01*
X86564404Y61421428D01*
X86564404Y61154761D01*
X86602500Y61002380D01*
X86678690Y60926190D01*
X86754880Y60888095D01*
X86907261Y60888095D01*
X86983452Y60926190D01*
X87059642Y61002380D01*
X87097738Y61154761D01*
X87097738Y61421428D01*
X87059642Y61573809D01*
X86983452Y61650000D01*
X86907261Y61688095D01*
X86221547Y61688095D02*
X86221547Y61040476D01*
X86183452Y60964285D01*
X86145357Y60926190D01*
X86069166Y60888095D01*
X85916785Y60888095D01*
X85840595Y60926190D01*
X85802500Y60964285D01*
X85764404Y61040476D01*
X85764404Y61688095D01*
X85497738Y61688095D02*
X85040595Y61688095D01*
X85269166Y60888095D02*
X85269166Y61688095D01*
X91250119Y65361904D02*
X91212023Y65400000D01*
X91135833Y65438095D01*
X90945357Y65438095D01*
X90869166Y65400000D01*
X90831071Y65361904D01*
X90792976Y65285714D01*
X90792976Y65209523D01*
X90831071Y65095238D01*
X91288214Y64638095D01*
X90792976Y64638095D01*
X90488214Y65361904D02*
X90450119Y65400000D01*
X90373928Y65438095D01*
X90183452Y65438095D01*
X90107261Y65400000D01*
X90069166Y65361904D01*
X90031071Y65285714D01*
X90031071Y65209523D01*
X90069166Y65095238D01*
X90526309Y64638095D01*
X90031071Y64638095D01*
X89535833Y65438095D02*
X89459642Y65438095D01*
X89383452Y65400000D01*
X89345357Y65361904D01*
X89307261Y65285714D01*
X89269166Y65133333D01*
X89269166Y64942857D01*
X89307261Y64790476D01*
X89345357Y64714285D01*
X89383452Y64676190D01*
X89459642Y64638095D01*
X89535833Y64638095D01*
X89612023Y64676190D01*
X89650119Y64714285D01*
X89688214Y64790476D01*
X89726309Y64942857D01*
X89726309Y65133333D01*
X89688214Y65285714D01*
X89650119Y65361904D01*
X89612023Y65400000D01*
X89535833Y65438095D01*
X89116785Y64561904D02*
X88507261Y64561904D01*
X88316785Y64638095D02*
X88316785Y65438095D01*
X87859642Y64638095D01*
X87859642Y65438095D01*
X86412023Y64638095D02*
X86678690Y65019047D01*
X86869166Y64638095D02*
X86869166Y65438095D01*
X86564404Y65438095D01*
X86488214Y65400000D01*
X86450119Y65361904D01*
X86412023Y65285714D01*
X86412023Y65171428D01*
X86450119Y65095238D01*
X86488214Y65057142D01*
X86564404Y65019047D01*
X86869166Y65019047D01*
X86069166Y65057142D02*
X85802500Y65057142D01*
X85688214Y64638095D02*
X86069166Y64638095D01*
X86069166Y65438095D01*
X85688214Y65438095D01*
X84964404Y64638095D02*
X85345357Y64638095D01*
X85345357Y65438095D01*
X84735833Y64866666D02*
X84354880Y64866666D01*
X84812023Y64638095D02*
X84545357Y65438095D01*
X84278690Y64638095D01*
X83859642Y65019047D02*
X83859642Y64638095D01*
X84126309Y65438095D02*
X83859642Y65019047D01*
X83592976Y65438095D01*
X86442857Y81695357D02*
X86480952Y81581071D01*
X86519047Y81542976D01*
X86595238Y81504880D01*
X86709523Y81504880D01*
X86785714Y81542976D01*
X86823809Y81581071D01*
X86861904Y81657261D01*
X86861904Y81962023D01*
X86061904Y81962023D01*
X86061904Y81695357D01*
X86100000Y81619166D01*
X86138095Y81581071D01*
X86214285Y81542976D01*
X86290476Y81542976D01*
X86366666Y81581071D01*
X86404761Y81619166D01*
X86442857Y81695357D01*
X86442857Y81962023D01*
X86061904Y81162023D02*
X86709523Y81162023D01*
X86785714Y81123928D01*
X86823809Y81085833D01*
X86861904Y81009642D01*
X86861904Y80857261D01*
X86823809Y80781071D01*
X86785714Y80742976D01*
X86709523Y80704880D01*
X86061904Y80704880D01*
X86061904Y80438214D02*
X86061904Y79981071D01*
X86861904Y80209642D02*
X86061904Y80209642D01*
X86061904Y79828690D02*
X86061904Y79371547D01*
X86861904Y79600119D02*
X86061904Y79600119D01*
X86861904Y78114404D02*
X86861904Y78495357D01*
X86061904Y78495357D01*
X86442857Y77847738D02*
X86442857Y77581071D01*
X86861904Y77466785D02*
X86861904Y77847738D01*
X86061904Y77847738D01*
X86061904Y77466785D01*
X86861904Y77123928D02*
X86061904Y77123928D01*
X86061904Y76933452D01*
X86100000Y76819166D01*
X86176190Y76742976D01*
X86252380Y76704880D01*
X86404761Y76666785D01*
X86519047Y76666785D01*
X86671428Y76704880D01*
X86747619Y76742976D01*
X86823809Y76819166D01*
X86861904Y76933452D01*
X86861904Y77123928D01*
X82311904Y81581071D02*
X82311904Y81962023D01*
X82692857Y82000119D01*
X82654761Y81962023D01*
X82616666Y81885833D01*
X82616666Y81695357D01*
X82654761Y81619166D01*
X82692857Y81581071D01*
X82769047Y81542976D01*
X82959523Y81542976D01*
X83035714Y81581071D01*
X83073809Y81619166D01*
X83111904Y81695357D01*
X83111904Y81885833D01*
X83073809Y81962023D01*
X83035714Y82000119D01*
X82311904Y81314404D02*
X83111904Y81047738D01*
X82311904Y80781071D01*
X82311904Y79752500D02*
X82311904Y79600119D01*
X82350000Y79523928D01*
X82426190Y79447738D01*
X82578571Y79409642D01*
X82845238Y79409642D01*
X82997619Y79447738D01*
X83073809Y79523928D01*
X83111904Y79600119D01*
X83111904Y79752500D01*
X83073809Y79828690D01*
X82997619Y79904880D01*
X82845238Y79942976D01*
X82578571Y79942976D01*
X82426190Y79904880D01*
X82350000Y79828690D01*
X82311904Y79752500D01*
X82311904Y79066785D02*
X82959523Y79066785D01*
X83035714Y79028690D01*
X83073809Y78990595D01*
X83111904Y78914404D01*
X83111904Y78762023D01*
X83073809Y78685833D01*
X83035714Y78647738D01*
X82959523Y78609642D01*
X82311904Y78609642D01*
X82311904Y78342976D02*
X82311904Y77885833D01*
X83111904Y78114404D02*
X82311904Y78114404D01*
X78561904Y81581071D02*
X78561904Y81962023D01*
X78942857Y82000119D01*
X78904761Y81962023D01*
X78866666Y81885833D01*
X78866666Y81695357D01*
X78904761Y81619166D01*
X78942857Y81581071D01*
X79019047Y81542976D01*
X79209523Y81542976D01*
X79285714Y81581071D01*
X79323809Y81619166D01*
X79361904Y81695357D01*
X79361904Y81885833D01*
X79323809Y81962023D01*
X79285714Y82000119D01*
X78561904Y81314404D02*
X79361904Y81047738D01*
X78561904Y80781071D01*
X78561904Y79752500D02*
X78561904Y79600119D01*
X78600000Y79523928D01*
X78676190Y79447738D01*
X78828571Y79409642D01*
X79095238Y79409642D01*
X79247619Y79447738D01*
X79323809Y79523928D01*
X79361904Y79600119D01*
X79361904Y79752500D01*
X79323809Y79828690D01*
X79247619Y79904880D01*
X79095238Y79942976D01*
X78828571Y79942976D01*
X78676190Y79904880D01*
X78600000Y79828690D01*
X78561904Y79752500D01*
X78561904Y79066785D02*
X79209523Y79066785D01*
X79285714Y79028690D01*
X79323809Y78990595D01*
X79361904Y78914404D01*
X79361904Y78762023D01*
X79323809Y78685833D01*
X79285714Y78647738D01*
X79209523Y78609642D01*
X78561904Y78609642D01*
X78561904Y78342976D02*
X78561904Y77885833D01*
X79361904Y78114404D02*
X78561904Y78114404D01*
X71192857Y81962023D02*
X71192857Y81695357D01*
X71611904Y81581071D02*
X71611904Y81962023D01*
X70811904Y81962023D01*
X70811904Y81581071D01*
X70811904Y81314404D02*
X71611904Y80781071D01*
X70811904Y80781071D02*
X71611904Y81314404D01*
X70811904Y80590595D02*
X70811904Y80133452D01*
X71611904Y80362023D02*
X70811904Y80362023D01*
X71192857Y78990595D02*
X71230952Y78876309D01*
X71269047Y78838214D01*
X71345238Y78800119D01*
X71459523Y78800119D01*
X71535714Y78838214D01*
X71573809Y78876309D01*
X71611904Y78952500D01*
X71611904Y79257261D01*
X70811904Y79257261D01*
X70811904Y78990595D01*
X70850000Y78914404D01*
X70888095Y78876309D01*
X70964285Y78838214D01*
X71040476Y78838214D01*
X71116666Y78876309D01*
X71154761Y78914404D01*
X71192857Y78990595D01*
X71192857Y79257261D01*
X70811904Y78457261D02*
X71459523Y78457261D01*
X71535714Y78419166D01*
X71573809Y78381071D01*
X71611904Y78304880D01*
X71611904Y78152500D01*
X71573809Y78076309D01*
X71535714Y78038214D01*
X71459523Y78000119D01*
X70811904Y78000119D01*
X70811904Y77733452D02*
X70811904Y77276309D01*
X71611904Y77504880D02*
X70811904Y77504880D01*
X70811904Y77123928D02*
X70811904Y76666785D01*
X71611904Y76895357D02*
X70811904Y76895357D01*
X70811904Y76247738D02*
X70811904Y76095357D01*
X70850000Y76019166D01*
X70926190Y75942976D01*
X71078571Y75904880D01*
X71345238Y75904880D01*
X71497619Y75942976D01*
X71573809Y76019166D01*
X71611904Y76095357D01*
X71611904Y76247738D01*
X71573809Y76323928D01*
X71497619Y76400119D01*
X71345238Y76438214D01*
X71078571Y76438214D01*
X70926190Y76400119D01*
X70850000Y76323928D01*
X70811904Y76247738D01*
X71611904Y75562023D02*
X70811904Y75562023D01*
X71611904Y75104880D01*
X70811904Y75104880D01*
X59561904Y81581071D02*
X59561904Y81962023D01*
X59942857Y82000119D01*
X59904761Y81962023D01*
X59866666Y81885833D01*
X59866666Y81695357D01*
X59904761Y81619166D01*
X59942857Y81581071D01*
X60019047Y81542976D01*
X60209523Y81542976D01*
X60285714Y81581071D01*
X60323809Y81619166D01*
X60361904Y81695357D01*
X60361904Y81885833D01*
X60323809Y81962023D01*
X60285714Y82000119D01*
X59561904Y81314404D02*
X60361904Y81047738D01*
X59561904Y80781071D01*
X59561904Y79752500D02*
X59561904Y79600119D01*
X59600000Y79523928D01*
X59676190Y79447738D01*
X59828571Y79409642D01*
X60095238Y79409642D01*
X60247619Y79447738D01*
X60323809Y79523928D01*
X60361904Y79600119D01*
X60361904Y79752500D01*
X60323809Y79828690D01*
X60247619Y79904880D01*
X60095238Y79942976D01*
X59828571Y79942976D01*
X59676190Y79904880D01*
X59600000Y79828690D01*
X59561904Y79752500D01*
X59561904Y79066785D02*
X60209523Y79066785D01*
X60285714Y79028690D01*
X60323809Y78990595D01*
X60361904Y78914404D01*
X60361904Y78762023D01*
X60323809Y78685833D01*
X60285714Y78647738D01*
X60209523Y78609642D01*
X59561904Y78609642D01*
X59561904Y78342976D02*
X59561904Y77885833D01*
X60361904Y78114404D02*
X59561904Y78114404D01*
X74600000Y81542976D02*
X74561904Y81619166D01*
X74561904Y81733452D01*
X74600000Y81847738D01*
X74676190Y81923928D01*
X74752380Y81962023D01*
X74904761Y82000119D01*
X75019047Y82000119D01*
X75171428Y81962023D01*
X75247619Y81923928D01*
X75323809Y81847738D01*
X75361904Y81733452D01*
X75361904Y81657261D01*
X75323809Y81542976D01*
X75285714Y81504880D01*
X75019047Y81504880D01*
X75019047Y81657261D01*
X75361904Y81162023D02*
X74561904Y81162023D01*
X75361904Y80704880D01*
X74561904Y80704880D01*
X75361904Y80323928D02*
X74561904Y80323928D01*
X74561904Y80133452D01*
X74600000Y80019166D01*
X74676190Y79942976D01*
X74752380Y79904880D01*
X74904761Y79866785D01*
X75019047Y79866785D01*
X75171428Y79904880D01*
X75247619Y79942976D01*
X75323809Y80019166D01*
X75361904Y80133452D01*
X75361904Y80323928D01*
X67350000Y81542976D02*
X67311904Y81619166D01*
X67311904Y81733452D01*
X67350000Y81847738D01*
X67426190Y81923928D01*
X67502380Y81962023D01*
X67654761Y82000119D01*
X67769047Y82000119D01*
X67921428Y81962023D01*
X67997619Y81923928D01*
X68073809Y81847738D01*
X68111904Y81733452D01*
X68111904Y81657261D01*
X68073809Y81542976D01*
X68035714Y81504880D01*
X67769047Y81504880D01*
X67769047Y81657261D01*
X68111904Y81162023D02*
X67311904Y81162023D01*
X68111904Y80704880D01*
X67311904Y80704880D01*
X68111904Y80323928D02*
X67311904Y80323928D01*
X67311904Y80133452D01*
X67350000Y80019166D01*
X67426190Y79942976D01*
X67502380Y79904880D01*
X67654761Y79866785D01*
X67769047Y79866785D01*
X67921428Y79904880D01*
X67997619Y79942976D01*
X68073809Y80019166D01*
X68111904Y80133452D01*
X68111904Y80323928D01*
X64111904Y81581071D02*
X64111904Y81962023D01*
X63311904Y81962023D01*
X63692857Y81314404D02*
X63692857Y81047738D01*
X64111904Y80933452D02*
X64111904Y81314404D01*
X63311904Y81314404D01*
X63311904Y80933452D01*
X64111904Y80590595D02*
X63311904Y80590595D01*
X63311904Y80400119D01*
X63350000Y80285833D01*
X63426190Y80209642D01*
X63502380Y80171547D01*
X63654761Y80133452D01*
X63769047Y80133452D01*
X63921428Y80171547D01*
X63997619Y80209642D01*
X64073809Y80285833D01*
X64111904Y80400119D01*
X64111904Y80590595D01*
X63311904Y79257261D02*
X64111904Y79066785D01*
X63540476Y78914404D01*
X64111904Y78762023D01*
X63311904Y78571547D01*
X64073809Y78304880D02*
X64111904Y78190595D01*
X64111904Y78000119D01*
X64073809Y77923928D01*
X64035714Y77885833D01*
X63959523Y77847738D01*
X63883333Y77847738D01*
X63807142Y77885833D01*
X63769047Y77923928D01*
X63730952Y78000119D01*
X63692857Y78152500D01*
X63654761Y78228690D01*
X63616666Y78266785D01*
X63540476Y78304880D01*
X63464285Y78304880D01*
X63388095Y78266785D01*
X63350000Y78228690D01*
X63311904Y78152500D01*
X63311904Y77962023D01*
X63350000Y77847738D01*
X63388095Y77542976D02*
X63350000Y77504880D01*
X63311904Y77428690D01*
X63311904Y77238214D01*
X63350000Y77162023D01*
X63388095Y77123928D01*
X63464285Y77085833D01*
X63540476Y77085833D01*
X63654761Y77123928D01*
X64111904Y77581071D01*
X64111904Y77085833D01*
X63654761Y76628690D02*
X63616666Y76704880D01*
X63578571Y76742976D01*
X63502380Y76781071D01*
X63464285Y76781071D01*
X63388095Y76742976D01*
X63350000Y76704880D01*
X63311904Y76628690D01*
X63311904Y76476309D01*
X63350000Y76400119D01*
X63388095Y76362023D01*
X63464285Y76323928D01*
X63502380Y76323928D01*
X63578571Y76362023D01*
X63616666Y76400119D01*
X63654761Y76476309D01*
X63654761Y76628690D01*
X63692857Y76704880D01*
X63730952Y76742976D01*
X63807142Y76781071D01*
X63959523Y76781071D01*
X64035714Y76742976D01*
X64073809Y76704880D01*
X64111904Y76628690D01*
X64111904Y76476309D01*
X64073809Y76400119D01*
X64035714Y76362023D01*
X63959523Y76323928D01*
X63807142Y76323928D01*
X63730952Y76362023D01*
X63692857Y76400119D01*
X63654761Y76476309D01*
X64111904Y75562023D02*
X64111904Y76019166D01*
X64111904Y75790595D02*
X63311904Y75790595D01*
X63426190Y75866785D01*
X63502380Y75942976D01*
X63540476Y76019166D01*
X63388095Y75257261D02*
X63350000Y75219166D01*
X63311904Y75142976D01*
X63311904Y74952500D01*
X63350000Y74876309D01*
X63388095Y74838214D01*
X63464285Y74800119D01*
X63540476Y74800119D01*
X63654761Y74838214D01*
X64111904Y75295357D01*
X64111904Y74800119D01*
X52611904Y81212023D02*
X51811904Y81212023D01*
X51811904Y81021547D01*
X51850000Y80907261D01*
X51926190Y80831071D01*
X52002380Y80792976D01*
X52154761Y80754880D01*
X52269047Y80754880D01*
X52421428Y80792976D01*
X52497619Y80831071D01*
X52573809Y80907261D01*
X52611904Y81021547D01*
X52611904Y81212023D01*
X51811904Y80259642D02*
X51811904Y80107261D01*
X51850000Y80031071D01*
X51926190Y79954880D01*
X52078571Y79916785D01*
X52345238Y79916785D01*
X52497619Y79954880D01*
X52573809Y80031071D01*
X52611904Y80107261D01*
X52611904Y80259642D01*
X52573809Y80335833D01*
X52497619Y80412023D01*
X52345238Y80450119D01*
X52078571Y80450119D01*
X51926190Y80412023D01*
X51850000Y80335833D01*
X51811904Y80259642D01*
X51811904Y79421547D02*
X51811904Y79269166D01*
X51850000Y79192976D01*
X51926190Y79116785D01*
X52078571Y79078690D01*
X52345238Y79078690D01*
X52497619Y79116785D01*
X52573809Y79192976D01*
X52611904Y79269166D01*
X52611904Y79421547D01*
X52573809Y79497738D01*
X52497619Y79573928D01*
X52345238Y79612023D01*
X52078571Y79612023D01*
X51926190Y79573928D01*
X51850000Y79497738D01*
X51811904Y79421547D01*
X52611904Y78278690D02*
X52230952Y78545357D01*
X52611904Y78735833D02*
X51811904Y78735833D01*
X51811904Y78431071D01*
X51850000Y78354880D01*
X51888095Y78316785D01*
X51964285Y78278690D01*
X52078571Y78278690D01*
X52154761Y78316785D01*
X52192857Y78354880D01*
X52230952Y78431071D01*
X52230952Y78735833D01*
X55600000Y81542976D02*
X55561904Y81619166D01*
X55561904Y81733452D01*
X55600000Y81847738D01*
X55676190Y81923928D01*
X55752380Y81962023D01*
X55904761Y82000119D01*
X56019047Y82000119D01*
X56171428Y81962023D01*
X56247619Y81923928D01*
X56323809Y81847738D01*
X56361904Y81733452D01*
X56361904Y81657261D01*
X56323809Y81542976D01*
X56285714Y81504880D01*
X56019047Y81504880D01*
X56019047Y81657261D01*
X56361904Y81162023D02*
X55561904Y81162023D01*
X56361904Y80704880D01*
X55561904Y80704880D01*
X56361904Y80323928D02*
X55561904Y80323928D01*
X55561904Y80133452D01*
X55600000Y80019166D01*
X55676190Y79942976D01*
X55752380Y79904880D01*
X55904761Y79866785D01*
X56019047Y79866785D01*
X56171428Y79904880D01*
X56247619Y79942976D01*
X56323809Y80019166D01*
X56361904Y80133452D01*
X56361904Y80323928D01*
X29835714Y84057142D02*
X29721428Y84019047D01*
X29683333Y83980952D01*
X29645238Y83904761D01*
X29645238Y83790476D01*
X29683333Y83714285D01*
X29721428Y83676190D01*
X29797619Y83638095D01*
X30102380Y83638095D01*
X30102380Y84438095D01*
X29835714Y84438095D01*
X29759523Y84400000D01*
X29721428Y84361904D01*
X29683333Y84285714D01*
X29683333Y84209523D01*
X29721428Y84133333D01*
X29759523Y84095238D01*
X29835714Y84057142D01*
X30102380Y84057142D01*
X29150000Y84438095D02*
X28997619Y84438095D01*
X28921428Y84400000D01*
X28845238Y84323809D01*
X28807142Y84171428D01*
X28807142Y83904761D01*
X28845238Y83752380D01*
X28921428Y83676190D01*
X28997619Y83638095D01*
X29150000Y83638095D01*
X29226190Y83676190D01*
X29302380Y83752380D01*
X29340476Y83904761D01*
X29340476Y84171428D01*
X29302380Y84323809D01*
X29226190Y84400000D01*
X29150000Y84438095D01*
X28311904Y84438095D02*
X28159523Y84438095D01*
X28083333Y84400000D01*
X28007142Y84323809D01*
X27969047Y84171428D01*
X27969047Y83904761D01*
X28007142Y83752380D01*
X28083333Y83676190D01*
X28159523Y83638095D01*
X28311904Y83638095D01*
X28388095Y83676190D01*
X28464285Y83752380D01*
X28502380Y83904761D01*
X28502380Y84171428D01*
X28464285Y84323809D01*
X28388095Y84400000D01*
X28311904Y84438095D01*
X27740476Y84438095D02*
X27283333Y84438095D01*
X27511904Y83638095D02*
X27511904Y84438095D01*
X29661904Y49638095D02*
X29928571Y50019047D01*
X30119047Y49638095D02*
X30119047Y50438095D01*
X29814285Y50438095D01*
X29738095Y50400000D01*
X29700000Y50361904D01*
X29661904Y50285714D01*
X29661904Y50171428D01*
X29700000Y50095238D01*
X29738095Y50057142D01*
X29814285Y50019047D01*
X30119047Y50019047D01*
X29319047Y50057142D02*
X29052380Y50057142D01*
X28938095Y49638095D02*
X29319047Y49638095D01*
X29319047Y50438095D01*
X28938095Y50438095D01*
X28633333Y49676190D02*
X28519047Y49638095D01*
X28328571Y49638095D01*
X28252380Y49676190D01*
X28214285Y49714285D01*
X28176190Y49790476D01*
X28176190Y49866666D01*
X28214285Y49942857D01*
X28252380Y49980952D01*
X28328571Y50019047D01*
X28480952Y50057142D01*
X28557142Y50095238D01*
X28595238Y50133333D01*
X28633333Y50209523D01*
X28633333Y50285714D01*
X28595238Y50361904D01*
X28557142Y50400000D01*
X28480952Y50438095D01*
X28290476Y50438095D01*
X28176190Y50400000D01*
X27833333Y50057142D02*
X27566666Y50057142D01*
X27452380Y49638095D02*
X27833333Y49638095D01*
X27833333Y50438095D01*
X27452380Y50438095D01*
X27223809Y50438095D02*
X26766666Y50438095D01*
X26995238Y49638095D02*
X26995238Y50438095D01*
X73595238Y3047619D02*
X73595238Y2238095D01*
X73547619Y2142857D01*
X73500000Y2095238D01*
X73404761Y2047619D01*
X73214285Y2047619D01*
X73119047Y2095238D01*
X73071428Y2142857D01*
X73023809Y2238095D01*
X73023809Y3047619D01*
X72595238Y2333333D02*
X72119047Y2333333D01*
X72690476Y2047619D02*
X72357142Y3047619D01*
X72023809Y2047619D01*
X71690476Y2047619D02*
X71690476Y3047619D01*
X71119047Y2047619D02*
X71547619Y2619047D01*
X71119047Y3047619D02*
X71690476Y2476190D01*
X70690476Y2142857D02*
X70642857Y2095238D01*
X70690476Y2047619D01*
X70738095Y2095238D01*
X70690476Y2142857D01*
X70690476Y2047619D01*
X70309523Y3047619D02*
X69690476Y3047619D01*
X70023809Y2666666D01*
X69880952Y2666666D01*
X69785714Y2619047D01*
X69738095Y2571428D01*
X69690476Y2476190D01*
X69690476Y2238095D01*
X69738095Y2142857D01*
X69785714Y2095238D01*
X69880952Y2047619D01*
X70166666Y2047619D01*
X70261904Y2095238D01*
X70309523Y2142857D01*
X69309523Y2333333D02*
X68833333Y2333333D01*
X69404761Y2047619D02*
X69071428Y3047619D01*
X68738095Y2047619D01*
X68404761Y2142857D02*
X68357142Y2095238D01*
X68404761Y2047619D01*
X68452380Y2095238D01*
X68404761Y2142857D01*
X68404761Y2047619D01*
X67928571Y2047619D02*
X67928571Y3047619D01*
X67357142Y2047619D01*
X67357142Y3047619D01*
X66404761Y3047619D02*
X66880952Y3047619D01*
X66928571Y2571428D01*
X66880952Y2619047D01*
X66785714Y2666666D01*
X66547619Y2666666D01*
X66452380Y2619047D01*
X66404761Y2571428D01*
X66357142Y2476190D01*
X66357142Y2238095D01*
X66404761Y2142857D01*
X66452380Y2095238D01*
X66547619Y2047619D01*
X66785714Y2047619D01*
X66880952Y2095238D01*
X66928571Y2142857D01*
D12*
X89000000Y82500000D02*
X88000000Y82500000D01*
X89000000Y82500000D02*
X89000000Y83500000D01*
X51750000Y81750000D02*
X52250000Y82250000D01*
X52750000Y81750000D02*
X51750000Y81750000D01*
X52250000Y82250000D02*
X52750000Y81750000D01*
X49750000Y82500000D02*
X49750000Y83500000D01*
X49750000Y82500000D02*
X50750000Y82500000D01*
X92500000Y51250000D02*
X92500000Y52250000D01*
X92500000Y51250000D02*
X93500000Y51250000D01*
X91750000Y65500000D02*
X92250000Y65000000D01*
X91750000Y64500000D02*
X91750000Y65500000D01*
X92250000Y65000000D02*
X91750000Y64500000D01*
X92500000Y67500000D02*
X93500000Y67500000D01*
X92500000Y67500000D02*
X92500000Y66500000D01*
D10*
X81000000Y46500000D02*
G75*
G03X81000000Y46500000I-8500000J0D01*
G01*
D11*
X8250000Y45250000D02*
X8250000Y46250000D01*
X8250000Y45250000D02*
X7250000Y45250000D01*
X8250000Y55500000D02*
X8250000Y54500000D01*
X8250000Y55500000D02*
X7250000Y55500000D01*
D13*
G36*
X66457465Y69076014D02*
G01*
X66425004Y69065043D01*
X66384480Y69035279D01*
X66347190Y68992945D01*
X66320309Y68946814D01*
X66314143Y68929498D01*
X66311854Y68909772D01*
X66309815Y68867988D01*
X66308026Y68804175D01*
X66306487Y68718360D01*
X66305197Y68610573D01*
X66304158Y68480840D01*
X66303370Y68329190D01*
X66302833Y68155651D01*
X66302547Y67960250D01*
X66302497Y67835892D01*
X66302435Y66784000D01*
X66236658Y66784000D01*
X66233655Y67720750D01*
X66230652Y68657499D01*
X66204040Y68696333D01*
X66158035Y68745616D01*
X66101166Y68778433D01*
X66038003Y68793174D01*
X65973118Y68788228D01*
X65956581Y68783535D01*
X65916279Y68761269D01*
X65876929Y68724686D01*
X65844981Y68680860D01*
X65828362Y68642847D01*
X65825868Y68622374D01*
X65823671Y68579972D01*
X65821771Y68515621D01*
X65820167Y68429302D01*
X65818859Y68320995D01*
X65817847Y68190680D01*
X65817131Y68038336D01*
X65816710Y67863945D01*
X65816584Y67692326D01*
X65816522Y66784000D01*
X65739218Y66784000D01*
X65739218Y67445890D01*
X65739012Y67609673D01*
X65738396Y67751502D01*
X65737369Y67871358D01*
X65735933Y67969222D01*
X65734086Y68045073D01*
X65731830Y68098891D01*
X65729165Y68130658D01*
X65727472Y68138868D01*
X65696369Y68191486D01*
X65649657Y68231666D01*
X65591587Y68256635D01*
X65535987Y68263826D01*
X65469102Y68255463D01*
X65415071Y68229553D01*
X65371878Y68184862D01*
X65351621Y68151071D01*
X65348182Y68143714D01*
X65345140Y68134980D01*
X65342471Y68123544D01*
X65340149Y68108085D01*
X65338152Y68087280D01*
X65336454Y68059806D01*
X65335031Y68024341D01*
X65333859Y67979562D01*
X65332915Y67924147D01*
X65332173Y67856773D01*
X65331609Y67776118D01*
X65331199Y67680858D01*
X65330919Y67569672D01*
X65330744Y67441236D01*
X65330650Y67294229D01*
X65330614Y67127327D01*
X65330609Y67006054D01*
X65330625Y66825260D01*
X65330688Y66665277D01*
X65330819Y66524831D01*
X65331042Y66402646D01*
X65331378Y66297447D01*
X65331850Y66207959D01*
X65332479Y66132906D01*
X65333289Y66071014D01*
X65334301Y66021006D01*
X65335537Y65981608D01*
X65337019Y65951545D01*
X65338771Y65929540D01*
X65340813Y65914320D01*
X65343169Y65904608D01*
X65345860Y65899130D01*
X65348908Y65896610D01*
X65349935Y65896228D01*
X65366301Y65892775D01*
X65401170Y65886394D01*
X65451427Y65877598D01*
X65513957Y65866900D01*
X65585649Y65854811D01*
X65663387Y65841844D01*
X65744058Y65828512D01*
X65824549Y65815327D01*
X65901744Y65802802D01*
X65972531Y65791449D01*
X66033796Y65781780D01*
X66082424Y65774309D01*
X66115302Y65769548D01*
X66129039Y65768000D01*
X66142346Y65771948D01*
X66138221Y65787051D01*
X66138072Y65787326D01*
X66127454Y65804194D01*
X66107251Y65834211D01*
X66080736Y65872568D01*
X66061079Y65900522D01*
X66027933Y65947388D01*
X65994660Y65994519D01*
X65966429Y66034591D01*
X65955876Y66049609D01*
X65931261Y66084560D01*
X65899484Y66129497D01*
X65866207Y66176419D01*
X65855609Y66191329D01*
X65794083Y66277832D01*
X65830151Y66270617D01*
X65863935Y66262681D01*
X65904202Y66251686D01*
X65915913Y66248195D01*
X65950073Y66238291D01*
X66001665Y66224034D01*
X66066724Y66206458D01*
X66141288Y66186599D01*
X66221391Y66165494D01*
X66303069Y66144178D01*
X66382357Y66123686D01*
X66455292Y66105054D01*
X66517909Y66089318D01*
X66566244Y66077514D01*
X66591363Y66071728D01*
X66632409Y66062757D01*
X66664060Y66056843D01*
X66686036Y66055736D01*
X66698056Y66061183D01*
X66699839Y66074932D01*
X66691104Y66098732D01*
X66671570Y66134330D01*
X66640956Y66183475D01*
X66598981Y66247914D01*
X66551427Y66320174D01*
X66507718Y66387288D01*
X66468863Y66448208D01*
X66436298Y66500580D01*
X66411458Y66542048D01*
X66395779Y66570259D01*
X66390697Y66582857D01*
X66390984Y66583275D01*
X66405720Y66582302D01*
X66436139Y66576610D01*
X66476621Y66567304D01*
X66492627Y66563269D01*
X66630656Y66527650D01*
X66748850Y66497127D01*
X66848763Y66471299D01*
X66931953Y66449761D01*
X66999975Y66432113D01*
X67054385Y66417951D01*
X67075479Y66412441D01*
X67170857Y66387583D01*
X67272579Y66361220D01*
X67374477Y66334942D01*
X67470385Y66310337D01*
X67554136Y66288993D01*
X67589000Y66280173D01*
X67637366Y66267921D01*
X67679110Y66257243D01*
X67708662Y66249571D01*
X67718761Y66246854D01*
X67722547Y66246715D01*
X67725805Y66249616D01*
X67728574Y66257082D01*
X67730894Y66270639D01*
X67732805Y66291810D01*
X67734345Y66322122D01*
X67735555Y66363098D01*
X67736474Y66416265D01*
X67737141Y66483147D01*
X67737596Y66565270D01*
X67737878Y66664157D01*
X67738027Y66781335D01*
X67738082Y66918329D01*
X67738087Y66993082D01*
X67738087Y67744783D01*
X67679353Y67744783D01*
X67586218Y67734720D01*
X67502468Y67704793D01*
X67428680Y67655392D01*
X67365434Y67586908D01*
X67313308Y67499732D01*
X67311672Y67496305D01*
X67304203Y67479934D01*
X67298310Y67464125D01*
X67293806Y67446136D01*
X67290502Y67423223D01*
X67288211Y67392644D01*
X67286745Y67351657D01*
X67285917Y67297519D01*
X67285539Y67227488D01*
X67285423Y67138822D01*
X67285413Y67112544D01*
X67285338Y67018840D01*
X67285078Y66944887D01*
X67284475Y66888349D01*
X67283370Y66846890D01*
X67281606Y66818174D01*
X67279026Y66799865D01*
X67275471Y66789627D01*
X67270784Y66785124D01*
X67264806Y66784019D01*
X67263218Y66784000D01*
X67240942Y66783998D01*
X67232848Y66783996D01*
X67231532Y66794771D01*
X67230152Y66826028D01*
X67228733Y66876161D01*
X67227298Y66943565D01*
X67225871Y67026634D01*
X67224475Y67123764D01*
X67223134Y67233348D01*
X67221873Y67353782D01*
X67220713Y67483461D01*
X67219680Y67620778D01*
X67219044Y67720743D01*
X67213522Y68657495D01*
X67182422Y68704484D01*
X67139638Y68750645D01*
X67086070Y68780533D01*
X67026450Y68793595D01*
X66965511Y68789277D01*
X66907986Y68767025D01*
X66872575Y68740754D01*
X66860880Y68730085D01*
X66850619Y68720389D01*
X66841688Y68710231D01*
X66833986Y68698172D01*
X66827412Y68682775D01*
X66821863Y68662603D01*
X66817239Y68636218D01*
X66813437Y68602184D01*
X66810355Y68559062D01*
X66807893Y68505416D01*
X66805947Y68439807D01*
X66804417Y68360800D01*
X66803201Y68266955D01*
X66802196Y68156836D01*
X66801302Y68029006D01*
X66800417Y67882028D01*
X66799438Y67714463D01*
X66799392Y67706680D01*
X66793870Y66779577D01*
X66760739Y66779578D01*
X66727609Y66779579D01*
X66722087Y67862102D01*
X66716565Y68944624D01*
X66686184Y68990529D01*
X66658065Y69023632D01*
X66623865Y69051775D01*
X66612080Y69058739D01*
X66564213Y69074829D01*
X66509559Y69080693D01*
X66457465Y69076014D01*
X66457465Y69076014D01*
G37*
X66457465Y69076014D02*
X66425004Y69065043D01*
X66384480Y69035279D01*
X66347190Y68992945D01*
X66320309Y68946814D01*
X66314143Y68929498D01*
X66311854Y68909772D01*
X66309815Y68867988D01*
X66308026Y68804175D01*
X66306487Y68718360D01*
X66305197Y68610573D01*
X66304158Y68480840D01*
X66303370Y68329190D01*
X66302833Y68155651D01*
X66302547Y67960250D01*
X66302497Y67835892D01*
X66302435Y66784000D01*
X66236658Y66784000D01*
X66233655Y67720750D01*
X66230652Y68657499D01*
X66204040Y68696333D01*
X66158035Y68745616D01*
X66101166Y68778433D01*
X66038003Y68793174D01*
X65973118Y68788228D01*
X65956581Y68783535D01*
X65916279Y68761269D01*
X65876929Y68724686D01*
X65844981Y68680860D01*
X65828362Y68642847D01*
X65825868Y68622374D01*
X65823671Y68579972D01*
X65821771Y68515621D01*
X65820167Y68429302D01*
X65818859Y68320995D01*
X65817847Y68190680D01*
X65817131Y68038336D01*
X65816710Y67863945D01*
X65816584Y67692326D01*
X65816522Y66784000D01*
X65739218Y66784000D01*
X65739218Y67445890D01*
X65739012Y67609673D01*
X65738396Y67751502D01*
X65737369Y67871358D01*
X65735933Y67969222D01*
X65734086Y68045073D01*
X65731830Y68098891D01*
X65729165Y68130658D01*
X65727472Y68138868D01*
X65696369Y68191486D01*
X65649657Y68231666D01*
X65591587Y68256635D01*
X65535987Y68263826D01*
X65469102Y68255463D01*
X65415071Y68229553D01*
X65371878Y68184862D01*
X65351621Y68151071D01*
X65348182Y68143714D01*
X65345140Y68134980D01*
X65342471Y68123544D01*
X65340149Y68108085D01*
X65338152Y68087280D01*
X65336454Y68059806D01*
X65335031Y68024341D01*
X65333859Y67979562D01*
X65332915Y67924147D01*
X65332173Y67856773D01*
X65331609Y67776118D01*
X65331199Y67680858D01*
X65330919Y67569672D01*
X65330744Y67441236D01*
X65330650Y67294229D01*
X65330614Y67127327D01*
X65330609Y67006054D01*
X65330625Y66825260D01*
X65330688Y66665277D01*
X65330819Y66524831D01*
X65331042Y66402646D01*
X65331378Y66297447D01*
X65331850Y66207959D01*
X65332479Y66132906D01*
X65333289Y66071014D01*
X65334301Y66021006D01*
X65335537Y65981608D01*
X65337019Y65951545D01*
X65338771Y65929540D01*
X65340813Y65914320D01*
X65343169Y65904608D01*
X65345860Y65899130D01*
X65348908Y65896610D01*
X65349935Y65896228D01*
X65366301Y65892775D01*
X65401170Y65886394D01*
X65451427Y65877598D01*
X65513957Y65866900D01*
X65585649Y65854811D01*
X65663387Y65841844D01*
X65744058Y65828512D01*
X65824549Y65815327D01*
X65901744Y65802802D01*
X65972531Y65791449D01*
X66033796Y65781780D01*
X66082424Y65774309D01*
X66115302Y65769548D01*
X66129039Y65768000D01*
X66142346Y65771948D01*
X66138221Y65787051D01*
X66138072Y65787326D01*
X66127454Y65804194D01*
X66107251Y65834211D01*
X66080736Y65872568D01*
X66061079Y65900522D01*
X66027933Y65947388D01*
X65994660Y65994519D01*
X65966429Y66034591D01*
X65955876Y66049609D01*
X65931261Y66084560D01*
X65899484Y66129497D01*
X65866207Y66176419D01*
X65855609Y66191329D01*
X65794083Y66277832D01*
X65830151Y66270617D01*
X65863935Y66262681D01*
X65904202Y66251686D01*
X65915913Y66248195D01*
X65950073Y66238291D01*
X66001665Y66224034D01*
X66066724Y66206458D01*
X66141288Y66186599D01*
X66221391Y66165494D01*
X66303069Y66144178D01*
X66382357Y66123686D01*
X66455292Y66105054D01*
X66517909Y66089318D01*
X66566244Y66077514D01*
X66591363Y66071728D01*
X66632409Y66062757D01*
X66664060Y66056843D01*
X66686036Y66055736D01*
X66698056Y66061183D01*
X66699839Y66074932D01*
X66691104Y66098732D01*
X66671570Y66134330D01*
X66640956Y66183475D01*
X66598981Y66247914D01*
X66551427Y66320174D01*
X66507718Y66387288D01*
X66468863Y66448208D01*
X66436298Y66500580D01*
X66411458Y66542048D01*
X66395779Y66570259D01*
X66390697Y66582857D01*
X66390984Y66583275D01*
X66405720Y66582302D01*
X66436139Y66576610D01*
X66476621Y66567304D01*
X66492627Y66563269D01*
X66630656Y66527650D01*
X66748850Y66497127D01*
X66848763Y66471299D01*
X66931953Y66449761D01*
X66999975Y66432113D01*
X67054385Y66417951D01*
X67075479Y66412441D01*
X67170857Y66387583D01*
X67272579Y66361220D01*
X67374477Y66334942D01*
X67470385Y66310337D01*
X67554136Y66288993D01*
X67589000Y66280173D01*
X67637366Y66267921D01*
X67679110Y66257243D01*
X67708662Y66249571D01*
X67718761Y66246854D01*
X67722547Y66246715D01*
X67725805Y66249616D01*
X67728574Y66257082D01*
X67730894Y66270639D01*
X67732805Y66291810D01*
X67734345Y66322122D01*
X67735555Y66363098D01*
X67736474Y66416265D01*
X67737141Y66483147D01*
X67737596Y66565270D01*
X67737878Y66664157D01*
X67738027Y66781335D01*
X67738082Y66918329D01*
X67738087Y66993082D01*
X67738087Y67744783D01*
X67679353Y67744783D01*
X67586218Y67734720D01*
X67502468Y67704793D01*
X67428680Y67655392D01*
X67365434Y67586908D01*
X67313308Y67499732D01*
X67311672Y67496305D01*
X67304203Y67479934D01*
X67298310Y67464125D01*
X67293806Y67446136D01*
X67290502Y67423223D01*
X67288211Y67392644D01*
X67286745Y67351657D01*
X67285917Y67297519D01*
X67285539Y67227488D01*
X67285423Y67138822D01*
X67285413Y67112544D01*
X67285338Y67018840D01*
X67285078Y66944887D01*
X67284475Y66888349D01*
X67283370Y66846890D01*
X67281606Y66818174D01*
X67279026Y66799865D01*
X67275471Y66789627D01*
X67270784Y66785124D01*
X67264806Y66784019D01*
X67263218Y66784000D01*
X67240942Y66783998D01*
X67232848Y66783996D01*
X67231532Y66794771D01*
X67230152Y66826028D01*
X67228733Y66876161D01*
X67227298Y66943565D01*
X67225871Y67026634D01*
X67224475Y67123764D01*
X67223134Y67233348D01*
X67221873Y67353782D01*
X67220713Y67483461D01*
X67219680Y67620778D01*
X67219044Y67720743D01*
X67213522Y68657495D01*
X67182422Y68704484D01*
X67139638Y68750645D01*
X67086070Y68780533D01*
X67026450Y68793595D01*
X66965511Y68789277D01*
X66907986Y68767025D01*
X66872575Y68740754D01*
X66860880Y68730085D01*
X66850619Y68720389D01*
X66841688Y68710231D01*
X66833986Y68698172D01*
X66827412Y68682775D01*
X66821863Y68662603D01*
X66817239Y68636218D01*
X66813437Y68602184D01*
X66810355Y68559062D01*
X66807893Y68505416D01*
X66805947Y68439807D01*
X66804417Y68360800D01*
X66803201Y68266955D01*
X66802196Y68156836D01*
X66801302Y68029006D01*
X66800417Y67882028D01*
X66799438Y67714463D01*
X66799392Y67706680D01*
X66793870Y66779577D01*
X66760739Y66779578D01*
X66727609Y66779579D01*
X66722087Y67862102D01*
X66716565Y68944624D01*
X66686184Y68990529D01*
X66658065Y69023632D01*
X66623865Y69051775D01*
X66612080Y69058739D01*
X66564213Y69074829D01*
X66509559Y69080693D01*
X66457465Y69076014D01*
G36*
X66857692Y66266647D02*
G01*
X66867632Y66245669D01*
X66886515Y66212979D01*
X66912584Y66171836D01*
X66913921Y66169803D01*
X66978619Y66071211D01*
X67035209Y65984224D01*
X67082995Y65909940D01*
X67121282Y65849458D01*
X67149376Y65803878D01*
X67166581Y65774298D01*
X67172203Y65761816D01*
X67172096Y65761545D01*
X67159832Y65761549D01*
X67135102Y65767000D01*
X67129965Y65768457D01*
X67101883Y65775953D01*
X67059733Y65786339D01*
X67011023Y65797784D01*
X66992652Y65801962D01*
X66932717Y65815460D01*
X66866234Y65830432D01*
X66806349Y65843919D01*
X66799392Y65845486D01*
X66758515Y65854703D01*
X66701377Y65867603D01*
X66633260Y65882993D01*
X66559443Y65899679D01*
X66485312Y65916444D01*
X66418938Y65931322D01*
X66360387Y65944184D01*
X66312884Y65954343D01*
X66279653Y65961112D01*
X66263920Y65963805D01*
X66263099Y65963761D01*
X66268623Y65954448D01*
X66285212Y65929629D01*
X66311140Y65891810D01*
X66344683Y65843492D01*
X66384116Y65787178D01*
X66413191Y65745913D01*
X66455585Y65685593D01*
X66493182Y65631530D01*
X66524268Y65586236D01*
X66547131Y65552221D01*
X66560057Y65531995D01*
X66562300Y65527404D01*
X66550919Y65527746D01*
X66521543Y65530790D01*
X66478039Y65536079D01*
X66424273Y65543154D01*
X66394983Y65547186D01*
X66318265Y65557832D01*
X66231301Y65569793D01*
X66144844Y65581597D01*
X66070522Y65591653D01*
X65994055Y65601981D01*
X65906871Y65613837D01*
X65820130Y65625700D01*
X65750261Y65635318D01*
X65680676Y65644867D01*
X65608898Y65654586D01*
X65538447Y65664013D01*
X65472843Y65672686D01*
X65415605Y65680141D01*
X65370252Y65685916D01*
X65340303Y65689549D01*
X65329622Y65690607D01*
X65327943Y65680446D01*
X65329540Y65652530D01*
X65333847Y65610855D01*
X65340297Y65559417D01*
X65348324Y65502211D01*
X65357360Y65443233D01*
X65366840Y65386478D01*
X65376196Y65335942D01*
X65384863Y65295620D01*
X65386664Y65288347D01*
X65428553Y65160325D01*
X65486920Y65041556D01*
X65563554Y64929038D01*
X65660247Y64819768D01*
X65674747Y64805286D01*
X65771965Y64709486D01*
X65774918Y64429808D01*
X65777870Y64150131D01*
X66567479Y64147209D01*
X67357087Y64144288D01*
X67357722Y64430818D01*
X67358356Y64717349D01*
X67436523Y64799638D01*
X67513849Y64891326D01*
X67579063Y64991895D01*
X67634014Y65104891D01*
X67680552Y65233857D01*
X67702123Y65308715D01*
X67710915Y65342552D01*
X67717835Y65372836D01*
X67723149Y65402908D01*
X67727122Y65436106D01*
X67730021Y65475772D01*
X67732110Y65525245D01*
X67733656Y65587867D01*
X67734924Y65666977D01*
X67735759Y65731478D01*
X67739615Y66042825D01*
X67691916Y66054852D01*
X67638349Y66068459D01*
X67566800Y66086791D01*
X67480655Y66108977D01*
X67383299Y66134147D01*
X67368131Y66138076D01*
X67241176Y66171006D01*
X67134497Y66198758D01*
X67046972Y66221629D01*
X66977477Y66239914D01*
X66924892Y66253911D01*
X66888094Y66263915D01*
X66865960Y66270223D01*
X66858454Y66272650D01*
X66857692Y66266647D01*
X66857692Y66266647D01*
G37*
X66857692Y66266647D02*
X66867632Y66245669D01*
X66886515Y66212979D01*
X66912584Y66171836D01*
X66913921Y66169803D01*
X66978619Y66071211D01*
X67035209Y65984224D01*
X67082995Y65909940D01*
X67121282Y65849458D01*
X67149376Y65803878D01*
X67166581Y65774298D01*
X67172203Y65761816D01*
X67172096Y65761545D01*
X67159832Y65761549D01*
X67135102Y65767000D01*
X67129965Y65768457D01*
X67101883Y65775953D01*
X67059733Y65786339D01*
X67011023Y65797784D01*
X66992652Y65801962D01*
X66932717Y65815460D01*
X66866234Y65830432D01*
X66806349Y65843919D01*
X66799392Y65845486D01*
X66758515Y65854703D01*
X66701377Y65867603D01*
X66633260Y65882993D01*
X66559443Y65899679D01*
X66485312Y65916444D01*
X66418938Y65931322D01*
X66360387Y65944184D01*
X66312884Y65954343D01*
X66279653Y65961112D01*
X66263920Y65963805D01*
X66263099Y65963761D01*
X66268623Y65954448D01*
X66285212Y65929629D01*
X66311140Y65891810D01*
X66344683Y65843492D01*
X66384116Y65787178D01*
X66413191Y65745913D01*
X66455585Y65685593D01*
X66493182Y65631530D01*
X66524268Y65586236D01*
X66547131Y65552221D01*
X66560057Y65531995D01*
X66562300Y65527404D01*
X66550919Y65527746D01*
X66521543Y65530790D01*
X66478039Y65536079D01*
X66424273Y65543154D01*
X66394983Y65547186D01*
X66318265Y65557832D01*
X66231301Y65569793D01*
X66144844Y65581597D01*
X66070522Y65591653D01*
X65994055Y65601981D01*
X65906871Y65613837D01*
X65820130Y65625700D01*
X65750261Y65635318D01*
X65680676Y65644867D01*
X65608898Y65654586D01*
X65538447Y65664013D01*
X65472843Y65672686D01*
X65415605Y65680141D01*
X65370252Y65685916D01*
X65340303Y65689549D01*
X65329622Y65690607D01*
X65327943Y65680446D01*
X65329540Y65652530D01*
X65333847Y65610855D01*
X65340297Y65559417D01*
X65348324Y65502211D01*
X65357360Y65443233D01*
X65366840Y65386478D01*
X65376196Y65335942D01*
X65384863Y65295620D01*
X65386664Y65288347D01*
X65428553Y65160325D01*
X65486920Y65041556D01*
X65563554Y64929038D01*
X65660247Y64819768D01*
X65674747Y64805286D01*
X65771965Y64709486D01*
X65774918Y64429808D01*
X65777870Y64150131D01*
X66567479Y64147209D01*
X67357087Y64144288D01*
X67357722Y64430818D01*
X67358356Y64717349D01*
X67436523Y64799638D01*
X67513849Y64891326D01*
X67579063Y64991895D01*
X67634014Y65104891D01*
X67680552Y65233857D01*
X67702123Y65308715D01*
X67710915Y65342552D01*
X67717835Y65372836D01*
X67723149Y65402908D01*
X67727122Y65436106D01*
X67730021Y65475772D01*
X67732110Y65525245D01*
X67733656Y65587867D01*
X67734924Y65666977D01*
X67735759Y65731478D01*
X67739615Y66042825D01*
X67691916Y66054852D01*
X67638349Y66068459D01*
X67566800Y66086791D01*
X67480655Y66108977D01*
X67383299Y66134147D01*
X67368131Y66138076D01*
X67241176Y66171006D01*
X67134497Y66198758D01*
X67046972Y66221629D01*
X66977477Y66239914D01*
X66924892Y66253911D01*
X66888094Y66263915D01*
X66865960Y66270223D01*
X66858454Y66272650D01*
X66857692Y66266647D01*
G36*
X66633716Y72511130D02*
G01*
X66598744Y72500382D01*
X66568805Y72487663D01*
X66527857Y72465997D01*
X66490760Y72440810D01*
X66469566Y72421693D01*
X66460850Y72410526D01*
X66448369Y72392372D01*
X66431535Y72366232D01*
X66409758Y72331106D01*
X66382451Y72285994D01*
X66349024Y72229897D01*
X66308889Y72161815D01*
X66261456Y72080749D01*
X66206137Y71985698D01*
X66142343Y71875663D01*
X66069485Y71749645D01*
X65986975Y71606643D01*
X65894223Y71445658D01*
X65874394Y71411218D01*
X65812493Y71303736D01*
X65743423Y71183873D01*
X65670381Y71057172D01*
X65596563Y70929174D01*
X65525164Y70805423D01*
X65459382Y70691461D01*
X65419040Y70621609D01*
X65341730Y70487773D01*
X65259230Y70344932D01*
X65172911Y70195461D01*
X65084145Y70041736D01*
X64994304Y69886133D01*
X64904759Y69731028D01*
X64816881Y69578797D01*
X64732042Y69431817D01*
X64651615Y69292462D01*
X64576970Y69163109D01*
X64509478Y69046134D01*
X64450512Y68943913D01*
X64408590Y68871218D01*
X64311658Y68703130D01*
X64215997Y68537301D01*
X64123014Y68376170D01*
X64034118Y68222176D01*
X63950719Y68077760D01*
X63874224Y67945361D01*
X63806043Y67827419D01*
X63751847Y67733739D01*
X63715129Y67670265D01*
X63669054Y67590558D01*
X63615298Y67497519D01*
X63555536Y67394049D01*
X63491443Y67283051D01*
X63424696Y67167425D01*
X63356968Y67050074D01*
X63289937Y66933897D01*
X63254432Y66872348D01*
X63186801Y66755112D01*
X63116222Y66632798D01*
X63044581Y66508670D01*
X62973761Y66385989D01*
X62905645Y66268020D01*
X62842119Y66158024D01*
X62785064Y66059265D01*
X62736367Y65975006D01*
X62718842Y65944696D01*
X62661733Y65845898D01*
X62596955Y65733762D01*
X62527859Y65614091D01*
X62457795Y65492689D01*
X62390113Y65375360D01*
X62328162Y65267908D01*
X62307696Y65232392D01*
X62249929Y65132153D01*
X62186336Y65021841D01*
X62120015Y64906829D01*
X62054065Y64792489D01*
X61991585Y64684194D01*
X61935673Y64587317D01*
X61914077Y64549911D01*
X61730435Y64231866D01*
X61730435Y63062348D01*
X71669565Y63062348D01*
X71669565Y63895365D01*
X71018000Y63895365D01*
X71007081Y63895027D01*
X70974823Y63894694D01*
X70921974Y63894369D01*
X70849280Y63894051D01*
X70757491Y63893742D01*
X70647353Y63893443D01*
X70519614Y63893154D01*
X70375023Y63892876D01*
X70214326Y63892610D01*
X70038272Y63892357D01*
X69847608Y63892118D01*
X69643081Y63891893D01*
X69425441Y63891683D01*
X69195434Y63891490D01*
X68953807Y63891313D01*
X68701310Y63891154D01*
X68438689Y63891014D01*
X68166692Y63890893D01*
X67886068Y63890793D01*
X67597563Y63890713D01*
X67301925Y63890655D01*
X66999902Y63890620D01*
X66700000Y63890609D01*
X66392472Y63890621D01*
X66090600Y63890656D01*
X65795132Y63890713D01*
X65506814Y63890792D01*
X65226396Y63890892D01*
X64954625Y63891012D01*
X64692248Y63891150D01*
X64440014Y63891308D01*
X64198669Y63891482D01*
X63968962Y63891673D01*
X63751640Y63891881D01*
X63547452Y63892103D01*
X63357144Y63892339D01*
X63181465Y63892589D01*
X63021162Y63892852D01*
X62876983Y63893126D01*
X62749675Y63893411D01*
X62639987Y63893707D01*
X62548666Y63894012D01*
X62476460Y63894325D01*
X62424116Y63894646D01*
X62392383Y63894974D01*
X62382000Y63895300D01*
X62384040Y63899976D01*
X62390468Y63912268D01*
X62401750Y63932999D01*
X62418351Y63962991D01*
X62440734Y64003066D01*
X62469366Y64054048D01*
X62504711Y64116760D01*
X62547234Y64192023D01*
X62597400Y64280661D01*
X62655673Y64383496D01*
X62722519Y64501351D01*
X62798402Y64635049D01*
X62883786Y64785412D01*
X62979138Y64953263D01*
X63084922Y65139425D01*
X63092985Y65153614D01*
X63164890Y65280152D01*
X63246004Y65422920D01*
X63334634Y65578937D01*
X63429088Y65745222D01*
X63527674Y65918797D01*
X63628698Y66096681D01*
X63730469Y66275893D01*
X63831293Y66453454D01*
X63929479Y66626383D01*
X64023334Y66791701D01*
X64087921Y66905479D01*
X64181135Y67069684D01*
X64283211Y67249484D01*
X64392099Y67441273D01*
X64505753Y67641441D01*
X64622121Y67846381D01*
X64739156Y68052484D01*
X64854809Y68256143D01*
X64967032Y68453749D01*
X65073774Y68641695D01*
X65172988Y68816371D01*
X65219824Y68898826D01*
X65305453Y69049577D01*
X65393272Y69204194D01*
X65481995Y69360416D01*
X65570340Y69515980D01*
X65657021Y69668624D01*
X65740754Y69816086D01*
X65820255Y69956105D01*
X65894238Y70086418D01*
X65961421Y70204764D01*
X66020518Y70308879D01*
X66070244Y70396503D01*
X66078914Y70411783D01*
X66141019Y70521220D01*
X66205566Y70634927D01*
X66270622Y70749497D01*
X66334252Y70861526D01*
X66394522Y70967608D01*
X66449496Y71064337D01*
X66497240Y71148308D01*
X66532261Y71209861D01*
X66697372Y71499939D01*
X66868470Y71198818D01*
X66909012Y71127488D01*
X66958553Y71040362D01*
X67015160Y70940833D01*
X67076904Y70832298D01*
X67141850Y70718152D01*
X67208069Y70601789D01*
X67273628Y70486607D01*
X67335085Y70378652D01*
X67395427Y70272647D01*
X67456096Y70166030D01*
X67515521Y70061562D01*
X67572133Y69962004D01*
X67624364Y69870116D01*
X67670643Y69788659D01*
X67709402Y69720393D01*
X67739070Y69668078D01*
X67743178Y69660826D01*
X67774122Y69606229D01*
X67814034Y69535877D01*
X67860957Y69453215D01*
X67912936Y69361685D01*
X67968016Y69264731D01*
X68024242Y69165796D01*
X68079657Y69068323D01*
X68090314Y69049581D01*
X68324875Y68637119D01*
X68088909Y68398016D01*
X68021666Y68329724D01*
X67968248Y68274921D01*
X67926858Y68231479D01*
X67895703Y68197270D01*
X67872989Y68170166D01*
X67856920Y68148038D01*
X67845702Y68128759D01*
X67837541Y68110199D01*
X67831424Y68092652D01*
X67816227Y68026502D01*
X67810106Y67947183D01*
X67809899Y67927000D01*
X67813317Y67853797D01*
X67824455Y67784830D01*
X67844620Y67717855D01*
X67875122Y67650627D01*
X67917270Y67580899D01*
X67972373Y67506427D01*
X68041740Y67424966D01*
X68126681Y67334269D01*
X68196787Y67263409D01*
X68252526Y67207635D01*
X68303876Y67155504D01*
X68348471Y67109476D01*
X68383945Y67072015D01*
X68407932Y67045582D01*
X68417292Y67033982D01*
X68434822Y66988081D01*
X68436291Y66932239D01*
X68423248Y66869843D01*
X68397244Y66804278D01*
X68359829Y66738931D01*
X68312554Y66677188D01*
X68256970Y66622437D01*
X68214092Y66590180D01*
X68172336Y66562547D01*
X68187982Y66501117D01*
X68195534Y66466961D01*
X68198852Y66442290D01*
X68197920Y66433978D01*
X68185236Y66434281D01*
X68159194Y66441375D01*
X68141021Y66447820D01*
X68082545Y66479455D01*
X68025484Y66526843D01*
X67975988Y66584160D01*
X67946741Y66631714D01*
X67923118Y66671989D01*
X67902740Y66691379D01*
X67884181Y66690583D01*
X67866555Y66671165D01*
X67861887Y66654896D01*
X67866852Y66631330D01*
X67882649Y66595043D01*
X67883998Y66592280D01*
X67933009Y66512501D01*
X67993267Y66450945D01*
X68038148Y66420529D01*
X68070444Y66399936D01*
X68081999Y66386210D01*
X68072726Y66378378D01*
X68042531Y66375468D01*
X68033955Y66375392D01*
X68001010Y66373113D01*
X67958033Y66367113D01*
X67911224Y66358642D01*
X67866781Y66348951D01*
X67830904Y66339293D01*
X67809792Y66330919D01*
X67808249Y66329824D01*
X67801058Y66312081D01*
X67803639Y66288184D01*
X67814549Y66271005D01*
X67814860Y66270807D01*
X67828428Y66270738D01*
X67858461Y66274525D01*
X67899817Y66281444D01*
X67926723Y66286559D01*
X67981718Y66296781D01*
X68037561Y66306057D01*
X68084660Y66312825D01*
X68097000Y66314280D01*
X68163261Y66321400D01*
X68130131Y66300462D01*
X68092237Y66270596D01*
X68055009Y66230895D01*
X68020387Y66184953D01*
X67990307Y66136363D01*
X67966710Y66088719D01*
X67951532Y66045614D01*
X67946712Y66010642D01*
X67954189Y65987397D01*
X67959056Y65983287D01*
X67982405Y65979603D01*
X68004542Y65996673D01*
X68024007Y66033165D01*
X68028871Y66046964D01*
X68047040Y66090590D01*
X68072323Y66136634D01*
X68086189Y66157301D01*
X68115205Y66191606D01*
X68149541Y66224793D01*
X68184092Y66252660D01*
X68213752Y66271004D01*
X68230395Y66276000D01*
X68240922Y66266274D01*
X68253353Y66241158D01*
X68261897Y66216224D01*
X68279275Y66156447D01*
X68334905Y66176781D01*
X68436154Y66224796D01*
X68532314Y66291691D01*
X68620027Y66374325D01*
X68695935Y66469560D01*
X68753962Y66568652D01*
X68779437Y66635250D01*
X68799736Y66717445D01*
X68814246Y66809221D01*
X68822353Y66904565D01*
X68823445Y66997463D01*
X68816910Y67081900D01*
X68810217Y67120826D01*
X68797658Y67170923D01*
X68781507Y67216661D01*
X68759823Y67260824D01*
X68730663Y67306196D01*
X68692085Y67355559D01*
X68642145Y67411698D01*
X68578902Y67477397D01*
X68521229Y67534957D01*
X68465079Y67591087D01*
X68412517Y67644975D01*
X68366181Y67693811D01*
X68328708Y67734785D01*
X68302737Y67765088D01*
X68293154Y67777913D01*
X68273510Y67811441D01*
X68253792Y67850269D01*
X68237044Y67887742D01*
X68226311Y67917203D01*
X68224000Y67929100D01*
X68231500Y67939684D01*
X68252038Y67962592D01*
X68282676Y67994897D01*
X68320471Y68033675D01*
X68362484Y68076001D01*
X68405774Y68118950D01*
X68447402Y68159598D01*
X68484426Y68195018D01*
X68513906Y68222287D01*
X68532902Y68238479D01*
X68538230Y68241679D01*
X68546637Y68232451D01*
X68564217Y68206528D01*
X68589375Y68166497D01*
X68620513Y68114945D01*
X68656034Y68054460D01*
X68686475Y68001483D01*
X68715547Y67950391D01*
X68754217Y67882401D01*
X68801176Y67799819D01*
X68855111Y67704950D01*
X68914713Y67600101D01*
X68978670Y67487577D01*
X69045671Y67369685D01*
X69114407Y67248731D01*
X69183565Y67127020D01*
X69215320Y67071131D01*
X69284574Y66949252D01*
X69362931Y66811377D01*
X69448572Y66660708D01*
X69539675Y66500445D01*
X69634422Y66333789D01*
X69730993Y66163941D01*
X69827566Y65994102D01*
X69922323Y65827474D01*
X70013444Y65667257D01*
X70099108Y65516653D01*
X70106899Y65502957D01*
X70225432Y65294576D01*
X70333501Y65104573D01*
X70431569Y64932133D01*
X70520098Y64776437D01*
X70599550Y64636671D01*
X70670389Y64512017D01*
X70733077Y64401660D01*
X70788077Y64304783D01*
X70835852Y64220569D01*
X70876864Y64148202D01*
X70911575Y64086866D01*
X70940450Y64035744D01*
X70963950Y63994020D01*
X70982538Y63960877D01*
X70996677Y63935499D01*
X71006829Y63917070D01*
X71013457Y63904774D01*
X71017024Y63897793D01*
X71018000Y63895365D01*
X71669565Y63895365D01*
X71669565Y64220077D01*
X71505307Y64505365D01*
X71467981Y64570160D01*
X71421322Y64651103D01*
X71367048Y64745219D01*
X71306874Y64849530D01*
X71242519Y64961061D01*
X71175700Y65076836D01*
X71108133Y65193879D01*
X71041536Y65309214D01*
X71012556Y65359392D01*
X70945036Y65476314D01*
X70874247Y65598935D01*
X70802149Y65723857D01*
X70730701Y65847685D01*
X70661861Y65967022D01*
X70597590Y66078474D01*
X70539846Y66178642D01*
X70490588Y66264133D01*
X70477394Y66287044D01*
X70421032Y66384879D01*
X70356717Y66496449D01*
X70287555Y66616368D01*
X70216652Y66739252D01*
X70147114Y66859717D01*
X70082048Y66972379D01*
X70044129Y67038000D01*
X69994110Y67124562D01*
X69935090Y67226736D01*
X69869102Y67341002D01*
X69798177Y67463840D01*
X69724349Y67591728D01*
X69649649Y67721146D01*
X69576112Y67848574D01*
X69505768Y67970490D01*
X69483075Y68009826D01*
X69417927Y68122743D01*
X69351822Y68237292D01*
X69286335Y68350743D01*
X69223044Y68460365D01*
X69163525Y68563426D01*
X69109357Y68657195D01*
X69062117Y68738942D01*
X69023380Y68805935D01*
X69004776Y68838087D01*
X68966773Y68903788D01*
X68919916Y68984877D01*
X68866372Y69077603D01*
X68808305Y69178212D01*
X68747882Y69282951D01*
X68687269Y69388068D01*
X68628631Y69489811D01*
X68615997Y69511739D01*
X68562256Y69605000D01*
X68509577Y69696375D01*
X68459486Y69783217D01*
X68413512Y69862878D01*
X68373184Y69932711D01*
X68340030Y69990069D01*
X68315577Y70032303D01*
X68306843Y70047348D01*
X68287584Y70080549D01*
X68258807Y70130267D01*
X68222027Y70193881D01*
X68178755Y70268772D01*
X68130506Y70352321D01*
X68078791Y70441909D01*
X68025126Y70534916D01*
X67994230Y70588479D01*
X67875826Y70793777D01*
X67767998Y70980737D01*
X67670287Y71150151D01*
X67582235Y71302815D01*
X67503385Y71439523D01*
X67433278Y71561068D01*
X67371455Y71668246D01*
X67317459Y71761850D01*
X67270831Y71842675D01*
X67231114Y71911514D01*
X67197848Y71969163D01*
X67170576Y72016415D01*
X67148840Y72054064D01*
X67132182Y72082905D01*
X67120142Y72103733D01*
X67112263Y72117341D01*
X67108672Y72123522D01*
X67095334Y72146532D01*
X67074135Y72183252D01*
X67048216Y72228238D01*
X67025867Y72267087D01*
X66976695Y72347216D01*
X66931052Y72408549D01*
X66886003Y72453411D01*
X66838616Y72484128D01*
X66785956Y72503025D01*
X66725092Y72512426D01*
X66715429Y72513138D01*
X66669030Y72514760D01*
X66633716Y72511130D01*
X66633716Y72511130D01*
G37*
X66633716Y72511130D02*
X66598744Y72500382D01*
X66568805Y72487663D01*
X66527857Y72465997D01*
X66490760Y72440810D01*
X66469566Y72421693D01*
X66460850Y72410526D01*
X66448369Y72392372D01*
X66431535Y72366232D01*
X66409758Y72331106D01*
X66382451Y72285994D01*
X66349024Y72229897D01*
X66308889Y72161815D01*
X66261456Y72080749D01*
X66206137Y71985698D01*
X66142343Y71875663D01*
X66069485Y71749645D01*
X65986975Y71606643D01*
X65894223Y71445658D01*
X65874394Y71411218D01*
X65812493Y71303736D01*
X65743423Y71183873D01*
X65670381Y71057172D01*
X65596563Y70929174D01*
X65525164Y70805423D01*
X65459382Y70691461D01*
X65419040Y70621609D01*
X65341730Y70487773D01*
X65259230Y70344932D01*
X65172911Y70195461D01*
X65084145Y70041736D01*
X64994304Y69886133D01*
X64904759Y69731028D01*
X64816881Y69578797D01*
X64732042Y69431817D01*
X64651615Y69292462D01*
X64576970Y69163109D01*
X64509478Y69046134D01*
X64450512Y68943913D01*
X64408590Y68871218D01*
X64311658Y68703130D01*
X64215997Y68537301D01*
X64123014Y68376170D01*
X64034118Y68222176D01*
X63950719Y68077760D01*
X63874224Y67945361D01*
X63806043Y67827419D01*
X63751847Y67733739D01*
X63715129Y67670265D01*
X63669054Y67590558D01*
X63615298Y67497519D01*
X63555536Y67394049D01*
X63491443Y67283051D01*
X63424696Y67167425D01*
X63356968Y67050074D01*
X63289937Y66933897D01*
X63254432Y66872348D01*
X63186801Y66755112D01*
X63116222Y66632798D01*
X63044581Y66508670D01*
X62973761Y66385989D01*
X62905645Y66268020D01*
X62842119Y66158024D01*
X62785064Y66059265D01*
X62736367Y65975006D01*
X62718842Y65944696D01*
X62661733Y65845898D01*
X62596955Y65733762D01*
X62527859Y65614091D01*
X62457795Y65492689D01*
X62390113Y65375360D01*
X62328162Y65267908D01*
X62307696Y65232392D01*
X62249929Y65132153D01*
X62186336Y65021841D01*
X62120015Y64906829D01*
X62054065Y64792489D01*
X61991585Y64684194D01*
X61935673Y64587317D01*
X61914077Y64549911D01*
X61730435Y64231866D01*
X61730435Y63062348D01*
X71669565Y63062348D01*
X71669565Y63895365D01*
X71018000Y63895365D01*
X71007081Y63895027D01*
X70974823Y63894694D01*
X70921974Y63894369D01*
X70849280Y63894051D01*
X70757491Y63893742D01*
X70647353Y63893443D01*
X70519614Y63893154D01*
X70375023Y63892876D01*
X70214326Y63892610D01*
X70038272Y63892357D01*
X69847608Y63892118D01*
X69643081Y63891893D01*
X69425441Y63891683D01*
X69195434Y63891490D01*
X68953807Y63891313D01*
X68701310Y63891154D01*
X68438689Y63891014D01*
X68166692Y63890893D01*
X67886068Y63890793D01*
X67597563Y63890713D01*
X67301925Y63890655D01*
X66999902Y63890620D01*
X66700000Y63890609D01*
X66392472Y63890621D01*
X66090600Y63890656D01*
X65795132Y63890713D01*
X65506814Y63890792D01*
X65226396Y63890892D01*
X64954625Y63891012D01*
X64692248Y63891150D01*
X64440014Y63891308D01*
X64198669Y63891482D01*
X63968962Y63891673D01*
X63751640Y63891881D01*
X63547452Y63892103D01*
X63357144Y63892339D01*
X63181465Y63892589D01*
X63021162Y63892852D01*
X62876983Y63893126D01*
X62749675Y63893411D01*
X62639987Y63893707D01*
X62548666Y63894012D01*
X62476460Y63894325D01*
X62424116Y63894646D01*
X62392383Y63894974D01*
X62382000Y63895300D01*
X62384040Y63899976D01*
X62390468Y63912268D01*
X62401750Y63932999D01*
X62418351Y63962991D01*
X62440734Y64003066D01*
X62469366Y64054048D01*
X62504711Y64116760D01*
X62547234Y64192023D01*
X62597400Y64280661D01*
X62655673Y64383496D01*
X62722519Y64501351D01*
X62798402Y64635049D01*
X62883786Y64785412D01*
X62979138Y64953263D01*
X63084922Y65139425D01*
X63092985Y65153614D01*
X63164890Y65280152D01*
X63246004Y65422920D01*
X63334634Y65578937D01*
X63429088Y65745222D01*
X63527674Y65918797D01*
X63628698Y66096681D01*
X63730469Y66275893D01*
X63831293Y66453454D01*
X63929479Y66626383D01*
X64023334Y66791701D01*
X64087921Y66905479D01*
X64181135Y67069684D01*
X64283211Y67249484D01*
X64392099Y67441273D01*
X64505753Y67641441D01*
X64622121Y67846381D01*
X64739156Y68052484D01*
X64854809Y68256143D01*
X64967032Y68453749D01*
X65073774Y68641695D01*
X65172988Y68816371D01*
X65219824Y68898826D01*
X65305453Y69049577D01*
X65393272Y69204194D01*
X65481995Y69360416D01*
X65570340Y69515980D01*
X65657021Y69668624D01*
X65740754Y69816086D01*
X65820255Y69956105D01*
X65894238Y70086418D01*
X65961421Y70204764D01*
X66020518Y70308879D01*
X66070244Y70396503D01*
X66078914Y70411783D01*
X66141019Y70521220D01*
X66205566Y70634927D01*
X66270622Y70749497D01*
X66334252Y70861526D01*
X66394522Y70967608D01*
X66449496Y71064337D01*
X66497240Y71148308D01*
X66532261Y71209861D01*
X66697372Y71499939D01*
X66868470Y71198818D01*
X66909012Y71127488D01*
X66958553Y71040362D01*
X67015160Y70940833D01*
X67076904Y70832298D01*
X67141850Y70718152D01*
X67208069Y70601789D01*
X67273628Y70486607D01*
X67335085Y70378652D01*
X67395427Y70272647D01*
X67456096Y70166030D01*
X67515521Y70061562D01*
X67572133Y69962004D01*
X67624364Y69870116D01*
X67670643Y69788659D01*
X67709402Y69720393D01*
X67739070Y69668078D01*
X67743178Y69660826D01*
X67774122Y69606229D01*
X67814034Y69535877D01*
X67860957Y69453215D01*
X67912936Y69361685D01*
X67968016Y69264731D01*
X68024242Y69165796D01*
X68079657Y69068323D01*
X68090314Y69049581D01*
X68324875Y68637119D01*
X68088909Y68398016D01*
X68021666Y68329724D01*
X67968248Y68274921D01*
X67926858Y68231479D01*
X67895703Y68197270D01*
X67872989Y68170166D01*
X67856920Y68148038D01*
X67845702Y68128759D01*
X67837541Y68110199D01*
X67831424Y68092652D01*
X67816227Y68026502D01*
X67810106Y67947183D01*
X67809899Y67927000D01*
X67813317Y67853797D01*
X67824455Y67784830D01*
X67844620Y67717855D01*
X67875122Y67650627D01*
X67917270Y67580899D01*
X67972373Y67506427D01*
X68041740Y67424966D01*
X68126681Y67334269D01*
X68196787Y67263409D01*
X68252526Y67207635D01*
X68303876Y67155504D01*
X68348471Y67109476D01*
X68383945Y67072015D01*
X68407932Y67045582D01*
X68417292Y67033982D01*
X68434822Y66988081D01*
X68436291Y66932239D01*
X68423248Y66869843D01*
X68397244Y66804278D01*
X68359829Y66738931D01*
X68312554Y66677188D01*
X68256970Y66622437D01*
X68214092Y66590180D01*
X68172336Y66562547D01*
X68187982Y66501117D01*
X68195534Y66466961D01*
X68198852Y66442290D01*
X68197920Y66433978D01*
X68185236Y66434281D01*
X68159194Y66441375D01*
X68141021Y66447820D01*
X68082545Y66479455D01*
X68025484Y66526843D01*
X67975988Y66584160D01*
X67946741Y66631714D01*
X67923118Y66671989D01*
X67902740Y66691379D01*
X67884181Y66690583D01*
X67866555Y66671165D01*
X67861887Y66654896D01*
X67866852Y66631330D01*
X67882649Y66595043D01*
X67883998Y66592280D01*
X67933009Y66512501D01*
X67993267Y66450945D01*
X68038148Y66420529D01*
X68070444Y66399936D01*
X68081999Y66386210D01*
X68072726Y66378378D01*
X68042531Y66375468D01*
X68033955Y66375392D01*
X68001010Y66373113D01*
X67958033Y66367113D01*
X67911224Y66358642D01*
X67866781Y66348951D01*
X67830904Y66339293D01*
X67809792Y66330919D01*
X67808249Y66329824D01*
X67801058Y66312081D01*
X67803639Y66288184D01*
X67814549Y66271005D01*
X67814860Y66270807D01*
X67828428Y66270738D01*
X67858461Y66274525D01*
X67899817Y66281444D01*
X67926723Y66286559D01*
X67981718Y66296781D01*
X68037561Y66306057D01*
X68084660Y66312825D01*
X68097000Y66314280D01*
X68163261Y66321400D01*
X68130131Y66300462D01*
X68092237Y66270596D01*
X68055009Y66230895D01*
X68020387Y66184953D01*
X67990307Y66136363D01*
X67966710Y66088719D01*
X67951532Y66045614D01*
X67946712Y66010642D01*
X67954189Y65987397D01*
X67959056Y65983287D01*
X67982405Y65979603D01*
X68004542Y65996673D01*
X68024007Y66033165D01*
X68028871Y66046964D01*
X68047040Y66090590D01*
X68072323Y66136634D01*
X68086189Y66157301D01*
X68115205Y66191606D01*
X68149541Y66224793D01*
X68184092Y66252660D01*
X68213752Y66271004D01*
X68230395Y66276000D01*
X68240922Y66266274D01*
X68253353Y66241158D01*
X68261897Y66216224D01*
X68279275Y66156447D01*
X68334905Y66176781D01*
X68436154Y66224796D01*
X68532314Y66291691D01*
X68620027Y66374325D01*
X68695935Y66469560D01*
X68753962Y66568652D01*
X68779437Y66635250D01*
X68799736Y66717445D01*
X68814246Y66809221D01*
X68822353Y66904565D01*
X68823445Y66997463D01*
X68816910Y67081900D01*
X68810217Y67120826D01*
X68797658Y67170923D01*
X68781507Y67216661D01*
X68759823Y67260824D01*
X68730663Y67306196D01*
X68692085Y67355559D01*
X68642145Y67411698D01*
X68578902Y67477397D01*
X68521229Y67534957D01*
X68465079Y67591087D01*
X68412517Y67644975D01*
X68366181Y67693811D01*
X68328708Y67734785D01*
X68302737Y67765088D01*
X68293154Y67777913D01*
X68273510Y67811441D01*
X68253792Y67850269D01*
X68237044Y67887742D01*
X68226311Y67917203D01*
X68224000Y67929100D01*
X68231500Y67939684D01*
X68252038Y67962592D01*
X68282676Y67994897D01*
X68320471Y68033675D01*
X68362484Y68076001D01*
X68405774Y68118950D01*
X68447402Y68159598D01*
X68484426Y68195018D01*
X68513906Y68222287D01*
X68532902Y68238479D01*
X68538230Y68241679D01*
X68546637Y68232451D01*
X68564217Y68206528D01*
X68589375Y68166497D01*
X68620513Y68114945D01*
X68656034Y68054460D01*
X68686475Y68001483D01*
X68715547Y67950391D01*
X68754217Y67882401D01*
X68801176Y67799819D01*
X68855111Y67704950D01*
X68914713Y67600101D01*
X68978670Y67487577D01*
X69045671Y67369685D01*
X69114407Y67248731D01*
X69183565Y67127020D01*
X69215320Y67071131D01*
X69284574Y66949252D01*
X69362931Y66811377D01*
X69448572Y66660708D01*
X69539675Y66500445D01*
X69634422Y66333789D01*
X69730993Y66163941D01*
X69827566Y65994102D01*
X69922323Y65827474D01*
X70013444Y65667257D01*
X70099108Y65516653D01*
X70106899Y65502957D01*
X70225432Y65294576D01*
X70333501Y65104573D01*
X70431569Y64932133D01*
X70520098Y64776437D01*
X70599550Y64636671D01*
X70670389Y64512017D01*
X70733077Y64401660D01*
X70788077Y64304783D01*
X70835852Y64220569D01*
X70876864Y64148202D01*
X70911575Y64086866D01*
X70940450Y64035744D01*
X70963950Y63994020D01*
X70982538Y63960877D01*
X70996677Y63935499D01*
X71006829Y63917070D01*
X71013457Y63904774D01*
X71017024Y63897793D01*
X71018000Y63895365D01*
X71669565Y63895365D01*
X71669565Y64220077D01*
X71505307Y64505365D01*
X71467981Y64570160D01*
X71421322Y64651103D01*
X71367048Y64745219D01*
X71306874Y64849530D01*
X71242519Y64961061D01*
X71175700Y65076836D01*
X71108133Y65193879D01*
X71041536Y65309214D01*
X71012556Y65359392D01*
X70945036Y65476314D01*
X70874247Y65598935D01*
X70802149Y65723857D01*
X70730701Y65847685D01*
X70661861Y65967022D01*
X70597590Y66078474D01*
X70539846Y66178642D01*
X70490588Y66264133D01*
X70477394Y66287044D01*
X70421032Y66384879D01*
X70356717Y66496449D01*
X70287555Y66616368D01*
X70216652Y66739252D01*
X70147114Y66859717D01*
X70082048Y66972379D01*
X70044129Y67038000D01*
X69994110Y67124562D01*
X69935090Y67226736D01*
X69869102Y67341002D01*
X69798177Y67463840D01*
X69724349Y67591728D01*
X69649649Y67721146D01*
X69576112Y67848574D01*
X69505768Y67970490D01*
X69483075Y68009826D01*
X69417927Y68122743D01*
X69351822Y68237292D01*
X69286335Y68350743D01*
X69223044Y68460365D01*
X69163525Y68563426D01*
X69109357Y68657195D01*
X69062117Y68738942D01*
X69023380Y68805935D01*
X69004776Y68838087D01*
X68966773Y68903788D01*
X68919916Y68984877D01*
X68866372Y69077603D01*
X68808305Y69178212D01*
X68747882Y69282951D01*
X68687269Y69388068D01*
X68628631Y69489811D01*
X68615997Y69511739D01*
X68562256Y69605000D01*
X68509577Y69696375D01*
X68459486Y69783217D01*
X68413512Y69862878D01*
X68373184Y69932711D01*
X68340030Y69990069D01*
X68315577Y70032303D01*
X68306843Y70047348D01*
X68287584Y70080549D01*
X68258807Y70130267D01*
X68222027Y70193881D01*
X68178755Y70268772D01*
X68130506Y70352321D01*
X68078791Y70441909D01*
X68025126Y70534916D01*
X67994230Y70588479D01*
X67875826Y70793777D01*
X67767998Y70980737D01*
X67670287Y71150151D01*
X67582235Y71302815D01*
X67503385Y71439523D01*
X67433278Y71561068D01*
X67371455Y71668246D01*
X67317459Y71761850D01*
X67270831Y71842675D01*
X67231114Y71911514D01*
X67197848Y71969163D01*
X67170576Y72016415D01*
X67148840Y72054064D01*
X67132182Y72082905D01*
X67120142Y72103733D01*
X67112263Y72117341D01*
X67108672Y72123522D01*
X67095334Y72146532D01*
X67074135Y72183252D01*
X67048216Y72228238D01*
X67025867Y72267087D01*
X66976695Y72347216D01*
X66931052Y72408549D01*
X66886003Y72453411D01*
X66838616Y72484128D01*
X66785956Y72503025D01*
X66725092Y72512426D01*
X66715429Y72513138D01*
X66669030Y72514760D01*
X66633716Y72511130D01*
D11*
X46250000Y9000000D02*
X46250000Y10000000D01*
X46250000Y9000000D02*
X47250000Y9000000D01*
X46250000Y36750000D02*
X47250000Y36750000D01*
X46250000Y36750000D02*
X46250000Y35750000D01*
X99250000Y36750000D02*
X99250000Y35750000D01*
X99250000Y36750000D02*
X98250000Y36750000D01*
X99250000Y9000000D02*
X98250000Y9000000D01*
X99250000Y9000000D02*
X99250000Y10000000D01*
D13*
G36*
X42297262Y73572648D02*
G01*
X42113778Y73537817D01*
X42038922Y73444696D01*
X42025000Y73250000D01*
X42040615Y73048862D01*
X42119683Y72959781D01*
X42300749Y72927093D01*
X42530122Y72941692D01*
X42627380Y73033115D01*
X42646771Y73214299D01*
X42641911Y73250000D01*
X42406000Y73250000D01*
X42341571Y73167794D01*
X42321333Y73165334D01*
X42239127Y73229763D01*
X42236667Y73250000D01*
X42301096Y73332207D01*
X42321333Y73334667D01*
X42403540Y73270238D01*
X42406000Y73250000D01*
X42641911Y73250000D01*
X42623893Y73382337D01*
X42558854Y73532032D01*
X42429416Y73578773D01*
X42297262Y73572648D01*
X42297262Y73572648D01*
G37*
X42297262Y73572648D02*
X42113778Y73537817D01*
X42038922Y73444696D01*
X42025000Y73250000D01*
X42040615Y73048862D01*
X42119683Y72959781D01*
X42300749Y72927093D01*
X42530122Y72941692D01*
X42627380Y73033115D01*
X42646771Y73214299D01*
X42641911Y73250000D01*
X42406000Y73250000D01*
X42341571Y73167794D01*
X42321333Y73165334D01*
X42239127Y73229763D01*
X42236667Y73250000D01*
X42301096Y73332207D01*
X42321333Y73334667D01*
X42403540Y73270238D01*
X42406000Y73250000D01*
X42641911Y73250000D01*
X42623893Y73382337D01*
X42558854Y73532032D01*
X42429416Y73578773D01*
X42297262Y73572648D01*
G36*
X20351293Y73962139D02*
G01*
X20313164Y73792598D01*
X20308000Y73631000D01*
X20308000Y73250000D01*
X19927000Y73250000D01*
X19675878Y73233380D01*
X19561492Y73176866D01*
X19546000Y73123000D01*
X19595862Y73039293D01*
X19765403Y73001164D01*
X19927000Y72996000D01*
X20308000Y72996000D01*
X20308000Y72572667D01*
X20321596Y72306449D01*
X20368668Y72176423D01*
X20435000Y72149334D01*
X20491847Y72175936D01*
X20529277Y72273637D01*
X20550951Y72469273D01*
X20560528Y72789685D01*
X20562000Y73080667D01*
X20558373Y73497544D01*
X20545050Y73772034D01*
X20518372Y73930975D01*
X20474680Y74001207D01*
X20435000Y74012000D01*
X20351293Y73962139D01*
X20351293Y73962139D01*
G37*
X20351293Y73962139D02*
X20313164Y73792598D01*
X20308000Y73631000D01*
X20308000Y73250000D01*
X19927000Y73250000D01*
X19675878Y73233380D01*
X19561492Y73176866D01*
X19546000Y73123000D01*
X19595862Y73039293D01*
X19765403Y73001164D01*
X19927000Y72996000D01*
X20308000Y72996000D01*
X20308000Y72572667D01*
X20321596Y72306449D01*
X20368668Y72176423D01*
X20435000Y72149334D01*
X20491847Y72175936D01*
X20529277Y72273637D01*
X20550951Y72469273D01*
X20560528Y72789685D01*
X20562000Y73080667D01*
X20558373Y73497544D01*
X20545050Y73772034D01*
X20518372Y73930975D01*
X20474680Y74001207D01*
X20435000Y74012000D01*
X20351293Y73962139D01*
G36*
X25676174Y73936326D02*
G01*
X25645885Y73744863D01*
X25642000Y73631000D01*
X25642000Y73250000D01*
X25218667Y73250000D01*
X24952448Y73236405D01*
X24822423Y73189332D01*
X24795333Y73123000D01*
X24840653Y73043135D01*
X24997561Y73004127D01*
X25218667Y72996000D01*
X25642000Y72996000D01*
X25642000Y72572667D01*
X25657230Y72331180D01*
X25696169Y72177902D01*
X25726667Y72149334D01*
X25764869Y72230293D01*
X25792825Y72458746D01*
X25808568Y72813056D01*
X25811333Y73080667D01*
X25803974Y73500891D01*
X25783205Y73808407D01*
X25750995Y73981579D01*
X25726667Y74012000D01*
X25676174Y73936326D01*
X25676174Y73936326D01*
G37*
X25676174Y73936326D02*
X25645885Y73744863D01*
X25642000Y73631000D01*
X25642000Y73250000D01*
X25218667Y73250000D01*
X24952448Y73236405D01*
X24822423Y73189332D01*
X24795333Y73123000D01*
X24840653Y73043135D01*
X24997561Y73004127D01*
X25218667Y72996000D01*
X25642000Y72996000D01*
X25642000Y72572667D01*
X25657230Y72331180D01*
X25696169Y72177902D01*
X25726667Y72149334D01*
X25764869Y72230293D01*
X25792825Y72458746D01*
X25808568Y72813056D01*
X25811333Y73080667D01*
X25803974Y73500891D01*
X25783205Y73808407D01*
X25750995Y73981579D01*
X25726667Y74012000D01*
X25676174Y73936326D01*
G36*
X28300840Y73936326D02*
G01*
X28270552Y73744863D01*
X28266667Y73631000D01*
X28266667Y73250000D01*
X27843333Y73250000D01*
X27577115Y73236405D01*
X27447089Y73189332D01*
X27420000Y73123000D01*
X27465320Y73043135D01*
X27622227Y73004127D01*
X27843333Y72996000D01*
X28266667Y72996000D01*
X28266667Y72572667D01*
X28281896Y72331180D01*
X28320835Y72177902D01*
X28351333Y72149334D01*
X28389536Y72230293D01*
X28417492Y72458746D01*
X28433235Y72813056D01*
X28436000Y73080667D01*
X28428640Y73500891D01*
X28407872Y73808407D01*
X28375662Y73981579D01*
X28351333Y74012000D01*
X28300840Y73936326D01*
X28300840Y73936326D01*
G37*
X28300840Y73936326D02*
X28270552Y73744863D01*
X28266667Y73631000D01*
X28266667Y73250000D01*
X27843333Y73250000D01*
X27577115Y73236405D01*
X27447089Y73189332D01*
X27420000Y73123000D01*
X27465320Y73043135D01*
X27622227Y73004127D01*
X27843333Y72996000D01*
X28266667Y72996000D01*
X28266667Y72572667D01*
X28281896Y72331180D01*
X28320835Y72177902D01*
X28351333Y72149334D01*
X28389536Y72230293D01*
X28417492Y72458746D01*
X28433235Y72813056D01*
X28436000Y73080667D01*
X28428640Y73500891D01*
X28407872Y73808407D01*
X28375662Y73981579D01*
X28351333Y74012000D01*
X28300840Y73936326D01*
G36*
X30880774Y74495471D02*
G01*
X30844522Y74405184D01*
X30822020Y74224092D01*
X30810379Y73927148D01*
X30806709Y73489303D01*
X30806667Y73419334D01*
X30806667Y72318667D01*
X30214000Y72318667D01*
X29909976Y72307480D01*
X29699899Y72277496D01*
X29621334Y72234083D01*
X29621333Y72234000D01*
X29700925Y72192768D01*
X29919831Y72163569D01*
X30248246Y72149910D01*
X30341000Y72149334D01*
X31060667Y72149334D01*
X31060667Y73334667D01*
X31058125Y73812722D01*
X31048765Y74145756D01*
X31029989Y74358030D01*
X30999197Y74473805D01*
X30953790Y74517340D01*
X30933667Y74520000D01*
X30880774Y74495471D01*
X30880774Y74495471D01*
G37*
X30880774Y74495471D02*
X30844522Y74405184D01*
X30822020Y74224092D01*
X30810379Y73927148D01*
X30806709Y73489303D01*
X30806667Y73419334D01*
X30806667Y72318667D01*
X30214000Y72318667D01*
X29909976Y72307480D01*
X29699899Y72277496D01*
X29621334Y72234083D01*
X29621333Y72234000D01*
X29700925Y72192768D01*
X29919831Y72163569D01*
X30248246Y72149910D01*
X30341000Y72149334D01*
X31060667Y72149334D01*
X31060667Y73334667D01*
X31058125Y73812722D01*
X31048765Y74145756D01*
X31029989Y74358030D01*
X30999197Y74473805D01*
X30953790Y74517340D01*
X30933667Y74520000D01*
X30880774Y74495471D01*
G36*
X18241886Y74353053D02*
G01*
X18215838Y74115451D01*
X18198751Y73736386D01*
X18191520Y73229719D01*
X18191333Y73123000D01*
X18196642Y72594225D01*
X18211971Y72190486D01*
X18236427Y71925642D01*
X18269115Y71813553D01*
X18276000Y71810667D01*
X18310115Y71892948D01*
X18336162Y72130550D01*
X18353249Y72509615D01*
X18360481Y73016282D01*
X18360667Y73123000D01*
X18355358Y73651776D01*
X18340029Y74055515D01*
X18315573Y74320359D01*
X18282885Y74432448D01*
X18276000Y74435334D01*
X18241886Y74353053D01*
X18241886Y74353053D01*
G37*
X18241886Y74353053D02*
X18215838Y74115451D01*
X18198751Y73736386D01*
X18191520Y73229719D01*
X18191333Y73123000D01*
X18196642Y72594225D01*
X18211971Y72190486D01*
X18236427Y71925642D01*
X18269115Y71813553D01*
X18276000Y71810667D01*
X18310115Y71892948D01*
X18336162Y72130550D01*
X18353249Y72509615D01*
X18360481Y73016282D01*
X18360667Y73123000D01*
X18355358Y73651776D01*
X18340029Y74055515D01*
X18315573Y74320359D01*
X18282885Y74432448D01*
X18276000Y74435334D01*
X18241886Y74353053D01*
G36*
X17619833Y74519869D02*
G01*
X17188290Y74453430D01*
X16847781Y74271344D01*
X16615517Y73998874D01*
X16508710Y73661283D01*
X16544572Y73283832D01*
X16631155Y73068764D01*
X16713695Y72883230D01*
X16707732Y72766892D01*
X16631155Y72664135D01*
X16564009Y72522685D01*
X16517217Y72303376D01*
X16494874Y72061976D01*
X16501072Y71854247D01*
X16539907Y71735955D01*
X16562284Y71726000D01*
X16646236Y71782214D01*
X16818967Y71933220D01*
X17051045Y72152567D01*
X17197284Y72296717D01*
X17768000Y72867433D01*
X17768000Y72339050D01*
X17780409Y72060206D01*
X17813053Y71870250D01*
X17852667Y71810667D01*
X17886405Y71893046D01*
X17912264Y72131325D01*
X17929412Y72512216D01*
X17937020Y73022434D01*
X17937333Y73165334D01*
X17937333Y74266000D01*
X17768000Y74266000D01*
X17768000Y73212223D01*
X17239449Y72678932D01*
X17003322Y72453529D01*
X16814219Y72297125D01*
X16699947Y72231580D01*
X16679793Y72238956D01*
X16712924Y72355264D01*
X16834292Y72524341D01*
X16869677Y72562936D01*
X17032555Y72768576D01*
X17088488Y72921324D01*
X17029074Y72993619D01*
X17001680Y72996000D01*
X16914357Y73066587D01*
X16811473Y73241052D01*
X16790569Y73288284D01*
X16727124Y73622719D01*
X16811070Y73915189D01*
X17020881Y74135629D01*
X17335033Y74253972D01*
X17490506Y74266000D01*
X17768000Y74266000D01*
X17937333Y74266000D01*
X17937333Y74520000D01*
X17619833Y74519869D01*
X17619833Y74519869D01*
G37*
X17619833Y74519869D02*
X17188290Y74453430D01*
X16847781Y74271344D01*
X16615517Y73998874D01*
X16508710Y73661283D01*
X16544572Y73283832D01*
X16631155Y73068764D01*
X16713695Y72883230D01*
X16707732Y72766892D01*
X16631155Y72664135D01*
X16564009Y72522685D01*
X16517217Y72303376D01*
X16494874Y72061976D01*
X16501072Y71854247D01*
X16539907Y71735955D01*
X16562284Y71726000D01*
X16646236Y71782214D01*
X16818967Y71933220D01*
X17051045Y72152567D01*
X17197284Y72296717D01*
X17768000Y72867433D01*
X17768000Y72339050D01*
X17780409Y72060206D01*
X17813053Y71870250D01*
X17852667Y71810667D01*
X17886405Y71893046D01*
X17912264Y72131325D01*
X17929412Y72512216D01*
X17937020Y73022434D01*
X17937333Y73165334D01*
X17937333Y74266000D01*
X17768000Y74266000D01*
X17768000Y73212223D01*
X17239449Y72678932D01*
X17003322Y72453529D01*
X16814219Y72297125D01*
X16699947Y72231580D01*
X16679793Y72238956D01*
X16712924Y72355264D01*
X16834292Y72524341D01*
X16869677Y72562936D01*
X17032555Y72768576D01*
X17088488Y72921324D01*
X17029074Y72993619D01*
X17001680Y72996000D01*
X16914357Y73066587D01*
X16811473Y73241052D01*
X16790569Y73288284D01*
X16727124Y73622719D01*
X16811070Y73915189D01*
X17020881Y74135629D01*
X17335033Y74253972D01*
X17490506Y74266000D01*
X17768000Y74266000D01*
X17937333Y74266000D01*
X17937333Y74520000D01*
X17619833Y74519869D01*
G36*
X19637123Y74516373D02*
G01*
X19362633Y74503050D01*
X19203692Y74476372D01*
X19133461Y74432680D01*
X19122667Y74393000D01*
X19150645Y74333778D01*
X19253148Y74295756D01*
X19458027Y74274756D01*
X19793134Y74266602D01*
X19969333Y74266000D01*
X20816000Y74266000D01*
X20816000Y71895334D01*
X19969333Y71895334D01*
X19576014Y71887284D01*
X19291650Y71864762D01*
X19140638Y71830207D01*
X19122667Y71810667D01*
X19203626Y71772465D01*
X19432079Y71744509D01*
X19786389Y71728766D01*
X20054000Y71726000D01*
X20985333Y71726000D01*
X20985333Y74520000D01*
X20054000Y74520000D01*
X19637123Y74516373D01*
X19637123Y74516373D01*
G37*
X19637123Y74516373D02*
X19362633Y74503050D01*
X19203692Y74476372D01*
X19133461Y74432680D01*
X19122667Y74393000D01*
X19150645Y74333778D01*
X19253148Y74295756D01*
X19458027Y74274756D01*
X19793134Y74266602D01*
X19969333Y74266000D01*
X20816000Y74266000D01*
X20816000Y71895334D01*
X19969333Y71895334D01*
X19576014Y71887284D01*
X19291650Y71864762D01*
X19140638Y71830207D01*
X19122667Y71810667D01*
X19203626Y71772465D01*
X19432079Y71744509D01*
X19786389Y71728766D01*
X20054000Y71726000D01*
X20985333Y71726000D01*
X20985333Y74520000D01*
X20054000Y74520000D01*
X19637123Y74516373D01*
G36*
X22419509Y74422433D02*
G01*
X22223425Y74367798D01*
X22056739Y74247530D01*
X21994821Y74187847D01*
X21802774Y73883488D01*
X21738899Y73512349D01*
X21810291Y73126032D01*
X21839215Y73056311D01*
X21968654Y72874363D01*
X22155467Y72723111D01*
X22359256Y72619717D01*
X22539623Y72581344D01*
X22656170Y72625155D01*
X22678667Y72699667D01*
X22608622Y72804118D01*
X22516860Y72826667D01*
X22341096Y72897318D01*
X22153103Y73072908D01*
X21997564Y73298893D01*
X21919160Y73520728D01*
X21916667Y73559343D01*
X21992483Y73812371D01*
X22187240Y74043361D01*
X22451904Y74208881D01*
X22714487Y74266001D01*
X23017333Y74266000D01*
X23017333Y72996000D01*
X23022812Y72478442D01*
X23038604Y72084826D01*
X23063744Y71829626D01*
X23097267Y71727318D01*
X23102000Y71726000D01*
X23135739Y71808379D01*
X23161597Y72046658D01*
X23178745Y72427549D01*
X23186353Y72937767D01*
X23186667Y73080667D01*
X23186667Y74435334D01*
X22714487Y74435334D01*
X22419509Y74422433D01*
X22419509Y74422433D01*
G37*
X22419509Y74422433D02*
X22223425Y74367798D01*
X22056739Y74247530D01*
X21994821Y74187847D01*
X21802774Y73883488D01*
X21738899Y73512349D01*
X21810291Y73126032D01*
X21839215Y73056311D01*
X21968654Y72874363D01*
X22155467Y72723111D01*
X22359256Y72619717D01*
X22539623Y72581344D01*
X22656170Y72625155D01*
X22678667Y72699667D01*
X22608622Y72804118D01*
X22516860Y72826667D01*
X22341096Y72897318D01*
X22153103Y73072908D01*
X21997564Y73298893D01*
X21919160Y73520728D01*
X21916667Y73559343D01*
X21992483Y73812371D01*
X22187240Y74043361D01*
X22451904Y74208881D01*
X22714487Y74266001D01*
X23017333Y74266000D01*
X23017333Y72996000D01*
X23022812Y72478442D01*
X23038604Y72084826D01*
X23063744Y71829626D01*
X23097267Y71727318D01*
X23102000Y71726000D01*
X23135739Y71808379D01*
X23161597Y72046658D01*
X23178745Y72427549D01*
X23186353Y72937767D01*
X23186667Y73080667D01*
X23186667Y74435334D01*
X22714487Y74435334D01*
X22419509Y74422433D01*
G36*
X23491959Y74437530D02*
G01*
X23466285Y74198621D01*
X23449086Y73816024D01*
X23441134Y73302493D01*
X23440667Y73123000D01*
X23445665Y72572318D01*
X23460144Y72148707D01*
X23483332Y71864919D01*
X23514455Y71733706D01*
X23525333Y71726000D01*
X23558708Y71808471D01*
X23584382Y72047380D01*
X23601581Y72429977D01*
X23609533Y72943508D01*
X23610000Y73123000D01*
X23605002Y73673683D01*
X23590523Y74097294D01*
X23567335Y74381082D01*
X23536212Y74512295D01*
X23525333Y74520000D01*
X23491959Y74437530D01*
X23491959Y74437530D01*
G37*
X23491959Y74437530D02*
X23466285Y74198621D01*
X23449086Y73816024D01*
X23441134Y73302493D01*
X23440667Y73123000D01*
X23445665Y72572318D01*
X23460144Y72148707D01*
X23483332Y71864919D01*
X23514455Y71733706D01*
X23525333Y71726000D01*
X23558708Y71808471D01*
X23584382Y72047380D01*
X23601581Y72429977D01*
X23609533Y72943508D01*
X23610000Y73123000D01*
X23605002Y73673683D01*
X23590523Y74097294D01*
X23567335Y74381082D01*
X23536212Y74512295D01*
X23525333Y74520000D01*
X23491959Y74437530D01*
G36*
X24886457Y74516373D02*
G01*
X24611967Y74503050D01*
X24453025Y74476372D01*
X24382794Y74432680D01*
X24372000Y74393000D01*
X24399978Y74333778D01*
X24502481Y74295756D01*
X24707360Y74274756D01*
X25042468Y74266602D01*
X25218667Y74266000D01*
X26065333Y74266000D01*
X26065333Y71895334D01*
X25218667Y71895334D01*
X24825347Y71887284D01*
X24540983Y71864762D01*
X24389972Y71830207D01*
X24372000Y71810667D01*
X24452959Y71772465D01*
X24681412Y71744509D01*
X25035722Y71728766D01*
X25303333Y71726000D01*
X26234667Y71726000D01*
X26234667Y74520000D01*
X25303333Y74520000D01*
X24886457Y74516373D01*
X24886457Y74516373D01*
G37*
X24886457Y74516373D02*
X24611967Y74503050D01*
X24453025Y74476372D01*
X24382794Y74432680D01*
X24372000Y74393000D01*
X24399978Y74333778D01*
X24502481Y74295756D01*
X24707360Y74274756D01*
X25042468Y74266602D01*
X25218667Y74266000D01*
X26065333Y74266000D01*
X26065333Y71895334D01*
X25218667Y71895334D01*
X24825347Y71887284D01*
X24540983Y71864762D01*
X24389972Y71830207D01*
X24372000Y71810667D01*
X24452959Y71772465D01*
X24681412Y71744509D01*
X25035722Y71728766D01*
X25303333Y71726000D01*
X26234667Y71726000D01*
X26234667Y74520000D01*
X25303333Y74520000D01*
X24886457Y74516373D01*
G36*
X27511123Y74516373D02*
G01*
X27236633Y74503050D01*
X27077692Y74476372D01*
X27007461Y74432680D01*
X26996667Y74393000D01*
X27024645Y74333778D01*
X27127148Y74295756D01*
X27332027Y74274756D01*
X27667134Y74266602D01*
X27843333Y74266000D01*
X28690000Y74266000D01*
X28690000Y71895334D01*
X27843333Y71895334D01*
X27450014Y71887284D01*
X27165650Y71864762D01*
X27014638Y71830207D01*
X26996667Y71810667D01*
X27077626Y71772465D01*
X27306079Y71744509D01*
X27660389Y71728766D01*
X27928000Y71726000D01*
X28859333Y71726000D01*
X28859333Y74520000D01*
X27928000Y74520000D01*
X27511123Y74516373D01*
X27511123Y74516373D01*
G37*
X27511123Y74516373D02*
X27236633Y74503050D01*
X27077692Y74476372D01*
X27007461Y74432680D01*
X26996667Y74393000D01*
X27024645Y74333778D01*
X27127148Y74295756D01*
X27332027Y74274756D01*
X27667134Y74266602D01*
X27843333Y74266000D01*
X28690000Y74266000D01*
X28690000Y71895334D01*
X27843333Y71895334D01*
X27450014Y71887284D01*
X27165650Y71864762D01*
X27014638Y71830207D01*
X26996667Y71810667D01*
X27077626Y71772465D01*
X27306079Y71744509D01*
X27660389Y71728766D01*
X27928000Y71726000D01*
X28859333Y71726000D01*
X28859333Y74520000D01*
X27928000Y74520000D01*
X27511123Y74516373D01*
G36*
X29990525Y71885970D02*
G01*
X29742335Y71860216D01*
X29626232Y71821579D01*
X29621333Y71810667D01*
X29700925Y71769435D01*
X29919831Y71740236D01*
X30248246Y71726577D01*
X30341000Y71726000D01*
X30691475Y71735364D01*
X30939666Y71761118D01*
X31055768Y71799755D01*
X31060667Y71810667D01*
X30981075Y71851899D01*
X30762169Y71881098D01*
X30433754Y71894757D01*
X30341000Y71895334D01*
X29990525Y71885970D01*
X29990525Y71885970D01*
G37*
X29990525Y71885970D02*
X29742335Y71860216D01*
X29626232Y71821579D01*
X29621333Y71810667D01*
X29700925Y71769435D01*
X29919831Y71740236D01*
X30248246Y71726577D01*
X30341000Y71726000D01*
X30691475Y71735364D01*
X30939666Y71761118D01*
X31055768Y71799755D01*
X31060667Y71810667D01*
X30981075Y71851899D01*
X30762169Y71881098D01*
X30433754Y71894757D01*
X30341000Y71895334D01*
X29990525Y71885970D01*
G36*
X31365959Y74437530D02*
G01*
X31340285Y74198621D01*
X31323086Y73816024D01*
X31315134Y73302493D01*
X31314667Y73123000D01*
X31319665Y72572318D01*
X31334144Y72148707D01*
X31357332Y71864919D01*
X31388455Y71733706D01*
X31399333Y71726000D01*
X31432708Y71808471D01*
X31458382Y72047380D01*
X31475581Y72429977D01*
X31483533Y72943508D01*
X31484000Y73123000D01*
X31479002Y73673683D01*
X31464523Y74097294D01*
X31441335Y74381082D01*
X31410212Y74512295D01*
X31399333Y74520000D01*
X31365959Y74437530D01*
X31365959Y74437530D01*
G37*
X31365959Y74437530D02*
X31340285Y74198621D01*
X31323086Y73816024D01*
X31315134Y73302493D01*
X31314667Y73123000D01*
X31319665Y72572318D01*
X31334144Y72148707D01*
X31357332Y71864919D01*
X31388455Y71733706D01*
X31399333Y71726000D01*
X31432708Y71808471D01*
X31458382Y72047380D01*
X31475581Y72429977D01*
X31483533Y72943508D01*
X31484000Y73123000D01*
X31479002Y73673683D01*
X31464523Y74097294D01*
X31441335Y74381082D01*
X31410212Y74512295D01*
X31399333Y74520000D01*
X31365959Y74437530D01*
G36*
X33009952Y74467721D02*
G01*
X32667039Y74328492D01*
X32418057Y74128724D01*
X32384033Y74082572D01*
X32313618Y73880856D01*
X32268441Y73564148D01*
X32248668Y73184273D01*
X32254470Y72793055D01*
X32286016Y72442317D01*
X32343476Y72183883D01*
X32377597Y72111867D01*
X32633735Y71872644D01*
X33014633Y71747008D01*
X33308317Y71726000D01*
X33685333Y71726000D01*
X33685333Y74266000D01*
X33516000Y74266000D01*
X33516000Y73080667D01*
X33514749Y72587556D01*
X33503470Y72242622D01*
X33470872Y72024713D01*
X33405665Y71912675D01*
X33296558Y71885358D01*
X33132262Y71921609D01*
X32933395Y71989180D01*
X32688507Y72147784D01*
X32499055Y72399143D01*
X32415875Y72673951D01*
X32415333Y72695463D01*
X32449704Y72808575D01*
X32563847Y72791423D01*
X32706682Y72696974D01*
X32905286Y72594975D01*
X33077482Y72583260D01*
X33171857Y72661536D01*
X33177333Y72699667D01*
X33107593Y72805290D01*
X33021122Y72826667D01*
X32846224Y72886141D01*
X32719417Y72987437D01*
X32626369Y73111211D01*
X32656016Y73198133D01*
X32767467Y73283770D01*
X32948142Y73384886D01*
X33069172Y73419334D01*
X33163779Y73487916D01*
X33177333Y73552039D01*
X33115313Y73635638D01*
X32946290Y73618393D01*
X32695819Y73504828D01*
X32605833Y73450899D01*
X32467836Y73378296D01*
X32420343Y73428459D01*
X32415333Y73550895D01*
X32491429Y73810862D01*
X32687383Y74045526D01*
X32954699Y74211418D01*
X33213154Y74266000D01*
X33516000Y74266000D01*
X33685333Y74266000D01*
X33685333Y74520000D01*
X33386281Y74520000D01*
X33009952Y74467721D01*
X33009952Y74467721D01*
G37*
X33009952Y74467721D02*
X32667039Y74328492D01*
X32418057Y74128724D01*
X32384033Y74082572D01*
X32313618Y73880856D01*
X32268441Y73564148D01*
X32248668Y73184273D01*
X32254470Y72793055D01*
X32286016Y72442317D01*
X32343476Y72183883D01*
X32377597Y72111867D01*
X32633735Y71872644D01*
X33014633Y71747008D01*
X33308317Y71726000D01*
X33685333Y71726000D01*
X33685333Y74266000D01*
X33516000Y74266000D01*
X33516000Y73080667D01*
X33514749Y72587556D01*
X33503470Y72242622D01*
X33470872Y72024713D01*
X33405665Y71912675D01*
X33296558Y71885358D01*
X33132262Y71921609D01*
X32933395Y71989180D01*
X32688507Y72147784D01*
X32499055Y72399143D01*
X32415875Y72673951D01*
X32415333Y72695463D01*
X32449704Y72808575D01*
X32563847Y72791423D01*
X32706682Y72696974D01*
X32905286Y72594975D01*
X33077482Y72583260D01*
X33171857Y72661536D01*
X33177333Y72699667D01*
X33107593Y72805290D01*
X33021122Y72826667D01*
X32846224Y72886141D01*
X32719417Y72987437D01*
X32626369Y73111211D01*
X32656016Y73198133D01*
X32767467Y73283770D01*
X32948142Y73384886D01*
X33069172Y73419334D01*
X33163779Y73487916D01*
X33177333Y73552039D01*
X33115313Y73635638D01*
X32946290Y73618393D01*
X32695819Y73504828D01*
X32605833Y73450899D01*
X32467836Y73378296D01*
X32420343Y73428459D01*
X32415333Y73550895D01*
X32491429Y73810862D01*
X32687383Y74045526D01*
X32954699Y74211418D01*
X33213154Y74266000D01*
X33516000Y74266000D01*
X33685333Y74266000D01*
X33685333Y74520000D01*
X33386281Y74520000D01*
X33009952Y74467721D01*
G36*
X33990262Y74352955D02*
G01*
X33964403Y74114676D01*
X33947255Y73733785D01*
X33939647Y73223567D01*
X33939333Y73080667D01*
X33944482Y72540853D01*
X33959375Y72127117D01*
X33983180Y71852745D01*
X34015069Y71731024D01*
X34024000Y71726000D01*
X34057739Y71808379D01*
X34083597Y72046658D01*
X34100745Y72427549D01*
X34108353Y72937767D01*
X34108667Y73080667D01*
X34103518Y73620481D01*
X34088626Y74034218D01*
X34064820Y74308590D01*
X34032931Y74430310D01*
X34024000Y74435334D01*
X33990262Y74352955D01*
X33990262Y74352955D01*
G37*
X33990262Y74352955D02*
X33964403Y74114676D01*
X33947255Y73733785D01*
X33939647Y73223567D01*
X33939333Y73080667D01*
X33944482Y72540853D01*
X33959375Y72127117D01*
X33983180Y71852745D01*
X34015069Y71731024D01*
X34024000Y71726000D01*
X34057739Y71808379D01*
X34083597Y72046658D01*
X34100745Y72427549D01*
X34108353Y72937767D01*
X34108667Y73080667D01*
X34103518Y73620481D01*
X34088626Y74034218D01*
X34064820Y74308590D01*
X34032931Y74430310D01*
X34024000Y74435334D01*
X33990262Y74352955D01*
G36*
X40797292Y74642167D02*
G01*
X40729600Y74587734D01*
X40633155Y74395785D01*
X40694616Y74196618D01*
X40842015Y74060581D01*
X41056030Y73920353D01*
X40798789Y73703899D01*
X40541548Y73487446D01*
X40393533Y73670237D01*
X40219844Y73802100D01*
X40093512Y73794699D01*
X39977462Y73677640D01*
X39964759Y73502783D01*
X40044544Y73337350D01*
X40180962Y73253349D01*
X40310166Y73191752D01*
X40291591Y73086259D01*
X40288091Y73080667D01*
X40222196Y72895199D01*
X40205963Y72753430D01*
X40195595Y72620027D01*
X40136228Y72606111D01*
X39987993Y72695162D01*
X39728013Y72811343D01*
X39529226Y72794663D01*
X39416582Y72652119D01*
X39400333Y72530334D01*
X39429384Y72340189D01*
X39541979Y72259375D01*
X39600599Y72247999D01*
X39793841Y72261123D01*
X39892699Y72311499D01*
X40021427Y72396532D01*
X40102965Y72328248D01*
X40140722Y72191667D01*
X40181185Y71980000D01*
X36099026Y71980000D01*
X37046398Y72530334D01*
X37993771Y73080667D01*
X38760552Y73080667D01*
X39133634Y73085568D01*
X39366457Y73103457D01*
X39487895Y73139118D01*
X39526824Y73197333D01*
X39527333Y73207667D01*
X39499067Y73267366D01*
X39395568Y73305496D01*
X39188790Y73326344D01*
X38850684Y73334196D01*
X38696332Y73334667D01*
X37865331Y73334667D01*
X36664332Y72645595D01*
X36261239Y72407602D01*
X35915731Y72190789D01*
X35652455Y72011663D01*
X35496058Y71886730D01*
X35463333Y71841262D01*
X35485898Y71819529D01*
X35560427Y71800607D01*
X35697175Y71784313D01*
X35906395Y71770467D01*
X36198342Y71758887D01*
X36583268Y71749393D01*
X37071429Y71741803D01*
X37673077Y71735936D01*
X38398467Y71731611D01*
X39257852Y71728647D01*
X40261486Y71726862D01*
X41419624Y71726077D01*
X41988875Y71726000D01*
X43198792Y71726221D01*
X44250294Y71727038D01*
X45154298Y71728680D01*
X45921724Y71731378D01*
X46563488Y71735363D01*
X47090509Y71740866D01*
X47513704Y71748116D01*
X47843992Y71757344D01*
X48092290Y71768780D01*
X48269517Y71782656D01*
X48386590Y71799201D01*
X48454427Y71818646D01*
X48483946Y71841221D01*
X48487042Y71863158D01*
X48407471Y71951041D01*
X48205935Y72103458D01*
X47908449Y72302626D01*
X47541025Y72530761D01*
X47316667Y72663235D01*
X46173667Y73326155D01*
X45266157Y73330411D01*
X44861744Y73329203D01*
X44600444Y73318541D01*
X44456131Y73294694D01*
X44402682Y73253926D01*
X44407382Y73207667D01*
X44467981Y73144765D01*
X44610900Y73105674D01*
X44865688Y73085835D01*
X45230643Y73080667D01*
X46005169Y73080667D01*
X46893751Y72564832D01*
X47239416Y72363077D01*
X47528353Y72192369D01*
X47730846Y72070410D01*
X47817176Y72014905D01*
X47817611Y72014499D01*
X47748167Y72004078D01*
X47533942Y71994919D01*
X47199486Y71987531D01*
X46769349Y71982419D01*
X46268081Y71980089D01*
X46145445Y71980000D01*
X45566845Y71980822D01*
X45135926Y71984629D01*
X44831035Y71993437D01*
X44744805Y72000243D01*
X43808612Y72000243D01*
X43725389Y71986685D01*
X43615575Y72002251D01*
X43614264Y72031153D01*
X43727581Y72051365D01*
X43776542Y72037837D01*
X43808612Y72000243D01*
X44744805Y72000243D01*
X44630522Y72009263D01*
X44512736Y72034122D01*
X44456027Y72070030D01*
X44438743Y72119003D01*
X44438000Y72138967D01*
X44434816Y72149334D01*
X44184000Y72149334D01*
X44153022Y72079644D01*
X44127556Y72092889D01*
X44117423Y72193369D01*
X44127556Y72205778D01*
X44177890Y72194156D01*
X44184000Y72149334D01*
X44434816Y72149334D01*
X44372740Y72351403D01*
X44203316Y72451680D01*
X43969262Y72417217D01*
X43958885Y72412612D01*
X43794027Y72349174D01*
X43792420Y72349563D01*
X43398730Y72349563D01*
X43376048Y72146455D01*
X43371038Y72130070D01*
X43307458Y71937667D01*
X43282883Y72036950D01*
X43041997Y72036950D01*
X42984396Y71989684D01*
X42791928Y71980001D01*
X42789979Y71980000D01*
X42561772Y72011035D01*
X42490667Y72097942D01*
X42563844Y72224740D01*
X42737417Y72307562D01*
X42833279Y72318667D01*
X42927607Y72252804D01*
X42998667Y72149334D01*
X43041997Y72036950D01*
X43282883Y72036950D01*
X43255379Y72148061D01*
X43145255Y72341439D01*
X42973983Y72486728D01*
X42791215Y72567554D01*
X42640098Y72549366D01*
X42511833Y72485171D01*
X42337289Y72335699D01*
X42251945Y72167671D01*
X42175405Y72017038D01*
X42018394Y71980000D01*
X41876012Y71996826D01*
X41874115Y72074350D01*
X41910645Y72138118D01*
X41972736Y72341851D01*
X41911157Y72498848D01*
X41749346Y72560645D01*
X41707879Y72557439D01*
X41555839Y72467871D01*
X41481938Y72300145D01*
X41505589Y72127069D01*
X41573092Y72051973D01*
X41557913Y72016582D01*
X41392512Y71998195D01*
X41095323Y71998645D01*
X41051333Y72000064D01*
X40416333Y72022334D01*
X40390594Y72286889D01*
X40406538Y72530334D01*
X39696667Y72530334D01*
X39654333Y72488000D01*
X39612000Y72530334D01*
X39654333Y72572667D01*
X39696667Y72530334D01*
X40406538Y72530334D01*
X40407917Y72551379D01*
X40485222Y72827175D01*
X40489521Y72837222D01*
X40614187Y73123000D01*
X40621094Y72864767D01*
X40683893Y72582178D01*
X40851538Y72430219D01*
X41009000Y72403334D01*
X41231810Y72465998D01*
X41361110Y72621398D01*
X41396214Y72820644D01*
X41389425Y72842699D01*
X41115167Y72842699D01*
X41093667Y72742000D01*
X40985767Y72660518D01*
X40896780Y72709235D01*
X40882000Y72779337D01*
X40929816Y72921002D01*
X40960817Y72950051D01*
X41061201Y72944348D01*
X41115167Y72842699D01*
X41389425Y72842699D01*
X41336434Y73014847D01*
X41181083Y73155116D01*
X41020120Y73194769D01*
X40841196Y73239864D01*
X40817294Y73339486D01*
X40946398Y73484823D01*
X41113047Y73600645D01*
X41497002Y73753685D01*
X41945957Y73804416D01*
X42384617Y73745353D01*
X42429884Y73731547D01*
X42664881Y73609344D01*
X42897000Y73417781D01*
X43079636Y73203712D01*
X43166183Y73013992D01*
X43168000Y72989488D01*
X43201835Y72855439D01*
X43245940Y72826667D01*
X43322364Y72752659D01*
X43377065Y72572628D01*
X43398730Y72349563D01*
X43792420Y72349563D01*
X43699368Y72372077D01*
X43637266Y72510675D01*
X43591455Y72699131D01*
X43557002Y72899059D01*
X43581784Y72971354D01*
X43641191Y72962495D01*
X43849189Y72953332D01*
X43985882Y73079916D01*
X44014667Y73219383D01*
X43961770Y73412765D01*
X43823421Y73475530D01*
X43630129Y73400457D01*
X43544692Y73330620D01*
X43395568Y73216936D01*
X43337891Y73240221D01*
X43337333Y73250952D01*
X43283273Y73391227D01*
X43160816Y73553981D01*
X42984299Y73741874D01*
X43224316Y73856912D01*
X43415612Y74006199D01*
X43456217Y74153112D01*
X43224445Y74153112D01*
X43212822Y74102777D01*
X43168000Y74096667D01*
X43098310Y74127645D01*
X43111556Y74153112D01*
X43212035Y74163245D01*
X43224445Y74153112D01*
X43456217Y74153112D01*
X43464333Y74182475D01*
X43434090Y74334680D01*
X43310244Y74402712D01*
X43196404Y74418992D01*
X42964549Y74380619D01*
X42846155Y74222530D01*
X42847578Y73999602D01*
X42808840Y73916820D01*
X42744667Y73918805D01*
X42566672Y73958236D01*
X42384833Y73991915D01*
X42225919Y74046055D01*
X42147888Y74119119D01*
X42179249Y74173222D01*
X42242291Y74181334D01*
X42299128Y74253278D01*
X42305791Y74414167D01*
X42251879Y74588571D01*
X42114482Y74645453D01*
X42067333Y74647000D01*
X41920327Y74623287D01*
X41868297Y74517959D01*
X41867209Y74380492D01*
X41852599Y74188086D01*
X41753139Y74097175D01*
X41623792Y74062992D01*
X41374711Y74020989D01*
X41255390Y74033167D01*
X41231579Y74111587D01*
X41248778Y74195022D01*
X41250220Y74350667D01*
X40966667Y74350667D01*
X40935689Y74280977D01*
X40910222Y74294223D01*
X40900089Y74394702D01*
X40910222Y74407112D01*
X40960557Y74395489D01*
X40966667Y74350667D01*
X41250220Y74350667D01*
X41250973Y74431853D01*
X41149504Y74605708D01*
X40984801Y74686006D01*
X40797292Y74642167D01*
X40797292Y74642167D01*
G37*
X40797292Y74642167D02*
X40729600Y74587734D01*
X40633155Y74395785D01*
X40694616Y74196618D01*
X40842015Y74060581D01*
X41056030Y73920353D01*
X40798789Y73703899D01*
X40541548Y73487446D01*
X40393533Y73670237D01*
X40219844Y73802100D01*
X40093512Y73794699D01*
X39977462Y73677640D01*
X39964759Y73502783D01*
X40044544Y73337350D01*
X40180962Y73253349D01*
X40310166Y73191752D01*
X40291591Y73086259D01*
X40288091Y73080667D01*
X40222196Y72895199D01*
X40205963Y72753430D01*
X40195595Y72620027D01*
X40136228Y72606111D01*
X39987993Y72695162D01*
X39728013Y72811343D01*
X39529226Y72794663D01*
X39416582Y72652119D01*
X39400333Y72530334D01*
X39429384Y72340189D01*
X39541979Y72259375D01*
X39600599Y72247999D01*
X39793841Y72261123D01*
X39892699Y72311499D01*
X40021427Y72396532D01*
X40102965Y72328248D01*
X40140722Y72191667D01*
X40181185Y71980000D01*
X36099026Y71980000D01*
X37046398Y72530334D01*
X37993771Y73080667D01*
X38760552Y73080667D01*
X39133634Y73085568D01*
X39366457Y73103457D01*
X39487895Y73139118D01*
X39526824Y73197333D01*
X39527333Y73207667D01*
X39499067Y73267366D01*
X39395568Y73305496D01*
X39188790Y73326344D01*
X38850684Y73334196D01*
X38696332Y73334667D01*
X37865331Y73334667D01*
X36664332Y72645595D01*
X36261239Y72407602D01*
X35915731Y72190789D01*
X35652455Y72011663D01*
X35496058Y71886730D01*
X35463333Y71841262D01*
X35485898Y71819529D01*
X35560427Y71800607D01*
X35697175Y71784313D01*
X35906395Y71770467D01*
X36198342Y71758887D01*
X36583268Y71749393D01*
X37071429Y71741803D01*
X37673077Y71735936D01*
X38398467Y71731611D01*
X39257852Y71728647D01*
X40261486Y71726862D01*
X41419624Y71726077D01*
X41988875Y71726000D01*
X43198792Y71726221D01*
X44250294Y71727038D01*
X45154298Y71728680D01*
X45921724Y71731378D01*
X46563488Y71735363D01*
X47090509Y71740866D01*
X47513704Y71748116D01*
X47843992Y71757344D01*
X48092290Y71768780D01*
X48269517Y71782656D01*
X48386590Y71799201D01*
X48454427Y71818646D01*
X48483946Y71841221D01*
X48487042Y71863158D01*
X48407471Y71951041D01*
X48205935Y72103458D01*
X47908449Y72302626D01*
X47541025Y72530761D01*
X47316667Y72663235D01*
X46173667Y73326155D01*
X45266157Y73330411D01*
X44861744Y73329203D01*
X44600444Y73318541D01*
X44456131Y73294694D01*
X44402682Y73253926D01*
X44407382Y73207667D01*
X44467981Y73144765D01*
X44610900Y73105674D01*
X44865688Y73085835D01*
X45230643Y73080667D01*
X46005169Y73080667D01*
X46893751Y72564832D01*
X47239416Y72363077D01*
X47528353Y72192369D01*
X47730846Y72070410D01*
X47817176Y72014905D01*
X47817611Y72014499D01*
X47748167Y72004078D01*
X47533942Y71994919D01*
X47199486Y71987531D01*
X46769349Y71982419D01*
X46268081Y71980089D01*
X46145445Y71980000D01*
X45566845Y71980822D01*
X45135926Y71984629D01*
X44831035Y71993437D01*
X44744805Y72000243D01*
X43808612Y72000243D01*
X43725389Y71986685D01*
X43615575Y72002251D01*
X43614264Y72031153D01*
X43727581Y72051365D01*
X43776542Y72037837D01*
X43808612Y72000243D01*
X44744805Y72000243D01*
X44630522Y72009263D01*
X44512736Y72034122D01*
X44456027Y72070030D01*
X44438743Y72119003D01*
X44438000Y72138967D01*
X44434816Y72149334D01*
X44184000Y72149334D01*
X44153022Y72079644D01*
X44127556Y72092889D01*
X44117423Y72193369D01*
X44127556Y72205778D01*
X44177890Y72194156D01*
X44184000Y72149334D01*
X44434816Y72149334D01*
X44372740Y72351403D01*
X44203316Y72451680D01*
X43969262Y72417217D01*
X43958885Y72412612D01*
X43794027Y72349174D01*
X43792420Y72349563D01*
X43398730Y72349563D01*
X43376048Y72146455D01*
X43371038Y72130070D01*
X43307458Y71937667D01*
X43282883Y72036950D01*
X43041997Y72036950D01*
X42984396Y71989684D01*
X42791928Y71980001D01*
X42789979Y71980000D01*
X42561772Y72011035D01*
X42490667Y72097942D01*
X42563844Y72224740D01*
X42737417Y72307562D01*
X42833279Y72318667D01*
X42927607Y72252804D01*
X42998667Y72149334D01*
X43041997Y72036950D01*
X43282883Y72036950D01*
X43255379Y72148061D01*
X43145255Y72341439D01*
X42973983Y72486728D01*
X42791215Y72567554D01*
X42640098Y72549366D01*
X42511833Y72485171D01*
X42337289Y72335699D01*
X42251945Y72167671D01*
X42175405Y72017038D01*
X42018394Y71980000D01*
X41876012Y71996826D01*
X41874115Y72074350D01*
X41910645Y72138118D01*
X41972736Y72341851D01*
X41911157Y72498848D01*
X41749346Y72560645D01*
X41707879Y72557439D01*
X41555839Y72467871D01*
X41481938Y72300145D01*
X41505589Y72127069D01*
X41573092Y72051973D01*
X41557913Y72016582D01*
X41392512Y71998195D01*
X41095323Y71998645D01*
X41051333Y72000064D01*
X40416333Y72022334D01*
X40390594Y72286889D01*
X40406538Y72530334D01*
X39696667Y72530334D01*
X39654333Y72488000D01*
X39612000Y72530334D01*
X39654333Y72572667D01*
X39696667Y72530334D01*
X40406538Y72530334D01*
X40407917Y72551379D01*
X40485222Y72827175D01*
X40489521Y72837222D01*
X40614187Y73123000D01*
X40621094Y72864767D01*
X40683893Y72582178D01*
X40851538Y72430219D01*
X41009000Y72403334D01*
X41231810Y72465998D01*
X41361110Y72621398D01*
X41396214Y72820644D01*
X41389425Y72842699D01*
X41115167Y72842699D01*
X41093667Y72742000D01*
X40985767Y72660518D01*
X40896780Y72709235D01*
X40882000Y72779337D01*
X40929816Y72921002D01*
X40960817Y72950051D01*
X41061201Y72944348D01*
X41115167Y72842699D01*
X41389425Y72842699D01*
X41336434Y73014847D01*
X41181083Y73155116D01*
X41020120Y73194769D01*
X40841196Y73239864D01*
X40817294Y73339486D01*
X40946398Y73484823D01*
X41113047Y73600645D01*
X41497002Y73753685D01*
X41945957Y73804416D01*
X42384617Y73745353D01*
X42429884Y73731547D01*
X42664881Y73609344D01*
X42897000Y73417781D01*
X43079636Y73203712D01*
X43166183Y73013992D01*
X43168000Y72989488D01*
X43201835Y72855439D01*
X43245940Y72826667D01*
X43322364Y72752659D01*
X43377065Y72572628D01*
X43398730Y72349563D01*
X43792420Y72349563D01*
X43699368Y72372077D01*
X43637266Y72510675D01*
X43591455Y72699131D01*
X43557002Y72899059D01*
X43581784Y72971354D01*
X43641191Y72962495D01*
X43849189Y72953332D01*
X43985882Y73079916D01*
X44014667Y73219383D01*
X43961770Y73412765D01*
X43823421Y73475530D01*
X43630129Y73400457D01*
X43544692Y73330620D01*
X43395568Y73216936D01*
X43337891Y73240221D01*
X43337333Y73250952D01*
X43283273Y73391227D01*
X43160816Y73553981D01*
X42984299Y73741874D01*
X43224316Y73856912D01*
X43415612Y74006199D01*
X43456217Y74153112D01*
X43224445Y74153112D01*
X43212822Y74102777D01*
X43168000Y74096667D01*
X43098310Y74127645D01*
X43111556Y74153112D01*
X43212035Y74163245D01*
X43224445Y74153112D01*
X43456217Y74153112D01*
X43464333Y74182475D01*
X43434090Y74334680D01*
X43310244Y74402712D01*
X43196404Y74418992D01*
X42964549Y74380619D01*
X42846155Y74222530D01*
X42847578Y73999602D01*
X42808840Y73916820D01*
X42744667Y73918805D01*
X42566672Y73958236D01*
X42384833Y73991915D01*
X42225919Y74046055D01*
X42147888Y74119119D01*
X42179249Y74173222D01*
X42242291Y74181334D01*
X42299128Y74253278D01*
X42305791Y74414167D01*
X42251879Y74588571D01*
X42114482Y74645453D01*
X42067333Y74647000D01*
X41920327Y74623287D01*
X41868297Y74517959D01*
X41867209Y74380492D01*
X41852599Y74188086D01*
X41753139Y74097175D01*
X41623792Y74062992D01*
X41374711Y74020989D01*
X41255390Y74033167D01*
X41231579Y74111587D01*
X41248778Y74195022D01*
X41250220Y74350667D01*
X40966667Y74350667D01*
X40935689Y74280977D01*
X40910222Y74294223D01*
X40900089Y74394702D01*
X40910222Y74407112D01*
X40960557Y74395489D01*
X40966667Y74350667D01*
X41250220Y74350667D01*
X41250973Y74431853D01*
X41149504Y74605708D01*
X40984801Y74686006D01*
X40797292Y74642167D01*
D14*
X88000000Y68750000D02*
X90250000Y68750000D01*
X88000000Y68758400D02*
X88000000Y71000000D01*
X98235200Y68750000D02*
X98250000Y71000000D01*
X98250000Y79250000D02*
X98250000Y77000000D01*
X98250000Y79250000D02*
X95750000Y79250000D01*
X89000000Y79250000D02*
X90250000Y79250000D01*
X88000000Y78250000D02*
X89000000Y79250000D01*
X96000000Y68750000D02*
X98235200Y68750000D01*
X88000000Y77000000D02*
X88000000Y78250000D01*
D11*
X25000000Y84500000D02*
X26000000Y84500000D01*
X25000000Y85000000D02*
X25000000Y84500000D01*
X32000000Y84500000D02*
X31000000Y84500000D01*
X32000000Y85000000D02*
X32000000Y84500000D01*
X25000000Y88500000D02*
X26000000Y88500000D01*
X25000000Y88000000D02*
X25000000Y88500000D01*
X32000000Y88500000D02*
X31000000Y88500000D01*
X32000000Y88000000D02*
X32000000Y88500000D01*
X25000000Y50500000D02*
X26000000Y50500000D01*
X25000000Y51000000D02*
X25000000Y50500000D01*
X32000000Y50500000D02*
X31000000Y50500000D01*
X32000000Y51000000D02*
X32000000Y50500000D01*
X25000000Y54500000D02*
X26000000Y54500000D01*
X25000000Y54000000D02*
X25000000Y54500000D01*
X32000000Y54500000D02*
X31000000Y54500000D01*
X32000000Y54000000D02*
X32000000Y54500000D01*
X32500000Y15000000D02*
G75*
G02X32500000Y14000000I0J-500000D01*
G01*
X32500000Y16000000D02*
G75*
G02X32500000Y15000000I0J-500000D01*
G01*
X32500000Y17000000D02*
G75*
G02X32500000Y16000000I0J-500000D01*
G01*
X32500000Y14000000D02*
X32500000Y13500000D01*
X32500000Y18000000D02*
G75*
G02X32500000Y17000000I0J-500000D01*
G01*
X32500000Y18000000D02*
X32500000Y18500000D01*
X22500000Y18000000D02*
X22500000Y18500000D01*
X22500000Y14000000D02*
X22500000Y13500000D01*
X22500000Y18000000D02*
G75*
G03X22500000Y17000000I0J-500000D01*
G01*
X22500000Y17000000D02*
G75*
G03X22500000Y16000000I0J-500000D01*
G01*
X22500000Y15000000D02*
G75*
G03X22500000Y14000000I0J-500000D01*
G01*
X22500000Y16000000D02*
G75*
G03X22500000Y15000000I0J-500000D01*
G01*
X16500000Y9000000D02*
X17500000Y9000000D01*
X16500000Y9000000D02*
X16500000Y10000000D01*
X38500000Y23000000D02*
X38500000Y22000000D01*
X38500000Y23000000D02*
X37500000Y23000000D01*
X38500000Y9000000D02*
X38500000Y10000000D01*
X38500000Y9000000D02*
X37500000Y9000000D01*
X16500000Y23000000D02*
X16500000Y22000000D01*
X16500000Y23000000D02*
X17500000Y23000000D01*
D12*
X51059523Y81797619D02*
X50392857Y80797619D01*
X50392857Y81797619D02*
X51059523Y80797619D01*
X50059523Y81702380D02*
X50011904Y81750000D01*
X49916666Y81797619D01*
X49678571Y81797619D01*
X49583333Y81750000D01*
X49535714Y81702380D01*
X49488095Y81607142D01*
X49488095Y81511904D01*
X49535714Y81369047D01*
X50107142Y80797619D01*
X49488095Y80797619D01*
X92059523Y67547619D02*
X91392857Y66547619D01*
X91392857Y67547619D02*
X92059523Y66547619D01*
X90488095Y66547619D02*
X91059523Y66547619D01*
X90773809Y66547619D02*
X90773809Y67547619D01*
X90869047Y67404761D01*
X90964285Y67309523D01*
X91059523Y67261904D01*
D11*
X67714285Y54228571D02*
X67714285Y54828571D01*
X67714285Y54542857D02*
X67371428Y54542857D01*
X67371428Y54228571D02*
X67371428Y54828571D01*
X67114285Y54400000D02*
X66828571Y54400000D01*
X67171428Y54228571D02*
X66971428Y54828571D01*
X66771428Y54228571D01*
X66257142Y54228571D02*
X66600000Y54228571D01*
X66428571Y54228571D02*
X66428571Y54828571D01*
X66485714Y54742857D01*
X66542857Y54685714D01*
X66600000Y54657142D01*
X5785714Y56328571D02*
X5385714Y55728571D01*
X5385714Y56328571D02*
X5785714Y55728571D01*
X5157142Y55728571D02*
X5157142Y56328571D01*
X4928571Y56328571D01*
X4871428Y56300000D01*
X4842857Y56271428D01*
X4814285Y56214285D01*
X4814285Y56128571D01*
X4842857Y56071428D01*
X4871428Y56042857D01*
X4928571Y56014285D01*
X5157142Y56014285D01*
X4242857Y55728571D02*
X4585714Y55728571D01*
X4414285Y55728571D02*
X4414285Y56328571D01*
X4471428Y56242857D01*
X4528571Y56185714D01*
X4585714Y56157142D01*
X76057142Y64328571D02*
X75657142Y63728571D01*
X75657142Y64328571D02*
X76057142Y63728571D01*
X75228571Y64042857D02*
X75428571Y64042857D01*
X75428571Y63728571D02*
X75428571Y64328571D01*
X75142857Y64328571D01*
X74914285Y64328571D02*
X74914285Y63842857D01*
X74885714Y63785714D01*
X74857142Y63757142D01*
X74800000Y63728571D01*
X74685714Y63728571D01*
X74628571Y63757142D01*
X74600000Y63785714D01*
X74571428Y63842857D01*
X74571428Y64328571D01*
X74314285Y64271428D02*
X74285714Y64300000D01*
X74228571Y64328571D01*
X74085714Y64328571D01*
X74028571Y64300000D01*
X74000000Y64271428D01*
X73971428Y64214285D01*
X73971428Y64157142D01*
X74000000Y64071428D01*
X74342857Y63728571D01*
X73971428Y63728571D01*
X59557142Y64328571D02*
X59157142Y63728571D01*
X59157142Y64328571D02*
X59557142Y63728571D01*
X58728571Y64042857D02*
X58928571Y64042857D01*
X58928571Y63728571D02*
X58928571Y64328571D01*
X58642857Y64328571D01*
X58414285Y64328571D02*
X58414285Y63842857D01*
X58385714Y63785714D01*
X58357142Y63757142D01*
X58300000Y63728571D01*
X58185714Y63728571D01*
X58128571Y63757142D01*
X58100000Y63785714D01*
X58071428Y63842857D01*
X58071428Y64328571D01*
X57471428Y63728571D02*
X57814285Y63728571D01*
X57642857Y63728571D02*
X57642857Y64328571D01*
X57700000Y64242857D01*
X57757142Y64185714D01*
X57814285Y64157142D01*
X51128571Y37550000D02*
X51185714Y37578571D01*
X51271428Y37578571D01*
X51357142Y37550000D01*
X51414285Y37492857D01*
X51442857Y37435714D01*
X51471428Y37321428D01*
X51471428Y37235714D01*
X51442857Y37121428D01*
X51414285Y37064285D01*
X51357142Y37007142D01*
X51271428Y36978571D01*
X51214285Y36978571D01*
X51128571Y37007142D01*
X51100000Y37035714D01*
X51100000Y37235714D01*
X51214285Y37235714D01*
X50528571Y36978571D02*
X50871428Y36978571D01*
X50700000Y36978571D02*
X50700000Y37578571D01*
X50757142Y37492857D01*
X50814285Y37435714D01*
X50871428Y37407142D01*
X93700000Y79478571D02*
X93700000Y80078571D01*
X93557142Y80078571D01*
X93471428Y80050000D01*
X93414285Y79992857D01*
X93385714Y79935714D01*
X93357142Y79821428D01*
X93357142Y79735714D01*
X93385714Y79621428D01*
X93414285Y79564285D01*
X93471428Y79507142D01*
X93557142Y79478571D01*
X93700000Y79478571D01*
X93128571Y79650000D02*
X92842857Y79650000D01*
X93185714Y79478571D02*
X92985714Y80078571D01*
X92785714Y79478571D01*
X92271428Y79478571D02*
X92614285Y79478571D01*
X92442857Y79478571D02*
X92442857Y80078571D01*
X92500000Y79992857D01*
X92557142Y79935714D01*
X92614285Y79907142D01*
X28942857Y88478571D02*
X28942857Y89078571D01*
X28600000Y88478571D02*
X28857142Y88821428D01*
X28600000Y89078571D02*
X28942857Y88735714D01*
X28371428Y89021428D02*
X28342857Y89050000D01*
X28285714Y89078571D01*
X28142857Y89078571D01*
X28085714Y89050000D01*
X28057142Y89021428D01*
X28028571Y88964285D01*
X28028571Y88907142D01*
X28057142Y88821428D01*
X28400000Y88478571D01*
X28028571Y88478571D01*
X28942857Y54478571D02*
X28942857Y55078571D01*
X28600000Y54478571D02*
X28857142Y54821428D01*
X28600000Y55078571D02*
X28942857Y54735714D01*
X28028571Y54478571D02*
X28371428Y54478571D01*
X28200000Y54478571D02*
X28200000Y55078571D01*
X28257142Y54992857D01*
X28314285Y54935714D01*
X28371428Y54907142D01*
X36350000Y22978571D02*
X36635714Y22978571D01*
X36635714Y23578571D01*
X35835714Y22978571D02*
X36178571Y22978571D01*
X36007142Y22978571D02*
X36007142Y23578571D01*
X36064285Y23492857D01*
X36121428Y23435714D01*
X36178571Y23407142D01*
M02*
